<svg width="50" height="50" viewBox="0 0 50 50" fill="none" xmlns="http://www.w3.org/2000/svg">
<path d="M44.4583 49.0217C43.9681 48.9746 43.4885 48.8444 43.0555 48.6842C41.9432 48.2727 41.4517 46.9116 41.7453 45.7625L42.1103 44.3335C42.3211 43.5085 41.6979 42.7061 40.8464 42.7061C40.1414 42.7061 39.564 43.2662 39.5425 43.9708L39.4768 46.1249C39.4446 47.1808 39.197 48.3614 38.8286 49.3515C38.7988 49.4316 38.7733 49.5002 38.754 49.5522C38.7275 49.6236 38.6976 49.6972 38.7117 49.7721C38.7187 49.8098 38.7337 49.8456 38.7556 49.8775C38.7775 49.9094 38.8059 49.9367 38.8391 49.9577C38.8543 49.9673 38.8703 49.9754 38.8869 49.9821C38.9267 49.9981 38.9703 49.9996 39.0132 49.9996C39.8211 49.9686 40.5413 49.9094 41.5484 49.8869C42.7398 49.8587 42.4266 50.0024 43.8406 49.9883C44.6837 49.9855 44.8154 49.0611 44.4583 49.0217Z" fill="#F27C20" fill-opacity="0.72"/>
<path d="M31.8858 21.7523C32.1476 21.769 32.3595 21.9714 32.3883 22.2322C32.405 22.3777 32.4608 22.5166 32.5501 22.6352C32.6394 22.7537 32.7591 22.8479 32.8976 22.9086C35.1547 23.8978 45.0701 28.3393 45.4214 30.2867C45.7522 32.1107 43.1082 41.2379 42.2043 44.2735C42.0291 44.8621 41.489 45.257 40.8748 45.257C40.0922 45.257 39.4634 44.6156 39.4896 43.8334C39.5791 41.165 39.8399 35.4473 40.4856 32.8569C40.5178 32.7357 40.5471 32.6201 40.5793 32.513C40.6162 32.3875 40.6253 32.256 40.606 32.1269C40.5868 31.9978 40.5397 31.874 40.4677 31.7635C40.3957 31.6531 40.3004 31.5584 40.188 31.4855C40.0793 31.415 39.9568 31.3665 39.828 31.3429C39.8195 31.3414 39.8109 31.3407 39.8023 31.3407C39.7934 31.3407 39.7845 31.3399 39.7757 31.3384C36.9648 30.8461 34.1863 30.1957 31.4544 29.3905L31.1821 29.3087C30.6663 29.1564 30.1356 29.0554 29.5984 29.0072L-nan -nanL29.5984 29.0072C28.0849 28.8719 24.7212 28.2857 24.3816 25.7127C24.147 23.921 24.6856 22.8052 25.2336 22.1565C25.755 21.5392 26.6033 21.4137 27.4098 21.4654L31.8858 21.7523Z" fill="#407BFF"/>
<path opacity="0.1" d="M27.1865 28.5277C28.2752 28.8961 29.405 28.4474 30.058 27.5016C30.4771 26.8945 30.7878 26.317 31.0176 25.7862C31.7032 24.203 30.1858 23.0073 28.5078 23.4083C27.8481 23.566 27.2638 23.9482 26.855 24.4895L26.5269 24.9239C25.5742 26.1853 25.6891 28.021 27.1865 28.5277Z" fill="black"/>
<path d="M-nan -nanL0.663278 47.8895C0.475707 48.2531 0.12134 49.3139 0.0296374 49.5919C0.0146988 49.6372 -0.00121393 49.6826 0.000103496 49.7303C0.000496796 49.7445 0.00201122 49.7588 0.00464979 49.7728C0.011702 49.8105 0.0266321 49.8463 0.0485422 49.8782C0.0704524 49.9101 0.0988817 49.9374 0.132092 49.9584C0.147237 49.968 0.163232 49.9761 0.179861 49.9828C0.219623 49.9988 0.263266 50.0003 0.306126 50.0003C1.11704 49.9693 1.8372 49.9101 2.84425 49.8876C4.03573 49.8594 3.15163 50.0031 4.55096 49.989C5.39408 49.989 5.52581 49.0562 5.16573 49.0168C3.53101 48.8594 3.92515 48.3882 3.28884 47.8406C3.28531 47.8376 3.28135 47.8347 3.27733 47.8324C3.22922 47.8041 3.22414 47.7365 3.26748 47.7013L6.3554 45.1948C7.08447 44.6031 7.01332 43.4693 6.216 42.9733C5.64364 42.6172 4.8984 42.7303 4.46118 43.2434C3.4039 44.4841 1.53801 46.6904 0.815503 47.6499C0.759441 47.7265 0.708595 47.8066 0.663278 47.8895L-nan -nanZ" fill="#F27C20" fill-opacity="0.72"/>
<path d="M28.6602 21.6327C30.6915 21.8314 31.9598 23.3752 30.7174 24.9945C29.9295 26.0213 28.6811 27.3202 26.7089 28.9084C21.5625 33.0529 9.50937 42.7336 6.36178 45.2615C5.89874 45.6333 5.26061 45.6723 4.75057 45.3681C4.01331 44.9284 3.82995 43.9451 4.37124 43.2788C6.36384 40.826 10.835 35.4625 13.5177 33.3274C13.8093 33.0917 14.1185 32.8769 14.4428 32.6849C15.2594 32.239 15.9791 31.6458 16.5623 30.9376C16.5837 30.9113 16.6012 30.8884 16.6205 30.8606C16.9545 30.3796 20.4256 25.3947 22.6876 22.6891C23.5357 21.6746 24.8365 21.2588 26.1525 21.3875L28.6602 21.6327Z" fill="#407BFF"/>
<path d="M30.2306 9.78971C30.2426 9.63223 30.3177 9.48541 30.4401 9.38024C30.5624 9.27507 30.7224 9.21979 30.8863 9.22607L46.082 9.89011C46.2269 9.89645 46.3704 9.89644 46.5154 9.89176C47.3068 9.86618 50.0023 9.80888 49.9998 10.2153C49.9969 10.6915 48.8932 11.5173 46.7796 11.0213C46.4699 10.9491 46.1481 10.9386 45.834 10.9903C44.8679 11.1533 42.6828 11.4659 41.0939 11.279C40.924 11.259 40.7543 11.236 40.588 11.196C39.6696 10.993 38.7183 10.9691 37.7902 11.1257C37.7799 11.1275 37.7694 11.1284 37.759 11.1284C37.748 11.1284 37.7373 11.1293 37.7265 11.1312C35.7591 11.4831 32.7919 11.9337 31.627 11.692C30.8161 11.5483 30.1779 10.4548 30.2306 9.78971Z" fill="#F27C20" fill-opacity="0.72"/>
<path opacity="0.1" d="M-nan -nanL32.5726 9.69336L32.2061 9.7457C32.0577 9.7669 31.9367 9.87556 31.8997 10.0209L31.839 10.2591C31.8002 10.4115 31.8111 10.5722 31.8716 10.7174C31.9366 10.8731 32.0322 11.0995 32.1469 11.3623C32.2534 11.6065 32.4944 11.7656 32.7607 11.7591C33.1777 11.7489 33.466 11.3478 33.3087 10.9615C33.1248 10.5097 32.8775 10.0829 32.5726 9.69336L-nan -nanZ" fill="black"/>
<path d="M25.2335 1.52097C25.3213 1.07569 25.2891 0.111864 24.203 0.00758988C22.8154 -0.133321 21.6181 1.69852 22.0455 4.61256C22.0889 4.90836 22.1043 5.16734 22.097 5.39392C22.0746 6.08671 22.279 7.4454 22.8213 7.01369C24.2528 5.88076 24.9407 2.98363 25.2335 1.52097Z" fill="#263238"/>
<path d="M23.9904 16.735C24.3134 19.3274 23.7535 21.5763 26.3213 22.057C28.747 22.5111 32.612 20.5544 32.854 18.0985C32.8839 17.7948 32.9162 17.4844 32.9508 17.1705C33.2729 14.2396 33.346 11.2382 32.6581 9.84317C32.1663 8.85398 30.4888 9.09071 28.1908 9.1978C25.8488 9.31053 23.4863 9.53317 23.0618 10.2997C22.5068 11.3105 23.6268 13.8174 23.9904 16.735Z" fill="#F1F9EC"/>
<path d="M28.1819 9.20903C27.0539 9.26251 26.3394 10.4589 27.1062 11.2879C27.6748 11.9027 28.441 12.3935 29.4407 12.388C30.3177 12.388 30.589 11.8336 30.6032 11.1529C30.6286 9.94073 29.3932 9.15581 28.1819 9.20903Z" fill="#F27C20" fill-opacity="0.72"/>
<path d="M25.4119 1.99772C25.2543 2.22831 24.9187 2.33634 24.7779 2.0951C24.7056 1.97118 24.6849 1.8082 24.8087 1.60569C24.9145 1.43251 25.0519 1.3628 25.1888 1.34726C25.5142 1.3103 25.5968 1.72735 25.4119 1.99772Z" fill="#407BFF"/>
<path d="M28.4354 7.29117C27.852 6.93792 27.1641 7.44717 27.1115 8.12714C27.0897 8.40803 27.026 8.67259 26.8978 8.90789C26.7403 9.19685 26.5835 9.50873 26.7452 9.79534C26.9168 10.0993 27.2634 10.5191 27.9638 10.9742C28.9094 11.5887 30.3782 11.1475 30.1706 10.039C30.1526 9.94268 30.1281 9.853 30.1001 9.77058C29.9534 9.33925 29.4335 9.21722 29.1162 8.89028C28.9494 8.71837 28.8679 8.47442 28.8632 8.1888C28.8573 7.83602 28.7372 7.47393 28.4354 7.29117Z" fill="#F27C20" fill-opacity="0.72"/>
<path opacity="0.1" d="M28.4316 8.16721C28.6437 8.25029 28.858 8.07014 28.8922 7.84494C28.9145 7.69889 28.8581 7.54707 28.7317 7.4706L27.4302 6.68324C27.2908 6.59893 27.1108 6.68604 27.0905 6.84765C27.0881 6.86641 27.088 6.88507 27.092 6.90356C27.1232 7.04889 27.3258 7.73408 28.4316 8.16721Z" fill="black"/>
<path d="M25.6028 3.81173C25.8955 5.60975 25.9716 6.3763 27.0109 7.21895C28.5712 8.48715 30.802 7.7516 31.0772 5.90848C31.3231 4.24855 30.8108 1.5797 28.902 1.03296C28.2491 0.840174 27.5433 0.904589 26.9396 1.21208C26.3359 1.51957 25.8836 2.04502 25.6818 2.67317C25.5622 3.0413 25.5351 3.43154 25.6028 3.81173Z" fill="#F27C20" fill-opacity="0.72"/>
<path d="M30.1659 5.03242C30.1015 4.85024 30.3833 4.67508 30.5401 4.78796C30.6237 4.84814 30.6467 4.96935 30.5634 5.03001C30.5385 5.04816 30.5122 5.06467 30.4847 5.07939C30.4397 5.10351 30.3922 5.12251 30.3429 5.13611C30.2665 5.15725 30.1923 5.10724 30.1659 5.03242Z" fill="#D7B59B"/>
<path d="M-nan -nanL29.4084 5.88321C29.4815 5.88885 29.5549 5.88885 29.628 5.88321C29.6393 5.88183 29.6498 5.87648 29.6573 5.86817C29.6649 5.85986 29.669 5.84917 29.6689 5.83812L-nan -nanL29.6689 5.83812C29.6669 5.82693 29.6607 5.81682 29.6516 5.80959C29.6425 5.80237 29.631 5.79849 29.6192 5.79867C29.4348 5.81971 29.2478 5.79822 29.0737 5.73599C28.8996 5.67376 28.7434 5.57256 28.618 5.44076C28.6094 5.43362 28.5985 5.42969 28.5872 5.42969C28.5759 5.42969 28.565 5.43362 28.5565 5.44076C28.5485 5.44866 28.5439 5.45928 28.5439 5.47035C28.5439 5.48141 28.5485 5.49203 28.5565 5.49994C28.6648 5.61524 28.796 5.70854 28.9423 5.77436C29.0885 5.84018 29.247 5.87718 29.4084 5.88321L-nan -nanZ" fill="#263238"/>
<path d="M-nan -nanL28.1321 3.74471C28.1512 3.74658 28.1705 3.74235 28.1869 3.73268C28.2032 3.72301 28.2159 3.70842 28.2228 3.69116C28.2939 3.5672 28.391 3.45883 28.5079 3.37295C28.6248 3.28707 28.7591 3.22556 28.902 3.19233C28.9252 3.18697 28.9453 3.17303 28.9579 3.15351C28.9705 3.13399 28.9746 3.11047 28.9694 3.08806C28.9673 3.07692 28.9629 3.0663 28.9564 3.05688C28.9498 3.04747 28.9414 3.03946 28.9314 3.03336C28.9215 3.02727 28.9104 3.02322 28.8988 3.02148C28.8872 3.01974 28.8753 3.02034 28.864 3.02324L-nan -nanL28.864 3.02324C28.6923 3.06242 28.5315 3.13685 28.3926 3.24143C28.2536 3.34601 28.1398 3.47828 28.0589 3.62916C28.0546 3.63952 28.0526 3.65059 28.0527 3.66173C28.0529 3.67287 28.0554 3.68386 28.0601 3.69408C28.0647 3.70429 28.0714 3.71352 28.0797 3.72125C28.088 3.72897 28.0979 3.73502 28.1087 3.73907L-nan -nanL28.1087 3.73907C28.1158 3.74302 28.1239 3.74497 28.1321 3.74471L-nan -nanZ" fill="#263238"/>
<path d="M30.8161 3.05658C30.8327 3.05812 30.8493 3.05525 30.8643 3.04829C30.8793 3.04134 30.892 3.03055 30.901 3.01712C30.9134 2.99794 30.9175 2.9749 30.9126 2.95283C30.9077 2.93077 30.8941 2.91139 30.8747 2.89876C30.7579 2.81606 30.6216 2.76248 30.4781 2.74281C30.3345 2.72314 30.1882 2.73799 30.052 2.78603C30.031 2.79421 30.014 2.80994 30.0047 2.82991C29.9954 2.84989 29.9946 2.87254 30.0023 2.89312L-nan -nanL30.0023 2.89312C30.0064 2.9035 30.0127 2.91295 30.0208 2.9209C30.0289 2.92885 30.0386 2.93512 30.0493 2.93934C30.06 2.94356 30.0714 2.94564 30.083 2.94545C30.0945 2.94525 30.1059 2.94279 30.1164 2.93821L-nan -nanL30.1164 2.93821C30.2242 2.9052 30.3384 2.89668 30.4502 2.9133C30.5414 2.92688 30.6289 2.9569 30.7082 3.00163C30.7439 3.02172 30.7752 3.05631 30.8161 3.05658Z" fill="#263238"/>
<path d="M29.2004 3.93654C29.1831 3.93618 29.1663 3.94223 29.1535 3.95345C29.0959 4.00903 29.0259 4.05114 28.9487 4.07655C28.8716 4.10195 28.7894 4.10997 28.7085 4.1C28.7005 4.09791 28.692 4.09743 28.6837 4.09859C28.6755 4.09976 28.6675 4.10253 28.6604 4.10676C28.6533 4.11098 28.6471 4.11655 28.6423 4.12314C28.6375 4.12974 28.6341 4.1372 28.6324 4.14509C28.6288 4.16112 28.6316 4.1779 28.6403 4.19202C28.649 4.20615 28.6629 4.21657 28.6793 4.22118L-nan -nanL28.6793 4.22118C28.7813 4.23698 28.8858 4.22911 28.9841 4.19823C29.0823 4.16735 29.1715 4.11435 29.2443 4.04363C29.2562 4.03202 29.263 4.01632 29.263 3.99995C29.263 3.98358 29.2562 3.96788 29.2443 3.95627L-nan -nanL29.2443 3.95627C29.2321 3.94543 29.2168 3.93853 29.2004 3.93654Z" fill="#263238"/>
<path d="M-nan -nanL30.8454 3.50785C30.8373 3.50757 30.8292 3.50893 30.8216 3.51184C30.8141 3.51475 30.8072 3.51915 30.8015 3.52476C30.7458 3.5822 30.6766 3.62599 30.5997 3.65246C30.5228 3.67893 30.4404 3.68733 30.3595 3.67694C30.3429 3.67432 30.3258 3.67779 30.3117 3.68666C30.2977 3.69552 30.2875 3.70915 30.2833 3.72485C30.2812 3.73263 30.2807 3.74075 30.2819 3.74872C30.2831 3.75669 30.286 3.76434 30.2904 3.7712C30.2948 3.77806 30.3006 3.78399 30.3074 3.78862C30.3142 3.79325 30.322 3.79648 30.3302 3.79812L-nan -nanL30.3302 3.79812C30.4314 3.81275 30.5347 3.80374 30.6315 3.77186C30.7283 3.73998 30.8157 3.68616 30.8864 3.61494C30.8927 3.60939 30.8977 3.60265 30.9012 3.59513C30.9046 3.5876 30.9064 3.57947 30.9064 3.57125C30.9064 3.56304 30.9046 3.55491 30.9012 3.54739C30.8977 3.53987 30.8927 3.53312 30.8864 3.52757L-nan -nanL30.8864 3.52757C30.8751 3.51725 30.8608 3.51038 30.8454 3.50785L-nan -nanZ" fill="#263238"/>
<path d="M26.0704 5.88015C26.1943 5.37391 26.607 4.68946 26.4774 4.18464C26.3137 3.5468 26.5367 1.66941 28.4474 1.29238C29.0051 1.18233 29.7066 0.864575 29.545 0.319577C29.504 0.181554 29.4034 0.0817673 29.2012 0.0740367C28.7034 0.0550021 28.3641 0.00713659 27.8659 0.00781292C27.562 0.00822556 27.0407 0.37352 26.7471 0.452178C26.2446 0.586806 25.4548 1.02374 24.9142 2.40916C24.1845 4.27897 25.7642 7.13128 26.0704 5.88015Z" fill="#263238"/>
<path d="M-nan -nanL25.2245 5.24906C25.373 5.56279 25.6446 5.80704 25.9798 5.92825C26.4277 6.08325 26.6883 5.70561 26.5946 5.28006C26.5068 4.89678 26.1701 4.35286 25.7163 4.37259C25.6363 4.37829 25.5582 4.39917 25.4866 4.43403C25.4149 4.46888 25.3512 4.51703 25.2989 4.5757C25.2467 4.63437 25.207 4.7024 25.1822 4.77588C25.1574 4.84937 25.1479 4.92685 25.1543 5.00388C25.1586 5.0896 25.1826 5.17333 25.2245 5.24906L-nan -nanZ" fill="#F27C20" fill-opacity="0.72"/>
<path d="M29.9818 0.142581C29.8605 0.0217028 30.3432 0.629229 30.2597 0.479744C30.2045 0.380975 30.1146 0.269162 29.9818 0.142581Z" fill="#263238"/>
<path opacity="0.5" d="M23.1024 12.4459C23.2757 13.2576 24.0068 13.7904 24.2563 12.9988C24.4064 12.5224 24.486 11.9218 24.5272 11.4771C24.5615 11.1071 24.3253 10.7734 23.9715 10.6599L23.9496 10.6528C23.6712 10.5635 23.3663 10.6343 23.1556 10.837C23 10.9868 22.9091 11.1938 22.9294 11.4088C22.958 11.7135 23.0204 12.062 23.1024 12.4459Z" fill="black"/>
<path d="M24.5511 10.2549C24.5398 10.0962 24.4641 9.94805 24.3403 9.84259C24.2165 9.73713 24.0546 9.68278 23.8895 9.6913L9.30807 10.5676C9.14986 10.5771 8.99318 10.579 8.83473 10.5752C7.96443 10.554 4.98881 10.5138 5.08633 10.9567C5.2005 11.4752 7.19997 12.1516 8.75738 11.695C8.98286 11.6285 9.2211 11.6121 9.45412 11.6471C10.3997 11.7965 12.9056 12.1347 14.5626 11.8444L14.8143 11.7965C15.7294 11.577 16.6812 11.5388 17.612 11.6841C17.6224 11.6858 17.6329 11.6866 17.6434 11.6866C17.6544 11.6866 17.665 11.6874 17.6758 11.6892C19.649 12.0129 22.6221 12.4215 23.7841 12.1713C24.5657 12.0107 24.6009 10.9172 24.5511 10.2549Z" fill="#F27C20" fill-opacity="0.72"/>
</svg>
