<svg width="50" height="50" viewBox="0 0 50 50" fill="none" xmlns="http://www.w3.org/2000/svg">
<path d="M30.799 49.9379C35.2692 49.9379 38.8929 46.139 38.8929 41.4528C38.8929 36.7667 35.2692 32.9678 30.799 32.9678C26.3289 32.9678 22.7051 36.7667 22.7051 41.4528C22.7051 46.139 26.3289 49.9379 30.799 49.9379Z" fill="#407BFF"/>
<path opacity="0.3" d="M30.799 49.9379C35.2692 49.9379 38.8929 46.139 38.8929 41.4528C38.8929 36.7667 35.2692 32.9678 30.799 32.9678C26.3289 32.9678 22.7051 36.7667 22.7051 41.4528C22.7051 46.139 26.3289 49.9379 30.799 49.9379Z" fill="white"/>
<path d="M5.57324 4.71562L6.11934 3.4834L9.47834 6.18997L8.52189 8.23287L5.57324 4.71562Z" fill="#7F3E3B"/>
<path d="M34.1871 27.1438C34.1871 27.1438 25.4265 19.2835 21.706 15.5695C17.624 12.4889 9.47969 6.18945 9.47969 6.18945L8.51562 8.24316C8.51562 8.24316 13.7799 15.483 19.7824 19.2683C25.2008 26.6314 30.1553 33.1666 32.5106 32.972C34.1871 31.2944 34.1871 27.1438 34.1871 27.1438Z" fill="#263238"/>
<path opacity="0.2" d="M26.7129 28.2725C27.75 29.5348 28.8524 30.6852 30.0109 31.714L32.9305 32.0145L33.1182 31.5822C31.6614 30.5013 28.9629 29.1804 26.7129 28.2725Z" fill="black"/>
<path d="M6.1691 3.39884L6.18893 5.49146C6.19069 5.53562 6.18044 5.57905 6.16029 5.61282C6.14015 5.6466 6.11164 5.66815 6.08063 5.67305L4.87096 5.90653C4.8334 5.90826 4.79596 5.89934 4.76086 5.88028C4.72576 5.86123 4.6937 5.83244 4.66656 5.79558C4.63942 5.75873 4.61775 5.71457 4.60282 5.66569C4.58788 5.6168 4.57999 5.56418 4.57961 5.51092C4.57961 4.58999 4.61469 4.14683 4.60401 2.98378C4.60401 2.26822 4.54147 1.83586 4.53232 0.845758C4.52317 -0.144346 5.19283 -0.157318 5.2569 0.257748C5.54825 2.11906 5.7008 2.35685 6.06538 2.99891C6.12993 3.11252 6.16637 3.25303 6.1691 3.39884Z" fill="#263238"/>
<path d="M40.4029 25.0382C40.081 24.7615 39.7241 24.4589 39.3747 24.1886C39.0254 23.9184 38.67 23.6374 38.3069 23.3801C37.9439 23.1229 37.5839 22.8829 37.2208 22.643C36.8578 22.403 36.4856 22.1868 36.1134 21.9944L35.8968 21.8755C35.8669 21.8604 35.8354 21.8531 35.8037 21.8539C35.6853 21.8658 35.5702 21.9145 35.4666 21.9966C35.1592 22.2425 34.879 22.5514 34.6352 22.9132C34.3571 23.3072 34.0953 23.7237 33.8512 24.1605C33.5979 24.5929 33.3554 25.0685 33.1281 25.5268L33.1174 25.5463C33.065 25.653 32.9864 25.7282 32.897 25.7573C32.8075 25.7864 32.7136 25.7672 32.6336 25.7035C32.5536 25.6397 32.4932 25.5361 32.4642 25.4127C32.4352 25.2893 32.4397 25.155 32.4768 25.0361C32.8146 23.8957 33.2555 22.8223 33.7886 21.8431C34.0804 21.3027 34.4323 20.8332 34.8305 20.4531C35.0794 20.22 35.3609 20.0659 35.6558 20.0012C35.8308 19.9676 36.0086 19.9749 36.182 20.0229C36.2268 20.0347 36.2711 20.0498 36.3147 20.0683L36.4032 20.105L36.5558 20.1742C37.3767 20.5371 38.1781 20.9836 38.9537 21.5102C39.3397 21.7739 39.7241 22.0398 40.0978 22.3338C40.4715 22.6278 40.8361 22.924 41.2144 23.2807C41.3792 23.4318 41.4953 23.6691 41.5373 23.9408C41.5793 24.2126 41.5438 24.4969 41.4386 24.7318C41.3334 24.9667 41.167 25.1332 40.9756 25.195C40.7842 25.2569 40.5833 25.2091 40.4166 25.062L40.4029 25.0382Z" fill="#7F3E3B"/>
<path d="M40.0993 23.1257C38.9034 23.5386 36.9218 24.8811 33.2715 26.3965L34.4918 34.674C36.6991 33.885 38.1071 33.3878 42.5308 33.4742C42.6372 33.4762 42.7427 33.4473 42.8408 33.3892C42.939 33.3311 43.0277 33.245 43.1015 33.1365C43.1752 33.0279 43.2325 32.899 43.2697 32.7578C43.307 32.6166 43.3234 32.4661 43.318 32.3155C43.2922 31.5113 43.2362 30.7095 43.1502 29.9138C43.0307 28.655 42.8472 27.4102 42.601 26.189C42.4988 25.7155 42.3783 25.2248 42.2608 24.773C42.1062 24.1701 41.8004 23.669 41.4017 23.3652C41.0031 23.0614 40.5395 22.9761 40.0993 23.1257Z" fill="#7F3E3B"/>
<path opacity="0.2" d="M42.1405 32.6396C41.75 32.6656 40.8896 33.0828 40.4473 33.4806C40.8652 33.4676 41.3152 33.4633 41.8079 33.4633L42.1405 32.6396Z" fill="black"/>
<path d="M46.2467 19.4995C45.5908 18.8509 44.5382 19.6249 44.1675 21.5727C43.8472 23.2589 44.6465 26.5751 44.6465 26.5751C45.376 26.8215 46.12 26.972 46.8691 27.0247C48.1413 27.122 50.5454 26.4367 49.8879 23.4102C50.2921 20.522 47.6882 17.3269 46.2467 19.4995Z" fill="#263238"/>
<path opacity="0.2" d="M39.8008 27.6674C40.3423 27.4318 41.2332 28.1387 41.494 28.7916C41.1874 28.3722 40.2767 27.7409 39.8008 27.6674Z" fill="black"/>
<path d="M45.6478 26.9756C44.7905 27.2674 43.2819 27.9851 43.0088 29.1049C43.0088 29.1049 42.1134 29.3211 41.4452 27.248C40.71 24.9738 41.8907 25.6439 41.8907 25.6439C42.5008 26.7486 43.14 26.2924 43.6815 25.6828L45.6478 26.9756Z" fill="#7F3E3B"/>
<path opacity="0.2" d="M44.8447 26.4501L43.6808 25.6826C43.5565 25.8288 43.4232 25.959 43.2827 26.0717C43.182 26.6057 43.931 27.0705 44.2986 26.8932C44.4947 26.7834 44.6786 26.6341 44.8447 26.4501Z" fill="black"/>
<path d="M47.638 24.1396C46.8539 25.8691 46.5473 26.6106 45.5481 27.0191C44.0471 27.6331 42.7292 25.8885 43.1349 23.8716C43.501 22.0556 44.7229 19.548 46.2361 19.8225C46.5696 19.8805 46.8871 20.0584 47.1584 20.3392C47.4298 20.6201 47.646 20.9946 47.7864 21.4271C47.9269 21.8597 47.987 22.336 47.961 22.8107C47.935 23.2855 47.8238 23.7429 47.638 24.1396Z" fill="#7F3E3B"/>
<path d="M45.3198 19.1497C44.3375 20.6846 47.1687 21.9925 46.4532 25.4903C47.521 25.0752 49.4888 22.695 47.8932 20.2176C47.2297 19.1886 45.9804 18.1164 45.3198 19.1497Z" fill="#263238"/>
<path d="M3.49997 47.0805C3.27116 46.9162 2.75862 46.9551 2.23845 47.4459C1.71828 47.9366 0.200474 47.8436 0.0204735 48.8121C-0.180883 49.893 1.15539 50.187 1.732 49.893C2.05997 49.7287 2.53285 49.1948 3.25743 49.1213C3.66777 49.0932 4.16201 47.5583 3.49997 47.0805Z" fill="#263238"/>
<path d="M2.79499 48.1845C2.76226 47.9953 2.77805 47.7958 2.83952 47.6216C2.90099 47.4474 3.00415 47.3098 3.13058 47.2333L5.78788 45.5039L6.28059 47.7933L3.50279 48.7963C3.42794 48.8233 3.35003 48.8288 3.27366 48.8126C3.19728 48.7963 3.12397 48.7585 3.05803 48.7015C2.9921 48.6445 2.93486 48.5694 2.88969 48.4807C2.84451 48.3919 2.81232 48.2912 2.79499 48.1845Z" fill="#7F3E3B"/>
<path d="M33.6063 28.666C33.6063 28.666 23.0275 34.6434 18.8478 37.0797C14.5019 39.6112 5.78711 45.4913 5.78711 45.4913L6.28287 47.7958C6.28287 47.7958 16.1082 43.8332 19.876 41.2477C27.0333 38.8438 32.9946 37.7499 34.4926 34.6801L33.6063 28.666Z" fill="#263238"/>
<path d="M45.4457 23.0125C45.3877 23.1573 45.2932 23.2286 45.2199 23.1789C45.1467 23.1292 45.1452 22.9627 45.2032 22.8179C45.2611 22.6731 45.3557 22.6017 45.4289 22.6536C45.5021 22.7055 45.5037 22.8676 45.4457 23.0125Z" fill="#263238"/>
<path d="M44.2904 22.0894C44.2325 22.2343 44.1379 22.3056 44.0647 22.2537C43.9914 22.2018 43.9899 22.0375 44.0479 21.8949C44.1058 21.7522 44.2004 21.6787 44.2736 21.7284C44.3469 21.7781 44.3469 21.9446 44.2904 22.0894Z" fill="#263238"/>
<path d="M44.2997 21.761L44.0938 21.4648C44.0938 21.4648 44.1121 21.8367 44.2997 21.761Z" fill="#263238"/>
<path d="M44.5418 22.6348C44.3195 22.8933 44.0731 23.1072 43.8096 23.2703C43.8409 23.3645 43.8863 23.4479 43.9427 23.5148C43.9991 23.5816 44.065 23.6302 44.136 23.6573L44.5418 22.6348Z" fill="#630F0F"/>
<path d="M44.4746 24.664C44.4217 24.6359 44.3707 24.6011 44.3221 24.5603C44.3142 24.554 44.3084 24.5435 44.3059 24.5311C44.3035 24.5188 44.3046 24.5055 44.3091 24.4943C44.3135 24.4832 44.3209 24.4749 44.3297 24.4715C44.3384 24.4681 44.3477 24.4697 44.3556 24.476C44.4813 24.5817 44.6227 24.6438 44.7685 24.6574C44.9143 24.6709 45.0603 24.6354 45.1946 24.5538C45.2027 24.5476 45.2122 24.5462 45.2211 24.5498C45.2299 24.5534 45.2374 24.5619 45.2419 24.5732C45.244 24.5791 45.2453 24.5854 45.2457 24.5919C45.246 24.5985 45.2455 24.605 45.2441 24.6112C45.2427 24.6175 45.2404 24.6232 45.2374 24.6282C45.2344 24.6332 45.2308 24.6373 45.2266 24.6403C45.1087 24.7151 44.9815 24.7558 44.8523 24.7598C44.7232 24.7639 44.5947 24.7314 44.4746 24.664Z" fill="#263238"/>
<path d="M47.4204 25.8531C47.2082 26.1061 46.9342 26.2304 46.6577 26.199C46.2886 26.1515 46.2367 25.6391 46.4487 25.2435C46.6409 24.8868 47.0589 24.4825 47.3808 24.729C47.4491 24.785 47.5065 24.8644 47.5477 24.9599C47.5889 25.0554 47.6125 25.164 47.6164 25.2758C47.6204 25.3875 47.6045 25.4989 47.5703 25.5998C47.536 25.7006 47.4845 25.7877 47.4204 25.8531Z" fill="#7F3E3B"/>
<path d="M46.0424 23.0492C46.0289 23.0413 46.0175 23.0278 46.0096 23.0104C46.0017 22.993 45.9977 22.9726 45.9982 22.952C46.0134 22.5001 45.6931 22.1413 45.6931 22.137C45.68 22.1206 45.6719 22.0978 45.6702 22.0732C45.6686 22.0486 45.6736 22.024 45.6843 22.0045C45.695 21.985 45.7105 21.9719 45.7277 21.968C45.7449 21.9641 45.7626 21.9696 45.777 21.9835C45.7923 22.0008 46.1599 22.4158 46.1416 22.9606C46.1408 22.9866 46.1328 23.0111 46.1194 23.0289C46.106 23.0467 46.0882 23.0563 46.0699 23.0557L46.0424 23.0492Z" fill="#263238"/>
<path d="M44.2424 21.0541C44.2279 21.047 44.2155 21.0332 44.2072 21.0149C44.1989 20.9966 44.1952 20.9749 44.1966 20.9533C44.198 20.9316 44.2045 20.9113 44.215 20.8955C44.2255 20.8797 44.2395 20.8693 44.2546 20.866C44.3627 20.8342 44.4746 20.8398 44.5808 20.8823C44.687 20.9249 44.7844 21.0031 44.8648 21.1103C44.871 21.1197 44.8759 21.1307 44.8791 21.1427C44.8823 21.1547 44.8838 21.1675 44.8835 21.1804C44.8832 21.1932 44.8811 21.2059 44.8774 21.2176C44.8737 21.2293 44.8684 21.2399 44.8617 21.2487C44.8551 21.2575 44.8474 21.2643 44.8389 21.2689C44.8304 21.2734 44.8214 21.2756 44.8123 21.2752C44.8032 21.2748 44.7943 21.2718 44.786 21.2665C44.7778 21.2612 44.7703 21.2537 44.7641 21.2443C44.7001 21.1617 44.6232 21.1018 44.5396 21.0695C44.4561 21.0372 44.3684 21.0334 44.2836 21.0584C44.27 21.064 44.2553 21.0625 44.2424 21.0541Z" fill="#263238"/>
<path d="M43.34 32.6283C43.1203 33.9254 42.8823 35.2376 42.6627 36.539L42.3393 38.4997L42.1867 39.466C42.1379 39.7838 42.0937 40.1146 42.0586 40.3956C42.048 40.5139 42.044 40.6332 42.0464 40.7523C42.0464 40.8972 42.0464 41.0485 42.0586 41.2041C42.0708 41.5176 42.0937 41.8527 42.1196 42.1661C42.173 42.8147 42.2355 43.4783 42.3057 44.1377L42.7359 48.1219C42.7486 48.251 42.7271 48.3822 42.6754 48.49C42.6237 48.5978 42.5456 48.6745 42.4562 48.7053C42.3668 48.736 42.2725 48.7185 42.1917 48.6562C42.1109 48.594 42.0493 48.4914 42.0189 48.3683C41.7139 47.0713 41.4423 45.7742 41.2059 44.4447C41.0915 43.781 40.9786 43.1152 40.8871 42.4299C40.8413 42.0883 40.7986 41.7424 40.7635 41.3836C40.7467 41.2041 40.7315 41.0204 40.7223 40.8258C40.711 40.6099 40.711 40.3932 40.7223 40.1773C40.7498 39.799 40.7849 39.4552 40.823 39.1094C40.8611 38.7635 40.9054 38.4262 40.9481 38.089C41.0366 37.4159 41.1322 36.7479 41.2349 36.085C41.4378 34.7533 41.6559 33.4368 41.9015 32.1224C41.9496 31.8509 42.0719 31.6177 42.2414 31.474C42.4109 31.3302 42.6137 31.2878 42.8053 31.3561C42.9969 31.4243 43.1615 31.5976 43.2629 31.8378C43.3643 32.078 43.3942 32.3654 43.3461 32.6369L43.34 32.6283Z" fill="#7F3E3B"/>
<path d="M45.4559 22.6839L45.25 22.3877C45.25 22.3877 45.2683 22.7595 45.4559 22.6839Z" fill="#263238"/>
<path d="M42.5055 47.7334H43.8433L43.0912 48.9051C43.0912 48.9051 42.1195 49.0326 41.999 48.1917L42.5055 47.7334Z" fill="#7F3E3B"/>
<path d="M45.083 49.0024L44.3569 49.318L43.0908 48.9051L43.8429 47.7334L45.083 49.0024Z" fill="#7F3E3B"/>
<path d="M33.1433 25.2715L33.5826 26.3784L32.1731 26.253C32.1731 26.253 32.0663 25.211 32.5865 24.8867L33.1433 25.2715Z" fill="#7F3E3B"/>
<path d="M33.0851 27.6884L32.0234 27.2474L32.1729 26.2529L33.5824 26.3783L33.0851 27.6884Z" fill="#7F3E3B"/>
<path d="M43.2925 30.9855C43.4283 31.5951 43.32 31.8913 43.32 31.8913C41.3232 31.6059 39.3875 31.9799 39.1281 33.6466C38.2952 33.759 37.2076 33.7547 36.213 34.1525C36.1833 34.164 36.1523 34.1663 36.1219 34.1592C36.0915 34.152 36.0626 34.1357 36.0371 34.1113C36.0116 34.0868 35.9901 34.0549 35.9742 34.0176C35.9582 33.9803 35.9481 33.9386 35.9446 33.8952C35.8012 32.1658 35.3191 27.9416 34.712 25.769C34.7011 25.7294 34.6961 25.687 34.6975 25.6446C34.6988 25.6021 34.7064 25.5605 34.7198 25.5224C34.7331 25.4843 34.752 25.4506 34.7751 25.4235C34.7982 25.3963 34.825 25.3763 34.8539 25.3648C40.5834 23.0711 42.031 23.938 42.031 23.938C42.1533 24.1694 42.2452 24.4301 42.3025 24.7076C41.5093 24.6644 39.5842 24.459 40.1258 27.9676C40.6673 31.4762 43.2925 30.9855 43.2925 30.9855Z" fill="#407BFF"/>
<path d="M41.352 23.7994C41.0072 23.6978 37.9014 22.0397 37.3523 24.5517C36.9023 26.6097 41.352 23.7994 41.352 23.7994Z" fill="#407BFF"/>
</svg>
