<svg width="258" height="122" viewBox="0 0 258 122" fill="none" xmlns="http://www.w3.org/2000/svg">
<path opacity="0.2" d="M175.882 106.688C175.582 101.893 172.569 98.3853 168.122 97.5024C166.04 89.7912 159.034 85.0446 149.913 86.1624C142.008 87.1425 134.467 92.2941 129.76 99.2034C127.91 98.6379 125.958 98.4858 124.042 98.7579C117.432 99.5679 111.195 104.549 108.231 110.795C107.25 110.612 106.247 110.585 105.258 110.714C99.5878 111.418 94.9324 114.217 93.9928 120C92.1061 121.078 94.0005 120 94.0005 120C94.0005 120 94.3665 117.86 93.9928 120C93.8346 120.906 105.004 119.053 105.5 120.5H187.749C188.122 119.401 187.477 122.562 187.643 121.414C188.842 113.006 183.698 106.858 175.882 106.688Z" fill="#407BFF"/>
<path opacity="0.2" d="M58.5213 74.4998C58.3092 71.1389 56.1777 68.6807 53.0319 68.0619C51.5592 62.6572 46.6027 59.3304 40.1507 60.1138C34.5581 60.8008 29.2234 64.4115 25.8943 69.2541C24.5851 68.8578 23.2041 68.7512 21.8488 68.9419C17.1731 69.5096 12.761 73.0011 10.6638 77.3782C9.97011 77.2503 9.26048 77.2311 8.56082 77.3214C4.54978 77.8153 1.25646 79.7766 0.591772 83.8302C-0.742892 84.5856 0.597226 83.8302 0.597226 83.8302C0.597226 83.8302 0.856182 82.3299 0.591772 83.8302C0.479905 84.4649 8.38107 83.1667 8.73248 84.1806H66.9165C67.1803 83.4105 66.7239 85.6259 66.8413 84.821C67.6894 78.9281 64.0508 74.6191 58.5213 74.4998Z" fill="#407BFF"/>
<path opacity="0.2" d="M133.726 20.6879C133.426 15.8926 130.413 12.3853 125.966 11.5024C123.884 3.79121 116.878 -0.955403 107.757 0.1624C99.8514 1.1425 92.3103 6.29412 87.6041 13.2034C85.7536 12.6379 83.8014 12.4858 81.8855 12.7579C75.2759 13.5679 69.0389 18.5495 66.0743 24.7946C65.0938 24.6121 64.0906 24.5848 63.1016 24.7136C57.4316 25.4183 52.7761 28.2166 51.8365 34C49.9498 35.0779 51.8442 34 51.8442 34C51.8442 34 52.2103 31.8595 51.8365 34C51.6784 34.9056 62.8475 33.0534 63.3442 34.5H145.593C145.966 33.4013 145.321 36.562 145.487 35.4137C146.686 27.0059 141.542 20.858 133.726 20.6879Z" fill="#407BFF"/>
<path opacity="0.2" d="M245.978 47.8798C245.677 43.0401 242.655 39.5002 238.194 38.6091C236.106 30.8264 229.078 26.0357 219.93 27.1639C212 28.1531 204.436 33.3525 199.716 40.3259C197.86 39.7552 195.901 39.6017 193.98 39.8763C187.35 40.6938 181.094 45.7215 178.12 52.0246C177.137 51.8404 176.131 51.8128 175.138 51.9428C169.451 52.6541 164.782 55.4783 163.839 61.3154C161.947 62.4033 163.847 61.3154 163.847 61.3154C163.847 61.3154 164.214 59.1551 163.839 61.3154C163.68 62.2294 174.884 60.36 175.382 61.8201H257.882C258.256 60.7112 257.609 63.9012 257.775 62.7422C258.977 54.2564 253.818 48.0515 245.978 47.8798Z" fill="#407BFF"/>
<path d="M143 41.1383C142.993 46.1746 141.249 51.0545 138.064 54.9552C134.878 58.856 130.445 61.5391 125.512 62.5523C120.579 63.5656 115.447 62.8469 110.982 60.5175C106.517 58.1882 102.992 54.3905 101 49.7648C105.023 51.4957 109.473 51.9793 113.774 51.153C118.075 50.3266 122.029 48.2284 125.124 45.1298C128.219 42.0313 130.313 38.075 131.135 33.773C131.957 29.4711 131.469 25.0214 129.734 21C133.671 22.6923 137.027 25.5019 139.384 29.0811C141.742 32.6603 142.999 36.8522 143 41.1383Z" fill="white"/>
<path d="M154.427 76.2134C153.626 76.4379 153.45 76.6138 153.213 77.4268C152.995 76.626 152.813 76.45 152 76.2134C152.801 75.995 152.983 75.813 153.213 75C153.45 75.813 153.626 75.995 154.427 76.2134Z" fill="white"/>
<path d="M219 12C217.02 12.555 216.585 12.99 216 15C215.46 13.02 215.01 12.585 213 12C214.98 11.46 215.43 11.01 216 9C216.585 11.01 217.02 11.46 219 12Z" fill="black"/>
<path d="M156.427 11.2134C155.626 11.4379 155.45 11.6138 155.213 12.4268C154.995 11.626 154.813 11.45 154 11.2134C154.801 10.995 154.983 10.813 155.213 10C155.45 10.813 155.626 10.995 156.427 11.2134Z" fill="white"/>
<path d="M122.427 75.2134C121.626 75.4379 121.45 75.6138 121.213 76.4268C120.995 75.626 120.813 75.45 120 75.2134C120.801 74.995 120.983 74.813 121.213 74C121.45 74.813 121.626 74.995 122.427 75.2134Z" fill="black"/>
<path d="M93 96.5C92.01 96.7775 91.7925 96.995 91.5 98C91.23 97.01 91.005 96.7925 90 96.5C90.99 96.23 91.215 96.005 91.5 95C91.7925 96.005 92.01 96.23 93 96.5Z" fill="black"/>
<path d="M211 108.5C210.01 108.778 209.793 108.995 209.5 110C209.23 109.01 209.005 108.793 208 108.5C208.99 108.23 209.215 108.005 209.5 107C209.793 108.005 210.01 108.23 211 108.5Z" fill="black"/>
<path d="M78.4268 46.2134C77.626 46.4379 77.45 46.6138 77.2134 47.4268C76.995 46.626 76.813 46.45 76 46.2134C76.8008 45.995 76.9829 45.813 77.2134 45C77.45 45.813 77.626 45.995 78.4268 46.2134Z" fill="white"/>
<path d="M21.4268 64.2134C20.626 64.4379 20.45 64.6138 20.2134 65.4268C19.995 64.626 19.813 64.45 19 64.2134C19.8008 63.995 19.9829 63.813 20.2134 63C20.45 63.813 20.626 63.995 21.4268 64.2134Z" fill="white"/>
<path d="M30 43C28.68 43.37 28.39 43.66 28 45C27.64 43.68 27.34 43.39 26 43C27.32 42.64 27.62 42.34 28 41C28.39 42.34 28.68 42.64 30 43Z" fill="black"/>
<path d="M58 14C56.68 14.37 56.39 14.66 56 16C55.64 14.68 55.34 14.39 54 14C55.32 13.64 55.62 13.34 56 12C56.39 13.34 56.68 13.64 58 14Z" fill="white"/>
<path d="M58 112C56.02 112.555 55.585 112.99 55 115C54.46 113.02 54.01 112.585 52 112C53.98 111.46 54.43 111.01 55 109C55.585 111.01 56.02 111.46 58 112Z" fill="black"/>
<path d="M192 90C190.02 90.555 189.585 90.99 189 93C188.46 91.02 188.01 90.585 186 90C187.98 89.46 188.43 89.01 189 87C189.585 89.01 190.02 89.46 192 90Z" fill="black"/>
</svg>
