<svg width="50" height="50" viewBox="0 0 50 50" fill="none" xmlns="http://www.w3.org/2000/svg">
<g clip-path="url(#clip0_1021_1909)">
<path d="M50 39.9395H0V39.973H50V39.9395Z" fill="#EBEBEB"/>
<path d="M44.9897 42.0986H41.6777V42.1322H44.9897V42.0986Z" fill="#EBEBEB"/>
<path d="M33.1219 42.4639H32.2529V42.4974H33.1219V42.4639Z" fill="#EBEBEB"/>
<path d="M41.5782 40.8535H39.6592V40.8871H41.5782V40.8535Z" fill="#EBEBEB"/>
<path d="M9.56509 41.0791H5.24609V41.1127H9.56509V41.0791Z" fill="#EBEBEB"/>
<path d="M11.0891 41.0791H10.4561V41.1127H11.0891V41.0791Z" fill="#EBEBEB"/>
<path d="M22.5145 41.6445H13.1465V41.6781H22.5145V41.6445Z" fill="#EBEBEB"/>
<path d="M23.7003 33.9536H4.39129C4.24002 33.9533 4.09504 33.8724 3.98818 33.7287C3.88131 33.585 3.82129 33.3903 3.82129 33.1873V-3.24039C3.82261 -3.44223 3.88321 -3.63523 3.98993 -3.77746C4.09666 -3.91968 4.24089 -3.99965 4.39129 -4H23.7003C23.8517 -4 23.997 -3.91926 24.104 -3.77555C24.2111 -3.63184 24.2713 -3.43692 24.2713 -3.23368V33.1873C24.2713 33.3905 24.2111 33.5855 24.104 33.7292C23.997 33.8729 23.8517 33.9536 23.7003 33.9536ZM4.39129 -3.97316C4.24665 -3.9728 4.10803 -3.89544 4.00586 -3.75806C3.90368 -3.62068 3.84629 -3.4345 3.84629 -3.24039V33.1873C3.84629 33.3814 3.90368 33.5676 4.00586 33.705C4.10803 33.8424 4.24665 33.9197 4.39129 33.9201H23.7003C23.845 33.9197 23.9837 33.8424 24.0861 33.7051C24.1884 33.5677 24.246 33.3815 24.2463 33.1873V-3.24039C24.246 -3.43462 24.1884 -3.6208 24.0861 -3.75814C23.9837 -3.89549 23.845 -3.9728 23.7003 -3.97316H4.39129Z" fill="#EBEBEB"/>
<path d="M45.3312 33.9536H26.0212C25.8698 33.9533 25.7248 33.8724 25.6177 33.7288C25.5107 33.5851 25.4505 33.3904 25.4502 33.1873V-3.24039C25.4518 -3.44236 25.5126 -3.63535 25.6195 -3.77754C25.7264 -3.91973 25.8707 -3.99966 26.0212 -4H45.3312C45.4814 -3.9993 45.6254 -3.91917 45.7319 -3.77699C45.8384 -3.6348 45.8989 -3.442 45.9002 -3.24039V33.1873C45.9002 33.3901 45.8403 33.5846 45.7337 33.7282C45.627 33.8719 45.4823 33.9529 45.3312 33.9536ZM26.0212 -3.97316C25.8765 -3.9728 25.7377 -3.89549 25.6354 -3.75814C25.5331 -3.6208 25.4755 -3.43462 25.4752 -3.24039V33.1873C25.4755 33.3815 25.5331 33.5677 25.6354 33.7051C25.7377 33.8424 25.8765 33.9197 26.0212 33.9201H45.3312C45.4759 33.9197 45.6146 33.8424 45.717 33.7051C45.8193 33.5677 45.8769 33.3815 45.8772 33.1873V-3.24039C45.8769 -3.43462 45.8193 -3.6208 45.717 -3.75814C45.6146 -3.89549 45.4759 -3.9728 45.3312 -3.97316H26.0212Z" fill="#EBEBEB"/>
<path d="M30.1751 0.556641H19.1201V6.11414H30.1751V0.556641Z" fill="#EBEBEB"/>
<path d="M26.8155 0.839844H22.4805V3.33474H26.8155V0.839844Z" fill="#E0E0E0"/>
<path d="M25.0665 4.27246H24.2285V5.39711H25.0665V4.27246Z" fill="#E0E0E0"/>
<path d="M21.6384 2.08789H19.8184V4.27412H21.6384V2.08789Z" fill="#E0E0E0"/>
<path d="M29.4772 2.08789H27.6572V4.27412H29.4772V2.08789Z" fill="#E0E0E0"/>
<path d="M29.4772 1.12305H27.6572V1.51225H29.4772V1.12305Z" fill="#FAFAFA"/>
<path d="M21.6384 1.12305H19.8184V1.51225H21.6384V1.12305Z" fill="#FAFAFA"/>
<path d="M23.9202 4.64062H23.2012V5.02982H23.9202V4.64062Z" fill="#FAFAFA"/>
<path d="M26.094 4.64062H25.375V5.02982H26.094V4.64062Z" fill="#FAFAFA"/>
<path d="M35.834 1.5114L37.178 0.0351291L37.852 -0.248047L38.617 0.55585L38.221 2.47635L35.834 1.5114Z" fill="#F0F0F0"/>
<path d="M36.9815 1.12305H35.3465L34.6875 1.51225H35.8345L35.0565 2.97376L36.1355 4.27288L37.3855 3.6515L37.4825 5.0298L38.0895 4.6406L38.2215 2.47719L36.9815 1.12305Z" fill="#EBEBEB"/>
<path d="M36.1348 1.51225L36.9808 1.12305L38.2208 2.47719L37.5088 3.33477L36.1348 1.51225Z" fill="#E0E0E0"/>
<path d="M36.5855 1.51179L9.56445 39.8036H23.1995L37.8515 2.46197C37.8515 2.46197 37.5875 1.50239 36.5855 1.51179Z" fill="#F5F5F5"/>
<path d="M36.9805 1.12305L37.1775 2.22891L37.9825 3.0771L38.2205 2.47719L36.9805 1.12305Z" fill="#F0F0F0"/>
<path d="M12.3475 1.5114L11.0035 0.0351291L10.3295 -0.248047L9.56445 0.55585L9.96045 2.47635L12.3475 1.5114Z" fill="#F0F0F0"/>
<path d="M11.1999 1.12305H12.8359L13.4949 1.51225H12.3479L13.1259 2.97376L12.0469 4.27288L10.7969 3.6515L10.6989 5.0298L10.0929 4.6406L9.96094 2.47719L11.1999 1.12305Z" fill="#EBEBEB"/>
<path d="M12.0469 1.51225L11.1999 1.12305L9.96094 2.47719L10.6719 3.33477L12.0469 1.51225Z" fill="#E0E0E0"/>
<path d="M11.6001 1.51179L38.6201 39.8036H24.9801L10.3301 2.46197C10.3301 2.46197 10.5941 1.50239 11.6001 1.51179Z" fill="#F5F5F5"/>
<path d="M11.1999 1.12305L11.0039 2.22891L10.1979 3.0771L9.96094 2.47719L11.1999 1.12305Z" fill="#F0F0F0"/>
<path d="M24.0467 19.2812L19.4717 25.7648L24.0467 37.6474L28.7327 25.7044L24.0467 19.2812Z" fill="#FAFAFA"/>
<path d="M25.0003 46.0003C35.7086 46.0003 44.3893 45.3202 44.3893 44.4811C44.3893 43.6421 35.7086 42.9619 25.0003 42.9619C14.2921 42.9619 5.61133 43.6421 5.61133 44.4811C5.61133 45.3202 14.2921 46.0003 25.0003 46.0003Z" fill="#F5F5F5"/>
<path d="M41.293 27.923H8.70703C8.64073 27.923 8.57714 27.8876 8.53025 27.8247C8.48337 27.7618 8.45703 27.6765 8.45703 27.5875C8.45703 27.4985 8.48337 27.4131 8.53025 27.3502C8.57714 27.2873 8.64073 27.252 8.70703 27.252H41.293C41.3593 27.252 41.4229 27.2873 41.4698 27.3502C41.5167 27.4131 41.543 27.4985 41.543 27.5875C41.543 27.6765 41.5167 27.7618 41.4698 27.8247C41.4229 27.8876 41.3593 27.923 41.293 27.923Z" fill="#263238"/>
<path d="M41.293 33.2911H8.70703C8.64073 33.2911 8.57714 33.2558 8.53025 33.1929C8.48337 33.13 8.45703 33.0446 8.45703 32.9556C8.45703 32.8666 8.48337 32.7813 8.53025 32.7184C8.57714 32.6555 8.64073 32.6201 8.70703 32.6201H41.293C41.3593 32.6201 41.4229 32.6555 41.4698 32.7184C41.5167 32.7813 41.543 32.8666 41.543 32.9556C41.543 33.0446 41.5167 33.13 41.4698 33.1929C41.4229 33.2558 41.3593 33.2911 41.293 33.2911Z" fill="#263238"/>
<path d="M41.293 38.6613H8.70703C8.64073 38.6613 8.57714 38.6259 8.53025 38.563C8.48337 38.5001 8.45703 38.4147 8.45703 38.3258C8.45703 38.2368 8.48337 38.1514 8.53025 38.0885C8.57714 38.0256 8.64073 37.9902 8.70703 37.9902H41.293C41.3593 37.9902 41.4229 38.0256 41.4698 38.0885C41.5167 38.1514 41.543 38.2368 41.543 38.3258C41.543 38.4147 41.5167 38.5001 41.4698 38.563C41.4229 38.6259 41.3593 38.6613 41.293 38.6613Z" fill="#263238"/>
<g opacity="0.4">
<path opacity="0.4" d="M41.293 27.923H8.70703C8.64073 27.923 8.57714 27.8876 8.53025 27.8247C8.48337 27.7618 8.45703 27.6765 8.45703 27.5875C8.45703 27.4985 8.48337 27.4131 8.53025 27.3502C8.57714 27.2873 8.64073 27.252 8.70703 27.252H41.293C41.3593 27.252 41.4229 27.2873 41.4698 27.3502C41.5167 27.4131 41.543 27.4985 41.543 27.5875C41.543 27.6765 41.5167 27.7618 41.4698 27.8247C41.4229 27.8876 41.3593 27.923 41.293 27.923Z" fill="white"/>
</g>
<g opacity="0.4">
<path opacity="0.4" d="M41.293 33.2911H8.70703C8.64073 33.2911 8.57714 33.2558 8.53025 33.1929C8.48337 33.13 8.45703 33.0446 8.45703 32.9556C8.45703 32.8666 8.48337 32.7813 8.53025 32.7184C8.57714 32.6555 8.64073 32.6201 8.70703 32.6201H41.293C41.3593 32.6201 41.4229 32.6555 41.4698 32.7184C41.5167 32.7813 41.543 32.8666 41.543 32.9556C41.543 33.0446 41.5167 33.13 41.4698 33.1929C41.4229 33.2558 41.3593 33.2911 41.293 33.2911Z" fill="white"/>
</g>
<g opacity="0.4">
<path opacity="0.4" d="M41.293 38.6613H8.70703C8.64073 38.6613 8.57714 38.6259 8.53025 38.563C8.48337 38.5001 8.45703 38.4147 8.45703 38.3258C8.45703 38.2368 8.48337 38.1514 8.53025 38.0885C8.57714 38.0256 8.64073 37.9902 8.70703 37.9902H41.293C41.3593 37.9902 41.4229 38.0256 41.4698 38.0885C41.5167 38.1514 41.543 38.2368 41.543 38.3258C41.543 38.4147 41.5167 38.5001 41.4698 38.563C41.4229 38.6259 41.3593 38.6613 41.293 38.6613Z" fill="white"/>
</g>
<path d="M11.4566 24.4339L9.92856 24.0487C9.86338 24.0321 9.79628 24.035 9.73205 24.0572C9.66781 24.0794 9.60801 24.1204 9.55692 24.1772C9.50583 24.2339 9.4647 24.3051 9.43646 24.3857C9.40822 24.4663 9.39357 24.5542 9.39356 24.6432V42.4806C9.39339 42.6216 9.42999 42.7583 9.49702 42.8669C9.56405 42.9754 9.65729 43.0491 9.76056 43.0751L11.2886 43.4657C11.3537 43.4823 11.4208 43.4793 11.4851 43.4571C11.5493 43.4349 11.6091 43.394 11.6602 43.3372C11.7113 43.2804 11.7524 43.2092 11.7807 43.1287C11.8089 43.0481 11.8235 42.9602 11.8236 42.8711V25.0284C11.8233 24.8875 11.7866 24.7511 11.7196 24.6426C11.6527 24.5342 11.5597 24.4603 11.4566 24.4339Z" fill="#407BFF"/>
<path d="M8.38383 26.0762H9.02983C9.08552 26.0762 9.13894 26.1059 9.17832 26.1587C9.2177 26.2116 9.23983 26.2833 9.23983 26.358V44.0733H8.17383V26.358C8.17383 26.2833 8.19595 26.2116 8.23534 26.1587C8.27472 26.1059 8.32813 26.0762 8.38383 26.0762Z" fill="#263238"/>
<path opacity="0.6" d="M8.38383 26.0762H9.02983C9.08552 26.0762 9.13894 26.1059 9.17832 26.1587C9.2177 26.2116 9.23983 26.2833 9.23983 26.358V44.0733H8.17383V26.358C8.17383 26.2833 8.19595 26.2116 8.23534 26.1587C8.27472 26.1059 8.32813 26.0762 8.38383 26.0762Z" fill="white"/>
<path opacity="0.6" d="M11.4566 24.4339L9.92856 24.0487C9.86338 24.0321 9.79628 24.035 9.73205 24.0572C9.66781 24.0794 9.60801 24.1204 9.55692 24.1772C9.50583 24.2339 9.4647 24.3051 9.43646 24.3857C9.40822 24.4663 9.39357 24.5542 9.39356 24.6432V42.4806C9.39339 42.6216 9.42999 42.7583 9.49702 42.8669C9.56405 42.9754 9.65729 43.0491 9.76056 43.0751L11.2886 43.4657C11.3537 43.4823 11.4208 43.4793 11.4851 43.4571C11.5493 43.4349 11.6091 43.394 11.6602 43.3372C11.7113 43.2804 11.7524 43.2092 11.7807 43.1287C11.8089 43.0481 11.8235 42.9602 11.8236 42.8711V25.0284C11.8233 24.8875 11.7866 24.7511 11.7196 24.6426C11.6527 24.5342 11.5597 24.4603 11.4566 24.4339Z" fill="white"/>
<path d="M38.5428 24.434L40.0708 24.0448C40.136 24.0282 40.2031 24.0311 40.2673 24.0533C40.3315 24.0755 40.3913 24.1165 40.4424 24.1733C40.4935 24.23 40.5346 24.3012 40.5629 24.3818C40.5911 24.4624 40.6058 24.5503 40.6058 24.6393V42.4807C40.6059 42.6217 40.5693 42.7584 40.5023 42.867C40.4353 42.9756 40.3421 43.0493 40.2388 43.0753L38.7108 43.4658C38.6456 43.4824 38.5785 43.4795 38.5143 43.4573C38.45 43.4351 38.3902 43.3941 38.3391 43.3373C38.2881 43.2805 38.2469 43.2093 38.2187 43.1288C38.1904 43.0482 38.1758 42.9603 38.1758 42.8713V25.0285C38.176 24.8876 38.2127 24.7512 38.2797 24.6428C38.3467 24.5343 38.4397 24.4605 38.5428 24.434Z" fill="#407BFF"/>
<path d="M41.8262 44.0723H40.7602V26.357C40.7602 26.2823 40.7823 26.2106 40.8217 26.1577C40.8611 26.1049 40.9145 26.0752 40.9702 26.0752H41.6162C41.6719 26.0752 41.7253 26.1049 41.7647 26.1577C41.804 26.2106 41.8262 26.2823 41.8262 26.357V44.0723Z" fill="#263238"/>
<path opacity="0.6" d="M41.8262 44.0723H40.7602V26.357C40.7602 26.2823 40.7823 26.2106 40.8217 26.1577C40.8611 26.1049 40.9145 26.0752 40.9702 26.0752H41.6162C41.6719 26.0752 41.7253 26.1049 41.7647 26.1577C41.804 26.2106 41.8262 26.2823 41.8262 26.357V44.0723Z" fill="white"/>
<path opacity="0.6" d="M38.5428 24.434L40.0708 24.0448C40.136 24.0282 40.2031 24.0311 40.2673 24.0533C40.3315 24.0755 40.3913 24.1165 40.4424 24.1733C40.4935 24.23 40.5346 24.3012 40.5629 24.3818C40.5911 24.4624 40.6058 24.5503 40.6058 24.6393V42.4807C40.6059 42.6217 40.5693 42.7584 40.5023 42.867C40.4353 42.9756 40.3421 43.0493 40.2388 43.0753L38.7108 43.4658C38.6456 43.4824 38.5785 43.4795 38.5143 43.4573C38.45 43.4351 38.3902 43.3941 38.3391 43.3373C38.2881 43.2805 38.2469 43.2093 38.2187 43.1288C38.1904 43.0482 38.1758 42.9603 38.1758 42.8713V25.0285C38.176 24.8876 38.2127 24.7512 38.2797 24.6428C38.3467 24.5343 38.4397 24.4605 38.5428 24.434Z" fill="white"/>
<path d="M29.7999 15.7073C29.7306 15.6262 29.6501 15.5642 29.5629 15.5249C29.4757 15.4856 29.3836 15.4697 29.2919 15.4782C29.2001 15.4866 29.1105 15.5193 29.0281 15.5743C28.9458 15.6292 28.8723 15.7055 28.8119 15.7986L28.8069 15.8066C28.6359 16.075 28.4679 16.3434 28.3069 16.6118C28.3149 16.3206 28.3259 16.024 28.3379 15.7301L28.4229 13.7452C28.4276 13.631 28.4011 13.5184 28.3482 13.4288C28.2953 13.3391 28.2198 13.2784 28.1359 13.2583C28.052 13.2382 27.9656 13.2599 27.8928 13.3194C27.8201 13.379 27.766 13.4722 27.7409 13.5815C27.5909 14.235 27.4699 14.8886 27.3619 15.5556C27.3109 15.8885 27.2619 16.2267 27.2189 16.5649C27.1759 16.9031 27.1399 17.2507 27.1189 17.6184C27.1077 17.8153 27.1047 18.0129 27.1099 18.2102C27.114 18.3409 27.127 18.4707 27.1489 18.5981C27.1677 18.7082 27.1976 18.8144 27.2379 18.9135C27.2763 19.0067 27.3252 19.0914 27.3829 19.1645C27.4784 19.2846 27.5968 19.3668 27.7249 19.402C27.844 19.4344 27.9672 19.4256 28.0829 19.3765C28.1511 19.3473 28.2163 19.3067 28.2769 19.2557C28.3154 19.2224 28.3522 19.1856 28.3869 19.1457C28.4139 19.1148 28.4429 19.0772 28.4579 19.0584L28.6049 18.8799C28.7049 18.7645 28.7929 18.6424 28.8829 18.5216C29.1459 18.1686 29.3949 17.8116 29.6289 17.4332C29.7219 17.2869 29.8109 17.1366 29.8979 16.9823C30.0049 16.7926 30.0543 16.5555 30.0361 16.3189C30.0179 16.0822 29.9335 15.8637 29.7999 15.7073ZM28.3269 18.123C28.333 18.1385 28.3371 18.1553 28.3389 18.1727C28.3324 18.1577 28.3276 18.1414 28.3249 18.1244L28.3269 18.123Z" fill="#E9B376"/>
<path opacity="0.2" d="M29.6269 17.4346C29.3929 17.8131 29.1439 18.17 28.8809 18.523C28.9559 17.6104 29.4629 16.7783 29.4629 16.7783C29.5379 16.987 29.593 17.2075 29.6269 17.4346Z" fill="black"/>
<path d="M33.9271 23.3989L30.1931 23.8149C30.1931 23.8149 29.1311 19.9981 29.3501 15.4941C29.3501 15.4941 30.0811 15.6793 30.9431 15.8444C31.2781 15.9088 31.6331 15.9706 31.9721 16.0162C32.3381 16.0659 32.6861 16.0967 32.9721 16.0954C32.9721 16.0954 32.9901 16.4591 33.0351 17.0496C33.0891 17.7636 33.1811 18.8104 33.3261 19.9538C33.4667 21.1195 33.6675 22.2706 33.9271 23.3989Z" fill="#EBB376"/>
<path d="M32.2195 16.1677L32.0125 16.2133L30.8925 16.4575L30.7595 16.4871L30.3005 16.2562C30.341 16.2295 30.3768 16.1919 30.4059 16.1457C30.435 16.0995 30.4567 16.0458 30.4695 15.9878C30.4853 15.9096 30.4853 15.8272 30.4695 15.7489C30.4332 15.5633 30.3646 15.3917 30.2695 15.2483L31.0405 14.4834L31.3255 14.2002C31.3742 14.6458 31.488 15.0741 31.6605 15.4604C31.7425 15.6362 31.8437 15.7945 31.9605 15.9301C31.9885 15.9623 32.0185 15.9932 32.0485 16.0214C32.1021 16.0771 32.1593 16.1261 32.2195 16.1677Z" fill="#EBB376"/>
<path opacity="0.2" d="M30.2656 15.2478C30.4756 15.5913 30.5016 15.8302 30.4656 15.9872C31.0196 15.7416 31.2656 14.511 31.2656 14.511C31.1856 14.4962 31.1076 14.4868 31.0326 14.4814L30.2656 15.2478Z" fill="black"/>
<path d="M29.8659 11.8457C29.3279 12.0645 29.4109 13.6656 29.6289 13.8588C30.0379 14.2078 30.5339 11.5679 29.8659 11.8457Z" fill="#407BFF"/>
<path opacity="0.4" d="M29.8659 11.8457C29.3279 12.0645 29.4109 13.6656 29.6289 13.8588C30.0379 14.2078 30.5339 11.5679 29.8659 11.8457Z" fill="black"/>
<path d="M31.4269 13.4081C31.3129 14.314 31.2809 14.8522 30.9009 15.2709C30.3289 15.9003 29.5239 15.3635 29.4339 14.4308C29.3529 13.5906 29.5529 12.2513 30.2459 11.9829C30.3986 11.923 30.5602 11.9165 30.7153 11.964C30.8704 12.0114 31.0139 12.1113 31.1322 12.254C31.2505 12.3968 31.3397 12.5777 31.3912 12.7797C31.4428 12.9817 31.4551 13.198 31.4269 13.4081Z" fill="#EBB376"/>
<path d="M30.377 13.5168C30.371 13.5906 30.337 13.651 30.301 13.6416C30.265 13.6322 30.24 13.5718 30.246 13.498C30.252 13.4242 30.286 13.3638 30.322 13.3718C30.358 13.3799 30.383 13.447 30.377 13.5168Z" fill="#263238"/>
<path d="M29.752 13.4268C29.746 13.5006 29.712 13.561 29.676 13.5516C29.64 13.5422 29.615 13.4818 29.621 13.408C29.627 13.3342 29.661 13.2738 29.697 13.2832C29.733 13.2926 29.758 13.353 29.752 13.4268Z" fill="#263238"/>
<path d="M29.9478 13.4932C29.8635 13.7105 29.7575 13.9114 29.6328 14.0904C29.6678 14.1318 29.7091 14.1624 29.7538 14.1803C29.7986 14.1981 29.8456 14.2027 29.8918 14.1937L29.9478 13.4932Z" fill="#AF6152"/>
<path d="M30.3437 14.3075C30.3475 14.3082 30.3511 14.3107 30.3537 14.3147C30.3563 14.3187 30.3577 14.3238 30.3577 14.329C30.3574 14.3348 30.3555 14.3403 30.3523 14.3443C30.3492 14.3483 30.345 14.3505 30.3407 14.3505C30.2716 14.3463 30.2027 14.3642 30.1398 14.4027C30.0769 14.4412 30.0216 14.4992 29.9787 14.5719C29.9775 14.5745 29.976 14.5767 29.9742 14.5784C29.9724 14.5802 29.9704 14.5814 29.9682 14.582C29.9661 14.5827 29.9639 14.5827 29.9617 14.5821C29.9595 14.5815 29.9575 14.5803 29.9557 14.5786C29.9528 14.5744 29.9512 14.5689 29.9512 14.5632C29.9512 14.5575 29.9528 14.552 29.9557 14.5478C30.0013 14.4683 30.0606 14.4049 30.1286 14.363C30.1965 14.3212 30.271 14.3021 30.3457 14.3075H30.3437Z" fill="#263238"/>
<path d="M30.482 13.2053C30.4785 13.2089 30.4745 13.2115 30.4702 13.2129C30.4659 13.2143 30.4614 13.2145 30.457 13.2134C30.4169 13.2023 30.3754 13.2042 30.3359 13.2189C30.2964 13.2336 30.2601 13.2607 30.23 13.298C30.2239 13.3055 30.2159 13.3096 30.2076 13.3095C30.1993 13.3094 30.1913 13.3051 30.1852 13.2975C30.1792 13.2899 30.1755 13.2795 30.1749 13.2684C30.1743 13.2573 30.1768 13.2463 30.182 13.2376C30.2197 13.19 30.2653 13.1552 30.3151 13.136C30.3648 13.1169 30.4173 13.114 30.468 13.1275C30.4723 13.1283 30.4763 13.1303 30.48 13.1332C30.4836 13.1362 30.4868 13.1401 30.4893 13.1447C30.4918 13.1493 30.4936 13.1546 30.4946 13.1602C30.4956 13.1657 30.4957 13.1715 30.495 13.1772C30.4936 13.1885 30.4889 13.1986 30.482 13.2053Z" fill="#263238"/>
<path d="M29.5769 12.9304C29.5759 12.9256 29.5759 12.9205 29.5769 12.9157C29.5776 12.91 29.5792 12.9045 29.5815 12.8997C29.5838 12.8948 29.5868 12.8906 29.5904 12.8874C29.5939 12.8841 29.5979 12.8819 29.6021 12.8807C29.6064 12.8796 29.6107 12.8796 29.6149 12.8808C29.6661 12.8914 29.7146 12.9183 29.7566 12.9591C29.7985 12.9999 29.8325 13.0536 29.8559 13.1156C29.8589 13.1265 29.8588 13.1385 29.8554 13.1493C29.8521 13.16 29.8458 13.1686 29.8379 13.1733C29.8299 13.1779 29.821 13.178 29.8129 13.1737C29.8049 13.1695 29.7984 13.1611 29.7949 13.1505C29.7762 13.1015 29.749 13.0591 29.7156 13.0271C29.6822 12.9951 29.6435 12.9744 29.6029 12.9667C29.5963 12.9649 29.5903 12.9604 29.5857 12.954C29.5811 12.9475 29.578 12.9393 29.5769 12.9304Z" fill="#263238"/>
<path d="M32.0879 12.0124C31.9689 11.8004 31.2419 10.8046 29.4609 11.2864C29.4609 11.2864 29.6429 12.2433 29.9479 12.3708C30.3579 12.5425 30.9269 12.313 30.9269 12.313C30.9269 12.313 31.1199 12.6714 31.0489 13.0176C30.8649 13.7316 30.8889 14.5261 31.1619 14.5986C31.3749 14.655 31.7459 13.898 31.9279 13.2901L31.9499 13.2163C32.0999 12.6929 32.1999 12.2151 32.0879 12.0124Z" fill="#407BFF"/>
<path opacity="0.4" d="M32.0879 12.0124C31.9689 11.8004 31.2419 10.8046 29.4609 11.2864C29.4609 11.2864 29.6429 12.2433 29.9479 12.3708C30.3579 12.5425 30.9269 12.313 30.9269 12.313C30.9269 12.313 31.1199 12.6714 31.0489 13.0176C30.8649 13.7316 30.8889 14.5261 31.1619 14.5986C31.3749 14.655 31.7459 13.898 31.9279 13.2901L31.9499 13.2163C32.0999 12.6929 32.1999 12.2151 32.0879 12.0124Z" fill="black"/>
<path d="M31.6541 14.4572C31.6015 14.5471 31.5361 14.622 31.4618 14.6777C31.3875 14.7335 31.3057 14.7689 31.2211 14.782C30.9941 14.8156 30.9211 14.5324 31.0111 14.2707C31.0951 14.0358 31.3111 13.7339 31.5281 13.8225C31.5743 13.8428 31.616 13.8782 31.6494 13.9257C31.6828 13.9731 31.7068 14.0309 31.7194 14.094C31.7319 14.157 31.7325 14.2233 31.7211 14.2867C31.7097 14.3502 31.6867 14.4088 31.6541 14.4572Z" fill="#EBB376"/>
<path d="M34.3222 26.0771C34.3172 26.1832 33.6972 31.6172 33.3012 33.488C33.3012 33.488 34.2762 35.2166 35.2132 41.4733L34.4002 41.8666C34.4002 41.8666 31.3652 35.0878 31.3512 34.0826C31.3372 33.0774 31.5672 27.701 31.5672 27.701L34.3222 26.0771Z" fill="#EBB376"/>
<path d="M29.7275 25.875C29.7275 25.875 26.1965 31.0527 25.9435 31.9143C25.6905 32.7759 26.5005 41.9986 26.5005 41.9986L27.3305 42.0764C27.3305 42.0764 28.0565 36.7189 27.6625 33.5946C27.6625 33.5946 30.6625 29.7938 31.2625 28.4303L29.7275 25.875Z" fill="#EBB376"/>
<path d="M35.9137 44.1552L35.1557 40.125L33.7607 40.741L35.0637 44.4585L35.9137 44.1552Z" fill="#263238"/>
<path d="M35.0913 43.8244H35.8653C35.879 43.8245 35.8923 43.8308 35.903 43.8423C35.9137 43.8537 35.9212 43.8696 35.9243 43.8875L36.0563 44.7115C36.0597 44.7315 36.0596 44.7521 36.0561 44.772C36.0526 44.7919 36.0458 44.8104 36.0361 44.8262C36.0265 44.842 36.0143 44.8546 36.0004 44.8631C35.9866 44.8716 35.9715 44.8758 35.9563 44.8753C35.6853 44.8672 35.5563 44.8444 35.2133 44.8417C35.0043 44.8417 34.2683 44.8645 33.9783 44.8619C33.6883 44.8592 33.6533 44.4753 33.7713 44.4418C34.3033 44.2901 34.8083 44.0781 34.9793 43.8741C35.0109 43.8397 35.0507 43.822 35.0913 43.8244Z" fill="#263238"/>
<path d="M27.4696 44.4122L27.5736 40.292L26.2656 40.1162L26.5916 44.3491L27.4696 44.4122Z" fill="#263238"/>
<path d="M26.5651 43.8244H27.3401C27.3537 43.8245 27.3668 43.8309 27.3773 43.8423C27.3878 43.8538 27.3952 43.8697 27.3981 43.8874L27.5311 44.7115C27.5345 44.7314 27.5344 44.752 27.5309 44.7719C27.5274 44.7918 27.5206 44.8103 27.5109 44.8261C27.5013 44.8419 27.4891 44.8545 27.4752 44.863C27.4614 44.8715 27.4463 44.8757 27.4311 44.8752C27.1611 44.8671 27.0311 44.8443 26.6891 44.8416C26.4801 44.8416 25.7431 44.8645 25.4541 44.8618C25.1651 44.8591 25.1281 44.4753 25.2471 44.4417C25.7791 44.2901 26.2841 44.078 26.4551 43.874C26.4861 43.8401 26.5252 43.8225 26.5651 43.8244Z" fill="#263238"/>
<path opacity="0.6" d="M35.1791 43.7565L35.1011 43.7002L35.1681 43.5378C35.171 43.5294 35.1726 43.5202 35.1726 43.511C35.1726 43.5017 35.171 43.4925 35.1681 43.4841C35.1659 43.4752 35.1624 43.4671 35.1578 43.4602C35.1531 43.4532 35.1474 43.4477 35.1411 43.4438L35.0411 43.3835L35.0821 43.3083C35.0861 43.3008 35.0889 43.2923 35.0902 43.2833C35.0916 43.2742 35.0916 43.2649 35.0901 43.256C35.089 43.2467 35.0864 43.2379 35.0824 43.2303C35.0784 43.2226 35.0732 43.2162 35.0671 43.2117L34.8831 43.0667L34.9511 42.8976C34.9542 42.8897 34.9561 42.8811 34.9567 42.8722C34.9572 42.8632 34.9565 42.8543 34.9544 42.8458C34.9524 42.8373 34.9491 42.8294 34.9447 42.8226C34.9404 42.8159 34.9351 42.8103 34.9291 42.8064L34.7561 42.6923L34.7961 42.5581C34.8009 42.5432 34.8014 42.5264 34.7975 42.5111C34.7936 42.4957 34.7856 42.4828 34.7751 42.4749L34.6601 42.385L34.7371 42.2159C34.7406 42.2076 34.7429 42.1985 34.7438 42.189C34.7446 42.1796 34.7441 42.17 34.7421 42.1608C34.74 42.1521 34.7366 42.1441 34.7321 42.1372C34.7277 42.1302 34.7222 42.1246 34.7161 42.1206L34.5161 41.9864L34.5701 41.8079C34.5751 41.7906 34.5751 41.7714 34.5701 41.7542C34.5671 41.746 34.5629 41.7387 34.5577 41.7327C34.5526 41.7267 34.5466 41.7221 34.5401 41.7193L34.3891 41.6482L34.4471 41.4361C34.4509 41.4215 34.4509 41.4056 34.4471 41.3909C34.4433 41.3763 34.4359 41.3638 34.4261 41.3556L34.2821 41.2375L34.3331 40.9409C34.3345 40.9321 34.3347 40.923 34.3335 40.9141C34.3323 40.9052 34.3299 40.8967 34.3262 40.8891C34.3226 40.8815 34.3179 40.8749 34.3124 40.8698C34.3069 40.8646 34.3007 40.861 34.2941 40.859C34.2808 40.8551 34.267 40.8584 34.2555 40.8682C34.2441 40.8781 34.236 40.8936 34.2331 40.9114L34.1901 41.1637L34.0001 41.0174C33.9887 41.0084 33.975 41.0058 33.9622 41.01C33.9493 41.0143 33.9381 41.0251 33.9311 41.0402C33.9277 41.0477 33.9254 41.056 33.9244 41.0646C33.9234 41.0733 33.9237 41.0821 33.9253 41.0906C33.9269 41.0991 33.9297 41.1071 33.9336 41.1141C33.9375 41.1212 33.9425 41.127 33.9481 41.1315L34.1701 41.314L34.1191 41.6106C34.1164 41.6267 34.1181 41.6437 34.124 41.6582C34.1299 41.6728 34.1395 41.684 34.1511 41.6898L34.2621 41.7421L34.2211 41.8897C34.2167 41.9056 34.2169 41.9232 34.2217 41.9389C34.2265 41.9546 34.2356 41.9672 34.2471 41.9743L34.3901 42.0655L34.3411 42.2279C34.3368 42.2429 34.3365 42.2594 34.3403 42.2747C34.3442 42.2899 34.3519 42.3028 34.3621 42.3111L34.5251 42.4386L34.4671 42.5648C34.4633 42.5726 34.4608 42.5815 34.4597 42.5908C34.4587 42.6 34.4591 42.6095 34.461 42.6185C34.4629 42.6276 34.4662 42.6359 34.4707 42.6431C34.4752 42.6503 34.4808 42.6561 34.4871 42.6601L34.6321 42.7567L34.5821 42.9137C34.5775 42.9289 34.5771 42.9457 34.5809 42.9612C34.5848 42.9767 34.5927 42.9899 34.6031 42.9983L34.7541 43.1164L34.7021 43.2506C34.6994 43.2588 34.698 43.2677 34.698 43.2768C34.698 43.2858 34.6994 43.2947 34.7021 43.3029C34.7043 43.3118 34.7078 43.3199 34.7124 43.3269C34.7171 43.3338 34.7228 43.3394 34.7291 43.3432L34.8941 43.4425L34.8241 43.5767C34.8197 43.5842 34.8167 43.5929 34.8151 43.6022C34.8136 43.6115 34.8136 43.6211 34.8151 43.6304C34.8167 43.6399 34.8199 43.6488 34.8244 43.6565C34.8289 43.6641 34.8346 43.6703 34.8411 43.6747L34.9681 43.7659L34.9231 43.8746C34.9166 43.8901 34.915 43.9084 34.9186 43.9255C34.9221 43.9427 34.9306 43.9572 34.9421 43.9659C34.9495 43.9711 34.9577 43.9739 34.9661 43.974C34.975 43.9741 34.9838 43.9711 34.9915 43.9652C34.9992 43.9593 35.0057 43.9507 35.0101 43.9404L35.0561 43.829L35.1361 43.8867C35.1435 43.8919 35.1517 43.8947 35.1601 43.8948C35.1691 43.8947 35.1779 43.8914 35.1856 43.8853C35.1933 43.8791 35.1997 43.8704 35.2041 43.8599C35.2088 43.8513 35.2118 43.8414 35.2131 43.8309C35.2143 43.8205 35.2137 43.8097 35.2112 43.7997C35.2088 43.7896 35.2046 43.7804 35.199 43.7729C35.1934 43.7654 35.1866 43.7598 35.1791 43.7565ZM34.2251 41.5824L34.2591 41.3878L34.3401 41.4536L34.2951 41.616L34.2251 41.5824ZM34.3301 41.879L34.3551 41.7864L34.4551 41.8347L34.4231 41.9407L34.3301 41.879ZM34.4491 42.2239L34.4801 42.1233L34.6251 42.2159L34.5761 42.3232L34.4491 42.2239ZM34.5801 42.5728L34.6101 42.5057L34.6901 42.5675L34.6701 42.6319L34.5801 42.5728ZM34.6901 42.9124L34.7211 42.8158L34.8411 42.8963L34.8001 42.9983L34.6901 42.9124ZM34.8151 43.2452L34.8391 43.1848L34.9711 43.2895L34.9511 43.3271L34.8151 43.2452ZM34.9351 43.5807L34.9831 43.4935L35.0541 43.5364L35.0131 43.6371L34.9351 43.5807Z" fill="white"/>
<path opacity="0.6" d="M26.9453 43.2801C26.9457 43.271 26.9447 43.2618 26.9423 43.2533C26.9399 43.2447 26.9361 43.2369 26.9313 43.2305L26.8533 43.1245L26.9113 43.0748C26.9172 43.0697 26.9222 43.063 26.926 43.0552C26.9298 43.0473 26.9322 43.0384 26.9333 43.0292C26.9347 43.02 26.9345 43.0105 26.9328 43.0015C26.931 42.9924 26.9278 42.984 26.9233 42.9768L26.7913 42.7527L26.9003 42.6279C26.9098 42.6151 26.9152 42.5977 26.9152 42.5796C26.9152 42.5615 26.9098 42.5441 26.9003 42.5313L26.7703 42.342L26.8413 42.2427C26.8495 42.2306 26.8541 42.2148 26.8541 42.1984C26.8541 42.182 26.8495 42.1663 26.8413 42.1541L26.7583 42.0199L26.8763 41.9005C26.8817 41.8946 26.8862 41.8872 26.8895 41.8789C26.8927 41.8706 26.8947 41.8615 26.8953 41.8522C26.896 41.8331 26.8914 41.8144 26.8823 41.7998L26.7293 41.5824L26.8293 41.4482C26.8382 41.4344 26.8432 41.4168 26.8433 41.3986C26.8429 41.3893 26.8412 41.3802 26.8381 41.3719C26.835 41.3635 26.8306 41.3562 26.8253 41.3502L26.7033 41.216L26.8143 41.0469C26.8215 41.035 26.8255 41.0201 26.8255 41.0047C26.8255 40.9893 26.8215 40.9743 26.8143 40.9624L26.7143 40.7812L26.8413 40.5302C26.8454 40.523 26.8485 40.5148 26.8502 40.506C26.8519 40.4972 26.8522 40.488 26.8512 40.479C26.8502 40.47 26.8478 40.4613 26.8442 40.4536C26.8406 40.4459 26.8359 40.4392 26.8303 40.434C26.8247 40.4288 26.8184 40.4252 26.8118 40.4234C26.8051 40.4216 26.7983 40.4216 26.7916 40.4234C26.785 40.4253 26.7787 40.4289 26.7731 40.4341C26.7676 40.4393 26.7629 40.446 26.7593 40.4537L26.6503 40.6685L26.5123 40.4269C26.5084 40.4193 26.5035 40.4129 26.4977 40.408C26.492 40.403 26.4855 40.3998 26.4788 40.3983C26.4721 40.3969 26.4652 40.3973 26.4586 40.3995C26.4519 40.4018 26.4457 40.4059 26.4403 40.4115C26.4349 40.417 26.4304 40.4241 26.4271 40.4321C26.4238 40.4401 26.4218 40.4489 26.4211 40.4581C26.4205 40.4672 26.4212 40.4764 26.4233 40.4851C26.4254 40.4938 26.4288 40.5019 26.4333 40.5088L26.5913 40.7866L26.4633 41.0389C26.4562 41.0525 26.4532 41.0691 26.4548 41.0855C26.4565 41.102 26.4627 41.1169 26.4723 41.1275L26.5613 41.2295L26.4833 41.3476C26.4749 41.3601 26.4703 41.3764 26.4703 41.3932C26.4703 41.41 26.4749 41.4263 26.4833 41.4388L26.6003 41.5771L26.5103 41.7113C26.5023 41.7233 26.498 41.7388 26.498 41.7549C26.498 41.7709 26.5023 41.7865 26.5103 41.7985L26.6273 41.9958L26.5383 42.0857C26.5329 42.0916 26.5284 42.099 26.5251 42.1073C26.5218 42.1156 26.5199 42.1247 26.5193 42.134C26.5186 42.1433 26.5194 42.1526 26.5216 42.1614C26.5239 42.1702 26.5275 42.1783 26.5323 42.185L26.6413 42.3447L26.5523 42.4682C26.5443 42.4802 26.54 42.4957 26.54 42.5118C26.54 42.5279 26.5443 42.5434 26.5523 42.5554L26.6603 42.7393L26.5783 42.8346C26.5731 42.8404 26.5688 42.8475 26.5657 42.8556C26.5626 42.8637 26.5608 42.8725 26.5603 42.8815C26.5601 42.9005 26.5655 42.9188 26.5753 42.9325L26.7023 43.1043L26.6023 43.1889C26.5964 43.1942 26.5914 43.2011 26.5876 43.2092C26.5838 43.2173 26.5813 43.2264 26.5803 43.2358C26.579 43.2453 26.5793 43.2551 26.5812 43.2644C26.5831 43.2737 26.5866 43.2823 26.5913 43.2895L26.6853 43.4358L26.6143 43.515C26.6043 43.5267 26.598 43.5431 26.5967 43.5608C26.5954 43.5785 26.5992 43.5962 26.6073 43.6103C26.612 43.6179 26.618 43.6241 26.6248 43.6283C26.6315 43.6324 26.6389 43.6346 26.6463 43.6344C26.658 43.6342 26.6693 43.6285 26.6783 43.6183L26.7503 43.5378L26.8103 43.6304C26.8144 43.6372 26.8196 43.6428 26.8253 43.6469C26.8311 43.651 26.8375 43.6535 26.844 43.6543C26.8505 43.655 26.8571 43.654 26.8633 43.6513C26.8696 43.6486 26.8753 43.6442 26.8803 43.6385C26.8895 43.6257 26.8947 43.6086 26.8947 43.5908C26.8947 43.573 26.8895 43.556 26.8803 43.5432L26.8223 43.4533L26.9293 43.3352C26.9351 43.3284 26.9396 43.3199 26.9424 43.3103C26.9452 43.3007 26.9462 43.2904 26.9453 43.2801ZM26.5763 41.0483L26.6603 40.8819L26.7173 40.9839L26.6323 41.1181L26.5763 41.0483ZM26.5933 41.3744L26.6423 41.3006L26.7253 41.3959L26.6673 41.4804L26.5933 41.3744ZM26.6113 41.7555L26.6673 41.675L26.7783 41.8334L26.7033 41.9099L26.6113 41.7555ZM26.6393 42.1434L26.6853 42.0951L26.7433 42.1917L26.7063 42.2427L26.6393 42.1434ZM26.6503 42.5138L26.7053 42.4387L26.7963 42.5729L26.7293 42.648L26.6503 42.5138ZM26.6773 42.8842L26.7153 42.8399L26.8153 43.001L26.7853 43.0265L26.6773 42.8842ZM26.7553 43.3459L26.6983 43.256L26.7663 43.1969L26.8213 43.2721L26.7553 43.3459Z" fill="white"/>
<path d="M34.4501 26.1845C34.4041 26.8072 34.1611 28.9129 33.9271 30.5099C33.8981 30.7099 33.8681 30.9045 33.8401 31.0843L31.1401 30.8253C31.1451 30.7153 31.1501 30.6119 31.1551 30.5167C31.1551 30.471 31.1551 30.4281 31.1611 30.3824C31.2031 29.5047 31.2281 29.3531 31.2281 29.3531C31.2281 29.3531 31.1211 29.4282 30.6491 30.0765C30.5561 30.2026 30.4491 30.3529 30.3261 30.5274L30.2731 30.6039L28.0791 27.85L28.4471 27.3131L28.4621 27.2917C29.2711 26.1187 29.9231 25.1913 29.9231 25.1913L29.9811 23.6761L30.0091 22.9165L33.8831 22.5059C33.8831 22.5059 33.8831 22.5206 33.8931 22.5475C33.8944 22.5547 33.8961 22.5619 33.8981 22.5689C33.9041 22.5931 33.9111 22.6253 33.9201 22.6615C33.9471 22.777 33.9861 22.9501 34.0311 23.1608C34.2141 24.0224 34.5001 25.492 34.4501 26.1845Z" fill="#407BFF"/>
<path opacity="0.2" d="M31.2265 29.3563L31.0395 27.3955C31.0395 27.3955 30.6015 29.0959 30.7555 29.932L31.2265 29.3563Z" fill="black"/>
<path opacity="0.6" d="M34.4504 26.185C34.4044 26.8077 34.1614 28.9134 33.9274 30.5104C33.8984 30.7104 33.8684 30.905 33.8404 31.0848L31.1404 30.8258C31.1454 30.7158 31.1504 30.6124 31.1554 30.5171L33.2854 30.2487C33.2854 30.2487 33.9244 26.8117 33.9764 26.0776C34.0144 25.5408 33.8574 24.0028 33.7684 23.2002L29.9814 23.682L30.0094 22.9224L33.8834 22.5117C33.8834 22.5117 33.8834 22.5265 33.8934 22.5533C33.8948 22.5606 33.8965 22.5678 33.8984 22.5748C33.9044 22.599 33.9114 22.6312 33.9204 22.6674C33.9474 22.7828 33.9864 22.9559 34.0314 23.1666C34.2144 24.0229 34.5004 25.4924 34.4504 26.185Z" fill="white"/>
<path opacity="0.6" d="M30.3232 30.5316L30.2702 30.6081L28.0762 27.8542L28.4442 27.3174L28.4592 27.2959L30.3232 30.5316Z" fill="white"/>
<path d="M28.9 12.3738C29.138 12.606 28.768 13.5039 28.49 13.8702L28.437 14.6446C28.437 14.6446 27.797 14.8003 27.375 14.2997L27.411 14.1789L27.525 13.8072L27.584 13.6126C27.584 13.6126 27.619 12.4476 27.779 12.1363C27.939 11.8249 28.658 12.1336 28.9 12.3738Z" fill="#263238"/>
<path opacity="0.2" d="M27.5791 13.6045C27.5791 13.6045 28.1721 13.9373 28.4851 13.8622C28.3981 13.9275 28.3017 13.9672 28.2024 13.9786C28.1031 13.9899 28.0031 13.9726 27.9091 13.9279C27.6131 13.7669 27.5791 13.6045 27.5791 13.6045Z" fill="white"/>
<path d="M27.5203 13.7998C27.547 13.8283 27.5758 13.853 27.6063 13.8736L27.5063 14.2507C27.4718 14.2269 27.4384 14.2004 27.4062 14.1716L27.5203 13.7998Z" fill="#407BFF"/>
<path opacity="0.2" d="M33.3247 19.9537C32.9167 20.3188 32.1547 20.8476 31.4477 20.4986C30.7407 20.1497 30.7917 17.8655 30.8917 16.4577C30.9087 16.2255 30.9267 16.0161 30.9427 15.8443C30.9717 15.5343 30.9957 15.3438 30.9957 15.3438L31.6597 15.4645C31.7417 15.6403 31.8429 15.7986 31.9597 15.9343L31.9757 16.0161L32.0157 16.2134L32.1397 16.8308C32.4445 16.8627 32.746 16.936 33.0397 17.0495C33.0877 17.7635 33.1797 18.8157 33.3247 19.9537Z" fill="black"/>
<path d="M33.5801 17.3978C33.3356 17.9999 33.0606 18.5788 32.7571 19.1305C32.6811 19.2647 32.6041 19.4096 32.5221 19.5465L32.4001 19.7545C32.3871 19.7773 32.3631 19.8203 32.3391 19.8565C32.3085 19.9048 32.2751 19.9497 32.2391 19.9907C32.1858 20.055 32.1263 20.1092 32.0621 20.1518C31.9533 20.2245 31.8325 20.2591 31.7111 20.2524C31.5805 20.244 31.4542 20.1874 31.3461 20.0887C31.2809 20.0283 31.2229 19.955 31.1741 19.8713C31.1224 19.7821 31.0803 19.6836 31.0491 19.5787C31.0123 19.4573 30.9842 19.3315 30.9651 19.2029C30.9371 19.0091 30.9174 18.8133 30.9061 18.6164C30.8811 18.2501 30.8791 17.9025 30.8801 17.5562C30.8811 17.21 30.8921 16.8691 30.9041 16.5282C30.9341 15.8478 30.9771 15.1767 31.0491 14.499C31.061 14.3854 31.1035 14.2816 31.1686 14.2073C31.2337 14.133 31.3168 14.0933 31.4022 14.0958C31.4877 14.0983 31.5695 14.1428 31.6321 14.2208C31.6947 14.2988 31.7339 14.405 31.7421 14.5191L31.8881 16.4973C31.9381 17.1482 31.9881 17.8085 32.0731 18.4057C32.091 18.5418 32.1151 18.6762 32.1451 18.8084C32.1514 18.8437 32.1622 18.8773 32.1771 18.9077C32.1771 18.9077 32.1771 18.8902 32.1451 18.8325C32.1154 18.7804 32.0796 18.7351 32.0391 18.6983C31.9568 18.6235 31.8604 18.5812 31.7611 18.5762C31.671 18.5703 31.5813 18.5947 31.5001 18.6473C31.4642 18.6712 31.4306 18.701 31.4001 18.7359L31.3681 18.7761C31.3681 18.7761 31.3591 18.7896 31.3681 18.7761L31.4571 18.5708L31.6351 18.1521C31.8731 17.5924 32.1131 17.0127 32.3691 16.4665V16.4571C32.4671 16.256 32.6187 16.113 32.7929 16.0574C32.967 16.0019 33.1504 16.0379 33.3054 16.1582C33.4603 16.2785 33.575 16.4739 33.6259 16.7042C33.6769 16.9345 33.6601 17.1823 33.5791 17.3965L33.5801 17.3978Z" fill="#E9B376"/>
<path d="M31.9767 15.6289L31.9107 14.8908C31.9107 14.8908 32.1057 13.7554 32.0107 13.3944C31.9157 13.0334 31.1557 13.0897 30.8807 13.2306C30.6057 13.3716 30.7867 14.3674 30.9807 14.8183L30.8807 15.586C30.8807 15.586 31.4707 15.9604 31.9767 15.6289Z" fill="#263238"/>
<path opacity="0.2" d="M31.9113 14.8908C31.9113 14.8908 31.2743 15.0022 30.9863 14.8184C31.0573 14.9125 31.1425 14.9851 31.2362 15.0314C31.3298 15.0777 31.4298 15.0966 31.5293 15.0868C31.8463 15.0344 31.9113 14.8908 31.9113 14.8908Z" fill="white"/>
<path d="M31.873 15.1084C31.873 15.1084 31.489 15.2547 31.223 15.1473L31.208 15.5392C31.208 15.5392 31.616 15.7204 31.869 15.5016L31.873 15.1084Z" fill="#407BFF"/>
<path d="M26.9557 13.6301C26.7307 13.3013 26.0007 14.167 25.9207 14.6836C25.8407 15.2003 26.0297 15.348 26.0297 15.348C26.0297 15.348 25.5947 15.2366 25.4477 15.2862C25.4477 15.2862 25.7477 15.0822 25.7297 14.7615C25.7117 14.4407 25.1377 13.924 25.1377 13.924C25.1377 13.924 25.7747 14.2435 25.8477 13.9656C25.9207 13.6878 25.6477 12.7806 25.6477 12.7806C25.6477 12.7806 26.0657 13.249 26.2267 13.3429C26.3877 13.4369 26.5717 12.7041 26.5717 12.7041C26.5717 12.7041 26.5387 13.1255 26.6857 13.2637C26.8327 13.402 27.0067 13.2302 27.0067 13.2302L26.9557 13.6301Z" fill="#407BFF"/>
<path opacity="0.8" d="M26.9557 13.6301C26.7307 13.3013 26.0007 14.167 25.9207 14.6836C25.8407 15.2003 26.0297 15.348 26.0297 15.348C26.0297 15.348 25.5947 15.2366 25.4477 15.2862C25.4477 15.2862 25.7477 15.0822 25.7297 14.7615C25.7117 14.4407 25.1377 13.924 25.1377 13.924C25.1377 13.924 25.7747 14.2435 25.8477 13.9656C25.9207 13.6878 25.6477 12.7806 25.6477 12.7806C25.6477 12.7806 26.0657 13.249 26.2267 13.3429C26.3877 13.4369 26.5717 12.7041 26.5717 12.7041C26.5717 12.7041 26.5387 13.1255 26.6857 13.2637C26.8327 13.402 27.0067 13.2302 27.0067 13.2302L26.9557 13.6301Z" fill="white"/>
<path d="M27.0724 18.8339C26.9444 19.1372 26.2724 18.6554 26.1444 18.281C26.0164 17.9065 26.1384 17.7441 26.1384 17.7441C26.1384 17.7441 25.8214 17.932 25.7034 17.9307C25.7034 17.9307 25.9574 18.0139 25.9884 18.2622C26.0194 18.5105 25.6504 19.0419 25.6504 19.0419C25.6504 19.0419 26.0914 18.6393 26.1844 18.8379C26.2774 19.0365 26.1914 19.7881 26.1914 19.7881C26.3012 19.5858 26.4233 19.3959 26.5564 19.2204C26.6674 19.109 26.9044 19.623 26.9044 19.623C26.9044 19.623 26.8234 19.3117 26.9164 19.1708C26.9498 19.1309 26.991 19.1048 27.0352 19.0955C27.0793 19.0862 27.1245 19.0942 27.1654 19.1184L27.0724 18.8339Z" fill="#407BFF"/>
<path opacity="0.8" d="M27.0724 18.8339C26.9444 19.1372 26.2724 18.6554 26.1444 18.281C26.0164 17.9065 26.1384 17.7441 26.1384 17.7441C26.1384 17.7441 25.8214 17.932 25.7034 17.9307C25.7034 17.9307 25.9574 18.0139 25.9884 18.2622C26.0194 18.5105 25.6504 19.0419 25.6504 19.0419C25.6504 19.0419 26.0914 18.6393 26.1844 18.8379C26.2774 19.0365 26.1914 19.7881 26.1914 19.7881C26.3012 19.5858 26.4233 19.3959 26.5564 19.2204C26.6674 19.109 26.9044 19.623 26.9044 19.623C26.9044 19.623 26.8234 19.3117 26.9164 19.1708C26.9498 19.1309 26.991 19.1048 27.0352 19.0955C27.0793 19.0862 27.1245 19.0942 27.1654 19.1184L27.0724 18.8339Z" fill="white"/>
<path d="M26.9325 16.7659C26.4715 17.0249 26.0095 17.245 25.5325 17.449C25.0532 17.6584 24.5654 17.8309 24.0715 17.9657C23.9435 17.9979 23.8145 18.0288 23.6765 18.0516C23.5261 18.08 23.3743 18.0917 23.2225 18.0865L22.8125 18.0516L22.4475 18.0126C22.2695 17.9925 22.0925 17.9697 21.9155 17.9442C21.6085 17.9026 21.3025 17.8503 20.9975 17.7791C20.8166 17.741 20.6541 17.6092 20.5448 17.4121C20.4355 17.2151 20.388 16.9684 20.4126 16.7249C20.4372 16.4814 20.5319 16.2606 20.6763 16.1097C20.8208 15.9588 21.0036 15.8899 21.1855 15.9177C21.6695 15.9848 22.1485 16.0962 22.6265 16.2183L22.9845 16.3136L23.1635 16.3659L23.2525 16.3914L23.2975 16.4035C23.3892 16.4152 23.4814 16.4188 23.5735 16.4142C23.6735 16.4142 23.7905 16.4022 23.9025 16.3901C24.3565 16.3364 24.8315 16.2478 25.3025 16.1552L26.7335 15.8707C26.8174 15.855 26.9027 15.8807 26.9735 15.9429C27.0444 16.0052 27.096 16.0998 27.1189 16.2093C27.1417 16.3188 27.1342 16.4356 27.0977 16.5382C27.0612 16.6408 26.9983 16.7222 26.9205 16.7672L26.9325 16.7659Z" fill="#E4897B"/>
<path opacity="0.2" d="M21.9184 17.9443C21.6114 17.9027 21.3054 17.8503 21.0004 17.7792C20.8696 17.7489 20.7478 17.6693 20.6494 17.5497C20.8295 17.3859 21.0203 17.2444 21.2194 17.127C21.2194 17.127 21.6994 17.4799 21.9184 17.9443Z" fill="black"/>
<path d="M27.7212 17.1057C27.6442 17.4869 26.8872 17.3446 26.5332 17.1272L25.9752 17.3392C25.9752 17.3392 25.6382 16.593 25.8352 15.8844H25.9352L26.2352 15.8938H26.3922C26.3922 15.8938 27.2142 15.5207 27.4922 15.6093C27.7702 15.6979 27.7992 16.7246 27.7212 17.1057Z" fill="#407BFF"/>
<path opacity="0.2" d="M26.3883 15.8994C26.3883 15.8994 26.3692 16.761 26.5332 17.1274C26.4565 17.0417 26.3943 16.935 26.3509 16.8144C26.3074 16.6938 26.2837 16.5621 26.2812 16.4282C26.2883 15.9974 26.3883 15.8994 26.3883 15.8994Z" fill="black"/>
<path opacity="0.6" d="M26.2312 15.8951C26.2216 15.9391 26.2145 15.9839 26.2102 16.0293L25.9102 16.0401C25.9142 15.9882 25.9205 15.9366 25.9292 15.8857L26.2312 15.8951Z" fill="white"/>
<path d="M21.644 16.0346C20.574 19.3897 20.292 23.4522 20.154 24.189L16.541 23.1958C16.541 22.6308 16.559 22.098 16.586 21.5974C16.719 19.0636 17.123 17.327 17.424 16.3446C17.5428 15.9581 17.6219 15.5518 17.659 15.1367C17.659 15.1367 18.31 15.3286 18.859 15.4051C19.273 15.4669 19.925 15.7809 20.395 15.8279C21.099 15.899 21.644 16.0346 21.644 16.0346Z" fill="#E4897B"/>
<path opacity="0.2" d="M19.5189 17.4737C19.5189 17.4737 18.1929 22.4648 16.5859 21.5978C16.7189 19.064 17.1229 17.3274 17.4239 16.345C17.6682 16.3222 17.9136 16.3425 18.1539 16.4054L18.2539 17.0764L19.5189 17.4737Z" fill="black"/>
<path d="M20.2292 15.8105C20.2325 15.8707 20.2449 15.9294 20.2657 15.983C20.2865 16.0365 20.3153 16.0838 20.3502 16.1218L19.8622 16.2104L18.4902 15.4669C19.3212 15.1985 19.6902 13.8135 19.6902 13.8135L19.9222 14.1745L20.5482 15.1488C20.2862 15.4213 20.2212 15.6467 20.2292 15.8105Z" fill="#E4897B"/>
<path opacity="0.2" d="M20.5475 15.1494C20.2865 15.4178 20.2215 15.6473 20.2295 15.811C19.7295 15.4084 19.6895 14.1348 19.6895 14.1348C19.7695 14.1442 19.8475 14.1576 19.9215 14.175L20.5475 15.1494Z" fill="black"/>
<path d="M21.4993 11.9478C21.9883 12.3209 21.6443 13.8575 21.3993 13.977C20.9403 14.2011 20.8883 11.4847 21.4993 11.9478Z" fill="#263238"/>
<path d="M19.7164 13.0111C19.6784 13.9277 19.6214 14.4618 19.9234 14.9826C20.3784 15.7663 21.2514 15.4805 21.4924 14.5974C21.7094 13.8016 21.7344 12.4353 21.1024 11.9696C20.9633 11.8657 20.8066 11.8113 20.6474 11.8115C20.4882 11.8118 20.3317 11.8667 20.1928 11.9711C20.0538 12.0755 19.9371 12.2259 19.8537 12.4079C19.7704 12.5899 19.7231 12.7976 19.7164 13.0111Z" fill="#E4897B"/>
<path d="M20.1491 12.7412C20.2111 13.4928 20.0571 14.2591 19.7791 14.2497C19.5621 14.2403 19.3241 13.3935 19.2461 12.7466L20.1491 12.7412Z" fill="#263238"/>
<path d="M19.3227 13.9663C19.3972 14.1742 19.5298 14.3343 19.6917 14.4119C19.9077 14.5112 20.0287 14.2575 19.9807 13.9744C19.9367 13.7207 19.7717 13.361 19.5507 13.3838C19.5021 13.3898 19.4555 13.4119 19.415 13.4483C19.3744 13.4846 19.3413 13.534 19.3187 13.5919C19.296 13.6498 19.2845 13.7144 19.2852 13.7798C19.2859 13.8452 19.2988 13.9093 19.3227 13.9663Z" fill="#E4897B"/>
<path d="M20.7239 13.4255C20.7169 13.5006 20.7409 13.5597 20.7769 13.5704C20.8129 13.5812 20.8479 13.5208 20.8539 13.447C20.8599 13.3732 20.8369 13.3128 20.8009 13.302C20.7649 13.2913 20.7299 13.3517 20.7239 13.4255Z" fill="#263238"/>
<path d="M21.3469 13.5242C21.3399 13.598 21.3639 13.6584 21.4009 13.6691C21.4379 13.6799 21.4709 13.6195 21.4779 13.5456C21.4849 13.4718 21.4599 13.4114 21.4239 13.4007C21.3879 13.39 21.3529 13.4477 21.3469 13.5242Z" fill="#263238"/>
<path d="M21.145 13.5303C21.1918 13.7656 21.2621 13.9913 21.354 14.2013C21.313 14.2316 21.2676 14.2495 21.221 14.2537C21.1743 14.2579 21.1276 14.2482 21.084 14.2255L21.145 13.5303Z" fill="#AF6152"/>
<path d="M20.6257 14.2071C20.6217 14.2066 20.6176 14.2081 20.6143 14.2114C20.611 14.2146 20.6087 14.2192 20.6078 14.2246C20.6073 14.2274 20.6073 14.2303 20.6077 14.2331C20.6082 14.236 20.609 14.2386 20.6102 14.241C20.6114 14.2434 20.613 14.2454 20.6148 14.247C20.6166 14.2485 20.6186 14.2496 20.6208 14.2501C20.6888 14.2669 20.7529 14.305 20.8079 14.3612C20.863 14.4173 20.9075 14.4901 20.9378 14.5735C20.9393 14.5789 20.9424 14.5833 20.9463 14.5858C20.9502 14.5883 20.9546 14.5887 20.9587 14.5869C20.9609 14.5859 20.9628 14.5843 20.9644 14.5822C20.9661 14.5802 20.9674 14.5777 20.9683 14.575C20.9693 14.5722 20.9698 14.5692 20.9699 14.5662C20.9699 14.5632 20.9696 14.5602 20.9688 14.5574C20.9367 14.4669 20.889 14.388 20.8297 14.3271C20.7704 14.2662 20.7012 14.225 20.6277 14.2071H20.6257Z" fill="#263238"/>
<path d="M20.6721 13.0921C20.6779 13.1012 20.6861 13.107 20.6951 13.1082C20.736 13.1093 20.7762 13.1233 20.8124 13.1492C20.8485 13.1751 20.8796 13.2121 20.9031 13.2572C20.9075 13.2673 20.9147 13.2747 20.9231 13.2777C20.9315 13.2807 20.9405 13.2791 20.9481 13.2733C20.9554 13.2672 20.9607 13.2574 20.9628 13.2461C20.9648 13.2348 20.9635 13.2229 20.9591 13.2129C20.9303 13.1549 20.8916 13.1071 20.8462 13.0734C20.8007 13.0398 20.7499 13.0213 20.6981 13.0196C20.6938 13.0193 20.6895 13.0201 20.6854 13.022C20.6814 13.0239 20.6777 13.0269 20.6745 13.0307C20.6713 13.0346 20.6688 13.0393 20.667 13.0446C20.6652 13.0498 20.6642 13.0555 20.6641 13.0612C20.664 13.0724 20.6668 13.0834 20.6721 13.0921Z" fill="#263238"/>
<path d="M21.5993 13.0918C21.6003 13.087 21.6003 13.0819 21.5993 13.077C21.5996 13.0713 21.599 13.0655 21.5976 13.0601C21.5962 13.0547 21.5939 13.0497 21.5911 13.0454C21.5882 13.0412 21.5847 13.0377 21.5808 13.0353C21.5769 13.0329 21.5726 13.0316 21.5683 13.0314C21.5166 13.0263 21.4647 13.0382 21.4172 13.0661C21.3696 13.0939 21.3278 13.1368 21.2953 13.1911C21.2928 13.1957 21.291 13.2009 21.29 13.2064C21.289 13.2119 21.2888 13.2177 21.2894 13.2233C21.2901 13.2289 21.2916 13.2343 21.2938 13.2391C21.296 13.244 21.2989 13.2482 21.3023 13.2515C21.3094 13.2584 21.3182 13.2613 21.3268 13.2595C21.3354 13.2578 21.3432 13.2515 21.3483 13.2421C21.3746 13.1998 21.4079 13.1665 21.4457 13.145C21.4834 13.1236 21.5245 13.1145 21.5653 13.1187C21.5724 13.1199 21.5796 13.118 21.5858 13.1131C21.592 13.1082 21.5967 13.1007 21.5993 13.0918Z" fill="#263238"/>
<path d="M20.0994 13.2594C20.2443 12.9861 20.3364 12.6689 20.3674 12.3361C20.3894 11.8583 21.1584 12.4287 21.1584 12.4287L21.6414 12.1455C21.4709 11.6506 21.2046 11.2261 20.8704 10.9162V11.1282L19.7014 10.7256L19.3484 11.8905L19.1804 11.5349C19.1804 11.5349 19.1144 13.1037 19.2864 13.2554C19.4584 13.407 20.0994 13.2594 20.0994 13.2594Z" fill="#263238"/>
<path d="M20.0992 15.0046C20.0992 15.0046 20.3752 14.0477 20.5492 13.896C20.7232 13.7444 20.9602 14.2611 20.9602 14.2611H20.9112C20.9112 14.2611 20.7562 13.9927 20.6552 13.9927C20.5542 13.9927 20.2482 14.8194 20.3272 14.9522C20.4062 15.0851 20.6602 15.1509 20.6602 15.1509L20.8512 14.806L20.9602 14.8462L20.9112 15.1509C20.9701 15.1173 21.027 15.0773 21.0812 15.0314C21.1582 14.9657 21.1482 14.4315 21.1482 14.4315L20.9602 14.3684L21.0442 14.3282C21.0442 14.3282 21.2162 14.3684 21.2442 14.4315C21.2552 14.7024 21.2552 14.9739 21.2442 15.2448C21.2442 15.2448 20.7972 15.6689 20.5442 15.5897C20.2912 15.5105 20.0092 15.3065 20.0992 15.0046Z" fill="#263238"/>
<path d="M18.4121 17.2913L18.7551 16.7075C18.7551 16.7075 19.0281 15.6016 19.2471 15.3573C19.4661 15.1131 20.0951 15.6929 20.2761 16.0056C20.4571 16.3183 19.9151 17.043 19.5761 17.2913L19.3651 18.016C19.3651 18.016 18.7151 17.9274 18.4121 17.2913Z" fill="#407BFF"/>
<path opacity="0.2" d="M18.7539 16.707C18.7539 16.707 19.2539 17.2439 19.5719 17.2908C19.4749 17.3214 19.3741 17.3238 19.2763 17.2979C19.1785 17.272 19.086 17.2183 19.0049 17.1405C18.7539 16.8748 18.7539 16.707 18.7539 16.707Z" fill="black"/>
<path opacity="0.6" d="M18.6998 16.9189C18.6998 16.9189 18.9718 17.3122 19.2408 17.4048L19.0998 17.751C19.0998 17.751 18.6808 17.6168 18.5498 17.2571L18.6998 16.9189Z" fill="white"/>
<path d="M16.0665 26.0508C16.0665 26.1568 16.3175 31.6432 16.5865 33.5543C16.5865 33.5543 15.4995 35.1647 14.1465 41.2765L14.9305 41.7664C14.9305 41.7664 18.4075 35.3822 18.4885 34.385C18.5695 33.3879 18.6995 27.9981 18.6995 27.9981L16.0665 26.0508Z" fill="#E4897B"/>
<path d="M20.2313 25.7676C20.2313 25.7676 23.4863 31.262 23.6943 32.1464C23.9023 33.0308 22.6193 42.1529 22.6193 42.1529H21.7873C21.7873 42.1529 21.3393 36.7403 21.8923 33.6616C21.8923 33.6616 19.0923 29.5911 18.5693 28.1752L20.2313 25.7676Z" fill="#E4897B"/>
<path d="M13.2686 43.861L14.2946 39.9395L15.6426 40.7219L14.0946 44.2663L13.2686 43.861Z" fill="#407BFF"/>
<path d="M14.0876 43.8252H13.3126C13.299 43.8254 13.2859 43.8317 13.2754 43.8432C13.2649 43.8546 13.2575 43.8705 13.2546 43.8883L13.1216 44.7177C13.1182 44.7376 13.1183 44.7583 13.1218 44.7781C13.1253 44.798 13.1322 44.8165 13.1418 44.8323C13.1514 44.8481 13.1636 44.8607 13.1775 44.8692C13.1913 44.8777 13.2064 44.8819 13.2216 44.8814C13.4916 44.8734 13.6216 44.8505 13.9636 44.8479C14.1726 44.8479 14.9096 44.8707 15.1986 44.868C15.4876 44.8653 15.5246 44.4815 15.4056 44.4479C14.8736 44.2963 14.3686 44.0842 14.1976 43.8802C14.1672 43.8444 14.1281 43.8248 14.0876 43.8252Z" fill="#407BFF"/>
<path d="M21.5264 44.4703L21.6354 40.3502L22.9494 40.2979L22.4064 44.4891L21.5264 44.4703Z" fill="#407BFF"/>
<path d="M22.4128 43.8252H21.6378C21.6242 43.8254 21.6111 43.8317 21.6006 43.8432C21.5901 43.8546 21.5827 43.8705 21.5798 43.8883L21.4468 44.7177C21.4434 44.7376 21.4435 44.7583 21.447 44.7781C21.4505 44.798 21.4574 44.8165 21.467 44.8323C21.4766 44.8481 21.4888 44.8607 21.5027 44.8692C21.5165 44.8777 21.5316 44.8819 21.5468 44.8814C21.8168 44.8734 21.9468 44.8505 22.2888 44.8479C22.4988 44.8479 23.2348 44.8707 23.5238 44.868C23.8128 44.8653 23.8498 44.4815 23.7308 44.4479C23.1988 44.2963 22.6938 44.0842 22.5228 43.8802C22.4924 43.8444 22.4532 43.8248 22.4128 43.8252Z" fill="#407BFF"/>
<path d="M14.0467 43.683C14.0335 43.6864 14.0197 43.6825 14.0086 43.6724C13.9974 43.6622 13.9897 43.6464 13.9872 43.6286C13.9847 43.6108 13.9876 43.5924 13.9951 43.5775C14.0027 43.5625 14.0145 43.5522 14.0277 43.5488L14.2827 43.4038L14.1517 43.114C14.1482 43.1059 14.146 43.097 14.1451 43.0878C14.1442 43.0786 14.1448 43.0692 14.1467 43.0603C14.1509 43.0423 14.1603 43.0274 14.1727 43.0187L14.5727 42.7664L14.4877 42.408C14.4842 42.3925 14.485 42.3758 14.49 42.361C14.4949 42.3462 14.5037 42.3343 14.5147 42.3275L14.8597 42.1114L14.7597 41.694C14.7578 41.6851 14.7572 41.6757 14.7581 41.6665C14.759 41.6573 14.7612 41.6484 14.7647 41.6404C14.7681 41.6327 14.7725 41.626 14.7779 41.6207C14.7832 41.6154 14.7893 41.6116 14.7957 41.6095L15.1207 41.4994L15.0547 40.8593C15.053 40.8415 15.0565 40.8236 15.0646 40.8093C15.0726 40.7949 15.0845 40.7854 15.0977 40.7828C15.1108 40.7805 15.1241 40.7853 15.1346 40.7961C15.1451 40.8069 15.152 40.8229 15.1537 40.8405L15.2257 41.5411C15.2271 41.5573 15.2242 41.5736 15.2174 41.5871C15.2106 41.6007 15.2004 41.6105 15.1887 41.6149L14.8707 41.7222L14.9627 42.1249C14.9662 42.1404 14.9654 42.1571 14.9605 42.1719C14.9555 42.1867 14.9467 42.1986 14.9357 42.2054L14.5997 42.4362L14.6847 42.7945C14.6883 42.8099 14.6877 42.8265 14.6829 42.8413C14.6781 42.8561 14.6695 42.8681 14.6587 42.8751L14.2707 43.1207L14.4037 43.4132C14.4067 43.4219 14.4082 43.4312 14.4082 43.4407C14.4082 43.4502 14.4067 43.4596 14.4037 43.4683C14.4017 43.4776 14.3981 43.4862 14.3933 43.4934C14.3884 43.5006 14.3824 43.5062 14.3757 43.5099L14.0677 43.6843C14.0607 43.686 14.0536 43.6855 14.0467 43.683Z" fill="#263238"/>
<path d="M14.2346 43.7864C14.2248 43.7865 14.2153 43.7827 14.2071 43.7755C14.1989 43.7684 14.1925 43.7582 14.1886 43.7462L14.0526 43.3436C14.0476 43.3263 14.0476 43.3071 14.0526 43.2899C14.0554 43.2812 14.0596 43.2734 14.0647 43.2669C14.0699 43.2605 14.076 43.2555 14.0826 43.2523L14.4246 43.0939L14.3096 42.7316C14.3046 42.7148 14.3046 42.696 14.3096 42.6792C14.3122 42.671 14.3161 42.6635 14.3209 42.6573C14.3257 42.6511 14.3314 42.6462 14.3376 42.643L14.7046 42.4538L14.5686 42.0847C14.5657 42.0763 14.5641 42.0671 14.5641 42.0578C14.5641 42.0486 14.5657 42.0394 14.5686 42.031C14.571 42.0221 14.5749 42.014 14.5799 42.0073C14.5849 42.0006 14.591 41.9954 14.5976 41.9921L14.9976 41.7921L14.9086 41.3492C14.9057 41.3342 14.9067 41.3184 14.9115 41.3042C14.9162 41.2901 14.9243 41.2785 14.9346 41.2714L15.3846 40.9748C15.3905 40.9696 15.3972 40.9662 15.4042 40.9647C15.4112 40.9632 15.4183 40.9637 15.4251 40.9662C15.4319 40.9687 15.4383 40.9731 15.4437 40.9792C15.4492 40.9852 15.4536 40.9927 15.4568 41.0012C15.4599 41.0097 15.4617 41.019 15.4619 41.0285C15.4622 41.038 15.4609 41.0475 15.4583 41.0562C15.4556 41.065 15.4516 41.073 15.4465 41.0795C15.4414 41.0861 15.4353 41.0911 15.4286 41.0942L15.0156 41.3627L15.1056 41.8109C15.1089 41.8271 15.1075 41.8444 15.1018 41.8593C15.096 41.8742 15.0863 41.8856 15.0746 41.8914L14.6806 42.0874L14.8156 42.4538C14.8186 42.4624 14.8201 42.4718 14.8201 42.4813C14.8201 42.4908 14.8186 42.5002 14.8156 42.5088C14.8132 42.5174 14.8094 42.5251 14.8046 42.5316C14.7998 42.5381 14.794 42.5431 14.7876 42.5464L14.4176 42.7383L14.5336 43.102C14.5365 43.1104 14.5381 43.1195 14.5381 43.1288C14.5381 43.1381 14.5365 43.1473 14.5336 43.1557C14.531 43.1641 14.527 43.1717 14.522 43.178C14.517 43.1842 14.5111 43.189 14.5046 43.1919L14.1626 43.3503L14.2756 43.6911C14.2784 43.6991 14.28 43.7078 14.2803 43.7166C14.2805 43.7255 14.2795 43.7343 14.2771 43.7426C14.2748 43.7508 14.2712 43.7584 14.2667 43.7648C14.2621 43.7712 14.2566 43.7762 14.2506 43.7797C14.2456 43.7831 14.2402 43.7853 14.2346 43.7864Z" fill="#263238"/>
<path d="M22.2 43.7676C22.187 43.7675 22.1745 43.7608 22.165 43.7489C22.1603 43.7426 22.1566 43.7352 22.1541 43.727C22.1515 43.7188 22.1502 43.7101 22.1502 43.7012C22.1502 43.6923 22.1515 43.6836 22.1541 43.6754C22.1566 43.6672 22.1603 43.6598 22.165 43.6536L22.359 43.3852L22.159 43.1838C22.1534 43.1784 22.1487 43.1713 22.1453 43.1632C22.1418 43.1551 22.1397 43.1462 22.139 43.1369C22.1382 43.1274 22.1389 43.1178 22.1411 43.1087C22.1434 43.0997 22.1471 43.0914 22.152 43.0845L22.452 42.6484L22.271 42.3598C22.263 42.3476 22.2586 42.3318 22.2586 42.3155C22.2586 42.2992 22.263 42.2835 22.271 42.2712L22.528 41.8955L22.322 41.5573C22.3175 41.5503 22.3142 41.5422 22.3123 41.5334C22.3104 41.5246 22.31 41.5153 22.311 41.5063C22.3133 41.4883 22.3204 41.472 22.331 41.4606L22.6 41.1922L22.358 40.6339C22.3539 40.6263 22.351 40.6177 22.3496 40.6085C22.3481 40.5993 22.3481 40.5898 22.3495 40.5806C22.351 40.5714 22.3538 40.5627 22.3579 40.5551C22.362 40.5475 22.3673 40.5412 22.3733 40.5364C22.3794 40.5317 22.3861 40.5288 22.393 40.5277C22.4 40.5267 22.407 40.5277 22.4137 40.5305C22.4204 40.5334 22.4265 40.5381 22.4317 40.5444C22.437 40.5506 22.4411 40.5583 22.444 40.5668L22.709 41.1761C22.7152 41.1905 22.7173 41.2074 22.7149 41.2237C22.7126 41.24 22.7058 41.2546 22.696 41.2647L22.433 41.525L22.633 41.8539C22.641 41.8661 22.6455 41.8818 22.6455 41.8981C22.6455 41.9144 22.641 41.9302 22.633 41.9424L22.376 42.3182L22.557 42.6054C22.565 42.6177 22.5695 42.6334 22.5695 42.6497C22.5695 42.666 22.565 42.6817 22.557 42.694L22.269 43.1194L22.469 43.3207C22.4749 43.3265 22.4797 43.3339 22.4832 43.3425C22.4867 43.3511 22.4886 43.3606 22.489 43.3704C22.4897 43.38 22.4888 43.3896 22.4863 43.3986C22.4839 43.4077 22.4801 43.4159 22.475 43.4227L22.24 43.7421C22.2352 43.7502 22.2291 43.7566 22.2222 43.761C22.2153 43.7654 22.2077 43.7677 22.2 43.7676Z" fill="#263238"/>
<path d="M22.3994 43.7663C22.3931 43.7664 22.3868 43.7648 22.381 43.7616C22.3751 43.7584 22.3698 43.7536 22.3654 43.7475L22.1244 43.4402C22.1194 43.4338 22.1154 43.4261 22.1127 43.4175C22.1099 43.409 22.1085 43.3998 22.1084 43.3906C22.1087 43.3812 22.1103 43.372 22.1132 43.3634C22.1161 43.3549 22.1203 43.3473 22.1254 43.3409L22.3974 43.0188L22.1874 42.7504C22.1825 42.7442 22.1787 42.7367 22.1761 42.7284C22.1735 42.72 22.1722 42.7111 22.1724 42.7021C22.1724 42.693 22.1738 42.6839 22.1765 42.6756C22.1793 42.6673 22.1833 42.6598 22.1884 42.6538L22.4734 42.2914L22.2424 42.023C22.2372 42.0167 22.233 42.009 22.2301 42.0005C22.2272 41.992 22.2256 41.9827 22.2254 41.9733C22.2254 41.964 22.2268 41.9548 22.2296 41.9463C22.2323 41.9378 22.2364 41.9301 22.2414 41.9237L22.5584 41.5318L22.3504 41.1668C22.343 41.1549 22.3389 41.1399 22.3389 41.1245C22.3389 41.109 22.343 41.094 22.3504 41.0822L22.6814 40.5776C22.6902 40.5643 22.7026 40.5561 22.7159 40.5549C22.7291 40.5536 22.7422 40.5594 22.7524 40.5709C22.7616 40.5836 22.7668 40.6007 22.7668 40.6185C22.7668 40.6363 22.7616 40.6534 22.7524 40.6662L22.4524 41.1292L22.6634 41.4982C22.6711 41.5114 22.6748 41.5281 22.6737 41.5448C22.6726 41.5615 22.6668 41.577 22.6574 41.5882L22.3484 41.9706L22.5784 42.2391C22.5836 42.2451 22.5878 42.2525 22.5907 42.2608C22.5936 42.2691 22.5952 42.2782 22.5954 42.2874C22.5956 42.2967 22.5943 42.306 22.5916 42.3146C22.5888 42.3232 22.5846 42.3309 22.5794 42.337L22.2994 42.6967L22.5104 42.9745C22.5154 42.9808 22.5194 42.9884 22.5221 42.9968C22.5248 43.0052 22.5262 43.0143 22.5262 43.0235C22.5262 43.0327 22.5248 43.0418 22.5221 43.0502C22.5194 43.0586 22.5154 43.0662 22.5104 43.0725L22.2394 43.3932L22.4394 43.6509C22.4441 43.6572 22.4478 43.6646 22.4503 43.6728C22.4529 43.6809 22.4542 43.6897 22.4542 43.6986C22.4542 43.7074 22.4529 43.7162 22.4503 43.7244C22.4478 43.7325 22.4441 43.74 22.4394 43.7462C22.4342 43.7532 22.428 43.7587 22.421 43.7622C22.4141 43.7656 22.4068 43.7671 22.3994 43.7663Z" fill="#263238"/>
<path d="M22.0243 28.158L19.6903 30.6959C19.5563 30.4744 19.4413 30.2933 19.3433 30.1335C18.9063 29.4424 18.8033 29.3565 18.8033 29.3565C18.8033 29.3565 18.8203 29.5108 18.8163 30.3899C18.8163 30.5241 18.8163 30.6663 18.8163 30.8301H16.1043C16.0853 30.6476 16.0663 30.4516 16.0473 30.249C15.8983 28.6385 15.7683 26.51 15.7553 25.8846C15.7403 25.1894 16.1043 23.7507 16.3353 22.9146C16.4353 22.5307 16.5183 22.2744 16.5183 22.2744L20.3603 23.0542L20.3483 23.8151L20.3253 25.3316C20.3253 25.3316 20.9343 26.3301 21.6853 27.589L22.0243 28.158Z" fill="#263238"/>
<path opacity="0.6" d="M20.3609 23.0542L20.3489 23.8151L16.3359 22.9146C16.4359 22.5307 16.5189 22.2744 16.5189 22.2744L20.3609 23.0542Z" fill="white"/>
<path opacity="0.6" d="M16.0479 30.249C16.8009 30.2853 18.2189 30.3591 18.8169 30.3899C18.8169 30.5241 18.8169 30.6664 18.8169 30.8301H16.1049C16.0859 30.6476 16.0669 30.4517 16.0479 30.249Z" fill="white"/>
<path opacity="0.6" d="M22.0247 28.1574L19.6908 30.6953C19.5568 30.4738 19.4418 30.2926 19.3438 30.1329L21.6857 27.583L22.0247 28.1574Z" fill="white"/>
<path opacity="0.2" d="M18.7998 29.3563L19.0898 27.417C19.0898 27.417 19.4368 29.1617 19.2388 29.975L18.7998 29.3563Z" fill="black"/>
</g>
<defs>
<clipPath id="clip0_1021_1909">
<rect width="50" height="50" fill="white"/>
</clipPath>
</defs>
</svg>
