<svg width="66" height="67" viewBox="0 0 66 67" fill="none" xmlns="http://www.w3.org/2000/svg">
<path d="M44.7195 45.0273C43.8097 44.0458 42.6187 42.7679 41.5759 41.6638C39.5517 39.5323 37.0777 37.9375 37.0777 37.9375L32.9629 42.3539C32.9629 42.3539 34.5628 45.2982 36.6023 47.0515C37.5991 47.9102 38.8463 48.7843 39.8635 49.459C39.7102 49.9651 39.5568 50.6245 39.4904 51.4116C39.2961 53.855 39.6744 57.0753 39.6897 57.4331C39.7511 59.3039 39.7715 60.6892 39.7715 60.6892L43.0123 60.6789L45.7112 48.7076C46.0077 47.3939 45.6396 46.0138 44.7195 45.0273Z" fill="url(#paint0_linear_1295_4177)"/>
<path d="M28.3835 37.9375C28.3835 37.9375 25.9095 39.5323 23.8904 41.669C22.8476 42.7731 21.6566 44.051 20.7468 45.0324C20.2944 45.5188 19.9676 46.1083 19.7948 46.7497C19.622 47.391 19.6084 48.0649 19.7551 48.7127L22.454 60.684L25.6948 60.6943C25.6948 60.6943 25.7152 59.309 25.7766 57.4382C25.7868 57.0804 26.1701 53.8601 25.9759 51.4167C25.9146 50.6296 25.7561 49.9702 25.6028 49.4641C26.62 48.7894 27.8672 47.9153 28.864 47.0566C30.9035 45.3033 32.5034 42.359 32.5034 42.359L28.3835 37.9375Z" fill="url(#paint1_linear_1295_4177)"/>
<path d="M21.6367 57.4326L22.4597 60.6785L25.7004 60.6887L25.772 57.4326H21.6367Z" fill="#E0E0E0"/>
<path d="M26.814 61.9669C26.8089 60.9854 25.9654 59.8711 25.9654 59.8711H22.004L18.9472 60.9496C18.562 61.101 18.2312 61.3648 17.9978 61.7066C17.7645 62.0484 17.6393 62.4526 17.6387 62.8665V63.5208C17.6387 63.807 17.8687 64.0422 18.1549 64.0422L26.2261 64.0166C26.5533 64.0166 26.8191 63.7508 26.8191 63.4185L26.814 61.9669Z" fill="#4568AD"/>
<path d="M39.6895 57.4326L39.7763 60.6887L43.012 60.6785L43.8298 57.4326H39.6895Z" fill="#E0E0E0"/>
<path d="M46.5191 60.9496L43.4675 59.8711H39.506C39.506 59.8711 38.6575 60.9854 38.6575 61.972L38.6523 63.4237C38.6523 63.7508 38.9181 64.0166 39.2453 64.0217L47.3114 64.0422C47.5976 64.0422 47.8276 63.8121 47.8276 63.5208V62.8665C47.8276 62.018 47.3063 61.2614 46.5191 60.9496Z" fill="#4568AD"/>
<path d="M38.284 21.6719C38.0847 21.3141 38.3403 20.9461 38.7645 20.4963C39.4444 19.7806 40.1855 18.1143 39.5006 16.4223C39.5057 16.4121 39.3677 16.1259 39.3677 16.1207L39.0814 16.1054C38.9894 16.0901 35.8765 16.085 32.7635 16.085C29.6506 16.085 26.5376 16.0901 26.4456 16.1054C26.4456 16.1054 26.0264 16.4121 26.0316 16.4223C25.3415 18.1143 26.0827 19.7755 26.7676 20.4963C27.197 20.9461 27.4475 21.3141 27.2481 21.6719C27.059 22.0195 26.4865 22.0706 26.4865 22.0706C26.4865 22.0706 26.6194 22.4284 26.9363 22.6227C27.2277 22.8016 27.5906 22.8425 27.8359 22.8476C27.8359 22.8476 28.8071 24.1919 31.3476 24.1919H34.1794C36.7199 24.1919 37.6911 22.8476 37.6911 22.8476C37.9415 22.8425 38.2994 22.8016 38.5907 22.6227C38.9076 22.4284 39.0405 22.0706 39.0405 22.0706C39.0405 22.0706 38.4732 22.0246 38.284 21.6719Z" fill="#232020"/>
<path d="M32.7637 24.1922V22.6996L37.2823 22.3418L37.6912 22.8478C37.6912 22.8478 36.72 24.1922 34.1796 24.1922H32.7637Z" fill="url(#paint2_radial_1295_4177)"/>
<path d="M37.6825 22.1979C37.0077 21.1705 38.5054 20.7871 38.5054 20.7871C38.2448 21.1091 38.1272 21.3954 38.2805 21.6714C38.4697 22.019 39.0422 22.0701 39.0422 22.0701C39.0422 22.0701 38.2652 22.7602 37.6825 22.1979Z" fill="url(#paint3_radial_1295_4177)"/>
<path d="M39.4987 16.4276C40.1683 18.0633 39.4629 19.7501 38.8035 20.4606C38.7115 20.5577 38.3281 20.936 38.2412 21.2376C38.2412 21.2376 36.7333 19.1316 36.2835 17.8997C36.1915 17.6492 36.1097 17.3937 36.0995 17.1279C36.0893 16.9285 36.1199 16.6934 36.2375 16.5247C36.3806 16.3151 39.4271 16.2589 39.4271 16.2589C39.422 16.2538 39.4987 16.4276 39.4987 16.4276Z" fill="url(#paint4_radial_1295_4177)"/>
<path d="M26.0321 16.4277C25.3625 18.0634 26.0679 19.7502 26.7273 20.4607C26.8193 20.5579 27.2026 20.9361 27.2895 21.2377C27.2895 21.2377 28.7974 19.1317 29.2473 17.8998C29.3393 17.6494 29.4211 17.3938 29.4313 17.128C29.4415 16.9286 29.4108 16.6935 29.2933 16.5248C29.1501 16.3152 28.9866 16.3715 28.7514 16.3715C28.2965 16.3715 26.303 16.2539 26.1496 16.2539C26.1548 16.2539 26.0321 16.4277 26.0321 16.4277Z" fill="url(#paint5_radial_1295_4177)"/>
<path d="M32.7674 24.1922V22.6996L28.2488 22.3418L27.8398 22.8478C27.8398 22.8478 28.811 24.1922 31.3515 24.1922H32.7674Z" fill="url(#paint6_radial_1295_4177)"/>
<path d="M27.8577 22.1979C28.5376 21.1705 27.0348 20.7871 27.0348 20.7871C27.2955 21.1091 27.413 21.3954 27.2597 21.6714C27.0705 22.019 26.498 22.0701 26.498 22.0701C26.498 22.0701 27.2699 22.7602 27.8577 22.1979Z" fill="url(#paint7_radial_1295_4177)"/>
<path d="M49.2232 12.4772L46.9025 11.3066C45.047 13.1264 44.1678 14.6854 43.3398 17.3996C41.5865 18.2328 40.0735 19.7612 39.092 21.3407C38.0493 22.777 37.395 23.5744 36.6436 25.0006C36.0762 26.0842 36.4851 27.2906 37.5126 28.042C37.9982 28.3998 38.3917 28.5531 38.7751 28.5531C39.2045 28.5531 39.6134 28.3538 40.1144 28.0164C41.1725 27.4132 42.6088 25.8184 43.5289 24.6325L43.5033 24.6172C44.6739 23.1604 45.8547 21.1055 46.4425 19.1631C48.0884 17.4457 49.2232 15.1914 49.2232 12.4772Z" fill="url(#paint8_linear_1295_4177)"/>
<path d="M28.8237 25.0057C28.0723 23.5796 27.4181 22.7821 26.3753 21.3458C25.3939 19.7663 23.8808 18.2379 22.1276 17.4048C21.2944 14.6803 20.4152 13.1264 18.5597 11.3066L16.2441 12.4823C16.2441 15.1966 17.3789 17.4457 19.0248 19.1683C19.6127 21.1055 20.7883 23.1655 21.964 24.6223L21.9384 24.6377C22.8585 25.8235 24.2949 27.4184 25.353 28.0215C25.8539 28.3589 26.2628 28.5582 26.6922 28.5582C27.0756 28.5582 27.4692 28.3998 27.9548 28.0471C28.9771 27.2957 29.3911 26.0842 28.8237 25.0057Z" fill="url(#paint9_linear_1295_4177)"/>
<path d="M39.092 21.3401C38.177 22.5975 37.5636 23.3694 36.9196 24.499C36.2908 24.3355 35.5803 24.2435 34.7931 24.2435H30.617C29.8451 24.2435 29.1551 24.3355 28.5417 24.4939C27.8976 23.3643 27.2842 22.5924 26.3692 21.335L21.9375 24.6319C22.8576 25.8178 24.8409 28.0158 24.8409 28.0158C25.2651 30.0911 27.7085 38.3412 27.7085 38.3412H38.0697L40.7124 27.9749C40.7124 27.9749 42.6292 25.7871 43.5288 24.637L39.092 21.3401Z" fill="url(#paint10_linear_1295_4177)"/>
<path d="M30.9609 24.6015C30.9609 25.4501 31.6817 26.1401 32.5711 26.1401H32.8931C33.7825 26.1401 34.5033 25.4501 34.5033 24.6015V22.7256H30.9609V24.6015Z" fill="#3C2B24"/>
<path d="M28.4083 20.3896C27.616 20.3896 26.9668 19.6944 26.9668 18.8408C26.9668 17.9872 27.6109 17.292 28.4083 17.292H37.0571C37.8494 17.292 38.4985 17.9872 38.4985 18.8408C38.4985 19.6944 37.8545 20.3896 37.0571 20.3896H28.4083Z" fill="#3C2B24"/>
<path d="M32.7341 10.8564C29.9943 10.8564 27.459 13.7854 27.459 17.9973C27.459 22.1888 30.071 24.259 32.7341 24.259C35.3973 24.259 38.0093 22.1888 38.0093 17.9973C38.0093 13.7854 35.4739 10.8564 32.7341 10.8564Z" fill="#70534A"/>
<path d="M33.3404 19.822L33.2893 19.8066H32.1698C32.1545 19.8066 32.134 19.8118 32.1187 19.822C32.0165 19.8629 31.9603 19.9702 32.0114 20.0827C32.0574 20.1951 32.2823 20.5069 32.7321 20.5069C33.1819 20.5069 33.4017 20.1951 33.4528 20.0827C33.4635 20.0583 33.469 20.0319 33.4691 20.0053C33.4692 19.9787 33.4638 19.9523 33.4532 19.9279C33.4427 19.9035 33.4272 19.8814 33.4078 19.8632C33.3884 19.845 33.3654 19.831 33.3404 19.822Z" fill="#33251F"/>
<path d="M34.0637 21.0888C33.5577 21.3904 31.9066 21.3904 31.4057 21.0888C31.1143 20.915 30.8179 21.1808 30.9405 21.4415C31.0581 21.7022 31.9629 22.3003 32.7398 22.3003C33.5168 22.3003 34.4113 21.7022 34.5289 21.4415C34.6464 21.1808 34.3551 20.915 34.0637 21.0888Z" fill="#1A1717"/>
<path d="M30.1671 19.1534C30.5906 19.1534 30.9339 18.7964 30.9339 18.356C30.9339 17.9156 30.5906 17.5586 30.1671 17.5586C29.7437 17.5586 29.4004 17.9156 29.4004 18.356C29.4004 18.7964 29.7437 19.1534 30.1671 19.1534Z" fill="#1A1717"/>
<path d="M35.2999 19.1534C35.7234 19.1534 36.0667 18.7964 36.0667 18.356C36.0667 17.9156 35.7234 17.5586 35.2999 17.5586C34.8765 17.5586 34.5332 17.9156 34.5332 18.356C34.5332 18.7964 34.8765 19.1534 35.2999 19.1534Z" fill="#1A1717"/>
<path d="M31.3052 16.9236C31.157 16.7294 30.8196 16.4482 30.1653 16.4482C29.5059 16.4482 29.1686 16.7294 29.0254 16.9236C28.959 17.0105 28.9794 17.1076 29.0203 17.169C29.0612 17.2252 29.1839 17.2763 29.3219 17.2303C29.4599 17.1843 29.7206 17.0463 30.1653 17.0412C30.61 17.0463 30.8758 17.1792 31.0087 17.2303C31.1467 17.2763 31.2694 17.2252 31.3103 17.169C31.3369 17.1334 31.3509 17.0899 31.35 17.0454C31.3491 17.001 31.3333 16.9581 31.3052 16.9236Z" fill="#1A1717"/>
<path d="M36.438 16.9236C36.2898 16.7294 35.9524 16.4482 35.2981 16.4482C34.6387 16.4482 34.3014 16.7294 34.1582 16.9236C34.0918 17.0105 34.1122 17.1076 34.1531 17.169C34.194 17.2252 34.3167 17.2763 34.4547 17.2303C34.5927 17.1843 34.8534 17.0463 35.2981 17.0412C35.7428 17.0463 36.0086 17.1792 36.1415 17.2303C36.2796 17.2763 36.4022 17.2252 36.4431 17.169C36.4698 17.1334 36.4837 17.0899 36.4828 17.0454C36.4819 17.001 36.4661 16.9581 36.438 16.9236Z" fill="#1A1717"/>
<path d="M39.1019 13.024C38.7185 12.4413 37.8495 11.6592 37.0777 11.6081C36.955 10.8618 36.1525 10.228 35.3806 9.98775C33.29 9.32324 31.9303 10.0695 31.1942 10.4682C31.0409 10.55 30.0595 11.097 29.3745 10.7034C28.9451 10.458 28.9503 9.79862 28.9503 9.79862C28.9503 9.79862 27.6008 10.3098 28.0608 11.741C27.6008 11.7615 26.9925 11.9557 26.6705 12.6049C26.2871 13.3767 26.4251 14.0259 26.5325 14.3377C26.1338 14.6751 25.6328 15.3958 25.9753 16.3312C26.236 17.0366 27.2685 17.3587 27.2685 17.3587C27.197 18.6263 27.4321 19.4033 27.5548 19.7202C27.5752 19.7764 27.657 19.7713 27.6673 19.7151C27.8257 19.0864 28.3573 16.9037 28.3062 16.5204C28.3062 16.5204 30.1004 16.1625 31.8076 14.9051C32.1552 14.6495 32.5335 14.4297 32.9322 14.2713C35.079 13.4176 35.5289 14.8744 35.5289 14.8744C35.5289 14.8744 37.0163 14.5882 37.4662 16.6584C37.6348 17.4353 37.7524 18.6723 37.8444 19.5413C37.8495 19.6026 37.9364 19.618 37.9569 19.5566C38.1051 19.2142 38.4067 18.5292 38.4783 17.834C38.5038 17.5887 39.1632 17.2666 39.4495 16.2137C39.8482 14.7926 39.3779 13.4432 39.1019 13.024Z" fill="#232020"/>
<path d="M38.4951 17.8233C38.5206 17.578 39.18 17.2559 39.4663 16.203C39.4969 16.0905 39.5225 15.9781 39.5429 15.8605C39.773 14.5826 39.3589 13.4069 39.1033 13.0184C38.7455 12.4766 37.9788 11.7712 37.2529 11.623C37.1916 11.6128 37.1303 11.6077 37.0689 11.6025C37.0689 11.6025 37.12 11.9399 36.982 12.2108C36.8031 12.5635 36.4453 12.6453 36.4453 12.6453C38.3366 14.5468 38.2037 16.1314 38.4951 17.8233Z" fill="url(#paint11_radial_1295_4177)"/>
<path d="M31.6547 10.2223C31.4809 10.3041 31.3276 10.391 31.1947 10.4626C31.0413 10.5444 30.0599 11.0913 29.375 10.6977C28.9507 10.4575 28.9507 9.81342 28.9507 9.79297C28.7565 10.0434 28.1686 11.812 29.8861 11.9296C30.6273 11.9807 31.0874 11.3316 31.3583 10.7846C31.4554 10.5904 31.6138 10.299 31.6547 10.2223Z" fill="url(#paint12_radial_1295_4177)"/>
<path d="M35.161 9.91616C36.3162 10.228 36.8836 10.8158 37.0727 11.603C37.1289 11.833 37.1954 13.985 33.0857 11.5416C31.5573 10.6318 31.9764 10.0593 32.1553 9.99795C32.8505 9.74748 33.8677 9.56857 35.161 9.91616Z" fill="url(#paint13_radial_1295_4177)"/>
<path d="M28.9442 9.79231C28.9391 9.79231 28.9391 9.79231 28.934 9.79742C28.7858 9.85876 27.6306 10.3955 28.0599 11.7347L29.2918 11.9341C28.2082 10.83 28.9494 9.7872 28.9442 9.79231C28.9494 9.7872 28.9494 9.79231 28.9442 9.79231Z" fill="url(#paint14_radial_1295_4177)"/>
<path d="M28.8285 11.858L28.0669 11.7354C28.0363 11.7354 27.934 11.7456 27.8829 11.7507C27.4535 11.812 26.9526 12.0318 26.6766 12.5992C26.3852 13.2075 26.3903 13.734 26.4721 14.0816C26.4926 14.1991 26.5437 14.332 26.5437 14.332C26.5437 14.332 26.9219 13.9742 27.8165 13.9538L28.8285 11.858Z" fill="url(#paint15_radial_1295_4177)"/>
<path d="M26.5021 14.3623C26.129 14.6945 25.6229 15.4357 25.9961 16.3558C26.2772 17.051 27.274 17.3526 27.274 17.3526C27.274 17.3577 27.4733 17.4139 27.5756 17.4139L27.8107 13.9482C27.3302 13.9482 26.8702 14.0914 26.5737 14.2958C26.5788 14.3061 26.5021 14.3572 26.5021 14.3623Z" fill="url(#paint16_radial_1295_4177)"/>
<path d="M20.5984 9.4298C20.1384 9.15888 17.9557 8.81641 16.4478 8.81641C15.6197 8.81641 15.0012 8.92375 15.0012 9.20489L14.9961 10.9582C14.991 12.7217 16.1411 14.1631 18.0426 14.1682H18.0477C21.4929 14.1682 21.7638 10.1096 20.5984 9.4298Z" fill="url(#paint17_radial_1295_4177)"/>
<path d="M20.4758 11.3003C20.4554 11.3668 20.2765 11.4332 20.0823 11.4844H20.0771C19.8522 11.5406 19.5864 11.653 19.0906 11.7911C18.4005 11.9853 18.3443 12.9105 18.3443 12.9105C18.2165 12.43 18.5437 11.5866 18.9986 11.3924V11.3872C19.2133 11.285 19.4535 11.2288 19.7091 11.1879C19.75 11.1828 19.8522 11.1777 19.98 11.1828H19.9851C20.2152 11.1879 20.5014 11.2186 20.4758 11.3003Z" fill="#4A2F27"/>
<path d="M63.4035 10.1158C63.4035 10.8212 63.0303 11.3937 62.5652 11.3937H2.90275C2.44271 11.3937 2.06445 10.8212 2.06445 10.1158C2.06445 9.41039 2.44271 8.83789 2.90275 8.83789H62.56C63.0252 8.83789 63.4035 9.41039 63.4035 10.1158Z" fill="url(#paint18_linear_1295_4177)"/>
<path d="M10.7134 17.5223C12.4054 17.5223 13.7804 16.1473 13.7804 14.4554V5.84234C13.7804 4.15041 12.4054 2.77539 10.7134 2.77539C9.0215 2.77539 7.64648 4.15041 7.64648 5.84234V14.4554C7.64648 16.1473 9.01639 17.5223 10.7134 17.5223Z" fill="url(#paint19_radial_1295_4177)"/>
<path d="M54.7545 17.5223C53.0625 17.5223 51.6875 16.1473 51.6875 14.4554V5.84234C51.6875 4.15041 53.0625 2.77539 54.7545 2.77539C56.4464 2.77539 57.8214 4.15041 57.8214 5.84234V14.4554C57.8214 16.1473 56.4515 17.5223 54.7545 17.5223Z" fill="url(#paint20_radial_1295_4177)"/>
<path d="M5.13057 14.5728C6.26023 14.5728 7.1752 13.6578 7.1752 12.5281V7.76924C7.1752 6.63958 6.26023 5.72461 5.13057 5.72461C4.00091 5.72461 3.08594 6.63958 3.08594 7.76924V12.5281C3.08594 13.6578 4.00091 14.5728 5.13057 14.5728Z" fill="url(#paint21_radial_1295_4177)"/>
<path d="M60.3356 14.5728C59.206 14.5728 58.291 13.6578 58.291 12.5281V7.76924C58.291 6.63958 59.206 5.72461 60.3356 5.72461C61.4653 5.72461 62.3803 6.63958 62.3803 7.76924V12.5281C62.3803 13.6578 61.4653 14.5728 60.3356 14.5728Z" fill="url(#paint22_radial_1295_4177)"/>
<path d="M19.7562 11.3927H14.9871L14.5781 8.83691H19.7562V11.3927Z" fill="#646464"/>
<path d="M21.0894 8.34629L20.9412 9.13858L20.9105 9.31237L20.839 9.69574L20.7981 9.92065C20.7509 10.1695 20.6073 10.3897 20.3986 10.5333C20.19 10.6769 19.933 10.7322 19.6837 10.6874C19.4486 10.6465 19.2492 10.5238 19.1112 10.3398C18.9426 10.4932 18.7228 10.58 18.4825 10.58C18.3394 10.58 17.8896 10.3807 17.8129 10.304C17.7915 10.2843 17.7726 10.262 17.7567 10.2376C17.7362 10.2529 17.7158 10.2734 17.6953 10.2887C17.6851 10.2938 17.3937 10.4676 17.0973 10.4625C16.8212 10.4574 16.5452 10.2887 16.4634 10.2069C16.3817 10.3245 16.2692 10.4267 16.1363 10.4983C16.0443 10.5545 15.9421 10.5903 15.8296 10.6056C15.7785 10.6158 15.7274 10.6209 15.6763 10.6209C15.4718 10.6209 15.2724 10.5545 15.1089 10.4318C14.8942 10.2785 14.7562 10.0536 14.7204 9.79797L14.6539 9.36349V9.35838L14.567 8.80122C14.5261 8.54564 14.5875 8.29006 14.7408 8.08048C14.8942 7.8658 15.1191 7.72778 15.3747 7.692C15.436 7.68178 15.4973 7.67667 15.5587 7.68178C15.574 7.68178 15.5945 7.68178 15.6098 7.68689C15.7734 7.69711 15.9369 7.75334 16.0801 7.85557C16.1005 7.87091 16.1158 7.88624 16.1312 7.89647C16.1619 7.7789 16.2232 7.66644 16.2999 7.57444C16.3203 7.54377 16.3408 7.51821 16.3663 7.49265C16.397 7.45687 16.4225 7.44154 16.4328 7.43131C16.4379 7.43131 16.4379 7.4262 16.4379 7.4262C16.5912 7.2933 16.7906 7.21151 17.0104 7.20129C17.0819 7.19618 17.1535 7.20129 17.22 7.21151C17.2711 7.22174 17.3171 7.23707 17.3631 7.25241C17.496 7.2933 17.6135 7.35975 17.7158 7.45176C17.7464 7.41087 17.7822 7.36997 17.818 7.33419C17.8691 7.28308 17.9253 7.23707 17.9816 7.20129C18.0122 7.18084 18.048 7.16551 18.0787 7.14506C18.2065 7.08372 18.3496 7.05306 18.4978 7.05817C18.6614 7.05817 18.8199 7.09906 18.963 7.18084C18.9886 7.19107 19.009 7.2064 19.0295 7.22174C19.0806 7.25752 19.1266 7.29841 19.1726 7.34442C19.2544 7.4262 19.3208 7.52332 19.3668 7.62555C19.4282 7.53354 19.5099 7.44665 19.6071 7.3802C19.6275 7.36486 19.6531 7.34953 19.6786 7.3393C19.7809 7.28308 19.8882 7.24218 20.0007 7.22685C20.108 7.21151 20.2153 7.21151 20.3227 7.23196C20.5783 7.27796 20.7929 7.42109 20.9412 7.63066C21.0843 7.84535 21.1354 8.09582 21.0894 8.34629Z" fill="url(#paint23_linear_1295_4177)"/>
<path d="M38.5863 38.5458L38.2285 37.5439H27.5095L27.3153 38.5663L22.7148 42.6095L27.8469 47.9409C27.8469 47.9409 31.3176 45.0426 31.6294 44.7666C31.9719 44.4599 32.386 44.4241 32.6364 44.419C32.8869 44.4241 33.3009 44.4599 33.6434 44.7666C33.9552 45.0477 37.426 47.9409 37.426 47.9409L42.7523 42.6095L38.5863 38.5458Z" fill="#7C7C7C"/>
<path d="M20.9919 8.898C20.813 9.35805 19.8418 8.91845 19.4738 8.72932C19.4175 8.2795 19.3613 7.98303 19.3613 7.98303V7.98814C19.3767 8.24372 19.1211 8.42774 18.8808 8.33573C18.6099 8.22839 18.2981 8.14149 18.0732 8.15171C17.9863 8.15682 17.9147 8.17216 17.8483 8.1926C17.7869 7.99325 17.7512 7.86035 17.7512 7.86035V7.91658C17.7409 8.09037 17.6592 8.25394 17.516 8.35106C16.9589 8.71399 16.8157 9.39894 17.4751 10.1299C17.2502 10.2832 16.8975 10.273 16.6982 10.0686C16.4426 9.81298 16.3353 9.00023 16.187 8.39707C16.233 8.82644 16.3608 9.59318 16.2995 9.88965C16.2228 10.2475 15.865 10.4724 15.5072 10.3855C15.1954 10.3088 14.8273 10.0583 14.6484 9.36827L14.7149 9.80275C14.7507 10.0583 14.8887 10.2832 15.1034 10.4366C15.2669 10.5593 15.4663 10.6257 15.6708 10.6257C15.7219 10.6257 15.773 10.6206 15.8241 10.6104C15.9212 10.595 16.0081 10.5644 16.0899 10.5235C16.095 10.5184 16.1052 10.5184 16.1103 10.5133C16.1155 10.5082 16.1257 10.5082 16.1308 10.503C16.3455 10.3855 16.4528 10.2219 16.4579 10.2117C16.4835 10.2526 16.7493 10.4724 17.0713 10.4724C17.516 10.4724 17.6898 10.2935 17.6898 10.2935C17.7307 10.319 17.7716 10.3395 17.8125 10.3548C17.8432 10.365 19.0393 10.7688 18.9933 11.2238C18.9882 11.28 18.9933 11.3362 18.9984 11.3925V11.418C19.0137 11.5509 19.0444 11.6787 19.0904 11.7963L19.0955 11.7912C19.2182 11.694 19.5147 11.7758 19.5402 11.602C19.6373 10.9426 19.6118 10.1555 19.5504 9.48072L20.8386 9.69541L20.9919 8.898Z" fill="#4A2F27"/>
<path d="M21.2371 10.5647C20.9866 9.18973 19.3253 8.61723 18.7017 8.39743C18.6251 8.37188 17.4852 8.10096 17.3472 9.11306C17.2858 9.55265 17.6181 10.0331 18.0423 10.1967C19.2027 10.6414 19.1976 10.8868 19.1976 11.0503C19.1924 11.4746 19.4276 12.2771 19.7956 12.5174C19.8723 12.5685 19.9592 12.5992 20.041 12.5992C20.0921 12.5992 20.1432 12.5889 20.1943 12.5685C20.915 12.2669 21.3802 11.3673 21.2371 10.5647Z" fill="url(#paint24_linear_1295_4177)"/>
<path d="M44.9293 9.4298C45.3894 9.15888 47.572 8.81641 49.0799 8.81641C49.908 8.81641 50.5265 8.92375 50.5265 9.20489L50.5316 10.9582C50.5367 12.7217 49.3866 14.1631 47.4851 14.1682H47.48C44.0348 14.1682 43.7588 10.1096 44.9293 9.4298Z" fill="url(#paint25_radial_1295_4177)"/>
<path d="M45.0504 11.3003C45.0709 11.3668 45.2498 11.4332 45.444 11.4844H45.4491C45.674 11.5406 45.9398 11.653 46.4357 11.7911C47.1257 11.9853 47.182 12.9105 47.182 12.9105C47.3097 12.43 46.9826 11.5866 46.5277 11.3924V11.3872C46.313 11.285 46.0727 11.2288 45.8172 11.1879C45.7763 11.1828 45.674 11.1777 45.5462 11.1828H45.5411C45.3111 11.1879 45.0249 11.2186 45.0504 11.3003Z" fill="#4A2F27"/>
<path d="M45.7734 8.83691H50.9515L50.5425 11.3927H45.7734V8.83691Z" fill="#646464"/>
<path d="M44.4383 8.34629L44.5865 9.13858L44.6172 9.31237L44.6888 9.69574L44.7296 9.92065C44.7768 10.1695 44.9204 10.3897 45.1291 10.5333C45.3377 10.6769 45.5947 10.7322 45.844 10.6874C46.0791 10.6465 46.2785 10.5238 46.4165 10.3398C46.5852 10.4932 46.805 10.58 47.0452 10.58C47.1883 10.58 47.6381 10.3807 47.7148 10.304C47.7353 10.2836 47.7557 10.2631 47.771 10.2376C47.7915 10.2529 47.8119 10.2734 47.8324 10.2887C47.8426 10.2938 48.134 10.4676 48.4304 10.4625C48.7065 10.4574 48.9774 10.2887 49.0643 10.2069C49.1461 10.3245 49.2585 10.4267 49.3914 10.4983C49.4834 10.5545 49.5857 10.5903 49.6981 10.6056C49.7492 10.6158 49.8003 10.6209 49.8515 10.6209C50.0559 10.6209 50.2553 10.5545 50.4188 10.4318C50.6335 10.2785 50.7715 10.0536 50.8073 9.79797L50.8738 9.36349V9.35838L50.9607 8.80122C51.0016 8.54564 50.9402 8.29006 50.7869 8.08048C50.6335 7.8658 50.4086 7.72778 50.153 7.692C50.0917 7.68178 50.0304 7.67667 49.969 7.68178C49.9537 7.68178 49.9332 7.68178 49.9179 7.68689C49.7543 7.69711 49.5908 7.75334 49.4476 7.85557C49.4272 7.87091 49.4119 7.88624 49.3965 7.89647C49.3659 7.7789 49.3045 7.66644 49.2278 7.57444C49.2085 7.54498 49.1863 7.51757 49.1614 7.49265C49.1307 7.45687 49.1052 7.44154 49.0949 7.43131C49.0898 7.43131 49.0898 7.4262 49.0898 7.4262C48.9365 7.2933 48.7371 7.21151 48.5173 7.20129C48.4458 7.19618 48.3742 7.20129 48.3078 7.21151C48.2566 7.22174 48.2106 7.23707 48.1646 7.25241C48.0317 7.2933 47.9142 7.35975 47.8119 7.45176C47.7813 7.41087 47.7455 7.36997 47.7097 7.33419C47.6586 7.28308 47.6024 7.23707 47.5461 7.20129C47.5155 7.18084 47.4797 7.16551 47.449 7.14506C47.3212 7.08372 47.1781 7.05306 47.0299 7.05817C46.8663 7.05817 46.7078 7.09906 46.5647 7.18084C46.5391 7.19107 46.5187 7.2064 46.4983 7.22174C46.4471 7.25752 46.4011 7.29841 46.3551 7.34442C46.2733 7.4262 46.2069 7.52332 46.1609 7.62555C46.0996 7.53354 46.0178 7.44665 45.9206 7.3802C45.8986 7.36359 45.8746 7.34985 45.8491 7.3393C45.7469 7.28308 45.6395 7.24218 45.5271 7.22685C45.4197 7.21151 45.3124 7.21151 45.205 7.23196C44.9494 7.27796 44.7348 7.42109 44.5865 7.63066C44.4434 7.84535 44.3923 8.09582 44.4383 8.34629Z" fill="url(#paint26_linear_1295_4177)"/>
<path d="M44.5371 8.898C44.716 9.35805 45.6872 8.91845 46.0552 8.72932C46.1115 8.2795 46.1677 7.98303 46.1677 7.98303V7.98814C46.1524 8.24372 46.408 8.42774 46.6482 8.33573C46.9191 8.22839 47.2309 8.14149 47.4558 8.15171C47.5427 8.15682 47.6143 8.17216 47.6807 8.1926C47.7421 7.99325 47.7779 7.86035 47.7779 7.86035V7.91658C47.7881 8.09037 47.8699 8.25394 48.013 8.35106C48.5701 8.71399 48.7133 9.39894 48.0539 10.1299C48.2788 10.2832 48.6315 10.273 48.8308 10.0686C49.0864 9.81298 49.1938 9.00023 49.342 8.39707C49.296 8.82644 49.1682 9.59318 49.2295 9.88965C49.3011 10.2475 49.664 10.4724 50.0218 10.3855C50.3336 10.3088 50.7017 10.0583 50.8806 9.36827L50.8141 9.80275C50.7784 10.0583 50.6403 10.2832 50.4257 10.4366C50.2621 10.5593 50.0627 10.6257 49.8583 10.6257C49.8072 10.6257 49.756 10.6206 49.7049 10.6104C49.6078 10.595 49.5209 10.5644 49.4391 10.5235C49.434 10.5184 49.4238 10.5184 49.4187 10.5133C49.4136 10.5082 49.4033 10.5082 49.3982 10.503C49.2675 10.4333 49.1554 10.3335 49.0711 10.2117C49.0455 10.2526 48.7797 10.4724 48.4577 10.4724C48.013 10.4724 47.8392 10.2935 47.8392 10.2935C47.7983 10.319 47.7574 10.3395 47.7165 10.3548C47.6807 10.365 46.4948 10.7688 46.5357 11.2238C46.5409 11.28 46.5357 11.3362 46.5306 11.3925V11.418C46.5153 11.5509 46.4846 11.6787 46.4386 11.7963L46.4335 11.7912C46.3108 11.694 46.0144 11.7758 45.9888 11.602C45.8917 10.9426 45.9172 10.1555 45.9786 9.48072L44.6905 9.69541L44.5371 8.898Z" fill="#4A2F27"/>
<path d="M44.2895 10.5647C44.54 9.18973 46.2013 8.61723 46.8249 8.39743C46.9016 8.37188 48.0414 8.10096 48.1795 9.11306C48.2408 9.55265 47.9085 10.0331 47.4843 10.1967C46.3239 10.6414 46.3291 10.8868 46.3291 11.0503C46.3342 11.4746 46.099 12.2771 45.731 12.5174C45.6543 12.5685 45.5674 12.5992 45.4856 12.5992C45.4345 12.5992 45.3834 12.5889 45.3323 12.5685C44.6116 12.2669 44.1464 11.3673 44.2895 10.5647Z" fill="url(#paint27_linear_1295_4177)"/>
<defs>
<linearGradient id="paint0_linear_1295_4177" x1="39.3871" y1="38.167" x2="39.3871" y2="57.7582" gradientUnits="userSpaceOnUse">
<stop stop-color="#5C4037"/>
<stop offset="0.5" stop-color="#70534A"/>
</linearGradient>
<linearGradient id="paint1_linear_1295_4177" x1="26.0792" y1="38.167" x2="26.0792" y2="57.7582" gradientUnits="userSpaceOnUse">
<stop stop-color="#5C4037"/>
<stop offset="0.5" stop-color="#70534A"/>
</linearGradient>
<radialGradient id="paint2_radial_1295_4177" cx="0" cy="0" r="1" gradientUnits="userSpaceOnUse" gradientTransform="translate(35.071 22.038) scale(3.70181 1.81833)">
<stop offset="0.728" stop-color="#444140" stop-opacity="0"/>
<stop offset="1" stop-color="#444140"/>
</radialGradient>
<radialGradient id="paint3_radial_1295_4177" cx="0" cy="0" r="1" gradientUnits="userSpaceOnUse" gradientTransform="translate(38.7207 21.4854) rotate(154.924) scale(1.09382 0.811461)">
<stop offset="0.663" stop-color="#444140"/>
<stop offset="1" stop-color="#444140" stop-opacity="0"/>
</radialGradient>
<radialGradient id="paint4_radial_1295_4177" cx="0" cy="0" r="1" gradientUnits="userSpaceOnUse" gradientTransform="translate(35.8818 18.3935) rotate(-94.2783) scale(4.80533 4.00494)">
<stop offset="0.725" stop-color="#444140" stop-opacity="0"/>
<stop offset="1" stop-color="#444140"/>
</radialGradient>
<radialGradient id="paint5_radial_1295_4177" cx="0" cy="0" r="1" gradientUnits="userSpaceOnUse" gradientTransform="translate(29.653 18.3928) rotate(-85.7217) scale(4.80533 4.00494)">
<stop offset="0.725" stop-color="#444140" stop-opacity="0"/>
<stop offset="1" stop-color="#444140"/>
</radialGradient>
<radialGradient id="paint6_radial_1295_4177" cx="0" cy="0" r="1" gradientUnits="userSpaceOnUse" gradientTransform="translate(30.4631 22.038) rotate(180) scale(3.70181 1.81833)">
<stop offset="0.728" stop-color="#444140" stop-opacity="0"/>
<stop offset="1" stop-color="#444140"/>
</radialGradient>
<radialGradient id="paint7_radial_1295_4177" cx="0" cy="0" r="1" gradientUnits="userSpaceOnUse" gradientTransform="translate(26.8187 21.4857) rotate(25.0761) scale(1.09382 0.811461)">
<stop offset="0.663" stop-color="#444140"/>
<stop offset="1" stop-color="#444140" stop-opacity="0"/>
</radialGradient>
<linearGradient id="paint8_linear_1295_4177" x1="41.2547" y1="22.9743" x2="47.8165" y2="12.2283" gradientUnits="userSpaceOnUse">
<stop stop-color="#5C4037"/>
<stop offset="0.5" stop-color="#70534A"/>
</linearGradient>
<linearGradient id="paint9_linear_1295_4177" x1="24.1451" y1="22.8828" x2="17.5358" y2="12.2794" gradientUnits="userSpaceOnUse">
<stop stop-color="#5C4037"/>
<stop offset="0.5" stop-color="#70534A"/>
</linearGradient>
<linearGradient id="paint10_linear_1295_4177" x1="32.7332" y1="24.2348" x2="32.7332" y2="37.2678" gradientUnits="userSpaceOnUse">
<stop stop-color="#F78C1F"/>
<stop offset="0.494" stop-color="#F37F20"/>
<stop offset="1" stop-color="#ED6D23"/>
</linearGradient>
<radialGradient id="paint11_radial_1295_4177" cx="0" cy="0" r="1" gradientUnits="userSpaceOnUse" gradientTransform="translate(35.6152 15.8572) rotate(72.0851) scale(5.63237 4.17908)">
<stop offset="0.699" stop-color="#444140" stop-opacity="0"/>
<stop offset="1" stop-color="#444140"/>
</radialGradient>
<radialGradient id="paint12_radial_1295_4177" cx="0" cy="0" r="1" gradientUnits="userSpaceOnUse" gradientTransform="translate(30.1247 9.71803) rotate(28.2026) scale(1.47677 1.75101)">
<stop offset="0.58" stop-color="#444140"/>
<stop offset="1" stop-color="#444140" stop-opacity="0"/>
</radialGradient>
<radialGradient id="paint13_radial_1295_4177" cx="0" cy="0" r="1" gradientUnits="userSpaceOnUse" gradientTransform="translate(33.4254 12.3974) rotate(-157.19) scale(4.61892 2.59585)">
<stop offset="0.699" stop-color="#444140" stop-opacity="0"/>
<stop offset="1" stop-color="#444140"/>
</radialGradient>
<radialGradient id="paint14_radial_1295_4177" cx="0" cy="0" r="1" gradientUnits="userSpaceOnUse" gradientTransform="translate(29.529 11.0634) scale(1.35559 1.6583)">
<stop offset="0.702" stop-color="#444140" stop-opacity="0"/>
<stop offset="1" stop-color="#444140"/>
</radialGradient>
<radialGradient id="paint15_radial_1295_4177" cx="0" cy="0" r="1" gradientUnits="userSpaceOnUse" gradientTransform="translate(29.3439 13.4572) rotate(-164.942) scale(2.54259 2.37941)">
<stop offset="0.66" stop-color="#444140" stop-opacity="0"/>
<stop offset="1" stop-color="#444140"/>
</radialGradient>
<radialGradient id="paint16_radial_1295_4177" cx="0" cy="0" r="1" gradientUnits="userSpaceOnUse" gradientTransform="translate(28.7426 15.9112) rotate(7.83355) scale(2.66935 3.75088)">
<stop offset="0.598" stop-color="#444140" stop-opacity="0"/>
<stop offset="1" stop-color="#444140"/>
</radialGradient>
<radialGradient id="paint17_radial_1295_4177" cx="0" cy="0" r="1" gradientUnits="userSpaceOnUse" gradientTransform="translate(18.1091 11.4939) scale(2.90185)">
<stop stop-color="#5C4037"/>
<stop offset="0.5" stop-color="#70534A"/>
</radialGradient>
<linearGradient id="paint18_linear_1295_4177" x1="32.734" y1="8.52046" x2="32.734" y2="11.6171" gradientUnits="userSpaceOnUse">
<stop stop-color="#BDBDBD"/>
<stop offset="1" stop-color="#757575"/>
</linearGradient>
<radialGradient id="paint19_radial_1295_4177" cx="0" cy="0" r="1" gradientUnits="userSpaceOnUse" gradientTransform="translate(10.6866 5.09666) rotate(90) scale(11.221 6.30996)">
<stop offset="0.396" stop-color="#9E9E9E"/>
<stop offset="0.79" stop-color="#646464"/>
</radialGradient>
<radialGradient id="paint20_radial_1295_4177" cx="0" cy="0" r="1" gradientUnits="userSpaceOnUse" gradientTransform="translate(54.7824 5.14089) rotate(90) scale(11.221 6.30996)">
<stop offset="0.396" stop-color="#9E9E9E"/>
<stop offset="0.79" stop-color="#646464"/>
</radialGradient>
<radialGradient id="paint21_radial_1295_4177" cx="0" cy="0" r="1" gradientUnits="userSpaceOnUse" gradientTransform="translate(5.24409 7.22907) scale(2.41465 4.17661)">
<stop offset="0.441" stop-color="#9E9E9E"/>
<stop offset="0.985" stop-color="#646464"/>
</radialGradient>
<radialGradient id="paint22_radial_1295_4177" cx="0" cy="0" r="1" gradientUnits="userSpaceOnUse" gradientTransform="translate(60.1785 7.22907) rotate(180) scale(2.41465 4.17661)">
<stop offset="0.441" stop-color="#9E9E9E"/>
<stop offset="0.985" stop-color="#646464"/>
</radialGradient>
<linearGradient id="paint23_linear_1295_4177" x1="17.8068" y1="9.15698" x2="17.8604" y2="7.463" gradientUnits="userSpaceOnUse">
<stop stop-color="#5C4037"/>
<stop offset="0.5" stop-color="#70534A"/>
</linearGradient>
<linearGradient id="paint24_linear_1295_4177" x1="17.9135" y1="11.0514" x2="20.6222" y2="9.69527" gradientUnits="userSpaceOnUse">
<stop stop-color="#5C4037"/>
<stop offset="0.469" stop-color="#70534A"/>
</linearGradient>
<radialGradient id="paint25_radial_1295_4177" cx="0" cy="0" r="1" gradientUnits="userSpaceOnUse" gradientTransform="translate(47.4187 11.4939) rotate(180) scale(2.90184)">
<stop stop-color="#5C4037"/>
<stop offset="0.5" stop-color="#70534A"/>
</radialGradient>
<linearGradient id="paint26_linear_1295_4177" x1="47.7209" y1="9.15698" x2="47.6673" y2="7.463" gradientUnits="userSpaceOnUse">
<stop stop-color="#5C4037"/>
<stop offset="0.5" stop-color="#70534A"/>
</linearGradient>
<linearGradient id="paint27_linear_1295_4177" x1="47.6131" y1="11.0514" x2="44.9045" y2="9.69526" gradientUnits="userSpaceOnUse">
<stop stop-color="#5C4037"/>
<stop offset="0.469" stop-color="#70534A"/>
</linearGradient>
</defs>
</svg>
