<svg width="332" height="247" viewBox="0 0 332 247" fill="none" xmlns="http://www.w3.org/2000/svg">
<path d="M331.489 217.059H0V217.224H331.489V217.059Z" fill="#EBEBEB"/>
<path d="M287.593 224.114H265.635V224.28H287.593V224.114Z" fill="#EBEBEB"/>
<path d="M207.558 224.033H201.797V224.199H207.558V224.033Z" fill="#EBEBEB"/>
<path d="M298.273 227.726H285.551V227.891H298.273V227.726Z" fill="#EBEBEB"/>
<path d="M75.9758 229.928H47.3418V230.093H75.9758V229.928Z" fill="#EBEBEB"/>
<path d="M73.517 222.688H69.3203V222.853H73.517V222.688Z" fill="#EBEBEB"/>
<path d="M164.717 223.396H124.342V223.562H164.717V223.396Z" fill="#EBEBEB"/>
<path d="M157.126 187.49H29.111C28.1082 187.489 27.147 187.089 26.4385 186.379C25.73 185.669 25.332 184.708 25.332 183.705V3.75246C25.3408 2.75536 25.7425 1.80196 26.4501 1.09936C27.1577 0.396765 28.1139 0.00170809 29.111 0H157.126C158.13 0 159.092 0.39884 159.802 1.10878C160.512 1.81872 160.911 2.7816 160.911 3.78561V183.705C160.911 184.709 160.512 185.672 159.802 186.382C159.092 187.091 158.13 187.49 157.126 187.49ZM29.111 0.132596C28.1521 0.134352 27.2331 0.516503 26.5557 1.19517C25.8782 1.87383 25.4978 2.79356 25.4978 3.75246V183.705C25.4978 184.664 25.8782 185.583 26.5557 186.262C27.2331 186.941 28.1521 187.323 29.111 187.325H157.126C158.085 187.323 159.005 186.941 159.683 186.262C160.362 185.584 160.744 184.664 160.745 183.705V3.75246C160.744 2.79295 160.362 1.87324 159.683 1.19476C159.005 0.516288 158.085 0.134349 157.126 0.132596H29.111Z" fill="#EBEBEB"/>
<path d="M300.535 187.49H172.514C171.511 187.489 170.549 187.089 169.839 186.38C169.13 185.67 168.73 184.708 168.729 183.705V3.75246C168.739 2.75475 169.142 1.80136 169.851 1.09895C170.559 0.396533 171.516 0.00168946 172.514 0H300.535C301.531 0.00345047 302.486 0.399278 303.192 1.10169C303.898 1.8041 304.299 2.7565 304.308 3.75246V183.705C304.308 184.706 303.911 185.667 303.204 186.377C302.496 187.086 301.537 187.487 300.535 187.49ZM172.514 0.132596C171.555 0.134349 170.635 0.516288 169.956 1.19476C169.278 1.87324 168.896 2.79295 168.894 3.75246V183.705C168.896 184.664 169.278 185.584 169.956 186.262C170.635 186.941 171.555 187.323 172.514 187.325H300.535C301.495 187.323 302.414 186.941 303.093 186.262C303.771 185.584 304.153 184.664 304.155 183.705V3.75246C304.153 2.79295 303.771 1.87324 303.093 1.19476C302.414 0.516288 301.495 0.134349 300.535 0.132596H172.514Z" fill="#EBEBEB"/>
<path d="M49.5565 197.368C49.2229 196.269 49.04 195.129 49.0129 193.98C49.0129 189.485 52.6195 188.564 58.036 188.564C63.4526 188.564 67.0592 189.485 67.0592 193.98C67.0431 194.948 66.9096 195.91 66.6614 196.845C64.1865 194.948 61.1324 193.964 58.0156 194.059C54.8989 194.155 51.9107 195.324 49.5565 197.368ZM69.1741 199.324C69.7212 197.594 70.0138 195.794 70.0426 193.98C70.0426 184.308 61.6559 184.308 58.036 184.308C54.4162 184.308 46.0295 184.308 46.0295 193.994C46.07 196.071 46.4438 198.128 47.1367 200.086C45.41 202.661 44.614 205.748 44.8805 208.837C45.1469 211.926 46.4597 214.831 48.6018 217.072H68.2857C70.5412 214.718 71.8742 211.63 72.041 208.374C72.2077 205.117 71.1972 201.91 69.194 199.337L69.1741 199.324Z" fill="#E6E6E6"/>
<path d="M85.5977 198.894C85.2913 197.88 85.124 196.83 85.1005 195.771C85.1005 191.634 88.4154 190.786 93.4209 190.786C98.4264 190.786 101.735 191.634 101.735 195.771C101.723 196.667 101.599 197.559 101.363 198.423C99.0802 196.68 96.266 195.776 93.3946 195.864C90.5231 195.952 87.7696 197.027 85.5977 198.907V198.894ZM103.684 200.704C104.189 199.107 104.459 197.446 104.486 195.771C104.486 186.848 96.7291 186.848 93.4209 186.848C90.1126 186.848 82.3491 186.848 82.3491 195.771C82.388 197.688 82.7326 199.586 83.3701 201.393C81.7782 203.764 81.0421 206.607 81.2831 209.453C81.5242 212.298 82.728 214.977 84.6961 217.046H102.822C104.899 214.876 106.127 212.031 106.28 209.031C106.433 206.03 105.502 203.075 103.657 200.704H103.684Z" fill="#E6E6E6"/>
<path d="M121.644 200.444C121.36 199.52 121.206 198.561 121.186 197.594C121.186 193.801 124.229 193.026 128.797 193.026C133.365 193.026 136.408 193.801 136.408 197.594C136.394 198.409 136.281 199.219 136.07 200.007C133.983 198.408 131.407 197.579 128.779 197.659C126.151 197.738 123.631 198.722 121.644 200.444ZM138.218 202.102C138.681 200.643 138.929 199.124 138.954 197.594C138.954 189.426 131.854 189.426 128.824 189.426C125.794 189.426 118.674 189.426 118.674 197.567C118.712 199.318 119.027 201.053 119.608 202.705C118.154 204.878 117.484 207.481 117.708 210.085C117.933 212.69 119.038 215.14 120.842 217.032H137.416C139.315 215.045 140.437 212.441 140.577 209.696C140.717 206.95 139.866 204.246 138.178 202.075L138.218 202.102Z" fill="#E6E6E6"/>
<path d="M157.682 201.989C157.43 201.147 157.291 200.275 157.271 199.396C157.271 195.956 160.029 195.253 164.173 195.253C168.316 195.253 171.081 195.956 171.081 199.396C171.068 200.138 170.966 200.874 170.776 201.591C168.881 200.14 166.544 199.388 164.158 199.46C161.773 199.533 159.486 200.426 157.682 201.989ZM172.699 203.487C173.117 202.163 173.341 200.785 173.362 199.396C173.362 191.984 166.924 191.984 164.173 191.984C161.421 191.984 154.984 191.984 154.984 199.396C155.02 200.979 155.306 202.545 155.832 204.037C154.512 206.007 153.903 208.369 154.107 210.732C154.311 213.094 155.315 215.317 156.953 217.032H172.002C173.726 215.229 174.745 212.867 174.873 210.376C175.001 207.884 174.229 205.43 172.699 203.461V203.487Z" fill="#E6E6E6"/>
<path d="M192.118 203.534C191.888 202.782 191.763 202.001 191.747 201.214C191.747 198.124 194.226 197.495 197.946 197.495C201.665 197.495 204.145 198.124 204.145 201.214C204.137 201.886 204.043 202.554 203.866 203.203C202.164 201.905 200.068 201.232 197.929 201.297C195.789 201.362 193.738 202.162 192.118 203.561V203.534ZM205.596 204.86C205.972 203.671 206.173 202.434 206.193 201.187C206.193 194.558 200.412 194.558 197.946 194.558C195.479 194.558 189.698 194.558 189.698 201.187C189.727 202.614 189.984 204.026 190.461 205.371C189.276 207.14 188.729 209.26 188.911 211.381C189.093 213.502 189.993 215.498 191.462 217.039H204.973C206.519 215.421 207.432 213.301 207.546 211.065C207.661 208.83 206.969 206.628 205.596 204.86Z" fill="#E6E6E6"/>
<path d="M164.572 30.0527H17.4043V136.719H164.572V30.0527Z" fill="#F5F5F5"/>
<path d="M164.564 86.1865H55.6895V136.719H164.564V86.1865Z" fill="#FAFAFA"/>
<path d="M16.8739 136.727H17.4043L17.4043 30.06H16.8739L16.8739 136.727Z" fill="#E6E6E6"/>
<path d="M93.1212 30.0527H63.5722L33.4531 136.719H63.0021L93.1212 30.0527Z" fill="white"/>
<path d="M107.774 30.0527H97.4843L67.3652 136.719H77.6547L107.774 30.0527Z" fill="white"/>
<path d="M314.623 30.0527H167.455V136.719H314.623V30.0527Z" fill="#F5F5F5"/>
<path d="M282.502 65.2637H214.852V115.796H282.502V65.2637Z" fill="#FAFAFA"/>
<path d="M297.83 115.804H314.623V65.2715H297.83V115.804Z" fill="#FAFAFA"/>
<path d="M166.925 136.727H167.455V30.06H166.925V136.727Z" fill="#E6E6E6"/>
<path d="M228.395 30.0527H212.477L182.352 136.719H198.27L228.395 30.0527Z" fill="white"/>
<path d="M248.598 30.0527H232.68L202.561 136.719H218.479L248.598 30.0527Z" fill="white"/>
<path d="M314.768 151.603H21.6719V157.351H314.768V151.603Z" fill="#EBEBEB"/>
<path d="M27.4199 151.603H21.6719V157.351H27.4199V151.603Z" fill="#E0E0E0"/>
<path d="M234.587 167.362H235.25C248.715 167.707 260.702 178.699 262.181 192.211C263.659 205.722 254.066 216.714 240.66 217.053H239.997C226.28 217.053 213.929 205.928 212.431 192.211C210.932 178.494 220.87 167.362 234.587 167.362ZM238.035 196.341C238.56 196.353 239.081 196.25 239.563 196.041C240.044 195.831 240.475 195.52 240.824 195.128C241.173 194.735 241.433 194.272 241.586 193.77C241.738 193.267 241.78 192.738 241.708 192.217C241.565 191.096 241.026 190.062 240.186 189.304C239.347 188.546 238.264 188.114 237.133 188.087C236.607 188.075 236.085 188.178 235.603 188.388C235.121 188.598 234.69 188.91 234.34 189.303C233.99 189.695 233.729 190.159 233.576 190.663C233.423 191.166 233.382 191.696 233.454 192.217C233.597 193.335 234.135 194.364 234.97 195.12C235.805 195.876 236.882 196.309 238.008 196.341H238.035Z" fill="#E0E0E0"/>
<path d="M235.125 167.369H235.788C249.512 167.369 261.85 178.501 263.355 192.224C264.86 205.948 254.955 217.066 241.238 217.066H240.575C227.11 216.728 215.123 205.736 213.638 192.231C212.153 178.726 221.733 167.734 235.125 167.369ZM238.944 196.341C239.469 196.353 239.99 196.251 240.472 196.041C240.953 195.831 241.384 195.52 241.733 195.128C242.082 194.736 242.342 194.272 242.495 193.77C242.647 193.267 242.689 192.738 242.617 192.218C242.474 191.09 241.929 190.052 241.083 189.294C240.237 188.535 239.145 188.107 238.009 188.087C237.484 188.077 236.962 188.18 236.481 188.39C235.999 188.6 235.569 188.913 235.22 189.305C234.871 189.698 234.611 190.162 234.459 190.664C234.306 191.167 234.264 191.697 234.336 192.218C234.481 193.344 235.026 194.38 235.872 195.137C236.718 195.895 237.809 196.322 238.944 196.341Z" fill="#F0F0F0"/>
<path d="M222.377 178.567C224.074 176.819 226.11 175.437 228.36 174.505C230.611 173.574 233.029 173.113 235.464 173.15C246.509 173.15 256.447 182.101 257.661 193.146C257.965 195.557 257.78 198.005 257.118 200.343C256.457 202.681 255.331 204.862 253.809 206.757C255.606 204.824 256.958 202.52 257.766 200.008C258.575 197.495 258.822 194.836 258.489 192.218C257.276 181.166 247.345 172.216 236.299 172.216C233.652 172.17 231.028 172.716 228.619 173.815C226.21 174.914 224.077 176.537 222.377 178.567Z" fill="#E6E6E6"/>
<path d="M272.006 174.834H272.55C283.993 175.126 294.176 184.467 295.436 195.943C296.695 207.419 288.554 216.761 277.177 217.046H276.634C264.978 217.046 254.49 207.592 253.211 195.937C251.931 184.281 260.351 174.834 272.006 174.834ZM274.936 199.457C275.383 199.466 275.825 199.378 276.234 199.199C276.643 199.021 277.009 198.756 277.305 198.423C277.602 198.089 277.823 197.696 277.953 197.269C278.083 196.842 278.119 196.392 278.059 195.95C277.936 194.997 277.476 194.12 276.762 193.476C276.048 192.833 275.128 192.466 274.167 192.443C273.721 192.433 273.277 192.52 272.868 192.698C272.458 192.876 272.093 193.141 271.796 193.475C271.499 193.808 271.278 194.202 271.148 194.63C271.018 195.057 270.983 195.508 271.045 195.95C271.159 196.907 271.616 197.79 272.332 198.435C273.047 199.08 273.973 199.443 274.936 199.457Z" fill="#E0E0E0"/>
<path d="M272.483 174.841H273.027C284.689 174.841 295.171 184.295 296.45 195.957C297.73 207.618 289.317 217.066 277.655 217.066H277.124C265.681 216.781 255.498 207.439 254.238 195.963C252.979 184.487 261.087 175.133 272.483 174.841ZM275.725 199.457C276.172 199.467 276.615 199.38 277.025 199.202C277.434 199.024 277.8 198.759 278.097 198.425C278.394 198.092 278.615 197.698 278.745 197.27C278.874 196.843 278.91 196.392 278.848 195.95C278.726 194.997 278.267 194.118 277.552 193.475C276.838 192.831 275.917 192.465 274.956 192.443C274.51 192.433 274.067 192.52 273.657 192.698C273.248 192.876 272.882 193.141 272.585 193.475C272.288 193.808 272.067 194.203 271.937 194.63C271.807 195.057 271.772 195.508 271.834 195.95C271.955 196.9 272.412 197.776 273.122 198.419C273.832 199.062 274.748 199.43 275.706 199.457H275.725Z" fill="#F5F5F5"/>
<path d="M261.631 184.348C263.073 182.865 264.803 181.692 266.715 180.902C268.627 180.112 270.68 179.721 272.749 179.754C282.137 179.754 290.576 187.358 291.611 196.739C291.867 198.789 291.71 200.869 291.147 202.856C290.585 204.843 289.628 206.698 288.336 208.308C289.864 206.666 291.013 204.708 291.7 202.572C292.388 200.437 292.597 198.176 292.313 195.95C291.279 186.563 282.846 178.958 273.458 178.958C271.21 178.92 268.982 179.384 266.935 180.316C264.889 181.249 263.077 182.626 261.631 184.348Z" fill="#E6E6E6"/>
<path d="M165.746 247.001C236.739 247.001 294.291 243.641 294.291 239.496C294.291 235.351 236.739 231.991 165.746 231.991C94.7527 231.991 37.2012 235.351 37.2012 239.496C37.2012 243.641 94.7527 247.001 165.746 247.001Z" fill="#F5F5F5"/>
<path d="M155.799 95.9183C154.734 95.2362 153.442 95.0046 152.207 95.2744C150.971 95.5441 149.893 96.2931 149.209 97.357L149.063 97.589L148.785 98.0266L148.453 98.5172C148.235 98.8553 148.009 99.1802 147.79 99.5249C147.326 100.188 146.856 100.851 146.365 101.514C145.415 102.796 144.395 104.024 143.309 105.193C142.302 106.29 141.192 107.287 139.994 108.17C139.709 108.382 139.424 108.575 139.139 108.76C138.913 108.336 138.688 107.825 138.476 107.288C137.899 105.754 137.42 104.184 137.044 102.588C136.235 99.273 135.611 95.7327 135.021 92.2786V92.199C134.929 91.6264 134.631 91.1071 134.183 90.7387C133.735 90.3704 133.168 90.1784 132.588 90.1987C132.008 90.2191 131.456 90.4504 131.035 90.8493C130.614 91.2481 130.353 91.787 130.301 92.3648C129.918 96.1233 129.874 99.9087 130.168 103.675C130.309 105.663 130.611 107.636 131.07 109.576C131.332 110.68 131.698 111.756 132.164 112.791C132.449 113.419 132.788 114.02 133.178 114.588C133.693 115.341 134.334 115.998 135.074 116.53C136.083 117.26 137.279 117.686 138.522 117.757C139.131 117.793 139.742 117.746 140.339 117.618C140.606 117.563 140.87 117.49 141.127 117.399L141.485 117.273L141.691 117.2C142.769 116.796 143.812 116.301 144.807 115.721C146.65 114.631 148.364 113.336 149.919 111.863C151.394 110.472 152.759 108.969 154.003 107.368C154.612 106.579 155.202 105.777 155.759 104.955C156.038 104.537 156.31 104.119 156.575 103.688L156.966 103.025L157.384 102.296C157.985 101.232 158.156 99.978 157.861 98.7918C157.567 97.6055 156.829 96.5773 155.799 95.9183Z" fill="#CE7A63"/>
<path d="M134.445 93.3125L138.144 89.4473L130.852 87.5645C130.852 87.5645 127.755 91.065 130.626 94.1346L134.445 93.3125Z" fill="#CE7A63"/>
<path d="M135.014 97.1048L130.267 97.4097C130.097 97.4246 129.926 97.4036 129.765 97.3481C129.603 97.2927 129.455 97.204 129.331 97.0878C129.206 96.9715 129.106 96.8304 129.039 96.6734C128.972 96.5165 128.939 96.3472 128.942 96.1766V94.0219C128.945 93.6699 129.079 93.3318 129.318 93.0733C129.557 92.8147 129.884 92.6543 130.234 92.623L134.988 92.3181C135.155 92.307 135.324 92.3309 135.481 92.3882C135.639 92.4454 135.784 92.5348 135.905 92.6508C136.027 92.7667 136.123 92.9066 136.187 93.0616C136.252 93.2166 136.284 93.3833 136.281 93.5512V95.7059C136.279 96.0542 136.149 96.3896 135.915 96.6478C135.682 96.9061 135.361 97.0688 135.014 97.1048Z" fill="#263238"/>
<path d="M137.428 85.4971L130.852 85.8153V87.5656L138.144 89.4484L137.428 85.4971Z" fill="#CE7A63"/>
<path d="M148.977 97.6422C148.751 103.848 150.303 118.155 161.461 147.067L196.36 144.528C195.525 139.735 188.192 119.063 187.078 96.2433C186.932 93.3726 184.207 90.9394 181.058 90.7737C179.069 90.6875 176.789 90.6411 174.574 90.7207C169.456 90.8424 164.347 91.2452 159.273 91.9273C156.951 92.3276 154.654 92.8566 152.391 93.5118C151.451 93.7366 150.609 94.2612 149.994 95.0062C149.378 95.7513 149.021 96.6765 148.977 97.6422Z" fill="#9C9C82"/>
<path opacity="0.3" d="M168.395 109.324C168.316 109.325 168.24 109.297 168.18 109.246C168.12 109.194 168.081 109.123 168.07 109.045C168.054 108.959 168.073 108.87 168.123 108.798C168.173 108.726 168.249 108.677 168.335 108.661L174.302 107.6C174.39 107.584 174.48 107.604 174.554 107.655C174.627 107.706 174.677 107.784 174.693 107.872C174.709 107.96 174.689 108.05 174.638 108.124C174.587 108.197 174.509 108.247 174.421 108.263L168.454 109.324H168.395Z" fill="white"/>
<path opacity="0.3" d="M168.502 110.716C168.414 110.723 168.327 110.695 168.259 110.638C168.192 110.58 168.151 110.499 168.144 110.411C168.137 110.323 168.165 110.236 168.222 110.169C168.279 110.102 168.361 110.06 168.449 110.053L174.415 108.992C174.458 108.985 174.502 108.986 174.544 108.995C174.587 109.005 174.626 109.023 174.662 109.048C174.697 109.074 174.727 109.106 174.749 109.143C174.772 109.18 174.787 109.221 174.793 109.264C174.809 109.35 174.79 109.439 174.74 109.511C174.69 109.583 174.614 109.633 174.528 109.649L168.561 110.709L168.502 110.716Z" fill="white"/>
<path opacity="0.3" d="M168.594 112.161C168.515 112.162 168.439 112.134 168.379 112.083C168.319 112.031 168.28 111.96 168.269 111.882C168.253 111.796 168.273 111.708 168.322 111.635C168.372 111.563 168.448 111.514 168.534 111.498L174.501 110.444C174.587 110.428 174.676 110.447 174.748 110.497C174.82 110.547 174.869 110.623 174.885 110.709C174.899 110.796 174.878 110.884 174.827 110.956C174.777 111.028 174.7 111.077 174.614 111.093L168.647 112.154L168.594 112.161Z" fill="white"/>
<path opacity="0.3" d="M192.501 145.077C192.424 145.078 192.348 145.052 192.289 145.002C192.229 144.952 192.189 144.882 192.177 144.806C191.984 143.692 191.434 141.716 190.672 138.985C188.252 130.233 183.73 113.957 182.862 96.4745C182.857 96.3865 182.888 96.3005 182.947 96.2352C183.006 96.1699 183.089 96.1308 183.177 96.1264C183.265 96.122 183.351 96.1527 183.416 96.2118C183.481 96.2708 183.52 96.3534 183.525 96.4413C184.393 113.851 188.895 130.081 191.315 138.806C192.077 141.557 192.641 143.546 192.826 144.693C192.842 144.779 192.823 144.868 192.773 144.94C192.723 145.012 192.647 145.061 192.561 145.077H192.501Z" fill="white"/>
<path opacity="0.4" d="M187.456 101.759C184.187 100.274 181.058 99.352 181.489 101.759C182.58 107.197 185.365 112.15 189.445 115.907C188.603 111.438 187.907 106.678 187.456 101.759Z" fill="black"/>
<path d="M206.948 93.4786L209.779 88.904L201.956 87.4189C201.956 87.4189 199.655 91.536 203.282 94.7117L206.948 93.4786Z" fill="#CE7A63"/>
<path d="M208.95 85.2236L202.28 85.3363L201.955 87.3849L209.778 88.87L208.95 85.2236Z" fill="#CE7A63"/>
<path d="M97.9405 110.339C92.6367 110.339 88.334 100.693 88.334 88.7921C88.334 76.8917 92.6367 67.252 97.9405 67.252H101.541V110.346L97.9405 110.339Z" fill="#9C9C82"/>
<path d="M101.54 110.332C106.846 110.332 111.147 100.688 111.147 88.7921C111.147 76.8958 106.846 67.252 101.54 67.252C96.2346 67.252 91.9336 76.8958 91.9336 88.7921C91.9336 100.688 96.2346 110.332 101.54 110.332Z" fill="#9C9C82"/>
<path opacity="0.2" d="M101.54 110.332C106.846 110.332 111.147 100.688 111.147 88.7921C111.147 76.8958 106.846 67.252 101.54 67.252C96.2346 67.252 91.9336 76.8958 91.9336 88.7921C91.9336 100.688 96.2346 110.332 101.54 110.332Z" fill="black"/>
<path d="M103.569 110.339C98.2656 110.339 93.9629 100.693 93.9629 88.7921C93.9629 76.8917 98.2656 67.252 103.569 67.252H107.169V110.346L103.569 110.339Z" fill="#9C9C82"/>
<path d="M107.169 110.332C112.475 110.332 116.776 100.688 116.776 88.7921C116.776 76.8958 112.475 67.252 107.169 67.252C101.863 67.252 97.5625 76.8958 97.5625 88.7921C97.5625 100.688 101.863 110.332 107.169 110.332Z" fill="#9C9C82"/>
<path opacity="0.2" d="M107.169 110.332C112.475 110.332 116.776 100.688 116.776 88.7921C116.776 76.8958 112.475 67.252 107.169 67.252C101.863 67.252 97.5625 76.8958 97.5625 88.7921C97.5625 100.688 101.863 110.332 107.169 110.332Z" fill="black"/>
<path opacity="0.2" d="M107.992 89.4476L116.392 94.8044C116.632 92.9687 116.758 91.1199 116.77 89.2686L107.992 89.4476Z" fill="black"/>
<path d="M232.658 89.9715H108.536C108.223 89.9715 107.922 89.8472 107.701 89.6259C107.48 89.4046 107.355 89.1044 107.355 88.7914C107.355 88.4784 107.48 88.1783 107.701 87.957C107.922 87.7357 108.223 87.6113 108.536 87.6113H232.658C232.971 87.6131 233.27 87.738 233.491 87.9589C233.712 88.1798 233.837 88.479 233.838 88.7914C233.837 89.1039 233.712 89.403 233.491 89.624C233.27 89.8449 232.971 89.9698 232.658 89.9715Z" fill="#263238"/>
<path opacity="0.9" d="M174.547 90.7208C169.429 90.8426 164.32 91.2454 159.246 91.9275C158.662 92.0203 158.079 92.133 157.515 92.2457C156.024 95.5076 157.767 100.354 162.461 105.823L163.84 107.428L164.682 105.485C167.686 98.597 171.312 93.8965 175.164 91.8943L177.524 90.6877C176.536 90.6744 175.535 90.6877 174.547 90.7208Z" fill="white"/>
<path d="M169.463 74.8496C169.516 79.4905 170.424 87.9434 174.548 90.7213C170.245 92.9489 166.406 98.1202 163.463 104.955C159.067 99.8373 156.959 94.7589 159.246 91.9279C164.464 90.2771 163.483 86.5114 161.732 83.0374L169.463 74.8496Z" fill="#CE7A63"/>
<path opacity="0.2" d="M166.314 78.1895L161.732 83.0292C162.15 83.8234 162.496 84.6532 162.767 85.5087C164.802 85.0645 167.209 82.7043 166.977 80.6491C166.91 79.7952 166.685 78.9612 166.314 78.1895Z" fill="black"/>
<path d="M153.943 61.8868C152.16 62.868 150.668 69.9619 154.851 72.7C159.035 75.4381 157.921 59.7123 153.943 61.8868Z" fill="#263238"/>
<path d="M171.233 67.5167C170.868 74.0006 170.987 77.8127 167.732 81.2072C162.833 86.3187 154.824 83.5342 153.239 77.1033C151.821 71.3155 152.656 61.6825 158.981 58.9576C160.354 58.3422 161.864 58.0933 163.363 58.235C164.861 58.3767 166.297 58.9043 167.531 59.7663C168.765 60.6284 169.755 61.7954 170.403 63.1537C171.052 64.5119 171.338 66.0151 171.233 67.5167Z" fill="#CE7A63"/>
<path d="M154.85 63.1738C148.982 60.8202 144.242 53.7065 147.371 49.8678C151.508 44.7496 156.116 53.2557 169.442 56.2987C180.222 58.7517 176.237 68.1395 172.657 71.9052C170.363 72.5152 168.222 73.0058 168.222 73.0058C168.222 73.0058 165.855 67.397 168.182 63.9097C165.67 64.7053 158.867 64.7848 154.85 63.1738Z" fill="#263238"/>
<path d="M146.385 57.8643C146.385 57.8643 150.641 63.2742 168.183 63.9106C160.44 66.0852 150.495 64.7858 146.385 57.8643Z" fill="#263238"/>
<path d="M159.631 77.2427C159.593 77.2377 159.559 77.2183 159.535 77.1886C159.512 77.1589 159.501 77.1213 159.505 77.0836C159.508 77.0425 159.527 77.0044 159.558 76.9772C159.589 76.95 159.629 76.9359 159.67 76.9377C160.328 76.9841 160.988 76.8771 161.598 76.6252C162.208 76.3732 162.751 75.9832 163.184 75.4858C163.196 75.4697 163.212 75.4561 163.229 75.4459C163.246 75.4357 163.266 75.429 163.286 75.4263C163.306 75.4235 163.326 75.4247 163.346 75.4298C163.365 75.4349 163.384 75.4438 163.4 75.456C163.416 75.4682 163.429 75.4834 163.44 75.5008C163.45 75.5182 163.456 75.5375 163.459 75.5575C163.462 75.5775 163.461 75.5979 163.456 75.6174C163.451 75.637 163.442 75.6553 163.429 75.6714C162.967 76.2134 162.383 76.6387 161.725 76.9128C161.068 77.1869 160.354 77.3022 159.644 77.2493L159.631 77.2427Z" fill="#263238"/>
<path d="M174.196 74.59C173.334 75.9905 171.959 76.9991 170.364 77.401C168.256 77.9115 168.541 76.3402 169.217 74.3977C169.827 72.6408 170.431 69.9425 172.532 70.2939C174.634 70.6452 175.237 72.8662 174.196 74.59Z" fill="#CE7A63"/>
<path d="M161.414 69.5452C161.414 70.0756 161.143 70.5066 160.798 70.5132C160.453 70.5198 160.168 70.1021 160.168 69.5718C160.168 69.0414 160.44 68.6171 160.785 68.6038C161.129 68.5906 161.414 69.0215 161.414 69.5452Z" fill="#263238"/>
<path d="M155.287 69.6781C155.287 70.2084 155.016 70.6394 154.671 70.6526C154.326 70.6659 154.008 70.235 154.008 69.7112C154.008 69.1875 154.28 68.7499 154.624 68.7366C154.969 68.7234 155.287 69.1543 155.287 69.6781Z" fill="#263238"/>
<path d="M157.351 69.9033C157.351 69.9033 156.164 72.9663 154.852 74.4646C155.793 75.3199 157.378 74.8823 157.378 74.8823L157.351 69.9033Z" fill="#BA4D3C"/>
<path d="M164.06 66.8015C164.019 66.8045 163.978 66.799 163.939 66.7853C163.9 66.7716 163.864 66.75 163.834 66.722C163.566 66.4428 163.234 66.2326 162.867 66.1091C162.5 65.9856 162.109 65.9525 161.726 66.0126C161.687 66.0223 161.646 66.024 161.606 66.0175C161.566 66.011 161.528 65.9964 161.494 65.9747C161.46 65.953 161.431 65.9246 161.408 65.8912C161.385 65.8579 161.369 65.8202 161.361 65.7805C161.346 65.6998 161.362 65.616 161.406 65.5468C161.451 65.4776 161.52 65.4283 161.6 65.4093C162.079 65.3295 162.57 65.3662 163.031 65.5162C163.493 65.6662 163.912 65.9252 164.252 66.2711C164.31 66.3294 164.342 66.408 164.342 66.4899C164.342 66.5718 164.31 66.6504 164.252 66.7087C164.202 66.7623 164.133 66.7954 164.06 66.8015Z" fill="#263238"/>
<path d="M155.136 66.6276C155.142 66.6604 155.142 66.6941 155.136 66.727C155.138 66.7678 155.131 66.8086 155.117 66.8468C155.102 66.885 155.08 66.9198 155.051 66.949C155.023 66.9782 154.988 67.0013 154.951 67.0167C154.913 67.0321 154.872 67.0395 154.831 67.0386C154.336 67.0555 153.844 66.9556 153.395 66.7472C152.946 66.5387 152.552 66.2275 152.246 65.8386C152.222 65.8058 152.205 65.7686 152.197 65.7293C152.188 65.6899 152.187 65.6491 152.195 65.6094C152.202 65.5698 152.217 65.532 152.24 65.4985C152.262 65.4649 152.291 65.4363 152.325 65.4143C152.393 65.3682 152.476 65.3506 152.557 65.3655C152.638 65.3804 152.709 65.4265 152.756 65.4939C153.004 65.7977 153.32 66.0398 153.678 66.2008C154.035 66.3619 154.426 66.4376 154.818 66.422C154.886 66.4187 154.953 66.4367 155.01 66.4736C155.067 66.5105 155.111 66.5643 155.136 66.6276Z" fill="#263238"/>
<path d="M207.974 99.0215C207.739 97.0962 207.374 95.1891 206.88 93.3133C206.732 92.7656 206.394 92.2885 205.926 91.9676C205.459 91.6466 204.892 91.5027 204.328 91.5618C203.763 91.6209 203.239 91.879 202.847 92.2898C202.456 92.7007 202.224 93.2374 202.193 93.8039V93.9033C202.098 97.3445 201.739 100.773 201.119 104.16C200.966 104.899 200.764 105.628 200.516 106.341C200.367 106.754 200.183 107.153 199.965 107.534L199.859 107.481C198.65 106.93 197.523 106.214 196.511 105.353C195.293 104.32 194.14 103.213 193.057 102.038C191.937 100.818 190.829 99.5386 189.742 98.206C189.212 97.5431 188.695 96.8801 188.171 96.2171L187.409 95.1961L186.699 94.2282L186.586 94.0691C185.854 93.0584 184.755 92.3746 183.525 92.1643C182.295 91.9539 181.032 92.2337 180.005 92.9437C178.979 93.6536 178.271 94.7373 178.034 95.9626C177.797 97.1879 178.049 98.4573 178.737 99.4989C179.062 99.9961 179.314 100.367 179.599 100.785C179.884 101.203 180.169 101.587 180.461 101.985C181.037 102.774 181.647 103.536 182.264 104.299C183.51 105.832 184.838 107.297 186.242 108.688C186.964 109.39 187.707 110.08 188.489 110.75C189.271 111.419 190.113 112.076 190.989 112.679C192.883 114.058 195 115.103 197.247 115.768C199.037 116.33 200.965 116.27 202.717 115.596C203.661 115.201 204.514 114.617 205.223 113.879C205.793 113.286 206.277 112.617 206.661 111.89C207.249 110.751 207.656 109.527 207.868 108.263C208.064 107.197 208.184 106.118 208.226 105.035C208.307 103.027 208.223 101.016 207.974 99.0215Z" fill="#CE7A63"/>
<path d="M172.373 146.271L161.467 147.067C161.467 147.067 123.24 155.938 124.711 176.079C125.699 189.604 131.447 211.482 135.392 225.292H144.342C143.805 211.482 144.773 190.273 141.027 176.45C146.822 175.383 166.724 168.269 173.752 165.922C175.444 162.863 176.215 159.38 175.97 155.893C175.725 152.406 174.476 149.064 172.373 146.271Z" fill="#263238"/>
<path opacity="0.4" d="M159.691 158.656C152.166 164.371 151.125 171.551 152.166 173.242C155.481 172.168 159.048 170.954 162.409 169.801C162.429 165.776 162.78 156.316 159.691 158.656Z" fill="black"/>
<path d="M186.786 145.225L172.373 146.272L186.786 145.231V145.225Z" fill="#263238"/>
<path d="M196.36 144.527L172.373 146.271C172.373 146.271 154.473 160.101 155.063 166.823C155.228 169.483 155.784 172.103 156.714 174.6C161.534 187.422 171.154 210.759 177.028 225.278H186.13C183.432 210.368 180.508 186.394 174.555 175.555C180.853 172.744 189.465 169.19 195.399 164.662C202.055 159.617 196.36 144.527 196.36 144.527Z" fill="#263238"/>
<path d="M139.178 238.008L144.774 238.107C144.774 238.107 144.634 232.909 144.343 225.278H135.393C137.554 232.869 139.178 238.008 139.178 238.008Z" fill="#CE7A63"/>
<path d="M137.779 233.831L145.072 233.884C145.203 233.884 145.33 233.931 145.429 234.016C145.529 234.101 145.595 234.219 145.615 234.348L146.524 240.315C146.544 240.464 146.531 240.615 146.488 240.759C146.444 240.902 146.37 241.035 146.271 241.147C146.171 241.26 146.049 241.35 145.912 241.411C145.775 241.472 145.626 241.503 145.476 241.502C142.824 241.435 139.025 241.25 135.711 241.223C131.825 241.223 131.925 241.382 127.37 241.349C124.619 241.349 124.055 238.532 125.216 238.293C130.519 237.186 131.368 237.093 136.102 234.315C136.605 234 137.186 233.833 137.779 233.831Z" fill="#263238"/>
<path d="M182.178 238.008L188.344 238.107C188.344 238.107 187.495 232.863 186.13 225.278H177.014C180.083 232.856 182.178 238.008 182.178 238.008Z" fill="#CE7A63"/>
<path d="M180.767 233.832L188.059 233.885C188.193 233.887 188.321 233.935 188.424 234.019C188.528 234.103 188.6 234.219 188.629 234.349L189.909 240.316C189.941 240.46 189.94 240.61 189.906 240.754C189.872 240.898 189.805 241.032 189.711 241.147C189.617 241.261 189.498 241.353 189.364 241.414C189.229 241.476 189.082 241.506 188.934 241.502C186.283 241.436 182.47 241.251 179.149 241.224C175.264 241.224 178.433 241.383 173.878 241.35C171.127 241.35 170.391 238.579 171.538 238.294C175.827 237.206 177.379 236.093 179.116 234.316C179.344 234.128 179.608 233.988 179.892 233.905C180.175 233.822 180.473 233.797 180.767 233.832Z" fill="#263238"/>
<path d="M234.03 110.339C228.727 110.339 224.424 100.693 224.424 88.7921C224.424 76.8917 228.727 67.252 234.03 67.252H237.63V110.346L234.03 110.339Z" fill="#9C9C82"/>
<path opacity="0.2" d="M234.03 110.339C228.727 110.339 224.424 100.693 224.424 88.7921C224.424 76.8917 228.727 67.252 234.03 67.252H237.63V110.346L234.03 110.339Z" fill="black"/>
<path d="M237.63 110.332C242.936 110.332 247.237 100.688 247.237 88.7921C247.237 76.8958 242.936 67.252 237.63 67.252C232.324 67.252 228.023 76.8958 228.023 88.7921C228.023 100.688 232.324 110.332 237.63 110.332Z" fill="#9C9C82"/>
<path d="M239.659 110.339C234.355 110.339 230.053 100.693 230.053 88.7921C230.053 76.8917 234.355 67.252 239.659 67.252H243.259V110.346L239.659 110.339Z" fill="#9C9C82"/>
<path opacity="0.2" d="M239.659 110.339C234.355 110.339 230.053 100.693 230.053 88.7921C230.053 76.8917 234.355 67.252 239.659 67.252H243.259V110.346L239.659 110.339Z" fill="black"/>
<path d="M253.673 79.6818C252.798 75.2332 251.293 71.5603 249.324 69.0741L249.841 68.6631C251.883 71.2487 253.428 75.021 254.33 79.5757L253.673 79.6818Z" fill="#9C9C82"/>
<path d="M255.185 88.7911H254.522C254.523 87.0329 254.432 85.2758 254.25 83.527L254.913 83.4541C255.099 85.227 255.189 87.0085 255.185 88.7911Z" fill="#9C9C82"/>
<path d="M243.259 110.332C248.564 110.332 252.865 100.688 252.865 88.7921C252.865 76.8958 248.564 67.252 243.259 67.252C237.953 67.252 233.652 76.8958 233.652 88.7921C233.652 100.688 237.953 110.332 243.259 110.332Z" fill="#9C9C82"/>
<path d="M244.38 100.56C241.482 100.56 239.129 95.2565 239.129 88.7925C239.129 82.3284 241.482 77.0312 244.38 77.0312H246.369V100.56H244.38Z" fill="#9C9C82"/>
<path opacity="0.2" d="M246.341 100.56H244.352C241.461 100.56 239.107 95.2565 239.107 88.7991C239.107 82.3417 241.461 77.0312 244.352 77.0312H246.341C243.443 77.0312 241.096 82.2953 241.096 88.7991C241.096 95.3029 243.443 100.56 246.341 100.56Z" fill="black"/>
<path opacity="0.1" d="M246.342 100.554C249.238 100.554 251.586 95.288 251.586 88.7925C251.586 82.2969 249.238 77.0312 246.342 77.0312C243.446 77.0312 241.098 82.2969 241.098 88.7925C241.098 95.288 243.446 100.554 246.342 100.554Z" fill="white"/>
<path d="M282.204 176.352L263.979 239.494H267.327L285.552 176.352H282.204Z" fill="#263238"/>
<path d="M226.631 239.494H229.979L248.204 176.352H244.85L226.631 239.494Z" fill="#263238"/>
<path d="M223.635 234.085C220.077 234.085 216.664 232.672 214.147 230.155C211.631 227.639 210.217 224.226 210.217 220.667C210.217 217.108 211.631 213.695 214.147 211.178C216.664 208.662 220.077 207.248 223.635 207.248H225.677V234.085H223.635Z" fill="#9C9C82"/>
<path opacity="0.2" d="M223.635 234.085C220.077 234.085 216.664 232.672 214.147 230.155C211.631 227.639 210.217 224.226 210.217 220.667C210.217 217.108 211.631 213.695 214.147 211.178C216.664 208.662 220.077 207.248 223.635 207.248H225.677V234.085H223.635Z" fill="black"/>
<path d="M225.676 234.085C233.087 234.085 239.095 228.078 239.095 220.667C239.095 213.256 233.087 207.248 225.676 207.248C218.266 207.248 212.258 213.256 212.258 220.667C212.258 228.078 218.266 234.085 225.676 234.085Z" fill="#9C9C82"/>
<path opacity="0.1" d="M223.635 207.248H225.677C229.236 207.248 232.649 208.662 235.166 211.178C237.682 213.695 239.096 217.108 239.096 220.667C239.096 224.226 237.682 227.639 235.166 230.155C232.649 232.672 229.236 234.085 225.677 234.085H223.635C220.077 234.085 216.664 232.672 214.147 230.155C211.631 227.639 210.217 224.226 210.217 220.667C210.217 217.108 211.631 213.695 214.147 211.178C216.664 208.662 220.077 207.248 223.635 207.248Z" fill="black"/>
<path d="M227.155 234.085C223.596 234.085 220.183 232.672 217.667 230.155C215.15 227.639 213.736 224.226 213.736 220.667C213.736 217.108 215.15 213.695 217.667 211.178C220.183 208.662 223.596 207.248 227.155 207.248H229.197V234.085H227.155Z" fill="#9C9C82"/>
<path opacity="0.2" d="M227.155 234.085C223.596 234.085 220.183 232.672 217.667 230.155C215.15 227.639 213.736 224.226 213.736 220.667C213.736 217.108 215.15 213.695 217.667 211.178C220.183 208.662 223.596 207.248 227.155 207.248H229.197V234.085H227.155Z" fill="black"/>
<path d="M229.198 234.085C236.609 234.085 242.617 228.078 242.617 220.667C242.617 213.256 236.609 207.248 229.198 207.248C221.787 207.248 215.779 213.256 215.779 220.667C215.779 228.078 221.787 234.085 229.198 234.085Z" fill="#9C9C82"/>
<path opacity="0.1" d="M227.155 207.248H229.197C232.756 207.248 236.169 208.662 238.685 211.178C241.202 213.695 242.616 217.108 242.616 220.667C242.616 224.226 241.202 227.639 238.685 230.155C236.169 232.672 232.756 234.085 229.197 234.085H227.155C223.596 234.085 220.183 232.672 217.667 230.155C215.15 227.639 213.736 224.226 213.736 220.667C213.736 217.108 215.15 213.695 217.667 211.178C220.183 208.662 223.596 207.248 227.155 207.248Z" fill="black"/>
<path d="M231.314 223.801H254.253C254.319 223.801 254.384 223.788 254.444 223.763C254.505 223.737 254.56 223.7 254.607 223.653C254.653 223.606 254.689 223.551 254.714 223.49C254.739 223.428 254.751 223.363 254.75 223.297V218.033C254.751 217.967 254.739 217.902 254.714 217.841C254.689 217.78 254.653 217.724 254.607 217.677C254.56 217.63 254.505 217.593 254.444 217.568C254.384 217.542 254.319 217.529 254.253 217.529H231.314C230.902 217.529 230.494 217.61 230.114 217.768C229.733 217.926 229.387 218.157 229.096 218.448C228.805 218.739 228.574 219.085 228.416 219.465C228.259 219.846 228.178 220.253 228.178 220.665C228.178 221.497 228.508 222.294 229.096 222.883C229.684 223.471 230.482 223.801 231.314 223.801Z" fill="#263238"/>
<path d="M258.177 234.085C254.618 234.085 251.205 232.672 248.688 230.155C246.172 227.639 244.758 224.226 244.758 220.667C244.758 217.108 246.172 213.695 248.688 211.178C251.205 208.662 254.618 207.248 258.177 207.248H260.218V234.085H258.177Z" fill="#9C9C82"/>
<path opacity="0.2" d="M258.177 234.085C254.618 234.085 251.205 232.672 248.688 230.155C246.172 227.639 244.758 224.226 244.758 220.667C244.758 217.108 246.172 213.695 248.688 211.178C251.205 208.662 254.618 207.248 258.177 207.248H260.218V234.085H258.177Z" fill="black"/>
<path d="M260.219 234.085C267.63 234.085 273.638 228.078 273.638 220.667C273.638 213.256 267.63 207.248 260.219 207.248C252.809 207.248 246.801 213.256 246.801 220.667C246.801 228.078 252.809 234.085 260.219 234.085Z" fill="#9C9C82"/>
<path d="M261.69 234.085C258.131 234.085 254.718 232.672 252.202 230.155C249.685 227.639 248.271 224.226 248.271 220.667C248.271 217.108 249.685 213.695 252.202 211.178C254.718 208.662 258.131 207.248 261.69 207.248H263.732V234.085H261.69Z" fill="#9C9C82"/>
<path opacity="0.2" d="M261.69 234.085C258.131 234.085 254.718 232.672 252.202 230.155C249.685 227.639 248.271 224.226 248.271 220.667C248.271 217.108 249.685 213.695 252.202 211.178C254.718 208.662 258.131 207.248 261.69 207.248H263.732V234.085H261.69Z" fill="black"/>
<path d="M263.733 234.085C271.144 234.085 277.152 228.078 277.152 220.667C277.152 213.256 271.144 207.248 263.733 207.248C256.322 207.248 250.314 213.256 250.314 220.667C250.314 228.078 256.322 234.085 263.733 234.085Z" fill="#9C9C82"/>
<path opacity="0.2" d="M262.798 227.652C260.945 227.652 259.168 226.916 257.857 225.606C256.547 224.295 255.811 222.518 255.811 220.665C255.811 218.811 256.547 217.034 257.857 215.723C259.168 214.413 260.945 213.677 262.798 213.677H264.675V227.652H262.798Z" fill="black"/>
<path d="M264.673 227.652C268.533 227.652 271.661 224.524 271.661 220.665C271.661 216.805 268.533 213.677 264.673 213.677C260.814 213.677 257.686 216.805 257.686 220.665C257.686 224.524 260.814 227.652 264.673 227.652Z" fill="#9C9C82"/>
<path d="M236.112 203.593C234.527 203.63 232.95 203.35 231.475 202.77C230 202.189 228.655 201.319 227.521 200.211C226.387 199.103 225.485 197.78 224.87 196.319C224.255 194.858 223.938 193.288 223.938 191.702C223.938 190.117 224.255 188.547 224.87 187.086C225.485 185.625 226.387 184.301 227.521 183.194C228.655 182.086 230 181.216 231.475 180.635C232.95 180.054 234.527 179.774 236.112 179.812H237.922V203.593H236.112Z" fill="#9C9C82"/>
<path opacity="0.2" d="M236.112 203.593C234.527 203.63 232.95 203.35 231.475 202.77C230 202.189 228.655 201.319 227.521 200.211C226.387 199.103 225.485 197.78 224.87 196.319C224.255 194.858 223.938 193.288 223.938 191.702C223.938 190.117 224.255 188.547 224.87 187.086C225.485 185.625 226.387 184.301 227.521 183.194C228.655 182.086 230 181.216 231.475 180.635C232.95 180.054 234.527 179.774 236.112 179.812H237.922V203.593H236.112Z" fill="black"/>
<path d="M249.794 191.862C249.892 185.297 244.651 179.896 238.086 179.797C231.522 179.699 226.121 184.94 226.022 191.505C225.924 198.069 231.165 203.471 237.73 203.569C244.294 203.668 249.695 198.426 249.794 191.862Z" fill="#9C9C82"/>
<path opacity="0.1" d="M236.112 179.812H237.922C241.027 179.885 243.98 181.17 246.15 183.392C248.32 185.614 249.535 188.597 249.535 191.702C249.535 194.808 248.32 197.791 246.15 200.013C243.98 202.235 241.027 203.52 237.922 203.593H236.112C234.527 203.63 232.95 203.35 231.475 202.77C230 202.189 228.655 201.319 227.521 200.211C226.387 199.103 225.485 197.78 224.87 196.319C224.255 194.858 223.938 193.288 223.938 191.702C223.938 190.117 224.255 188.547 224.87 187.086C225.485 185.625 226.387 184.301 227.521 183.194C228.655 182.086 230 181.216 231.475 180.635C232.95 180.054 234.527 179.774 236.112 179.812Z" fill="black"/>
<path d="M239.228 203.594C236.123 203.52 233.17 202.235 231 200.013C228.83 197.791 227.615 194.809 227.615 191.703C227.615 188.597 228.83 185.615 231 183.393C233.17 181.171 236.123 179.886 239.228 179.812H241.038V203.594H239.228Z" fill="#9C9C82"/>
<path opacity="0.2" d="M239.228 203.594C236.123 203.52 233.17 202.235 231 200.013C228.83 197.791 227.615 194.809 227.615 191.703C227.615 188.597 228.83 185.615 231 183.393C233.17 181.171 236.123 179.886 239.228 179.812H241.038V203.594H239.228Z" fill="black"/>
<path d="M252.909 191.868C253.008 185.304 247.766 179.903 241.202 179.804C234.637 179.706 229.236 184.947 229.137 191.512C229.039 198.076 234.28 203.477 240.845 203.576C247.409 203.674 252.811 198.433 252.909 191.868Z" fill="#9C9C82"/>
<path opacity="0.1" d="M239.228 179.812H241.038C242.623 179.774 244.2 180.054 245.675 180.635C247.151 181.216 248.495 182.086 249.629 183.194C250.764 184.301 251.665 185.625 252.28 187.086C252.896 188.547 253.213 190.117 253.213 191.702C253.213 193.288 252.896 194.858 252.28 196.319C251.665 197.78 250.764 199.103 249.629 200.211C248.495 201.319 247.151 202.189 245.675 202.77C244.2 203.35 242.623 203.63 241.038 203.593H239.228C236.123 203.52 233.17 202.235 231 200.013C228.83 197.791 227.615 194.808 227.615 191.702C227.615 188.597 228.83 185.614 231 183.392C233.17 181.17 236.123 179.885 239.228 179.812Z" fill="black"/>
<path d="M263.242 194.457H242.895C242.164 194.457 241.462 194.166 240.945 193.649C240.428 193.132 240.137 192.431 240.137 191.699C240.137 190.968 240.428 190.266 240.945 189.749C241.462 189.232 242.164 188.941 242.895 188.941H263.242C263.358 188.941 263.469 188.987 263.552 189.069C263.634 189.151 263.68 189.263 263.68 189.379V194.019C263.68 194.136 263.634 194.247 263.552 194.329C263.469 194.411 263.358 194.457 263.242 194.457Z" fill="#263238"/>
<path d="M266.716 203.593C265.131 203.63 263.554 203.35 262.079 202.77C260.603 202.189 259.259 201.319 258.125 200.211C256.99 199.103 256.089 197.78 255.473 196.319C254.858 194.858 254.541 193.288 254.541 191.702C254.541 190.117 254.858 188.547 255.473 187.086C256.089 185.625 256.99 184.301 258.125 183.194C259.259 182.086 260.603 181.216 262.079 180.635C263.554 180.054 265.131 179.774 266.716 179.812H268.506V203.593H266.716Z" fill="#9C9C82"/>
<path opacity="0.2" d="M266.716 203.593C265.131 203.63 263.554 203.35 262.079 202.77C260.603 202.189 259.259 201.319 258.125 200.211C256.99 199.103 256.089 197.78 255.473 196.319C254.858 194.858 254.541 193.288 254.541 191.702C254.541 190.117 254.858 188.547 255.473 187.086C256.089 185.625 256.99 184.301 258.125 183.194C259.259 182.086 260.603 181.216 262.079 180.635C263.554 180.054 265.131 179.774 266.716 179.812H268.506V203.593H266.716Z" fill="black"/>
<path d="M268.526 203.595C275.091 203.595 280.413 198.273 280.413 191.708C280.413 185.142 275.091 179.82 268.526 179.82C261.961 179.82 256.639 185.142 256.639 191.708C256.639 198.273 261.961 203.595 268.526 203.595Z" fill="#9C9C82"/>
<path d="M269.832 203.594C266.727 203.52 263.774 202.235 261.604 200.013C259.434 197.791 258.219 194.809 258.219 191.703C258.219 188.597 259.434 185.615 261.604 183.393C263.774 181.171 266.727 179.886 269.832 179.812H271.642V203.594H269.832Z" fill="#9C9C82"/>
<path opacity="0.2" d="M269.832 203.594C266.727 203.52 263.774 202.235 261.604 200.013C259.434 197.791 258.219 194.809 258.219 191.703C258.219 188.597 259.434 185.615 261.604 183.393C263.774 181.171 266.727 179.886 269.832 179.812H271.642V203.594H269.832Z" fill="black"/>
<path d="M271.635 203.595C278.2 203.595 283.522 198.273 283.522 191.708C283.522 185.142 278.2 179.82 271.635 179.82C265.07 179.82 259.748 185.142 259.748 191.708C259.748 198.273 265.07 203.595 271.635 203.595Z" fill="#9C9C82"/>
<path opacity="0.2" d="M270.807 197.892C269.977 197.919 269.15 197.779 268.376 197.48C267.601 197.181 266.895 196.73 266.298 196.153C265.701 195.575 265.227 194.884 264.903 194.119C264.579 193.355 264.412 192.533 264.412 191.703C264.412 190.873 264.579 190.051 264.903 189.287C265.227 188.522 265.701 187.831 266.298 187.253C266.895 186.676 267.601 186.224 268.376 185.926C269.15 185.627 269.977 185.487 270.807 185.514H272.484V197.892H270.807Z" fill="black"/>
<path d="M273.498 196.89C276.918 196.822 279.635 193.994 279.567 190.574C279.498 187.155 276.671 184.438 273.251 184.506C269.831 184.574 267.114 187.402 267.182 190.822C267.251 194.242 270.079 196.959 273.498 196.89Z" fill="#9C9C82"/>
<path d="M97.0402 210.294C97.0402 205.952 93.0624 202.425 88.2027 202.425C83.3431 202.425 79.3652 205.952 79.3652 210.294C79.3751 212.046 80.0152 213.736 81.1685 215.055C81.4006 215.332 81.568 215.658 81.6585 216.009C81.749 216.359 81.7604 216.725 81.6919 217.081C81.6233 217.436 81.4766 217.772 81.2622 218.064C81.0478 218.355 80.7713 218.596 80.4525 218.767C80.1229 218.947 79.8479 219.213 79.6566 219.536C79.4652 219.859 79.3646 220.228 79.3652 220.604V238.146C79.3652 238.617 79.5524 239.069 79.8856 239.402C80.2189 239.736 80.6708 239.923 81.142 239.923H95.2635C95.7347 239.923 96.1866 239.736 96.5198 239.402C96.8531 239.069 97.0402 238.617 97.0402 238.146V220.604C97.041 220.227 96.9396 219.858 96.747 219.534C96.5544 219.211 96.2777 218.946 95.9463 218.767C95.6276 218.596 95.351 218.355 95.1366 218.064C94.9223 217.772 94.7755 217.436 94.707 217.081C94.6384 216.725 94.6498 216.359 94.7403 216.009C94.8309 215.658 94.9982 215.332 95.2303 215.055C96.386 213.737 97.0286 212.047 97.0402 210.294Z" fill="#9C9C82"/>
<path opacity="0.2" d="M97.0402 210.294C97.0402 205.952 93.0624 202.425 88.2027 202.425C83.3431 202.425 79.3652 205.952 79.3652 210.294C79.3751 212.046 80.0152 213.736 81.1685 215.055C81.4006 215.332 81.568 215.658 81.6585 216.009C81.749 216.359 81.7604 216.725 81.6919 217.081C81.6233 217.436 81.4766 217.772 81.2622 218.064C81.0478 218.355 80.7713 218.596 80.4525 218.767C80.1229 218.947 79.8479 219.213 79.6566 219.536C79.4652 219.859 79.3646 220.228 79.3652 220.604V238.146C79.3652 238.617 79.5524 239.069 79.8856 239.402C80.2189 239.736 80.6708 239.923 81.142 239.923H95.2635C95.7347 239.923 96.1866 239.736 96.5198 239.402C96.8531 239.069 97.0402 238.617 97.0402 238.146V220.604C97.041 220.227 96.9396 219.858 96.747 219.534C96.5544 219.211 96.2777 218.946 95.9463 218.767C95.6276 218.596 95.351 218.355 95.1366 218.064C94.9223 217.772 94.7755 217.436 94.707 217.081C94.6384 216.725 94.6498 216.359 94.7403 216.009C94.8309 215.658 94.9982 215.332 95.2303 215.055C96.386 213.737 97.0286 212.047 97.0402 210.294Z" fill="white"/>
<path d="M91.894 203.943H84.5018C84.1003 203.941 83.7159 203.78 83.4326 203.496C83.1493 203.211 82.9902 202.826 82.9902 202.425C82.992 202.024 83.1518 201.641 83.4349 201.358C83.718 201.075 84.1015 200.915 84.5018 200.913H91.894C92.2955 200.913 92.6807 201.072 92.9652 201.355C93.2498 201.639 93.4105 202.023 93.4123 202.425C93.4105 202.827 93.25 203.212 92.9656 203.496C92.6813 203.781 92.2962 203.941 91.894 203.943Z" fill="#263238"/>
<path d="M89.648 197.963H86.7574C86.2302 197.963 85.8027 198.39 85.8027 198.918V201.47C85.8027 201.997 86.2302 202.425 86.7574 202.425H89.648C90.1753 202.425 90.6027 201.997 90.6027 201.47V198.918C90.6027 198.39 90.1753 197.963 89.648 197.963Z" fill="#263238"/>
</svg>
