<svg width="66" height="69" viewBox="0 0 66 69" fill="none" xmlns="http://www.w3.org/2000/svg">
<path d="M40.6227 68.4765C46.4722 68.4765 51.2141 63.2987 51.2141 56.9116C51.2141 50.5245 46.4722 45.3467 40.6227 45.3467C34.7732 45.3467 30.0312 50.5245 30.0312 56.9116C30.0312 63.2987 34.7732 68.4765 40.6227 68.4765Z" fill="#407BFF"/>
<path opacity="0.3" d="M40.6227 68.4765C46.4722 68.4765 51.2141 63.2987 51.2141 56.9116C51.2141 50.5245 46.4722 45.3467 40.6227 45.3467C34.7732 45.3467 30.0312 50.5245 30.0312 56.9116C30.0312 63.2987 34.7732 68.4765 40.6227 68.4765Z" fill="white"/>
<path d="M7.61523 6.83869L8.32986 5.15918L12.7254 8.84822L11.4738 11.6327L7.61523 6.83869Z" fill="#7F3E3B"/>
<path d="M45.0556 37.4087C45.0556 37.4087 33.5919 26.6953 28.7233 21.6333C23.3817 17.4346 12.7244 8.84863 12.7244 8.84863L11.4629 11.6478C11.4629 11.6478 18.3515 21.5155 26.2062 26.6747C33.2964 36.7104 39.7798 45.6175 42.8618 45.3523C45.0556 43.0659 45.0556 37.4087 45.0556 37.4087Z" fill="#263238"/>
<path opacity="0.2" d="M35.2754 38.9473C36.6325 40.6678 38.0751 42.2358 39.591 43.638L43.4116 44.0476L43.6571 43.4583C41.7508 41.9851 38.2197 40.1848 35.2754 38.9473Z" fill="black"/>
<path d="M8.39386 5.0446L8.41981 7.89677C8.4221 7.95695 8.40869 8.01614 8.38233 8.06217C8.35597 8.10821 8.31867 8.13758 8.27809 8.14427L6.6952 8.46249C6.64604 8.46484 6.59706 8.45268 6.55113 8.42672C6.5052 8.40075 6.46325 8.3615 6.42773 8.31127C6.39222 8.26105 6.36386 8.20086 6.34432 8.13423C6.32478 8.0676 6.31446 7.99588 6.31395 7.92328C6.31395 6.6681 6.35986 6.06408 6.34589 4.47889C6.34589 3.50361 6.26405 2.91432 6.25207 1.56485C6.2401 0.215371 7.11637 0.197691 7.20021 0.76341C7.58146 3.30031 7.78107 3.62441 8.25813 4.49951C8.3426 4.65436 8.39029 4.84587 8.39386 5.0446Z" fill="#263238"/>
<path d="M53.1903 34.5391C52.7691 34.1619 52.302 33.7494 51.8449 33.3811C51.3878 33.0128 50.9227 32.6298 50.4476 32.2791C49.9726 31.9285 49.5015 31.6014 49.0264 31.2744C48.5513 30.9473 48.0643 30.6527 47.5772 30.3905L47.2938 30.2284C47.2547 30.2078 47.2135 30.1978 47.172 30.1989C47.0171 30.2152 46.8665 30.2816 46.7309 30.3934C46.3286 30.7286 45.962 31.1496 45.643 31.6427C45.279 32.1797 44.9365 32.7473 44.617 33.3428C44.2856 33.9321 43.9683 34.5803 43.6708 35.205L43.6569 35.2315C43.5883 35.377 43.4854 35.4795 43.3684 35.5191C43.2513 35.5587 43.1285 35.5326 43.0238 35.4457C42.9191 35.3589 42.8401 35.2176 42.8021 35.0495C42.7641 34.8813 42.77 34.6983 42.8185 34.5361C43.2605 32.9818 43.8376 31.5189 44.5352 30.1842C44.9169 29.4477 45.3774 28.8078 45.8985 28.2896C46.2242 27.972 46.5926 27.7619 46.9784 27.6738C47.2075 27.6279 47.4401 27.6379 47.6671 27.7033C47.7256 27.7194 47.7836 27.74 47.8407 27.7652L47.9565 27.8152L48.1561 27.9095C49.2304 28.4042 50.2791 29.0128 51.294 29.7304C51.799 30.0899 52.302 30.4523 52.7911 30.853C53.2801 31.2538 53.7572 31.6574 54.2522 32.1436C54.4679 32.3496 54.6198 32.6729 54.6747 33.0434C54.7296 33.4138 54.6832 33.8013 54.5456 34.1214C54.4079 34.4416 54.1901 34.6685 53.9397 34.7528C53.6892 34.8371 53.4263 34.7719 53.2082 34.5715L53.1903 34.5391Z" fill="#7F3E3B"/>
<path d="M52.794 31.9311C51.2291 32.4939 48.6361 34.3237 43.8594 36.3891L45.4563 47.6712C48.3447 46.5957 50.1871 45.918 55.9758 46.0359C56.115 46.0386 56.2531 45.9991 56.3815 45.9199C56.5099 45.8407 56.626 45.7235 56.7225 45.5755C56.8191 45.4275 56.894 45.2518 56.9427 45.0594C56.9915 44.8669 57.0129 44.6618 57.0058 44.4566C56.9722 43.3604 56.8989 42.2677 56.7863 41.183C56.63 39.4674 56.3898 37.7707 56.0677 36.1063C55.9339 35.461 55.7762 34.7922 55.6225 34.1763C55.4202 33.3546 55.02 32.6716 54.4983 32.2575C53.9767 31.8434 53.37 31.7273 52.794 31.9311Z" fill="#7F3E3B"/>
<path opacity="0.2" d="M55.4638 44.8984C54.9527 44.9338 53.8269 45.5025 53.248 46.0446C53.795 46.027 54.3838 46.0211 55.0286 46.0211L55.4638 44.8984Z" fill="black"/>
<path d="M60.8374 26.9899C59.9791 26.106 58.6018 27.1609 58.1167 29.8156C57.6975 32.1139 58.7435 36.6338 58.7435 36.6338C59.6981 36.9697 60.6717 37.1748 61.6518 37.2466C63.3166 37.3792 66.4625 36.4452 65.6021 32.3201C66.1311 28.3836 62.7237 24.0287 60.8374 26.9899Z" fill="#263238"/>
<path opacity="0.2" d="M52.4023 38.1218C53.111 37.8006 54.2767 38.7641 54.6181 39.654C54.2168 39.0823 53.0251 38.222 52.4023 38.1218Z" fill="black"/>
<path d="M60.0532 37.1789C58.9314 37.5766 56.9572 38.5549 56.5999 40.0811C56.5999 40.0811 55.4281 40.3758 54.5538 37.5501C53.5917 34.4505 55.1367 35.3639 55.1367 35.3639C55.9352 36.8695 56.7715 36.2478 57.4802 35.4169L60.0532 37.1789Z" fill="#7F3E3B"/>
<path opacity="0.2" d="M59.0034 36.462L57.4803 35.416C57.3177 35.6152 57.1433 35.7927 56.9593 35.9464C56.8276 36.6741 57.8077 37.3076 58.2888 37.066C58.5454 36.9162 58.786 36.7128 59.0034 36.462Z" fill="black"/>
<path d="M62.6579 33.3137C61.6318 35.6709 61.2306 36.6815 59.9232 37.2384C57.959 38.0752 56.2343 35.6974 56.7653 32.9484C57.2444 30.4733 58.8433 27.0555 60.8234 27.4297C61.2598 27.5087 61.6753 27.7511 62.0304 28.1339C62.3854 28.5167 62.6683 29.0271 62.8521 29.6167C63.0359 30.2063 63.1146 30.8554 63.0806 31.5025C63.0466 32.1495 62.9011 32.773 62.6579 33.3137Z" fill="#7F3E3B"/>
<path d="M59.6218 26.5122C58.3363 28.6041 62.0411 30.3867 61.1049 35.154C62.5022 34.5883 65.0773 31.3443 62.9893 27.9677C62.121 26.5652 60.4861 25.1038 59.6218 26.5122Z" fill="#263238"/>
<path d="M4.90024 64.581C4.60083 64.357 3.93013 64.4101 3.24946 65.0789C2.56878 65.7478 0.582645 65.6211 0.347103 66.9411C0.0836159 68.4143 1.83221 68.815 2.58675 68.4143C3.01591 68.1904 3.63471 67.4626 4.58286 67.3624C5.11982 67.3241 5.76656 65.2321 4.90024 64.581Z" fill="#263238"/>
<path d="M3.97884 66.0872C3.93602 65.8294 3.95667 65.5574 4.03711 65.32C4.11755 65.0825 4.25254 64.8949 4.41799 64.7908L7.89529 62.4336L8.54005 65.5539L4.90506 66.9211C4.80711 66.9579 4.70517 66.9654 4.60522 66.9432C4.50528 66.921 4.40935 66.8696 4.32306 66.7919C4.23677 66.7142 4.16187 66.6119 4.10276 66.4909C4.04365 66.3698 4.00152 66.2326 3.97884 66.0872Z" fill="#7F3E3B"/>
<path d="M44.2959 39.4824C44.2959 39.4824 30.4528 47.6294 24.9834 50.9501C19.2965 54.4004 7.89258 62.4148 7.89258 62.4148L8.54132 65.5557C8.54132 65.5557 21.3984 60.1549 26.3288 56.6309C35.6946 53.3544 43.4955 51.8635 45.4557 47.6795L44.2959 39.4824Z" fill="#263238"/>
<path d="M59.789 31.7785C59.7132 31.9762 59.5894 32.0735 59.4936 32.0057C59.3978 31.9378 59.3958 31.7106 59.4717 31.5129C59.5475 31.3152 59.6713 31.2179 59.7671 31.2887C59.8629 31.3595 59.8648 31.5808 59.789 31.7785Z" fill="#263238"/>
<path d="M58.2753 30.5208C58.1995 30.7185 58.0758 30.8158 57.98 30.745C57.8842 30.6742 57.8822 30.45 57.958 30.2552C58.0338 30.0605 58.1576 29.9602 58.2534 30.028C58.3492 30.0959 58.3492 30.3231 58.2753 30.5208Z" fill="#263238"/>
<path d="M58.289 30.0723L58.0195 29.668C58.0195 29.668 58.0435 30.1756 58.289 30.0723Z" fill="#263238"/>
<path d="M58.6046 31.2617C58.3137 31.6141 57.9913 31.9056 57.6465 32.128C57.6875 32.2564 57.7469 32.3701 57.8207 32.4612C57.8945 32.5522 57.9808 32.6185 58.0736 32.6554L58.6046 31.2617Z" fill="#630F0F"/>
<path d="M58.5173 34.0288C58.448 33.9904 58.3812 33.943 58.3177 33.8872C58.3073 33.8786 58.2997 33.8643 58.2966 33.8474C58.2934 33.8306 58.2949 33.8125 58.3007 33.7973C58.3065 33.782 58.3162 33.7708 58.3276 33.7661C58.339 33.7614 58.3512 33.7636 58.3616 33.7722C58.526 33.9164 58.7111 34.0012 58.9019 34.0197C59.0926 34.0381 59.2837 33.9897 59.4594 33.8784C59.47 33.8699 59.4824 33.868 59.494 33.8729C59.5056 33.8779 59.5154 33.8894 59.5213 33.9049C59.524 33.9129 59.5257 33.9215 59.5262 33.9304C59.5267 33.9393 59.526 33.9483 59.5241 33.9568C59.5223 33.9653 59.5193 33.9731 59.5154 33.9799C59.5115 33.9867 59.5067 33.9923 59.5013 33.9964C59.347 34.0985 59.1805 34.1539 59.0115 34.1595C58.8425 34.1651 58.6745 34.1206 58.5173 34.0288Z" fill="#263238"/>
<path d="M62.372 35.649C62.0943 35.9938 61.7357 36.1632 61.3739 36.1204C60.8908 36.0556 60.823 35.3573 61.1004 34.8181C61.3519 34.3319 61.8989 33.7809 62.3201 34.1168C62.4096 34.1931 62.4847 34.3013 62.5385 34.4315C62.5924 34.5617 62.6233 34.7097 62.6285 34.862C62.6337 35.0144 62.6129 35.1662 62.5681 35.3037C62.5233 35.4411 62.4559 35.5598 62.372 35.649Z" fill="#7F3E3B"/>
<path d="M60.5694 31.8279C60.5518 31.8171 60.5368 31.7986 60.5265 31.7749C60.5161 31.7512 60.5109 31.7234 60.5116 31.6953C60.5315 31.0795 60.1124 30.5904 60.1124 30.5845C60.0953 30.5622 60.0846 30.5311 60.0824 30.4976C60.0803 30.464 60.0869 30.4306 60.1008 30.4039C60.1148 30.3773 60.1351 30.3595 60.1577 30.3542C60.1802 30.3489 60.2032 30.3564 60.2221 30.3753C60.2421 30.3988 60.7231 30.9646 60.6992 31.7071C60.6981 31.7425 60.6877 31.7759 60.6702 31.8001C60.6527 31.8244 60.6294 31.8375 60.6054 31.8367L60.5694 31.8279Z" fill="#263238"/>
<path d="M58.2147 29.1097C58.1957 29.0999 58.1795 29.0811 58.1686 29.0562C58.1577 29.0312 58.1528 29.0016 58.1547 28.9721C58.1565 28.9425 58.165 28.9147 58.1788 28.8931C58.1925 28.8715 58.2108 28.8574 58.2306 28.8529C58.3721 28.8095 58.5185 28.8172 58.6575 28.8752C58.7965 28.9333 58.924 29.04 59.0291 29.1864C59.0372 29.1992 59.0436 29.2142 59.0478 29.2306C59.052 29.2471 59.0539 29.2645 59.0536 29.2821C59.0532 29.2996 59.0505 29.3169 59.0456 29.3329C59.0407 29.3489 59.0338 29.3633 59.0251 29.3753C59.0165 29.3873 59.0063 29.3967 58.9952 29.4029C58.9841 29.4091 58.9723 29.412 58.9604 29.4114C58.9485 29.4109 58.9369 29.4069 58.9261 29.3997C58.9152 29.3925 58.9055 29.3822 58.8974 29.3694C58.8136 29.2566 58.7129 29.1748 58.6036 29.1307C58.4943 29.0866 58.3795 29.0814 58.2686 29.1156C58.2507 29.1232 58.2316 29.1211 58.2147 29.1097Z" fill="#263238"/>
<path d="M57.0321 44.8838C56.7447 46.6517 56.4333 48.4402 56.1458 50.214L55.7227 52.8865L55.5231 54.2035C55.4592 54.6367 55.4013 55.0875 55.3554 55.4705C55.3416 55.6317 55.3362 55.7943 55.3394 55.9567C55.3394 56.1541 55.3394 56.3604 55.3554 56.5725C55.3713 56.9998 55.4013 57.4565 55.4352 57.8837C55.5051 58.7676 55.5869 59.6722 55.6787 60.5709L56.2417 66.0012C56.2583 66.1772 56.2301 66.356 56.1625 66.503C56.0948 66.6499 55.9926 66.7545 55.8756 66.7964C55.7587 66.8382 55.6353 66.8144 55.5296 66.7295C55.4238 66.6447 55.3433 66.5048 55.3035 66.3371C54.9043 64.5693 54.5489 62.8014 54.2395 60.9893C54.0898 60.0847 53.9421 59.1772 53.8224 58.2432C53.7625 57.7776 53.7066 57.3062 53.6607 56.8171C53.6387 56.5725 53.6187 56.3221 53.6068 56.0569C53.592 55.7626 53.592 55.4672 53.6068 55.1729C53.6427 54.6573 53.6886 54.1888 53.7385 53.7174C53.7884 53.2459 53.8463 52.7863 53.9022 52.3266C54.018 51.4093 54.1431 50.4988 54.2775 49.5953C54.543 47.7802 54.8284 45.9858 55.1498 44.1944C55.2128 43.8243 55.3728 43.5064 55.5946 43.3105C55.8164 43.1147 56.0818 43.0568 56.3325 43.1498C56.5832 43.2428 56.7985 43.479 56.9312 43.8064C57.0639 44.1338 57.1031 44.5256 57.0401 44.8956L57.0321 44.8838Z" fill="#7F3E3B"/>
<path d="M59.8027 31.33L59.5332 30.9258C59.5332 30.9258 59.5572 31.4333 59.8027 31.33Z" fill="#263238"/>
<path d="M55.9401 65.4707H57.6907L56.7066 67.0677C56.7066 67.0677 55.435 67.2415 55.2773 66.0953L55.9401 65.4707Z" fill="#7F3E3B"/>
<path d="M59.3159 67.2003L58.3658 67.6305L56.709 67.0677L57.6931 65.4707L59.3159 67.2003Z" fill="#7F3E3B"/>
<path d="M43.6896 34.8565L44.2645 36.3651L42.42 36.1942C42.42 36.1942 42.2803 34.774 42.961 34.332L43.6896 34.8565Z" fill="#7F3E3B"/>
<path d="M43.6139 38.1507L42.2246 37.5497L42.4202 36.1943L44.2646 36.3652L43.6139 38.1507Z" fill="#7F3E3B"/>
<path d="M56.9721 42.6438C57.1498 43.4747 57.0081 43.8784 57.0081 43.8784C54.3951 43.4894 51.862 43.9992 51.5227 46.2709C50.4328 46.4241 49.0096 46.4182 47.7081 46.9604C47.6692 46.9761 47.6286 46.9792 47.5888 46.9695C47.5491 46.9598 47.5112 46.9375 47.4779 46.9042C47.4445 46.8709 47.4164 46.8274 47.3955 46.7765C47.3746 46.7257 47.3614 46.6688 47.3568 46.6098C47.1691 44.2526 46.5384 38.4952 45.7439 35.534C45.7296 35.48 45.7231 35.4222 45.7249 35.3643C45.7266 35.3064 45.7366 35.2497 45.7541 35.1978C45.7715 35.1459 45.7962 35.1 45.8264 35.063C45.8566 35.026 45.8918 34.9987 45.9295 34.983C53.427 31.8568 55.3213 33.0383 55.3213 33.0383C55.4813 33.3538 55.6017 33.709 55.6767 34.0872C54.6387 34.0283 52.1195 33.7484 52.8282 38.5305C53.5368 43.3126 56.9721 42.6438 56.9721 42.6438Z" fill="#407BFF"/>
<path d="M54.4319 32.8505C53.9808 32.712 49.9167 30.452 49.1981 33.8759C48.6092 36.681 54.4319 32.8505 54.4319 32.8505Z" fill="#407BFF"/>
</svg>
