<svg width="155" height="141" viewBox="0 0 155 141" fill="none" xmlns="http://www.w3.org/2000/svg">
<path d="M150.382 128.123C147.692 128.631 144.869 128.496 142.174 129.013C140.328 129.415 138.523 129.971 136.78 130.675C135.199 131.254 133.621 131.844 132.046 132.446C131.732 132.563 127.942 133.804 127.942 133.973C121.558 136.239 115.074 139.498 108.043 139.108C107.211 139.061 106.398 138.857 105.651 138.508C104.904 138.159 104.237 137.671 103.689 137.074C103.142 136.477 102.726 135.782 102.464 135.03C102.202 134.277 102.1 133.483 102.165 132.693C102.265 131.421 102.799 130.163 102.621 128.895C102.096 125.502 98.8223 125.857 96.1912 126.435C94.6545 126.773 93.1405 127.186 91.6312 127.646C87.6822 128.852 83.5235 129.98 80.3817 132.702C78.3616 134.438 76.4145 135.145 73.683 135.436C71.7815 135.64 69.9028 135.753 68.0788 136.356C66.2548 136.959 64.7135 138.092 63.0628 138.96C60.7818 140.123 58.2078 140.664 55.6243 140.524C53.0408 140.384 50.548 139.568 48.4206 138.166C47.7138 137.688 46.9888 136.99 47.1256 136.174C47.463 134.212 50.9149 133.813 52.3787 132.988C55.0189 131.495 57.6729 130.015 60.345 128.57C65.6954 125.677 71.1066 122.899 76.5786 120.237C82.4245 117.386 88.3571 114.656 94.5359 112.525C97.5774 111.475 101.048 110.589 103.957 111.943C106.305 113.033 107.231 115.103 108.754 116.943C110.172 118.653 112.01 120.415 114.094 121.383C115.754 122.147 117.637 122.329 119.479 122.407C125.594 122.668 131.714 121.973 137.719 120.906C140.264 120.472 142.835 119.938 145.421 120.09C148.193 120.25 152.717 120.927 154.254 123.475C154.515 123.872 154.69 124.314 154.769 124.777C154.79 125.155 154.718 125.532 154.56 125.879C154.402 126.226 154.161 126.534 153.857 126.778C153.247 127.263 152.53 127.613 151.759 127.802C151.307 127.932 150.847 128.039 150.382 128.123Z" fill="#E0E0E0"/>
<path d="M12.2282 106.627C6.79093 106.627 2.38315 104.204 2.38315 101.215C2.38315 98.2258 6.79093 95.8027 12.2282 95.8027C17.6655 95.8027 22.0732 98.2258 22.0732 101.215C22.0732 104.204 17.6655 106.627 12.2282 106.627Z" fill="#E0E0E0"/>
<path d="M19.852 135.63L21.4617 134.762C22.5515 134.164 22.5515 133.191 21.4617 132.592L17.8957 130.618L30.8461 123.483L34.4257 125.453C35.0376 125.749 35.7141 125.903 36.4002 125.903C37.0863 125.903 37.7628 125.749 38.3747 125.453L39.9844 124.585C41.0742 123.986 41.0742 123.014 39.9844 122.415L29.1133 116.426C28.5015 116.131 27.825 115.977 27.1388 115.977C26.4527 115.977 25.7763 116.131 25.1644 116.426L23.5593 117.294C22.4649 117.893 22.4649 118.865 23.5593 119.464L27.5128 121.634L14.5487 128.76L10.5906 126.59C9.97872 126.295 9.30225 126.141 8.61612 126.141C7.92999 126.141 7.25353 126.295 6.64164 126.59L5.03196 127.458C3.94212 128.057 3.94212 129.029 5.03196 129.628L15.903 135.6C16.5124 135.9 17.1875 136.059 17.8737 136.065C18.5598 136.07 19.2376 135.921 19.852 135.63Z" fill="#E0E0E0"/>
<path d="M26.4598 110.797C27.317 108.137 30.8054 105.937 34.0704 106.805C34.5846 106.942 35.0781 107.142 35.5387 107.399C38.7079 109.135 41.2706 113.367 41.2706 116.847C41.2811 117.435 41.1949 118.021 41.0153 118.583C40.1626 121.244 36.6696 123.431 33.4046 122.559C32.8904 122.421 32.3969 122.222 31.9363 121.964C28.7717 120.228 26.2044 115.992 26.2044 112.512C26.1971 111.931 26.2833 111.353 26.4598 110.797Z" fill="#455A64"/>
<path d="M31.9409 121.96C28.7763 120.224 26.209 115.988 26.209 112.507C26.209 109.027 28.7763 107.616 31.9409 109.352C35.1056 111.088 37.6729 115.32 37.6729 118.8C37.6729 122.281 35.1056 123.7 31.9409 121.96Z" fill="#37474F"/>
<path d="M31.9411 113.215C30.7236 112.546 29.7386 113.089 29.7386 114.43C29.7799 115.158 30.0008 115.866 30.3835 116.497C30.7662 117.128 31.2998 117.664 31.9411 118.063C33.1586 118.731 34.1436 118.188 34.1436 116.852C34.1023 116.123 33.8814 115.415 33.4987 114.783C33.1161 114.151 32.5825 113.614 31.9411 113.215Z" fill="#455A64"/>
<path d="M31.1889 115.224C31.2026 115.473 31.2779 115.716 31.4086 115.932C31.5394 116.149 31.7218 116.333 31.9413 116.469C32.0135 116.519 32.0975 116.551 32.1858 116.562C32.2741 116.574 32.3639 116.564 32.4474 116.535L32.5021 116.504C32.5682 116.451 32.6203 116.385 32.6543 116.309C32.6884 116.234 32.7034 116.152 32.6982 116.07C32.6829 115.821 32.6064 115.578 32.475 115.362C32.3436 115.146 32.1608 114.962 31.9413 114.825C31.8688 114.775 31.7846 114.744 31.6962 114.734C31.6079 114.723 31.5182 114.733 31.4351 114.764L31.3804 114.79C31.3149 114.843 31.2634 114.91 31.2302 114.985C31.1969 115.061 31.1827 115.142 31.1889 115.224Z" fill="#37474F"/>
<path d="M19.0775 121.877C19.0916 122.126 19.1671 122.369 19.2978 122.585C19.4285 122.802 19.6107 122.986 19.8299 123.123C19.9279 123.183 20.0416 123.216 20.1582 123.218C20.2468 123.217 20.3334 123.193 20.409 123.149L32.4474 116.535L32.5021 116.504C32.5682 116.451 32.6203 116.385 32.6543 116.309C32.6884 116.234 32.7034 116.152 32.6982 116.07C32.6829 115.821 32.6064 115.578 32.475 115.362C32.3436 115.146 32.1608 114.962 31.9413 114.825C31.8688 114.775 31.7846 114.744 31.6962 114.734C31.6079 114.723 31.5182 114.733 31.4351 114.764L31.3804 114.79L19.342 121.404C19.2556 121.451 19.1849 121.521 19.1381 121.604C19.0913 121.688 19.0703 121.783 19.0775 121.877Z" fill="#FAFAFA"/>
<path d="M7.26214 121.344C8.11486 118.683 11.6078 116.483 14.8728 117.355C15.3882 117.493 15.8831 117.693 16.3457 117.95C19.5103 119.686 22.0776 123.922 22.0776 127.402C22.0857 127.99 21.9996 128.575 21.8222 129.138C20.9649 131.799 17.4766 133.986 14.2116 133.118C13.697 132.982 13.2033 132.782 12.7433 132.523C9.57863 130.787 7.01134 126.552 7.01134 123.075C7.0008 122.489 7.08539 121.905 7.26214 121.344Z" fill="#455A64"/>
<path d="M12.7388 132.506C9.57411 130.77 7.00682 126.535 7.00682 123.058C7.00682 119.582 9.57411 118.167 12.7388 119.903C15.9034 121.639 18.4753 125.875 18.4707 129.356C18.4661 132.836 15.908 134.247 12.7388 132.506Z" fill="#37474F"/>
<path d="M12.7383 123.765C11.5208 123.097 10.5358 123.635 10.5358 124.976C10.577 125.704 10.798 126.412 11.1807 127.043C11.5633 127.674 12.097 128.211 12.7383 128.609C13.9558 129.277 14.9453 128.735 14.9453 127.398C14.9032 126.67 14.6814 125.962 14.298 125.331C13.9145 124.7 13.3802 124.163 12.7383 123.765Z" fill="#455A64"/>
<path d="M11.9681 125.771C11.9823 126.02 12.0577 126.262 12.1884 126.479C12.3191 126.695 12.5014 126.879 12.7205 127.016C12.7928 127.066 12.8768 127.098 12.9651 127.109C13.0533 127.12 13.1432 127.111 13.2267 127.081C13.2469 127.075 13.2655 127.064 13.2814 127.051C13.3475 126.998 13.3996 126.931 13.4336 126.856C13.4677 126.781 13.4827 126.699 13.4775 126.617C13.4632 126.367 13.3873 126.123 13.2558 125.906C13.1243 125.689 12.9409 125.504 12.7205 125.367C12.6484 125.319 12.565 125.288 12.4776 125.278C12.3902 125.267 12.3014 125.277 12.2189 125.306L12.1642 125.337C12.0973 125.389 12.0446 125.455 12.0105 125.531C11.9763 125.606 11.9618 125.689 11.9681 125.771Z" fill="#37474F"/>
<path d="M10.1442 126.777C10.1579 127.026 10.2332 127.268 10.364 127.484C10.4947 127.7 10.6772 127.883 10.8965 128.019C10.9946 128.079 11.1082 128.112 11.2249 128.114C11.3138 128.115 11.401 128.091 11.4757 128.045L13.2267 127.081C13.2469 127.075 13.2655 127.064 13.2814 127.051C13.3475 126.998 13.3996 126.931 13.4336 126.856C13.4677 126.781 13.4827 126.699 13.4775 126.617C13.4632 126.367 13.3873 126.123 13.2558 125.906C13.1243 125.689 12.9409 125.504 12.7205 125.367C12.6484 125.319 12.565 125.288 12.4776 125.278C12.3902 125.267 12.3015 125.277 12.2189 125.306L12.1642 125.337L10.4086 126.296C10.3211 126.344 10.2498 126.415 10.203 126.5C10.1561 126.585 10.1357 126.682 10.1442 126.777Z" fill="#FAFAFA"/>
<path d="M10.1437 126.768C10.1571 127.018 10.2322 127.262 10.3629 127.479C10.4936 127.696 10.6763 127.881 10.8961 128.018C10.9691 128.066 11.0532 128.097 11.1413 128.108C11.2294 128.118 11.3189 128.108 11.4022 128.079L11.4569 128.048C11.5235 127.996 11.5761 127.93 11.6102 127.854C11.6443 127.779 11.659 127.696 11.653 127.614C11.638 127.365 11.5617 127.122 11.4303 126.906C11.2988 126.69 11.1158 126.506 10.8961 126.369C10.8238 126.319 10.7398 126.287 10.6515 126.276C10.5632 126.265 10.4734 126.274 10.3899 126.304L10.3352 126.334C10.2697 126.387 10.2182 126.454 10.185 126.529C10.1517 126.605 10.1375 126.687 10.1437 126.768Z" fill="#E0E0E0"/>
<g opacity="0.3">
<path opacity="0.3" d="M124.687 87.5261C124.708 87.5306 124.73 87.5306 124.751 87.5261L127.364 86.8231C127.41 86.8112 127.454 86.7903 127.492 86.7617C127.531 86.7331 127.562 86.6974 127.585 86.6567C127.608 86.6161 127.622 86.5713 127.627 86.5253C127.631 86.4793 127.625 86.4329 127.61 86.3891C127.597 86.3447 127.574 86.3032 127.544 86.2671C127.514 86.231 127.477 86.2009 127.434 86.1787C127.392 86.1565 127.345 86.1425 127.297 86.1377C127.249 86.1328 127.2 86.1371 127.154 86.1504L124.541 86.8534C124.452 86.8748 124.375 86.9276 124.326 87.0011C124.276 87.0745 124.258 87.1632 124.275 87.2489C124.292 87.3346 124.342 87.411 124.416 87.4625C124.49 87.514 124.582 87.5368 124.673 87.5261H124.687Z" fill="black"/>
<path opacity="0.3" d="M127.364 89.4535C127.446 89.4429 127.523 89.4056 127.58 89.3478C127.637 89.29 127.672 89.2153 127.679 89.136C127.685 89.0568 127.663 88.9779 127.615 88.9124C127.568 88.847 127.498 88.799 127.418 88.7765L124.792 88.1472C124.745 88.1328 124.695 88.1278 124.646 88.1327C124.597 88.1375 124.549 88.152 124.506 88.1753C124.464 88.1985 124.426 88.2301 124.397 88.2678C124.367 88.3056 124.347 88.3487 124.336 88.3946C124.321 88.4393 124.317 88.4864 124.322 88.5329C124.327 88.5794 124.343 88.6244 124.367 88.665C124.391 88.7057 124.424 88.7412 124.464 88.7693C124.503 88.7974 124.548 88.8176 124.596 88.8285L127.227 89.4622C127.273 89.4651 127.319 89.4621 127.364 89.4535Z" fill="black"/>
<path opacity="0.3" d="M126.041 91.7621C126.127 91.7529 126.207 91.7162 126.269 91.6579C126.336 91.593 126.373 91.5058 126.373 91.4149C126.373 91.324 126.336 91.2367 126.269 91.1718L124.322 89.3751C124.289 89.3432 124.249 89.3179 124.206 89.3006C124.162 89.2833 124.116 89.2744 124.069 89.2744C124.021 89.2744 123.975 89.2833 123.931 89.3006C123.888 89.3179 123.849 89.3432 123.815 89.3751C123.782 89.4069 123.755 89.4448 123.737 89.4865C123.719 89.5282 123.709 89.5729 123.709 89.6181C123.709 89.6633 123.719 89.708 123.737 89.7497C123.755 89.7914 123.782 89.8293 123.815 89.8612L125.763 91.6623C125.799 91.6963 125.843 91.7228 125.891 91.74C125.939 91.7572 125.99 91.7647 126.041 91.7621Z" fill="black"/>
<path opacity="0.3" d="M123.689 93.129H123.752C123.799 93.1166 123.843 93.0954 123.881 93.0667C123.918 93.038 123.95 93.0025 123.973 92.9621C123.997 92.9217 124.011 92.8773 124.017 92.8314C124.022 92.7855 124.017 92.7392 124.003 92.695L123.264 90.2125C123.252 90.1684 123.231 90.127 123.202 90.0907C123.173 90.0545 123.137 90.0241 123.095 90.0014C123.053 89.9787 123.007 89.9642 122.96 89.9586C122.912 89.9531 122.864 89.9566 122.818 89.969C122.772 89.9814 122.729 90.0025 122.691 90.0309C122.654 90.0594 122.623 90.0947 122.6 90.1348C122.577 90.1748 122.562 90.2189 122.557 90.2643C122.553 90.3097 122.557 90.3555 122.571 90.3991L123.31 92.8816C123.332 92.9588 123.382 93.026 123.452 93.0712C123.521 93.1165 123.605 93.137 123.689 93.129Z" fill="black"/>
</g>
<path d="M52.4469 54.5908L58.9631 58.1713L73.2769 60.1417C73.2769 60.1417 83.7376 45.2034 85.3381 42.8554C86.9387 40.5075 88.8083 39.0015 93.1494 39.0059L92.3286 50.9235C92.1918 51.3054 83.5415 61.4523 77.8369 66.9815C75.8214 68.9302 74.5811 69.4249 71.4301 68.596C63.3909 66.4737 53.6461 60.1851 52.8618 58.614C51.8313 56.5612 52.5244 54.6299 52.4469 54.5908Z" fill="#E5974D"/>
<path d="M55.1328 47.0343C54.2756 44.3782 50.7872 42.1778 47.5222 43.0458C47.0067 43.1855 46.5118 43.3868 46.0493 43.6448C42.8847 45.3808 40.3174 49.6122 40.3174 53.0929C40.3085 53.681 40.3961 54.2667 40.5773 54.8289C41.4346 57.4894 44.923 59.6767 48.188 58.8044C48.703 58.6673 49.1967 58.4659 49.6563 58.2055C52.8209 56.4695 55.3882 52.238 55.3882 48.7573C55.3959 48.1739 55.3098 47.5929 55.1328 47.0343Z" fill="#455A64"/>
<path d="M49.6518 58.1971C52.8165 56.4611 55.3838 52.2296 55.3838 48.7489C55.3838 45.2682 52.8165 43.8577 49.6518 45.598C46.4872 47.3384 43.9199 51.5655 43.9199 55.0462C43.9199 58.5269 46.4872 59.9374 49.6518 58.1971Z" fill="#37474F"/>
<path d="M49.652 49.46C50.8695 48.7916 51.8545 49.3341 51.8545 50.6708C51.8132 51.3991 51.5923 52.1078 51.2097 52.7397C50.827 53.3715 50.2934 53.9087 49.652 54.3078C48.4345 54.9761 47.4449 54.4336 47.4449 53.0969C47.4864 52.3682 47.7078 51.6591 48.0913 51.0271C48.4748 50.3952 49.0095 49.8583 49.652 49.46Z" fill="#455A64"/>
<path d="M50.4042 51.4655C50.3904 51.7147 50.3151 51.9574 50.1844 52.1738C50.0537 52.3902 49.8712 52.5743 49.6518 52.711C49.579 52.7596 49.4951 52.7908 49.407 52.8021C49.3189 52.8135 49.2293 52.8045 49.1456 52.7761L49.0909 52.7458C49.0254 52.6926 48.9736 52.6258 48.9396 52.5505C48.9056 52.4753 48.8903 52.3936 48.8948 52.3118C48.9101 52.0623 48.9866 51.8198 49.118 51.6035C49.2494 51.3872 49.4322 51.2032 49.6518 51.0662C49.724 51.0166 49.808 50.9848 49.8963 50.9734C49.9846 50.962 50.0744 50.9716 50.1579 51.0011L50.2126 51.0315C50.2776 51.0848 50.3286 51.1518 50.3619 51.2271C50.3951 51.3024 50.4096 51.384 50.4042 51.4655Z" fill="#37474F"/>
<path d="M62.5162 58.1402C62.5017 58.3893 62.4261 58.6317 62.2954 58.848C62.1648 59.0643 61.9827 59.2485 61.7638 59.3858C61.6648 59.444 61.5517 59.4769 61.4355 59.4812C61.3468 59.4802 61.2601 59.4562 61.1847 59.4118L49.1463 52.7976L49.0915 52.7672C49.0261 52.7141 48.9743 52.6473 48.9403 52.572C48.9063 52.4967 48.891 52.415 48.8955 52.3332C48.9108 52.0838 48.9872 51.8413 49.1187 51.625C49.2501 51.4087 49.4329 51.2247 49.6524 51.0877C49.7247 51.0381 49.8087 51.0062 49.8969 50.9949C49.9852 50.9835 50.0751 50.993 50.1586 51.0226L50.2133 51.0529L62.2471 57.6671C62.3348 57.7133 62.4067 57.7824 62.4544 57.8662C62.502 57.95 62.5235 58.0451 62.5162 58.1402Z" fill="#FAFAFA"/>
<path d="M74.3307 57.5802C73.478 54.9241 69.985 52.7237 66.7201 53.5917C66.2058 53.7291 65.7123 53.9289 65.2517 54.1863C62.0871 55.9223 59.5198 60.1538 59.5198 63.6345C59.5117 64.2221 59.5978 64.8075 59.7752 65.3705C60.6279 68.0309 64.1209 70.2183 67.3858 69.3459C67.8983 69.2077 68.3902 69.0079 68.8496 68.7514C72.0187 67.0154 74.5815 62.7795 74.5815 59.2988C74.5898 58.7172 74.5053 58.1377 74.3307 57.5802Z" fill="#455A64"/>
<path d="M68.8501 68.7474C72.0193 67.0114 74.582 62.7755 74.582 59.2948C74.582 55.8141 72.0193 54.408 68.8501 56.144C65.6809 57.88 63.1182 62.1115 63.1182 65.5922C63.1182 69.0729 65.6855 70.4834 68.8501 68.7474Z" fill="#37474F"/>
<path d="M68.8496 60.0018C70.0671 59.3335 71.0566 59.876 71.0566 61.2171C71.0145 61.945 70.7928 62.6533 70.4093 63.2844C70.0258 63.9155 69.4915 64.4518 68.8496 64.8496C67.6321 65.518 66.6472 64.9755 66.6472 63.6388C66.6884 62.9105 66.9093 62.2018 67.292 61.5699C67.6746 60.9381 68.2082 60.4009 68.8496 60.0018Z" fill="#455A64"/>
<path d="M69.6063 62.0114C69.5918 62.2605 69.5162 62.5029 69.3856 62.7192C69.2549 62.9355 69.0728 63.1197 68.8539 63.257C68.7807 63.3065 68.696 63.3384 68.607 63.3497C68.518 63.3611 68.4274 63.3516 68.3432 63.3221L68.2885 63.2917C68.2241 63.2379 68.1734 63.1708 68.1402 63.0957C68.107 63.0205 68.0922 62.9391 68.0969 62.8577C68.1115 62.6081 68.1877 62.3653 68.3192 62.1489C68.4507 61.9325 68.6339 61.7486 68.8539 61.6121C68.9253 61.5625 69.0085 61.5307 69.096 61.5193C69.1836 61.5079 69.2728 61.5175 69.3555 61.547L69.4102 61.5774C69.4765 61.6299 69.5288 61.6966 69.5629 61.772C69.597 61.8474 69.6119 61.9294 69.6063 62.0114Z" fill="#37474F"/>
<path d="M71.4303 63.0139C71.4161 63.2631 71.3407 63.5057 71.21 63.722C71.0793 63.9384 70.897 64.1225 70.6779 64.2595C70.5798 64.3197 70.4662 64.3527 70.3495 64.355C70.261 64.3533 70.1744 64.3293 70.0987 64.2855L68.3431 63.322L68.2884 63.2917C68.224 63.2379 68.1733 63.1708 68.1402 63.0956C68.107 63.0205 68.0922 62.9391 68.0969 62.8577C68.1115 62.6081 68.1877 62.3653 68.3192 62.1489C68.4507 61.9325 68.6338 61.7486 68.8539 61.6121C68.9253 61.5625 69.0085 61.5307 69.096 61.5193C69.1836 61.5079 69.2727 61.5175 69.3555 61.547L69.4102 61.5774L71.1658 62.5408C71.2522 62.588 71.3229 62.6574 71.3696 62.7411C71.4164 62.8248 71.4374 62.9193 71.4303 63.0139Z" fill="#FAFAFA"/>
<path d="M71.4305 63.01C71.4164 63.2593 71.341 63.5018 71.2103 63.7182C71.0796 63.9345 70.8973 64.1186 70.6781 64.2556C70.6059 64.3052 70.5219 64.337 70.4336 64.3484C70.3453 64.3598 70.2555 64.3503 70.172 64.3207L70.1173 64.2903C70.0512 64.2376 69.9991 64.1709 69.965 64.0955C69.931 64.0202 69.916 63.9382 69.9212 63.8563C69.9362 63.6068 70.0125 63.3642 70.1439 63.1478C70.2754 62.9315 70.4584 62.7475 70.6781 62.6108C70.7498 62.5616 70.8332 62.5303 70.9208 62.5197C71.0084 62.509 71.0975 62.5195 71.1797 62.55L71.239 62.5804C71.3039 62.6329 71.3549 62.6991 71.3882 62.7737C71.4214 62.8482 71.4359 62.9292 71.4305 63.01Z" fill="#E0E0E0"/>
<path d="M56.6199 61.6686C53.8566 59.6549 51.2027 59.6722 51.6815 54.755C52.0873 52.585 52.6482 52.4331 54.8734 51.6085C55.8538 51.2483 57.1534 50.9749 57.9332 51.8255C58.0206 51.931 58.1166 52.0297 58.2205 52.1206C58.4495 52.2619 58.7139 52.3428 58.9866 52.355C59.5068 52.3815 60.0007 52.5812 60.3819 52.9192C60.6418 53.197 60.7422 53.5876 60.9975 53.8697C61.2413 54.0907 61.5036 54.2925 61.7818 54.4729C61.9829 54.6382 62.1452 54.8418 62.2583 55.0706C62.3715 55.2993 62.4328 55.5482 62.4385 55.801C62.4186 56.0898 62.3329 56.371 62.1872 56.6251C62.0415 56.8792 61.8394 57.1 61.5949 57.2722L60.2269 56.5084C59.6523 56.1308 58.4758 57.4632 58.982 58.1706C59.7663 59.2903 56.6199 61.6686 56.6199 61.6686Z" fill="#E5974D"/>
<path d="M88.8636 71.5466C87.9789 68.1398 87.7236 59.6377 87.7236 59.6377L113.615 60.3798L112.206 65.7484C111.972 66.9614 111.847 68.1912 111.832 69.4244C111.832 69.4244 109.32 73.8555 101.873 74.6324C97.2938 75.0459 92.7035 73.9571 88.8636 71.5466Z" fill="#E5974D"/>
<path d="M87.7235 59.6381C87.6916 59.9115 87.8695 62.4852 87.8695 62.4852C91.1846 65.1369 101.805 66.478 112.949 62.9495L115.312 54.2695C115.312 54.2695 107.295 50.9191 112.708 39.6785L106.889 39.2445L96.5517 38.9971H93.1363C90.3463 41.5729 87.9886 44.5414 86.1458 47.7986C84.8051 50.2116 83.0769 53.7314 87.7235 59.6381Z" fill="#455A64"/>
<path d="M102.361 59.7163C107.021 58.5836 108.193 55.8103 108.526 53.7705C108.526 53.7705 109.406 59.7163 102.739 61.1051C95.7079 62.5633 92.8169 57.2642 92.8169 57.2642C92.8169 57.2642 96.7293 61.0834 102.361 59.7163Z" fill="#37474F"/>
<path d="M142.07 125.883C143.438 126.834 146.589 127.064 149.366 125.822C152.143 124.581 153.305 121.048 152.786 118.318C152.156 114.99 150.428 113.167 149.986 111.166C149.543 109.165 149.986 106.392 149.325 104.604C149.049 103.917 148.621 103.295 148.07 102.78C147.519 102.265 146.859 101.869 146.133 101.618C145.669 101.448 145.171 101.381 144.676 101.422C144.181 101.463 143.703 101.612 143.278 101.857L142.453 102.317L142.07 125.883Z" fill="#263238"/>
<path d="M138.805 113.189L140.966 119.356C140.966 119.356 139.598 123.761 140.369 124.929C141.509 126.665 143.506 126.973 146.876 125.992C150.734 124.877 151.641 121.557 151.436 118.979C151.167 115.303 147.596 112.538 148.007 108.997C148.203 107.261 147.957 105.316 146.958 103.828C145.841 102.157 144.008 101.844 142.101 102.391C140.474 102.86 139.042 103.837 137.66 104.752C137.262 104.991 136.903 105.284 136.593 105.62C136.345 105.932 136.159 106.286 136.046 106.662C135.796 107.42 135.721 108.221 135.827 109.01C135.927 109.748 136.42 110.177 136.88 110.746L138.805 113.189Z" fill="#37474F"/>
<path d="M129.489 110.268C129.626 110.216 136.228 106.197 136.94 105.898C137.651 105.599 139.398 105.165 141.094 108.888C142.302 111.544 140.565 112.525 140.565 112.525L132.813 116.909L129.489 110.268Z" fill="#E5974D"/>
<path d="M140.966 119.356C142.364 118.694 143.911 118.367 145.472 118.401C145.588 118.412 145.705 118.396 145.813 118.353C145.921 118.311 146.017 118.244 146.091 118.158C146.166 118.072 146.217 117.971 146.24 117.861C146.263 117.752 146.258 117.64 146.224 117.533C146.18 117.406 146.098 117.294 145.988 117.212C145.877 117.129 145.744 117.079 145.604 117.069C144.56 116.995 142.024 116.965 140.342 118.284C139.895 119.143 140.966 119.356 140.966 119.356Z" fill="#92E3A9"/>
<path d="M140.177 116.54C141.536 115.808 143.062 115.404 144.623 115.364C144.741 115.369 144.858 115.346 144.964 115.297C145.07 115.248 145.162 115.175 145.231 115.085C145.301 114.994 145.346 114.889 145.362 114.778C145.379 114.667 145.366 114.553 145.325 114.448C145.276 114.323 145.189 114.216 145.076 114.138C144.962 114.061 144.827 114.018 144.687 114.014C143.638 113.988 141.103 114.084 139.493 115.485C139.092 116.375 140.177 116.54 140.177 116.54Z" fill="#92E3A9"/>
<path opacity="0.3" d="M140.966 119.356C142.364 118.694 143.911 118.367 145.472 118.401C145.588 118.412 145.705 118.396 145.813 118.353C145.921 118.311 146.017 118.244 146.091 118.158C146.166 118.072 146.217 117.971 146.24 117.861C146.263 117.752 146.258 117.64 146.224 117.533C146.18 117.406 146.098 117.294 145.988 117.212C145.877 117.129 145.744 117.079 145.604 117.069C144.56 116.995 142.024 116.965 140.342 118.284C139.895 119.143 140.966 119.356 140.966 119.356Z" fill="black"/>
<path opacity="0.3" d="M140.177 116.54C141.536 115.808 143.062 115.404 144.623 115.364C144.741 115.369 144.858 115.346 144.964 115.297C145.07 115.248 145.162 115.175 145.231 115.085C145.301 114.994 145.346 114.889 145.362 114.778C145.379 114.667 145.366 114.553 145.325 114.448C145.276 114.323 145.189 114.216 145.076 114.138C144.962 114.061 144.827 114.018 144.687 114.014C143.638 113.988 141.103 114.084 139.493 115.485C139.092 116.375 140.177 116.54 140.177 116.54Z" fill="black"/>
<path d="M72.8804 126.552L64.3076 123.314C64.4535 121.209 64.9962 118.406 64.4307 112.898L74.1572 111.132V120.406L72.8804 126.552Z" fill="#E5974D"/>
<path d="M48.4115 133.717C48.1814 134.375 48.2238 135.092 48.53 135.722C48.8219 136.308 52.0367 138.031 56.3732 137.753C59.5815 137.537 62.6705 136.507 65.32 134.772C66.9752 133.73 68.6944 133.535 70.8421 133.418C72.9899 133.3 75.808 132.28 76.2822 131.326C76.7564 130.371 76.2092 128.722 76.2092 128.722L48.4115 133.717Z" fill="#263238"/>
<path d="M65.9086 120.84L65.5666 120.771C65.3807 120.724 65.1868 120.714 64.9966 120.74C64.7848 120.802 64.5974 120.923 64.4585 121.088C64.0341 121.604 63.663 122.157 63.3504 122.741C62.4384 124.152 60.5369 125.319 58.453 126.387C57.0348 127.112 55.6486 127.689 54.1848 128.301C52.7211 128.913 50.7147 129.329 49.5473 130.076C47.8419 131.169 47.623 133.912 49.5473 134.993C51.2208 135.926 55.6212 136.942 60.2359 135.696C62.7485 135.019 65.5392 132.463 68.8407 132.224C70.9383 132.068 74.9055 131.508 76.2598 129.993C76.7568 129.321 76.0911 127.185 75.5439 125.345C74.9465 123.336 74.7231 119.794 74.0254 119.972C74.0254 119.972 74.2169 120.471 73.9433 120.74C73.6697 121.01 72.703 121.543 72.4248 121.773C71.9381 122.23 71.5439 122.769 71.262 123.362C71.1474 123.629 70.9353 123.848 70.6647 123.978C70.3135 124.104 70.0491 123.891 69.7527 123.757C69.3621 123.592 68.9232 123.563 68.5123 123.674C68.5535 123.277 68.6266 122.884 68.7312 122.498C68.78 122.376 68.7911 122.244 68.7631 122.116C68.7098 121.995 68.6151 121.894 68.4941 121.83C67.7144 121.332 66.8336 120.995 65.9086 120.84Z" fill="#37474F"/>
<path d="M60.4089 125.302C60.5602 125.027 60.7813 124.793 61.0521 124.62C61.3229 124.447 61.6347 124.341 61.9593 124.312C62.9169 124.143 64.5996 124.816 65.6484 125.614C65.748 125.691 65.8263 125.79 65.8764 125.903C65.9264 126.015 65.9467 126.138 65.9355 126.26C65.9242 126.381 65.8817 126.498 65.8118 126.601C65.7419 126.703 65.6466 126.788 65.5344 126.847C65.3912 126.925 65.2259 126.958 65.062 126.94C64.8982 126.923 64.7442 126.857 64.6224 126.752C63.4692 125.766 61.9579 125.246 60.4089 125.302Z" fill="#92E3A9"/>
<path d="M57.45 126.878C57.6575 126.601 57.931 126.376 58.2482 126.219C58.5653 126.063 58.9169 125.981 59.274 125.979C59.274 125.979 61.7683 126.045 63.3096 127.416C63.4049 127.491 63.4798 127.586 63.5278 127.694C63.5758 127.802 63.5955 127.92 63.5852 128.037C63.5749 128.154 63.5349 128.267 63.4686 128.366C63.4023 128.465 63.3118 128.547 63.2047 128.605C63.0685 128.677 62.9122 128.706 62.7578 128.689C62.6033 128.671 62.4583 128.609 62.3429 128.51C61.7074 127.907 60.9379 127.447 60.0912 127.165C59.2444 126.883 58.3419 126.784 57.45 126.878Z" fill="#92E3A9"/>
<path d="M54.1846 128.301C54.4221 128.043 54.7153 127.837 55.0442 127.696C55.3731 127.555 55.73 127.483 56.0906 127.485C56.0906 127.485 58.4162 127.568 59.9575 128.939C60.0519 129.014 60.1259 129.11 60.1733 129.218C60.2207 129.326 60.24 129.443 60.2297 129.56C60.2195 129.676 60.1798 129.789 60.1142 129.888C60.0485 129.987 59.9588 130.069 59.8527 130.128C59.7166 130.2 59.5602 130.23 59.4056 130.213C59.2509 130.196 59.1059 130.133 58.9908 130.033C58.3865 129.408 57.6374 128.926 56.803 128.626C55.9686 128.325 55.072 128.214 54.1846 128.301Z" fill="#92E3A9"/>
<path opacity="0.3" d="M60.4089 125.302C60.5602 125.027 60.7813 124.793 61.0521 124.62C61.3229 124.447 61.6347 124.341 61.9593 124.312C62.9169 124.143 64.5996 124.816 65.6484 125.614C65.748 125.691 65.8263 125.79 65.8764 125.903C65.9264 126.015 65.9467 126.138 65.9355 126.26C65.9242 126.381 65.8817 126.498 65.8118 126.601C65.7419 126.703 65.6466 126.788 65.5344 126.847C65.3912 126.925 65.2259 126.958 65.062 126.94C64.8982 126.923 64.7442 126.857 64.6224 126.752C63.4692 125.766 61.9579 125.246 60.4089 125.302Z" fill="black"/>
<path opacity="0.3" d="M57.45 126.878C57.6575 126.601 57.931 126.376 58.2482 126.219C58.5653 126.063 58.9169 125.981 59.274 125.979C59.274 125.979 61.7683 126.045 63.3096 127.416C63.4049 127.491 63.4798 127.586 63.5278 127.694C63.5758 127.802 63.5955 127.92 63.5852 128.037C63.5749 128.154 63.5349 128.267 63.4686 128.366C63.4023 128.465 63.3118 128.547 63.2047 128.605C63.0685 128.677 62.9122 128.706 62.7578 128.689C62.6033 128.671 62.4583 128.609 62.3429 128.51C61.7074 127.907 60.9379 127.447 60.0912 127.165C59.2444 126.883 58.3419 126.784 57.45 126.878Z" fill="black"/>
<path opacity="0.3" d="M54.1846 128.301C54.4221 128.043 54.7153 127.837 55.0442 127.696C55.3731 127.555 55.73 127.483 56.0906 127.485C56.0906 127.485 58.4162 127.568 59.9575 128.939C60.0519 129.014 60.1259 129.11 60.1733 129.218C60.2207 129.326 60.24 129.443 60.2297 129.56C60.2195 129.676 60.1798 129.789 60.1142 129.888C60.0485 129.987 59.9588 130.069 59.8527 130.128C59.7166 130.2 59.5602 130.23 59.4056 130.213C59.2509 130.196 59.1059 130.133 58.9908 130.033C58.3865 129.408 57.6374 128.926 56.803 128.626C55.9686 128.325 55.072 128.214 54.1846 128.301Z" fill="black"/>
<path d="M67.0214 79.997C73.5285 78.6039 89.1146 75.5008 89.1146 75.5008L88.8638 71.5427C94.5045 74.3247 106.361 73.5391 111.833 69.4248L112.699 73.6216C114.773 75.9852 116.568 78.5583 118.052 81.2947C119.306 83.6513 121.395 87.3273 119.315 95.8901C118.093 100.916 116.461 114.157 116.461 114.157L132.421 108.563C132.421 108.563 133.789 108.784 134.947 111.627C135.627 113.315 135.859 114.934 135.166 115.772C129.329 120.155 119.872 127.325 110.314 131.344C103.93 133.67 100.537 128.562 100.223 126.669C99.028 119.422 97.6418 96.1332 97.6418 96.1332L76.3284 95.4648C77.0306 99.3101 74.1578 114.335 74.1578 114.335C74.1578 114.335 68.9092 116.505 64.559 114.283C64.559 114.283 61.6497 96.9925 61.367 91.2246C61.0615 84.8058 60.7149 81.3424 67.0214 79.997Z" fill="#92E3A9"/>
<path opacity="0.15" d="M76.3281 95.4645C76.3281 94.4273 75.6031 90.799 73.1361 88.8721C73.1361 88.8721 76.5196 89.4493 78.0654 95.5166L76.3281 95.4645Z" fill="black"/>
<path opacity="0.15" d="M116.46 114.148C116.46 114.148 116.004 119.868 114.86 122.65C114.86 122.65 117.737 117.702 118.052 113.588L116.46 114.148Z" fill="black"/>
<path opacity="0.15" d="M89.1185 75.5008L88.8631 71.5471C94.5038 74.3247 106.36 73.5391 111.832 69.4248L112.698 73.6216C112.657 73.665 109.146 77.0936 100.017 77.5666C90.8878 78.0397 89.1185 75.5008 89.1185 75.5008Z" fill="black"/>
<path opacity="0.15" d="M97.6279 96.1244C97.7046 93.9759 98.2393 91.8648 99.1995 89.919C100.16 87.9733 101.526 86.2336 103.214 84.8057C103.214 84.8057 98.3073 86.9757 96.6657 93.8459C96.6657 93.8459 93.0177 92.2271 91.1116 87.3749C91.1116 87.3749 91.6953 92.2271 94.6319 94.983L85.7764 95.7642L97.6279 96.1244Z" fill="black"/>
<path d="M100.501 8.34766C104.28 8.34766 107.905 9.77656 110.577 12.32C113.25 14.8635 114.751 18.3132 114.751 21.9102C114.751 25.5076 113.25 28.9577 110.578 31.5018C107.905 34.046 104.281 35.4758 100.501 35.477C96.7208 35.4758 93.0958 34.0461 90.4228 31.5021C87.7498 28.9581 86.2476 25.508 86.2464 21.9102C86.2476 18.3128 87.75 14.8631 90.4231 12.3198C93.0962 9.77642 96.7212 8.34766 100.501 8.34766Z" fill="#263238"/>
<path d="M115.366 16.6111C114.851 16.5886 114.334 16.6162 113.825 16.6935C113.653 16.7028 113.49 16.7723 113.369 16.8888C113.3 16.9887 113.259 17.1038 113.25 17.223C113.138 17.9766 113.211 18.7448 113.464 19.4668C113.67 19.9659 114.294 20.2263 114.691 20.5909C116.232 22.01 116.355 24.371 115.749 26.3283C115.142 28.2857 113.925 30.0304 113.136 31.9183C112.347 33.8062 111.928 36.0933 113.045 37.9943C113.501 38.7277 114.267 39.2963 114.171 40.1643C114.062 41.2276 113.086 42.2475 112.666 43.2023C112.208 44.3407 112.052 45.5688 112.21 46.7784C112.338 48.2778 112.932 49.7071 113.916 50.8841C114.666 51.7151 115.635 52.3424 116.722 52.7022C117.81 53.062 118.978 53.1414 120.108 52.9325C120.585 52.8534 121.036 52.6707 121.426 52.3987C122.096 51.8866 122.361 51.049 122.726 50.3068C123.902 47.9068 126.374 46.1621 127.131 43.6146C127.924 40.9194 126.565 38.0811 124.896 35.7765C124.117 34.7002 123.246 33.6412 122.863 32.387C122.347 30.69 122.799 28.8803 122.917 27.1182C123.037 25.3924 122.835 23.66 122.32 22.0014C121.941 20.8035 121.367 19.4234 120.382 18.5641C119.001 17.3755 117.226 16.6845 115.366 16.6111Z" fill="#263238"/>
<path d="M91.5676 14.5537C90.0035 15.4434 88.0883 19.1975 88.3118 27.0529C88.5033 33.7105 90.7787 35.3466 91.9187 35.8154C93.0587 36.2841 95.2521 35.989 97.3907 35.6418V39.6389C97.3907 39.6389 94.4541 42.9113 94.6547 44.7428C94.8554 46.5742 98.9229 46.9952 101.677 45.1768C104.431 43.3583 106.748 39.9123 106.748 39.9123L106.661 30.7202C106.661 30.7202 107.924 31.879 110.045 30.0953C111.8 28.624 112.379 26.1545 111.002 24.8352C109.625 23.5158 107.094 23.8891 106.132 25.7813C106.132 25.7813 102.73 25.9115 98.1842 23.5592C96.4135 22.6608 94.8911 21.3767 93.7412 19.8117C92.5913 18.2466 91.8465 16.4449 91.5676 14.5537Z" fill="#E5974D"/>
<path d="M96.1139 25.3518C96.1131 25.5164 96.1632 25.6775 96.2581 25.8151C96.3529 25.9526 96.4882 26.0606 96.6471 26.1254C96.8059 26.1903 96.9814 26.2092 97.1514 26.1797C97.3215 26.1503 97.4787 26.0738 97.6034 25.9599C97.7281 25.8459 97.8148 25.6995 97.8527 25.539C97.8905 25.3785 97.8779 25.2109 97.8163 25.0571C97.7547 24.9034 97.6468 24.7704 97.5063 24.6746C97.3657 24.5788 97.1986 24.5245 97.0259 24.5186C96.7902 24.5184 96.5636 24.605 96.3936 24.7604C96.2235 24.9157 96.1233 25.1277 96.1139 25.3518Z" fill="#263238"/>
<g style="mix-blend-mode:multiply" opacity="0.5">
<g style="mix-blend-mode:multiply" opacity="0.5">
<path d="M95.9045 30.9941L93.8662 31.6234C93.9033 31.7537 93.9676 31.8754 94.0553 31.9814C94.1431 32.0874 94.2524 32.1755 94.3767 32.2403C94.501 32.3052 94.6378 32.3455 94.7789 32.3588C94.92 32.3721 95.0624 32.3582 95.1977 32.3178C95.4723 32.2267 95.6992 32.038 95.8309 31.7913C95.9626 31.5446 95.989 31.2589 95.9045 30.9941Z" fill="#F28F8F"/>
</g>
</g>
<path d="M88.8912 22.809L90.665 21.6241C90.5899 21.5106 90.4913 21.4129 90.3753 21.3368C90.2592 21.2607 90.1281 21.2078 89.9899 21.1814C89.8517 21.1551 89.7093 21.1557 89.5714 21.1833C89.4335 21.2109 89.3029 21.2649 89.1876 21.342C88.9493 21.5032 88.7854 21.7457 88.7302 22.0189C88.675 22.2922 88.7327 22.5752 88.8912 22.809Z" fill="#263238"/>
<path d="M89.3102 24.7698C89.3094 24.9343 89.3595 25.0954 89.4543 25.233C89.5492 25.3706 89.6845 25.4785 89.8433 25.5434C90.0022 25.6082 90.1776 25.6271 90.3477 25.5977C90.5178 25.5682 90.675 25.4918 90.7997 25.3778C90.9244 25.2639 91.0111 25.1175 91.049 24.957C91.0868 24.7964 91.0741 24.6288 91.0125 24.4751C90.9509 24.3214 90.8431 24.1883 90.7026 24.0925C90.562 23.9968 90.3949 23.9425 90.2222 23.9365C89.9865 23.9363 89.7599 24.023 89.5898 24.1784C89.4198 24.3337 89.3196 24.5457 89.3102 24.7698Z" fill="#263238"/>
<g style="mix-blend-mode:multiply" opacity="0.5">
<g style="mix-blend-mode:multiply" opacity="0.5">
<path d="M93.46 24.2754L93.3414 29.3185L90.5507 28.5069L93.46 24.2754Z" fill="#F28F8F"/>
</g>
</g>
<g style="mix-blend-mode:multiply" opacity="0.5">
<g style="mix-blend-mode:multiply" opacity="0.5">
<path d="M97.3858 35.6419C99.6339 35.3512 104.258 34.0709 104.974 32.3262C104.687 33.2078 104.124 33.9848 103.359 34.5526C101.991 35.6853 97.3949 36.9743 97.3949 36.9743L97.3858 35.6419Z" fill="#F28F8F"/>
</g>
</g>
<path d="M112.698 39.6826C117.112 39.9777 118.937 40.5159 121.394 45.7065C123.601 50.372 128.896 62.4416 130.218 65.1367C131.54 67.8319 131.791 68.9082 130.674 71.7248C129.762 74.0207 122.315 87.2099 121.499 89.1326C120.683 91.0552 120.323 92.9995 118.932 95.239C117.541 97.4784 115.343 99.6657 113.606 100.182C111.029 100.95 107.678 99.8827 107.578 98.4028C107.477 96.9229 111.358 94.4534 112.416 91.168C111.715 91.6064 110.976 91.9882 110.209 92.3095C109.16 92.7174 107.997 92.6263 107.65 92.0621C107.304 91.4979 108.348 91.1507 109.278 90.274C109.835 89.7489 110.82 88.5684 112.078 87.5268C112.926 86.8237 114.326 86.6154 114.951 85.8428C115.293 85.4305 116.825 81.8587 117.974 78.6732C119.402 74.7324 121.276 69.4811 121.276 69.4811L113.606 54.2911C113.606 54.2911 107.587 48.5926 112.698 39.6826Z" fill="#E5974D"/>
<path d="M121.509 89.1321C121.509 89.1321 119.744 85.7339 114.96 85.8424L116.224 83.1689C116.224 83.1689 120.893 83.4814 122.858 86.4847L121.509 89.1321Z" fill="#37474F"/>
<path d="M122.024 86.2464L120.984 87.6309C120.91 87.7317 120.815 87.8172 120.705 87.8822C120.595 87.9471 120.473 87.9902 120.345 88.0089C120.217 88.0275 120.087 88.0214 119.961 87.9907C119.836 87.9601 119.719 87.9056 119.616 87.8305L117.792 86.5285C117.581 86.3734 117.44 86.1478 117.397 85.8973C117.353 85.6468 117.412 85.39 117.56 85.1788L118.513 83.8421C118.583 83.7379 118.676 83.6487 118.785 83.5802C118.893 83.5116 119.016 83.465 119.144 83.4435C119.272 83.4219 119.404 83.4257 119.531 83.4547C119.658 83.4837 119.777 83.5373 119.881 83.6121L121.819 84.9141C122.031 85.0653 122.172 85.2903 122.21 85.54C122.249 85.7896 122.182 86.0436 122.024 86.2464Z" fill="#263238"/>
<path d="M122.366 86.212L121.326 87.5965C121.252 87.6972 121.157 87.7826 121.047 87.8476C120.937 87.9126 120.815 87.9559 120.687 87.975C120.56 87.994 120.429 87.9884 120.304 87.9584C120.179 87.9284 120.061 87.8747 119.958 87.8005L118.134 86.4985C117.922 86.3439 117.78 86.1186 117.736 85.8681C117.692 85.6176 117.749 85.3605 117.897 85.1487L118.85 83.812C118.922 83.7093 119.015 83.6216 119.124 83.5541C119.232 83.4866 119.354 83.4407 119.482 83.4192C119.61 83.3977 119.741 83.4011 119.867 83.4291C119.994 83.457 120.113 83.509 120.218 83.582L122.151 84.9057C122.359 85.0537 122.498 85.2732 122.538 85.5173C122.578 85.7614 122.516 86.0108 122.366 86.212Z" fill="#455A64"/>
<path d="M118.088 85.7558C118.098 85.8412 118.127 85.9238 118.171 85.9984C118.216 86.073 118.276 86.1382 118.348 86.1898L120.172 87.4918C120.303 87.5839 120.467 87.623 120.628 87.6003C120.706 87.5892 120.781 87.5631 120.847 87.5235C120.914 87.484 120.971 87.4318 121.016 87.3703L122.056 85.9815C122.144 85.8649 122.185 85.7212 122.17 85.5779C122.162 85.4923 122.136 85.4093 122.092 85.3344C122.047 85.2596 121.987 85.1946 121.914 85.1439L119.981 83.8419C119.916 83.7962 119.842 83.7637 119.764 83.7466C119.685 83.7294 119.604 83.7278 119.525 83.742C119.446 83.7542 119.371 83.7816 119.305 83.8227C119.238 83.8638 119.181 83.9176 119.137 83.9807L118.184 85.3175C118.095 85.4452 118.056 85.599 118.075 85.7515L118.088 85.7558Z" fill="#92E3A9"/>
</svg>
