<svg width="31" height="30" viewBox="0 0 31 30" fill="none" xmlns="http://www.w3.org/2000/svg">
<path d="M3.49995 30H17.9297C18.7953 30.0005 19.6508 29.8036 20.4371 29.4228C21.2235 29.042 21.9222 28.4864 22.4851 27.7942L30.138 18.3963C30.2983 18.1999 30.4102 17.965 30.4638 17.7123C30.5175 17.4596 30.5114 17.1968 30.4459 16.9473C30.3803 16.6977 30.2575 16.4689 30.0882 16.281C29.9189 16.0932 29.7084 15.952 29.475 15.87L26.5231 14.8342C25.8096 14.5901 25.05 14.5349 24.3114 14.6734C23.5729 14.8119 22.8781 15.1399 22.2886 15.6284L17.5112 19.65L16.5857 17.7C16.0899 16.6489 15.3244 15.7649 14.3759 15.1482C13.4273 14.5314 12.3337 14.2066 11.2188 14.2105H3.49995C1.84548 14.2105 0.5 15.6268 0.5 17.3684V26.8421C0.5 28.5837 1.84548 30 3.49995 30ZM3.49995 17.3684H11.2188C12.3633 17.3684 13.3908 18.0363 13.9023 19.1132L14.5728 20.5263H7.99988V23.6842H17.0207C17.2515 23.681 17.4784 23.6216 17.6837 23.5105L17.6882 23.5089L17.6942 23.5058H17.6987L17.7017 23.5042H17.7077L17.7092 23.5026C17.7227 23.5074 17.7137 23.5011 17.7137 23.5011C17.7287 23.5011 17.7167 23.4995 17.7167 23.4995H17.7182L17.7212 23.4979L17.7257 23.4963L17.7287 23.4947L17.7317 23.4932L17.7362 23.4916L17.7392 23.49C17.7437 23.49 17.7422 23.4884 17.7422 23.4884L17.7467 23.4853L17.7497 23.4837L17.7527 23.4821L17.7572 23.4805L17.7602 23.479H17.7617L17.7647 23.4774H17.7662L17.7692 23.4758L17.7722 23.4742C17.7857 23.4726 17.7767 23.4726 17.7767 23.4726L17.7797 23.4711C17.8375 23.4343 17.8927 23.3932 17.9447 23.3479L24.1636 18.1105C24.5566 17.7821 25.0981 17.6795 25.5736 17.8468L26.4091 18.1405L20.2097 25.7558C19.9245 26.0966 19.5738 26.3698 19.1807 26.5571C18.7876 26.7443 18.3612 26.8415 17.9297 26.8421H3.49995V17.3684ZM21.4997 1.48511e-05H21.4742C21.2297 0.00317274 19.9652 0.0615937 18.4997 1.11317C17.0732 0.0900148 15.8388 0.00790947 15.5478 0.00159368L15.5028 1.48511e-05H15.4968C14.2953 1.48511e-05 13.1643 0.494225 12.3183 1.38633C11.4693 2.28159 10.9998 3.47054 10.9998 4.73685C10.9998 6.00317 11.4693 7.19212 12.2913 8.05896L17.4122 13.7211C17.5531 13.875 17.7221 13.9975 17.909 14.081C18.0959 14.1646 18.2969 14.2076 18.5 14.2075C18.7031 14.2073 18.9041 14.164 19.0909 14.0802C19.2777 13.9963 19.4465 13.8736 19.5872 13.7195L24.6811 8.0858C25.5316 7.19212 25.9996 6.00317 25.9996 4.73685C25.9996 3.47054 25.5301 2.28159 24.6826 1.38791C24.2661 0.946665 23.7706 0.596792 23.2247 0.358555C22.6789 0.120318 22.0936 -0.00154841 21.5027 1.48511e-05H21.4997ZM22.9996 4.73685C22.9996 5.15843 22.8436 5.55475 22.5331 5.88159L18.4997 10.3421L14.4393 5.85317C14.1558 5.55475 13.9998 5.15843 13.9998 4.73685C13.9998 4.31528 14.1558 3.91896 14.4408 3.61896C14.712 3.32852 15.0814 3.16279 15.4683 3.15791C15.5058 3.15949 16.2212 3.20843 17.0687 3.9237C17.1902 4.02633 17.3132 4.14317 17.4392 4.27422L18.4997 5.39054L19.5602 4.27422C19.6862 4.14317 19.8092 4.02633 19.9307 3.9237C20.7242 3.25264 21.3947 3.16896 21.5087 3.15949C21.7042 3.15945 21.8977 3.20017 22.0782 3.2793C22.2587 3.35844 22.4225 3.47441 22.5601 3.62054C22.8436 3.91896 22.9996 4.31528 22.9996 4.73685Z" fill="#999999"/>
</svg>
