<svg width="63" height="63" viewBox="0 0 63 63" fill="none" xmlns="http://www.w3.org/2000/svg">
<path d="M2 31.5H0H2ZM2 56.7857H0H2ZM27.2857 44.1429H25.2857H27.2857ZM14.6429 27.2857H12.6429V29.2857H14.6429V27.2857ZM14.6429 14.6429H12.6429H14.6429ZM27.2857 2V0V2ZM39.9286 14.6429H41.9286H39.9286ZM39.9286 27.2857V29.2857H41.9286V27.2857H39.9286ZM54.5714 35.7143V31.5H50.5714V35.7143H54.5714ZM54.5714 31.5C54.5714 29.8519 53.9167 28.2712 52.7513 27.1058L49.9229 29.9343C50.3381 30.3495 50.5714 30.9127 50.5714 31.5H54.5714ZM52.7513 27.1058C51.5859 25.9404 50.0053 25.2857 48.3571 25.2857V29.2857C48.9444 29.2857 49.5076 29.519 49.9229 29.9343L52.7513 27.1058ZM48.3571 25.2857H6.21429V29.2857H48.3571V25.2857ZM6.21429 25.2857C4.56615 25.2857 2.98553 25.9404 1.82012 27.1058L4.64855 29.9343C5.06381 29.519 5.62702 29.2857 6.21429 29.2857V25.2857ZM1.82012 27.1058C0.654718 28.2712 0 29.8519 0 31.5L4 31.5C4 30.9127 4.23329 30.3495 4.64855 29.9343L1.82012 27.1058ZM0 31.5V56.7857H4V31.5H0ZM0 56.7857C0 58.4338 0.654718 60.0145 1.82012 61.1799L4.64855 58.3515C4.23329 57.9362 4 57.373 4 56.7857H0ZM1.82012 61.1799C2.98553 62.3453 4.56615 63 6.21429 63V59C5.62702 59 5.06381 58.7667 4.64855 58.3515L1.82012 61.1799ZM6.21429 63H48.3571V59H6.21429V63ZM48.3571 63C50.0053 63 51.5859 62.3453 52.7513 61.1799L49.9229 58.3515C49.5076 58.7667 48.9444 59 48.3571 59V63ZM52.7513 61.1799C53.9167 60.0145 54.5714 58.4338 54.5714 56.7857H50.5714C50.5714 57.373 50.3381 57.9362 49.9229 58.3515L52.7513 61.1799ZM54.5714 56.7857V52.5714H50.5714V56.7857H54.5714ZM54.5714 52.5714V35.7143H50.5714V52.5714H54.5714ZM52.5714 33.7143H35.7143V37.7143H52.5714V33.7143ZM35.7143 33.7143C32.9485 33.7143 30.2959 34.813 28.3402 36.7687L31.1686 39.5972C32.3742 38.3916 34.0093 37.7143 35.7143 37.7143V33.7143ZM28.3402 36.7687C26.3844 38.7245 25.2857 41.377 25.2857 44.1429L29.2857 44.1429C29.2857 42.4379 29.963 40.8028 31.1686 39.5972L28.3402 36.7687ZM25.2857 44.1429C25.2857 46.9087 26.3844 49.5612 28.3402 51.517L31.1686 48.6885C29.963 47.483 29.2857 45.8478 29.2857 44.1429H25.2857ZM28.3402 51.517C30.2959 53.4727 32.9485 54.5714 35.7143 54.5714V50.5714C34.0093 50.5714 32.3742 49.8941 31.1686 48.6885L28.3402 51.517ZM35.7143 54.5714H52.5714V50.5714H35.7143V54.5714ZM52.5714 37.7143C54.2764 37.7143 55.9115 38.3916 57.1171 39.5972L59.9455 36.7687C57.9898 34.813 55.3373 33.7143 52.5714 33.7143V37.7143ZM57.1171 39.5972C58.3227 40.8028 59 42.4379 59 44.1429H63C63 41.377 61.9013 38.7245 59.9455 36.7687L57.1171 39.5972ZM59 44.1429C59 45.8478 58.3227 47.483 57.1171 48.6885L59.9455 51.517C61.9013 49.5612 63 46.9087 63 44.1429H59ZM57.1171 48.6885C55.9115 49.8941 54.2764 50.5714 52.5714 50.5714V54.5714C55.3373 54.5714 57.9898 53.4727 59.9455 51.517L57.1171 48.6885ZM16.6429 27.2857V14.6429H12.6429V27.2857H16.6429ZM16.6429 14.6429C16.6429 11.8202 17.7642 9.11314 19.7601 7.11722L16.9317 4.28879C14.1856 7.03486 12.6429 10.7593 12.6429 14.6429H16.6429ZM19.7601 7.11722C21.756 5.1213 24.4631 4 27.2857 4V0C23.4022 0 19.6777 1.54273 16.9317 4.28879L19.7601 7.11722ZM27.2857 4C30.1084 4 32.8154 5.1213 34.8114 7.11722L37.6398 4.28879C34.8937 1.54272 31.1692 0 27.2857 0V4ZM34.8114 7.11722C36.8073 9.11314 37.9286 11.8202 37.9286 14.6429H41.9286C41.9286 10.7593 40.3858 7.03486 37.6398 4.28879L34.8114 7.11722ZM37.9286 14.6429V27.2857H41.9286V14.6429H37.9286ZM39.9286 25.2857H14.6429V29.2857H39.9286V25.2857ZM50.4643 46.1429H54.6786V42.1429H50.4643V46.1429ZM42.0357 46.1429H46.25V42.1429H42.0357V46.1429ZM33.6071 46.1429H37.8214V42.1429H33.6071V46.1429Z" fill="#92E3A9"/>
</svg>
