<svg width="87" height="134" viewBox="0 0 87 134" fill="none" xmlns="http://www.w3.org/2000/svg">
<path d="M86.3084 1.88659V131.958C86.3085 132.228 86.2413 132.496 86.1108 132.746C85.9804 132.995 85.7892 133.222 85.5484 133.412C85.3077 133.602 85.0221 133.752 84.7084 133.853C84.3946 133.953 84.0589 134.004 83.7208 134H2.56272C2.26198 134.003 1.96355 133.957 1.68486 133.867C1.40617 133.777 1.15281 133.643 0.93956 133.473C0.831048 133.389 0.734409 133.296 0.651391 133.195C0.386311 132.88 0.246888 132.507 0.251482 132.127V1.71722C0.230802 1.28121 0.42729 0.856451 0.797789 0.536241C1.16829 0.216031 1.6825 0.0265509 2.2275 0.00941145H25.2752C25.5143 0.0100319 25.7498 0.0551308 25.9633 0.141143C26.0375 0.165915 26.1069 0.199196 26.1691 0.239942C26.2986 0.313569 26.4152 0.400579 26.5161 0.498703C26.6167 0.601617 26.6979 0.715733 26.7572 0.837439L27.7158 2.71933V2.76167C27.7743 2.8652 27.8473 2.96306 27.9334 3.05336C28.0842 3.20006 28.2736 3.31831 28.4881 3.39964C28.7026 3.48097 28.9369 3.52338 29.1743 3.52384H57.4444C57.7641 3.52231 58.0759 3.44447 58.3399 3.30031C58.6039 3.15614 58.8082 2.95221 58.9264 2.71462L59.885 0.832737C60.0007 0.591839 60.2034 0.383964 60.4674 0.235645C60.7313 0.0873262 61.0445 0.00528789 61.367 0H84.0796C84.6828 0.0253679 85.2508 0.235426 85.6657 0.586647C86.0807 0.937867 86.3108 1.40333 86.3084 1.88659Z" fill="white"/>
<path d="M86.3084 1.88659V9.09892H0.26906V1.71722C0.24838 1.28121 0.444868 0.85645 0.815367 0.53624C1.18587 0.216031 1.70008 0.0265509 2.24508 0.00941144H25.2928C25.5318 0.0100319 25.7674 0.0551308 25.9809 0.141143C26.0551 0.165915 26.1245 0.199196 26.1867 0.239941C26.3161 0.313569 26.4328 0.400579 26.5337 0.498702C26.6343 0.601616 26.7155 0.715732 26.7748 0.837439L27.7334 2.71932V2.76167C27.7919 2.86519 27.8649 2.96306 27.951 3.05336C28.1018 3.20006 28.2912 3.3183 28.5057 3.39963C28.7202 3.48096 28.9545 3.52338 29.1919 3.52383H57.4443C57.764 3.52231 58.0758 3.44447 58.3399 3.30031C58.6039 3.15614 58.8081 2.95221 58.9264 2.71462L59.885 0.832736C60.0006 0.591838 60.2033 0.383964 60.4673 0.235645C60.7313 0.0873261 61.0445 0.00528788 61.367 0H84.0795C84.6828 0.0253679 85.2507 0.235426 85.6657 0.586646C86.0806 0.937867 86.3107 1.40333 86.3084 1.88659Z" fill="black"/>
<path d="M0.268729 127.822H86.3081V131.958C86.3081 132.228 86.2409 132.496 86.1104 132.746C85.98 132.995 85.7888 133.222 85.548 133.412C85.3073 133.602 85.0218 133.751 84.708 133.852C84.3942 133.953 84.0585 134.003 83.7204 134H2.56233C2.26159 134.002 1.96316 133.957 1.68447 133.867C1.40578 133.776 1.15241 133.642 0.939165 133.473C0.830653 133.389 0.734014 133.296 0.650996 133.195C0.385916 132.88 0.246493 132.507 0.251087 132.127L0.268729 127.822Z" fill="black"/>
<path opacity="0.3" d="M86.3089 9.09863H0.269531V127.822H86.3089V9.09863Z" fill="#E8A166"/>
<path d="M5.54395 63.1328H6.13204V65.7627H5.54395V63.1328Z" fill="#E8A166"/>
<path d="M9.4612 64.6007V65.7486H8.8731V64.6619C8.8731 64.3043 8.64962 64.1302 8.285 64.1302C8.18631 64.1252 8.08746 64.1379 7.99566 64.1673C7.90386 64.1967 7.82142 64.2422 7.75437 64.3003C7.68731 64.3585 7.63733 64.4279 7.60806 64.5034C7.57879 64.579 7.57097 64.6588 7.58517 64.7371V65.7486H6.99707V63.7397H7.55576V64.0032C7.66515 63.9083 7.7993 63.8338 7.94871 63.785C8.09811 63.7362 8.2591 63.7144 8.42026 63.7209C8.56487 63.7123 8.71008 63.7295 8.84533 63.7713C8.98058 63.8132 9.10247 63.8786 9.20216 63.9629C9.30184 64.0471 9.37681 64.1481 9.42162 64.2584C9.46642 64.3687 9.47995 64.4857 9.4612 64.6007Z" fill="#E8A166"/>
<path d="M11.7256 65.6404C11.5543 65.7374 11.3471 65.7855 11.1375 65.7769C11.022 65.7888 10.9046 65.7796 10.7941 65.75C10.6837 65.7204 10.5831 65.6711 10.4999 65.6059C10.4166 65.5407 10.353 65.4612 10.3137 65.3735C10.2744 65.2858 10.2605 65.192 10.273 65.0994V64.1349H9.85547V63.7586H10.273V63.2881H10.8611V63.7586H11.5727V64.1349H10.8964V65.0759C10.8892 65.1151 10.8931 65.1552 10.9079 65.1931C10.9227 65.2309 10.948 65.2656 10.9819 65.2946C11.0159 65.3235 11.0575 65.346 11.1038 65.3603C11.1501 65.3745 11.1998 65.3802 11.2493 65.377C11.3675 65.3777 11.483 65.348 11.5786 65.2923L11.7256 65.6404Z" fill="#E8A166"/>
<path d="M13.6606 63.7213V64.1682H13.5254C13.4237 64.1627 13.3217 64.1752 13.2269 64.205C13.132 64.2348 13.0466 64.2811 12.9768 64.3405C12.907 64.3999 12.8546 64.471 12.8234 64.5486C12.7921 64.6262 12.7828 64.7084 12.7961 64.7893V65.7631H12.208V63.7542H12.7491V64.0506C12.8506 63.9358 12.9887 63.8447 13.1489 63.7869C13.3091 63.729 13.4858 63.7063 13.6606 63.7213Z" fill="#E8A166"/>
<path d="M13.9249 64.7459C13.9143 64.5319 13.984 64.3203 14.1251 64.1383C14.2661 63.9564 14.472 63.8123 14.7162 63.7247C14.9605 63.6371 15.2319 63.61 15.4956 63.6469C15.7592 63.6837 16.0031 63.7829 16.1957 63.9316C16.3883 64.0802 16.5209 64.2716 16.5764 64.4811C16.6319 64.6906 16.6078 64.9085 16.5072 65.1069C16.4065 65.3053 16.2339 65.4751 16.0116 65.5944C15.7893 65.7137 15.5275 65.777 15.2599 65.7762C15.086 65.784 14.912 65.763 14.7487 65.7145C14.5854 65.666 14.4365 65.591 14.3111 65.4943C14.1858 65.3975 14.0868 65.2811 14.0203 65.1523C13.9539 65.0236 13.9214 64.8852 13.9249 64.7459ZM16.0067 64.7459C15.9987 64.6293 15.9482 64.5172 15.8614 64.4234C15.7746 64.3295 15.6553 64.2581 15.5183 64.2179C15.3813 64.1777 15.2326 64.1704 15.0906 64.1971C14.9485 64.2237 14.8193 64.2831 14.7189 64.3678C14.6185 64.4525 14.5514 64.5589 14.5257 64.6738C14.5001 64.7888 14.5171 64.9072 14.5746 65.0144C14.6322 65.1217 14.7277 65.2132 14.8495 65.2775C14.9713 65.3418 15.1139 65.3761 15.2599 65.3763C15.3627 65.3793 15.4652 65.3647 15.5606 65.3337C15.656 65.3027 15.742 65.2558 15.8131 65.1963C15.8842 65.1367 15.9388 65.0658 15.9732 64.9882C16.0075 64.9105 16.021 64.828 16.0126 64.7459H16.0067Z" fill="#E8A166"/>
<path d="M19.629 62.9588V65.7487H19.0409V65.4852C18.9394 65.5806 18.8118 65.6561 18.6681 65.7059C18.5243 65.7557 18.3682 65.7783 18.2117 65.7722C17.8859 65.7546 17.5807 65.6386 17.3577 65.4478C17.1348 65.2569 17.0107 65.0055 17.0107 64.7442C17.0107 64.483 17.1348 64.2316 17.3577 64.0407C17.5807 63.8499 17.8859 63.7339 18.2117 63.7163C18.3625 63.7104 18.513 63.7314 18.6523 63.7777C18.7917 63.8241 18.9164 63.8947 19.0174 63.9844V62.9541L19.629 62.9588ZM19.0409 64.7466C19.0329 64.63 18.9823 64.5179 18.8955 64.4241C18.8087 64.3303 18.6895 64.2588 18.5525 64.2186C18.4155 64.1784 18.2668 64.1712 18.1247 64.1978C17.9826 64.2244 17.8534 64.2838 17.7531 64.3685C17.6527 64.4532 17.5855 64.5596 17.5599 64.6745C17.5343 64.7895 17.5513 64.9079 17.6088 65.0151C17.6663 65.1224 17.7619 65.2139 17.8837 65.2782C18.0055 65.3425 18.1481 65.3768 18.294 65.377C18.3972 65.3799 18.4999 65.3653 18.5955 65.3344C18.6911 65.3034 18.7775 65.2566 18.8491 65.1972C18.9207 65.1377 18.9758 65.0668 19.0108 64.9892C19.0459 64.9116 19.0602 64.8289 19.0527 64.7466H19.0409Z" fill="#E8A166"/>
<path d="M22.8349 63.7399V65.7487H22.2468V65.4853C22.1463 65.5777 22.0213 65.6509 21.8809 65.6998C21.7405 65.7486 21.5883 65.7718 21.4353 65.7676C21.2875 65.7783 21.1386 65.7624 20.9995 65.7211C20.8604 65.6798 20.7346 65.6141 20.6314 65.5288C20.5282 65.4435 20.4502 65.3409 20.403 65.2283C20.3559 65.1158 20.3409 64.9962 20.359 64.8784V63.7305H20.9471V64.8172C20.9471 65.1795 21.1647 65.3536 21.5352 65.3536C21.9057 65.3536 22.2233 65.1513 22.2233 64.7467V63.7305L22.8349 63.7399Z" fill="#E8A166"/>
<path d="M23.3996 64.7468C23.3975 64.6064 23.4319 64.4672 23.5004 64.338C23.569 64.2087 23.6703 64.0923 23.7979 63.9959C23.9256 63.8995 24.0768 63.8254 24.242 63.7781C24.4073 63.7308 24.583 63.7115 24.7581 63.7212C24.9751 63.7084 25.1921 63.7459 25.383 63.8294C25.5739 63.9128 25.7306 64.0387 25.8343 64.1917L25.3815 64.4034C25.3176 64.3168 25.2264 64.2451 25.117 64.1956C25.0075 64.146 24.8838 64.1204 24.7581 64.1211C24.5491 64.1211 24.3486 64.1875 24.2008 64.3058C24.0531 64.424 23.97 64.5843 23.97 64.7515C23.97 64.9187 24.0531 65.0791 24.2008 65.1973C24.3486 65.3155 24.5491 65.3819 24.7581 65.3819C24.8838 65.3827 25.0075 65.357 25.117 65.3075C25.2264 65.258 25.3176 65.1863 25.3815 65.0997L25.8343 65.3114C25.7264 65.4614 25.5688 65.5847 25.3789 65.6677C25.189 65.7507 24.9742 65.7902 24.7581 65.7818C24.5822 65.791 24.4059 65.7708 24.2402 65.7227C24.0745 65.6746 23.9231 65.5996 23.7955 65.5023C23.6678 65.4051 23.5668 65.2878 23.4986 65.1577C23.4305 65.0277 23.3968 64.8878 23.3996 64.7468Z" fill="#E8A166"/>
<path d="M27.8868 65.6404C27.7154 65.7374 27.5083 65.7855 27.2987 65.7769C27.1831 65.7888 27.0657 65.7796 26.9553 65.75C26.8448 65.7204 26.7442 65.6711 26.661 65.6059C26.5778 65.5407 26.5141 65.4612 26.4748 65.3735C26.4355 65.2858 26.4216 65.192 26.4342 65.0994V64.1349H26.0166V63.7586H26.4342V63.2881H27.0223V63.7586H27.6986V64.1349H27.0399V65.0759C27.0327 65.1151 27.0366 65.1552 27.0514 65.1931C27.0662 65.2309 27.0915 65.2656 27.1254 65.2946C27.1594 65.3235 27.201 65.346 27.2473 65.3603C27.2936 65.3745 27.3433 65.3802 27.3928 65.377C27.511 65.3777 27.6265 65.348 27.7221 65.2923L27.8868 65.6404Z" fill="#E8A166"/>
<path d="M28.292 63.1325C28.2927 63.0944 28.303 63.0568 28.3221 63.0219C28.3412 62.987 28.3688 62.9555 28.4033 62.9293C28.4378 62.903 28.4785 62.8825 28.523 62.8689C28.5675 62.8553 28.6149 62.849 28.6625 62.8502C28.7098 62.8477 28.7573 62.8528 28.8021 62.8653C28.8468 62.8777 28.888 62.8973 28.9232 62.9227C28.9583 62.9482 28.9866 62.9791 29.0065 63.0135C29.0264 63.0479 29.0374 63.0852 29.0389 63.1231C29.0398 63.1624 29.0305 63.2014 29.0118 63.2378C28.993 63.2741 28.9651 63.3069 28.9298 63.3343C28.8945 63.3616 28.8526 63.3829 28.8066 63.3967C28.7606 63.4106 28.7116 63.4167 28.6625 63.4148C28.6147 63.4167 28.5669 63.4108 28.522 63.3975C28.4772 63.3842 28.4362 63.3637 28.4015 63.3373C28.3669 63.3109 28.3393 63.2791 28.3204 63.2439C28.3016 63.2087 28.2919 63.1708 28.292 63.1325ZM28.3684 63.7441H28.9566V65.753H28.3684V63.7441Z" fill="#E8A166"/>
<path d="M29.5216 64.7459C29.511 64.5319 29.5807 64.3203 29.7217 64.1383C29.8628 63.9564 30.0687 63.8123 30.3129 63.7247C30.5571 63.6371 30.8286 63.61 31.0922 63.6469C31.3559 63.6837 31.5997 63.7829 31.7924 63.9316C31.985 64.0802 32.1176 64.2716 32.1731 64.4811C32.2286 64.6906 32.2045 64.9085 32.1038 65.1069C32.0032 65.3053 31.8306 65.4751 31.6083 65.5944C31.386 65.7137 31.1242 65.777 30.8565 65.7762C30.6827 65.784 30.5086 65.763 30.3454 65.7145C30.1821 65.666 30.0331 65.591 29.9078 65.4943C29.7825 65.3975 29.6835 65.2811 29.617 65.1523C29.5505 65.0236 29.518 64.8852 29.5216 64.7459ZM31.6034 64.7459C31.5954 64.6293 31.5448 64.5172 31.458 64.4234C31.3712 64.3295 31.252 64.2581 31.115 64.2179C30.978 64.1777 30.8293 64.1704 30.6872 64.1971C30.5452 64.2237 30.416 64.2831 30.3156 64.3678C30.2152 64.4525 30.148 64.5589 30.1224 64.6738C30.0968 64.7888 30.1138 64.9072 30.1713 65.0144C30.2289 65.1217 30.3244 65.2132 30.4462 65.2775C30.568 65.3418 30.7106 65.3761 30.8565 65.3763C30.9589 65.3786 31.0608 65.3635 31.1554 65.3322C31.2501 65.3009 31.3354 65.2539 31.4059 65.1945C31.4763 65.135 31.5303 65.0643 31.5644 64.987C31.5984 64.9097 31.6117 64.8276 31.6034 64.7459Z" fill="#E8A166"/>
<path d="M35.2376 64.6V65.7479H34.6495V64.6612C34.6495 64.3036 34.426 64.1295 34.0614 64.1295C33.9627 64.1245 33.8638 64.1372 33.772 64.1666C33.6802 64.196 33.5978 64.2415 33.5307 64.2996C33.4637 64.3578 33.4137 64.4272 33.3844 64.5027C33.3552 64.5783 33.3473 64.6581 33.3615 64.7364V65.7479H32.7734V63.739H33.3321V64.0025C33.4424 63.9072 33.5776 63.8325 33.728 63.7838C33.8784 63.735 34.0404 63.7133 34.2025 63.7202C34.3464 63.7132 34.4904 63.7315 34.6245 63.774C34.7585 63.8164 34.8791 63.882 34.9779 63.966C35.0767 64.0499 35.1512 64.1503 35.1961 64.2598C35.2409 64.3694 35.2551 64.4855 35.2376 64.6Z" fill="#E8A166"/>
<path opacity="0.7" d="M81.5744 21.458H5.10352V60.2155H81.5744V21.458Z" fill="#E8A166"/>
<path opacity="0.5" d="M81.5744 58.9648H5.10352V60.2163H81.5744V58.9648Z" fill="#F2DDDD"/>
<path opacity="0.6" d="M31.5975 58.9648H5.10352V60.2163H31.5975V58.9648Z" fill="#E8A166"/>
<path d="M33.6318 59.6322C33.6318 59.9265 33.5227 60.2141 33.3182 60.4587C33.1138 60.7033 32.8232 60.8938 32.4833 61.0062C32.1433 61.1186 31.7694 61.1477 31.4087 61.09C31.0481 61.0322 30.7169 60.8902 30.4573 60.6818C30.1976 60.4734 30.0211 60.2081 29.95 59.9194C29.879 59.6307 29.9166 59.3316 30.0582 59.06C30.1998 58.7884 30.4389 58.5566 30.7453 58.3938C31.0516 58.231 31.4115 58.1446 31.7793 58.1455C32.0231 58.1455 32.2645 58.184 32.4896 58.2588C32.7148 58.3335 32.9192 58.4431 33.0913 58.5812C33.2634 58.7194 33.3998 58.8833 33.4925 59.0636C33.5853 59.244 33.6326 59.4372 33.6318 59.6322Z" fill="#E8A166"/>
<path opacity="0.4" d="M74.0469 63.4385L77.0991 65.8802L80.1455 63.4385H74.0469Z" fill="#E8A166"/>
<path opacity="0.4" d="M81.5744 71.168H5.10352V93.0495H81.5744V71.168Z" fill="#E8A166"/>
<path opacity="0.3" d="M35.5842 73.6758H8.71387V90.5468H35.5842V73.6758Z" fill="#F2DDDD"/>
<path d="M39.1191 75.8869C39.1314 75.678 39.2201 75.4766 39.3741 75.3077C39.5282 75.1388 39.7408 75.0098 39.9857 74.9366C40.2305 74.8635 40.4968 74.8494 40.7515 74.8963C41.0063 74.9431 41.2382 75.0487 41.4186 75.2L41.1246 75.4211C41.0419 75.3471 40.9403 75.2882 40.8266 75.2484C40.713 75.2087 40.5899 75.1889 40.4659 75.1906C40.3202 75.1907 40.1769 75.2201 40.0491 75.2761C39.9214 75.3321 39.8132 75.4129 39.7345 75.511C39.6559 75.6091 39.6093 75.7214 39.599 75.8377C39.5887 75.9539 39.615 76.0704 39.6756 76.1764C39.7362 76.2824 39.829 76.3745 39.9456 76.4444C40.0623 76.5142 40.199 76.5595 40.3432 76.5761C40.4874 76.5927 40.6345 76.5801 40.771 76.5394C40.9075 76.4987 41.0291 76.4313 41.1246 76.3432L41.4186 76.5738C41.2382 76.7251 41.0063 76.8307 40.7515 76.8775C40.4968 76.9243 40.2305 76.9103 39.9857 76.8371C39.7408 76.764 39.5282 76.635 39.3741 76.466C39.2201 76.2971 39.1314 76.0957 39.1191 75.8869Z" fill="#E8A166"/>
<path d="M43.6768 76.0097V76.8754H43.2357V76.0568C43.2357 75.7886 43.071 75.6568 42.7887 75.6568C42.7128 75.6532 42.6369 75.6633 42.5665 75.6863C42.4962 75.7094 42.4332 75.7448 42.3824 75.7901C42.3315 75.8353 42.294 75.8891 42.2728 75.9475C42.2515 76.0059 42.2469 76.0673 42.2594 76.1273V76.8895H41.8184V74.7959H42.2594V75.5581C42.3418 75.4927 42.4403 75.4418 42.5487 75.4086C42.657 75.3754 42.7728 75.3606 42.8887 75.3652C42.9958 75.3586 43.1035 75.3708 43.204 75.4011C43.3046 75.4313 43.3956 75.4788 43.4708 75.5403C43.5459 75.6017 43.6033 75.6756 43.6389 75.7567C43.6745 75.8378 43.6874 75.9242 43.6768 76.0097Z" fill="#E8A166"/>
<path d="M45.8119 75.9904V76.8749H45.4002V76.6914C45.3307 76.7614 45.2406 76.8165 45.138 76.8518C45.0354 76.8871 44.9234 76.9015 44.8121 76.8937C44.3828 76.8937 44.1123 76.7056 44.1123 76.4233C44.1123 76.141 44.324 75.9528 44.8945 75.9528H45.3767C45.3767 75.7458 45.2238 75.6235 44.9121 75.6235C44.7003 75.6182 44.4926 75.6713 44.324 75.774L44.1476 75.5153C44.3831 75.3878 44.6632 75.3235 44.9474 75.3318C45.5002 75.3647 45.8119 75.5576 45.8119 75.9904ZM45.3708 76.4044V76.2257H44.918C44.6181 76.2257 44.5357 76.3198 44.5357 76.428C44.5357 76.5362 44.671 76.635 44.8945 76.635C44.9942 76.6421 45.0942 76.6236 45.1799 76.5821C45.2655 76.5407 45.3324 76.4784 45.3708 76.4044Z" fill="#E8A166"/>
<path d="M48.3813 76.1224C48.388 76.2247 48.3679 76.3271 48.3222 76.4228C48.2764 76.5185 48.2062 76.6055 48.1159 76.6782C48.0256 76.7509 47.9172 76.8077 47.7978 76.8448C47.6785 76.882 47.5507 76.8987 47.4227 76.894C47.3125 76.8951 47.2031 76.8776 47.1018 76.8428C47.0005 76.8079 46.9095 76.7564 46.8346 76.6917V77.4209H46.3994V75.3649H46.817V75.5625C46.8967 75.4941 46.9946 75.4407 47.1035 75.4065C47.2124 75.3724 47.3296 75.3581 47.4462 75.3649C47.5707 75.363 47.6944 75.3813 47.8097 75.4188C47.9251 75.4563 48.0297 75.5122 48.1171 75.583C48.2046 75.6539 48.2732 75.7382 48.3186 75.831C48.364 75.9237 48.3853 76.0229 48.3813 76.1224ZM47.9285 76.1224C47.9342 76.0618 47.9241 76.001 47.8988 75.9437C47.8735 75.8864 47.8336 75.834 47.7816 75.7898C47.7296 75.7455 47.6667 75.7104 47.5968 75.6867C47.5269 75.6629 47.4516 75.6511 47.3757 75.6519C47.2197 75.6519 47.0701 75.7015 46.9598 75.7897C46.8495 75.878 46.7876 75.9976 46.7876 76.1224C46.7876 76.2472 46.8495 76.3669 46.9598 76.4551C47.0701 76.5433 47.2197 76.5929 47.3757 76.5929C47.4516 76.5937 47.5269 76.5819 47.5968 76.5582C47.6667 76.5344 47.7296 76.4993 47.7816 76.4551C47.8336 76.4108 47.8735 76.3584 47.8988 76.3011C47.9241 76.2438 47.9342 76.183 47.9285 76.1224Z" fill="#E8A166"/>
<path d="M49.9347 76.7763C49.8123 76.8482 49.663 76.8847 49.5113 76.8799C49.4247 76.8878 49.337 76.8802 49.2545 76.8577C49.172 76.8352 49.0968 76.7983 49.0343 76.7496C48.9718 76.701 48.9237 76.6419 48.8933 76.5765C48.8629 76.5112 48.851 76.4412 48.8585 76.3717V75.6472H48.5527V75.3649H48.8585V75.0215H49.2996V75.3649H49.7995V75.6472H49.2937V76.3623C49.2883 76.3918 49.2912 76.4218 49.3023 76.4502C49.3135 76.4786 49.3324 76.5047 49.3579 76.5264C49.3833 76.5481 49.4146 76.5649 49.4493 76.5756C49.484 76.5863 49.5213 76.5906 49.5584 76.5882C49.6468 76.5895 49.7334 76.5681 49.8054 76.527L49.9347 76.7763Z" fill="#E8A166"/>
<path d="M51.9987 76.2357H50.5167C50.5489 76.3401 50.6248 76.4325 50.7318 76.4975C50.8388 76.5626 50.9704 76.5964 51.1048 76.5932C51.1993 76.5964 51.2935 76.5838 51.3816 76.5563C51.4697 76.5287 51.5496 76.4868 51.6164 76.4333L51.8517 76.6497C51.7089 76.7629 51.5288 76.8412 51.3324 76.8755C51.136 76.9098 50.9315 76.8987 50.7427 76.8434C50.5539 76.7881 50.3887 76.691 50.2664 76.5634C50.1441 76.4358 50.0698 76.2829 50.0521 76.1227C50.0488 76.0199 50.0718 75.9176 50.1199 75.8222C50.1679 75.7268 50.2399 75.6402 50.3314 75.5679C50.4229 75.4956 50.5319 75.4391 50.6518 75.4018C50.7717 75.3645 50.8998 75.3473 51.0283 75.3512C51.1563 75.3471 51.284 75.3644 51.4031 75.4022C51.5222 75.4399 51.6301 75.4972 51.7198 75.5703C51.8096 75.6435 51.8792 75.7308 51.9242 75.8268C51.9692 75.9227 51.9885 76.0252 51.981 76.1275C52.0046 76.1557 51.9987 76.198 51.9987 76.2357ZM50.5167 76.0004H51.5635C51.5407 75.9008 51.475 75.8107 51.3777 75.7458C51.2805 75.681 51.1579 75.6454 51.0313 75.6454C50.9046 75.6454 50.782 75.681 50.6848 75.7458C50.5875 75.8107 50.5218 75.9008 50.499 76.0004H50.5167Z" fill="#E8A166"/>
<path d="M53.5157 75.3651V75.6991H53.4158C53.339 75.695 53.2621 75.7047 53.1906 75.7274C53.1191 75.7501 53.0548 75.7852 53.0024 75.8303C52.95 75.8753 52.9108 75.9292 52.8877 75.9879C52.8646 76.0466 52.8582 76.1086 52.8688 76.1696V76.9035H52.4277V75.3651H52.8453V75.5862C52.9247 75.5072 53.0278 75.4454 53.145 75.4068C53.2622 75.3681 53.3898 75.3538 53.5157 75.3651Z" fill="#E8A166"/>
<path d="M54.751 75.8873C54.751 75.2381 55.1921 74.8711 55.7802 74.8711C56.3682 74.8711 56.8152 75.2381 56.8152 75.8873C56.8152 76.5366 56.3682 76.9036 55.7802 76.9036C55.1921 76.9036 54.751 76.5366 54.751 75.8873ZM56.3506 75.8873C56.3506 75.4168 56.1154 75.191 55.7625 75.191C55.4096 75.191 55.1744 75.4074 55.1744 75.8873C55.1744 76.3672 55.4096 76.5836 55.7625 76.5836C56.1154 76.5836 56.3506 76.3625 56.3506 75.8873Z" fill="#E8A166"/>
<path d="M57.9616 74.8945V76.8705H57.5029V75.2003H56.9795V74.8945H57.9616Z" fill="#E8A166"/>
<path opacity="0.5" d="M74.6989 78.8516H39.6127C39.2554 78.8516 38.9658 79.0833 38.9658 79.3691V79.3973C38.9658 79.6831 39.2554 79.9148 39.6127 79.9148H74.6989C75.0562 79.9148 75.3458 79.6831 75.3458 79.3973V79.3691C75.3458 79.0833 75.0562 78.8516 74.6989 78.8516Z" fill="#E8A166"/>
<path opacity="0.5" d="M68.2298 81.2031H39.6127C39.2554 81.2031 38.9658 81.4348 38.9658 81.7206V81.7488C38.9658 82.0347 39.2554 82.2663 39.6127 82.2663H68.2298C68.5871 82.2663 68.8767 82.0347 68.8767 81.7488V81.7206C68.8767 81.4348 68.5871 81.2031 68.2298 81.2031Z" fill="#E8A166"/>
<path opacity="0.6" d="M17.7002 79.0293V85.1878L25.3984 82.1109L17.7002 79.0293Z" fill="#E8A166"/>
<path d="M80.8921 18.7294L78.1692 16.8522L75.4521 18.7294V13.5684H80.8921V18.7294Z" fill="white"/>
<path d="M71.0765 13.5684H66.9598C66.69 13.5684 66.4312 13.6541 66.2404 13.8068C66.0496 13.9594 65.9424 14.1664 65.9424 14.3823V16.6217C65.9439 16.8372 66.0516 17.0435 66.2421 17.1959C66.4326 17.3482 66.6904 17.4344 66.9598 17.4356H68.3477V18.7294L69.4063 17.4356H71.053C71.3228 17.4356 71.5816 17.3499 71.7724 17.1972C71.9632 17.0446 72.0704 16.8376 72.0704 16.6217V14.3823C72.072 14.1693 71.9685 13.9644 71.7825 13.812C71.5964 13.6596 71.3427 13.5721 71.0765 13.5684Z" fill="white"/>
<path d="M62.8664 14.2034C62.1137 13.2107 60.6552 13.5824 59.8965 14.3493C59.1496 13.5777 57.6911 13.1919 56.9207 14.1752C55.6269 15.8407 58.2616 17.4026 59.5143 18.0142L59.8671 18.1883L60.2259 18.0189C61.4785 17.3979 64.1426 15.8642 62.8664 14.2034Z" fill="white"/>
<path d="M32.5032 17.2051H6.52672C5.74071 17.2051 5.10352 17.7148 5.10352 18.3436V18.4142C5.10352 19.043 5.74071 19.5527 6.52672 19.5527H32.5032C33.2892 19.5527 33.9264 19.043 33.9264 18.4142V18.3436C33.9264 17.7148 33.2892 17.2051 32.5032 17.2051Z" fill="white"/>
<path d="M40.9836 13.5684H6.52672C5.74071 13.5684 5.10352 14.0781 5.10352 14.7069V14.7774C5.10352 15.4062 5.74071 15.916 6.52672 15.916H40.9836C41.7696 15.916 42.4068 15.4062 42.4068 14.7774V14.7069C42.4068 14.0781 41.7696 13.5684 40.9836 13.5684Z" fill="white"/>
<path opacity="0.4" d="M81.5744 95.6377H5.10352V117.519H81.5744V95.6377Z" fill="#E8A166"/>
<path opacity="0.3" d="M35.5842 98.1406H8.71387V115.012H35.5842V98.1406Z" fill="#F2DDDD"/>
<path d="M39.1191 100.352C39.1314 100.143 39.2201 99.9415 39.3741 99.7726C39.5282 99.6036 39.7408 99.4746 39.9857 99.4015C40.2305 99.3283 40.4968 99.3143 40.7515 99.3611C41.0063 99.4079 41.2382 99.5135 41.4186 99.6648L41.1246 99.8906C41.0419 99.8166 40.9403 99.7578 40.8266 99.718C40.713 99.6782 40.5899 99.6585 40.4659 99.6601C40.346 99.6522 40.2253 99.6643 40.1115 99.6955C39.9977 99.7268 39.8933 99.7767 39.8048 99.8419C39.7163 99.9071 39.6456 99.9863 39.5973 100.074C39.549 100.163 39.524 100.258 39.524 100.354C39.524 100.45 39.549 100.546 39.5973 100.634C39.6456 100.722 39.7163 100.801 39.8048 100.866C39.8933 100.931 39.9977 100.981 40.1115 101.013C40.2253 101.044 40.346 101.056 40.4659 101.048C40.5903 101.049 40.7135 101.028 40.8271 100.988C40.9408 100.947 41.0422 100.887 41.1246 100.813L41.4186 101.039C41.2382 101.19 41.0063 101.295 40.7515 101.342C40.4968 101.389 40.2305 101.375 39.9857 101.302C39.7408 101.229 39.5282 101.1 39.3741 100.931C39.2201 100.762 39.1314 100.561 39.1191 100.352Z" fill="#E8A166"/>
<path d="M43.6768 100.478V101.339H43.2357V100.521C43.2357 100.253 43.071 100.126 42.7887 100.126C42.7125 100.121 42.6361 100.13 42.5651 100.153C42.4942 100.176 42.4308 100.211 42.3797 100.257C42.3286 100.302 42.2911 100.356 42.2703 100.415C42.2495 100.474 42.2457 100.536 42.2594 100.596V101.358H41.8184V99.2646H42.2594V100.027C42.3426 99.9624 42.4413 99.9121 42.5494 99.8789C42.6576 99.8458 42.773 99.8305 42.8887 99.8339C42.9956 99.8281 43.1028 99.8409 43.2029 99.8715C43.3029 99.902 43.3936 99.9496 43.4685 100.011C43.5434 100.072 43.6008 100.146 43.6367 100.226C43.6727 100.307 43.6864 100.393 43.6768 100.478Z" fill="#E8A166"/>
<path d="M45.8119 100.455V101.34H45.4002V101.156C45.3314 101.227 45.2415 101.283 45.1387 101.318C45.0358 101.353 44.9235 101.367 44.8121 101.359C44.3828 101.359 44.1123 101.17 44.1123 100.888C44.1123 100.606 44.324 100.418 44.8945 100.418H45.3767C45.3767 100.211 45.2238 100.093 44.9121 100.093C44.7014 100.089 44.4947 100.14 44.324 100.239L44.1476 99.9849C44.3811 99.8536 44.6622 99.7875 44.9474 99.7967C45.5002 99.8297 45.8119 100.023 45.8119 100.455ZM45.3708 100.869V100.695H44.918C44.6181 100.695 44.5357 100.785 44.5357 100.893C44.5357 101.001 44.671 101.105 44.8945 101.105C44.9948 101.111 45.0948 101.091 45.1804 101.049C45.266 101.007 45.3326 100.944 45.3708 100.869Z" fill="#E8A166"/>
<path d="M48.3813 100.587C48.388 100.689 48.3679 100.791 48.3222 100.887C48.2764 100.983 48.2062 101.07 48.1159 101.143C48.0256 101.215 47.9172 101.272 47.7978 101.309C47.6785 101.346 47.5507 101.363 47.4227 101.358C47.3125 101.359 47.2031 101.342 47.1018 101.307C47.0005 101.272 46.9095 101.221 46.8346 101.156V101.885H46.3994V99.8293H46.817V100.027C46.8959 99.9576 46.9937 99.9037 47.1028 99.8694C47.2119 99.8352 47.3294 99.8214 47.4462 99.8293C47.5707 99.8273 47.6944 99.8457 47.8097 99.8831C47.9251 99.9206 48.0297 99.9765 48.1171 100.047C48.2046 100.118 48.2732 100.203 48.3186 100.295C48.364 100.388 48.3853 100.487 48.3813 100.587ZM47.9285 100.587C47.9342 100.526 47.9241 100.465 47.8988 100.408C47.8735 100.351 47.8336 100.298 47.7816 100.254C47.7296 100.21 47.6667 100.175 47.5968 100.151C47.5269 100.127 47.4516 100.115 47.3757 100.116C47.2197 100.116 47.0701 100.166 46.9598 100.254C46.8495 100.342 46.7876 100.462 46.7876 100.587C46.7876 100.712 46.8495 100.831 46.9598 100.919C47.0701 101.008 47.2197 101.057 47.3757 101.057C47.4516 101.058 47.5269 101.046 47.5968 101.023C47.6667 100.999 47.7296 100.964 47.7816 100.919C47.8336 100.875 47.8735 100.823 47.8988 100.765C47.9241 100.708 47.9342 100.647 47.9285 100.587Z" fill="#E8A166"/>
<path d="M49.9347 101.241C49.8104 101.309 49.662 101.344 49.5113 101.34C49.4247 101.348 49.337 101.34 49.2545 101.318C49.172 101.295 49.0968 101.258 49.0343 101.21C48.9718 101.161 48.9237 101.102 48.8933 101.037C48.8629 100.971 48.851 100.901 48.8585 100.832V100.107H48.5527V99.8298H48.8585V99.4863H49.2996V99.8298H49.7995V100.112H49.2937V100.832C49.2881 100.861 49.291 100.891 49.3021 100.919C49.3132 100.947 49.3323 100.973 49.3579 100.995C49.3835 101.016 49.4149 101.032 49.4496 101.042C49.4844 101.053 49.5216 101.056 49.5584 101.053C49.6468 101.054 49.7334 101.033 49.8054 100.992L49.9347 101.241Z" fill="#E8A166"/>
<path d="M51.9987 100.699H50.5167C50.5477 100.805 50.6231 100.898 50.7303 100.964C50.8374 101.03 50.9696 101.065 51.1048 101.062C51.1996 101.064 51.2941 101.051 51.3821 101.022C51.4702 100.994 51.5499 100.951 51.6164 100.897L51.8517 101.114C51.7089 101.227 51.5288 101.305 51.3324 101.339C51.136 101.374 50.9315 101.363 50.7427 101.307C50.5539 101.252 50.3887 101.155 50.2664 101.027C50.1441 100.9 50.0698 100.747 50.0521 100.587C50.0488 100.484 50.0718 100.381 50.1199 100.286C50.1679 100.191 50.2399 100.104 50.3314 100.032C50.4229 99.9594 50.5319 99.9029 50.6518 99.8656C50.7717 99.8283 50.8998 99.8111 51.0283 99.815C51.1566 99.8115 51.2844 99.8295 51.4035 99.8678C51.5226 99.9061 51.6304 99.9638 51.7201 100.037C51.8097 100.111 51.8792 100.198 51.9242 100.295C51.9691 100.391 51.9885 100.493 51.981 100.596C52.0046 100.624 51.9987 100.667 51.9987 100.699ZM50.5167 100.464H51.5635C51.5407 100.365 51.475 100.275 51.3777 100.21C51.2805 100.145 51.1579 100.109 51.0313 100.109C50.9046 100.109 50.782 100.145 50.6848 100.21C50.5875 100.275 50.5218 100.365 50.499 100.464H50.5167Z" fill="#E8A166"/>
<path d="M53.5157 99.8295V100.168C53.4826 100.164 53.4489 100.164 53.4158 100.168C53.3387 100.163 53.2613 100.172 53.1892 100.195C53.1172 100.217 53.0524 100.252 52.9998 100.297C52.9472 100.343 52.908 100.397 52.8854 100.456C52.8627 100.515 52.857 100.578 52.8688 100.639V101.368H52.4277V99.8295H52.8453V100.051C52.924 99.9709 53.027 99.9087 53.1444 99.87C53.2618 99.8312 53.3897 99.8173 53.5157 99.8295Z" fill="#E8A166"/>
<path d="M54.751 100.352C54.751 99.7029 55.1921 99.3359 55.7802 99.3359C56.3682 99.3359 56.8152 99.7029 56.8152 100.352C56.8152 101.001 56.3682 101.368 55.7802 101.368C55.1921 101.368 54.751 101.001 54.751 100.352ZM56.3506 100.352C56.3506 99.8817 56.1154 99.6559 55.7625 99.6559C55.4096 99.6559 55.1744 99.877 55.1744 100.352C55.1744 100.827 55.4096 101.048 55.7625 101.048C56.1154 101.048 56.3506 100.827 56.3506 100.352Z" fill="#E8A166"/>
<path d="M58.8967 101.029V101.34H57.0736V101.095L58.0557 100.352C58.2969 100.168 58.338 100.05 58.338 99.9422C58.338 99.7588 58.1792 99.6553 57.8793 99.6553C57.7678 99.6501 57.6563 99.6661 57.5541 99.7021C57.4519 99.7381 57.3618 99.793 57.2912 99.8623L56.9736 99.6647C57.0862 99.5548 57.2295 99.4678 57.3919 99.4106C57.5544 99.3533 57.7315 99.3276 57.9087 99.3353C58.4498 99.3353 58.7909 99.5518 58.7909 99.9046C58.7884 100.026 58.7504 100.146 58.6799 100.254C58.6095 100.361 58.5085 100.455 58.3851 100.526L57.7264 101.029H58.8967Z" fill="#E8A166"/>
<path opacity="0.5" d="M74.6989 103.315H39.6127C39.2554 103.315 38.9658 103.547 38.9658 103.833V103.861C38.9658 104.147 39.2554 104.379 39.6127 104.379H74.6989C75.0562 104.379 75.3458 104.147 75.3458 103.861V103.833C75.3458 103.547 75.0562 103.315 74.6989 103.315Z" fill="#E8A166"/>
<path opacity="0.5" d="M68.2298 105.668H39.6127C39.2554 105.668 38.9658 105.9 38.9658 106.185V106.214C38.9658 106.5 39.2554 106.731 39.6127 106.731H68.2298C68.5871 106.731 68.8767 106.5 68.8767 106.214V106.185C68.8767 105.9 68.5871 105.668 68.2298 105.668Z" fill="#E8A166"/>
<path opacity="0.6" d="M17.7002 103.499V109.657L25.3984 106.576L17.7002 103.499Z" fill="#E8A166"/>
<path d="M38.1133 45.1657L35.3786 44.093C35.3786 44.093 34.567 42.6534 34.5082 42.6816C34.4494 42.7099 29.2741 41.8301 29.2741 41.8301C29.2741 41.8301 29.2153 44.2718 29.7975 44.794C30.3798 45.3163 33.9143 45.5515 34.0966 45.6409C34.2789 45.7303 34.6847 45.4386 34.6847 45.4386L37.6252 46.9676L38.1133 45.1657Z" fill="#E8A166"/>
<path d="M67.9888 26.7606C67.9888 26.7606 66.8538 24.667 63.1899 24.667C59.526 24.667 56.4738 26.4124 56.6502 28.6472C56.8266 30.8819 54.7271 30.6702 54.3801 32.8344C54.0331 34.9985 55.3387 35.5537 55.4269 36.4617C55.5152 37.3697 54.0331 37.0921 53.0745 38.6259C52.1159 40.1596 50.8927 42.3238 54.9976 45.2125C59.1026 48.1012 70.6999 47.5648 73.2288 45.8382C75.7576 44.1116 75.6753 40.743 73.2288 39.835C70.7823 38.927 73.0582 39.0681 73.317 37.0451C73.5758 35.0221 71.3116 34.2552 71.4821 32.6462C71.6527 31.0372 72.2643 26.9064 67.9888 26.7606Z" fill="black"/>
<path d="M53.7512 40.3428V46.0967C53.7512 46.0967 53.1337 46.713 52.2104 47.5081C51.2376 48.3581 50.1707 49.1359 49.0229 49.8322C47.9172 50.4721 46.8057 50.9096 45.9059 50.8202C43.0595 50.5238 35.3789 46.9953 35.3789 46.9953L36.661 44.2806C36.661 44.2806 45.3825 47.8704 45.9059 47.4987C46.4294 47.127 52.1516 40.6674 53.7512 40.3428Z" fill="white"/>
<path opacity="0.2" d="M52.2108 47.5037C51.238 48.3536 50.1711 49.1315 49.0232 49.8278C48.6057 47.259 52.2872 44.0928 52.2872 44.0928C52.2872 44.0928 52.3402 45.7253 52.2108 47.5037Z" fill="#F2DDDD"/>
<path d="M68.0301 58.9641H59.3908H59.1379H52.9688C52.9982 58.7477 53.0217 58.5548 53.0452 58.3995C53.0687 58.2443 53.0864 58.0608 53.0981 57.9573C53.1099 57.8538 53.0981 57.8679 53.0981 57.8255C53.0953 57.8115 53.0953 57.7972 53.0981 57.7832H53.6862H54.4096L56.268 57.8397L59.4614 57.9338L62.6077 58.0278L63.3311 58.0514L66.0717 58.1313L67.5772 58.1784C67.7595 58.4607 67.8948 58.71 68.0301 58.9641Z" fill="white"/>
<path opacity="0.4" d="M68.0301 58.9641H59.3908H59.1379H52.9688C52.9982 58.7477 53.0217 58.5548 53.0452 58.3995C53.0687 58.2443 53.0864 58.0608 53.0981 57.9573C53.1099 57.8538 53.0981 57.8679 53.0981 57.8255C53.0953 57.8115 53.0953 57.7972 53.0981 57.7832H53.6862H54.4096L56.268 57.8397L59.4614 57.9385L62.6077 58.0326H63.3311L66.0717 58.1125L67.5772 58.1596C67.7595 58.4607 67.8948 58.71 68.0301 58.9641Z" fill="#E8A166"/>
<path d="M67.6124 58.9645H62.7252L62.59 58.9598L59.4084 58.8092L56.215 58.6634L54.3918 58.5787L53.6744 58.5458L53.051 58.5175H53.0451V58.3999L52.998 56.5039H53.0098L53.2568 56.5227L53.7567 56.5557L54.4742 56.6027L62.6664 57.1579L63.3839 57.2049L66.001 57.379L67.5771 57.4872L67.5947 58.2164V58.2211L67.6124 58.9645Z" fill="black"/>
<path d="M59.5612 57.044V57.0628L59.4789 57.9708V57.9755L59.4083 58.8082L59.3906 58.9635V58.9776L59.1378 58.9635L56.2031 58.7988L56.2149 58.6624L56.2855 57.8767L56.3737 56.8935V56.8652L59.5612 57.044Z" fill="#E8A166"/>
<path d="M63.3955 56.8616L63.3838 57.205L63.3779 57.2662L63.3485 58.0895V58.0942L63.3132 58.9646H62.5898V58.9599L62.6251 58.0707V58.066L62.6604 57.2286L62.6663 57.158L62.6781 56.8428L63.3838 56.8616H63.3955Z" fill="white"/>
<path opacity="0.4" d="M63.3955 56.8616L63.3838 57.205L63.3779 57.2662L63.3485 58.0895V58.0942L63.3132 58.9646H62.5898V58.9599L62.6251 58.0707V58.066L62.6604 57.2286L62.6663 57.158L62.6781 56.8428L63.3838 56.8616H63.3955Z" fill="#E8A166"/>
<path d="M54.4923 56.2171L54.4747 56.6028L54.4688 56.791L54.4276 57.8214L54.3924 58.5788L54.3747 58.9646H53.6572L53.6749 58.5459L53.7043 57.8025L53.7454 56.7534L53.7572 56.5558L53.769 56.1982L54.4923 56.2171Z" fill="white"/>
<path opacity="0.4" d="M54.4923 56.2171L54.4747 56.6028L54.4688 56.791L54.4276 57.8214L54.3924 58.5788L54.3747 58.9646H53.6572L53.6749 58.5459L53.7043 57.8025L53.7454 56.7534L53.7572 56.5558L53.769 56.1982L54.4923 56.2171Z" fill="#E8A166"/>
<path d="M53.0274 56.7197L67.577 57.4866C67.8064 54.5932 68.071 53.7228 69.159 50.2508C69.506 49.1358 69.9412 47.8984 70.5058 46.4541C70.8057 45.6825 71.135 44.8592 71.5056 43.97C71.782 43.2972 72.0937 42.5586 72.4112 41.8246C70.4361 41.3187 68.4175 40.9287 66.3714 40.6579C64.2131 40.3478 62.0294 40.1638 59.8376 40.1074C57.003 40.1074 53.7508 40.3427 53.7508 40.3427C53.7508 40.3427 53.2862 40.4321 52.9921 42.8315C52.7392 45.0897 52.4452 48.5147 53.0274 56.7197Z" fill="black"/>
<path opacity="0.4" d="M53.0274 56.7197L67.577 57.4866C67.8064 54.5932 68.071 53.7228 69.159 50.2508C69.506 49.1358 69.9412 47.8984 70.5058 46.4541C70.8057 45.6825 71.135 44.8592 71.5056 43.97C71.782 43.2972 72.0937 42.5586 72.4112 41.8246C70.4361 41.3187 68.4175 40.9287 66.3714 40.6579C64.2131 40.3478 62.0294 40.1638 59.8376 40.1074C57.003 40.1074 53.7508 40.3427 53.7508 40.3427C53.7508 40.3427 53.2862 40.4321 52.9921 42.8315C52.7392 45.0897 52.4452 48.5147 53.0274 56.7197Z" fill="#E8A166"/>
<path d="M61.038 42.6766C64.6254 42.3096 65.7016 41.0817 65.7016 41.0817C63.4256 39.3645 65.3193 36.377 65.3193 36.377L60.9733 37.0356C61.0762 37.516 61.1332 38.002 61.1438 38.4894C61.1791 40.583 59.9676 40.6065 59.9676 40.6065C59.256 41.7403 61.038 42.6766 61.038 42.6766Z" fill="#E8A166"/>
<path opacity="0.2" d="M60.9727 37.036C61.0756 37.5164 61.1326 38.0024 61.1432 38.4897C62.0077 38.4701 62.8495 38.2644 63.5802 37.8943C64.3109 37.5242 64.9033 37.0034 65.2952 36.3867L60.9727 37.036Z" fill="#F2DDDD"/>
<path d="M63.3839 27.3769C59.6318 27.2123 58.3144 28.7884 57.8263 31.8511C57.2382 35.7043 58.1027 38.4989 62.8546 37.8779C69.3061 37.0311 69.6178 27.6451 63.3839 27.3769Z" fill="#E8A166"/>
<path d="M60.267 31.7852C59.9369 32.2201 59.5419 32.6214 59.0908 32.9802C59.1927 33.1095 59.3371 33.214 59.5083 33.282C59.6795 33.3501 59.8708 33.3791 60.0612 33.3659L60.267 31.7852Z" fill="#E8A166"/>
<path d="M62.5781 31.6392C62.5781 31.8839 62.7016 32.1097 62.9075 32.1097C63.1133 32.1097 63.3015 31.9309 63.325 31.6863C63.3486 31.4416 63.2015 31.2158 62.9957 31.2158C62.7899 31.2158 62.6016 31.3946 62.5781 31.6392Z" fill="black"/>
<path d="M63.0786 31.2345L62.4316 30.9805C62.4316 30.9805 62.7375 31.4556 63.0786 31.2345Z" fill="black"/>
<path d="M58.7559 31.3473C58.7559 31.5966 58.8794 31.8178 59.0852 31.8178C59.291 31.8178 59.4733 31.6437 59.4969 31.3943C59.5204 31.145 59.3792 30.9238 59.1734 30.9238C58.9676 30.9238 58.7794 31.1026 58.7559 31.3473Z" fill="black"/>
<path d="M59.2553 30.9428L58.6201 30.6699C58.6201 30.6699 58.8965 31.1639 59.2553 30.9428Z" fill="black"/>
<path d="M64.3548 30.2662C64.3216 30.2653 64.2891 30.2585 64.2596 30.2463C64.2301 30.2341 64.2044 30.2167 64.1843 30.1956C64.0082 30.0375 63.7899 29.9131 63.5456 29.8317C63.3012 29.7502 63.0371 29.7138 62.7728 29.7251C62.7167 29.7282 62.6613 29.7134 62.6188 29.6838C62.5764 29.6543 62.5503 29.6124 62.5464 29.5675C62.5425 29.5226 62.5611 29.4783 62.598 29.4443C62.635 29.4103 62.6873 29.3895 62.7434 29.3864C63.0748 29.3693 63.4066 29.4139 63.7127 29.5168C64.0189 29.6196 64.291 29.7779 64.5077 29.9792C64.5391 30.0165 64.5517 30.062 64.543 30.1065C64.5342 30.151 64.5048 30.1912 64.4607 30.2191C64.4305 30.2413 64.3943 30.2574 64.3548 30.2662Z" fill="black"/>
<path d="M58.5262 29.6726C58.4892 29.6724 58.4529 29.6645 58.4209 29.6497C58.3889 29.6348 58.3624 29.6135 58.3439 29.5879C58.3293 29.5689 58.3197 29.5477 58.3157 29.5256C58.3116 29.5036 58.3132 29.4811 58.3204 29.4595C58.3275 29.4379 58.3401 29.4178 58.3572 29.4002C58.3744 29.3827 58.3959 29.3681 58.4203 29.3573C58.6676 29.2236 58.9497 29.1368 59.2453 29.1034C59.5408 29.0699 59.8419 29.0908 60.1258 29.1644C60.1766 29.1839 60.2163 29.218 60.237 29.2598C60.2577 29.3017 60.2579 29.3483 60.2376 29.3903C60.2132 29.4309 60.1707 29.4626 60.1183 29.4792C60.066 29.4958 60.0078 29.496 59.9553 29.4797C59.733 29.4264 59.4986 29.4139 59.2695 29.4433C59.0403 29.4726 58.8225 29.5429 58.6321 29.6491C58.5999 29.664 58.5634 29.6721 58.5262 29.6726Z" fill="black"/>
<path d="M60.5205 34.57C60.6753 34.9166 60.7972 35.272 60.8851 35.6333H61.1321C62.2319 35.5957 62.72 35.2851 62.9376 34.9558C63.034 34.791 63.0823 34.6108 63.0788 34.4289C63.0798 34.3257 63.064 34.2229 63.0317 34.123C62.3681 34.3909 61.6397 34.5402 60.8969 34.5606C60.6675 34.57 60.5205 34.57 60.5205 34.57Z" fill="black"/>
<path d="M60.8965 34.5518L61.0141 34.8622C62.0492 34.8246 62.7784 34.6835 63.0783 34.42C63.0794 34.3169 63.0635 34.2141 63.0313 34.1143C62.3677 34.3821 61.6393 34.5314 60.8965 34.5518Z" fill="#E8A166"/>
<path d="M61.1318 35.6248C62.2316 35.5871 62.7197 35.2766 62.9373 34.9473C62.5194 34.9683 62.1093 35.0479 61.7258 35.1825C61.4753 35.2771 61.2677 35.4316 61.1318 35.6248Z" fill="white"/>
<path d="M67.1421 32.6135C67.1421 32.6135 65.5542 30.0683 65.9659 28.177C65.9659 28.177 58.691 25.42 57.9089 31.4703C57.9089 31.4703 57.5501 26.074 64.0134 26.234C70.4766 26.3939 69.9297 33.9496 66.4422 36.0526C66.4305 36.0291 68.1242 34.2037 67.1421 32.6135Z" fill="black"/>
<path d="M67.5241 27.085C67.5241 27.085 64.5836 24.9914 61.9136 25.3866C59.2436 25.7818 59.7024 28.5999 63.2192 29.6679C66.7361 30.7358 67.4653 32.1143 67.4653 32.1143L70.5176 29.9266L67.5241 27.085Z" fill="black"/>
<path d="M68.1653 32.2742L67.8772 32.2224C67.8772 32.2224 67.9889 31.5214 65.6718 30.8722C63.2253 30.19 60.4494 29.4137 60.0789 27.847C59.9993 27.6241 59.9796 27.3901 60.0212 27.1606C60.0628 26.9312 60.1646 26.7113 60.3201 26.5156C60.4155 26.4159 60.5349 26.3325 60.6712 26.2702C60.8076 26.208 60.9581 26.1683 61.114 26.1533V26.3886C60.9981 26.4001 60.8863 26.4303 60.7853 26.4772C60.6842 26.524 60.596 26.5867 60.5259 26.6614C60.3967 26.831 60.3136 27.0205 60.2822 27.2175C60.2508 27.4145 60.2717 27.6146 60.3436 27.8047C60.6788 29.2396 63.3723 29.9877 65.7482 30.651C68.3594 31.3756 68.1712 32.2365 68.1653 32.2742Z" fill="black"/>
<path d="M66.4834 33.2198C66.5462 32.8746 66.7764 32.563 67.1242 32.3526C67.472 32.1421 67.9095 32.0497 68.3418 32.0954C69.518 32.246 69.9238 34.1843 66.9951 34.5136C66.5775 34.5607 66.3658 34.2267 66.4834 33.2198Z" fill="#E8A166"/>
<path d="M69.0299 41.4014C69.0299 41.4014 64.8191 44.1349 60.8964 44.0925C56.9738 44.0502 55.6035 40.5216 55.6035 40.5216C60.0856 39.7031 64.7741 40.0103 69.0299 41.4014Z" fill="#E8A166"/>
<path d="M72.412 41.8252L72.0415 45.3726L71.9357 46.3888L71.7298 48.3836L70.7654 57.6472L70.6242 58.9645H66.1958C66.1566 58.7105 66.1213 58.447 66.09 58.1741C66.0547 57.9248 66.0311 57.6707 66.0076 57.4073V57.1673C65.8194 55.0549 65.7959 52.6038 65.8488 50.242C65.8488 49.2164 65.9077 48.2048 65.9488 47.2498C65.9488 46.8264 65.99 46.4123 66.0135 46.0124C66.037 45.6125 66.0488 45.3397 66.0664 45.0244C66.0664 45.0009 66.0664 44.9774 66.0664 44.9539C66.0664 44.8927 66.0664 44.8363 66.0664 44.7751C66.0664 44.3611 66.1194 43.9659 66.1429 43.5989C66.1429 43.3778 66.1782 43.1661 66.1899 42.9685C66.1868 42.9482 66.1868 42.9276 66.1899 42.9073C66.1899 42.7615 66.1899 42.6203 66.1899 42.4886C66.2605 41.5477 66.3193 40.9219 66.337 40.7432C66.3383 40.7259 66.3383 40.7086 66.337 40.6914C67.8675 40.8688 69.3792 41.1377 70.8595 41.4959L71.7357 41.7029L72.1298 41.8017L72.265 41.8346H72.3474L72.412 41.8252Z" fill="white"/>
<path opacity="0.4" d="M67.019 45.2122L68.1188 46.5625L65.8252 50.2086C65.9311 45.2216 66.3721 40.6533 66.3721 40.6533L69.8713 43.2597L67.019 45.2122Z" fill="#E8A166"/>
<path opacity="0.4" d="M58.5203 40.0791C58.4262 40.2155 56.4031 43.156 54.7917 48.797L54.0684 45.1649L55.5915 44.0922L54.0684 41.7681L58.5203 40.0791Z" fill="#E8A166"/>
<path d="M78.3045 52.7819C78.2361 52.9388 78.1233 53.081 77.9751 53.1974C77.8268 53.3138 77.6471 53.4013 77.4497 53.4532C77.2524 53.5051 77.0428 53.5199 76.8371 53.4965C76.6314 53.4731 76.4353 53.4121 76.2638 53.3183C75.5379 52.9937 74.9205 52.5337 74.4642 51.9774C74.0996 51.5587 73.6115 50.9283 73.1057 50.2602C72.0295 48.8159 70.9121 47.2163 70.9121 47.2163L72.4177 41.8105C74.5819 42.6527 79.1161 51.3988 78.3045 52.7819Z" fill="white"/>
<path opacity="0.2" d="M76.2636 53.3326C75.5376 53.008 74.9203 52.548 74.464 51.9917C74.0994 51.573 73.6112 50.9426 73.1055 50.2745C73.4892 49.7132 73.9154 49.1712 74.3817 48.6514L75.4755 51.1119C75.4755 51.1119 77.3927 51.4601 77.6986 52.2599C77.8162 52.5657 77.1634 52.9938 76.2636 53.3326Z" fill="#F2DDDD"/>
<path d="M76.1991 46.3037L72.5764 57.3504C72.5303 57.4791 72.429 57.5906 72.2902 57.6655C72.1515 57.7404 71.9842 57.7737 71.8177 57.7597L62.2023 56.734C62.1258 56.7276 62.0519 56.7078 61.9861 56.676C61.9202 56.6441 61.864 56.6011 61.8213 56.5499C61.7786 56.4987 61.7506 56.4405 61.7392 56.3797C61.7278 56.3188 61.7333 56.2567 61.7553 56.1977L65.378 45.151C65.4253 45.0232 65.5271 44.9127 65.6657 44.8388C65.8043 44.7648 65.971 44.7322 66.1367 44.7464L75.7521 45.7674C75.8287 45.7738 75.9025 45.7936 75.9683 45.8254C76.0342 45.8573 76.0904 45.9003 76.1331 45.9515C76.1758 46.0028 76.2038 46.0609 76.2152 46.1217C76.2266 46.1826 76.2211 46.2447 76.1991 46.3037Z" fill="black"/>
<path opacity="0.1" d="M76.1985 46.3038L72.5758 57.3505C72.5297 57.4792 72.4284 57.5908 72.2896 57.6656C72.1509 57.7405 71.9836 57.7738 71.8172 57.7598L62.6428 56.7812C62.5662 56.7746 62.4923 56.7548 62.4263 56.723C62.3603 56.6912 62.3037 56.6483 62.2606 56.5972C62.2175 56.5461 62.1888 56.4881 62.1766 56.4273C62.1644 56.3664 62.169 56.3042 62.1899 56.2449L65.8185 45.1982C65.8635 45.0703 65.964 44.9593 66.1019 44.8852C66.2398 44.8111 66.4062 44.7786 66.5713 44.7936L75.7516 45.7675C75.8281 45.7739 75.9019 45.7937 75.9678 45.8256C76.0336 45.8574 76.0899 45.9005 76.1325 45.9517C76.1752 46.0029 76.2033 46.061 76.2147 46.1219C76.2261 46.1827 76.2206 46.2449 76.1985 46.3038Z" fill="#E8A166"/>
<path opacity="0.3" d="M69.5242 50.5189C69.2873 50.4971 69.0485 50.5434 68.8503 50.6493C68.6521 50.7553 68.5074 50.9142 68.4421 51.0976C68.4114 51.1821 68.4042 51.2709 68.4209 51.3577C68.4377 51.4446 68.478 51.5275 68.5391 51.6006C68.6002 51.6737 68.6806 51.7352 68.7746 51.7808C68.8685 51.8264 68.9739 51.855 69.0831 51.8645C69.3215 51.8863 69.5618 51.8396 69.7611 51.7327C69.9604 51.6259 70.1057 51.4658 70.1711 51.2811C70.0616 51.2729 69.9557 51.2454 69.861 51.2005C69.7663 51.1557 69.6851 51.0947 69.6233 51.0219C69.5615 50.9491 69.5206 50.8662 69.5034 50.7793C69.4863 50.6924 69.4934 50.6035 69.5242 50.5189Z" fill="#E8A166"/>
<path d="M76.9813 55.4023C76.3344 55.6752 74.87 55.2612 74.4289 55.12L74.2878 55.0777C74.2878 55.0777 73.4939 52.9935 75.5699 51.8691L75.6169 51.8455C76.2814 51.5633 78.328 51.9302 78.3927 52.4807C78.6162 54.706 77.7517 55.0777 76.9813 55.4023Z" fill="white"/>
<path opacity="0.2" d="M75.7169 53.6241C75.5173 54.2272 75.062 54.756 74.4289 55.1202L74.2878 55.0779C74.2878 55.0779 73.4939 52.9937 75.5699 51.8692L75.6169 51.8457C75.7992 52.0339 76.0815 52.5279 75.7169 53.6241Z" fill="#F2DDDD"/>
<path d="M72.7354 50.9848C72.7354 50.9848 74.0704 50.9377 74.682 50.9848C75.2937 51.0318 75.1055 52.6079 75.1055 52.6079L75.6347 52.8337C75.6347 52.8337 76.0582 53.7747 75.1466 54.2452L74.6703 54.1181C74.5839 54.3444 74.406 54.5414 74.1645 54.678C73.7822 54.8615 71.9238 54.4428 71.9238 54.4428L72.7354 50.9848Z" fill="#E8A166"/>
<path opacity="0.6" d="M10.9663 5.62695H12.166V4.34725H10.9663V5.62695Z" fill="#E8A166"/>
<path opacity="0.6" d="M9.00829 5.62695H10.208V3.92386H9.00829V5.62695Z" fill="#E8A166"/>
<path opacity="0.6" d="M7.062 5.62695H8.26172V3.49573H7.062V5.62695Z" fill="#E8A166"/>
<path opacity="0.6" d="M5.10299 5.62695H6.30273V3.06761H5.10299V5.62695Z" fill="#E8A166"/>
<path opacity="0.6" d="M75.3288 3.88086H74.6172V5.16051H75.3288V3.88086Z" fill="#E8A166"/>
<path opacity="0.6" d="M75.817 5.62695L81.4805 5.62695V3.41577L75.817 3.41577V5.62695Z" fill="#E8A166"/>
<g opacity="0.1">
<path opacity="0.1" d="M38.9784 3.5383L14.2076 77.7599L13.9312 78.5974L13.4842 79.9335L13.2019 80.7663L0.263672 119.524V72.6177L24.5111 0.00976562H25.2992C25.6212 0.0140533 25.9343 0.0951512 26.1983 0.242672C26.4623 0.390193 26.6653 0.597415 26.7812 0.837793L27.7398 2.71968C27.8569 2.95866 28.0605 3.16424 28.3245 3.31009C28.5885 3.45593 28.901 3.53539 29.2218 3.5383H38.9784Z" fill="#E8A166"/>
<path opacity="0.1" d="M86.309 41.4443V88.3504L71.0772 134H55.4219L57.2862 128.416L57.6978 127.188L58.5153 124.737L58.927 123.509L59.7444 121.053L60.1502 119.83L73.0297 81.2416V81.2369L73.6236 79.4538V79.4491L86.309 41.4443Z" fill="#E8A166"/>
<path opacity="0.1" d="M47.4475 3.53906L22.8413 77.2996L22.6943 77.7418L21.3476 81.7832L21.2005 82.2207L3.92798 134.001H2.58711C2.28637 134.004 1.98794 133.959 1.70925 133.868C1.43056 133.778 1.1772 133.644 0.96395 133.474C0.855438 133.39 0.758799 133.297 0.675781 133.196L17.6896 82.2207L17.8366 81.7832L19.1833 77.7418L19.3304 77.2996L43.9189 3.53906H47.4475Z" fill="#E8A166"/>
</g>
</svg>
