<svg width="98" height="122" viewBox="0 0 98 122" fill="none" xmlns="http://www.w3.org/2000/svg">
<path d="M97.9034 8.45574L94.4969 7.00977L27.6982 35.2346V70.4578C27.6982 71.3036 28.099 71.8754 28.7583 72.1731L32.1648 73.6191C32.5788 73.7608 33.0373 73.8185 33.4922 73.786C33.9471 73.7536 34.3817 73.6323 34.7504 73.4348L94.2836 48.3003C95.3413 47.7959 96.2215 47.1162 96.8527 46.3166C97.4838 45.5169 97.8483 44.6197 97.9164 43.6978L97.9034 8.45574Z" fill="#441B2D"/>
<path d="M33.1148 73.4731C33.6143 73.4557 34.0995 73.3451 34.5239 73.1518L94.083 48.0173C95.079 47.5411 95.908 46.9003 96.5031 46.1468C97.0982 45.3933 97.4427 44.5481 97.5089 43.6794V8.99023L31.5764 36.837V71.8806C31.5246 72.8777 32.1193 73.4731 33.1148 73.4731Z" fill="#DFE1CA"/>
<path d="M97.0628 9.52025V43.6802C96.9907 44.4948 96.6614 45.2861 96.1006 45.992C95.5398 46.6979 94.7629 47.2992 93.8308 47.7488L34.2977 72.8879C33.9346 73.052 33.5215 73.1477 33.0954 73.1667C32.0353 73.1667 31.9254 72.2689 31.9254 71.8814V37.0126L97.0628 9.52025ZM97.9032 8.45703L31.1045 36.6535V71.8767C31.1045 73.0816 31.9189 73.7668 33.1148 73.7668C33.6897 73.7507 34.2489 73.6253 34.7372 73.403L94.2704 48.2685C95.3281 47.7641 96.2083 47.0844 96.8394 46.2848C97.4706 45.4851 97.8351 44.5879 97.9032 43.666V8.45703Z" fill="#EDA46D"/>
<path d="M93.4371 2.92772C92.7907 2.63001 91.8599 2.66309 90.8515 3.0931L31.3183 28.2276C30.2602 28.7318 29.3798 29.4113 28.7486 30.2111C28.1173 31.0108 27.7531 31.9081 27.6855 32.8301V35.1928L31.0921 36.6388L97.9037 8.45645V6.09374C97.9469 5.76624 97.8725 5.43615 97.6877 5.13614C97.5029 4.83612 97.2141 4.57657 96.8501 4.38314C96.236 4.10434 94.0835 3.19234 93.4371 2.92772Z" fill="#EA7C22" fill-opacity="0.89"/>
<path opacity="0.25" d="M93.4371 2.92772C92.7907 2.63001 91.8599 2.66309 90.8515 3.0931L31.3183 28.2276C30.2602 28.7318 29.3798 29.4113 28.7486 30.2111C28.1173 31.0108 27.7531 31.9081 27.6855 32.8301V35.1928L31.0921 36.6388L97.9037 8.45645V6.09374C97.9469 5.76624 97.8725 5.43615 97.6877 5.13614C97.5029 4.83612 97.2141 4.57657 96.8501 4.38314C96.236 4.10434 94.0835 3.19234 93.4371 2.92772Z" fill="black"/>
<path d="M31.1045 34.2908C31.1711 33.3686 31.5348 32.471 32.1662 31.6712C32.7975 30.8713 33.6784 30.1919 34.7372 29.6883L94.2704 4.55381C96.2742 3.70796 97.9032 4.39315 97.9032 6.08484V8.44755L31.1045 36.6535V34.2908Z" fill="#EA7C22" fill-opacity="0.89"/>
<path d="M96.8824 4.37878C96.236 4.08108 95.2988 4.10943 94.2645 4.54417L34.7378 29.6786C33.6568 30.1645 32.766 30.8465 32.1522 31.6585L28.7393 30.2173C29.3534 29.403 30.2438 28.7179 31.3248 28.2279L90.8516 3.10292C91.8793 2.67291 92.7907 2.63038 93.4371 2.93753C94.0835 3.24469 96.2102 4.11416 96.8243 4.35515L96.8824 4.37878Z" fill="#EA7C22" fill-opacity="0.89"/>
<path opacity="0.2" d="M96.8824 4.37878C96.236 4.08108 95.2988 4.10943 94.2645 4.54417L34.7378 29.6786C33.6568 30.1645 32.766 30.8465 32.1522 31.6585L28.7393 30.2173C29.3534 29.403 30.2438 28.7179 31.3248 28.2279L90.8516 3.10292C91.8793 2.67291 92.7907 2.63038 93.4371 2.93753C94.0835 3.24469 96.2102 4.11416 96.8243 4.35515L96.8824 4.37878Z" fill="#E98736"/>
<path d="M85.2147 10.1912C84.841 10.3643 84.529 10.5998 84.3042 10.8783C84.0795 11.1568 83.9484 11.4704 83.9219 11.7931C83.9219 12.3885 84.4907 12.6248 85.2147 12.3318C85.5877 12.1572 85.8992 11.9207 86.1238 11.6415C86.3484 11.3624 86.4799 11.0484 86.5075 10.7252C86.4816 10.1487 85.9128 9.90772 85.2147 10.1912Z" fill="#DFE1CA"/>
<path d="M89.6561 8.33349C89.2819 8.50731 88.9697 8.74361 88.7449 9.02293C88.5201 9.30224 88.3893 9.6166 88.3633 9.9401C88.3633 10.5308 88.9256 10.7718 89.6561 10.4741C90.0302 10.3002 90.3425 10.0639 90.5673 9.78462C90.792 9.5053 90.9228 9.19095 90.9489 8.86745C90.923 8.30041 90.3542 8.03579 89.6561 8.33349Z" fill="#DFE1CA"/>
<path d="M94.0838 6.46256C93.71 6.63667 93.398 6.87304 93.1733 7.15231C92.9486 7.43158 92.8176 7.74579 92.791 8.06921C92.791 8.66462 93.3598 8.90089 94.0838 8.60792C94.4569 8.43324 94.7683 8.19673 94.993 7.91758C95.2176 7.63843 95.349 7.3245 95.3766 7.00126C95.3766 6.41058 94.7948 6.16958 94.0838 6.46256Z" fill="#DFE1CA"/>
<path d="M37.1098 45.9287C37.0679 45.9294 37.0264 45.9238 36.9875 45.9124C36.9487 45.901 36.9134 45.884 36.8838 45.8623C36.8542 45.8407 36.831 45.8149 36.8153 45.7866C36.7997 45.7582 36.7922 45.7278 36.793 45.6972V39.195C36.7934 39.1538 36.8085 39.1133 36.8368 39.0777C36.8652 39.0421 36.9058 39.0125 36.9546 38.9918L44.6597 35.7408C44.7076 35.72 44.7623 35.709 44.8181 35.709C44.8738 35.709 44.9285 35.72 44.9764 35.7408C45.0236 35.7612 45.0626 35.7902 45.0898 35.825C45.117 35.8598 45.1314 35.8992 45.1316 35.9392V42.4461C45.1314 42.4862 45.117 42.5255 45.0898 42.5603C45.0626 42.5951 45.0236 42.6241 44.9764 42.6446L37.2714 45.9004C37.2212 45.9187 37.1659 45.9284 37.1098 45.9287ZM37.4265 39.3132V45.2813L44.4981 42.3232V36.3409L37.4265 39.3132Z" fill="#EDA46D"/>
<path d="M49.7345 34.8144C49.7927 34.8144 49.8379 34.786 49.8703 34.8144C49.9121 34.8525 49.9389 34.8982 49.9478 34.9467L51.344 38.4057C51.3481 38.4197 51.3481 38.4342 51.344 38.4482C51.3413 38.4971 51.326 38.5452 51.2988 38.59C51.2782 38.6298 51.2394 38.6632 51.1889 38.6845L50.7817 38.8593C50.7041 38.8924 50.6524 38.8971 50.6201 38.8593C50.5901 38.8367 50.568 38.8092 50.5554 38.779L50.3163 38.1694L48.5128 38.9302L48.2672 39.743C48.2558 39.7888 48.2362 39.8332 48.209 39.8753C48.1748 39.928 48.118 39.9711 48.0474 39.9982L47.6402 40.173C47.6249 40.1827 47.6054 40.188 47.5852 40.188C47.5651 40.188 47.5456 40.1827 47.5303 40.173C47.5128 40.1601 47.4997 40.1445 47.4918 40.1273C47.484 40.11 47.4817 40.0917 47.485 40.0738C47.4815 40.0581 47.4815 40.0422 47.485 40.0265L48.8813 35.3861C48.8948 35.3192 48.9209 35.254 48.9588 35.1924C48.9859 35.1448 49.0336 35.1049 49.0946 35.079L49.7345 34.8144ZM50.0448 37.4937L49.3984 35.9343L48.752 38.0229L50.0448 37.4937Z" fill="#216687"/>
<path d="M37.1097 56.7693C37.0546 56.77 37.0005 56.7585 36.9546 56.7362C36.9058 56.7167 36.8651 56.688 36.8366 56.6531C36.8082 56.6182 36.7931 56.5783 36.793 56.5377V50.0308C36.7944 49.9904 36.81 49.9509 36.8383 49.9162C36.8666 49.8814 36.9067 49.8526 36.9546 49.8324L44.6596 46.5766C44.7075 46.5569 44.7615 46.5467 44.8164 46.5469C44.8713 46.5471 44.9252 46.5577 44.9728 46.5777C45.0203 46.5977 45.06 46.6264 45.0878 46.661C45.1156 46.6956 45.1307 46.7349 45.1315 46.775V53.2866C45.1313 53.3267 45.117 53.3661 45.0898 53.4008C45.0626 53.4356 45.0235 53.4647 44.9764 53.4851L37.2713 56.7362C37.2227 56.7581 37.1667 56.7696 37.1097 56.7693ZM37.4264 50.1537V56.1219L44.498 53.1402V47.1814L37.4264 50.1537Z" fill="#EA7C22" fill-opacity="0.89"/>
<path d="M48.0151 50.8622C48.0079 50.8675 47.9993 50.8717 47.9898 50.8746C47.9804 50.8774 47.9703 50.8789 47.9601 50.8789C47.9499 50.8789 47.9398 50.8774 47.9304 50.8746C47.9209 50.8717 47.9124 50.8675 47.9052 50.8622C47.8877 50.8494 47.8745 50.8337 47.8667 50.8165C47.8588 50.7993 47.8565 50.781 47.8599 50.763V46.6236C47.8595 46.5744 47.875 46.5258 47.9052 46.4818C47.9258 46.442 47.9646 46.4086 48.0151 46.3873L49.6957 45.6785C49.8737 45.5881 50.0866 45.5417 50.3033 45.5462C50.4554 45.5566 50.5964 45.609 50.6976 45.6927C50.8016 45.7864 50.8745 45.8963 50.9109 46.014C50.9515 46.1395 50.9732 46.2678 50.9755 46.3968C50.9742 46.5187 50.959 46.6404 50.9303 46.7606C50.9007 46.8627 50.8641 46.9637 50.8204 47.063C50.7811 47.142 50.7358 47.2193 50.6847 47.2946C50.6535 47.3431 50.619 47.3904 50.5813 47.4363C50.7207 47.4901 50.8337 47.5743 50.9045 47.6773C51.0207 47.852 51.072 48.0459 51.0531 48.2397C51.0515 48.4144 51.0255 48.5886 50.9755 48.7594C50.9235 48.9413 50.8455 49.1187 50.7429 49.2887C50.6416 49.4576 50.5113 49.6164 50.355 49.7612C50.2109 49.9005 50.0308 50.0177 49.825 50.1062L48.0151 50.8622ZM50.2063 46.7512C50.2063 46.5873 50.1611 46.4834 50.0706 46.4393C49.9801 46.392 49.8314 46.4109 49.6375 46.496L48.6291 46.9213V47.9089L49.6375 47.4836C49.8159 47.4105 49.9652 47.3046 50.0706 47.1764C50.1638 47.0452 50.2105 46.899 50.2063 46.7512ZM48.6291 49.8038L49.6828 49.3596C49.8784 49.2797 50.0379 49.1598 50.1417 49.0146C50.2414 48.868 50.2903 48.7057 50.2839 48.5421C50.293 48.4817 50.2844 48.4205 50.2588 48.3627C50.2332 48.3048 50.1911 48.2516 50.1352 48.2066C50.0318 48.1499 49.8831 48.1593 49.6828 48.2444L48.6291 48.6886V49.8038Z" fill="#216687"/>
<path d="M37.1097 67.6139C37.055 67.6125 37.0017 67.6011 36.9546 67.5809C36.9067 67.5607 36.8666 67.5318 36.8383 67.4971C36.81 67.4623 36.7944 67.4228 36.793 67.3824V60.8755C36.7931 60.8349 36.8082 60.795 36.8366 60.7601C36.8651 60.7252 36.9058 60.6965 36.9546 60.677L44.6596 57.4449C44.7076 57.4241 44.7623 57.4131 44.818 57.4131C44.8737 57.4131 44.9284 57.4241 44.9764 57.4449C45.024 57.4661 45.0633 57.4959 45.0905 57.5315C45.1177 57.5671 45.1318 57.6073 45.1315 57.648V64.1502C45.1318 64.191 45.1177 64.2311 45.0905 64.2667C45.0633 64.3024 45.024 64.3322 44.9764 64.3534L37.2713 67.6045C37.219 67.6161 37.1639 67.6193 37.1097 67.6139ZM37.4264 60.9984V66.9713L44.498 63.9848V58.0214L37.4264 60.9984Z" fill="#EDA46D"/>
<path d="M50.3097 59.3347C50.3144 59.2819 50.3342 59.2303 50.3679 59.1835C50.3937 59.1501 50.4289 59.1211 50.4713 59.0984L50.9367 58.9047C50.9525 58.8959 50.9718 58.8911 50.9916 58.8911C51.0115 58.8911 51.0308 58.8959 51.0466 58.9047C51.0644 58.9192 51.0772 58.9367 51.084 58.9556C51.0907 58.9745 51.0912 58.9943 51.0854 59.0134C51.0765 59.2066 51.0375 59.3984 50.969 59.5851C50.8221 60.0181 50.5337 60.4186 50.1287 60.7523C49.916 60.9407 49.6601 61.1006 49.3724 61.2248C49.1644 61.3206 48.9263 61.3759 48.6808 61.3855C48.4881 61.386 48.3027 61.3318 48.1636 61.2343C48.008 61.1169 47.8966 60.972 47.8405 60.8137C47.7545 60.6018 47.7067 60.3826 47.6982 60.1616C47.6982 60.001 47.6982 59.8261 47.6982 59.6277C47.6982 59.4292 47.6982 59.2496 47.6982 59.0842C47.7129 58.8248 47.7606 58.567 47.8405 58.314C47.9149 58.0734 48.0232 57.839 48.1636 57.6146C48.3007 57.4053 48.4746 57.2099 48.6808 57.0334C48.8772 56.8644 49.111 56.7206 49.3724 56.6081C49.5995 56.5015 49.8595 56.4381 50.1287 56.4238C50.3157 56.4231 50.4977 56.468 50.6458 56.5514C50.791 56.6442 50.8965 56.7656 50.9496 56.9011C51.0211 57.0534 51.0604 57.2127 51.066 57.3736C51.0732 57.4227 51.0597 57.4722 51.0272 57.5154C51.0046 57.5543 50.9662 57.5873 50.9173 57.6099L50.4519 57.8084C50.4352 57.8154 50.4162 57.8191 50.397 57.8191C50.3777 57.8191 50.3587 57.8154 50.342 57.8084C50.3097 57.8084 50.2903 57.7659 50.2838 57.7139C50.2734 57.6389 50.2473 57.5656 50.2063 57.4965C50.1679 57.4367 50.1074 57.386 50.0317 57.35C49.9497 57.3151 49.8546 57.3002 49.7602 57.3075C49.6222 57.3211 49.4898 57.3566 49.3724 57.4114C49.2234 57.4731 49.0918 57.5549 48.9846 57.6524C48.8735 57.7504 48.78 57.8584 48.7066 57.9738C48.6314 58.0948 48.575 58.2216 48.5386 58.3518C48.4994 58.4856 48.4756 58.6215 48.4675 58.7582C48.4675 58.9283 48.4675 59.1079 48.4675 59.3016C48.4675 59.4953 48.4675 59.6796 48.4675 59.8356C48.4719 59.9538 48.4958 60.0712 48.5386 60.1853C48.5677 60.2728 48.6253 60.3538 48.7066 60.4215C48.7824 60.4733 48.881 60.5035 48.9846 60.5066C49.1222 60.5055 49.2567 60.476 49.3724 60.4215C49.5162 60.3621 49.6469 60.2872 49.7602 60.1994C49.8647 60.1148 49.9578 60.023 50.0382 59.9254C50.1091 59.8326 50.1654 59.7343 50.2063 59.6324C50.2563 59.5364 50.291 59.4365 50.3097 59.3347Z" fill="#216687"/>
<path d="M55.6422 32.0507L90.5089 17.3358C90.8127 17.2082 91.0583 17.2791 91.0583 17.4965C91.039 17.6238 90.9793 17.7461 90.8839 17.8536C90.7885 17.9611 90.6601 18.0508 90.5089 18.1155L55.6422 32.8304C55.3384 32.9627 55.0928 32.8871 55.0928 32.6745C55.1111 32.5463 55.1704 32.4231 55.2658 32.3147C55.3612 32.2064 55.4902 32.1159 55.6422 32.0507Z" fill="#EDA46D"/>
<path d="M55.6422 34.2198L90.5089 19.5049C90.8127 19.3774 91.0583 19.4482 91.0583 19.6609C91.04 19.7891 90.9807 19.9123 90.8853 20.0206C90.7899 20.129 90.6609 20.2194 90.5089 20.2846L55.6422 34.9995C55.3384 35.1271 55.0928 35.0562 55.0928 34.8436C55.1111 34.7154 55.1704 34.5922 55.2658 34.4838C55.3612 34.3755 55.4902 34.285 55.6422 34.2198Z" fill="#EDA46D"/>
<path d="M55.6422 36.3878L90.5089 21.6729C90.8127 21.5453 91.0583 21.6162 91.0583 21.8289C91.04 21.957 90.9807 22.0803 90.8853 22.1886C90.7899 22.297 90.6609 22.3874 90.5089 22.4526L55.6422 37.1675C55.3384 37.2951 55.0928 37.2242 55.0928 37.0116C55.1111 36.8834 55.1704 36.7602 55.2658 36.6518C55.3612 36.5435 55.4902 36.4531 55.6422 36.3878Z" fill="#EDA46D"/>
<path d="M55.6422 42.8953L90.5089 28.1757C90.8127 28.0481 91.0583 28.119 91.0583 28.3363C91.04 28.4645 90.9807 28.5877 90.8853 28.6961C90.7899 28.8044 90.6609 28.8949 90.5089 28.9601L55.6422 43.675C55.3384 43.8026 55.0928 43.7317 55.0928 43.5144C55.1121 43.387 55.1718 43.2647 55.2672 43.1573C55.3626 43.0498 55.491 42.9601 55.6422 42.8953Z" fill="#EDA46D"/>
<path d="M55.6422 45.0642L90.5089 30.3446C90.8127 30.217 91.0583 30.2879 91.0583 30.5053C91.039 30.6332 90.9794 30.7562 90.884 30.8644C90.7887 30.9727 90.6603 31.0632 90.5089 31.129L55.6422 45.8439C55.3384 45.9715 55.0928 45.9006 55.0928 45.6833C55.1121 45.5559 55.1718 45.4336 55.2672 45.3262C55.3626 45.2187 55.491 45.129 55.6422 45.0642Z" fill="#EDA46D"/>
<path d="M55.6422 47.2332L90.5089 32.5136C90.8127 32.386 91.0583 32.4569 91.0583 32.6742C91.039 32.8016 90.9793 32.9238 90.8839 33.0313C90.7885 33.1388 90.6601 33.2285 90.5089 33.2932L55.6422 47.994C55.3384 48.1216 55.0928 48.0507 55.0928 47.8333C55.1149 47.7091 55.176 47.5903 55.2713 47.4862C55.3666 47.3821 55.4936 47.2955 55.6422 47.2332Z" fill="#EDA46D"/>
<path d="M55.6422 53.7351L90.5089 39.0155C90.8127 38.8879 91.0583 38.9588 91.0583 39.1762C91.039 39.3035 90.9793 39.4258 90.8839 39.5333C90.7885 39.6408 90.6601 39.7304 90.5089 39.7952L55.6422 54.5148C55.3384 54.6424 55.0928 54.5715 55.0928 54.3589C55.1111 54.2307 55.1704 54.1075 55.2658 53.9991C55.3612 53.8908 55.4902 53.8004 55.6422 53.7351Z" fill="#EDA46D"/>
<path d="M55.6422 55.9045L90.5089 41.1895C90.8127 41.0619 91.0583 41.1328 91.0583 41.3455C91.04 41.4736 90.9807 41.5969 90.8853 41.7052C90.7899 41.8136 90.6609 41.904 90.5089 41.9692L55.6422 56.6842C55.3384 56.8118 55.0928 56.7409 55.0928 56.5282C55.1111 56.4001 55.1704 56.2768 55.2658 56.1685C55.3612 56.0601 55.4902 55.9697 55.6422 55.9045Z" fill="#EDA46D"/>
<path d="M55.6422 58.0733L90.5089 43.3585C90.8127 43.2309 91.0583 43.3018 91.0583 43.5144C91.04 43.6426 90.9807 43.7658 90.8853 43.8741C90.7899 43.9825 90.6609 44.0729 90.5089 44.1381L55.6422 58.8625C55.3384 58.99 55.0928 58.9192 55.0928 58.7065C55.1091 58.5767 55.1675 58.4516 55.263 58.3415C55.3585 58.2314 55.4885 58.1395 55.6422 58.0733Z" fill="#EDA46D"/>
<path d="M40.4778 53.8627C40.3386 53.8636 40.2035 53.8285 40.0964 53.7635L38.4417 52.7192C38.3835 52.6829 38.3356 52.6386 38.3008 52.5888C38.2661 52.539 38.2451 52.4846 38.2391 52.4289C38.2331 52.3732 38.2422 52.3171 38.2659 52.2639C38.2895 52.2108 38.3273 52.1615 38.377 52.119C38.4782 52.0342 38.6208 51.9817 38.7743 51.9729C38.9278 51.964 39.0799 51.9996 39.1979 52.0718L40.2516 52.7333L42.5721 48.8207C42.5988 48.766 42.6406 48.7157 42.6949 48.6732C42.7491 48.6307 42.8147 48.5968 42.8877 48.5735C42.9606 48.5503 43.0392 48.5382 43.1188 48.5381C43.1983 48.5379 43.2771 48.5497 43.3502 48.5727C43.4232 48.5957 43.4891 48.6294 43.5436 48.6717C43.5982 48.714 43.6403 48.7641 43.6673 48.8188C43.6944 48.8735 43.7058 48.9316 43.7008 48.9897C43.6959 49.0477 43.6748 49.1044 43.6387 49.1562L41.0079 53.5981C40.9728 53.6595 40.9181 53.7138 40.8484 53.7566C40.7787 53.7994 40.6959 53.8293 40.6071 53.8438C40.5655 53.8546 40.5219 53.861 40.4778 53.8627Z" fill="#EA7C22" fill-opacity="0.89"/>
<path d="M97.9034 60.28L94.4969 58.834L27.6982 87.021V118.596C27.6982 119.442 28.099 120.014 28.7583 120.311L32.1648 121.757C32.5788 121.899 33.0373 121.957 33.4922 121.924C33.9471 121.892 34.3817 121.771 34.7504 121.573L94.2836 96.4387C95.3406 95.9337 96.2202 95.2539 96.8513 94.4544C97.4824 93.6548 97.8472 92.7579 97.9164 91.8362L97.9034 60.28Z" fill="#441B2D"/>
<path d="M33.1155 121.635C33.6151 121.617 34.1002 121.507 34.5247 121.313L94.0837 96.1931C95.0797 95.7168 95.9087 95.0761 96.5038 94.3226C97.0989 93.5691 97.4434 92.7239 97.5096 91.8552V60.7998L31.5254 88.6324V120.028C31.5254 121.039 32.1201 121.635 33.1155 121.635Z" fill="#DFE1CA"/>
<path d="M97.0628 61.3288V91.8408C96.9907 92.6554 96.6614 93.4467 96.1006 94.1526C95.5398 94.8585 94.7629 95.4598 93.8308 95.9094L34.2977 121.049C33.9346 121.213 33.5215 121.308 33.0954 121.327C32.0353 121.327 31.9254 120.429 31.9254 120.042V88.826L97.0434 61.3288H97.0628ZM97.8838 60.2656L31.1045 88.4716V120.042C31.1045 121.247 31.9189 121.932 33.1148 121.932C33.6897 121.916 34.2489 121.791 34.7372 121.568L94.2704 96.4339C95.3274 95.9288 96.207 95.2491 96.8381 94.4495C97.4692 93.65 97.834 92.7531 97.9032 91.8313V60.2798L97.8838 60.2656Z" fill="#EDA46D"/>
<path d="M93.4371 54.7373C92.7907 54.4396 91.8598 54.4727 90.8515 54.9027L31.3183 80.0418C30.2604 80.545 29.3799 81.2237 28.7486 82.0226C28.1174 82.8216 27.7531 83.7183 27.6855 84.6396V87.0023L31.0921 88.453L97.9037 60.2802V57.9175C97.9481 57.5892 97.8742 57.2582 97.6893 56.9572C97.5045 56.6563 97.2151 56.396 96.85 56.2022C96.236 55.9139 94.0835 55.0019 93.4371 54.7373Z" fill="#EA7C22" fill-opacity="0.89"/>
<path opacity="0.25" d="M93.4371 54.7373C92.7907 54.4396 91.8598 54.4727 90.8515 54.9027L31.3183 80.0418C30.2604 80.545 29.3799 81.2237 28.7486 82.0226C28.1174 82.8216 27.7531 83.7183 27.6855 84.6396V87.0023L31.0921 88.453L97.9037 60.2802V57.9175C97.9481 57.5892 97.8742 57.2582 97.6893 56.9572C97.5045 56.6563 97.2151 56.396 96.85 56.2022C96.236 55.9139 94.0835 55.0019 93.4371 54.7373Z" fill="black"/>
<path d="M31.1045 86.0905C31.1711 85.1683 31.5348 84.2707 32.1662 83.4708C32.7975 82.671 33.6784 81.9916 34.7372 81.4879L94.2704 56.3535C96.2742 55.5077 97.9032 56.1928 97.9032 57.8893V60.252L31.1045 88.4721V86.0905Z" fill="#EA7C22" fill-opacity="0.89"/>
<path d="M96.8824 56.1928C96.236 55.8903 95.2988 55.9187 94.2645 56.3582L34.7378 81.4879C33.6568 81.9737 32.766 82.6558 32.1522 83.4678L28.7393 82.0502C29.3536 81.2372 30.2441 80.5537 31.3248 80.0655L90.8516 54.9027C91.8793 54.4727 92.7907 54.4302 93.4371 54.7373C94.0835 55.0445 96.2102 55.914 96.8243 56.155C96.8383 56.1558 96.8515 56.1599 96.862 56.1667C96.8725 56.1736 96.8797 56.1827 96.8824 56.1928Z" fill="#EA7C22" fill-opacity="0.89"/>
<path opacity="0.2" d="M96.8824 56.1928C96.236 55.8903 95.2988 55.9187 94.2645 56.3582L34.7378 81.4879C33.6568 81.9737 32.766 82.6558 32.1522 83.4678L28.7393 82.0502C29.3536 81.2372 30.2441 80.5537 31.3248 80.0655L90.8516 54.9027C91.8793 54.4727 92.7907 54.4302 93.4371 54.7373C94.0835 55.0445 96.2102 55.914 96.8243 56.155C96.8383 56.1558 96.8515 56.1599 96.862 56.1667C96.8725 56.1736 96.8797 56.1827 96.8824 56.1928Z" fill="#E98736"/>
<path d="M85.2147 62.0139C84.8405 62.1877 84.5282 62.424 84.3035 62.7034C84.0787 62.9827 83.9479 63.2971 83.9219 63.6206C83.9219 64.2112 84.4907 64.4522 85.2147 64.1545C85.5877 63.9798 85.8992 63.7433 86.1238 63.4642C86.3484 63.1851 86.4799 62.8711 86.5075 62.5479C86.4816 61.9572 85.9128 61.6973 85.2147 62.0139Z" fill="#DFE1CA"/>
<path d="M89.6551 60.1432C89.281 60.317 88.9687 60.5533 88.7439 60.8326C88.5192 61.112 88.3884 61.4263 88.3623 61.7498C88.3623 62.3405 88.9247 62.5815 89.6551 62.2838C90.0292 62.11 90.3415 61.8737 90.5663 61.5944C90.7911 61.315 90.9218 61.0007 90.9479 60.6772C90.922 60.0865 90.3532 59.8502 89.6551 60.1432Z" fill="#DFE1CA"/>
<path d="M94.0838 58.2761C93.709 58.4494 93.3961 58.6856 93.1712 58.965C92.9464 59.2445 92.816 59.5591 92.791 59.8828C92.791 60.4735 93.3598 60.7098 94.0838 60.4168C94.4569 60.2421 94.7683 60.0056 94.993 59.7265C95.2176 59.4473 95.349 59.1334 95.3766 58.8101C95.3766 58.2194 94.7948 57.9784 94.0838 58.2761Z" fill="#DFE1CA"/>
<path d="M38.2995 90.3151L84.0838 70.9929C84.4781 70.8228 84.8013 70.9173 84.8013 71.2008C84.7762 71.3683 84.6983 71.5293 84.5738 71.6711C84.4493 71.813 84.2816 71.9318 84.0838 72.0183L38.2995 91.3405C37.9052 91.5059 37.582 91.4114 37.582 91.1326C37.6062 90.9649 37.6837 90.8036 37.8083 90.6617C37.9328 90.5198 38.1011 90.4011 38.2995 90.3151Z" fill="#EDA46D"/>
<path d="M38.2995 93.1594L84.0838 73.8372C84.4781 73.6719 84.8013 73.7664 84.8013 74.0499C84.7762 74.2168 84.6983 74.3771 84.5737 74.5181C84.4492 74.6592 84.2815 74.7772 84.0838 74.8627L38.2995 94.1848C37.9052 94.3549 37.582 94.2604 37.582 93.9769C37.6072 93.8094 37.6851 93.6484 37.8096 93.5066C37.934 93.3648 38.1017 93.2459 38.2995 93.1594Z" fill="#EDA46D"/>
<path d="M38.2995 96.0085L84.0838 76.6863C84.4781 76.5162 84.8013 76.6107 84.8013 76.8942C84.7762 77.0617 84.6983 77.2227 84.5738 77.3645C84.4493 77.5063 84.2816 77.6252 84.0838 77.7117L38.2995 97.0339C37.9052 97.1993 37.582 97.1048 37.582 96.8213C37.6072 96.6544 37.6851 96.4941 37.8096 96.353C37.9342 96.2119 38.1019 96.094 38.2995 96.0085Z" fill="#EDA46D"/>
<path d="M89.6943 68.1712C90.0205 68.0275 90.3835 67.9342 90.7609 67.8971C91.0633 67.8648 91.3719 67.9084 91.636 68.0208C91.9002 68.1333 92.1044 68.3079 92.2153 68.5161C92.3686 68.7853 92.4414 69.0753 92.4286 69.3667C92.4319 69.6262 92.3907 69.885 92.3058 70.137C92.228 70.3721 92.1264 70.6027 92.002 70.8269C91.8784 71.0382 91.7403 71.2448 91.5883 71.4459L91.1552 72.0224C91.0194 72.2114 90.8966 72.3957 90.7867 72.5847C90.678 72.7629 90.5998 72.9502 90.554 73.1424C90.5363 73.2315 90.5038 73.3188 90.4571 73.4023C90.4271 73.4706 90.3654 73.5291 90.2825 73.5676L89.0479 74.0874C89.021 74.1044 88.9866 74.1137 88.951 74.1137C88.9154 74.1137 88.881 74.1044 88.854 74.0874C88.7962 74.0358 88.7683 73.9696 88.7765 73.9031C88.7758 73.6572 88.8215 73.4123 88.9122 73.1754C89.001 72.9413 89.1133 72.7123 89.2483 72.4902C89.3841 72.2681 89.5327 72.0555 89.6879 71.8523C89.843 71.6491 89.9981 71.4554 90.1339 71.2758C90.2696 71.0962 90.3795 70.9167 90.47 70.7513C90.5548 70.6012 90.6008 70.441 90.6057 70.2787C90.6057 70.0614 90.5346 69.9196 90.386 69.8582C90.2373 69.7967 90.0046 69.8251 89.6943 69.9574C89.4334 70.0593 89.2113 70.2071 89.0479 70.3874C88.9248 70.535 88.8292 70.6939 88.7635 70.86C88.6989 71.0065 88.6472 71.1435 88.6019 71.2616C88.5853 71.3162 88.5539 71.3677 88.5095 71.4132C88.4651 71.4586 88.4086 71.4971 88.3434 71.5263L87.1087 72.046C87.086 72.0576 87.0589 72.0638 87.0312 72.0638C87.0034 72.0638 86.9764 72.0576 86.9536 72.046C86.9284 72.0249 86.9095 72 86.8984 71.9732C86.8873 71.9463 86.884 71.918 86.889 71.8901C86.9035 71.5781 86.9708 71.2686 87.0893 70.9686C87.2241 70.608 87.4082 70.2581 87.6388 69.9243C87.8815 69.5755 88.1763 69.2474 88.5179 68.9462C88.841 68.6368 89.2399 68.374 89.6943 68.1712ZM90.5799 75.5854C90.5759 75.6722 90.5473 75.7575 90.4959 75.8359C90.4581 75.9064 90.3901 75.9661 90.3019 76.006L89.0091 76.5447C88.9822 76.5616 88.9478 76.571 88.9122 76.571C88.8766 76.571 88.8422 76.5616 88.8152 76.5447C88.7868 76.5199 88.7653 76.4914 88.752 76.4605C88.7387 76.4297 88.7338 76.3973 88.7377 76.3651V75.2121C88.7387 75.1255 88.7652 75.0401 88.8152 74.9616C88.8507 74.8901 88.9193 74.83 89.0091 74.7915L90.3019 74.2528C90.3289 74.2359 90.3633 74.2265 90.3989 74.2265C90.4345 74.2265 90.4689 74.2359 90.4959 74.2528C90.555 74.3023 90.5852 74.3668 90.5799 74.4324V75.5854Z" fill="#EA7C22" fill-opacity="0.89"/>
<path d="M36.793 117.51V101.798L93.941 77.6982V93.4102L36.793 117.51ZM37.4394 102.067V116.716L93.3075 93.1219V78.4732L37.4394 102.067Z" fill="#EDA46D"/>
<path d="M5.42923 11.0642L26.1139 2.33641C26.9284 1.99618 27.5877 2.27498 27.5877 2.96016V20.5009C27.5611 20.8743 27.4137 21.2378 27.1575 21.5615C26.9013 21.8852 26.5436 22.1598 26.1139 22.3627L5.42923 31.1141C4.62124 31.4591 3.96191 31.1803 3.96191 30.4951V12.926C3.98778 12.553 4.13425 12.1898 4.38931 11.8662C4.64437 11.5425 5.00076 11.2677 5.42923 11.0642Z" fill="#EA7C22" fill-opacity="0.89"/>
<path opacity="0.3" d="M5.42923 11.0642L26.1139 2.33641C26.9284 1.99618 27.5877 2.27498 27.5877 2.96016V20.5009C27.5611 20.8743 27.4137 21.2378 27.1575 21.5615C26.9013 21.8852 26.5436 22.1598 26.1139 22.3627L5.42923 31.1141C4.62124 31.4591 3.96191 31.1803 3.96191 30.4951V12.926C3.98778 12.553 4.13425 12.1898 4.38931 11.8662C4.64437 11.5425 5.00076 11.2677 5.42923 11.0642Z" fill="#E98736"/>
<path d="M4.39519 11.868L0.65255 10.2803C0.384825 10.6013 0.235604 10.9677 0.219464 11.3435V28.8841C0.200628 29.016 0.229531 29.1491 0.303274 29.2702C0.377017 29.3913 0.493009 29.4961 0.639621 29.574C0.911108 29.6922 4.11724 31.0342 4.36933 31.1523C4.22869 31.0722 4.11815 30.9674 4.04806 30.8475C3.97796 30.7277 3.95061 30.5968 3.96857 30.4671V12.9265C3.98586 12.5529 4.13266 12.1887 4.39519 11.868Z" fill="#EA7C22" fill-opacity="0.89"/>
<path d="M27.0641 2.23781C26.5405 2.00626 23.6253 0.782376 23.3861 0.678417C23.2179 0.620286 23.0314 0.596204 22.8461 0.60867C22.6608 0.621137 22.4834 0.669701 22.3325 0.749302L1.68658 9.48187C1.2539 9.67886 0.897754 9.95386 0.652344 10.2805L4.40145 11.8682C4.64806 11.541 5.00383 11.2647 5.43568 11.0649L26.1204 2.33704C26.257 2.26911 26.413 2.22485 26.5766 2.20766C26.7401 2.19046 26.9069 2.20077 27.0641 2.23781Z" fill="#EA7C22" fill-opacity="0.89"/>
<path opacity="0.45" d="M27.0641 2.23781C26.5405 2.00626 23.6253 0.782376 23.3861 0.678417C23.2179 0.620286 23.0314 0.596204 22.8461 0.60867C22.6608 0.621137 22.4834 0.669701 22.3325 0.749302L1.68658 9.48187C1.2539 9.67886 0.897754 9.95386 0.652344 10.2805L4.40145 11.8682C4.64806 11.541 5.00383 11.2647 5.43568 11.0649L26.1204 2.33704C26.257 2.26911 26.413 2.22485 26.5766 2.20766C26.7401 2.19046 26.9069 2.20077 27.0641 2.23781Z" fill="#E98736"/>
<path d="M16.7353 10.2092C16.8969 10.1384 17.0197 10.1336 17.1037 10.2092C17.2082 10.3133 17.281 10.4326 17.317 10.5589L21.0791 19.8916C21.0831 19.9294 21.0831 19.9673 21.0791 20.005C21.0784 20.1378 21.0364 20.2687 20.9563 20.3878C20.8985 20.4944 20.7969 20.5852 20.6654 20.6477L19.56 21.1202C19.3532 21.2053 19.211 21.2195 19.127 21.1533C19.0491 21.0929 18.9916 21.0201 18.9589 20.9407L18.3125 19.3009L13.4645 21.347L12.8181 23.5444C12.7826 23.6687 12.7261 23.7893 12.6501 23.9035C12.5619 24.0441 12.4116 24.1589 12.2234 24.2295L11.1181 24.7021C11.0779 24.728 11.0262 24.7423 10.9727 24.7423C10.9191 24.7423 10.8674 24.728 10.8272 24.7021C10.7821 24.6641 10.748 24.6198 10.7268 24.5719C10.7057 24.524 10.6981 24.4734 10.7044 24.4233C10.6975 24.3809 10.6975 24.3381 10.7044 24.2957L14.46 11.7403C14.5091 11.558 14.5805 11.3793 14.6733 11.2063C14.7506 11.0802 14.8792 10.9745 15.0417 10.9039L16.7353 10.2092ZM17.5756 17.4391L15.8885 13.2241L14.2273 18.8615L17.5756 17.4391Z" fill="#DFE1CA"/>
<path d="M5.42923 40.567L26.1139 31.8392C26.9284 31.499 27.5877 31.7731 27.5877 32.463V50.0037C27.5611 50.3771 27.4137 50.7406 27.1575 51.0643C26.9013 51.388 26.5436 51.6626 26.1139 51.8655L5.42923 60.5791C4.62124 60.9194 3.96191 60.6453 3.96191 59.9601V42.4147C3.99077 42.0441 4.13866 41.6837 4.39359 41.3627C4.64852 41.0417 5.00332 40.7691 5.42923 40.567Z" fill="#EA7C22" fill-opacity="0.89"/>
<path opacity="0.3" d="M5.42923 40.567L26.1139 31.8392C26.9284 31.499 27.5877 31.7731 27.5877 32.463V50.0037C27.5611 50.3771 27.4137 50.7406 27.1575 51.0643C26.9013 51.388 26.5436 51.6626 26.1139 51.8655L5.42923 60.5791C4.62124 60.9194 3.96191 60.6453 3.96191 59.9601V42.4147C3.99077 42.0441 4.13866 41.6837 4.39359 41.3627C4.64852 41.0417 5.00332 40.7691 5.42923 40.567Z" fill="#E98736"/>
<path d="M4.39484 41.3553L0.652205 39.7676C0.383659 40.0884 0.234371 40.4549 0.219118 40.8308V58.3715C0.200941 58.5033 0.230142 58.6362 0.303833 58.7572C0.377523 58.8782 0.493151 58.9831 0.639276 59.0614C0.910763 59.1795 4.11689 60.5215 4.36899 60.6397C4.22835 60.5596 4.1178 60.4547 4.04771 60.3349C3.97762 60.215 3.95027 60.0842 3.96822 59.9545V42.4138C3.98467 42.0402 4.13152 41.6758 4.39484 41.3553Z" fill="#EA7C22" fill-opacity="0.89"/>
<path d="M27.0641 31.7251C26.5405 31.4936 23.6253 30.2697 23.3861 30.1657C23.2179 30.1076 23.0314 30.0835 22.8461 30.096C22.6608 30.1084 22.4834 30.157 22.3325 30.2366L1.68658 38.9692C1.2539 39.1662 0.897754 39.4412 0.652344 39.7678L4.40145 41.3556C4.6462 41.0273 5.00236 40.7507 5.43568 40.5522L26.1204 31.8244C26.257 31.7564 26.413 31.7122 26.5766 31.695C26.7401 31.6778 26.9069 31.6881 27.0641 31.7251Z" fill="#EA7C22" fill-opacity="0.89"/>
<path opacity="0.45" d="M27.0641 31.7251C26.5405 31.4936 23.6253 30.2697 23.3861 30.1657C23.2179 30.1076 23.0314 30.0835 22.8461 30.096C22.6608 30.1084 22.4834 30.157 22.3325 30.2366L1.68658 38.9692C1.2539 39.1662 0.897754 39.4412 0.652344 39.7678L4.40145 41.3556C4.6462 41.0273 5.00236 40.7507 5.43568 40.5522L26.1204 31.8244C26.257 31.7564 26.413 31.7122 26.5766 31.695C26.7401 31.6778 26.9069 31.6881 27.0641 31.7251Z" fill="#E98736"/>
<path d="M12.0354 53.9014C11.9959 53.9284 11.9439 53.9433 11.8899 53.9433C11.836 53.9433 11.784 53.9284 11.7445 53.9014C11.6989 53.8646 11.6644 53.8212 11.6432 53.774C11.6221 53.7267 11.6147 53.6768 11.6217 53.6274V42.4565C11.6223 42.3238 11.6643 42.1929 11.7445 42.0737C11.7999 41.9662 11.9021 41.8748 12.0354 41.8139L16.5602 39.9001C17.045 39.6582 17.6217 39.5342 18.2085 39.5456C18.6186 39.573 18.9985 39.7153 19.2686 39.9426C19.5485 40.1948 19.7454 40.4906 19.8439 40.8073C19.9588 41.1475 20.0174 41.4965 20.0184 41.8469C20.0216 42.1751 19.9805 42.5028 19.8956 42.8251C19.8221 43.1022 19.7228 43.3754 19.5982 43.6426C19.4754 43.8789 19.3591 44.0868 19.2427 44.2663C19.1597 44.3969 19.0647 44.5232 18.9583 44.6444C19.3309 44.7918 19.6348 45.0172 19.8309 45.2917C20.1408 45.7637 20.2788 46.2862 20.2317 46.8086C20.2286 47.2853 20.1571 47.7604 20.0184 48.2262C19.8667 48.713 19.6502 49.1878 19.372 49.6438C19.0963 50.0981 18.7469 50.5265 18.3313 50.9197C17.9435 51.3012 17.4557 51.6225 16.8963 51.8648L12.0354 53.9014ZM17.9434 42.7967C17.9434 42.362 17.8206 42.0832 17.575 41.9603C17.3294 41.8375 16.9415 41.8895 16.4115 42.1163L13.6902 43.2645V45.925L16.4115 44.7767C16.8967 44.5852 17.2995 44.2989 17.575 43.9497C17.8297 43.5945 17.9565 43.1977 17.9434 42.7967ZM13.6902 51.0379L16.5343 49.8423C17.0664 49.6252 17.4967 49.2958 17.7689 48.8972C18.0277 48.5171 18.1605 48.0979 18.1568 47.6734C18.1831 47.5107 18.1609 47.3458 18.0917 47.19C18.0225 47.0342 17.908 46.8912 17.756 46.7708C17.4845 46.6101 17.0773 46.6432 16.5343 46.87L13.6902 48.0703V51.0379Z" fill="#DFE1CA"/>
<path d="M5.42923 70.038L26.1139 61.3102C26.9284 60.9652 27.5877 61.244 27.5877 61.9292V79.4746C27.5601 79.8473 27.4122 80.2098 27.156 80.5326C26.8999 80.8554 26.5428 81.1292 26.1139 81.3317L5.42923 90.0643C4.62124 90.4045 3.96191 90.1257 3.96191 89.4405V71.8998C3.98778 71.5268 4.13425 71.1635 4.38931 70.8399C4.64437 70.5163 5.00076 70.2414 5.42923 70.038Z" fill="#EA7C22" fill-opacity="0.89"/>
<path opacity="0.3" d="M5.42923 70.038L26.1139 61.3102C26.9284 60.9652 27.5877 61.244 27.5877 61.9292V79.4746C27.5601 79.8473 27.4122 80.2098 27.156 80.5326C26.8999 80.8554 26.5428 81.1292 26.1139 81.3317L5.42923 90.0643C4.62124 90.4045 3.96191 90.1257 3.96191 89.4405V71.8998C3.98778 71.5268 4.13425 71.1635 4.38931 70.8399C4.64437 70.5163 5.00076 70.2414 5.42923 70.038Z" fill="#E98736"/>
<path d="M4.39484 70.8417L0.652205 69.2539C0.384734 69.5733 0.235487 69.9381 0.219118 70.3124V87.8579C0.200941 87.9897 0.230142 88.1226 0.303833 88.2436C0.377523 88.3646 0.493151 88.4695 0.639276 88.5478C0.910763 88.6659 4.11689 90.008 4.36899 90.1261C4.22881 90.0457 4.1186 89.9408 4.04855 89.821C3.97851 89.7013 3.95088 89.5705 3.96822 89.4409V71.9001C3.98467 71.5265 4.13152 71.1621 4.39484 70.8417Z" fill="#EA7C22" fill-opacity="0.89"/>
<path d="M27.0638 61.2114C26.5402 60.9799 23.6249 59.756 23.3858 59.6521C23.2175 59.5939 23.031 59.5698 22.8457 59.5823C22.6604 59.5948 22.483 59.6433 22.3321 59.7229L1.68621 68.4461C1.25234 68.6455 0.894383 68.9218 0.645508 69.2494L4.39461 70.8371C4.63936 70.5089 4.99553 70.2323 5.42885 70.0338L26.1136 61.306C26.2508 61.2371 26.4083 61.1926 26.5733 61.1762C26.7383 61.1598 26.9063 61.1719 27.0638 61.2114Z" fill="#EA7C22" fill-opacity="0.89"/>
<path opacity="0.45" d="M27.0638 61.2114C26.5402 60.9799 23.6249 59.756 23.3858 59.6521C23.2175 59.5939 23.031 59.5698 22.8457 59.5823C22.6604 59.5948 22.483 59.6433 22.3321 59.7229L1.68621 68.4461C1.25234 68.6455 0.894383 68.9218 0.645508 69.2494L4.39461 70.8371C4.63936 70.5089 4.99553 70.2323 5.42885 70.0338L26.1136 61.306C26.2508 61.2371 26.4083 61.1926 26.5733 61.1762C26.7383 61.1598 26.9063 61.1719 27.0638 61.2114Z" fill="#E98736"/>
<path d="M18.2338 77.056C18.2524 76.9143 18.3073 76.7765 18.3954 76.6496C18.4624 76.5563 18.5601 76.4767 18.6798 76.418L19.9273 75.8935C19.9696 75.869 20.022 75.8556 20.076 75.8556C20.13 75.8556 20.1824 75.869 20.2247 75.8935C20.273 75.9318 20.3086 75.9778 20.3288 76.0277C20.3489 76.0777 20.3531 76.1304 20.341 76.1818C20.3024 76.7045 20.1963 77.2235 20.0243 77.7317C19.6377 78.8946 18.8777 79.9734 17.8072 80.8788C17.227 81.3691 16.5361 81.7831 15.7645 82.1027C15.2039 82.3678 14.557 82.5194 13.89 82.5421C13.3758 82.5416 12.8812 82.398 12.5067 82.1405C12.0904 81.8208 11.7923 81.4289 11.6405 81.0017C11.4117 80.4301 11.2857 79.8392 11.2656 79.2438C11.2656 78.8138 11.2656 78.3365 11.2656 77.8262C11.2656 77.3159 11.2656 76.8055 11.2656 76.3613C11.3016 75.6612 11.4271 74.9651 11.6405 74.2822C11.8372 73.6303 12.132 72.9964 12.5196 72.392C12.8805 71.8231 13.3411 71.2909 13.89 70.809C14.4194 70.35 15.0537 69.9615 15.7645 69.6607C16.3748 69.3683 17.0789 69.1973 17.8072 69.1646C18.3126 69.1553 18.8066 69.2757 19.2034 69.5048C19.5938 69.7567 19.8784 70.0844 20.0243 70.4499C20.2059 70.8632 20.3124 71.2921 20.341 71.7257C20.348 71.86 20.308 71.9934 20.2247 72.1132C20.159 72.2164 20.0562 72.3046 19.9273 72.3684L18.6798 72.8929C18.636 72.9125 18.5857 72.9229 18.5344 72.9229C18.483 72.9229 18.4327 72.9125 18.3889 72.8929C18.2984 72.8598 18.2402 72.77 18.2209 72.6283C18.1946 72.4272 18.1225 72.2307 18.0075 72.047C17.9073 71.8877 17.7484 71.7519 17.5486 71.6548C17.3244 71.5587 17.0633 71.5188 16.8052 71.5414C16.4354 71.5768 16.0803 71.6703 15.7645 71.8155C15.3664 71.9848 15.0119 72.204 14.7174 72.4629C14.4234 72.7302 14.1739 73.022 13.974 73.3324C13.7701 73.6608 13.6162 74.0047 13.5151 74.3578C13.406 74.7199 13.3412 75.0883 13.3212 75.4588C13.3212 75.903 13.3212 76.4039 13.3212 76.9236C13.3212 77.4434 13.3212 77.9302 13.3212 78.3413C13.3321 78.6609 13.3972 78.9784 13.5151 79.2863C13.5924 79.521 13.7504 79.7373 13.974 79.9148C14.1724 80.0597 14.4373 80.1456 14.7174 80.1558C15.09 80.151 15.4531 80.0691 15.7645 79.9195C16.1512 79.7668 16.5042 79.5725 16.8117 79.343C17.3718 78.9111 17.7877 78.3904 18.0269 77.8215C18.1335 77.5725 18.2028 77.3158 18.2338 77.056Z" fill="#DFE1CA"/>
<path d="M5.42923 99.5243L26.1139 90.7965C26.9284 90.4515 27.5877 90.7303 27.5877 91.4155V108.956C27.5611 109.33 27.4137 109.693 27.1575 110.017C26.9013 110.341 26.5436 110.615 26.1139 110.818L5.42923 119.551C4.62124 119.891 3.96191 119.612 3.96191 118.927V101.386C3.98778 101.013 4.13425 100.65 4.38931 100.326C4.64437 100.003 5.00076 99.7278 5.42923 99.5243Z" fill="#EA7C22" fill-opacity="0.89"/>
<path opacity="0.3" d="M5.42923 99.5243L26.1139 90.7965C26.9284 90.4515 27.5877 90.7303 27.5877 91.4155V108.956C27.5611 109.33 27.4137 109.693 27.1575 110.017C26.9013 110.341 26.5436 110.615 26.1139 110.818L5.42923 119.551C4.62124 119.891 3.96191 119.612 3.96191 118.927V101.386C3.98778 101.013 4.13425 100.65 4.38931 100.326C4.64437 100.003 5.00076 99.7278 5.42923 99.5243Z" fill="#E98736"/>
<path d="M4.39484 100.328L0.652205 98.7402C0.384734 99.0596 0.235487 99.4244 0.219118 99.7987V117.344C0.200941 117.476 0.230142 117.609 0.303833 117.73C0.377523 117.851 0.493151 117.956 0.639276 118.034C0.910763 118.152 4.11689 119.494 4.36899 119.612C4.22881 119.532 4.1186 119.427 4.04855 119.307C3.97851 119.188 3.95088 119.057 3.96822 118.927V101.382C3.98576 101.01 4.13258 100.647 4.39484 100.328Z" fill="#EA7C22" fill-opacity="0.89"/>
<path d="M27.0638 90.6972C26.5402 90.4609 23.6249 89.2418 23.3858 89.1378C23.2177 89.08 23.0318 89.0557 22.8468 89.0673C22.6617 89.0789 22.4842 89.1261 22.3321 89.204L1.68621 97.9365C1.24958 98.1335 0.890854 98.4104 0.645508 98.7398L4.39461 100.328C4.64126 99.9991 4.9969 99.7212 5.42885 99.5195L26.1136 90.7964C26.2503 90.7268 26.4075 90.6815 26.5725 90.6643C26.7375 90.647 26.9058 90.6583 27.0638 90.6972Z" fill="#EA7C22" fill-opacity="0.89"/>
<path opacity="0.45" d="M27.0638 90.6972C26.5402 90.4609 23.6249 89.2418 23.3858 89.1378C23.2177 89.08 23.0318 89.0557 22.8468 89.0673C22.6617 89.0789 22.4842 89.1261 22.3321 89.204L1.68621 97.9365C1.24958 98.1335 0.890854 98.4104 0.645508 98.7398L4.39461 100.328C4.64126 99.9991 4.9969 99.7212 5.42885 99.5195L26.1136 90.7964C26.2503 90.7268 26.4075 90.6815 26.5725 90.6643C26.7375 90.647 26.9058 90.6583 27.0638 90.6972Z" fill="#E98736"/>
<path d="M15.687 99.482C16.2797 99.2027 16.9562 99.0325 17.6585 98.9858C17.9132 98.9748 18.1684 99.0018 18.4084 99.0651C18.6485 99.1285 18.8684 99.2269 19.0547 99.3544C19.4775 99.6717 19.7747 100.067 19.9144 100.498C20.1342 101.09 20.2557 101.699 20.2764 102.312C20.3216 103.149 20.3216 104.004 20.2764 104.874C20.2415 105.587 20.1204 106.297 19.9144 106.995C19.733 107.638 19.4488 108.263 19.0676 108.857C18.7099 109.415 18.2464 109.934 17.6908 110.398C17.134 110.855 16.479 111.243 15.7516 111.546L11.8732 113.181C11.8325 113.206 11.781 113.22 11.7278 113.22C11.6746 113.22 11.6231 113.206 11.5824 113.181C11.4931 113.103 11.449 113.003 11.4595 112.902V101.727C11.4633 101.594 11.5052 101.464 11.5824 101.344C11.6422 101.238 11.7434 101.148 11.8732 101.084L15.687 99.482ZM18.2079 103.191C18.1932 102.872 18.1282 102.555 18.014 102.246C17.9328 102.01 17.7678 101.793 17.5357 101.618C17.4307 101.545 17.3068 101.488 17.1714 101.451C17.036 101.414 16.8917 101.396 16.7471 101.4C16.3417 101.422 15.9503 101.518 15.6094 101.679L13.5797 102.544V110.322L15.7128 109.419C16.126 109.246 16.4972 109.024 16.8117 108.763C17.1175 108.498 17.376 108.206 17.5809 107.893C17.787 107.563 17.9431 107.218 18.0463 106.863C18.1534 106.496 18.2183 106.123 18.2402 105.748C18.2467 104.878 18.2467 104.023 18.2079 103.191Z" fill="#DFE1CA"/>
</svg>
