<svg width="144" height="144" viewBox="0 0 144 144" fill="none" xmlns="http://www.w3.org/2000/svg">
<path d="M72.0001 140.988C108.76 140.988 138.56 123.783 138.56 102.56C138.56 81.3366 108.76 64.1318 72.0001 64.1318C35.2402 64.1318 5.44043 81.3366 5.44043 102.56C5.44043 123.783 35.2402 140.988 72.0001 140.988Z" fill="#F5F5F5"/>
<path d="M117.964 117.481C117.579 115.704 115.66 114.293 113.486 113.564C112.521 112.366 110.75 111.01 107.726 109.532C101.027 106.266 97.4128 104.578 95.5581 103.74C94.95 103.479 94.291 103.357 93.6295 103.384C92.9681 103.411 92.3211 103.586 91.7363 103.896L76.3658 113.005C76.1557 113.107 75.9253 113.16 75.6918 113.16C75.4584 113.16 75.228 113.107 75.0179 113.005C74.9741 112.981 74.9343 112.95 74.8998 112.913C74.932 112.877 74.97 112.847 75.0122 112.824C80.6512 109.532 90.3395 103.861 91.8573 102.865C92.6147 102.364 92.5946 101.713 92.3238 101.278C91.5722 100.06 87.9117 99.141 86.3162 100.066L66.7322 111.372C66.0698 111.755 65.7069 112.32 65.7414 112.919C65.7789 113.561 66.2541 114.126 67.049 114.471C69.7965 115.664 74.5629 117.815 81.665 121.277C83.2058 121.987 84.6561 122.88 85.985 123.935C85.8525 123.915 85.72 123.9 85.5875 123.886C80.536 123.394 77.8115 125.199 77.4256 127.086C77.1146 128.595 78.2234 129.986 80.248 130.631C83.0906 131.538 87.6928 130.369 88.6893 127.886C88.9388 127.267 88.9642 126.581 88.7613 125.945C89.9738 126.616 90.9299 127.549 91.1574 128.598C91.4685 130.038 90.3424 131.55 87.9002 132.961C80.8586 137.025 75.5162 134.528 67.5645 129.937C66.4298 129.28 58.4522 124.713 44.4957 116.729C43.5973 116.214 42.8508 115.471 42.3315 114.575C41.8122 113.679 41.5384 112.661 41.5379 111.626V108C41.5282 107.87 41.4698 107.749 41.3745 107.661C41.2792 107.572 41.1539 107.523 41.0238 107.523C40.8938 107.523 40.7685 107.572 40.6732 107.661C40.5779 107.749 40.5195 107.87 40.5098 108V111.629C40.5105 112.845 40.8323 114.04 41.4427 115.092C42.0531 116.145 42.9303 117.017 43.9859 117.622C57.9424 125.605 65.9171 130.173 67.0518 130.827C72.256 133.831 76.5328 136.028 80.9363 136.028C83.3354 136.028 85.769 135.377 88.4243 133.851C92.0474 131.76 92.4563 129.724 92.1683 128.379C91.7824 126.59 89.9766 125.176 87.9376 124.427C86.9843 123.221 85.2074 121.85 82.1344 120.352C75.015 116.882 70.2342 114.725 67.4781 113.527C67.0634 113.348 66.7984 113.092 66.7869 112.858C66.7754 112.625 66.951 112.441 67.265 112.259L86.849 100.95C87.6467 100.489 89.5418 100.745 90.7053 101.281C91.3187 101.569 91.48 101.805 91.4915 101.84C91.503 101.874 91.4656 101.903 91.313 102.004C89.8154 102.989 80.1443 108.648 74.5139 111.937C74.3251 112.021 74.1647 112.158 74.0521 112.331C73.9395 112.504 73.8796 112.707 73.8796 112.913C73.8796 113.12 73.9395 113.322 74.0521 113.495C74.1647 113.669 74.3251 113.806 74.5139 113.89C74.8822 114.083 75.2919 114.183 75.7077 114.183C76.1235 114.183 76.5331 114.083 76.9014 113.89L92.272 104.777C92.7163 104.554 93.2036 104.429 93.7007 104.411C94.1977 104.393 94.6928 104.483 95.152 104.674C97.001 105.512 100.604 107.193 107.294 110.454C108.835 111.165 110.285 112.057 111.614 113.112C111.479 113.092 111.346 113.077 111.214 113.063C106.162 112.57 103.438 114.376 103.055 116.263C102.744 117.772 103.852 119.163 105.877 119.808C108.72 120.715 113.322 119.546 114.316 117.063C114.578 116.412 114.594 115.686 114.359 115.024C115.704 115.69 116.772 116.64 117.003 117.7C117.308 119.114 116.107 120.649 113.526 122.138L111.182 123.491C111.128 123.444 111.069 123.401 111.006 123.365C110.933 123.311 110.847 123.278 110.757 123.269C110.667 123.26 110.576 123.275 110.494 123.313L109.471 123.889C109.381 123.833 109.277 123.8 109.171 123.794C109.064 123.787 108.958 123.807 108.861 123.851L105.019 126.072C104.919 126.14 104.839 126.234 104.788 126.344C104.738 126.455 104.718 126.576 104.731 126.697C104.732 126.777 104.739 126.857 104.751 126.936L104.61 127.028L103.746 127.57L103.579 127.676L102.715 128.229L102.559 128.327L101.678 128.889L101.537 128.978L100.336 129.45C100.318 129.461 100.301 129.475 100.287 129.49L99.9616 129.778C99.9272 129.814 99.9008 129.857 99.8839 129.903C99.867 129.95 99.8601 130 99.8637 130.049C99.8729 130.213 99.9205 130.373 100.002 130.516C100.084 130.658 100.199 130.779 100.336 130.87C100.378 130.898 100.425 130.917 100.475 130.925C100.524 130.934 100.575 130.933 100.624 130.922L101.039 130.795C101.062 130.789 101.084 130.781 101.105 130.769L102.116 129.966L103.19 129.404L103.351 129.321L104.261 128.845L104.437 128.753L105.336 128.284L105.491 128.203C105.553 128.254 105.619 128.3 105.687 128.341C105.784 128.412 105.898 128.455 106.018 128.466C106.137 128.478 106.258 128.458 106.367 128.408L107.519 127.748L110.22 126.187C110.245 126.173 110.267 126.156 110.286 126.135C110.354 126.072 110.407 125.996 110.444 125.911C110.481 125.826 110.5 125.735 110.5 125.643L111.519 125.052C111.589 125.012 111.645 124.951 111.677 124.877C111.717 124.786 111.737 124.688 111.735 124.589C111.734 124.517 111.727 124.446 111.712 124.376C111.712 124.376 111.712 124.376 111.712 124.355L114.051 123.005C117.792 120.833 118.25 118.8 117.964 117.481Z" fill="#E0E0E0"/>
<path d="M80.9109 134.525C76.5074 134.525 72.2306 132.327 67.0264 129.324C65.5864 128.491 53.6892 121.683 43.9605 116.119C42.9049 115.514 42.0277 114.641 41.4173 113.589C40.8069 112.537 40.4851 111.342 40.4844 110.125V106.479C40.4941 106.35 40.5525 106.228 40.6478 106.14C40.7431 106.052 40.8684 106.002 40.9985 106.002C41.1285 106.002 41.2538 106.052 41.3491 106.14C41.4444 106.228 41.5028 106.35 41.5125 106.479V110.125C41.5133 111.161 41.7871 112.177 42.3064 113.073C42.8258 113.968 43.5722 114.711 44.4703 115.226C54.1989 120.793 66.0991 127.61 67.5391 128.434C75.4965 133.027 80.8332 135.521 87.8748 131.458C90.317 130.046 91.4431 128.537 91.132 127.094C90.9045 126.049 89.9512 125.113 88.7359 124.442C88.9381 125.079 88.9126 125.766 88.6639 126.386C87.6703 128.866 83.0652 130.035 80.2226 129.131C78.2066 128.485 77.0892 127.092 77.4002 125.585C77.789 123.696 80.5077 121.89 85.5621 122.386C85.6946 122.386 85.8271 122.414 85.9624 122.435C84.6324 121.38 83.1823 120.487 81.6424 119.773C74.5433 116.317 69.7768 114.163 67.0264 112.968C66.2316 112.625 65.7564 112.058 65.7189 111.416C65.6815 110.773 66.0473 110.264 66.7097 109.869L86.2936 98.5623C87.8892 97.6407 91.5496 98.5623 92.3013 99.7747C92.572 100.215 92.5893 100.863 91.8348 101.362C90.3228 102.355 80.6316 108.029 74.9897 111.324C74.9479 111.346 74.91 111.375 74.8773 111.41C74.911 111.447 74.9509 111.479 74.9954 111.502C75.2055 111.604 75.4359 111.657 75.6693 111.657C75.9027 111.657 76.1331 111.604 76.3432 111.502L91.7138 102.39C92.2989 102.08 92.9458 101.906 93.6071 101.879C94.2684 101.852 94.9273 101.973 95.5356 102.234C97.3874 103.072 101.008 104.757 107.704 108.026C110.739 109.506 112.51 110.866 113.464 112.058C115.626 112.787 117.556 114.198 117.942 115.978C118.23 117.297 117.772 119.327 113.976 121.519L109.388 124.168C109.27 124.236 109.13 124.255 108.999 124.219C108.867 124.184 108.755 124.098 108.687 123.98C108.619 123.862 108.601 123.722 108.636 123.59C108.672 123.458 108.758 123.346 108.876 123.278L113.464 120.629C116.056 119.14 117.245 117.608 116.94 116.194C116.709 115.131 115.641 114.178 114.296 113.518C114.531 114.18 114.515 114.905 114.253 115.557C113.259 118.037 108.657 119.206 105.814 118.302C103.798 117.657 102.681 116.263 102.992 114.756C103.381 112.867 106.099 111.061 111.151 111.557C111.283 111.557 111.416 111.586 111.551 111.603C110.222 110.548 108.772 109.656 107.231 108.945C100.538 105.685 96.9352 104.003 95.0892 103.167C94.6305 102.974 94.1354 102.884 93.6381 102.901C93.1408 102.918 92.6532 103.044 92.2092 103.268L76.8386 112.38C76.4703 112.574 76.0607 112.674 75.6448 112.674C75.229 112.674 74.8194 112.574 74.4511 112.38C74.2668 112.289 74.1103 112.15 73.9979 111.978C73.8855 111.806 73.8212 111.607 73.8117 111.401C73.8209 111.197 73.8841 110.999 73.9949 110.828C74.1058 110.656 74.2602 110.517 74.4425 110.425C84.1711 104.746 90.1356 101.209 91.2415 100.492C91.3941 100.391 91.42 100.328 91.42 100.328C91.42 100.328 91.2472 100.04 90.6338 99.769C89.4818 99.2333 87.5752 98.9799 86.7775 99.4407L67.1935 110.748C66.8796 110.929 66.7039 111.148 66.7154 111.347C66.7269 111.545 67.0034 111.836 67.4066 112.015C70.1656 113.216 74.9493 115.373 82.0629 118.84C85.1359 120.338 86.9128 121.72 87.8661 122.918C89.9052 123.664 91.7109 125.078 92.0968 126.867C92.3848 128.206 91.973 130.242 88.3528 132.339C85.7436 133.874 83.31 134.525 80.9109 134.525ZM83.9263 123.327C80.6258 123.327 78.6732 124.479 78.4053 125.793C78.2037 126.766 79.0216 127.67 80.5336 128.151C82.8751 128.897 86.9272 127.953 87.7106 126.003C87.9784 125.335 87.8172 124.589 87.2613 123.8C86.678 123.601 86.0742 123.469 85.4613 123.405C84.9199 123.353 84.4072 123.327 83.9263 123.327ZM109.538 112.499C106.241 112.499 104.288 113.651 104.02 114.964C103.818 115.937 104.633 116.842 106.148 117.323C108.49 118.068 112.542 117.124 113.325 115.174C113.596 114.497 113.426 113.734 112.853 112.939C112.274 112.76 111.679 112.638 111.076 112.576C110.535 112.525 110.022 112.499 109.538 112.499Z" fill="#455A64"/>
<path d="M110.454 121.804C110.536 121.766 110.627 121.751 110.717 121.76C110.807 121.77 110.893 121.802 110.966 121.855C111.178 121.993 111.353 122.178 111.479 122.397C111.605 122.615 111.678 122.86 111.692 123.111C111.702 123.202 111.687 123.294 111.649 123.377C111.611 123.46 111.551 123.531 111.476 123.583L108.576 125.257L107.554 123.477L110.454 121.804Z" fill="#37474F"/>
<path opacity="0.1" d="M111.606 122.671C111.659 122.812 111.688 122.961 111.693 123.112C111.703 123.202 111.688 123.294 111.65 123.377C111.612 123.46 111.552 123.532 111.477 123.584L108.577 125.257L108.214 124.626L111.606 122.671Z" fill="black"/>
<path d="M108.792 124.787C108.779 124.536 108.706 124.291 108.58 124.073C108.454 123.855 108.278 123.669 108.066 123.532C107.994 123.479 107.908 123.446 107.819 123.437C107.729 123.427 107.639 123.441 107.557 123.477C107.482 123.529 107.422 123.601 107.384 123.684C107.346 123.767 107.331 123.858 107.341 123.949C107.354 124.201 107.427 124.446 107.553 124.664C107.679 124.882 107.855 125.068 108.066 125.205C108.136 125.267 108.222 125.306 108.315 125.315C108.407 125.325 108.5 125.305 108.581 125.259C108.661 125.213 108.725 125.142 108.763 125.058C108.801 124.973 108.811 124.878 108.792 124.787Z" fill="#37474F"/>
<path d="M108.821 122.359C108.93 122.309 109.051 122.288 109.17 122.3C109.29 122.312 109.404 122.355 109.501 122.426C109.781 122.608 110.014 122.854 110.182 123.144C110.349 123.434 110.445 123.759 110.463 124.093C110.476 124.214 110.456 124.335 110.405 124.445C110.354 124.555 110.275 124.65 110.175 124.718L106.33 126.936L104.977 124.577L108.821 122.359Z" fill="#455A64"/>
<path opacity="0.1" d="M110.348 123.509C110.419 123.693 110.458 123.888 110.463 124.085C110.476 124.205 110.456 124.327 110.406 124.437C110.355 124.547 110.275 124.641 110.175 124.71L106.331 126.927L105.853 126.095L110.348 123.509Z" fill="black"/>
<path d="M106.615 126.313C106.598 125.98 106.502 125.655 106.334 125.365C106.167 125.076 105.934 124.83 105.654 124.649C105.564 124.56 105.448 124.504 105.323 124.488C105.198 124.472 105.072 124.497 104.963 124.56C104.854 124.623 104.768 124.719 104.719 124.835C104.67 124.951 104.661 125.08 104.692 125.202C104.71 125.535 104.807 125.86 104.974 126.15C105.141 126.44 105.374 126.686 105.654 126.869C105.743 126.958 105.86 127.014 105.985 127.031C106.11 127.047 106.237 127.021 106.346 126.958C106.456 126.895 106.541 126.797 106.59 126.681C106.638 126.565 106.647 126.435 106.615 126.313Z" fill="#37474F"/>
<path d="M105.654 125.127C105.599 125.087 105.535 125.062 105.467 125.056C105.4 125.049 105.332 125.061 105.271 125.089L101.504 127.485L100.303 127.955L101.072 129.294L102.083 128.491L106.04 126.431C106.096 126.393 106.14 126.34 106.169 126.278C106.197 126.216 106.208 126.148 106.201 126.08C106.191 125.889 106.137 125.703 106.042 125.538C105.947 125.372 105.814 125.231 105.654 125.127Z" fill="#EE9451"/>
<path opacity="0.7" d="M105.654 125.127C105.599 125.087 105.535 125.062 105.467 125.056C105.4 125.049 105.332 125.061 105.271 125.089L101.504 127.485L100.303 127.955L101.072 129.294L102.083 128.491L106.04 126.431C106.096 126.393 106.14 126.34 106.169 126.278C106.197 126.216 106.208 126.148 106.201 126.08C106.191 125.889 106.137 125.703 106.042 125.538C105.947 125.372 105.814 125.231 105.654 125.127Z" fill="white"/>
<path d="M100.685 127.995C100.631 127.956 100.566 127.931 100.499 127.924C100.432 127.917 100.364 127.928 100.302 127.955L100.253 127.995L99.9365 128.298L100.599 129.45L101.014 129.326C101.037 129.319 101.059 129.31 101.08 129.297C101.136 129.258 101.181 129.205 101.209 129.142C101.238 129.08 101.249 129.011 101.241 128.943C101.23 128.752 101.174 128.567 101.077 128.402C100.98 128.238 100.846 128.098 100.685 127.995Z" fill="#EE9451"/>
<path opacity="0.5" d="M100.685 127.995C100.631 127.956 100.566 127.931 100.499 127.924C100.432 127.917 100.364 127.928 100.302 127.955L100.253 127.995L99.9365 128.298L100.599 129.45L101.014 129.326C101.037 129.319 101.059 129.31 101.08 129.297C101.136 129.258 101.181 129.205 101.209 129.142C101.238 129.08 101.249 129.011 101.241 128.943C101.23 128.752 101.174 128.567 101.077 128.402C100.98 128.238 100.846 128.098 100.685 127.995Z" fill="white"/>
<path d="M100.78 129.119C100.771 128.954 100.723 128.795 100.641 128.652C100.558 128.509 100.443 128.388 100.305 128.298C100.26 128.258 100.203 128.234 100.143 128.228C100.083 128.222 100.023 128.235 99.9708 128.265C99.9186 128.296 99.8773 128.341 99.8525 128.396C99.8278 128.451 99.8209 128.513 99.8329 128.572C99.8419 128.736 99.8893 128.896 99.9714 129.038C100.053 129.181 100.168 129.302 100.305 129.393C100.35 129.434 100.407 129.459 100.468 129.466C100.529 129.472 100.59 129.459 100.643 129.429C100.695 129.399 100.737 129.352 100.762 129.296C100.787 129.241 100.793 129.179 100.78 129.119Z" fill="#EE9451"/>
<path d="M101.503 127.486C101.549 127.465 101.6 127.456 101.651 127.461C101.701 127.466 101.75 127.485 101.791 127.515C101.91 127.593 102.008 127.697 102.079 127.82C102.151 127.943 102.192 128.081 102.2 128.223C102.206 128.274 102.198 128.326 102.177 128.373C102.157 128.42 102.124 128.461 102.082 128.491L102.232 128.413C102.273 128.381 102.305 128.339 102.326 128.292C102.347 128.244 102.355 128.191 102.35 128.14C102.342 127.997 102.3 127.858 102.229 127.735C102.157 127.611 102.057 127.506 101.938 127.428C101.896 127.399 101.848 127.381 101.798 127.375C101.748 127.369 101.697 127.376 101.65 127.394L101.503 127.486Z" fill="#EE9451"/>
<path d="M102.528 126.834C102.578 126.812 102.633 126.803 102.688 126.808C102.743 126.814 102.795 126.834 102.839 126.866C102.969 126.951 103.078 127.066 103.155 127.2C103.233 127.335 103.278 127.486 103.286 127.641C103.292 127.696 103.283 127.751 103.261 127.802C103.238 127.852 103.203 127.896 103.159 127.929L103.32 127.842C103.364 127.809 103.399 127.765 103.422 127.715C103.444 127.665 103.454 127.609 103.45 127.554C103.441 127.4 103.396 127.25 103.318 127.115C103.241 126.981 103.133 126.867 103.004 126.783C102.958 126.749 102.905 126.728 102.849 126.721C102.793 126.714 102.736 126.722 102.684 126.742L102.528 126.834Z" fill="#EE9451"/>
<path d="M103.548 126.184C103.602 126.16 103.662 126.15 103.721 126.156C103.78 126.163 103.837 126.184 103.885 126.219C104.026 126.311 104.143 126.434 104.227 126.58C104.311 126.726 104.359 126.889 104.369 127.057C104.375 127.117 104.366 127.177 104.342 127.232C104.317 127.287 104.279 127.335 104.23 127.371L104.406 127.279C104.455 127.241 104.493 127.192 104.517 127.135C104.541 127.079 104.551 127.017 104.544 126.956C104.535 126.788 104.486 126.625 104.402 126.479C104.318 126.334 104.201 126.21 104.06 126.118C104.011 126.083 103.953 126.06 103.893 126.053C103.832 126.046 103.771 126.055 103.715 126.078L103.548 126.184Z" fill="#EE9451"/>
<path d="M104.57 125.533C104.629 125.507 104.693 125.497 104.757 125.504C104.82 125.51 104.881 125.533 104.933 125.571C105.085 125.669 105.211 125.802 105.301 125.959C105.392 126.116 105.444 126.291 105.454 126.472C105.461 126.537 105.451 126.603 105.424 126.663C105.397 126.722 105.355 126.774 105.302 126.812L105.495 126.711C105.547 126.671 105.588 126.618 105.613 126.558C105.639 126.497 105.649 126.431 105.642 126.365C105.632 126.185 105.58 126.01 105.49 125.853C105.4 125.696 105.274 125.563 105.123 125.464C105.07 125.425 105.008 125.401 104.942 125.393C104.877 125.384 104.81 125.393 104.749 125.418L104.57 125.533Z" fill="#EE9451"/>
<g opacity="0.1">
<path opacity="0.1" d="M101.503 127.486C101.549 127.465 101.6 127.456 101.651 127.461C101.701 127.466 101.75 127.485 101.791 127.515C101.91 127.593 102.008 127.697 102.079 127.82C102.151 127.943 102.192 128.081 102.2 128.223C102.206 128.274 102.198 128.326 102.177 128.373C102.157 128.42 102.124 128.461 102.082 128.491L102.232 128.413C102.273 128.381 102.305 128.339 102.326 128.292C102.347 128.244 102.355 128.191 102.35 128.14C102.342 127.997 102.3 127.858 102.229 127.735C102.157 127.611 102.057 127.506 101.938 127.428C101.896 127.399 101.848 127.381 101.798 127.375C101.748 127.369 101.697 127.376 101.65 127.394L101.503 127.486Z" fill="black"/>
<path opacity="0.1" d="M102.528 126.834C102.578 126.812 102.633 126.803 102.688 126.808C102.743 126.814 102.795 126.834 102.839 126.866C102.969 126.951 103.078 127.066 103.155 127.2C103.233 127.335 103.278 127.486 103.286 127.641C103.292 127.696 103.283 127.751 103.261 127.802C103.238 127.852 103.203 127.896 103.159 127.929L103.32 127.842C103.364 127.809 103.399 127.765 103.422 127.715C103.444 127.665 103.454 127.609 103.45 127.554C103.441 127.4 103.396 127.25 103.318 127.115C103.241 126.981 103.133 126.867 103.004 126.783C102.958 126.749 102.905 126.728 102.849 126.721C102.793 126.714 102.736 126.722 102.684 126.742L102.528 126.834Z" fill="black"/>
<path opacity="0.1" d="M103.548 126.184C103.602 126.16 103.662 126.15 103.721 126.156C103.78 126.163 103.837 126.184 103.885 126.219C104.026 126.311 104.143 126.434 104.227 126.58C104.311 126.726 104.359 126.889 104.369 127.057C104.375 127.117 104.366 127.177 104.342 127.232C104.317 127.287 104.279 127.335 104.23 127.371L104.406 127.279C104.455 127.241 104.493 127.192 104.517 127.135C104.541 127.079 104.551 127.017 104.544 126.956C104.535 126.788 104.486 126.625 104.402 126.479C104.318 126.334 104.201 126.21 104.06 126.118C104.011 126.083 103.953 126.06 103.893 126.053C103.832 126.046 103.771 126.055 103.715 126.078L103.548 126.184Z" fill="black"/>
<path opacity="0.1" d="M104.57 125.533C104.629 125.507 104.693 125.497 104.757 125.504C104.82 125.51 104.881 125.533 104.933 125.571C105.085 125.669 105.211 125.802 105.301 125.959C105.392 126.116 105.444 126.291 105.454 126.472C105.461 126.537 105.451 126.603 105.424 126.663C105.397 126.722 105.355 126.774 105.302 126.812L105.495 126.711C105.547 126.671 105.588 126.618 105.613 126.558C105.639 126.497 105.649 126.431 105.642 126.365C105.632 126.185 105.58 126.01 105.49 125.853C105.4 125.696 105.274 125.563 105.123 125.464C105.07 125.425 105.008 125.401 104.942 125.393C104.877 125.384 104.81 125.393 104.749 125.418L104.57 125.533Z" fill="black"/>
</g>
<path d="M67.9994 54.6624C67.8929 54.7056 67.7863 54.7459 67.6855 54.7978C67.5847 54.8496 67.5213 54.8842 67.4436 54.9274C67.3658 54.9706 67.2477 55.0397 67.1556 55.1002C67.0634 55.1606 67.0029 55.2067 66.9281 55.2643C66.8532 55.3219 66.7524 55.4026 66.666 55.4774C66.5796 55.5523 66.5277 55.6013 66.4615 55.6675C66.3953 55.7338 66.3002 55.8317 66.2225 55.9181C66.1447 56.0045 66.0986 56.065 66.0381 56.1398C65.9777 56.2147 65.8941 56.3299 65.825 56.4278C65.7559 56.5258 65.7185 56.5834 65.6695 56.664L65.6349 56.7216C65.5802 56.8138 65.5284 56.9088 65.4794 57.0096C65.4621 57.0384 65.4477 57.0672 65.4333 57.096C65.393 57.1738 65.3527 57.2544 65.3181 57.335C65.2836 57.4157 65.2548 57.479 65.226 57.551C65.1972 57.623 65.1857 57.6403 65.1684 57.6893L65.1165 57.8189C65.082 57.911 65.0503 58.0061 65.0215 58.1069C64.9927 58.2077 64.9668 58.2739 64.9437 58.3574C64.9005 58.5101 64.8573 58.6656 64.8228 58.8269C64.7959 58.9344 64.7729 59.0438 64.7537 59.1552C64.7537 59.2157 64.7306 59.2733 64.7191 59.3366C64.7076 59.4 64.6961 59.4662 64.6874 59.5354C64.6615 59.6966 64.6442 59.8666 64.6269 60.0365C64.6269 60.1171 64.6068 60.1949 64.601 60.2755C64.601 60.3072 64.601 60.336 64.601 60.3677C64.5809 60.6557 64.5693 60.9264 64.5693 61.2173C64.5777 62.3899 64.7177 63.5579 64.9869 64.6992C66.0583 69.408 69.1197 74.2752 72.8637 77.0602C73.3023 77.3921 73.7601 77.6979 74.2346 77.976L74.4305 78.0826C74.5399 78.143 74.6493 78.2064 74.7588 78.2611L75.0094 78.385L75.2801 78.5146L75.5537 78.6326L75.7927 78.7306C75.8878 78.768 75.9799 78.8026 76.0807 78.8342L76.3082 78.912L76.5818 78.9984L76.8237 79.0618L77.0714 79.1251L77.3997 79.1885L77.5524 79.2173L77.682 79.2317L79.6461 78.1027C78.429 77.9074 77.2606 77.4801 76.2045 76.8442C70.8477 73.7568 66.5277 66.24 66.5277 60.0768C66.5277 57.5741 67.242 55.679 68.4458 54.5098L68.2557 54.5645C68.1665 54.5933 68.0829 54.6278 67.9994 54.6624Z" fill="#263238"/>
<path d="M69.7336 52.5771C69.4344 52.6816 69.1453 52.8127 68.8696 52.9688L66.9141 54.0978C67.775 53.6108 68.7446 53.3483 69.7336 53.3346V52.5771Z" fill="#37474F"/>
<path d="M77.5559 79.2173L77.4033 79.1885L77.0749 79.1251L76.8273 79.0617L76.666 79.0214L76.5853 78.9984L76.3204 78.912L76.0928 78.8342L75.8048 78.7306L75.5658 78.6326L75.2922 78.5145L75.0215 78.385L74.7709 78.2611C74.6615 78.2064 74.5492 78.143 74.4368 78.0797C74.3764 78.0451 74.313 78.0163 74.2496 77.9789C73.7922 77.7096 73.35 77.4154 72.9249 77.0976C71.7056 76.1893 70.6003 75.1372 69.633 73.9642C68.7975 72.9574 68.048 71.8823 67.3924 70.7501C66.3094 68.8937 65.5032 66.8892 64.9991 64.8L64.9818 64.7021C64.713 63.5626 64.5729 62.3966 64.5642 61.2259C64.5642 60.9552 64.5642 60.6931 64.593 60.4339C64.593 60.3965 64.593 60.359 64.593 60.3216C64.5916 60.2957 64.5916 60.2697 64.593 60.2438C64.6103 60.0278 64.6333 59.8147 64.665 59.6074L64.6823 59.4749C64.6823 59.4058 64.7082 59.3424 64.7197 59.2733C64.7313 59.2042 64.7572 59.0832 64.7773 58.9853C64.7975 58.8874 64.8177 58.7837 64.8407 58.6973C64.8637 58.6109 64.8983 58.4899 64.93 58.3862C64.93 58.3459 64.9501 58.3056 64.9617 58.2682C64.9732 58.2307 64.9617 58.2365 64.9761 58.2221C65.002 58.1386 65.0279 58.0522 65.0567 57.9686C65.0855 57.8851 65.1316 57.7728 65.1719 57.6806C65.2122 57.5885 65.2698 57.4301 65.3274 57.3091C65.385 57.1882 65.4109 57.1421 65.4541 57.0586L65.506 56.9606C65.5521 56.8742 65.601 56.7907 65.65 56.7072C65.6989 56.6237 65.745 56.5603 65.794 56.4883L65.8602 56.3933C65.8948 56.3386 65.9322 56.2867 65.9697 56.2378L66.0589 56.1255C66.0849 56.0938 66.1079 56.0592 66.1367 56.0275L66.2951 55.8461L66.3498 55.7914C66.4161 55.7222 66.4823 55.6531 66.5543 55.5869C66.586 55.5581 66.6234 55.5322 66.6551 55.5062C66.7415 55.4314 66.8279 55.3594 66.9172 55.2931C67.0065 55.2269 67.0669 55.1808 67.1447 55.129C67.2225 55.0771 67.3348 55.0109 67.4327 54.9562C67.5306 54.9015 67.5911 54.8669 67.6746 54.8266C67.7581 54.7862 67.882 54.7344 67.9885 54.6912C68.0951 54.648 68.1556 54.6221 68.242 54.5933C68.3284 54.5645 68.3716 54.553 68.4378 54.5328L68.5847 54.4954C68.6711 54.4752 68.7575 54.4493 68.8468 54.432C68.9361 54.4147 69.1002 54.3917 69.2269 54.3773C69.3536 54.3629 69.3969 54.3514 69.4861 54.3456C69.5754 54.3398 69.6417 54.3456 69.7223 54.3456V53.3779C68.7333 53.3917 67.7637 53.6541 66.9028 54.1411C66.7818 54.2131 66.6637 54.288 66.5457 54.3686L66.4852 54.409C66.1486 54.6488 65.8387 54.924 65.5607 55.2298L65.4657 55.3335C65.3821 55.4285 65.3015 55.5264 65.2209 55.6215L65.1517 55.7222C65.0183 55.902 64.8943 56.0884 64.7802 56.281C64.7399 56.353 64.6967 56.425 64.6564 56.4998C64.6161 56.5747 64.5556 56.6899 64.5066 56.7878C64.4577 56.8858 64.4145 56.9866 64.3684 57.0758C64.3223 57.1651 64.282 57.2774 64.2417 57.3811C64.1783 57.5424 64.1207 57.7094 64.066 57.8794C64.0429 57.96 64.017 58.0435 63.994 58.127C63.9537 58.271 63.9162 58.415 63.8788 58.5677C63.8615 58.6426 63.8442 58.7146 63.8298 58.7894C63.7818 59.0083 63.7415 59.233 63.7089 59.4634C63.7089 59.521 63.6945 59.5786 63.6887 59.6333C63.6628 59.8291 63.6426 60.025 63.6282 60.2093C63.6282 60.2813 63.6282 60.3533 63.6138 60.4253C63.5965 60.6816 63.5879 60.9408 63.5879 61.2058C63.6114 62.9143 63.884 64.6102 64.3972 66.24C64.6607 67.1033 64.9742 67.9504 65.3361 68.7773C65.5281 69.1958 65.7201 69.6096 65.9121 70.0186C66.5352 71.2481 67.2586 72.4243 68.0749 73.535C69.6964 75.7382 71.6519 77.6073 73.7543 78.8198C74.5891 79.3168 75.4844 79.704 76.4183 79.9718L77.674 79.2518L77.5559 79.2173Z" fill="#455A64"/>
<path d="M87.4108 69.4395C87.4108 63.8062 83.4565 56.9576 78.5778 54.1409C76.1298 52.7297 73.918 52.6001 72.3196 53.5304C71.8329 53.8184 68.5756 55.6932 68.0774 55.9726C66.4703 56.8913 65.4854 58.8728 65.4854 61.698C65.4854 67.3313 69.4396 74.18 74.3183 76.9966C76.7605 78.4078 78.9724 78.5374 80.5708 77.61C81.0604 77.322 84.3436 75.4385 84.8361 75.1534C86.4229 74.2318 87.4108 72.2532 87.4108 69.4395Z" fill="#EE9451"/>
<path opacity="0.3" d="M87.4108 69.4395C87.4108 63.8062 83.4565 56.9576 78.5778 54.1409C76.1298 52.7297 73.918 52.6001 72.3196 53.5304C71.8329 53.8184 68.5756 55.6932 68.0774 55.9726C66.4703 56.8913 65.4854 58.8728 65.4854 61.698C65.4854 67.3313 69.4396 74.18 74.3183 76.9966C76.7605 78.4078 78.9724 78.5374 80.5708 77.61C81.0604 77.322 84.3436 75.4385 84.8361 75.1534C86.4229 74.2318 87.4108 72.2532 87.4108 69.4395Z" fill="black"/>
<path d="M74.3036 56.597C79.1795 59.4136 83.1337 66.2651 83.1337 71.8955C83.1337 77.5259 79.1996 79.8126 74.3036 76.996C69.4077 74.1794 65.4707 67.3307 65.4707 61.6974C65.4707 56.0642 69.4307 53.7803 74.3036 56.597Z" fill="#EE9451"/>
<path d="M78.0481 79.2742H78.0913C78.2411 79.2742 78.3793 79.2915 78.5348 79.2944H78.6068C78.8186 79.2951 79.0302 79.2826 79.2404 79.2569H79.2635C79.4398 79.2337 79.6148 79.201 79.7876 79.159C79.8596 79.1446 79.9345 79.1273 80.0065 79.1072C80.1419 79.0697 80.2772 79.0265 80.4097 78.9776C80.5422 78.9286 80.6084 78.8969 80.6977 78.8508C80.7467 78.8307 80.7899 78.8076 80.836 78.7846C81.2596 78.5703 81.6481 78.2925 81.9879 77.9609C81.2212 78.1724 80.4186 78.2205 79.6321 78.1021L77.668 79.231C77.8062 79.2483 77.9272 79.2656 78.0481 79.2742Z" fill="#263238"/>
<path d="M76.6913 54.9273C76.7414 55.6824 77.0674 56.3927 77.6072 56.9231C81.8148 60.791 84.8907 67.0694 84.8907 72.3887C84.8907 76.2595 83.2664 79.0127 80.611 79.9372C80.9503 79.8267 81.2759 79.6779 81.5816 79.4937L83.5371 78.3647C85.6164 77.1667 86.8548 74.6207 86.8548 71.254C86.8548 65.9375 83.7761 59.6563 79.5684 55.7913C79.0302 55.2598 78.7045 54.5501 78.6526 53.7955V45.959L76.6913 47.0937L75.7236 46.535L76.6913 47.0937V54.9273Z" fill="#37474F"/>
<path d="M77.6072 56.9233C77.0674 56.3929 76.7414 55.6826 76.6913 54.9275V47.0939L75.7236 46.5352V55.3969C75.7262 55.515 75.7397 55.6327 75.764 55.7483L75.7812 55.8347C75.8088 55.9578 75.8444 56.0791 75.8878 56.1976C75.958 56.3812 76.0438 56.5584 76.1441 56.7275L76.2248 56.8456C76.2996 56.9648 76.3844 57.0775 76.4782 57.1825C76.5352 57.2482 76.5968 57.3098 76.6625 57.3668C76.8958 57.5713 77.1233 57.7844 77.348 58.0004L77.5265 58.1761C77.7224 58.372 77.9153 58.5707 78.1025 58.778L78.1889 58.8673C78.402 59.1006 78.6094 59.3396 78.8168 59.5873L78.9723 59.7774C79.1422 59.9848 79.3092 60.1979 79.4705 60.411L79.5886 60.5665C79.7816 60.8228 79.9688 61.0878 80.1502 61.3528L80.2769 61.5457C80.4267 61.7675 80.5649 61.995 80.7118 62.2225L80.8328 62.4184C81.0027 62.7064 81.164 62.9771 81.3224 63.2622L81.4116 63.4321C81.5412 63.6712 81.668 63.9131 81.7889 64.1579L81.9012 64.3854C82.0433 64.6753 82.1787 64.9691 82.3073 65.2667C82.3217 65.307 82.339 65.3444 82.3534 65.3848C82.4657 65.6468 82.5723 65.9118 82.676 66.1796C82.7048 66.2603 82.7364 66.338 82.7652 66.4187C82.8776 66.7067 82.9841 67.0264 83.0792 67.3288C83.1742 67.6312 83.2635 67.9393 83.3441 68.2446L83.396 68.4404C83.4708 68.7284 83.54 69.0337 83.6004 69.3304L83.6264 69.4801C83.6801 69.7528 83.7262 70.0235 83.7646 70.2923C83.7646 70.3412 83.779 70.3931 83.7876 70.442C83.8251 70.73 83.8568 71.018 83.8769 71.306C83.8769 71.3694 83.8769 71.4328 83.8913 71.4961C83.9086 71.7841 83.923 72.0894 83.923 72.3803C83.923 74.1083 83.5803 75.5483 82.9668 76.6744C82.8353 76.9154 82.6861 77.1465 82.5204 77.3656C82.4398 77.4721 82.3563 77.5758 82.2699 77.6737C82.1835 77.7716 82.0942 77.8638 82.002 77.9617C81.6622 78.2933 81.2737 78.5711 80.85 78.7854C80.8068 78.8084 80.7608 78.8315 80.7118 78.8516C80.6168 78.8977 80.5188 78.9409 80.4238 78.9784C80.3288 79.0158 80.1761 79.0648 80.0523 79.0993H80.0206C79.9486 79.1195 79.8766 79.1368 79.8017 79.1512L79.6721 79.1857C79.5425 79.2116 79.41 79.2318 79.2776 79.2491H79.2545C79.0443 79.2748 78.8327 79.2873 78.6209 79.2865H78.4568C78.3416 79.2865 78.2235 79.2865 78.1054 79.2664H78.0478C77.9268 79.2664 77.8059 79.2433 77.682 79.226L76.4264 79.946C77.1231 80.147 77.844 80.2516 78.5691 80.2571C78.667 80.2571 78.762 80.2571 78.8571 80.2427C78.9521 80.2283 79.1192 80.2427 79.2401 80.2225L79.4619 80.1908C79.603 80.1707 79.7499 80.1505 79.8737 80.1246C79.94 80.1246 80.0062 80.0958 80.0724 80.0785L80.1531 80.0555C80.2769 80.0238 80.4008 79.995 80.5217 79.9547L80.6081 79.9288C83.2635 79.0129 84.8878 76.251 84.8878 72.3803C84.8907 67.0696 81.8148 60.7912 77.6072 56.9233Z" fill="#455A64"/>
<path d="M72.2881 54.501L72.3284 54.4837C72.3519 54.4751 72.3742 54.4635 72.3946 54.4492L74.3588 53.3145C74.4852 53.2339 74.5875 53.1208 74.6549 52.987C74.7223 52.8532 74.7523 52.7036 74.7418 52.5541V43.6924L72.7806 44.8271V53.6889C72.7945 53.8589 72.7544 54.0289 72.666 54.1748C72.5776 54.3206 72.4453 54.4348 72.2881 54.501Z" fill="#37474F"/>
<path d="M69.9206 53.3311C70.3921 53.333 70.8625 53.3774 71.326 53.4636C71.3831 53.4791 71.4431 53.4809 71.501 53.4688C71.5589 53.4568 71.6131 53.4311 71.6592 53.394C71.7053 53.3569 71.7419 53.3094 71.7661 53.2554C71.7903 53.2015 71.8014 53.1425 71.7984 53.0834V52.2021C71.0939 52.2104 70.3959 52.337 69.7334 52.5765V53.3426C69.7968 53.3398 69.8572 53.3311 69.9206 53.3311Z" fill="#37474F"/>
<path d="M70.168 54.3051C70.4013 54.3137 70.6339 54.3348 70.8649 54.3684C71.0896 54.403 71.32 54.4491 71.5504 54.5067H71.5936H71.6166C71.6905 54.5245 71.7656 54.537 71.8413 54.5441H71.8614C71.9237 54.5499 71.9863 54.5499 72.0486 54.5441H72.0832C72.1419 54.5345 72.1997 54.52 72.256 54.5009C72.4132 54.4347 72.5454 54.3205 72.6339 54.1747C72.7223 54.0288 72.7624 53.8587 72.7485 53.6887V44.827L71.7808 44.251V53.0695C71.7838 53.1286 71.7727 53.1876 71.7485 53.2416C71.7243 53.2955 71.6877 53.343 71.6416 53.3801C71.5955 53.4172 71.5413 53.4429 71.4834 53.455C71.4255 53.467 71.3655 53.4652 71.3085 53.4497C70.8449 53.3635 70.3745 53.3191 69.903 53.3172C69.8397 53.3172 69.7792 53.3172 69.7158 53.3172V54.2849C69.7849 54.2849 69.8512 54.2849 69.9203 54.2849C69.9894 54.2849 70.0902 54.3022 70.168 54.3051Z" fill="#455A64"/>
<path d="M86.5064 74.7966C86.5064 66.4734 80.6629 56.3646 73.4542 52.1915C69.8542 50.1121 66.5969 49.9163 64.2382 51.2756L60.2955 53.5508C57.9397 54.9159 56.4795 57.8334 56.4795 61.9921C56.4795 70.3153 62.323 80.4241 69.5288 84.5972C73.1288 86.6737 76.3861 86.8724 78.7448 85.5131L82.6846 83.2321C85.0462 81.8756 86.5064 78.9553 86.5064 74.7966Z" fill="#EE9451"/>
<path opacity="0.1" d="M78.7585 85.5102C83.8552 82.5676 83.855 73.0255 78.758 64.1972C73.6609 55.3689 65.3973 50.5976 60.3006 53.5402C55.2039 56.4827 55.2042 66.0249 60.3012 74.8532C65.3982 83.6815 73.6619 88.4528 78.7585 85.5102Z" fill="black"/>
<path d="M82.5871 77.0624C82.5871 68.7392 76.7436 58.6304 69.5349 54.4573C65.9292 52.375 62.6661 52.1821 60.3045 53.5501L58.3519 54.6761C55.9845 56.0384 54.5215 58.9616 54.5215 63.1261C54.5215 71.4493 60.365 81.5581 67.5708 85.7312C71.1765 87.8105 74.4396 88.0064 76.8012 86.6413L78.7653 85.5065C81.124 84.1443 82.5871 81.2153 82.5871 77.0624Z" fill="#F0F0F0"/>
<path d="M67.5708 55.5837C74.7708 59.7453 80.6229 69.8656 80.6229 78.1888C80.6229 86.512 74.7794 89.8845 67.5708 85.7229C60.3621 81.5613 54.5215 71.4409 54.5215 63.1177C54.5215 54.7945 60.365 51.4307 67.5708 55.5837Z" fill="#E0E0E0"/>
<path d="M81.5814 78.1971C81.5814 69.5802 75.5103 59.0653 68.0454 54.7568C65.8479 53.4867 63.7254 52.8445 61.7324 52.8445C60.3698 52.8256 59.0271 53.1727 57.8444 53.8496C57.1935 54.2298 54.5612 55.736 53.8931 56.1248C51.2147 57.6944 49.6191 60.9949 49.6191 65.3955C49.6191 74.0125 55.6902 84.5274 63.1551 88.8358C65.3526 90.1059 67.4751 90.7482 69.4681 90.7482C70.8399 90.7671 72.1912 90.4149 73.3791 89.7287C74.0185 89.3514 76.6191 87.8653 77.2815 87.4823C79.9772 85.9184 81.5814 82.6122 81.5814 78.1971Z" fill="#455A64"/>
<path d="M69.4681 90.7485C67.478 90.7485 65.3526 90.1062 63.1551 88.8361C55.6931 84.5161 49.6191 74.0128 49.6191 65.3958C49.6191 59.1462 52.8332 55.1113 57.807 55.1113C59.7999 55.1113 61.9225 55.7536 64.1199 57.0236C71.582 61.3436 77.6559 71.847 77.6559 80.464C77.6559 86.7107 74.4419 90.7485 69.4681 90.7485Z" fill="#37474F"/>
<path d="M66.5514 81.8287C65.4296 81.7948 64.3366 81.465 63.3834 80.8725C59.6567 78.7212 56.624 73.4709 56.624 69.1653C56.624 66.0463 58.2311 64.0303 60.7136 64.0303C61.8302 64.0664 62.9176 64.3951 63.8672 64.9836C67.5939 67.1378 70.6266 72.388 70.6266 76.6936C70.641 79.8127 69.0339 81.8287 66.5514 81.8287Z" fill="#263238"/>
<path d="M49.9046 96.4794C49.9046 87.8624 43.8336 77.3476 36.3686 73.0362C34.1712 71.769 32.0486 71.1268 30.0585 71.1268C28.6959 71.1072 27.353 71.4543 26.1705 72.1319C25.5197 72.512 22.8845 74.0183 22.2192 74.4071C19.5379 75.9767 17.9424 79.2772 17.9424 83.6749C17.9424 92.2919 24.0134 102.81 31.4784 107.118C33.6758 108.388 35.7984 109.03 37.7885 109.03C39.1623 109.047 40.5149 108.691 41.7024 107.999C42.3446 107.622 44.9453 106.136 45.6048 105.753C48.3005 104.201 49.9046 100.894 49.9046 96.4794Z" fill="#455A64"/>
<path d="M37.7914 109.031C35.8013 109.031 33.6787 108.388 31.4813 107.118C24.0163 102.798 17.9453 92.2921 17.9453 83.6751C17.9453 77.4284 21.1594 73.3936 26.136 73.3936C28.1261 73.3936 30.2487 74.0358 32.4461 75.303C39.9082 79.623 45.9821 90.1292 45.9821 98.7462C45.9792 104.993 42.7651 109.031 37.7914 109.031Z" fill="#37474F"/>
<path d="M45.0141 98.7458C45.0141 90.4226 39.1706 80.3138 31.9619 76.1407C28.3562 74.0584 25.0931 73.8626 22.7459 75.2306L20.7933 76.3596C18.4288 77.7218 16.9629 80.6421 16.9629 84.8066C16.9629 93.1298 22.8064 103.239 30.0151 107.412C33.6208 109.494 36.881 109.687 39.2311 108.325L41.1952 107.19C43.5539 105.825 45.0141 102.905 45.0141 98.7458Z" fill="#F0F0F0"/>
<path d="M30.0014 77.2726C37.2014 81.4342 43.0535 91.5545 43.0535 99.8777C43.0535 108.201 37.21 111.573 30.0014 107.423C22.7927 103.273 16.9492 93.1414 16.9492 84.8182C16.9492 76.495 22.7927 73.111 30.0014 77.2726Z" fill="#E0E0E0"/>
<path d="M43.0532 99.8776C43.0532 91.5544 37.2097 81.4456 30.001 77.2725C26.401 75.1932 23.1438 74.9973 20.785 76.3567L16.8423 78.6232C14.4836 79.9884 13.0234 82.9087 13.0234 87.0645C13.0234 95.3877 18.867 105.497 26.0756 109.67C29.6727 111.749 32.93 111.945 35.2916 110.585L39.2286 108.313C41.5902 106.96 43.0532 104.039 43.0532 99.8776Z" fill="#EE9451"/>
<path opacity="0.1" d="M26.0756 79.5396C33.2756 83.7012 39.1249 93.8215 39.1249 102.145C39.1249 110.468 33.2842 113.84 26.0756 109.679C18.867 105.517 13.0234 95.3969 13.0234 87.0737C13.0234 78.7505 18.867 75.378 26.0756 79.5396Z" fill="black"/>
<path d="M16.7045 84.2776C16.5979 84.3179 16.4914 84.3611 16.3877 84.4101C16.284 84.459 16.2264 84.4965 16.1487 84.5425C16.0709 84.5886 15.9528 84.6549 15.8607 84.7154C15.7685 84.7758 15.708 84.8219 15.6331 84.8795C15.5583 84.9371 15.4575 85.0149 15.3711 85.0898L15.1637 85.2827C15.0831 85.3634 15.0053 85.4469 14.9275 85.5333C14.8498 85.6197 14.8008 85.6802 14.7403 85.755C14.6799 85.8299 14.5992 85.9451 14.5301 86.043C14.461 86.141 14.4235 86.2014 14.3746 86.2821L14.34 86.3397C14.2853 86.4318 14.2335 86.524 14.1816 86.6277L14.1384 86.7141C14.0981 86.7918 14.0578 86.8696 14.0203 86.9502C13.9829 87.0309 13.9599 87.0942 13.9311 87.1662C13.9023 87.2382 13.8907 87.2584 13.8735 87.3045L13.8216 87.437C13.7871 87.5291 13.7554 87.6242 13.7237 87.725C13.692 87.8258 13.6719 87.892 13.6488 87.9755C13.6027 88.1272 13.5624 88.2827 13.5279 88.4421C13.5019 88.5515 13.4789 88.661 13.4587 88.7733L13.4242 88.9518C13.4242 89.0181 13.4011 89.0843 13.3925 89.1506C13.3666 89.3147 13.3493 89.4818 13.332 89.6517C13.332 89.7323 13.3119 89.8101 13.3061 89.8936C13.3061 89.9224 13.3061 89.9541 13.3061 89.9858C13.2859 90.2594 13.2744 90.5416 13.2744 90.8354C13.2827 92.008 13.4228 93.1759 13.692 94.3173C14.7691 99.0347 17.8335 103.902 21.5832 106.687C22.0232 107.017 22.4808 107.323 22.9541 107.603L23.1499 107.709L23.4783 107.888L23.7288 108.012L23.9995 108.138C24.0917 108.182 24.181 108.219 24.2875 108.256C24.3941 108.294 24.4459 108.326 24.5266 108.354L24.8146 108.461L25.0392 108.539L25.3272 108.622L25.5691 108.688L25.8168 108.749C25.9263 108.775 26.0357 108.795 26.1451 108.815L26.2949 108.844L26.4245 108.858L28.3455 107.712C27.1229 107.52 25.9493 107.093 24.8895 106.454C19.5413 103.366 15.2069 95.8638 15.2069 89.6862C15.2069 87.1864 15.9211 85.2914 17.125 84.1221C17.0616 84.1394 16.9954 84.1537 16.9349 84.1739L16.7045 84.2776Z" fill="#263238"/>
<path d="M18.4318 82.1924C18.1332 82.2971 17.8442 82.4271 17.5678 82.5812L15.6123 83.7101C16.4743 83.2272 17.4438 82.9687 18.4318 82.9585V82.1924Z" fill="#37474F"/>
<path d="M26.2483 108.832L26.0985 108.803C25.9891 108.783 25.8825 108.763 25.7702 108.737C25.6579 108.711 25.606 108.697 25.5225 108.677L25.3584 108.636L25.2806 108.61L24.9926 108.527L24.7622 108.449L24.4742 108.343C24.3936 108.314 24.3158 108.279 24.2352 108.245L23.9472 108.13L23.6764 108L23.4259 107.876L23.0918 107.695L22.9046 107.594C22.4478 107.324 22.0056 107.029 21.5798 106.713C20.3605 105.804 19.2553 104.752 18.288 103.579C17.4561 102.572 16.7104 101.497 16.0588 100.365C14.9716 98.5036 14.1624 96.4932 13.6569 94.3977C13.6569 94.366 13.6569 94.3343 13.6368 94.2997C13.3788 93.16 13.2484 91.9951 13.248 90.8265C13.248 90.5557 13.248 90.2937 13.2768 90.0345C13.2768 89.997 13.2768 89.9567 13.2768 89.9193C13.2754 89.8934 13.2754 89.8674 13.2768 89.8415C13.294 89.6255 13.3171 89.4153 13.3488 89.2079L13.366 89.0754C13.366 89.0063 13.392 88.9401 13.4035 88.8738C13.415 88.8076 13.4409 88.6837 13.4582 88.5858C13.4755 88.4879 13.4985 88.3842 13.5244 88.2978C13.5504 88.2114 13.582 88.0876 13.6108 87.9839L13.6454 87.8687C13.6467 87.8534 13.6467 87.838 13.6454 87.8226C13.6742 87.7362 13.7001 87.6527 13.7289 87.5692C13.7577 87.4857 13.8038 87.3705 13.8412 87.2812C13.8787 87.1919 13.942 87.0306 13.9996 86.9125C14.0572 86.7945 14.0832 86.7455 14.1264 86.662L14.1782 86.5612C14.2243 86.4777 14.2732 86.3913 14.3222 86.3106C14.3712 86.23 14.4172 86.1637 14.4662 86.0917L14.5296 85.9938L14.688 85.8239L14.7744 85.7145C14.8032 85.6828 14.8262 85.6482 14.855 85.6165C14.8838 85.5849 14.9587 85.4956 15.0134 85.4351L15.0652 85.3804L15.2697 85.1759C15.3014 85.1471 15.3388 85.1241 15.3705 85.0953C15.4569 85.0204 15.5433 84.9513 15.6326 84.885C15.7219 84.8188 15.7824 84.7727 15.8601 84.7209C15.9379 84.669 16.0502 84.6028 16.1481 84.5481C16.246 84.4934 16.3065 84.4559 16.3872 84.4156C16.4678 84.3753 16.5974 84.3234 16.704 84.2831L16.9574 84.1823L17.1532 84.1247L17.28 84.0959C17.3664 84.0729 17.4528 84.0498 17.542 84.0325C17.6313 84.0153 17.7926 83.9922 17.9222 83.9778C18.0086 83.9778 18.0921 83.9519 18.1814 83.9433C18.2707 83.9346 18.3369 83.9433 18.4176 83.9433V82.9756C17.4286 82.9893 16.4589 83.2518 15.598 83.7388C15.4742 83.8079 15.3561 83.8857 15.2409 83.9634L15.1804 84.0066C14.8429 84.2463 14.532 84.5215 14.2531 84.8274L14.1609 84.9311C14.0774 85.0261 13.9968 85.1241 13.9161 85.2191C13.8931 85.2508 13.87 85.2853 13.8441 85.317C13.7145 85.4956 13.5907 85.6828 13.4755 85.893L13.3516 86.109C13.2998 86.2041 13.2508 86.302 13.2019 86.397C13.1529 86.4921 13.1097 86.5958 13.0636 86.6994C13.0176 86.8031 12.9772 86.8982 12.9369 87.0047C12.8736 87.166 12.816 87.3302 12.7612 87.5001C12.7353 87.5807 12.7123 87.6642 12.6892 87.7477C12.6489 87.8946 12.6086 88.0358 12.574 88.1913L12.5222 88.413C12.4761 88.6319 12.4358 88.8565 12.4041 89.0869C12.4041 89.1417 12.4041 89.2022 12.384 89.2569C12.358 89.4498 12.3379 89.6457 12.3235 89.8329L12.3062 90.0489C12.2918 90.3052 12.2803 90.5644 12.2803 90.8294C12.3007 92.5346 12.5704 94.2277 13.0809 95.8549C13.3444 96.7173 13.6579 97.5635 14.0198 98.3894C14.2022 98.806 14.3942 99.2197 14.5958 99.6306C15.2176 100.861 15.9411 102.037 16.7587 103.147C18.3801 105.35 20.3356 107.219 22.438 108.435C23.274 108.929 24.1691 109.316 25.102 109.587L26.3577 108.864L26.2483 108.832Z" fill="#455A64"/>
<path d="M34.9088 99.7085C34.9088 94.078 30.9546 87.2265 26.0759 84.4099C23.6279 82.9987 21.416 82.8691 19.8176 83.8022L15.5754 86.2416C13.9684 87.1603 12.9834 89.1446 12.9834 91.967C12.9834 97.6003 16.9376 104.449 21.8164 107.266C24.2586 108.677 26.4704 108.809 28.0688 107.879L32.3341 105.425C33.921 104.501 34.9088 102.528 34.9088 99.7085Z" fill="#EE9451"/>
<path opacity="0.3" d="M34.9088 99.7085C34.9088 94.078 30.9546 87.2265 26.0759 84.4099C23.6279 82.9987 21.416 82.8691 19.8176 83.8022L15.5754 86.2416C13.9684 87.1603 12.9834 89.1446 12.9834 91.967C12.9834 97.6003 16.9376 104.449 21.8164 107.266C24.2586 108.677 26.4704 108.809 28.0688 107.879L32.3341 105.425C33.921 104.501 34.9088 102.528 34.9088 99.7085Z" fill="black"/>
<path d="M28.0513 107.883C31.5006 105.892 31.5006 99.4342 28.0514 93.4601C24.6023 87.486 19.01 84.2573 15.5608 86.2487C12.1116 88.2401 12.1115 94.6975 15.5607 100.672C19.0099 106.646 24.6021 109.874 28.0513 107.883Z" fill="#EE9451"/>
<path d="M26.3945 106.102C29.0832 104.557 29.0928 99.5281 26.4158 94.8702C23.7389 90.2124 19.3891 87.6891 16.7004 89.2343C14.0117 90.7796 14.0021 95.8082 16.6791 100.466C19.356 105.124 23.7058 107.647 26.3945 106.102Z" fill="#263238"/>
<path d="M25.2118 93.4067L21.1567 97.456L16.3154 89.0666C17.5509 88.3466 19.2674 88.4502 21.1567 89.5418C22.7654 90.5302 24.1473 91.8473 25.2118 93.4067Z" fill="#455A64"/>
<path d="M28.0135 101.418C28.0135 103.601 27.2446 105.139 25.9975 105.848L21.1562 97.4555L25.2113 93.4062C26.9076 95.8283 28.0135 98.7832 28.0135 101.418Z" fill="#37474F"/>
<path d="M26.0037 105.848C24.7682 106.56 23.0402 106.468 21.1567 105.376C19.5452 104.391 18.1643 103.071 17.1074 101.505L21.1567 97.4561L26.0037 105.848Z" fill="#455A64"/>
<path d="M21.1562 97.4558L17.1069 101.505C15.4048 99.0859 14.3047 96.1224 14.3047 93.5045C14.3047 91.3157 15.0736 89.7835 16.3207 89.0664L21.1562 97.4558Z" fill="#37474F"/>
<path d="M26.7433 108.889H26.7836C26.9334 108.889 27.0716 108.907 27.2271 108.907H27.2991C27.5151 108.907 27.7254 108.892 27.9327 108.869H27.9558C28.1322 108.848 28.3072 108.816 28.4799 108.774C28.5519 108.757 28.6268 108.743 28.6988 108.722C28.8342 108.685 28.9695 108.639 29.0991 108.59C29.2287 108.541 29.3007 108.509 29.3871 108.466L29.5254 108.397C29.9495 108.185 30.3382 107.908 30.6774 107.576C29.9104 107.787 29.1078 107.834 28.3215 107.714L26.3545 108.846C26.4956 108.864 26.6223 108.881 26.7433 108.889Z" fill="#263238"/>
<path d="M25.3868 84.5425C25.4375 85.2975 25.7633 86.0077 26.3027 86.5384C30.5075 90.4033 33.5862 96.6846 33.5862 102.001C33.5862 105.875 31.9619 108.625 29.3065 109.55C29.646 109.441 29.9717 109.293 30.2771 109.109L32.2326 107.98C34.3119 106.782 35.5503 104.236 35.5503 100.869C35.5503 95.5528 32.4716 89.2715 28.2639 85.4065C27.7293 84.8737 27.4077 84.164 27.3596 83.4107V75.5742L25.3983 76.7089L24.4307 76.1502L25.3983 76.7089L25.3868 84.5425Z" fill="#37474F"/>
<path d="M26.3034 86.5376C25.7641 86.0069 25.4382 85.2967 25.3876 84.5417V76.7081L24.4199 76.1494V85.0112C24.4225 85.1283 24.436 85.245 24.4602 85.3597L24.4775 85.4489C24.5051 85.5721 24.5406 85.6933 24.5841 85.8118C24.6537 85.9948 24.7395 86.1711 24.8404 86.3389C24.8663 86.3821 24.8922 86.4195 24.921 86.4598C24.9959 86.5783 25.0797 86.691 25.1716 86.7968C25.2304 86.8618 25.2929 86.9234 25.3588 86.9811C25.5921 87.1827 25.8196 87.3958 26.0442 87.6147L26.2228 87.7904C26.4186 87.9862 26.6116 88.1849 26.7988 88.3894L26.8852 88.4816C27.0983 88.7149 27.3057 88.9539 27.5102 89.1987C27.5649 89.2621 27.6167 89.3283 27.6686 89.3917C27.8385 89.599 28.0055 89.8093 28.1668 90.0253C28.2071 90.0771 28.2474 90.1261 28.2849 90.1779C28.4778 90.4371 28.6622 90.6992 28.8609 90.967L28.9876 91.16C29.1374 91.3817 29.2756 91.6064 29.4225 91.8339L29.5434 92.0326C29.7134 92.3206 29.8746 92.5913 30.033 92.8736L30.1223 93.0464C30.2519 93.2854 30.3786 93.5273 30.4996 93.7721L30.6119 93.9968C30.753 94.2848 30.8999 94.5728 31.0151 94.8809C31.0324 94.9184 31.0497 94.9587 31.0641 94.9961C31.1774 95.2611 31.2839 95.5261 31.3838 95.791C31.4154 95.8717 31.4471 95.9523 31.4759 96.0329C31.5854 96.3354 31.6948 96.6377 31.7898 96.943C31.8849 97.2483 31.9713 97.5536 32.0548 97.8589C32.0721 97.9222 32.0894 97.9885 32.1038 98.0547C32.1825 98.3504 32.2516 98.647 32.3111 98.9446L32.337 99.0944C32.3918 99.3651 32.435 99.6358 32.4753 99.9065C32.4753 99.9555 32.4753 100.004 32.4954 100.053C32.5358 100.341 32.5646 100.629 32.5876 100.917C32.5876 100.981 32.5876 101.044 32.5876 101.108C32.6049 101.396 32.6193 101.698 32.6193 101.989C32.6193 103.717 32.2766 105.171 31.6631 106.286C31.5315 106.527 31.3823 106.758 31.2167 106.977C31.1361 107.084 31.0526 107.187 30.9662 107.285C30.8798 107.383 30.7905 107.475 30.6983 107.573C30.3591 107.905 29.9705 108.182 29.5463 108.394L29.4081 108.463C29.3102 108.506 29.2122 108.549 29.1201 108.587C29.0279 108.624 28.8753 108.676 28.7514 108.711H28.7198C28.6478 108.731 28.5729 108.745 28.5009 108.763L28.3713 108.794C28.2417 108.82 28.1092 108.843 27.9767 108.858H27.9364C27.7261 108.882 27.5145 108.894 27.3028 108.895H27.1386C27.0234 108.895 26.9054 108.895 26.7873 108.875H26.7441C26.6231 108.875 26.4993 108.849 26.3783 108.832L25.1226 109.555C25.8193 109.756 26.5403 109.86 27.2654 109.866C27.3633 109.866 27.4583 109.866 27.5534 109.866C27.6484 109.866 27.8154 109.866 27.9364 109.845L28.1582 109.814C28.2993 109.794 28.4462 109.773 28.5671 109.748L28.7687 109.701L28.8494 109.678C28.9732 109.647 29.097 109.615 29.218 109.578L29.3044 109.549C31.9598 108.636 33.5841 105.874 33.5841 102C33.587 96.6838 30.5082 90.4025 26.3034 86.5376Z" fill="#455A64"/>
<path d="M20.9668 84.1163L21.0244 84.0961L21.0906 84.0616L23.0404 82.9441C23.1668 82.8636 23.2691 82.7505 23.3365 82.6166C23.4039 82.4828 23.4339 82.3333 23.4234 82.1838V73.3076L21.4622 74.4423V83.3012C21.4765 83.472 21.4363 83.643 21.3473 83.7895C21.2583 83.936 21.125 84.0504 20.9668 84.1163Z" fill="#37474F"/>
<path d="M18.6159 82.9434C19.0875 82.9439 19.558 82.9883 20.0214 83.0759C20.0784 83.0908 20.1381 83.0921 20.1958 83.0798C20.2534 83.0674 20.3073 83.0417 20.3533 83.0048C20.3992 82.9678 20.4358 82.9206 20.4602 82.8669C20.4846 82.8133 20.496 82.7546 20.4937 82.6957V81.8145C19.789 81.8197 19.0904 81.9463 18.4287 82.1889V82.9549C18.4921 82.9434 18.5526 82.9434 18.6159 82.9434Z" fill="#37474F"/>
<path d="M18.8644 83.9174C19.0919 83.9174 19.3252 83.9491 19.5613 83.9837C19.7921 84.0178 20.0208 84.064 20.2468 84.1219C20.2602 84.1203 20.2737 84.1203 20.2871 84.1219H20.313C20.3876 84.1411 20.4637 84.1537 20.5405 84.1593H20.5607C20.623 84.1637 20.6856 84.1637 20.7479 84.1593H20.7825C20.8414 84.1511 20.8993 84.1366 20.9553 84.1161C21.1135 84.0503 21.2467 83.9358 21.3358 83.7893C21.4248 83.6429 21.465 83.4719 21.4506 83.3011V74.4422L20.4829 73.8662V82.6877C20.4853 82.7466 20.4738 82.8052 20.4494 82.8589C20.4251 82.9125 20.3884 82.9597 20.3425 82.9967C20.2966 83.0336 20.2427 83.0593 20.185 83.0717C20.1274 83.084 20.0676 83.0827 20.0106 83.0678C19.5473 82.9802 19.0767 82.9358 18.6052 82.9353C18.5418 82.9353 18.4813 82.9353 18.418 82.9353V83.903H18.6224C18.7204 83.9203 18.7866 83.9145 18.8644 83.9174Z" fill="#455A64"/>
<path d="M22.0749 69.0337C21.7178 68.8292 21.2282 68.858 20.6868 69.1719C20.113 69.5433 19.6355 70.0455 19.2935 70.6373C18.9516 71.229 18.7549 71.8935 18.7197 72.5761C18.7197 73.2068 18.9415 73.6503 19.2957 73.8519L27.1408 78.3793L29.9056 73.5668L22.0749 69.0337Z" fill="#EE9451"/>
<path opacity="0.3" d="M22.0749 69.0337C21.7178 68.8292 21.2282 68.858 20.6868 69.1719C20.113 69.5433 19.6355 70.0455 19.2935 70.6373C18.9516 71.229 18.7549 71.8935 18.7197 72.5761C18.7197 73.2068 18.9415 73.6503 19.2957 73.8519L27.1408 78.3793L29.9056 73.5668L22.0749 69.0337Z" fill="black"/>
<path opacity="0.3" d="M18.9588 71.3809C18.81 71.7623 18.729 72.1668 18.7197 72.5761C18.7197 73.2068 18.9415 73.6503 19.2957 73.8519L27.1408 78.3792L28.1172 76.68L18.9588 71.3809Z" fill="black"/>
<path d="M26.5742 77.1028C26.61 76.4215 26.8066 75.7584 27.148 75.1677C27.4894 74.577 27.9659 74.0755 28.5384 73.7044C29.0741 73.3934 29.5608 73.3617 29.915 73.5604C30.2693 73.7591 30.491 74.2055 30.491 74.8363C30.4542 75.5174 30.2574 76.1803 29.9167 76.7712C29.5759 77.3621 29.1008 77.8645 28.5297 78.2376C27.9854 78.5486 27.4958 78.5803 27.1416 78.3729C26.7873 78.1656 26.5742 77.7307 26.5742 77.1028Z" fill="#EE9451"/>
<path opacity="0.2" d="M26.5742 77.1028C26.61 76.4215 26.8066 75.7584 27.148 75.1677C27.4894 74.577 27.9659 74.0755 28.5384 73.7044C29.0741 73.3934 29.5608 73.3617 29.915 73.5604C30.2693 73.7591 30.491 74.2055 30.491 74.8363C30.4542 75.5174 30.2574 76.1803 29.9167 76.7712C29.5759 77.3621 29.1008 77.8645 28.5297 78.2376C27.9854 78.5486 27.4958 78.5803 27.1416 78.3729C26.7873 78.1656 26.5742 77.7307 26.5742 77.1028Z" fill="black"/>
<path d="M27.4238 76.6081C27.4448 76.2215 27.5567 75.8452 27.7503 75.51C27.944 75.1747 28.214 74.8898 28.5384 74.6785C28.6448 74.584 28.7784 74.5254 28.9201 74.5112C29.0617 74.497 29.2042 74.5278 29.3274 74.5992C29.4505 74.6707 29.548 74.7792 29.6059 74.9092C29.6638 75.0393 29.6793 75.1843 29.6501 75.3236C29.6289 75.7094 29.5173 76.0849 29.3242 76.4196C29.1311 76.7543 28.8619 77.0389 28.5384 77.2503C28.4317 77.3437 28.2984 77.4013 28.1573 77.4152C28.0162 77.4291 27.8743 77.3985 27.7515 77.3277C27.6286 77.2569 27.531 77.1495 27.4722 77.0204C27.4135 76.8914 27.3966 76.7472 27.4238 76.6081Z" fill="#37474F"/>
<path d="M29.1281 75.0354C29.1336 74.8617 29.0929 74.6898 29.01 74.5371C28.8429 74.5468 28.6808 74.5972 28.5377 74.684C28.2133 74.8954 27.9433 75.1802 27.7496 75.5155C27.556 75.8508 27.4441 76.227 27.4231 76.6136C27.4191 76.7871 27.4597 76.9587 27.5412 77.1118C27.7092 77.1023 27.8723 77.0519 28.0164 76.965C28.3403 76.7533 28.6097 76.4683 28.8028 76.133C28.996 75.7978 29.1074 75.4217 29.1281 75.0354Z" fill="#263238"/>
<path d="M73.1062 39.5708C72.752 39.3663 72.2595 39.3951 71.7181 39.709C71.1465 40.0812 70.6708 40.5828 70.3296 41.1733C69.9883 41.7638 69.7911 42.4264 69.7539 43.1074C69.7539 43.7381 69.9785 44.1788 70.3299 44.3833L78.1721 48.9106L80.9398 44.0981L73.1062 39.5708Z" fill="#EE9451"/>
<path opacity="0.3" d="M73.1062 39.5708C72.752 39.3663 72.2595 39.3951 71.7181 39.709C71.1465 40.0812 70.6708 40.5828 70.3296 41.1733C69.9883 41.7638 69.7911 42.4264 69.7539 43.1074C69.7539 43.7381 69.9785 44.1788 70.3299 44.3833L78.1721 48.9106L80.9398 44.0981L73.1062 39.5708Z" fill="black"/>
<path opacity="0.3" d="M69.9842 41.915C69.8384 42.2962 69.7585 42.6994 69.748 43.1074C69.748 43.7381 69.9727 44.1787 70.324 44.3832L78.1663 48.9106L79.1455 47.2085L69.9842 41.915Z" fill="black"/>
<path d="M77.6074 47.6411C77.6443 46.96 77.841 46.2971 78.1818 45.7062C78.5225 45.1153 78.9976 44.6129 79.5687 44.2398C80.1073 43.9317 80.594 43.9 80.9482 44.0987C81.3025 44.2974 81.5242 44.7438 81.5242 45.3745C81.4884 46.0559 81.2918 46.719 80.9504 47.3097C80.609 47.9004 80.1325 48.4018 79.5601 48.7729C79.0186 49.0869 78.529 49.1157 78.1719 48.9112C77.8148 48.7067 77.6074 48.2661 77.6074 47.6411Z" fill="#EE9451"/>
<path opacity="0.2" d="M77.6074 47.6411C77.6443 46.96 77.841 46.2971 78.1818 45.7062C78.5225 45.1153 78.9976 44.6129 79.5687 44.2398C80.1073 43.9317 80.594 43.9 80.9482 44.0987C81.3025 44.2974 81.5242 44.7438 81.5242 45.3745C81.4884 46.0559 81.2918 46.719 80.9504 47.3097C80.609 47.9004 80.1325 48.4018 79.5601 48.7729C79.0186 49.0869 78.529 49.1157 78.1719 48.9112C77.8148 48.7067 77.6074 48.2661 77.6074 47.6411Z" fill="black"/>
<path d="M78.4571 47.1506C78.4777 46.7643 78.5891 46.3882 78.7823 46.053C78.9754 45.7177 79.2449 45.4327 79.5687 45.221C79.6809 45.1404 79.8123 45.0906 79.9497 45.0764C80.0871 45.0623 80.2258 45.0843 80.3521 45.1404C80.4672 45.2199 80.5588 45.3291 80.6171 45.4563C80.6754 45.5835 80.6982 45.7241 80.6833 45.8633C80.6628 46.25 80.5511 46.6264 80.3574 46.9617C80.1637 47.297 79.8935 47.5818 79.5687 47.7928C79.4624 47.8869 79.3292 47.9452 79.1879 47.9594C79.0467 47.9737 78.9045 47.9431 78.7816 47.8721C78.6587 47.8011 78.5612 47.6932 78.5029 47.5637C78.4447 47.4342 78.4286 47.2897 78.4571 47.1506Z" fill="#37474F"/>
<path d="M80.1623 45.5725C80.1663 45.399 80.1256 45.2274 80.0442 45.0742C79.8762 45.0838 79.7131 45.1342 79.569 45.2211C79.2448 45.4326 78.9749 45.7175 78.7813 46.0528C78.5876 46.388 78.4757 46.7641 78.4545 47.1507C78.4498 47.3246 78.4915 47.4965 78.5754 47.6489C78.7425 47.6392 78.9046 47.5888 79.0477 47.5021C79.372 47.2905 79.6418 47.0056 79.8354 46.6704C80.0291 46.3351 80.141 45.959 80.1623 45.5725Z" fill="#263238"/>
<path d="M79.1456 23.2122L70.6784 18.3162C70.1363 17.2832 69.4856 16.311 68.7373 15.416C73.2819 16.208 76.8762 18.9613 79.1456 23.2122Z" fill="#EE9451"/>
<path opacity="0.2" d="M79.1456 23.2122L70.6784 18.3162C70.1363 17.2832 69.4856 16.311 68.7373 15.416C73.2819 16.208 76.8762 18.9613 79.1456 23.2122Z" fill="black"/>
<path d="M77.5783 44.2881C78.009 41.9984 78.2317 39.6743 78.2435 37.3444C78.2435 21.5937 67.1872 15.2088 53.5475 23.0856C39.9079 30.9624 28.8487 50.1115 28.8487 65.8622C28.8354 67.9411 29.0595 70.0147 29.5168 72.0427L26.3315 73.883C25.935 71.8296 25.7421 69.742 25.7555 67.6507C25.7555 49.9243 38.2029 28.3646 53.5562 19.5028C68.9095 10.6411 81.3539 17.8238 81.3539 35.5531C81.349 37.8689 81.1564 40.1804 80.7779 42.4651L77.6099 44.2997" fill="#37474F"/>
<path d="M77.5817 44.2885C78.0103 41.9976 78.232 39.6727 78.2441 37.342C78.2441 26.9538 73.4345 20.638 66.2432 19.8057C68.4924 22.8066 69.7827 27.0892 69.7827 32.4777C69.7689 34.8016 69.5473 37.1196 69.1203 39.4041L77.5817 44.2885Z" fill="#263238"/>
<path d="M72.6994 17.2795C67.7113 14.6875 60.9692 15.2232 53.5474 19.5086C38.1912 28.3646 25.7468 49.9214 25.7468 67.6536C25.7331 69.743 25.9261 71.8287 26.3228 73.8801L17.8757 69.0014C17.4706 66.9538 17.2708 64.8708 17.2796 62.7835C17.2796 45.0542 29.7241 23.4974 45.0802 14.6328C52.7497 10.2033 59.6905 9.78574 64.7218 12.6859C66.0121 13.4174 70.7612 16.1621 72.6994 17.2795Z" fill="#455A64"/>
<path d="M22.0089 66.588C21.7734 66.5796 21.5442 66.5101 21.3436 66.3864C20.9315 66.1173 20.5882 65.7555 20.3412 65.3299C20.0941 64.9043 19.9502 64.4267 19.9209 63.9355C19.9209 63.2788 20.2607 62.8555 20.7849 62.8555C21.0202 62.8627 21.2495 62.9312 21.4502 63.0542C21.8632 63.3257 22.207 63.69 22.454 64.118C22.701 64.5461 22.8445 65.0261 22.8729 65.5195C22.87 66.1617 22.5302 66.588 22.0089 66.588Z" fill="#263238"/>
<path d="M73.9558 15.5776C71.4967 14.2586 68.7425 13.5866 65.9523 13.625C61.71 13.625 57.1856 14.9959 52.4998 17.6973C41.6566 23.9555 32.1958 36.3597 27.271 49.4378L18.8096 44.5418C23.7344 31.4637 33.2096 19.0595 44.0384 12.8013C48.7241 10.0999 53.2544 8.72321 57.4908 8.72321C60.3874 8.68361 63.2425 9.41306 65.7651 10.8371C67.1043 11.6263 72.1645 14.5408 73.9558 15.5776Z" fill="#EE9451"/>
<path opacity="0.6" d="M73.9558 15.5776C71.4967 14.2586 68.7425 13.5866 65.9523 13.625C61.71 13.625 57.1856 14.9959 52.4998 17.6973C41.6566 23.9555 32.1958 36.3597 27.271 49.4378L18.8096 44.5418C23.7344 31.4637 33.2096 19.0595 44.0384 12.8013C48.7241 10.0999 53.2544 8.72321 57.4908 8.72321C60.3874 8.68361 63.2425 9.41306 65.7651 10.8371C67.1043 11.6263 72.1645 14.5408 73.9558 15.5776Z" fill="white"/>
<path d="M79.1422 23.2096C76.4292 18.1437 71.8241 15.186 65.9518 15.186C61.986 15.186 57.7207 16.4848 53.2798 19.0509C42.6526 25.1853 33.3876 37.3908 28.6241 50.2212L27.2705 49.4378C32.1953 36.3597 41.6561 23.9556 52.4993 17.6973C57.1851 14.9959 61.7153 13.625 65.9518 13.625C72.1323 13.625 77.0427 16.5453 80.0638 21.617L79.1422 23.2096Z" fill="#EE9451"/>
<path d="M115.502 18.5244L114.091 23.1756C113.975 23.0887 113.846 23.0215 113.708 22.9769C113.467 22.9039 113.21 22.9041 112.969 22.9773C112.728 23.0505 112.514 23.1936 112.355 23.3883C112.195 23.583 112.097 23.8207 112.072 24.0713C112.048 24.3219 112.098 24.5741 112.217 24.7961C112.336 25.0181 112.518 25.1998 112.74 25.3183C112.962 25.4369 113.215 25.4868 113.465 25.462C113.716 25.4371 113.953 25.3385 114.148 25.1786C114.342 25.0187 114.485 24.8048 114.558 24.5638L115.825 20.3964L120.355 20.5635L119.108 24.6963C118.993 24.6082 118.863 24.5409 118.725 24.4975C118.484 24.4246 118.227 24.4247 117.986 24.498C117.745 24.5712 117.531 24.7142 117.372 24.9089C117.212 25.1037 117.114 25.3414 117.089 25.5919C117.065 25.8425 117.115 26.0948 117.234 26.3167C117.353 26.5387 117.535 26.7204 117.757 26.839C117.979 26.9575 118.231 27.0075 118.482 26.9826C118.733 26.9578 118.97 26.8591 119.165 26.6993C119.359 26.5394 119.502 26.3254 119.575 26.0844L121.657 19.1724L115.502 18.5244Z" fill="#EE9451"/>
<path d="M112.098 89.79L110.687 94.4412C110.572 94.3531 110.442 94.2859 110.304 94.2425C110.063 94.1696 109.806 94.1697 109.565 94.2429C109.324 94.3162 109.11 94.4592 108.951 94.6539C108.791 94.8486 108.693 95.0863 108.668 95.3369C108.644 95.5875 108.694 95.8397 108.813 96.0617C108.932 96.2837 109.114 96.4654 109.336 96.5839C109.558 96.7025 109.81 96.7525 110.061 96.7276C110.311 96.7027 110.549 96.6041 110.743 96.4442C110.938 96.2844 111.081 96.0704 111.154 95.8294L112.421 91.662L116.951 91.8291L115.704 95.9619C115.589 95.8738 115.459 95.8065 115.321 95.7632C115.08 95.6902 114.823 95.6903 114.582 95.7636C114.341 95.8368 114.127 95.9798 113.968 96.1746C113.808 96.3693 113.71 96.607 113.685 96.8575C113.661 97.1081 113.711 97.3604 113.83 97.5823C113.949 97.8043 114.131 97.986 114.353 98.1046C114.575 98.2231 114.827 98.2731 115.078 98.2482C115.328 98.2234 115.566 98.1248 115.76 97.9649C115.955 97.805 116.098 97.591 116.17 97.35L118.25 90.438L112.098 89.79Z" fill="#EE9451"/>
<path d="M103.139 35.0181C103.424 34.8787 103.735 34.8012 104.052 34.7906C104.476 34.7823 104.899 34.8307 105.31 34.9346C105.855 35.0845 106.414 35.181 106.978 35.2226C107.261 35.2419 107.544 35.2039 107.812 35.1108C108.08 35.0178 108.326 34.8717 108.536 34.6812C108.206 34.712 107.873 34.6676 107.562 34.5516C106.817 34.2636 106.217 33.5004 105.546 33.0741C104.547 32.4434 103.559 32.4981 102.344 32.8034C102.344 33.8373 102.324 34.877 102.312 35.9138L102.286 38.3532C102.286 38.4309 102.249 39.462 102.249 39.462C101.967 39.3207 101.657 39.244 101.342 39.2373C100.996 39.2339 100.658 39.333 100.369 39.5221C100.08 39.7111 99.8535 39.9816 99.7184 40.2994C99.5832 40.6171 99.5453 40.9678 99.6096 41.3071C99.6738 41.6464 99.8372 41.959 100.079 42.2054C100.321 42.4517 100.631 42.6208 100.969 42.6912C101.307 42.7616 101.658 42.7301 101.978 42.6007C102.298 42.4713 102.573 42.2499 102.767 41.9644C102.962 41.679 103.067 41.3423 103.07 40.997L103.139 35.0181Z" fill="#EE9451"/>
<path d="M131.328 78.6586C131.64 78.603 131.962 78.6148 132.269 78.6931C132.678 78.8036 133.071 78.9662 133.439 79.177C133.922 79.4718 134.432 79.7197 134.962 79.9171C135.229 80.0133 135.512 80.0548 135.795 80.0389C136.078 80.0231 136.355 79.9503 136.61 79.825C136.283 79.7641 135.975 79.6302 135.708 79.4333C135.072 78.9581 134.709 78.0509 134.182 77.4547C133.398 76.5706 132.436 76.3459 131.181 76.3027C130.893 77.2992 130.587 78.2899 130.291 79.2835L129.591 81.6221L129.245 82.6733C129.014 82.46 128.737 82.3016 128.436 82.2096C128.106 82.1093 127.753 82.1092 127.423 82.2094C127.092 82.3095 126.799 82.5055 126.58 82.7724C126.361 83.0394 126.226 83.3653 126.192 83.7089C126.158 84.0526 126.227 84.3985 126.39 84.703C126.553 85.0075 126.803 85.2568 127.107 85.4193C127.412 85.5819 127.758 85.6505 128.101 85.6163C128.445 85.5822 128.771 85.4468 129.038 85.2275C129.304 85.0081 129.5 84.7146 129.6 84.384L131.328 78.6586Z" fill="#EE9451"/>
<path d="M90.072 16.5426C90.2075 16.2264 90.4087 15.9426 90.6624 15.7103C91.0046 15.4036 91.3862 15.144 91.7971 14.9384C92.3524 14.6739 92.8809 14.3566 93.3753 13.9909C93.6213 13.8069 93.8275 13.575 93.9814 13.3092C94.1353 13.0434 94.2339 12.7492 94.271 12.4443C94.0208 12.7014 93.7156 12.8984 93.3782 13.0203C92.569 13.3083 91.5293 13.1039 90.6768 13.2277C89.4067 13.4149 88.6291 14.1551 87.8486 15.2696C88.583 16.1336 89.2886 16.9976 90.023 17.8616L91.7309 19.8776C91.7856 19.941 92.4825 20.8165 92.4825 20.8165C92.1521 20.9035 91.8452 21.0628 91.584 21.2831C91.2976 21.5249 91.0893 21.8462 90.9855 22.2064C90.8817 22.5666 90.8871 22.9495 91.001 23.3066C91.1148 23.6638 91.332 23.9791 91.6251 24.2128C91.9182 24.4465 92.2741 24.588 92.6476 24.6194C93.0211 24.6508 93.3956 24.5708 93.7236 24.3894C94.0516 24.208 94.3185 23.9333 94.4904 23.6002C94.6624 23.2671 94.7316 22.8905 94.6895 22.5181C94.6474 22.1456 94.4957 21.794 94.2537 21.5077L90.072 16.5426Z" fill="#EE9451"/>
<path d="M115.489 44.2024L107.94 48.5627C107.869 48.6085 107.81 48.6704 107.767 48.7435C107.725 48.8166 107.7 48.8987 107.695 48.9832V57.6923C107.7 57.7764 107.724 57.8583 107.767 57.931C107.809 58.0037 107.869 58.0651 107.94 58.1099L108.804 58.6081C108.879 58.6459 108.962 58.6655 109.046 58.6655C109.13 58.6655 109.213 58.6459 109.288 58.6081L116.839 54.2449C116.91 54.1993 116.968 54.1376 117.01 54.0651C117.052 53.9925 117.077 53.9111 117.081 53.8273V45.1038C117.077 45.0196 117.053 44.9378 117.01 44.8651C116.967 44.7924 116.908 44.731 116.836 44.6862L115.972 44.1995C115.897 44.1628 115.814 44.144 115.73 44.1445C115.646 44.145 115.564 44.1648 115.489 44.2024Z" fill="#EE9451"/>
<path d="M109.061 58.4634V49.7428C109.065 49.6586 109.089 49.5768 109.131 49.5037C109.173 49.4307 109.232 49.3686 109.302 49.3223L116.854 44.962C116.986 44.8842 117.096 44.9476 117.096 45.1031V53.8266C117.091 53.9103 117.067 53.9918 117.025 54.0644C116.983 54.1369 116.924 54.1985 116.854 54.2442L109.302 58.6074C109.17 58.6823 109.061 58.6218 109.061 58.4634Z" fill="#EE9451"/>
<path d="M109.061 58.4634V49.7428C109.065 49.6586 109.089 49.5768 109.131 49.5037C109.173 49.4307 109.232 49.3686 109.302 49.3223L116.854 44.962C116.986 44.8842 117.096 44.9476 117.096 45.1031V53.8266C117.091 53.9103 117.067 53.9918 117.025 54.0644C116.983 54.1369 116.924 54.1985 116.854 54.2442L109.302 58.6074C109.17 58.6823 109.061 58.6218 109.061 58.4634Z" fill="#EE9451"/>
<path opacity="0.2" d="M109.303 58.608C109.226 58.6435 109.143 58.6619 109.059 58.6619C108.975 58.6619 108.892 58.6435 108.816 58.608L107.952 58.1069C107.88 58.0621 107.821 58.0007 107.778 57.928C107.736 57.8553 107.711 57.7734 107.707 57.6893V48.983C107.711 48.8951 107.738 48.8098 107.785 48.7354L109.136 49.5043C109.09 49.576 109.065 49.6586 109.064 49.7434V58.464C109.061 58.608 109.153 58.6886 109.303 58.608Z" fill="black"/>
<path opacity="0.4" d="M117.092 45.0603C117.072 44.9364 116.974 44.8932 116.853 44.9623L109.302 49.3227C109.231 49.3684 109.173 49.4307 109.132 49.5041L107.781 48.7351C107.821 48.6638 107.878 48.6042 107.948 48.5623L115.488 44.202C115.564 44.1636 115.647 44.1436 115.731 44.1436C115.816 44.1436 115.899 44.1636 115.975 44.202L116.839 44.6887C116.906 44.7281 116.963 44.7819 117.007 44.8461C117.051 44.9103 117.08 44.9835 117.092 45.0603Z" fill="white"/>
<path d="M116.036 50.0513C116.036 52.2458 114.702 54.7975 113.055 55.7479C111.408 56.6983 110.071 55.6903 110.071 53.4929C110.071 51.2954 111.408 48.7466 113.055 47.7962C114.702 46.8459 116.036 47.8538 116.036 50.0513Z" fill="#FAFAFA"/>
<path d="M112.651 50.7593V53.3023C112.648 53.3656 112.629 53.4271 112.598 53.4821C112.566 53.5371 112.523 53.584 112.47 53.6191L111.98 53.9071C111.879 53.9647 111.799 53.9071 111.799 53.8006V51.2633C111.802 51.2001 111.821 51.1385 111.852 51.0835C111.884 51.0286 111.928 50.9816 111.98 50.9465L112.47 50.6585C112.568 50.598 112.651 50.6441 112.651 50.7593Z" fill="#455A64"/>
<path d="M114.359 49.7748V52.315C114.356 52.3782 114.337 52.4398 114.306 52.4947C114.274 52.5497 114.231 52.5966 114.178 52.6318L113.688 52.9198C113.587 52.9774 113.504 52.9198 113.504 52.8132V50.273C113.508 50.2099 113.527 50.1486 113.559 50.0941C113.591 50.0396 113.635 49.9933 113.688 49.9591L114.178 49.6711C114.279 49.6106 114.359 49.6567 114.359 49.7748Z" fill="#455A64"/>
<path d="M124.263 40.2216L118.215 43.7093C118.159 43.7465 118.112 43.7963 118.079 43.8549C118.045 43.9134 118.026 43.9789 118.022 44.0462V51.013C118.026 51.0803 118.045 51.1459 118.079 51.2041C118.113 51.2622 118.161 51.3113 118.218 51.347L118.912 51.7474C118.973 51.778 119.039 51.7939 119.107 51.7939C119.174 51.7939 119.241 51.778 119.301 51.7474L125.349 48.2597C125.406 48.2228 125.453 48.1731 125.487 48.1145C125.521 48.056 125.541 47.9903 125.545 47.9227V40.9416C125.541 40.8745 125.521 40.8094 125.487 40.7514C125.453 40.6934 125.406 40.6441 125.349 40.6075L124.655 40.2187C124.594 40.1881 124.527 40.1724 124.459 40.1729C124.391 40.1734 124.324 40.1901 124.263 40.2216Z" fill="#EE9451"/>
<path d="M119.114 51.6324V44.6542C119.118 44.5872 119.137 44.522 119.17 44.4639C119.204 44.4058 119.251 44.3565 119.307 44.3201L125.355 40.8296C125.462 40.7691 125.551 40.8296 125.551 40.9419V47.9201C125.547 47.9877 125.527 48.0534 125.493 48.1119C125.459 48.1705 125.412 48.2202 125.355 48.2571L119.307 51.7448C119.201 51.8081 119.114 51.7563 119.114 51.6324Z" fill="#EE9451"/>
<path d="M119.114 51.6324V44.6542C119.118 44.5872 119.137 44.522 119.17 44.4639C119.204 44.4058 119.251 44.3565 119.307 44.3201L125.355 40.8296C125.462 40.7691 125.551 40.8296 125.551 40.9419V47.9201C125.547 47.9877 125.527 48.0534 125.493 48.1119C125.459 48.1705 125.412 48.2202 125.355 48.2571L119.307 51.7448C119.201 51.8081 119.114 51.7563 119.114 51.6324Z" fill="#EE9451"/>
<path opacity="0.2" d="M119.307 51.7446C119.247 51.7743 119.18 51.7898 119.113 51.7898C119.045 51.7898 118.979 51.7743 118.918 51.7446L118.224 51.3443C118.167 51.3086 118.119 51.2595 118.085 51.2013C118.051 51.1431 118.032 51.0776 118.028 51.0102V44.0464C118.031 43.976 118.052 43.9074 118.089 43.8477L119.172 44.464C119.136 44.521 119.116 44.5867 119.114 44.6541V51.6323C119.114 51.7475 119.192 51.8109 119.307 51.7446Z" fill="black"/>
<path opacity="0.4" d="M125.539 40.8953C125.522 40.7974 125.444 40.7628 125.346 40.8175L119.298 44.3081C119.241 44.3435 119.195 44.3932 119.163 44.4521L118.08 43.8473C118.112 43.79 118.159 43.7423 118.215 43.709L124.263 40.2214C124.324 40.1908 124.39 40.1748 124.458 40.1748C124.525 40.1748 124.592 40.1908 124.652 40.2214L125.346 40.6102C125.396 40.6421 125.439 40.6838 125.472 40.7328C125.505 40.7818 125.528 40.8371 125.539 40.8953Z" fill="white"/>
<path d="M124.045 44.0199V46.5601C124.042 46.6234 124.024 46.6852 123.992 46.7402C123.96 46.7952 123.916 46.8421 123.863 46.8769L123.374 47.1649C123.273 47.2225 123.189 47.1649 123.189 47.0612V44.5182C123.193 44.455 123.212 44.3938 123.244 44.3392C123.276 44.2847 123.321 44.2384 123.374 44.2042L123.863 43.9162C123.964 43.8558 124.045 43.9018 124.045 44.0199Z" fill="#455A64"/>
<path d="M120.608 46.0306V48.5189C120.608 48.7061 120.706 48.7407 120.83 48.6025L123.134 45.9471C123.258 45.806 123.206 45.6937 123.019 45.6937H120.96C120.914 45.6917 120.869 45.699 120.826 45.7151C120.784 45.7311 120.745 45.7556 120.712 45.7871C120.679 45.8186 120.653 45.8564 120.635 45.8983C120.618 45.9401 120.608 45.9851 120.608 46.0306Z" fill="#455A64"/>
<path d="M105.091 51.2924L99.0435 54.7801C98.9866 54.8168 98.9392 54.8665 98.9051 54.925C98.8711 54.9836 98.8514 55.0494 98.8477 55.117V62.0838C98.8516 62.151 98.8714 62.2163 98.9054 62.2743C98.9395 62.3324 98.9868 62.3816 99.0435 62.4178L99.7376 62.8182C99.7978 62.8488 99.8644 62.8647 99.932 62.8647C99.9995 62.8647 100.066 62.8488 100.126 62.8182L106.174 59.3305C106.231 59.2934 106.278 59.2436 106.311 59.1851C106.345 59.1265 106.364 59.0609 106.367 58.9935V52.0124C106.364 51.945 106.345 51.8795 106.31 51.8213C106.276 51.7631 106.229 51.7141 106.171 51.6783L105.477 51.2895C105.417 51.2598 105.351 51.2446 105.284 51.2451C105.217 51.2456 105.151 51.2618 105.091 51.2924Z" fill="#EE9451"/>
<path d="M99.9365 62.7028V55.7245C99.9399 55.6575 99.9592 55.5923 99.9927 55.5342C100.026 55.4761 100.073 55.4268 100.129 55.3904L106.177 51.8999C106.284 51.8394 106.37 51.8999 106.37 52.0122V58.9904C106.367 59.0578 106.348 59.1234 106.314 59.182C106.281 59.2405 106.234 59.2903 106.177 59.3274L100.129 62.8151C100.029 62.8784 99.9365 62.8266 99.9365 62.7028Z" fill="#EE9451"/>
<path d="M99.9365 62.7028V55.7245C99.9399 55.6575 99.9592 55.5923 99.9927 55.5342C100.026 55.4761 100.073 55.4268 100.129 55.3904L106.177 51.8999C106.284 51.8394 106.37 51.8999 106.37 52.0122V58.9904C106.367 59.0578 106.348 59.1234 106.314 59.182C106.281 59.2405 106.234 59.2903 106.177 59.3274L100.129 62.8151C100.029 62.8784 99.9365 62.8266 99.9365 62.7028Z" fill="#EE9451"/>
<path opacity="0.2" d="M100.135 62.8149C100.075 62.8447 100.008 62.8601 99.9408 62.8601C99.8734 62.8601 99.8069 62.8447 99.7464 62.8149L99.0523 62.4146C98.9956 62.3783 98.9483 62.3292 98.9142 62.2711C98.8802 62.213 98.8604 62.1477 98.8564 62.0805V55.1167C98.8598 55.046 98.8816 54.9775 98.9198 54.918L99.9998 55.5343C99.9638 55.5913 99.9439 55.657 99.9422 55.7244V62.7026C99.9364 62.8178 100.023 62.8812 100.135 62.8149Z" fill="black"/>
<path opacity="0.4" d="M106.367 51.9781C106.353 51.8802 106.272 51.8456 106.174 51.9003L100.126 55.3909C100.07 55.4271 100.024 55.4765 99.9911 55.5349L98.9082 54.9186C98.9418 54.8625 98.9882 54.8151 99.0436 54.7803L105.092 51.2927C105.152 51.262 105.218 51.2461 105.286 51.2461C105.354 51.2461 105.42 51.262 105.48 51.2927L106.174 51.6815C106.226 51.7146 106.269 51.7582 106.302 51.8093C106.336 51.8604 106.358 51.9179 106.367 51.9781Z" fill="white"/>
<path d="M102.197 56.6981V59.2383C102.194 59.3017 102.176 59.3635 102.145 59.4186C102.113 59.4736 102.069 59.5204 102.016 59.5551L101.526 59.8431C101.425 59.9035 101.345 59.8431 101.345 59.7394V57.1992C101.348 57.1358 101.366 57.074 101.397 57.0189C101.429 56.9639 101.473 56.9171 101.526 56.8824L102.016 56.5944C102.117 56.5339 102.197 56.5829 102.197 56.6981Z" fill="#455A64"/>
<path d="M104.967 57.6253V55.0333C104.967 54.8346 104.861 54.7943 104.728 54.944L102.275 57.7175C102.142 57.8672 102.197 57.9882 102.395 57.9882H104.607C104.703 57.9867 104.794 57.9479 104.861 57.8801C104.929 57.8123 104.967 57.7208 104.967 57.6253Z" fill="#455A64"/>
<path d="M125.108 53.2018L98.7038 68.4456C98.6333 68.4917 98.5746 68.5538 98.5326 68.6269C98.4905 68.7 98.4663 68.7819 98.4619 68.8661V85.6997C98.4667 85.783 98.4912 85.8639 98.5332 85.936C98.5752 86.0081 98.6337 86.0692 98.7038 86.1144L99.5678 86.6155C99.6435 86.6531 99.7268 86.6726 99.8112 86.6726C99.8956 86.6726 99.9789 86.6531 100.055 86.6155L126.458 71.3688C126.529 71.3225 126.587 71.2604 126.629 71.1873C126.671 71.1143 126.696 71.0324 126.7 70.9483V54.1032C126.696 54.019 126.672 53.9372 126.629 53.8645C126.586 53.7918 126.527 53.7304 126.456 53.6856L125.592 53.1989C125.516 53.1614 125.433 53.1421 125.349 53.1426C125.265 53.1431 125.182 53.1634 125.108 53.2018Z" fill="#455A64"/>
<path d="M126.703 54.0569C126.683 53.936 126.585 53.8928 126.464 53.9619L100.061 69.2086C99.9885 69.2534 99.929 69.3158 99.8878 69.3901L98.5371 68.6182C98.5773 68.5474 98.6347 68.488 98.7041 68.4454L125.108 53.1987C125.184 53.1611 125.267 53.1416 125.351 53.1416C125.436 53.1416 125.519 53.1611 125.595 53.1987L126.459 53.6854C126.524 53.7257 126.58 53.7799 126.622 53.8441C126.665 53.9083 126.692 53.9809 126.703 54.0569Z" fill="#37474F"/>
<path d="M99.8154 86.4714V69.6292C99.8201 69.5447 99.8448 69.4626 99.8873 69.3895C99.9299 69.3164 99.9891 69.2545 100.06 69.2087L126.464 53.962C126.597 53.8842 126.706 53.9476 126.706 54.1031V70.9453C126.701 71.0294 126.677 71.1113 126.635 71.1843C126.593 71.2574 126.534 71.3195 126.464 71.3658L100.06 86.6125C99.9364 86.6874 99.8154 86.6269 99.8154 86.4714Z" fill="#455A64"/>
<path opacity="0.2" d="M100.06 86.6124C99.9846 86.6493 99.9014 86.6685 99.8171 86.6685C99.7327 86.6685 99.6495 86.6493 99.5737 86.6124L98.7097 86.1113C98.6396 86.0661 98.5811 86.005 98.5391 85.9329C98.497 85.8608 98.4726 85.7799 98.4678 85.6966V68.8658C98.4708 68.7782 98.4966 68.6928 98.5427 68.6182L99.8934 69.39C99.8496 69.4623 99.8248 69.5446 99.8214 69.629V86.4713C99.8156 86.6124 99.9164 86.6873 100.06 86.6124Z" fill="#263238"/>
<path d="M103.173 82.5489C103.17 82.551 103.167 82.5521 103.163 82.5521C103.159 82.5521 103.156 82.551 103.153 82.5489C103.152 82.5466 103.151 82.5442 103.151 82.5417C103.151 82.5392 103.152 82.5368 103.153 82.5345V82.4395L102.865 82.6123C102.862 82.6135 102.859 82.6142 102.856 82.6142C102.853 82.6142 102.85 82.6135 102.848 82.6123V82.5979V82.4971C102.845 82.4809 102.845 82.4643 102.848 82.4481L103.136 81.9239C103.139 81.9155 103.144 81.9077 103.15 81.9009H103.17L103.314 81.8174C103.314 81.8174 103.329 81.8174 103.332 81.8174V81.8318V82.1975L103.412 82.1515C103.415 82.1494 103.419 82.1482 103.422 82.1482C103.426 82.1482 103.429 82.1494 103.432 82.1515V82.2551C103.435 82.2616 103.435 82.2688 103.432 82.2753L103.412 82.2955L103.332 82.3415V82.4395C103.333 82.447 103.333 82.4549 103.332 82.4625C103.328 82.4702 103.322 82.4763 103.314 82.4798L103.173 82.5489ZM103.15 82.2868V82.1111L103.012 82.3675L103.15 82.2868Z" fill="white"/>
<path d="M103.738 81.863C103.739 81.8707 103.739 81.8784 103.738 81.8861L103.718 81.9034L103.594 81.9754C103.594 81.9754 103.58 81.9754 103.577 81.9754V81.8515C103.575 81.844 103.575 81.836 103.577 81.8285C103.578 81.8244 103.58 81.8207 103.583 81.8177C103.586 81.8147 103.59 81.8124 103.594 81.8112L103.718 81.7363H103.738C103.74 81.741 103.74 81.746 103.738 81.7507V81.863ZM103.738 82.1971C103.739 82.2048 103.739 82.2125 103.738 82.2202L103.718 82.2374L103.594 82.3094C103.594 82.3094 103.58 82.3094 103.577 82.3094V82.2951V82.1712C103.575 82.1637 103.575 82.1557 103.577 82.1482C103.578 82.1441 103.58 82.1404 103.583 82.1374C103.586 82.1344 103.59 82.1321 103.594 82.1309L103.718 82.0589C103.721 82.0568 103.725 82.0556 103.728 82.0556C103.732 82.0556 103.735 82.0568 103.738 82.0589V82.1971Z" fill="white"/>
<path d="M104.222 81.9444C104.222 81.9444 104.207 81.9444 104.202 81.9444C104.2 81.9422 104.2 81.9397 104.2 81.9372C104.2 81.9347 104.2 81.9323 104.202 81.93V81.8321L103.899 82.0078H103.882V81.907C103.882 81.8897 103.887 81.8728 103.896 81.858L104.184 81.3339L104.199 81.3108C104.204 81.3045 104.211 81.2995 104.219 81.2964L104.363 81.2129C104.363 81.2129 104.377 81.2129 104.38 81.2129V81.2273V81.5931L104.464 81.5441H104.481C104.482 81.5463 104.483 81.5488 104.483 81.5513C104.483 81.5538 104.482 81.5563 104.481 81.5585V81.6593C104.483 81.6668 104.483 81.6748 104.481 81.6823L104.464 81.7025L104.38 81.7486V81.8465C104.382 81.8541 104.382 81.862 104.38 81.8695C104.377 81.8772 104.37 81.8833 104.363 81.8868L104.222 81.9444ZM104.199 81.6794V81.5038L104.06 81.7601L104.199 81.6794Z" fill="white"/>
<path d="M121.994 71.4517C121.995 71.4904 121.987 71.5287 121.971 71.564C121.957 71.6043 121.936 71.6422 121.911 71.6763C121.883 71.7127 121.852 71.7464 121.819 71.7771C121.786 71.8065 121.75 71.8325 121.712 71.8549C121.678 71.8753 121.641 71.8908 121.603 71.901C121.572 71.9079 121.541 71.9079 121.51 71.901C121.486 71.8962 121.463 71.883 121.447 71.8635C121.431 71.8366 121.423 71.8056 121.424 71.7743C121.421 71.7552 121.421 71.7358 121.424 71.7167L121.441 71.6619C121.447 71.6437 121.454 71.6263 121.464 71.6101L121.487 71.5611L121.672 71.2098V71.1896L121.692 71.1723L121.844 71.0859V71.1003L121.718 71.3423C121.748 71.3274 121.78 71.3168 121.813 71.3106C121.838 71.3046 121.865 71.3046 121.891 71.3106C121.913 71.319 121.932 71.3341 121.945 71.3538C121.973 71.3796 121.99 71.4143 121.994 71.4517ZM121.603 71.6792C121.599 71.6895 121.599 71.7006 121.603 71.7109C121.611 71.714 121.62 71.714 121.628 71.7109C121.64 71.7136 121.652 71.7136 121.663 71.7109L121.703 71.6936L121.741 71.6648C121.754 71.6548 121.765 71.6432 121.775 71.6303C121.785 71.6165 121.794 71.6021 121.801 71.5871C121.804 71.5728 121.804 71.5581 121.801 71.5439C121.805 71.5336 121.805 71.5225 121.801 71.5122C121.793 71.5095 121.784 71.5095 121.775 71.5122C121.764 71.508 121.752 71.508 121.741 71.5122C121.727 71.5155 121.715 71.5214 121.703 71.5295C121.688 71.5364 121.674 71.5462 121.663 71.5583C121.65 71.5683 121.638 71.5799 121.628 71.5928C121.618 71.6059 121.609 71.6204 121.603 71.636C121.6 71.6503 121.6 71.665 121.603 71.6792Z" fill="white"/>
<path d="M122.3 71.1358C122.301 71.1433 122.301 71.1512 122.3 71.1588L122.282 71.1761L122.158 71.2481C122.158 71.2481 122.144 71.2481 122.138 71.2481C122.137 71.2458 122.137 71.2434 122.137 71.2409C122.137 71.2384 122.137 71.2359 122.138 71.2337V71.1358C122.137 71.1281 122.137 71.1203 122.138 71.1127C122.143 71.1047 122.15 71.0985 122.158 71.0954L122.282 71.0234C122.282 71.0234 122.297 71.0234 122.3 71.0234C122.302 71.0234 122.3 71.0234 122.3 71.0234V71.1358ZM122.3 71.4698C122.301 71.4774 122.301 71.4853 122.3 71.4929C122.295 71.5 122.289 71.506 122.282 71.5102L122.158 71.5822C122.158 71.5822 122.144 71.5822 122.138 71.5822V71.4583C122.137 71.4507 122.137 71.4429 122.138 71.4353C122.143 71.4272 122.15 71.4211 122.158 71.418L122.282 71.346C122.282 71.346 122.297 71.346 122.3 71.346C122.302 71.346 122.3 71.346 122.3 71.346V71.4698Z" fill="white"/>
<path d="M122.945 70.4639H122.976C122.978 70.4661 122.978 70.4685 122.978 70.4711C122.978 70.4736 122.978 70.4761 122.976 70.4783V70.5791C122.978 70.5867 122.978 70.5945 122.976 70.6021C122.977 70.6098 122.977 70.6175 122.976 70.6251L122.861 70.8066C122.9 70.794 122.943 70.794 122.982 70.8066C122.999 70.8154 123.013 70.8293 123.022 70.8463C123.031 70.8633 123.034 70.8827 123.031 70.9016C123.029 70.9762 123.003 71.0481 122.956 71.1061C122.898 71.1776 122.827 71.2373 122.746 71.2818C122.708 71.3048 122.668 71.3222 122.625 71.3336C122.596 71.3417 122.565 71.3417 122.536 71.3336C122.515 71.3321 122.495 71.3229 122.481 71.3077C122.467 71.2917 122.46 71.2712 122.461 71.2501C122.458 71.2436 122.458 71.2365 122.461 71.23C122.464 71.2238 122.469 71.2188 122.475 71.2155L122.596 71.1464C122.601 71.1442 122.606 71.143 122.611 71.143C122.616 71.143 122.621 71.1442 122.625 71.1464H122.648H122.683C122.703 71.1438 122.723 71.1358 122.74 71.1234C122.769 71.107 122.795 71.0867 122.818 71.0629C122.827 71.0544 122.834 71.0441 122.839 71.0327C122.844 71.0213 122.847 71.0091 122.847 70.9967C122.847 70.9736 122.847 70.965 122.818 70.965C122.791 70.97 122.764 70.9797 122.74 70.9938L122.662 71.0399C122.662 71.0399 122.662 71.0399 122.645 71.0399V70.9592C122.644 70.9516 122.644 70.9438 122.645 70.9362C122.649 70.9281 122.654 70.9204 122.66 70.9131L122.76 70.7519L122.513 70.8959C122.513 70.8959 122.498 70.8959 122.492 70.8959C122.487 70.8959 122.492 70.8959 122.492 70.8959V70.7951C122.492 70.7865 122.494 70.7779 122.499 70.7706C122.503 70.7634 122.51 70.7578 122.518 70.7547L122.945 70.4639Z" fill="white"/>
<path d="M123.423 70.1787C123.461 70.1557 123.503 70.1391 123.547 70.1297C123.574 70.1221 123.603 70.1221 123.63 70.1297C123.654 70.1411 123.672 70.1605 123.682 70.1845C123.694 70.212 123.7 70.2411 123.702 70.2709V70.4408C123.7 70.4788 123.693 70.5165 123.682 70.5531C123.67 70.5919 123.653 70.6288 123.63 70.6625C123.607 70.7012 123.579 70.737 123.547 70.7691C123.509 70.8043 123.468 70.8353 123.423 70.8613C123.384 70.8845 123.343 70.902 123.299 70.9131C123.271 70.9223 123.241 70.9223 123.213 70.9131C123.192 70.9011 123.174 70.8831 123.164 70.8613C123.152 70.8329 123.145 70.8027 123.144 70.772C123.144 70.7461 123.144 70.7201 123.144 70.6885C123.144 70.6568 123.144 70.6309 123.144 70.6021C123.146 70.565 123.153 70.5283 123.164 70.4926C123.176 70.4537 123.193 70.4161 123.213 70.3803C123.237 70.3415 123.266 70.3057 123.299 70.2737C123.337 70.2377 123.378 70.2058 123.423 70.1787ZM123.524 70.5445C123.527 70.4907 123.527 70.4369 123.524 70.3832C123.525 70.3698 123.525 70.3562 123.524 70.3429C123.521 70.3335 123.515 70.3255 123.506 70.3198C123.501 70.3175 123.496 70.3163 123.491 70.3163C123.485 70.3163 123.48 70.3175 123.475 70.3198C123.458 70.3226 123.443 70.3285 123.429 70.3371C123.411 70.3472 123.394 70.3598 123.38 70.3745C123.368 70.3865 123.359 70.4001 123.351 70.4149C123.342 70.4289 123.336 70.4446 123.334 70.4609C123.332 70.4763 123.332 70.4917 123.334 70.507C123.331 70.5607 123.331 70.6146 123.334 70.6683C123.332 70.6817 123.332 70.6952 123.334 70.7086C123.332 70.7171 123.332 70.726 123.334 70.7345C123.344 70.7375 123.355 70.7375 123.365 70.7345C123.383 70.7306 123.399 70.7237 123.414 70.7144C123.431 70.7043 123.446 70.6927 123.46 70.6798C123.473 70.6668 123.483 70.6523 123.492 70.6366C123.5 70.6233 123.506 70.6087 123.509 70.5934C123.515 70.5822 123.52 70.5707 123.524 70.5589V70.5445Z" fill="white"/>
<path opacity="0.3" d="M106.304 79.8558L120.221 71.8206C120.448 71.6881 120.632 71.7832 120.632 72.0308C120.623 72.1695 120.58 72.3038 120.509 72.423C120.437 72.5421 120.338 72.6426 120.221 72.7163L106.304 80.7515C106.077 80.884 105.89 80.7889 105.89 80.5412C105.9 80.4023 105.943 80.2678 106.015 80.1487C106.087 80.0295 106.186 79.9292 106.304 79.8558Z" fill="white"/>
<path d="M106.304 79.8561L116.753 73.8225C116.981 73.6901 117.168 73.7851 117.168 74.0328C117.157 74.1715 117.114 74.3058 117.042 74.4248C116.97 74.5439 116.871 74.6443 116.753 74.7182L106.304 80.7518C106.077 80.8843 105.89 80.7893 105.89 80.5416C105.9 80.4027 105.943 80.2682 106.015 80.149C106.087 80.0299 106.186 79.9295 106.304 79.8561Z" fill="white"/>
<path d="M125.543 61.3438L124.31 62.0522C123.803 62.3402 122.919 62.8961 122.412 62.7578C121.986 62.6426 121.658 62.0695 121.07 62.4093C120.699 62.6225 120.287 63.9386 119.564 64.3562C118.841 64.7738 118.412 63.5959 118.179 62.9882C117.945 62.3806 117.534 61.2429 116.672 61.7383C115.811 62.2337 115.365 63.9761 114.818 65.2548C114.27 66.5335 113.559 67.7719 112.681 68.2788C111.644 68.8778 110.93 68.5869 110.443 68.8692C109.956 69.1514 109.547 70.0442 109.003 70.5597C108.519 71.0292 107.773 71.4813 107.344 71.1357C106.915 70.7901 106.607 69.9031 106.175 70.1508C105.743 70.3985 105.394 71.8327 104.985 72.5498C104.576 73.2669 104.121 73.7018 102.915 74.3959L100.628 75.7149V75.8791L101.613 75.3031C102.105 75.0151 102.799 74.6436 103.263 74.8394C103.727 75.0353 103.747 75.2138 104.156 74.9777C104.565 74.7415 104.732 74.4017 105.02 73.938C105.21 73.5812 105.481 73.2743 105.812 73.0423C106.1 72.8666 106.494 73.0423 106.734 73.2727C106.973 73.5031 107.206 73.7537 107.56 73.5607C107.93 73.2869 108.217 72.9161 108.39 72.4893C108.62 72.0401 108.747 71.6858 109 71.5361C109.28 71.4072 109.596 71.3807 109.893 71.4612C110.374 71.5395 110.868 71.4369 111.278 71.1732C111.877 70.8276 112.574 70.217 113.45 68.6561L114.777 67.8871C115.745 67.3313 116.413 67.0058 116.857 67.1095C117.41 67.2362 118.17 68.3018 118.997 67.8209C119.823 67.3399 120.065 66.0929 120.474 65.2692C120.798 64.4871 121.393 63.8481 122.15 63.4692L125.531 61.5166L125.543 61.3438Z" fill="#EE9451"/>
<path opacity="0.2" d="M118.179 67.8607C117.68 67.6707 117.228 67.1868 116.868 67.1033C116.425 66.9996 115.756 67.3251 114.789 67.8809L113.473 68.6499C114.239 67.2761 114.967 65.1247 115.241 64.2723C115.359 63.9094 115.492 63.5465 115.647 63.1923C115.803 62.811 116.008 62.4517 116.258 62.1238C116.687 61.6774 117.009 61.6284 117.217 62.1468C117.424 62.6652 117.271 64.2089 117.309 65.5193C117.346 66.8297 117.692 67.567 118.179 67.8607Z" fill="black"/>
<path opacity="0.2" d="M107.352 71.1352C107.781 71.475 108.527 71.0229 109.011 70.5592C109.547 70.0437 109.953 69.1509 110.451 68.8686C110.949 68.5864 111.652 68.8686 112.689 68.2782C113.029 68.069 113.328 67.7985 113.57 67.4805C113.193 68.0565 112.62 69.1336 111.499 69.9429C110.848 70.4123 110.005 70.7003 109.63 70.9163C109.251 71.1299 108.943 71.4491 108.743 71.835C108.637 72.0107 108.539 72.2353 108.409 72.4888C108.237 72.9155 107.95 73.2863 107.58 73.5601C107.513 73.6041 107.435 73.6296 107.356 73.6342C107.276 73.6387 107.196 73.6221 107.125 73.5861C106.811 73.3413 106.669 72.8056 106.629 71.6766C106.58 70.372 106.396 70.1185 106.191 70.156C106.615 69.9141 106.923 70.8097 107.352 71.1352Z" fill="black"/>
<path opacity="0.2" d="M117.297 65.5198C117.26 64.2094 117.415 62.6657 117.205 62.1473C117.064 61.796 116.871 61.7067 116.629 61.8219C116.995 61.7729 117.317 62.3518 117.104 63.7774C116.986 64.5665 116.638 66.0468 116.816 67.0952C116.836 67.0938 116.856 67.0938 116.877 67.0952C117.237 67.1787 117.689 67.6712 118.187 67.8526C117.692 67.5675 117.335 66.8331 117.297 65.5198Z" fill="black"/>
<path opacity="0.2" d="M113.473 68.65L114.207 68.2237C114.464 67.5326 114.686 66.829 114.872 66.1156C115.16 65.0817 115.379 63.8663 115.647 63.1924C115.492 63.5466 115.359 63.9095 115.241 64.2724C114.956 65.1249 114.227 67.2762 113.473 68.65Z" fill="black"/>
<path opacity="0.5" d="M120.672 62.9213C120.384 63.4052 120.044 64.0733 119.561 64.3613C118.838 64.7789 118.409 63.601 118.175 62.9933C118.106 62.8176 118.023 62.593 117.919 62.3799C118.207 62.9962 118.449 64.1252 118.625 64.7616C118.774 65.3031 118.927 65.6717 119.35 65.5076C119.774 65.3434 120.065 64.4506 120.24 63.9696C120.36 63.6109 120.505 63.2606 120.672 62.9213Z" fill="white"/>
<path opacity="0.2" d="M120.744 63.7308C120.526 64.4076 120.425 65.1535 120.082 66.2421C120.217 65.8965 120.341 65.5509 120.485 65.2629C120.809 64.4809 121.404 63.8418 122.161 63.4629L123.27 62.8236C122.202 63.4399 121.741 62.9676 121.485 62.8236C121.228 62.6796 120.96 63.054 120.744 63.7308Z" fill="black"/>
<path opacity="0.2" d="M121.335 62.7979C121.127 62.8382 120.92 63.1838 120.744 63.731C120.526 64.4078 120.425 65.1537 120.082 66.2423C120.217 65.8967 120.341 65.5511 120.485 65.2631C120.589 65.0529 120.687 64.8714 120.773 64.7044C120.814 64.3818 120.839 64.0996 120.857 63.9326C120.923 63.4343 121.104 62.9649 121.335 62.7979Z" fill="black"/>
<path opacity="0.2" d="M112.68 68.2842C111.643 68.8833 110.929 68.5924 110.442 68.8746C110.36 68.9233 110.285 68.9824 110.218 69.0503C110.546 68.7623 111.082 68.9783 111.494 69.0503C111.911 69.0962 112.332 69.0042 112.692 68.7882C113.003 68.3734 113.292 67.9417 113.556 67.4951C113.315 67.8095 113.018 68.077 112.68 68.2842Z" fill="black"/>
<path opacity="0.2" d="M106.621 71.683C106.662 72.8119 106.803 73.3476 107.117 73.5924C107.188 73.6285 107.268 73.6451 107.348 73.6405C107.428 73.636 107.505 73.6105 107.572 73.5665C107.909 73.3264 108.174 72.9988 108.338 72.619C107.92 73.195 107.292 73.29 107.114 72.7428C106.935 72.1956 106.93 71.4353 106.806 70.9169C106.682 70.3985 106.541 70.1307 106.339 70.1191H106.299H106.27H106.253H106.23L106.184 70.1393C106.388 70.1249 106.561 70.3783 106.621 71.683Z" fill="black"/>
<path opacity="0.5" d="M104.994 72.5751C104.582 73.2922 104.13 73.7271 102.923 74.4211L102.658 74.5738C104.182 73.7098 104.778 73.9229 105.172 73.0906C105.567 72.2583 105.723 70.8643 105.921 70.4727C105.604 70.9824 105.316 71.9991 104.994 72.5751Z" fill="white"/>
<path opacity="0.5" d="M114.173 67.1582C113.962 67.6679 113.723 68.1659 113.458 68.65C112.594 70.211 111.889 70.8216 111.29 71.1672C110.881 71.4325 110.388 71.5353 109.907 71.4552C109.609 71.3769 109.292 71.4043 109.012 71.5329C109.368 71.2948 109.791 71.1777 110.218 71.1988C110.697 71.1844 111.402 70.9742 112.214 70.1678C113.026 69.3614 114.138 67.2244 114.173 67.1582Z" fill="white"/>
<path d="M109.976 74.1453C109.981 74.141 109.987 74.1387 109.994 74.1387C110 74.1387 110.006 74.141 110.011 74.1453C110.016 74.1592 110.016 74.1746 110.011 74.1885V74.2835C110.015 74.3035 110.015 74.324 110.011 74.344C110.008 74.3527 110.004 74.3607 109.998 74.3676C109.992 74.3745 109.984 74.3802 109.976 74.3843L109.651 74.5744V76.1469C109.65 76.1678 109.645 76.1884 109.636 76.2073C109.629 76.2237 109.617 76.2377 109.602 76.2477L109.53 76.288C109.528 76.2904 109.526 76.2923 109.523 76.2936C109.52 76.295 109.517 76.2957 109.514 76.2957C109.511 76.2957 109.508 76.295 109.505 76.2936C109.503 76.2923 109.5 76.2904 109.498 76.288C109.493 76.2825 109.488 76.2757 109.486 76.2682C109.483 76.2606 109.483 76.2526 109.484 76.2448V74.6723L109.156 74.8624C109.151 74.8661 109.144 74.8681 109.138 74.8681C109.132 74.8681 109.126 74.8661 109.121 74.8624C109.111 74.8504 109.106 74.8349 109.107 74.8192V74.7213C109.107 74.7013 109.112 74.6816 109.121 74.6637C109.121 74.6435 109.141 74.6291 109.156 74.6233L109.976 74.1453Z" fill="white"/>
<path d="M111.117 73.4853C111.122 73.4815 111.128 73.4795 111.134 73.4795C111.141 73.4795 111.147 73.4815 111.152 73.4853C111.162 73.4972 111.167 73.5127 111.166 73.5285V75.2708C111.165 75.2918 111.16 75.3124 111.152 75.3313C111.145 75.3483 111.133 75.3625 111.117 75.3717L111.045 75.412C111.043 75.4144 111.041 75.4163 111.038 75.4176C111.035 75.419 111.032 75.4197 111.029 75.4197C111.026 75.4197 111.023 75.419 111.02 75.4176C111.018 75.4163 111.015 75.4144 111.013 75.412C111.008 75.3981 111.008 75.3827 111.013 75.3688V74.6085L110.397 74.9656V75.7259C110.401 75.7459 110.401 75.7664 110.397 75.7864C110.39 75.8033 110.378 75.8175 110.362 75.8267L110.293 75.867C110.278 75.867 110.266 75.867 110.259 75.867C110.248 75.8542 110.243 75.8376 110.244 75.8209V74.0929C110.245 74.0729 110.25 74.0533 110.259 74.0353C110.262 74.0267 110.266 74.0186 110.272 74.0117C110.278 74.0048 110.285 73.9991 110.293 73.995L110.362 73.9518C110.367 73.9481 110.374 73.9461 110.38 73.9461C110.386 73.9461 110.392 73.9481 110.397 73.9518C110.402 73.9657 110.402 73.9811 110.397 73.995V74.7352L111.013 74.3781V73.6379C111.009 73.6189 111.009 73.5993 111.013 73.5803C111.019 73.5637 111.03 73.5494 111.045 73.54L111.117 73.4853Z" fill="white"/>
<path d="M112.222 74.493C112.227 74.4895 112.233 74.4876 112.238 74.4876C112.244 74.4876 112.25 74.4895 112.254 74.493C112.26 74.4985 112.264 74.5053 112.267 74.5128C112.269 74.5203 112.27 74.5284 112.268 74.5362V74.6341C112.27 74.6543 112.265 74.6744 112.254 74.6917C112.247 74.7086 112.236 74.7234 112.222 74.7349L111.514 75.1439C111.509 75.1476 111.503 75.1496 111.497 75.1496C111.49 75.1496 111.484 75.1476 111.479 75.1439C111.469 75.1319 111.464 75.1164 111.465 75.1007V73.3727C111.466 73.3517 111.471 73.3312 111.479 73.3122C111.479 73.292 111.5 73.2776 111.514 73.2719L112.208 72.8715C112.212 72.8675 112.218 72.8652 112.224 72.8652C112.23 72.8652 112.235 72.8675 112.24 72.8715C112.243 72.8783 112.244 72.8857 112.244 72.8931C112.244 72.9006 112.243 72.908 112.24 72.9147V73.0127C112.245 73.0325 112.245 73.0533 112.24 73.0731C112.233 73.0892 112.222 73.1032 112.208 73.1135L111.632 73.4447V74.0207L112.171 73.7096C112.175 73.7061 112.181 73.7042 112.186 73.7042C112.192 73.7042 112.198 73.7061 112.202 73.7096C112.212 73.7216 112.218 73.7371 112.217 73.7528V73.8507C112.216 73.8708 112.211 73.8905 112.202 73.9084C112.196 73.9252 112.185 73.9401 112.171 73.9515L111.632 74.2597V74.8357L112.222 74.493Z" fill="white"/>
<path d="M113.309 72.1953C113.364 72.158 113.429 72.1379 113.496 72.1377C113.546 72.1396 113.594 72.1545 113.637 72.1809C113.674 72.2098 113.704 72.2473 113.723 72.2903C113.742 72.3333 113.752 72.3791 113.755 72.4257C113.759 72.4418 113.759 72.4585 113.755 72.4747C113.749 72.4877 113.739 72.4987 113.726 72.5063L113.654 72.5495C113.645 72.5531 113.635 72.5531 113.625 72.5495C113.625 72.5495 113.608 72.5351 113.6 72.515C113.592 72.4966 113.582 72.4792 113.571 72.4631C113.558 72.4419 113.539 72.4249 113.516 72.4142C113.492 72.3995 113.464 72.3925 113.435 72.394C113.394 72.3957 113.354 72.4087 113.32 72.4315C113.286 72.451 113.255 72.4753 113.228 72.5035C113.197 72.5321 113.169 72.565 113.147 72.6014C113.124 72.6393 113.104 72.6799 113.09 72.7223C113.076 72.766 113.069 72.8118 113.07 72.8577C113.067 72.8943 113.074 72.931 113.09 72.9643C113.097 72.9764 113.107 72.987 113.118 72.9954C113.129 73.0038 113.142 73.0099 113.156 73.0132C113.193 73.0206 113.231 73.0206 113.268 73.0132C113.324 73.0084 113.38 73.0008 113.435 72.9902C113.491 72.9821 113.547 72.9821 113.602 72.9902C113.644 72.9941 113.684 73.0101 113.718 73.0363C113.748 73.0631 113.77 73.0981 113.781 73.1371C113.795 73.1927 113.801 73.2497 113.801 73.307C113.801 73.3888 113.79 73.4703 113.767 73.5489C113.743 73.6289 113.711 73.7062 113.672 73.7793C113.631 73.8511 113.58 73.917 113.522 73.9751C113.466 74.0363 113.401 74.0878 113.329 74.1278C113.273 74.1641 113.208 74.1859 113.142 74.1911C113.09 74.1956 113.039 74.1835 112.995 74.1566C112.953 74.1317 112.919 74.0958 112.897 74.0529C112.872 74.0047 112.86 73.9514 112.859 73.8974C112.855 73.8823 112.855 73.8664 112.859 73.8513C112.865 73.8378 112.874 73.826 112.885 73.8167L112.957 73.7764C112.962 73.7741 112.968 73.7729 112.973 73.7729C112.979 73.7729 112.984 73.7741 112.989 73.7764C112.989 73.7764 113.006 73.7908 113.012 73.811C113.02 73.8334 113.03 73.8548 113.044 73.8743C113.06 73.896 113.08 73.9138 113.104 73.9262C113.133 73.9375 113.163 73.9424 113.193 73.9406C113.238 73.935 113.28 73.9192 113.317 73.8945C113.36 73.8708 113.399 73.8407 113.432 73.8052C113.471 73.7706 113.503 73.7309 113.53 73.6871C113.559 73.6454 113.581 73.5998 113.597 73.5518C113.614 73.5067 113.622 73.4589 113.623 73.4107C113.626 73.3737 113.616 73.3369 113.594 73.307C113.573 73.2828 113.545 73.2674 113.513 73.2638C113.47 73.2551 113.426 73.2551 113.384 73.2638C113.326 73.2703 113.27 73.28 113.214 73.2926C113.164 73.3013 113.113 73.3013 113.064 73.2926C113.025 73.2845 112.99 73.2644 112.963 73.235C112.936 73.2037 112.917 73.1661 112.908 73.1255C112.896 73.0727 112.89 73.0185 112.891 72.9643C112.892 72.8934 112.9 72.8229 112.917 72.754C112.935 72.6803 112.961 72.6088 112.995 72.5409C113.03 72.4724 113.073 72.4085 113.124 72.3508C113.177 72.2896 113.239 72.2371 113.309 72.1953Z" fill="white"/>
<path d="M113.971 72.544C113.972 72.4414 113.982 72.3392 114.003 72.2387C114.025 72.1397 114.057 72.0432 114.098 71.9507C114.138 71.8636 114.188 71.7814 114.248 71.7059C114.306 71.6367 114.375 71.5773 114.452 71.5302C114.514 71.4913 114.586 71.4704 114.659 71.4697C114.716 71.4745 114.769 71.499 114.809 71.5388C114.854 71.5905 114.886 71.6515 114.904 71.7174C114.926 71.804 114.937 71.8931 114.936 71.9824C114.936 72.1408 114.936 72.302 114.936 72.4633C114.934 72.566 114.923 72.6682 114.901 72.7686C114.88 72.8677 114.848 72.9643 114.806 73.0566C114.768 73.1438 114.717 73.2252 114.657 73.2985C114.6 73.369 114.53 73.4285 114.452 73.4742C114.391 73.5133 114.32 73.5343 114.248 73.5347C114.22 73.5336 114.192 73.527 114.167 73.5151C114.142 73.5032 114.119 73.4864 114.101 73.4656C114.053 73.4147 114.021 73.352 114.006 73.2841C113.981 73.1989 113.97 73.1106 113.971 73.022C113.965 72.8636 113.965 72.7052 113.971 72.544ZM114.772 72.0947C114.772 72.0255 114.762 71.9567 114.743 71.8902C114.734 71.8449 114.711 71.8036 114.677 71.7721C114.664 71.7597 114.648 71.75 114.632 71.7435C114.615 71.7371 114.597 71.7341 114.579 71.7347C114.534 71.7387 114.491 71.7524 114.452 71.775C114.407 71.8046 114.365 71.8394 114.328 71.8787C114.288 71.9235 114.255 71.974 114.23 72.0284C114.2 72.0911 114.177 72.1567 114.161 72.2243C114.146 72.3022 114.138 72.3812 114.135 72.4604C114.135 72.544 114.135 72.6188 114.135 72.6908C114.135 72.7628 114.135 72.8348 114.135 72.9155C114.136 72.9844 114.145 73.053 114.161 73.12C114.173 73.1649 114.197 73.2057 114.23 73.238C114.243 73.2505 114.259 73.2602 114.275 73.2666C114.292 73.2731 114.31 73.2761 114.328 73.2755C114.373 73.2721 114.415 73.2572 114.452 73.2323C114.5 73.2053 114.543 73.1702 114.579 73.1286C114.619 73.0841 114.652 73.0336 114.677 72.9788C114.707 72.9178 114.73 72.8529 114.743 72.7859C114.76 72.7074 114.77 72.6273 114.772 72.5468C114.772 72.4662 114.772 72.3884 114.772 72.3193C114.772 72.2502 114.772 72.1753 114.772 72.0947Z" fill="white"/>
<path d="M115.998 72.5548C115.981 72.5548 115.969 72.5548 115.958 72.5548C115.946 72.5431 115.936 72.5295 115.929 72.5145L115.353 71.5238V72.8629C115.352 72.8839 115.347 72.9044 115.339 72.9234C115.333 72.9401 115.322 72.9543 115.307 72.9638L115.235 73.0069C115.23 73.0107 115.224 73.0127 115.218 73.0127C115.211 73.0127 115.205 73.0107 115.2 73.0069C115.195 72.993 115.195 72.9777 115.2 72.9638V71.2214C115.196 71.2014 115.196 71.1808 115.2 71.1609C115.203 71.1522 115.208 71.1442 115.214 71.1373C115.219 71.1303 115.227 71.1247 115.235 71.1206L115.295 71.0831C115.313 71.0831 115.324 71.0831 115.336 71.0831C115.347 71.0943 115.356 71.1069 115.364 71.1206L115.94 72.1113V70.7865C115.941 70.7656 115.946 70.745 115.955 70.726C115.961 70.7094 115.972 70.6951 115.987 70.6857L116.059 70.6425C116.064 70.6387 116.07 70.6367 116.076 70.6367C116.082 70.6367 116.088 70.6387 116.093 70.6425C116.098 70.6564 116.098 70.6718 116.093 70.6857V72.4281C116.097 72.448 116.097 72.4686 116.093 72.4886C116.09 72.4972 116.086 72.5052 116.08 72.5122C116.074 72.5191 116.067 72.5248 116.059 72.5289L115.998 72.5548Z" fill="white"/>
<path d="M116.352 71.1553C116.354 71.0585 116.364 70.9621 116.384 70.8673C116.405 70.768 116.437 70.6714 116.479 70.5793C116.519 70.4896 116.571 70.4061 116.635 70.3316C116.697 70.2591 116.771 70.1977 116.854 70.1502C116.915 70.1091 116.987 70.0853 117.061 70.0811C117.116 70.081 117.169 70.0982 117.214 70.13C117.253 70.1595 117.284 70.1994 117.303 70.2452C117.322 70.2919 117.334 70.3416 117.337 70.3921C117.341 70.4072 117.341 70.423 117.337 70.4382C117.332 70.4525 117.322 70.4646 117.309 70.4727L117.237 70.5131C117.211 70.5303 117.193 70.5303 117.188 70.5131C117.174 70.4809 117.158 70.45 117.139 70.4209C117.124 70.3952 117.102 70.3742 117.075 70.3604C117.048 70.3465 117.017 70.3415 116.986 70.346C116.943 70.353 116.902 70.3686 116.865 70.3921C116.816 70.4209 116.771 70.4568 116.733 70.4987C116.691 70.5454 116.656 70.5977 116.629 70.6542C116.596 70.7158 116.572 70.7817 116.557 70.85C116.54 70.9266 116.53 71.0048 116.528 71.0833C116.528 71.1639 116.528 71.2388 116.528 71.3079C116.528 71.3771 116.528 71.4491 116.528 71.5297C116.528 71.6007 116.538 71.6714 116.557 71.7399C116.569 71.7864 116.594 71.8284 116.629 71.8609C116.643 71.8736 116.659 71.8832 116.677 71.8891C116.695 71.8951 116.714 71.8972 116.733 71.8955C116.78 71.8906 116.825 71.8748 116.865 71.8494C116.913 71.8217 116.957 71.7867 116.995 71.7457C117.039 71.703 117.076 71.6522 117.101 71.5959C117.134 71.5333 117.159 71.4665 117.173 71.3972C117.191 71.3149 117.2 71.2309 117.199 71.1467V71.0718L116.946 71.2158C116.941 71.2198 116.936 71.2221 116.93 71.2221C116.924 71.2221 116.918 71.2198 116.914 71.2158C116.904 71.2038 116.899 71.1883 116.9 71.1726V71.0775C116.9 71.0566 116.905 71.036 116.914 71.0171C116.92 71.0004 116.931 70.9862 116.946 70.9767L117.317 70.7607C117.322 70.757 117.328 70.755 117.335 70.755C117.341 70.755 117.347 70.757 117.352 70.7607C117.357 70.7746 117.357 70.79 117.352 70.8039V71.0603C117.352 71.1668 117.34 71.2731 117.317 71.3771C117.296 71.4765 117.263 71.5731 117.219 71.6651C117.18 71.7537 117.127 71.8361 117.064 71.9099C117.003 71.9809 116.931 72.0413 116.851 72.0884C116.786 72.1316 116.71 72.1556 116.632 72.1575C116.603 72.157 116.574 72.1506 116.547 72.1387C116.52 72.1268 116.496 72.1097 116.476 72.0884C116.431 72.0365 116.399 71.9742 116.384 71.907C116.361 71.8186 116.349 71.7276 116.35 71.6363C116.352 71.4769 116.352 71.3166 116.352 71.1553Z" fill="white"/>
</svg>
