<svg width="30" height="30" viewBox="0 0 30 30" fill="none" xmlns="http://www.w3.org/2000/svg">
<path d="M29.7831 14.3348L15.6681 0.272613C15.4918 0.098006 15.2533 0 15.0047 0C14.7561 0 14.5176 0.098006 14.3413 0.272613L0.226271 14.3348C0.0721096 14.5142 -0.00844584 14.7449 0.000701782 14.9808C0.00984941 15.2168 0.108026 15.4406 0.275614 15.6075C0.443201 15.7745 0.667855 15.8723 0.904683 15.8814C1.14151 15.8905 1.37307 15.8103 1.55308 15.6567L15 2.26007L28.4469 15.6661C28.6269 15.8197 28.8585 15.8999 29.0953 15.8908C29.3321 15.8817 29.5568 15.7839 29.7244 15.6169C29.892 15.45 29.9902 15.2261 29.9993 14.9902C30.0084 14.7543 29.9279 14.5236 29.7737 14.3442L29.7831 14.3348Z" fill="#999999"/>
<path d="M24.41 28.1251H19.705V18.7503H10.295V28.1251H5.59001V15.0004L3.70801 16.8754V28.1251C3.70801 28.6224 3.90629 29.0993 4.25923 29.4509C4.61218 29.8026 5.09087 30.0001 5.59001 30.0001H12.177V20.6253H17.823V30.0001H24.41C24.9092 30.0001 25.3879 29.8026 25.7408 29.4509C26.0938 29.0993 26.292 28.6224 26.292 28.1251V16.6504L24.41 14.7754V28.1251Z" fill="#999999"/>
</svg>
