<svg width="120" height="109" viewBox="0 0 120 109" fill="none" xmlns="http://www.w3.org/2000/svg">
<path d="M101.628 63.6776C101.628 63.6776 101.628 62.7043 102.994 61.3386C104.359 59.973 105.237 59.1934 105.237 59.1934C105.237 59.1934 105.918 61.4367 104.651 62.7999C103.72 63.7603 102.711 64.6411 101.633 65.433L101.628 63.6776Z" fill="#92E3A9"/>
<path d="M103.609 69.769C103.609 69.769 103.609 68.7931 104.975 67.4275C106.341 66.0619 107.216 65.2822 107.216 65.2822C107.216 65.2822 107.9 67.5256 106.632 68.8912C105.702 69.8517 104.692 70.7325 103.614 71.5244L103.609 69.769Z" fill="#92E3A9"/>
<path d="M101.713 65.3401C101.713 65.3401 101.61 64.3693 100.108 63.157C98.607 61.9448 97.6513 61.2607 97.6513 61.2607C97.6513 61.2607 97.2112 63.562 98.6146 64.7817C99.6439 65.6376 100.743 66.4064 101.899 67.0804L101.713 65.3401Z" fill="#92E3A9"/>
<path d="M104.107 72.523C104.107 72.523 103.903 71.5698 102.281 70.511C100.659 69.4522 99.6403 68.8838 99.6403 68.8838C99.6403 68.8838 99.4416 71.2202 100.968 72.2891C102.081 73.0329 103.253 73.6823 104.474 74.2307L104.107 72.523Z" fill="#92E3A9"/>
<path d="M103.657 80.3725C103.657 80.3725 103.657 79.3967 102.291 78.031C100.926 76.6654 100.051 75.8857 100.051 75.8857C100.051 75.8857 99.3665 78.1291 100.634 79.4948C101.565 80.4552 102.574 81.336 103.652 82.1279L103.657 80.3725Z" fill="#92E3A9"/>
<path d="M103.68 82.2861C103.68 82.2861 103.542 81.3204 104.686 79.7712C105.83 78.2219 106.602 77.3291 106.602 77.3291C106.602 77.3291 107.608 79.4518 106.535 80.9834C105.748 82.0665 104.872 83.0818 103.916 84.019L103.68 82.2861Z" fill="#92E3A9"/>
<path d="M105.038 87.9579C105.038 87.9579 105.038 86.982 103.672 85.6189C102.307 84.2558 101.431 83.4736 101.431 83.4736C101.431 83.4736 100.747 85.7145 102.015 87.0801C102.946 88.0406 103.955 88.9214 105.033 89.7133L105.038 87.9579Z" fill="#92E3A9"/>
<path d="M104.115 93.1005C104.115 93.1005 104.367 92.1574 103.386 90.4899C102.405 88.8225 101.769 87.8467 101.769 87.8467C101.769 87.8467 100.539 89.8436 101.419 91.4859C102.08 92.6509 102.837 93.7588 103.682 94.7981L104.115 93.1005Z" fill="#92E3A9"/>
<path d="M101.517 63.4287C101.587 64.4408 101.712 65.4483 101.891 66.4467C102.43 69.2333 103.78 71.034 104.318 73.5515C104.857 76.069 103.312 79.3134 103.725 82.5476C104.137 85.7819 105.397 87.5776 105.038 89.7405C104.678 91.9034 102.774 97.7533 102.774 97.7533" stroke="#263238" stroke-width="0.302489" stroke-linecap="round" stroke-linejoin="round"/>
<path d="M101.728 65.9861L100.257 64.8594" stroke="#263238" stroke-width="0.302489" stroke-linecap="round" stroke-linejoin="round"/>
<path d="M101.658 64.6858L102.274 63.5918" stroke="#263238" stroke-width="0.302489" stroke-linecap="round" stroke-linejoin="round"/>
<path d="M104.226 73.4462C104.226 73.4462 102.994 72.5232 101.729 71.5977" stroke="#263238" stroke-width="0.302489" stroke-linecap="round" stroke-linejoin="round"/>
<path d="M103.609 71.5174C104.223 70.3303 104.956 69.2087 105.797 68.1699" stroke="#263238" stroke-width="0.302489" stroke-linecap="round" stroke-linejoin="round"/>
<path d="M103.609 81.7583C102.906 80.4633 102.018 79.2773 100.974 78.2373" stroke="#263238" stroke-width="0.302489" stroke-linecap="round" stroke-linejoin="round"/>
<path d="M103.849 83.1282C104.223 82.2484 104.669 81.4013 105.184 80.5956C105.901 79.5342 106.004 79.3984 106.004 79.3984" stroke="#263238" stroke-width="0.302489" stroke-linecap="round" stroke-linejoin="round"/>
<path d="M105.038 89.7506C104.727 88.9753 104.356 88.2253 103.929 87.5072C103.503 86.8415 103.023 86.2123 102.493 85.626" stroke="#263238" stroke-width="0.302489" stroke-linecap="round" stroke-linejoin="round"/>
<path d="M103.669 94.7986C103.74 94.0584 103.613 93.3127 103.3 92.6382C102.797 91.6473 102.206 90.347 101.967 89.834" stroke="#263238" stroke-width="0.302489" stroke-linecap="round" stroke-linejoin="round"/>
<path d="M110.571 76.7051C110.571 76.7051 110.679 76.0939 109.97 75.0879C109.261 74.0819 108.798 73.501 108.798 73.501C108.798 73.501 108.127 74.8314 108.773 75.8273C109.253 76.5303 109.792 77.1916 110.383 77.8041L110.571 76.7051Z" fill="#92E3A9"/>
<path d="M108.665 80.3193C108.665 80.3193 108.77 79.7057 108.061 78.7022C107.352 77.6987 106.889 77.1152 106.889 77.1152C106.889 77.1152 106.218 78.4457 106.864 79.4391C107.344 80.1426 107.883 80.8047 108.473 81.4184L108.665 80.3193Z" fill="#92E3A9"/>
<path d="M110.332 77.7368C110.332 77.7368 110.503 77.1407 111.577 76.5421C112.65 75.9436 113.322 75.6191 113.322 75.6191C113.322 75.6191 113.35 77.113 112.336 77.7267C111.598 78.1515 110.826 78.5141 110.027 78.8107L110.332 77.7368Z" fill="#92E3A9"/>
<path d="M108.056 81.987C108.056 81.987 108.288 81.411 109.419 80.9307C110.551 80.4503 111.253 80.1963 111.253 80.1963C111.253 80.1963 111.122 81.6826 110.051 82.1856C109.271 82.5316 108.465 82.8117 107.639 83.0231L108.056 81.987Z" fill="#92E3A9"/>
<path d="M107.483 86.9516C107.483 86.9516 107.589 86.3405 108.592 85.6338C109.596 84.9271 110.232 84.5322 110.232 84.5322C110.232 84.5322 110.415 86.011 109.477 86.7303C108.789 87.2316 108.059 87.6741 107.297 88.0532L107.483 86.9516Z" fill="#92E3A9"/>
<path d="M107.261 88.151C107.261 88.151 107.452 87.56 106.894 86.466C106.335 85.3719 105.958 84.7256 105.958 84.7256C105.958 84.7256 105.103 85.9504 105.603 87.0243C105.978 87.7891 106.416 88.521 106.914 89.2123L107.261 88.151Z" fill="#92E3A9"/>
<path d="M105.541 93.0832C105.541 93.0832 105.47 92.467 104.51 91.7024C103.549 90.9379 102.935 90.5078 102.935 90.5078C102.935 90.5078 102.666 91.9766 103.566 92.7462C104.225 93.2863 104.929 93.77 105.669 94.1923L105.541 93.0832Z" fill="#92E3A9"/>
<path d="M105.792 91.5616C105.792 91.5616 105.898 90.9504 106.904 90.2412C107.91 89.532 108.541 89.1396 108.541 89.1396C108.541 89.1396 108.727 90.621 107.787 91.3377C107.097 91.8393 106.367 92.2819 105.604 92.6606L105.792 91.5616Z" fill="#92E3A9"/>
<path d="M105.812 94.8838C105.812 94.8838 105.762 94.2651 106.554 93.327C107.346 92.3889 107.859 91.8457 107.859 91.8457C107.859 91.8457 108.413 93.2315 107.683 94.1645C107.144 94.8241 106.55 95.4374 105.908 95.998L105.812 94.8838Z" fill="#92E3A9"/>
<path d="M110.672 76.5625C110.518 77.1918 110.33 77.8122 110.108 78.4211C109.467 80.1086 108.426 81.092 107.815 82.611C107.204 84.1301 107.815 86.3357 107.211 88.3175C106.607 90.2994 105.614 91.2928 105.607 92.6861C105.599 94.0794 106.147 97.9474 106.147 97.9474" stroke="#263238" stroke-width="0.302489" stroke-linecap="round" stroke-linejoin="round"/>
<path d="M110.254 78.141L111.3 77.5928" stroke="#263238" stroke-width="0.302489" stroke-linecap="round" stroke-linejoin="round"/>
<path d="M110.437 77.3336L110.171 76.5791" stroke="#263238" stroke-width="0.302489" stroke-linecap="round" stroke-linejoin="round"/>
<path d="M107.877 82.5479C107.877 82.5479 108.75 82.1028 109.637 81.6602" stroke="#263238" stroke-width="0.302489" stroke-linecap="round" stroke-linejoin="round"/>
<path d="M108.474 81.4087C108.219 80.5976 107.882 79.8147 107.468 79.0723" stroke="#263238" stroke-width="0.302489" stroke-linecap="round" stroke-linejoin="round"/>
<path d="M107.361 87.8263C107.943 87.0905 108.629 86.4425 109.396 85.9023" stroke="#263238" stroke-width="0.302489" stroke-linecap="round" stroke-linejoin="round"/>
<path d="M107.063 88.6588C106.924 88.0667 106.736 87.4872 106.502 86.9259C106.167 86.184 106.117 86.0859 106.117 86.0859" stroke="#263238" stroke-width="0.302489" stroke-linecap="round" stroke-linejoin="round"/>
<path d="M105.654 93.7417C105.315 93.3204 104.939 92.9299 104.53 92.5748C104.27 92.3829 104.026 92.1701 103.801 91.9385" stroke="#263238" stroke-width="0.302489" stroke-linecap="round" stroke-linejoin="round"/>
<path d="M105.606 92.6853C105.886 92.2329 106.2 91.8024 106.545 91.3976C106.885 91.0266 107.255 90.6842 107.651 90.374" stroke="#263238" stroke-width="0.302489" stroke-linecap="round" stroke-linejoin="round"/>
<path d="M105.908 95.9983C105.943 95.5262 106.104 95.072 106.373 94.683C106.804 94.1171 107.309 93.3651 107.515 93.0684" stroke="#263238" stroke-width="0.302489" stroke-linecap="round" stroke-linejoin="round"/>
<path d="M101.891 107.23H107.59C107.709 107.23 107.823 107.182 107.907 107.098C107.991 107.015 108.038 106.901 108.038 106.782L109.451 97.3457H100.03L101.444 106.782C101.444 106.901 101.491 107.015 101.575 107.098C101.659 107.182 101.773 107.23 101.891 107.23Z" fill="#263238" stroke="#263238" stroke-width="0.302489" stroke-linecap="round" stroke-linejoin="round"/>
<path d="M15.4725 63.6776C15.4725 63.6776 15.4725 62.7043 14.1068 61.3386C12.7412 59.973 11.866 59.1934 11.866 59.1934C11.866 59.1934 11.1819 61.4367 12.4494 62.7999C13.3802 63.7603 14.3897 64.6411 15.4674 65.433L15.4725 63.6776Z" fill="#92E3A9"/>
<path d="M13.4926 69.769C13.4926 69.769 13.4926 68.7931 12.1295 67.4275C10.7664 66.0619 9.88612 65.2822 9.88612 65.2822C9.88612 65.2822 9.20456 67.5256 10.4721 68.8912C11.4041 69.849 12.4145 70.7272 13.4926 71.5169V69.769Z" fill="#92E3A9"/>
<path d="M15.3863 65.3401C15.3863 65.3401 15.4894 64.3693 16.9909 63.157C18.4923 61.9448 19.448 61.2607 19.448 61.2607C19.448 61.2607 19.8906 63.562 18.4848 64.7817C17.4559 65.6382 16.3572 66.4071 15.2002 67.0804L15.3863 65.3401Z" fill="#92E3A9"/>
<path d="M12.9901 72.523C12.9901 72.523 13.1963 71.5698 14.816 70.511C16.4356 69.4522 17.4592 68.8838 17.4592 68.8838C17.4592 68.8838 17.6554 71.2202 16.1313 72.2891C15.0138 73.0332 13.836 73.6827 12.6104 74.2307L12.9901 72.523Z" fill="#92E3A9"/>
<path d="M13.4424 80.3725C13.4424 80.3725 13.4424 79.3967 14.808 78.031C16.1737 76.6654 17.0514 75.8857 17.0514 75.8857C17.0514 75.8857 17.733 78.1291 16.4654 79.4948C15.5347 80.4552 14.5252 81.336 13.4474 82.1279L13.4424 80.3725Z" fill="#92E3A9"/>
<path d="M13.4195 82.2861C13.4195 82.2861 13.5579 81.3204 12.4135 79.7712C11.2692 78.2219 10.4996 77.3291 10.4996 77.3291C10.4996 77.3291 9.49364 79.4518 10.565 80.9834C11.3516 82.0665 12.2273 83.0818 13.1831 84.019L13.4195 82.2861Z" fill="#92E3A9"/>
<path d="M12.0742 87.9579C12.0742 87.9579 12.0742 86.982 13.4399 85.6189C14.8055 84.2558 15.6832 83.4736 15.6832 83.4736C15.6832 83.4736 16.3648 85.7145 15.0972 87.0801C14.1665 88.0406 13.157 88.9214 12.0792 89.7133L12.0742 87.9579Z" fill="#92E3A9"/>
<path d="M12.9899 93.1005C12.9899 93.1005 12.7384 92.1574 13.7168 90.4899C14.6951 88.8225 15.344 87.8467 15.344 87.8467C15.344 87.8467 16.5713 89.8436 15.691 91.4859C15.0308 92.6515 14.2737 93.7595 13.4275 94.7981L12.9899 93.1005Z" fill="#92E3A9"/>
<path d="M15.5953 63.4287C15.5262 64.4407 15.4019 65.4482 15.2231 66.4467C14.6824 69.2333 13.3343 71.034 12.7936 73.5515C12.2529 76.069 13.7996 79.3134 13.3897 82.5476C12.9797 85.7819 11.7147 87.5776 12.0743 89.7405C12.434 91.9034 14.3227 97.7432 14.3227 97.7432" stroke="#263238" stroke-width="0.302489" stroke-linecap="round" stroke-linejoin="round"/>
<path d="M15.374 65.9861L16.8453 64.8594" stroke="#263238" stroke-width="0.302489" stroke-linecap="round" stroke-linejoin="round"/>
<path d="M15.4423 64.6858L14.8262 63.5918" stroke="#263238" stroke-width="0.302489" stroke-linecap="round" stroke-linejoin="round"/>
<path d="M12.877 73.4462C12.877 73.4462 14.1068 72.5232 15.3743 71.5977" stroke="#263238" stroke-width="0.302489" stroke-linecap="round" stroke-linejoin="round"/>
<path d="M13.4927 71.5174C12.8788 70.3303 12.1456 69.2087 11.3047 68.1699" stroke="#263238" stroke-width="0.302489" stroke-linecap="round" stroke-linejoin="round"/>
<path d="M13.4932 81.7583C14.1954 80.4631 15.0824 79.277 16.1264 78.2373" stroke="#263238" stroke-width="0.302489" stroke-linecap="round" stroke-linejoin="round"/>
<path d="M13.2413 83.1282C12.8674 82.2487 12.4216 81.4017 11.9083 80.5956C11.1891 79.5342 11.0859 79.3984 11.0859 79.3984" stroke="#263238" stroke-width="0.302489" stroke-linecap="round" stroke-linejoin="round"/>
<path d="M12.0742 89.7506C12.3856 88.9753 12.7565 88.2253 13.1833 87.5072C13.6092 86.8415 14.0896 86.2123 14.6194 85.626" stroke="#263238" stroke-width="0.302489" stroke-linecap="round" stroke-linejoin="round"/>
<path d="M13.4297 94.7984C13.3599 94.0599 13.4875 93.3161 13.7994 92.6431C14.3024 91.6522 14.8935 90.3519 15.1324 89.8389" stroke="#263238" stroke-width="0.302489" stroke-linecap="round" stroke-linejoin="round"/>
<path d="M6.53391 76.7051C6.53391 76.7051 6.42829 76.0939 7.135 75.0879C7.84171 74.0819 8.3095 73.501 8.3095 73.501C8.3095 73.501 8.981 74.8314 8.33465 75.8273C7.8546 76.5303 7.31617 77.1916 6.72505 77.8041L6.53391 76.7051Z" fill="#92E3A9"/>
<path d="M8.43724 80.3196C8.43724 80.3196 8.33161 79.706 9.03832 78.7025C9.74503 77.699 10.2229 77.1055 10.2229 77.1055C10.2229 77.1055 10.8944 78.4359 10.2455 79.4293C9.76515 80.1328 9.22674 80.7949 8.63592 81.4086L8.43724 80.3196Z" fill="#92E3A9"/>
<path d="M6.76774 77.7368C6.76774 77.7368 6.59672 77.1407 5.52533 76.5421C4.45395 75.9436 3.77742 75.6191 3.77742 75.6191C3.77742 75.6191 3.74975 77.113 4.76581 77.7267C5.50394 78.1515 6.2762 78.5141 7.07457 78.8107L6.76774 77.7368Z" fill="#92E3A9"/>
<path d="M9.04853 81.987C9.04853 81.987 8.81715 81.411 7.68792 80.9307C6.55869 80.4503 5.85449 80.1963 5.85449 80.1963C5.85449 80.1963 5.98276 81.6826 7.05666 82.1856C7.83572 82.5319 8.64252 82.8121 9.46853 83.0231L9.04853 81.987Z" fill="#92E3A9"/>
<path d="M9.61693 86.9516C9.61693 86.9516 9.5113 86.3405 8.50782 85.6338C7.50434 84.9271 6.86804 84.5322 6.86804 84.5322C6.86804 84.5322 6.68445 86.011 7.62254 86.7303C8.31102 87.2316 9.04042 87.6741 9.80304 88.0532L9.61693 86.9516Z" fill="#92E3A9"/>
<path d="M9.84108 88.151C9.84108 88.151 9.64743 87.56 10.2058 86.466C10.7641 85.3719 11.1413 84.7256 11.1413 84.7256C11.1413 84.7256 11.9964 85.9504 11.4985 87.0243C11.1224 87.7888 10.6832 88.5207 10.1856 89.2123L9.84108 88.151Z" fill="#92E3A9"/>
<path d="M11.554 93.0832C11.554 93.0832 11.6245 92.467 12.5877 91.7024C13.5509 90.9379 14.1596 90.5078 14.1596 90.5078C14.1596 90.5078 14.4287 91.9766 13.5283 92.7462C12.8692 93.2863 12.1659 93.77 11.4258 94.1923L11.554 93.0832Z" fill="#92E3A9"/>
<path d="M11.2995 91.5616C11.2995 91.5616 11.1939 90.9504 10.1904 90.2412C9.18695 89.532 8.55066 89.1396 8.55066 89.1396C8.55066 89.1396 8.36707 90.621 9.30516 91.3377C9.99203 91.8388 10.7197 92.2813 11.4806 92.6606L11.2995 91.5616Z" fill="#92E3A9"/>
<path d="M11.2873 94.8838C11.2873 94.8838 11.3401 94.2651 10.5479 93.327C9.75565 92.3889 9.24007 91.8457 9.24007 91.8457C9.24007 91.8457 8.68678 93.2315 9.41612 94.1645C9.95586 94.8241 10.5498 95.4374 11.1917 95.998L11.2873 94.8838Z" fill="#92E3A9"/>
<path d="M6.42773 76.5625C6.5817 77.1918 6.76977 77.8122 6.99109 78.4211C7.63241 80.1086 8.67362 81.092 9.28476 82.611C9.8959 84.1301 9.28476 86.3357 9.88836 88.3175C10.492 90.2994 11.4854 91.2928 11.4929 92.6861C11.5005 94.0794 10.9522 97.9474 10.9522 97.9474" stroke="#263238" stroke-width="0.302489" stroke-linecap="round" stroke-linejoin="round"/>
<path d="M6.84548 78.141L5.80176 77.5928" stroke="#263238" stroke-width="0.302489" stroke-linecap="round" stroke-linejoin="round"/>
<path d="M6.66211 77.3336L6.9287 76.5791" stroke="#263238" stroke-width="0.302489" stroke-linecap="round" stroke-linejoin="round"/>
<path d="M9.21752 82.5479C9.21752 82.5479 8.34482 82.1028 7.45703 81.6602" stroke="#263238" stroke-width="0.302489" stroke-linecap="round" stroke-linejoin="round"/>
<path d="M8.62598 81.4087C8.88062 80.5976 9.21771 79.8147 9.63197 79.0723" stroke="#263238" stroke-width="0.302489" stroke-linecap="round" stroke-linejoin="round"/>
<path d="M9.7376 87.8263C9.15698 87.0908 8.47343 86.4429 7.70801 85.9023" stroke="#263238" stroke-width="0.302489" stroke-linecap="round" stroke-linejoin="round"/>
<path d="M10.0371 88.6588C10.1761 88.0667 10.3637 87.4872 10.598 86.9259C10.935 86.184 10.9827 86.0859 10.9827 86.0859" stroke="#263238" stroke-width="0.302489" stroke-linecap="round" stroke-linejoin="round"/>
<path d="M11.4482 93.7417C11.7867 93.3202 12.1621 92.9297 12.5699 92.5748C12.8304 92.3825 13.0752 92.1697 13.3018 91.9385" stroke="#263238" stroke-width="0.302489" stroke-linecap="round" stroke-linejoin="round"/>
<path d="M11.4933 92.6852C11.2138 92.2327 10.9002 91.8022 10.5553 91.3975C10.2161 91.0279 9.84684 90.6872 9.45117 90.3789" stroke="#263238" stroke-width="0.302489" stroke-linecap="round" stroke-linejoin="round"/>
<path d="M11.192 95.9983C11.1572 95.5262 10.9965 95.072 10.7268 94.683C10.2967 94.1171 9.79119 93.3651 9.58496 93.0684" stroke="#263238" stroke-width="0.302489" stroke-linecap="round" stroke-linejoin="round"/>
<path d="M15.2075 107.23H9.50855C9.38982 107.23 9.27596 107.182 9.192 107.098C9.10805 107.015 9.06088 106.901 9.06088 106.782L7.64746 97.3457H17.0686L15.6552 106.782C15.6552 106.901 15.608 107.015 15.5241 107.098C15.4401 107.182 15.3262 107.23 15.2075 107.23Z" fill="#263238" stroke="#263238" stroke-width="0.302489" stroke-linecap="round" stroke-linejoin="round"/>
<g opacity="0.3">
<path opacity="0.3" d="M115.739 82.583H81.1632V19.9598C81.1632 15.4908 82.9385 11.2048 86.0986 8.04478C89.2587 4.88471 93.5446 3.10941 98.0136 3.10941C102.713 3.10941 107.219 4.97613 110.542 8.29892C113.865 11.6217 115.732 16.1284 115.732 20.8275L115.732 82.583H115.739Z" stroke="black" stroke-width="0.302489" stroke-linecap="round" stroke-linejoin="round"/>
<path opacity="0.3" d="M111.828 82.3969V20.9658C111.828 19.2081 111.482 17.4676 110.81 15.8437C110.137 14.2198 109.151 12.7443 107.908 11.5014C106.665 10.2585 105.19 9.27256 103.566 8.59991C101.942 7.92726 100.201 7.58105 98.4436 7.58105V7.58105C94.8951 7.58305 91.4925 8.99411 88.984 11.504C86.4755 14.0139 85.0664 17.4173 85.0664 20.9658V82.407" stroke="black" stroke-width="0.302489" stroke-linecap="round" stroke-linejoin="round"/>
<path opacity="0.3" d="M98.4512 3.10938V82.4899" stroke="black" stroke-width="0.302489" stroke-linecap="round" stroke-linejoin="round"/>
<path opacity="0.3" d="M115.553 18.4004H81.3945" stroke="black" stroke-width="0.302489" stroke-linecap="round" stroke-linejoin="round"/>
<path opacity="0.3" d="M115.553 29.1816H81.3945" stroke="black" stroke-width="0.302489" stroke-linecap="round" stroke-linejoin="round"/>
<path opacity="0.3" d="M115.553 39.9639H81.3945" stroke="black" stroke-width="0.302489" stroke-linecap="round" stroke-linejoin="round"/>
<path opacity="0.3" d="M115.553 50.748H81.3945" stroke="black" stroke-width="0.302489" stroke-linecap="round" stroke-linejoin="round"/>
<path opacity="0.3" d="M115.553 61.5303H81.3945" stroke="black" stroke-width="0.302489" stroke-linecap="round" stroke-linejoin="round"/>
<path opacity="0.3" d="M115.553 72.3115H81.3945" stroke="black" stroke-width="0.302489" stroke-linecap="round" stroke-linejoin="round"/>
<path opacity="0.3" d="M110.986 8.50391L107.89 11.3257" stroke="black" stroke-width="0.302489" stroke-linecap="round" stroke-linejoin="round"/>
<path opacity="0.3" d="M86.0449 8.50391L89.1434 11.3257" stroke="black" stroke-width="0.302489" stroke-linecap="round" stroke-linejoin="round"/>
</g>
<path d="M60.9806 15.4576H57.6835C57.5178 15.4574 57.3548 15.4153 57.2097 15.3353C57.0646 15.2553 56.9421 15.1399 56.8535 14.9998C56.1342 13.8631 54.3637 10.913 54.6127 9.6756C54.9522 8.01571 59.5471 5.02539 59.5471 5.02539C59.5471 5.02539 63.7572 7.97044 64.059 9.53476C64.3105 10.7923 62.5324 13.8304 61.8156 14.9923C61.7275 15.1344 61.6045 15.2518 61.4584 15.3332C61.3123 15.4146 61.1479 15.4574 60.9806 15.4576V15.4576Z" stroke="#999999" stroke-width="0.302489" stroke-linecap="round" stroke-linejoin="round"/>
<path d="M59.8539 14.9147L57.0019 16.5646C56.8582 16.6472 56.6959 16.6921 56.5301 16.6952C56.3643 16.6983 56.2005 16.6594 56.0537 16.5822C54.8616 15.961 51.8537 14.2885 51.4513 13.0939C50.9131 11.4868 53.3979 6.59766 53.3979 6.59766C53.3979 6.59766 58.5184 7.04281 59.5622 8.25C60.4047 9.2233 60.3871 12.7317 60.3468 14.0974C60.3415 14.2644 60.2934 14.4273 60.2071 14.5704C60.1208 14.7135 59.9992 14.8321 59.8539 14.9147Z" stroke="#999999" stroke-width="0.302489" stroke-linecap="round" stroke-linejoin="round"/>
<path d="M58.6061 15.0102L56.9588 17.8647C56.8773 18.0102 56.7603 18.1326 56.6187 18.2206C56.4771 18.3085 56.3154 18.3591 56.1489 18.3677C54.8034 18.4255 51.3705 18.4834 50.4173 17.6459C49.1598 16.5242 48.8555 11.0465 48.8555 11.0465C48.8555 11.0465 53.5107 8.8736 55.0172 9.39671C56.2344 9.81923 57.9748 12.8674 58.6212 14.0696C58.6981 14.2149 58.7371 14.3774 58.7345 14.5418C58.7318 14.7062 58.6877 14.8674 58.6061 15.0102V15.0102Z" stroke="#999999" stroke-width="0.302489" stroke-linecap="round" stroke-linejoin="round"/>
<path d="M57.5747 15.7168V19.0114C57.5746 19.1771 57.5325 19.3401 57.4525 19.4852C57.3724 19.6303 57.2571 19.7528 57.117 19.8413C55.9802 20.5632 53.0302 22.3337 51.7928 22.0822C50.1329 21.7452 47.1426 17.1478 47.1426 17.1478C47.1426 17.1478 50.0876 12.9377 51.6519 12.6384C52.9094 12.3869 55.9475 14.165 57.1095 14.8818C57.2516 14.9699 57.369 15.0928 57.4504 15.2389C57.5318 15.3851 57.5746 15.5495 57.5747 15.7168V15.7168Z" stroke="#999999" stroke-width="0.302489" stroke-linecap="round" stroke-linejoin="round"/>
<path d="M57.0319 16.843L58.6817 19.7076C58.7641 19.8509 58.809 20.0128 58.812 20.1781C58.8151 20.3435 58.7764 20.5069 58.6993 20.6532C58.0781 21.8478 56.4057 24.8557 55.2111 25.2556C53.604 25.7938 48.7148 23.309 48.7148 23.309C48.7148 23.309 49.16 18.191 50.3647 17.1473C51.3405 16.3023 54.8489 16.3224 56.2145 16.3626C56.3804 16.3666 56.5425 16.4128 56.6855 16.4969C56.8285 16.5809 56.9477 16.7001 57.0319 16.843Z" stroke="#999999" stroke-width="0.302489" stroke-linecap="round" stroke-linejoin="round"/>
<path d="M57.1274 18.0904L59.9819 19.7377C60.1275 19.819 60.2501 19.936 60.3381 20.0776C60.4261 20.2193 60.4766 20.381 60.4849 20.5476C60.5427 21.8931 60.598 25.326 59.7631 26.2792C58.6414 27.5493 53.1637 27.841 53.1637 27.841C53.1637 27.841 50.9908 23.1858 51.5139 21.6768C51.9339 20.4595 54.9846 18.7217 56.1867 18.0753C56.3321 17.9984 56.4945 17.9594 56.659 17.962C56.8234 17.9647 56.9845 18.0088 57.1274 18.0904V18.0904Z" stroke="#999999" stroke-width="0.302489" stroke-linecap="round" stroke-linejoin="round"/>
<path d="M57.834 19.1221H61.1286C61.2943 19.1223 61.4572 19.1643 61.6023 19.2443C61.7474 19.3244 61.87 19.4398 61.9585 19.5798C62.6803 20.7141 64.4509 23.6667 64.1994 24.9015C63.8624 26.5639 59.265 29.5542 59.265 29.5542C59.265 29.5542 55.0549 26.6092 54.7556 25.0424C54.5041 23.7849 56.2822 20.7468 56.999 19.5873C57.0871 19.4452 57.21 19.3278 57.3561 19.2464C57.5022 19.165 57.6667 19.1222 57.834 19.1221Z" stroke="#999999" stroke-width="0.302489" stroke-linecap="round" stroke-linejoin="round"/>
<path d="M58.9605 19.6629L61.815 18.0156C61.9581 17.9328 62.1199 17.8875 62.2852 17.884C62.4506 17.8805 62.6141 17.9188 62.7606 17.9955C63.9552 18.6192 66.9632 20.2891 67.3631 21.4863C67.9013 23.0933 65.4165 27.9825 65.4165 27.9825C65.4165 27.9825 60.2985 27.5348 59.2547 26.3301C58.4097 25.3568 58.4298 21.8484 58.4701 20.4828C58.4754 20.3157 58.5232 20.1527 58.609 20.0093C58.6948 19.8658 58.8158 19.7466 58.9605 19.6629V19.6629Z" stroke="#999999" stroke-width="0.302489" stroke-linecap="round" stroke-linejoin="round"/>
<path d="M60.2058 19.5697L61.8556 16.7127C61.9386 16.5697 62.0563 16.45 62.1979 16.3647C62.3395 16.2794 62.5003 16.2313 62.6655 16.2248C64.011 16.1669 67.4439 16.1091 68.3971 16.944C69.6672 18.0682 69.9589 23.5434 69.9589 23.5434C69.9589 23.5434 65.3012 25.7163 63.7922 25.1957C62.5749 24.7732 60.8371 21.725 60.1882 20.5229C60.1098 20.3756 60.0703 20.2108 60.0734 20.044C60.0765 19.8772 60.1221 19.714 60.2058 19.5697V19.5697Z" stroke="#999999" stroke-width="0.302489" stroke-linecap="round" stroke-linejoin="round"/>
<path d="M61.2393 18.8633V15.5662C61.2396 15.4009 61.2818 15.2383 61.3618 15.0937C61.4419 14.949 61.5571 14.8269 61.697 14.7387C62.8312 14.0169 65.7838 12.2464 67.0187 12.4979C68.6811 12.8349 71.6714 17.4298 71.6714 17.4298C71.6714 17.4298 68.7264 21.6399 67.1595 21.9417C65.902 22.1932 62.8639 20.4151 61.702 19.6983C61.5605 19.6097 61.4438 19.4866 61.3628 19.3406C61.2819 19.1945 61.2394 19.0303 61.2393 18.8633V18.8633Z" stroke="#999999" stroke-width="0.302489" stroke-linecap="round" stroke-linejoin="round"/>
<path d="M61.7801 17.7362L60.1328 14.8817C60.05 14.7381 60.0047 14.5759 60.0012 14.4102C59.9977 14.2445 60.036 14.0806 60.1126 13.9336C60.7364 12.7415 62.4063 9.73353 63.6034 9.33113C65.2105 8.79293 70.0996 11.2802 70.0996 11.2802C70.0996 11.2802 69.652 16.3982 68.4473 17.4445C67.474 18.287 63.9631 18.2694 62.6 18.2292C62.4326 18.2236 62.2695 18.1754 62.126 18.0891C61.9825 18.0029 61.8635 17.8814 61.7801 17.7362Z" stroke="#999999" stroke-width="0.302489" stroke-linecap="round" stroke-linejoin="round"/>
<path d="M61.6869 16.4889L58.8299 14.8416C58.687 14.7585 58.5675 14.6407 58.4822 14.4991C58.3969 14.3576 58.3487 14.1969 58.3419 14.0317C58.2841 12.6862 58.2263 9.25327 59.0612 8.30009C60.1854 7.04259 65.6606 6.73828 65.6606 6.73828C65.6606 6.73828 67.8335 11.3935 67.3129 12.9C66.8904 14.1173 63.8422 15.8576 62.6401 16.504C62.4932 16.5834 62.3284 16.6238 62.1615 16.6211C61.9946 16.6185 61.8311 16.5729 61.6869 16.4889Z" stroke="#999999" stroke-width="0.302489" stroke-linecap="round" stroke-linejoin="round"/>
<path d="M59.4059 32.6301C67.8787 32.6301 74.7473 25.7615 74.7473 17.2887C74.7473 8.81585 67.8787 1.94727 59.4059 1.94727C50.933 1.94727 44.0645 8.81585 44.0645 17.2887C44.0645 25.7615 50.933 32.6301 59.4059 32.6301Z" stroke="#999999" stroke-width="0.302489" stroke-linecap="round" stroke-linejoin="round"/>
<path d="M59.5469 5.02561V1.94727" stroke="#999999" stroke-width="0.302489" stroke-linecap="round" stroke-linejoin="round"/>
<path d="M59.2646 29.5547V32.6305" stroke="#999999" stroke-width="0.302489" stroke-linecap="round" stroke-linejoin="round"/>
<path d="M71.6719 17.4297H74.7477" stroke="#999999" stroke-width="0.302489" stroke-linecap="round" stroke-linejoin="round"/>
<path d="M47.1428 17.1475H44.0645" stroke="#999999" stroke-width="0.302489" stroke-linecap="round" stroke-linejoin="round"/>
<path d="M51.8008 9.71094L48.6797 6.58984" stroke="#999999" stroke-width="0.302489" stroke-linecap="round" stroke-linejoin="round"/>
<path d="M66.8379 24.9365L70.2407 28.3418" stroke="#999999" stroke-width="0.302489" stroke-linecap="round" stroke-linejoin="round"/>
<path d="M66.9307 10.0883L70.336 6.68555" stroke="#999999" stroke-width="0.302489" stroke-linecap="round" stroke-linejoin="round"/>
<path d="M51.8005 24.748L48.4883 28.0578" stroke="#999999" stroke-width="0.302489" stroke-linecap="round" stroke-linejoin="round"/>
<g opacity="0.3">
<path opacity="0.3" d="M37.3877 82.583H2.81165L2.81165 19.9598C2.81165 15.4908 4.58695 11.2048 7.74702 8.04478C10.9071 4.88471 15.1931 3.10941 19.6621 3.10941C24.3612 3.10941 28.8679 4.97613 32.1906 8.29892C35.5134 11.6217 37.3802 16.1284 37.3802 20.8275L37.3802 82.583H37.3877Z" stroke="black" stroke-width="0.302489" stroke-linecap="round" stroke-linejoin="round"/>
<path opacity="0.3" d="M33.4817 82.3962V20.9651C33.4831 19.2066 33.1378 17.465 32.4658 15.8399C31.7937 14.2148 30.808 12.7381 29.565 11.4942C28.322 10.2502 26.846 9.26341 25.2214 8.59013C23.5969 7.91686 21.8555 7.57032 20.097 7.57032V7.57032C18.3376 7.56899 16.5952 7.91456 14.9694 8.58724C13.3437 9.25993 11.8665 10.2465 10.6225 11.4906C9.37837 12.7347 8.39176 14.2119 7.71908 15.8376C7.04639 17.4633 6.70083 19.2057 6.70215 20.9651V82.4063" stroke="black" stroke-width="0.302489" stroke-linecap="round" stroke-linejoin="round"/>
<path opacity="0.3" d="M20.0967 3.10938V82.4899" stroke="black" stroke-width="0.302489" stroke-linecap="round" stroke-linejoin="round"/>
<path opacity="0.3" d="M37.2011 18.4004H3.04004" stroke="black" stroke-width="0.302489" stroke-linecap="round" stroke-linejoin="round"/>
<path opacity="0.3" d="M37.2011 29.1816H3.04004" stroke="black" stroke-width="0.302489" stroke-linecap="round" stroke-linejoin="round"/>
<path opacity="0.3" d="M37.2011 39.9639H3.04004" stroke="black" stroke-width="0.302489" stroke-linecap="round" stroke-linejoin="round"/>
<path opacity="0.3" d="M37.2011 50.748H3.04004" stroke="black" stroke-width="0.302489" stroke-linecap="round" stroke-linejoin="round"/>
<path opacity="0.3" d="M37.2011 61.5303H3.04004" stroke="black" stroke-width="0.302489" stroke-linecap="round" stroke-linejoin="round"/>
<path opacity="0.3" d="M37.2011 72.3115H3.04004" stroke="black" stroke-width="0.302489" stroke-linecap="round" stroke-linejoin="round"/>
<path opacity="0.3" d="M32.6346 8.50391L29.5361 11.3257" stroke="black" stroke-width="0.302489" stroke-linecap="round" stroke-linejoin="round"/>
<path opacity="0.3" d="M7.69336 8.50391L10.7893 11.3257" stroke="black" stroke-width="0.302489" stroke-linecap="round" stroke-linejoin="round"/>
</g>
<path d="M73.6407 44.8585C73.6407 44.8585 75.2025 45.7614 77.2597 47.9821C79.317 50.2028 80.4663 56.9455 78.1626 58.2609C75.8589 59.5762 74.4631 57.0285 74.4631 59.0003C74.4631 60.972 76.6838 62.1264 74.2116 64.1811C71.7393 66.2359 66.4805 66.0724 65.8241 62.4559C65.1677 58.8393 68.1253 56.6161 68.6182 54.2318C69.1112 51.8476 68.4548 47.1597 68.9477 45.3514C69.4406 43.5431 70.927 43.4501 73.6407 44.8585Z" fill="#263238" stroke="#263238" stroke-width="0.302489" stroke-linecap="round" stroke-linejoin="round"/>
<path d="M36.5654 22.6055C36.5654 22.6055 35.9417 22.1025 35.6072 22.1025C35.2727 22.1025 35.1269 22.5251 34.6465 22.8998C34.1661 23.2745 33.4469 23.4606 33.8769 23.6543C34.1089 23.7433 34.3605 23.7686 34.6055 23.7274C34.8505 23.6863 35.08 23.5803 35.2702 23.4204C35.655 23.0909 35.655 23.2796 35.9417 23.3248L36.2309 23.3726L36.5654 22.6055Z" stroke="#263238" stroke-width="0.302489" stroke-linecap="round" stroke-linejoin="round"/>
<path d="M35.7985 23.6825C35.7985 23.6825 34.5032 23.4486 34.4052 23.8233C34.3532 23.9727 34.3495 24.1347 34.3946 24.2864C34.4398 24.438 34.5314 24.5716 34.6567 24.6683C34.8617 24.7801 35.1005 24.8132 35.3282 24.7614L35.7985 23.6825Z" stroke="#263238" stroke-width="0.302489" stroke-linecap="round" stroke-linejoin="round"/>
<path d="M34.3095 24.1045C34.3095 24.1045 33.5902 24.3862 33.7813 24.9017C33.9725 25.4173 34.7873 25.5104 34.7873 25.5104L35.0766 24.9017C34.7339 24.7361 34.4618 24.4533 34.3095 24.1045V24.1045Z" stroke="#263238" stroke-width="0.302489" stroke-linecap="round" stroke-linejoin="round"/>
<path d="M33.8289 25.0898C33.7223 25.2737 33.6882 25.4908 33.7333 25.6985C33.8289 25.9802 34.4048 26.214 34.4048 26.214L34.7896 25.5099C34.7896 25.5099 33.8767 25.276 33.8289 25.0898Z" stroke="#263238" stroke-width="0.302489" stroke-linecap="round" stroke-linejoin="round"/>
<path d="M33.7327 25.6992C33.7327 25.6992 33.3982 25.8878 33.5416 26.167C33.6083 26.2596 33.694 26.3371 33.7928 26.3943C33.8916 26.4515 34.0014 26.4872 34.115 26.499L34.4017 26.2173C34.4017 26.2173 33.7805 25.8878 33.7327 25.6992Z" stroke="#263238" stroke-width="0.302489" stroke-linecap="round" stroke-linejoin="round"/>
<path d="M67.8839 43.8525C67.8839 43.8525 64.6773 41.5512 63.3569 40.8118C62.0366 40.0724 59.0815 39.577 59.0815 39.577L51.5969 34.0692C51.5969 34.0692 47.1579 30.7796 44.9372 29.5422C42.7165 28.3048 38.9339 25.7697 38.9339 25.7697L36.8012 22.7266L34.417 26.8361L38.441 27.7414C38.441 27.7414 45.9356 34.4037 47.8194 36.1314C49.7031 37.8592 51.109 38.4352 51.109 38.4352C51.109 38.4352 54.811 42.1347 56.3728 43.3671C57.9346 44.5994 58.674 44.9289 58.674 44.9289C58.674 44.9289 58.5106 48.4649 58.171 49.7828C57.8315 51.1007 57.3486 52.167 56.6092 52.4135C56.2931 52.5402 55.9616 52.6247 55.6234 52.665C55.6234 52.665 55.1204 57.5164 56.7727 60.1471C58.4251 62.7777 62.0366 62.6973 63.0225 62.6973C64.0083 62.6973 66.2291 59.7371 66.2291 59.7371C66.2291 59.7371 68.5328 58.8317 69.4357 58.0093C70.3386 57.1869 71.8576 53.6282 71.8576 53.6282C73.5671 54.0584 75.3211 54.2871 77.0838 54.3098C79.7974 54.3098 83.58 52.9114 83.58 52.9114C83.58 52.9114 88.7608 52.9114 91.228 52.172C93.6952 51.4326 100.108 49.2119 100.108 49.2119C100.108 49.2119 102.41 49.8683 104.22 49.7878C106.031 49.7074 107.591 49.5363 108.083 49.2848C108.386 49.1268 108.62 48.8639 108.742 48.5454C108.84 48.5447 108.936 48.5216 109.023 48.478C109.11 48.4344 109.186 48.3714 109.245 48.2939C109.362 48.1104 109.469 47.9206 109.565 47.7255C109.565 47.7255 109.975 47.7255 109.975 47.3961C109.975 47.0666 108.742 46.5737 108.742 46.5737C108.742 46.5737 110.141 46.0707 109.565 45.9173C108.989 45.7639 104.137 45.6658 104.137 45.6658C104.137 45.6658 103.974 45.2533 104.64 45.0898C105.307 44.9264 106.368 44.1844 105.875 44.104L105.372 44.021C104.905 44.2561 104.407 44.4254 103.894 44.524C103.383 44.5823 102.899 44.7818 102.495 45.0999C102.166 45.3514 100.44 47.0742 100.44 47.0742C98.6326 47.4902 96.7851 47.7102 94.9301 47.7306C91.56 47.8136 90.4031 47.7306 88.2704 48.143C86.1377 48.5555 83.9119 49.0409 83.9119 49.0409L78.0721 49.3703C78.0721 49.3703 75.7709 49.2873 75.195 49.1188C74.6191 48.9503 73.4697 48.6158 71.9884 47.1446C70.8774 46.0797 69.6961 45.0907 68.4523 44.1844L67.8839 43.8525Z" fill="white" stroke="#263238" stroke-width="0.302489" stroke-linecap="round" stroke-linejoin="round"/>
<path d="M108.753 46.5732L106.532 46.6562" stroke="#263238" stroke-width="0.302489" stroke-linecap="round" stroke-linejoin="round"/>
<path d="M109.575 47.725L106.451 47.5615" stroke="#263238" stroke-width="0.302489" stroke-linecap="round" stroke-linejoin="round"/>
<path d="M108.753 48.5479L106.778 48.6308" stroke="#263238" stroke-width="0.302489" stroke-linecap="round" stroke-linejoin="round"/>
<path d="M106.532 46.3271L106.779 48.9603" stroke="#263238" stroke-width="0.302489" stroke-linecap="round" stroke-linejoin="round"/>
<path d="M104.231 46.2461C104.213 46.5529 104.158 46.8562 104.065 47.149C103.901 47.7249 102.093 47.8079 102.093 47.8079" stroke="#263238" stroke-width="0.302489" stroke-linecap="round" stroke-linejoin="round"/>
<path d="M83.5908 52.9062L88.1958 51.6738" stroke="#263238" stroke-width="0.302489" stroke-linecap="round" stroke-linejoin="round"/>
<path d="M71.8682 53.6232L72.5724 52.167" stroke="#263238" stroke-width="0.302489" stroke-linecap="round" stroke-linejoin="round"/>
<path d="M58.6748 44.9287L60.2366 45.9171" stroke="#263238" stroke-width="0.302489" stroke-linecap="round" stroke-linejoin="round"/>
<path d="M60.0723 44.2725L60.4017 46.4932" stroke="#263238" stroke-width="0.302489" stroke-linecap="round" stroke-linejoin="round"/>
<path d="M69.2825 49.3702C69.2825 49.3702 69.7855 48.1379 70.4343 46.7395C71.0832 45.3412 71.9961 45.4242 72.3256 45.5877C72.6551 45.7511 73.8874 46.1636 74.2169 45.8392C74.5463 45.5147 76.1886 42.879 76.1886 42.879C76.1886 42.879 77.011 42.879 77.26 42.4691L76.6011 40.7413C76.6011 40.7413 77.1041 40.2383 77.1041 39.7554V38.4401C77.1041 38.4401 77.4335 36.6293 77.4335 36.2193C77.4335 35.8094 75.7887 35.314 74.1439 36.0534C72.4991 36.7928 67.8942 38.6866 67.4013 39.8258C66.9083 40.9651 66.7423 43.5279 66.7423 43.5279C66.7423 43.5279 66.4908 44.5968 66.0029 46.1586" fill="white"/>
<path d="M69.2825 49.3702C69.2825 49.3702 69.7855 48.1379 70.4343 46.7395C71.0832 45.3412 71.9961 45.4242 72.3256 45.5877C72.6551 45.7511 73.8874 46.1636 74.2169 45.8392C74.5463 45.5147 76.1886 42.879 76.1886 42.879C76.1886 42.879 77.011 42.879 77.26 42.4691L76.6011 40.7413C76.6011 40.7413 77.1041 40.2383 77.1041 39.7554V38.4401C77.1041 38.4401 77.4335 36.6293 77.4335 36.2193C77.4335 35.8094 75.7887 35.314 74.1439 36.0534C72.4991 36.7928 67.8942 38.6866 67.4013 39.8258C66.9083 40.9651 66.7423 43.5279 66.7423 43.5279C66.7423 43.5279 66.4908 44.5968 66.0029 46.1586" stroke="#263238" stroke-width="0.302489" stroke-linecap="round" stroke-linejoin="round"/>
<path d="M70.5153 40.5825C70.5153 40.5825 70.2638 38.5252 69.2 39.0182C68.1361 39.5111 68.2971 41.0754 68.624 41.5684C68.951 42.0613 69.5294 41.9783 68.4606 42.6372C67.3917 43.2962 66.4058 43.7061 65.6639 42.6372C64.922 41.5684 63.6092 39.3476 65.1609 36.717C66.7126 34.0863 70.1783 31.9385 73.1384 32.19C76.0986 32.4415 76.0156 33.5858 76.0156 33.5858C76.0156 33.5858 78.0703 32.2705 79.4687 34.4912C80.867 36.7119 80.2911 37.9443 79.7202 37.9443C79.1493 37.9443 78.8978 37.2879 78.8978 37.2879C78.8978 37.2879 78.4878 38.1103 78.0754 38.2737C77.7577 38.3813 77.4249 38.4374 77.0895 38.4397L76.838 36.7949C76.838 36.7949 74.3708 36.3825 74.0413 37.3683C73.7119 38.3542 73.5383 39.5891 72.5625 40.082C71.9219 40.3882 71.2249 40.5585 70.5153 40.5825Z" fill="#263238" stroke="#263238" stroke-width="0.302489" stroke-linecap="round" stroke-linejoin="round"/>
<path d="M75.9851 40.6534C75.9851 40.9275 75.8568 41.1564 75.6959 41.1564C75.5349 41.1564 75.4092 40.9376 75.4092 40.6534C75.4092 40.3692 75.5374 40.1504 75.6959 40.1504C75.8543 40.1504 75.9851 40.3818 75.9851 40.6534Z" fill="#263238"/>
<path d="M75.0391 39.6673C75.0391 39.6673 75.615 38.8449 76.4374 39.6673" stroke="#263238" stroke-width="0.302489" stroke-linecap="round" stroke-linejoin="round"/>
<path d="M73.9707 42.957C74.0519 43.1748 74.1979 43.3624 74.389 43.4946C74.5802 43.6268 74.8072 43.6972 75.0396 43.6964" stroke="#263238" stroke-width="0.302489" stroke-linecap="round" stroke-linejoin="round"/>
<path d="M72.3258 45.5876L70.2686 43.6963L70.598 46.327C70.598 46.327 71.0859 45.0116 72.3258 45.5876Z" fill="#263238" stroke="#263238" stroke-width="0.302489" stroke-linecap="round" stroke-linejoin="round"/>
<path d="M55.6338 52.6545L54.8918 52.5715C53.6953 51.4047 52.2253 50.5565 50.6164 50.1043C48.0687 49.4479 44.2031 50.3558 44.2031 50.3558C44.2031 50.3558 39.9277 47.9716 37.131 46.1633C34.3343 44.355 31.2937 42.7102 31.2937 42.7102C31.2937 42.7102 34.3343 36.4605 34.8298 33.1709C35.3252 29.8813 35.9791 27.7561 36.3916 27.0016C36.804 26.2471 37.214 25.4398 37.214 25.4398C37.214 25.4398 38.8588 26.0962 39.4322 25.5203C40.0056 24.9444 39.7617 22.8896 39.8447 22.2307C39.9277 21.5718 40.0962 19.766 40.0962 19.0241V17.9477C40.0962 17.9477 40.5992 17.0448 39.9327 17.2083C39.2662 17.3717 38.8638 17.9477 38.5344 18.4406C38.2049 18.9336 36.7261 22.2131 35.6547 23.951C34.5833 25.6888 31.3792 30.8596 29.3245 34.4762C27.2697 38.0927 25.8664 42.7102 25.1244 44.355C24.3825 45.9998 25.044 47.5617 25.3759 47.8081C25.7079 48.0546 29.6514 52.1666 33.024 54.2213C36.3966 56.2761 38.2879 57.7574 39.3568 58.1699C40.4256 58.5823 43.4688 60.8005 43.7957 61.9424C44.1227 63.0842 42.4804 69.178 43.7152 73.207C44.9501 77.236 45.277 80.0327 45.194 81.5945C45.1111 83.1563 43.9617 85.0475 43.9617 88.0077C43.9617 90.9678 45.4405 96.3071 45.6065 97.2176C45.7725 98.128 46.4289 101.493 46.4289 102.645C46.4289 103.797 46.0994 106.417 46.2629 106.757C46.4264 107.096 48.4837 107.333 49.1426 107.167C49.7283 106.978 50.3363 106.867 50.9509 106.837C51.6073 106.837 53.2521 107.089 54.2405 107.089C55.2288 107.089 56.1317 107.172 56.2122 106.837C56.2927 106.503 55.3898 106.098 55.0629 106.015C54.7359 105.932 52.6761 105.193 51.6903 104.043C50.7044 102.894 49.6355 101.823 49.389 101.164C49.1426 100.505 49.6405 92.4492 49.965 89.7355C50.2894 87.0218 50.7044 83.9787 50.8679 83.2393C51.0313 82.4999 51.7733 80.9355 52.1832 77.8924C52.5931 74.8493 53.2521 66.5448 53.3351 65.8884C53.465 65.1948 53.6329 64.5088 53.8381 63.8336C53.8381 63.8336 58.6895 62.9282 59.8413 62.9282C60.9932 62.9282 62.638 62.8452 63.4604 62.4252C64.2828 62.0052 64.4463 60.6974 63.5409 59.7116C62.6355 58.7257 59.7684 57.4078 58.7624 55.6876C58.2921 54.8158 57.7414 53.9898 57.1176 53.2204L55.6338 52.6545Z" fill="white" stroke="#263238" stroke-width="0.302489" stroke-linecap="round" stroke-linejoin="round"/>
<path d="M55.1685 52.6067L54.8918 52.5765C53.6953 51.4098 52.2253 50.5615 50.6164 50.1093C48.0687 49.4529 44.2031 50.3608 44.2031 50.3608C44.2031 50.3608 39.9277 47.9766 37.131 46.1683C34.3343 44.3601 31.2937 42.7153 31.2937 42.7153C31.2937 42.7153 34.3343 36.4655 34.8298 33.1759C34.9404 32.4214 35.0612 31.7524 35.1844 31.1287C34.2921 30.4463 33.3017 29.9028 32.2469 29.5166C31.2409 31.2016 30.1745 32.9772 29.3194 34.4837C27.2622 38.1028 25.8664 42.7077 25.1244 44.3525C24.3825 45.9973 25.044 47.5591 25.3759 47.8056C25.7079 48.0521 29.6514 52.1641 33.024 54.2188C36.3966 56.2736 38.2879 57.7549 39.3568 58.1673C40.4256 58.5798 43.4688 60.798 43.7957 61.9398C44.1227 63.0816 42.4804 69.1754 43.7152 73.2044C44.9501 77.2335 45.277 80.0301 45.194 81.5919C45.1111 83.1537 43.9617 85.045 43.9617 88.0052C43.9617 90.9653 45.4405 96.3046 45.6065 97.215C45.6291 97.3458 45.6644 97.5294 45.7046 97.7482C47.3871 98.0902 48.5742 97.8941 49.3941 97.5344C49.5173 94.8258 49.7688 91.34 49.965 89.738C50.2919 87.0243 50.7044 83.9812 50.8679 83.2418C51.0313 82.5024 51.7733 80.938 52.1832 77.8949C52.5931 74.8518 53.2521 66.5473 53.3351 65.8909C53.465 65.1973 53.6329 64.5113 53.8381 63.8361C53.8381 63.8361 54.5146 63.7079 55.4225 63.5519C53.1615 59.377 54.5096 54.4703 55.1685 52.6067Z" fill="#263238" stroke="#263238" stroke-width="0.302489" stroke-linecap="round" stroke-linejoin="round"/>
<path d="M70.6282 56.0995C71.8681 53.0262 71.3374 52.3472 71.3374 51.2607C71.3374 49.6159 71.4204 46.6557 71.4204 46.6557L71.3249 46.5099L71.0734 46.2961C71.0027 47.4805 70.7847 48.6514 70.4245 49.7819C69.8486 51.4242 68.4502 52.4126 66.2295 50.8507C64.0088 49.2889 65.5731 46.7387 65.5731 46.7387C65.5731 46.7387 66.4433 43.9723 66.4131 42.8279L65.5253 42.2168C65.5454 43.2605 65.4498 45.3178 64.5042 46.7438C63.1889 48.7155 61.7075 49.9504 60.1457 49.7039C59.5053 49.6055 58.8821 49.4167 58.2947 49.1431C58.257 49.3946 58.2167 49.6083 58.1715 49.7869C57.842 51.1022 57.3491 52.1711 56.6097 52.4176C56.2935 52.5443 55.962 52.6288 55.6238 52.6691C55.6238 52.6691 55.1208 57.5205 56.7731 60.1512C58.4255 62.7818 62.037 62.7014 63.0229 62.7014C64.0088 62.7014 66.2295 59.7412 66.2295 59.7412C66.2295 59.7412 68.5332 58.8358 69.4361 58.0134C69.9643 57.5331 70.3742 56.7157 70.6282 56.0995Z" fill="#92E3A9" stroke="#263238" stroke-width="0.302489" stroke-linecap="round" stroke-linejoin="round"/>
<path d="M59.0869 52.9893C59.0869 52.9893 59.1674 55.2905 61.4711 55.7834" stroke="#263238" stroke-width="0.302489" stroke-linecap="round" stroke-linejoin="round"/>
<path d="M92.7148 107.229H119.122" stroke="#263238" stroke-width="0.302489" stroke-linecap="round" stroke-linejoin="round"/>
<path d="M1.16895 107.229H89.948" stroke="#263238" stroke-width="0.302489" stroke-linecap="round" stroke-linejoin="round"/>
</svg>
