<svg width="40" height="40" viewBox="0 0 40 40" fill="none" xmlns="http://www.w3.org/2000/svg">
<path d="M20.0002 23.7501C18.5564 23.7513 17.1347 23.3948 15.8623 22.7122C14.5899 22.0297 13.5065 21.0425 12.709 19.8388L14.7915 18.4551C15.3616 19.3147 16.1356 20.0199 17.0444 20.5078C17.9533 20.9956 18.9687 21.2509 20.0002 21.2509C21.0317 21.2509 22.0472 20.9956 22.9561 20.5078C23.8649 20.0199 24.6389 19.3147 25.209 18.4551L27.2915 19.8388C26.4939 21.0425 25.4105 22.0297 24.1382 22.7122C22.8658 23.3948 21.4441 23.7513 20.0002 23.7501Z" fill="#999999"/>
<path d="M25 10C24.5055 10 24.0222 10.1466 23.6111 10.4213C23.2 10.696 22.8795 11.0865 22.6903 11.5433C22.5011 12.0001 22.4516 12.5028 22.548 12.9877C22.6445 13.4727 22.8826 13.9181 23.2322 14.2678C23.5819 14.6174 24.0273 14.8555 24.5123 14.952C24.9972 15.0484 25.4999 14.9989 25.9567 14.8097C26.4135 14.6205 26.804 14.3001 27.0787 13.8889C27.3534 13.4778 27.5 12.9945 27.5 12.5C27.5033 12.1708 27.441 11.8442 27.3165 11.5394C27.1921 11.2345 27.008 10.9576 26.7752 10.7248C26.5424 10.492 26.2655 10.308 25.9606 10.1835C25.6558 10.059 25.3292 9.99666 25 10Z" fill="#999999"/>
<path d="M15 10C14.5055 10 14.0222 10.1466 13.6111 10.4213C13.2 10.696 12.8795 11.0865 12.6903 11.5433C12.5011 12.0001 12.4516 12.5028 12.548 12.9877C12.6445 13.4727 12.8826 13.9181 13.2322 14.2678C13.5819 14.6174 14.0273 14.8555 14.5123 14.952C14.9972 15.0484 15.4999 14.9989 15.9567 14.8097C16.4135 14.6205 16.804 14.3001 17.0787 13.8889C17.3534 13.4778 17.5 12.9945 17.5 12.5C17.5033 12.1708 17.441 11.8442 17.3165 11.5394C17.1921 11.2345 17.008 10.9576 16.7752 10.7248C16.5424 10.492 16.2655 10.308 15.9607 10.1835C15.6558 10.059 15.3292 9.99666 15 10Z" fill="#999999"/>
<path d="M22.36 34.5L20.5 33.4286L24.7857 25.9286H31.2143C31.4958 25.929 31.7746 25.8739 32.0348 25.7663C32.295 25.6588 32.5314 25.501 32.7305 25.3019C32.9295 25.1028 33.0874 24.8664 33.1949 24.6063C33.3024 24.3461 33.3576 24.0672 33.3571 23.7857V8.78571C33.3576 8.50419 33.3024 8.22535 33.1949 7.96518C33.0874 7.705 32.9295 7.46861 32.7305 7.26954C32.5314 7.07048 32.295 6.91265 32.0348 6.80511C31.7746 6.69757 31.4958 6.64243 31.2143 6.64286H9.78571C9.50419 6.64243 9.22535 6.69757 8.96518 6.80511C8.705 6.91265 8.46861 7.07048 8.26954 7.26954C8.07048 7.46861 7.91265 7.705 7.80511 7.96518C7.69757 8.22535 7.64243 8.50419 7.64286 8.78571V23.7857C7.64243 24.0672 7.69757 24.3461 7.80511 24.6063C7.91265 24.8664 8.07048 25.1028 8.26954 25.3019C8.46861 25.501 8.705 25.6588 8.96518 25.7663C9.22535 25.8739 9.50419 25.929 9.78571 25.9286H19.4286V28.0714H9.78571C8.64907 28.0714 7.55898 27.6199 6.75526 26.8162C5.95153 26.0124 5.5 24.9224 5.5 23.7857V8.78571C5.49986 8.22287 5.61062 7.66551 5.82594 7.14548C6.04127 6.62545 6.35695 6.15294 6.75494 5.75494C7.15294 5.35695 7.62545 5.04127 8.14548 4.82594C8.66551 4.61062 9.22287 4.49986 9.78571 4.5H31.2143C31.7771 4.49986 32.3345 4.61062 32.8545 4.82594C33.3746 5.04127 33.8471 5.35695 34.2451 5.75494C34.643 6.15294 34.9587 6.62545 35.1741 7.14548C35.3894 7.66551 35.5001 8.22287 35.5 8.78571V23.7857C35.5 24.9224 35.0485 26.0124 34.2447 26.8162C33.441 27.6199 32.3509 28.0714 31.2143 28.0714H26.0339L22.36 34.5Z" fill="#999999"/>
</svg>
