<svg width="50" height="50" viewBox="0 0 50 50" fill="none" xmlns="http://www.w3.org/2000/svg">
<path d="M34.1602 33.9063C33.4648 33.1563 32.5547 32.1797 31.7578 31.3359C30.2109 29.707 28.3203 28.4883 28.3203 28.4883L25.1758 31.8633C25.1758 31.8633 26.3984 34.1133 27.957 35.4531C28.7188 36.1094 29.6719 36.7773 30.4492 37.293C30.332 37.6797 30.2148 38.1836 30.1641 38.7852C30.0156 40.6523 30.3047 43.1133 30.3164 43.3867C30.3633 44.8164 30.3789 45.875 30.3789 45.875L32.8555 45.8672L34.918 36.7187C35.1445 35.7148 34.8633 34.6602 34.1602 33.9063Z" fill="url(#paint0_linear_1021_1814)"/>
<path d="M21.6757 28.4883C21.6757 28.4883 19.785 29.707 18.2421 31.3398C17.4452 32.1836 16.535 33.1602 15.8397 33.9102C15.494 34.2819 15.2443 34.7324 15.1123 35.2225C14.9802 35.7126 14.9698 36.2276 15.0819 36.7227L17.1444 45.8711L19.621 45.8789C19.621 45.8789 19.6366 44.8203 19.6835 43.3906C19.6913 43.1172 19.9843 40.6563 19.8358 38.7891C19.789 38.1875 19.6679 37.6836 19.5507 37.2969C20.328 36.7813 21.2811 36.1133 22.0429 35.457C23.6015 34.1172 24.8241 31.8672 24.8241 31.8672L21.6757 28.4883Z" fill="url(#paint1_linear_1021_1814)"/>
<path d="M16.5195 43.3867L17.1484 45.8672L19.625 45.875L19.6797 43.3867H16.5195Z" fill="#E0E0E0"/>
<path d="M20.4766 46.8516C20.4727 46.1016 19.8281 45.25 19.8281 45.25H16.8008L14.4648 46.0742C14.1704 46.1899 13.9177 46.3915 13.7393 46.6527C13.561 46.9139 13.4653 47.2228 13.4648 47.5391V48.0391C13.4648 48.2578 13.6406 48.4375 13.8594 48.4375L20.0273 48.418C20.2773 48.418 20.4805 48.2149 20.4805 47.9609L20.4766 46.8516Z" fill="#4568AD"/>
<path d="M30.3164 43.3867L30.3828 45.875L32.8555 45.8672L33.4805 43.3867H30.3164Z" fill="#E0E0E0"/>
<path d="M35.5352 46.0742L33.2031 45.25H30.1758C30.1758 45.25 29.5273 46.1016 29.5273 46.8555L29.5234 47.9649C29.5234 48.2149 29.7266 48.418 29.9766 48.4219L36.1406 48.4375C36.3594 48.4375 36.5352 48.2617 36.5352 48.0391V47.5391C36.5352 46.8906 36.1367 46.3125 35.5352 46.0742Z" fill="#4568AD"/>
<path d="M29.2419 16.0586C29.0896 15.7852 29.2849 15.5039 29.6091 15.1602C30.1287 14.6133 30.6951 13.3398 30.1716 12.0469C30.1755 12.0391 30.0701 11.8203 30.0701 11.8164L29.8513 11.8047C29.781 11.793 27.4021 11.7891 25.0232 11.7891C22.6443 11.7891 20.2654 11.793 20.1951 11.8047C20.1951 11.8047 19.8747 12.0391 19.8787 12.0469C19.3513 13.3398 19.9177 14.6094 20.4412 15.1602C20.7693 15.5039 20.9607 15.7852 20.8083 16.0586C20.6638 16.3242 20.2263 16.3633 20.2263 16.3633C20.2263 16.3633 20.3279 16.6367 20.5701 16.7852C20.7927 16.9219 21.0701 16.9531 21.2576 16.957C21.2576 16.957 21.9998 17.9844 23.9412 17.9844H26.1052C28.0466 17.9844 28.7888 16.957 28.7888 16.957C28.9802 16.9531 29.2537 16.9219 29.4763 16.7852C29.7185 16.6367 29.8201 16.3633 29.8201 16.3633C29.8201 16.3633 29.3865 16.3281 29.2419 16.0586Z" fill="#232020"/>
<path d="M25.0234 17.9844V16.8438L28.4766 16.5703L28.7891 16.957C28.7891 16.957 28.0469 17.9844 26.1055 17.9844H25.0234Z" fill="url(#paint2_radial_1021_1814)"/>
<path d="M28.7809 16.4609C28.2653 15.6758 29.4098 15.3828 29.4098 15.3828C29.2106 15.6289 29.1208 15.8477 29.238 16.0586C29.3825 16.3242 29.82 16.3633 29.82 16.3633C29.82 16.3633 29.2263 16.8906 28.7809 16.4609Z" fill="url(#paint3_radial_1021_1814)"/>
<path d="M30.1723 12.0509C30.684 13.3009 30.145 14.5899 29.6411 15.1329C29.5707 15.2071 29.2778 15.4962 29.2114 15.7266C29.2114 15.7266 28.059 14.1173 27.7153 13.1759C27.645 12.9845 27.5825 12.7891 27.5746 12.586C27.5668 12.4337 27.5903 12.254 27.6801 12.1251C27.7895 11.9649 30.1176 11.922 30.1176 11.922C30.1137 11.9181 30.1723 12.0509 30.1723 12.0509Z" fill="url(#paint4_radial_1021_1814)"/>
<path d="M19.8785 12.0508C19.3668 13.3008 19.9058 14.5898 20.4097 15.1328C20.48 15.207 20.773 15.4961 20.8394 15.7266C20.8394 15.7266 21.9918 14.1172 22.3355 13.1758C22.4058 12.9844 22.4683 12.7891 22.4761 12.5859C22.484 12.4336 22.4605 12.2539 22.3707 12.125C22.2613 11.9648 22.1363 12.0078 21.9566 12.0078C21.609 12.0078 20.0855 11.918 19.9683 11.918C19.9722 11.918 19.8785 12.0508 19.8785 12.0508Z" fill="url(#paint5_radial_1021_1814)"/>
<path d="M25.0273 17.9844V16.8438L21.5742 16.5703L21.2617 16.957C21.2617 16.957 22.0039 17.9844 23.9453 17.9844H25.0273Z" fill="url(#paint6_radial_1021_1814)"/>
<path d="M21.2734 16.4609C21.793 15.6758 20.6445 15.3828 20.6445 15.3828C20.8437 15.6289 20.9336 15.8477 20.8164 16.0586C20.6719 16.3242 20.2344 16.3633 20.2344 16.3633C20.2344 16.3633 20.8242 16.8906 21.2734 16.4609Z" fill="url(#paint7_radial_1021_1814)"/>
<path d="M37.6016 9.03125L35.8281 8.13672C34.4102 9.52734 33.7383 10.7187 33.1055 12.793C31.7656 13.4297 30.6094 14.5977 29.8594 15.8047C29.0625 16.9023 28.5625 17.5117 27.9883 18.6016C27.5547 19.4297 27.8672 20.3516 28.6524 20.9258C29.0234 21.1992 29.3242 21.3164 29.6172 21.3164C29.9453 21.3164 30.2578 21.1641 30.6406 20.9062C31.4492 20.4453 32.5469 19.2266 33.25 18.3203L33.2305 18.3086C34.125 17.1953 35.0274 15.625 35.4766 14.1406C36.7344 12.8281 37.6016 11.1055 37.6016 9.03125Z" fill="url(#paint8_linear_1021_1814)"/>
<path d="M22.0117 18.6055C21.4375 17.5156 20.9375 16.9063 20.1406 15.8086C19.3906 14.6016 18.2344 13.4336 16.8945 12.7969C16.2578 10.7148 15.5859 9.52734 14.168 8.13672L12.3984 9.03516C12.3984 11.1094 13.2656 12.8281 14.5234 14.1445C14.9727 15.625 15.8711 17.1992 16.7695 18.3125L16.75 18.3242C17.4531 19.2305 18.5508 20.4492 19.3594 20.9102C19.7422 21.168 20.0547 21.3203 20.3828 21.3203C20.6758 21.3203 20.9766 21.1992 21.3477 20.9297C22.1289 20.3555 22.4453 19.4297 22.0117 18.6055Z" fill="url(#paint9_linear_1021_1814)"/>
<path d="M29.8594 15.8047C29.1602 16.7656 28.6914 17.3555 28.1992 18.2187C27.7188 18.0937 27.1758 18.0234 26.5742 18.0234H23.3828C22.793 18.0234 22.2656 18.0938 21.7969 18.2148C21.3047 17.3516 20.8359 16.7617 20.1367 15.8008L16.75 18.3203C17.4531 19.2266 18.9688 20.9062 18.9688 20.9062C19.293 22.4922 21.1602 28.7969 21.1602 28.7969H29.0781L31.0977 20.875C31.0977 20.875 32.5625 19.2031 33.25 18.3242L29.8594 15.8047Z" fill="url(#paint10_linear_1021_1814)"/>
<path d="M23.6445 18.2969C23.6445 18.9453 24.1953 19.4727 24.875 19.4727H25.1211C25.8008 19.4727 26.3516 18.9453 26.3516 18.2969V16.8633H23.6445V18.2969Z" fill="#3C2B24"/>
<path d="M21.6953 15.0781C21.0898 15.0781 20.5938 14.5469 20.5938 13.8945C20.5938 13.2422 21.0859 12.7109 21.6953 12.7109H28.3047C28.9102 12.7109 29.4062 13.2422 29.4062 13.8945C29.4062 14.5469 28.9141 15.0781 28.3047 15.0781H21.6953Z" fill="#3C2B24"/>
<path d="M25 7.79297C22.9062 7.79297 20.9688 10.0312 20.9688 13.25C20.9688 16.4531 22.9648 18.0352 25 18.0352C27.0352 18.0352 29.0312 16.4531 29.0312 13.25C29.0312 10.0312 27.0938 7.79297 25 7.79297Z" fill="#70534A"/>
<path d="M25.4649 14.6445L25.4258 14.6328H24.5703C24.5586 14.6328 24.543 14.6367 24.5313 14.6445C24.4531 14.6758 24.4102 14.7578 24.4492 14.8438C24.4844 14.9297 24.6563 15.168 25 15.168C25.3438 15.168 25.5117 14.9297 25.5508 14.8438C25.5589 14.8251 25.5632 14.805 25.5632 14.7846C25.5633 14.7643 25.5591 14.7442 25.5511 14.7255C25.543 14.7068 25.5312 14.69 25.5164 14.676C25.5015 14.6621 25.484 14.6514 25.4649 14.6445Z" fill="#33251F"/>
<path d="M26.0159 15.6128C25.6292 15.8433 24.3674 15.8433 23.9846 15.6128C23.762 15.48 23.5354 15.6831 23.6292 15.8823C23.719 16.0816 24.4104 16.5386 25.0042 16.5386C25.5979 16.5386 26.2815 16.0816 26.3713 15.8823C26.4612 15.6831 26.2385 15.48 26.0159 15.6128Z" fill="#1A1717"/>
<path d="M23.0391 14.1328C23.3627 14.1328 23.625 13.86 23.625 13.5234C23.625 13.1869 23.3627 12.9141 23.0391 12.9141C22.7155 12.9141 22.4531 13.1869 22.4531 13.5234C22.4531 13.86 22.7155 14.1328 23.0391 14.1328Z" fill="#1A1717"/>
<path d="M26.9609 14.1328C27.2845 14.1328 27.5469 13.86 27.5469 13.5234C27.5469 13.1869 27.2845 12.9141 26.9609 12.9141C26.6373 12.9141 26.375 13.1869 26.375 13.5234C26.375 13.86 26.6373 14.1328 26.9609 14.1328Z" fill="#1A1717"/>
<path d="M23.9098 12.4297C23.7965 12.2813 23.5387 12.0664 23.0387 12.0664C22.5348 12.0664 22.277 12.2813 22.1676 12.4297C22.1169 12.4961 22.1325 12.5703 22.1637 12.6172C22.195 12.6602 22.2887 12.6992 22.3942 12.6641C22.4997 12.6289 22.6989 12.5234 23.0387 12.5195C23.3786 12.5234 23.5817 12.625 23.6833 12.6641C23.7887 12.6992 23.8825 12.6602 23.9137 12.6172C23.9341 12.59 23.9448 12.5567 23.944 12.5228C23.9433 12.4888 23.9313 12.456 23.9098 12.4297Z" fill="#1A1717"/>
<path d="M27.8317 12.4297C27.7184 12.2812 27.4606 12.0664 26.9606 12.0664C26.4567 12.0664 26.1989 12.2812 26.0895 12.4297C26.0387 12.4961 26.0544 12.5703 26.0856 12.6172C26.1169 12.6602 26.2106 12.6992 26.3161 12.6641C26.4215 12.6289 26.6208 12.5234 26.9606 12.5195C27.3004 12.5234 27.5036 12.625 27.6051 12.6641C27.7106 12.6992 27.8044 12.6602 27.8356 12.6172C27.856 12.59 27.8666 12.5567 27.8659 12.5228C27.8652 12.4888 27.8532 12.456 27.8317 12.4297Z" fill="#1A1717"/>
<path d="M29.8674 9.44965C29.5744 9.00434 28.9104 8.40668 28.3205 8.36762C28.2268 7.79731 27.6135 7.31293 27.0236 7.12934C25.426 6.62153 24.3869 7.19184 23.8244 7.49653C23.7072 7.55903 22.9572 7.97699 22.4338 7.67621C22.1057 7.48871 22.1096 6.98481 22.1096 6.98481C22.1096 6.98481 21.0783 7.37543 21.4299 8.46918C21.0783 8.48481 20.6135 8.63325 20.3674 9.12934C20.0744 9.71918 20.1799 10.2153 20.2619 10.4536C19.9572 10.7114 19.5744 11.2622 19.8361 11.977C20.0354 12.5161 20.8244 12.7622 20.8244 12.7622C20.7697 13.7309 20.9494 14.3247 21.0432 14.5668C21.0588 14.6098 21.1213 14.6059 21.1291 14.5629C21.2502 14.0825 21.6564 12.4145 21.6174 12.1215C21.6174 12.1215 22.9885 11.8481 24.2932 10.8872C24.5588 10.6918 24.8479 10.5239 25.1525 10.4028C26.7932 9.75043 27.1369 10.8637 27.1369 10.8637C27.1369 10.8637 28.2736 10.645 28.6174 12.227C28.7463 12.8207 28.8361 13.7661 28.9064 14.4301C28.9104 14.477 28.9768 14.4887 28.9924 14.4418C29.1057 14.1801 29.3361 13.6567 29.3908 13.1254C29.4104 12.9379 29.9143 12.6918 30.133 11.8872C30.4377 10.8012 30.0783 9.76996 29.8674 9.44965Z" fill="#232020"/>
<path d="M29.4023 13.1172C29.4219 12.9297 29.9258 12.6836 30.1445 11.8789C30.168 11.793 30.1875 11.707 30.2031 11.6172C30.3789 10.6406 30.0625 9.74219 29.8672 9.44531C29.5937 9.03125 29.0078 8.49219 28.4531 8.37891C28.4062 8.37109 28.3594 8.36719 28.3125 8.36328C28.3125 8.36328 28.3516 8.62109 28.2461 8.82813C28.1094 9.09766 27.8359 9.16016 27.8359 9.16016C29.2813 10.6133 29.1797 11.8242 29.4023 13.1172Z" fill="url(#paint11_radial_1021_1814)"/>
<path d="M24.1756 7.30859C24.0428 7.37109 23.9256 7.4375 23.8241 7.49219C23.7069 7.55469 22.9569 7.97266 22.4335 7.67187C22.1092 7.48828 22.1092 6.99609 22.1092 6.98047C21.9608 7.17188 21.5116 8.52344 22.8241 8.61328C23.3905 8.65234 23.742 8.15625 23.9491 7.73828C24.0233 7.58984 24.1444 7.36719 24.1756 7.30859Z" fill="url(#paint12_radial_1021_1814)"/>
<path d="M26.8555 7.07463C27.7384 7.31292 28.1719 7.76213 28.3165 8.3637C28.3594 8.53948 28.4102 10.184 25.2696 8.31682C24.1016 7.62151 24.4219 7.18401 24.5587 7.13713C25.0899 6.94573 25.8673 6.80901 26.8555 7.07463Z" fill="url(#paint13_radial_1021_1814)"/>
<path d="M22.1059 6.98025C22.102 6.98025 22.102 6.98025 22.0981 6.98416C21.9848 7.03103 21.102 7.44119 21.4301 8.46463L22.3715 8.61697C21.5434 7.77322 22.1098 6.97635 22.1059 6.98025C22.1098 6.98025 22.1098 6.97635 22.1059 6.98025Z" fill="url(#paint14_radial_1021_1814)"/>
<path d="M22.0154 8.55859L21.4334 8.46484C21.4099 8.46484 21.3318 8.47266 21.2928 8.47656C20.9646 8.52344 20.5818 8.69141 20.3709 9.125C20.1482 9.58984 20.1521 9.99219 20.2146 10.2578C20.2303 10.3477 20.2693 10.4492 20.2693 10.4492C20.2693 10.4492 20.5584 10.1758 21.242 10.1602L22.0154 8.55859Z" fill="url(#paint15_radial_1021_1814)"/>
<path d="M20.2387 10.4727C19.9535 10.7266 19.5668 11.293 19.8519 11.9961C20.0668 12.5273 20.8285 12.7578 20.8285 12.7578C20.8285 12.7617 20.9808 12.8047 21.059 12.8047L21.2387 10.1562C20.8715 10.1562 20.5199 10.2656 20.2933 10.4219C20.2973 10.4297 20.2387 10.4687 20.2387 10.4727Z" fill="url(#paint16_radial_1021_1814)"/>
<path d="M15.7266 6.70313C15.375 6.49609 13.707 6.23438 12.5547 6.23438C11.9219 6.23438 11.4492 6.31641 11.4492 6.53125L11.4453 7.87109C11.4414 9.21875 12.3203 10.3203 13.7734 10.3242H13.7774C16.4102 10.3242 16.6172 7.22266 15.7266 6.70313Z" fill="url(#paint17_radial_1021_1814)"/>
<path d="M15.6327 8.13248C15.617 8.18326 15.4803 8.23404 15.3319 8.2731H15.328C15.1561 8.31607 14.953 8.40201 14.5741 8.50748C14.0467 8.65592 14.0037 9.36295 14.0037 9.36295C13.9061 8.99576 14.1561 8.35123 14.5037 8.20279V8.19888C14.6678 8.12076 14.8514 8.07779 15.0467 8.04654C15.078 8.04263 15.1561 8.03873 15.2537 8.04263H15.2577C15.4334 8.04654 15.6522 8.06998 15.6327 8.13248Z" fill="#4A2F27"/>
<path d="M48.4375 7.22656C48.4375 7.76562 48.1523 8.20312 47.7969 8.20312H2.20312C1.85156 8.20312 1.5625 7.76562 1.5625 7.22656C1.5625 6.6875 1.85156 6.25 2.20312 6.25H47.793C48.1484 6.25 48.4375 6.6875 48.4375 7.22656Z" fill="url(#paint18_linear_1021_1814)"/>
<path d="M8.17188 12.8867C9.46484 12.8867 10.5156 11.8359 10.5156 10.543V3.96094C10.5156 2.66797 9.46484 1.61719 8.17188 1.61719C6.87891 1.61719 5.82812 2.66797 5.82812 3.96094V10.543C5.82812 11.8359 6.875 12.8867 8.17188 12.8867Z" fill="url(#paint19_radial_1021_1814)"/>
<path d="M41.8281 12.8867C40.5352 12.8867 39.4844 11.8359 39.4844 10.543V3.96094C39.4844 2.66797 40.5352 1.61719 41.8281 1.61719C43.1211 1.61719 44.1719 2.66797 44.1719 3.96094V10.543C44.1719 11.8359 43.125 12.8867 41.8281 12.8867Z" fill="url(#paint20_radial_1021_1814)"/>
<path d="M3.90625 10.6328C4.76953 10.6328 5.46875 9.93359 5.46875 9.07031V5.43359C5.46875 4.57031 4.76953 3.87109 3.90625 3.87109C3.04297 3.87109 2.34375 4.57031 2.34375 5.43359V9.07031C2.34375 9.93359 3.04297 10.6328 3.90625 10.6328Z" fill="url(#paint21_radial_1021_1814)"/>
<path d="M46.0938 10.6328C45.2305 10.6328 44.5312 9.93359 44.5312 9.07031V5.43359C44.5312 4.57031 45.2305 3.87109 46.0938 3.87109C46.957 3.87109 47.6562 4.57031 47.6562 5.43359V9.07031C47.6562 9.93359 46.957 10.6328 46.0938 10.6328Z" fill="url(#paint22_radial_1021_1814)"/>
<path d="M15.082 8.20312H11.4375L11.125 6.25H15.082V8.20312Z" fill="#646464"/>
<path d="M16.1012 5.87542L15.988 6.48089L15.9645 6.6137L15.9098 6.90667L15.8786 7.07855C15.8425 7.26873 15.7328 7.43698 15.5733 7.54671C15.4139 7.65643 15.2175 7.69876 15.027 7.66448C14.8473 7.63323 14.695 7.53948 14.5895 7.39886C14.4606 7.51604 14.2926 7.58245 14.109 7.58245C13.9997 7.58245 13.6559 7.43011 13.5973 7.37151C13.581 7.35643 13.5665 7.33937 13.5544 7.32073C13.5387 7.33245 13.5231 7.34808 13.5075 7.35979C13.4997 7.3637 13.277 7.49651 13.0505 7.49261C12.8395 7.4887 12.6286 7.35979 12.5661 7.29729C12.5036 7.38714 12.4176 7.46526 12.3161 7.51995C12.2458 7.56292 12.1676 7.59026 12.0817 7.60198C12.0426 7.60979 12.0036 7.6137 11.9645 7.6137C11.8083 7.6137 11.6559 7.56292 11.5309 7.46917C11.3669 7.35198 11.2614 7.18011 11.234 6.98479L11.1833 6.65276V6.64886L11.1169 6.22308C11.0856 6.02776 11.1325 5.83245 11.2497 5.67229C11.3669 5.50823 11.5387 5.40276 11.734 5.37542C11.7809 5.36761 11.8278 5.3637 11.8747 5.36761C11.8864 5.36761 11.902 5.36761 11.9137 5.37151C12.0387 5.37933 12.1637 5.42229 12.2731 5.50042C12.2887 5.51214 12.3005 5.52386 12.3122 5.53167C12.3356 5.44183 12.3825 5.35589 12.4411 5.28558C12.4567 5.26214 12.4723 5.24261 12.4919 5.22308C12.5153 5.19573 12.5348 5.18401 12.5426 5.1762C12.5465 5.1762 12.5465 5.17229 12.5465 5.17229C12.6637 5.07073 12.8161 5.00823 12.984 5.00042C13.0387 4.99651 13.0934 5.00042 13.1442 5.00823C13.1833 5.01604 13.2184 5.02776 13.2536 5.03948C13.3551 5.07073 13.445 5.12151 13.5231 5.19183C13.5465 5.16058 13.5739 5.12933 13.6012 5.10198C13.6403 5.06292 13.6833 5.02776 13.7262 5.00042C13.7497 4.98479 13.777 4.97308 13.8005 4.95745C13.8981 4.91058 14.0075 4.88714 14.1208 4.89104C14.2458 4.89104 14.3669 4.92229 14.4762 4.98479C14.4958 4.99261 14.5114 5.00433 14.527 5.01604C14.5661 5.04339 14.6012 5.07464 14.6364 5.10979C14.6989 5.17229 14.7497 5.24651 14.7848 5.32464C14.8317 5.25433 14.8942 5.18792 14.9684 5.13714C14.984 5.12542 15.0036 5.1137 15.0231 5.10589C15.1012 5.06292 15.1833 5.03167 15.2692 5.01995C15.3512 5.00823 15.4333 5.00823 15.5153 5.02386C15.7106 5.05901 15.8747 5.16839 15.988 5.32854C16.0973 5.49261 16.1364 5.68401 16.1012 5.87542Z" fill="url(#paint23_linear_1021_1814)"/>
<path d="M29.4727 28.9531L29.1992 28.1875H21.0078L20.8594 28.9687L17.3438 32.0586L21.2656 36.1328C21.2656 36.1328 23.918 33.918 24.1562 33.707C24.418 33.4727 24.7344 33.4453 24.9258 33.4414C25.1172 33.4453 25.4336 33.4727 25.6953 33.707C25.9336 33.9219 28.5859 36.1328 28.5859 36.1328L32.6562 32.0586L29.4727 28.9531Z" fill="#7C7C7C"/>
<path d="M16.0273 6.29688C15.8906 6.64844 15.1484 6.3125 14.8672 6.16797C14.8242 5.82422 14.7812 5.59766 14.7812 5.59766V5.60156C14.793 5.79687 14.5977 5.9375 14.4141 5.86719C14.207 5.78516 13.9687 5.71875 13.7969 5.72656C13.7305 5.73047 13.6758 5.74219 13.625 5.75781C13.5781 5.60547 13.5508 5.50391 13.5508 5.50391V5.54687C13.543 5.67969 13.4805 5.80469 13.3711 5.87891C12.9453 6.15625 12.8359 6.67969 13.3398 7.23828C13.168 7.35547 12.8984 7.34766 12.7461 7.19141C12.5508 6.99609 12.4687 6.375 12.3555 5.91406C12.3906 6.24219 12.4883 6.82812 12.4414 7.05469C12.3828 7.32812 12.1094 7.5 11.8359 7.43359C11.5977 7.375 11.3164 7.18359 11.1797 6.65625L11.2305 6.98828C11.2578 7.18359 11.3633 7.35547 11.5273 7.47266C11.6523 7.56641 11.8047 7.61719 11.9609 7.61719C12 7.61719 12.0391 7.61328 12.0781 7.60547C12.1523 7.59375 12.2187 7.57031 12.2812 7.53906C12.2852 7.53516 12.293 7.53516 12.2969 7.53125C12.3008 7.52734 12.3086 7.52734 12.3125 7.52344C12.4766 7.43359 12.5586 7.30859 12.5625 7.30078C12.582 7.33203 12.7852 7.5 13.0312 7.5C13.3711 7.5 13.5039 7.36328 13.5039 7.36328C13.5352 7.38281 13.5664 7.39844 13.5977 7.41016C13.6211 7.41797 14.5352 7.72656 14.5 8.07422C14.4961 8.11719 14.5 8.16016 14.5039 8.20312V8.22266C14.5156 8.32422 14.5391 8.42188 14.5742 8.51172L14.5781 8.50781C14.6719 8.43359 14.8984 8.49609 14.918 8.36328C14.9922 7.85937 14.9727 7.25781 14.9258 6.74219L15.9102 6.90625L16.0273 6.29688Z" fill="#4A2F27"/>
<path d="M16.2146 7.57078C16.0232 6.52 14.7536 6.0825 14.2771 5.91453C14.2185 5.895 13.3474 5.68797 13.2419 6.46141C13.195 6.79735 13.449 7.16453 13.7732 7.28953C14.6599 7.62938 14.656 7.81688 14.656 7.94188C14.6521 8.2661 14.8318 8.87938 15.113 9.06297C15.1716 9.10203 15.238 9.12547 15.3005 9.12547C15.3396 9.12547 15.3786 9.11766 15.4177 9.10203C15.9685 8.87156 16.324 8.18406 16.2146 7.57078Z" fill="url(#paint24_linear_1021_1814)"/>
<path d="M34.3201 6.70313C34.6717 6.49609 36.3397 6.23438 37.492 6.23438C38.1248 6.23438 38.5975 6.31641 38.5975 6.53125L38.6014 7.87109C38.6053 9.21875 37.7264 10.3203 36.2732 10.3242H36.2693C33.6365 10.3242 33.4256 7.22266 34.3201 6.70313Z" fill="url(#paint25_radial_1021_1814)"/>
<path d="M34.4143 8.13248C34.4299 8.18326 34.5667 8.23404 34.7151 8.2731H34.719C34.8909 8.31607 35.094 8.40201 35.4729 8.50748C36.0002 8.65592 36.0432 9.36295 36.0432 9.36295C36.1409 8.99576 35.8909 8.35123 35.5432 8.20279V8.19888C35.3792 8.12076 35.1956 8.07779 35.0002 8.04654C34.969 8.04263 34.8909 8.03873 34.7932 8.04263H34.7893C34.6135 8.04654 34.3948 8.06998 34.4143 8.13248Z" fill="#4A2F27"/>
<path d="M34.9648 6.25H38.9219L38.6094 8.20312H34.9648V6.25Z" fill="#646464"/>
<path d="M33.9452 5.87542L34.0584 6.48089L34.0819 6.6137L34.1366 6.90667L34.1678 7.07855C34.2039 7.26873 34.3136 7.43698 34.4731 7.54671C34.6325 7.65643 34.8289 7.69876 35.0194 7.66448C35.1991 7.63323 35.3514 7.53948 35.4569 7.39886C35.5858 7.51604 35.7538 7.58245 35.9373 7.58245C36.0467 7.58245 36.3905 7.43011 36.4491 7.37151C36.4647 7.35589 36.4803 7.34026 36.492 7.32073C36.5077 7.33245 36.5233 7.34808 36.5389 7.35979C36.5467 7.3637 36.7694 7.49651 36.9959 7.49261C37.2069 7.4887 37.4139 7.35979 37.4803 7.29729C37.5428 7.38714 37.6288 7.46526 37.7303 7.51995C37.8006 7.56292 37.8788 7.59026 37.9647 7.60198C38.0038 7.60979 38.0428 7.6137 38.0819 7.6137C38.2381 7.6137 38.3905 7.56292 38.5155 7.46917C38.6795 7.35198 38.785 7.18011 38.8123 6.98479L38.8631 6.65276V6.64886L38.9295 6.22308C38.9608 6.02776 38.9139 5.83245 38.7967 5.67229C38.6795 5.50823 38.5077 5.40276 38.3123 5.37542C38.2655 5.36761 38.2186 5.3637 38.1717 5.36761C38.16 5.36761 38.1444 5.36761 38.1327 5.37151C38.0077 5.37933 37.8827 5.42229 37.7733 5.50042C37.7577 5.51214 37.7459 5.52386 37.7342 5.53167C37.7108 5.44183 37.6639 5.35589 37.6053 5.28558C37.5906 5.26307 37.5735 5.24212 37.5545 5.22308C37.5311 5.19573 37.5116 5.18401 37.5038 5.1762C37.4998 5.1762 37.4998 5.17229 37.4998 5.17229C37.3827 5.07073 37.2303 5.00823 37.0623 5.00042C37.0077 4.99651 36.953 5.00042 36.9022 5.00823C36.8631 5.01604 36.828 5.02776 36.7928 5.03948C36.6913 5.07073 36.6014 5.12151 36.5233 5.19183C36.4998 5.16058 36.4725 5.12933 36.4452 5.10198C36.4061 5.06292 36.3631 5.02776 36.3202 5.00042C36.2967 4.98479 36.2694 4.97308 36.2459 4.95745C36.1483 4.91058 36.0389 4.88714 35.9256 4.89104C35.8006 4.89104 35.6795 4.92229 35.5702 4.98479C35.5506 4.99261 35.535 5.00433 35.5194 5.01604C35.4803 5.04339 35.4452 5.07464 35.41 5.10979C35.3475 5.17229 35.2967 5.24651 35.2616 5.32464C35.2147 5.25433 35.1522 5.18792 35.078 5.13714C35.0611 5.12445 35.0428 5.11395 35.0233 5.10589C34.9452 5.06292 34.8631 5.03167 34.7772 5.01995C34.6952 5.00823 34.6131 5.00823 34.5311 5.02386C34.3358 5.05901 34.1717 5.16839 34.0584 5.32854C33.9491 5.49261 33.91 5.68401 33.9452 5.87542Z" fill="url(#paint26_linear_1021_1814)"/>
<path d="M34.0195 6.29688C34.1562 6.64844 34.8984 6.3125 35.1797 6.16797C35.2227 5.82422 35.2656 5.59766 35.2656 5.59766V5.60156C35.2539 5.79687 35.4492 5.9375 35.6328 5.86719C35.8398 5.78516 36.0781 5.71875 36.25 5.72656C36.3164 5.73047 36.3711 5.74219 36.4219 5.75781C36.4687 5.60547 36.4961 5.50391 36.4961 5.50391V5.54687C36.5039 5.67969 36.5664 5.80469 36.6758 5.87891C37.1016 6.15625 37.2109 6.67969 36.707 7.23828C36.8789 7.35547 37.1484 7.34766 37.3008 7.19141C37.4961 6.99609 37.5781 6.375 37.6914 5.91406C37.6562 6.24219 37.5586 6.82812 37.6055 7.05469C37.6602 7.32812 37.9375 7.5 38.2109 7.43359C38.4492 7.375 38.7305 7.18359 38.8672 6.65625L38.8164 6.98828C38.7891 7.18359 38.6836 7.35547 38.5195 7.47266C38.3945 7.56641 38.2422 7.61719 38.0859 7.61719C38.0469 7.61719 38.0078 7.61328 37.9687 7.60547C37.8945 7.59375 37.8281 7.57031 37.7656 7.53906C37.7617 7.53516 37.7539 7.53516 37.75 7.53125C37.7461 7.52734 37.7383 7.52734 37.7344 7.52344C37.6345 7.47018 37.5488 7.39384 37.4844 7.30078C37.4648 7.33203 37.2617 7.5 37.0156 7.5C36.6758 7.5 36.543 7.36328 36.543 7.36328C36.5117 7.38281 36.4805 7.39844 36.4492 7.41016C36.4219 7.41797 35.5156 7.72656 35.5469 8.07422C35.5508 8.11719 35.5469 8.16016 35.543 8.20312V8.22266C35.5313 8.32422 35.5078 8.42188 35.4727 8.51172L35.4688 8.50781C35.375 8.43359 35.1484 8.49609 35.1289 8.36328C35.0547 7.85937 35.0742 7.25781 35.1211 6.74219L34.1367 6.90625L34.0195 6.29688Z" fill="#4A2F27"/>
<path d="M33.8323 7.57078C34.0237 6.52 35.2932 6.0825 35.7698 5.91453C35.8284 5.895 36.6995 5.68797 36.8049 6.46141C36.8518 6.79735 36.5979 7.16453 36.2737 7.28953C35.387 7.62938 35.3909 7.81688 35.3909 7.94188C35.3948 8.2661 35.2151 8.87938 34.9338 9.06297C34.8752 9.10203 34.8088 9.12547 34.7463 9.12547C34.7073 9.12547 34.6682 9.11766 34.6291 9.10203C34.0784 8.87156 33.7229 8.18406 33.8323 7.57078Z" fill="url(#paint27_linear_1021_1814)"/>
<defs>
<linearGradient id="paint0_linear_1021_1814" x1="30.0852" y1="28.6637" x2="30.0852" y2="43.6352" gradientUnits="userSpaceOnUse">
<stop stop-color="#5C4037"/>
<stop offset="0.5" stop-color="#70534A"/>
</linearGradient>
<linearGradient id="paint1_linear_1021_1814" x1="19.9147" y1="28.6637" x2="19.9147" y2="43.6352" gradientUnits="userSpaceOnUse">
<stop stop-color="#5C4037"/>
<stop offset="0.5" stop-color="#70534A"/>
</linearGradient>
<radialGradient id="paint2_radial_1021_1814" cx="0" cy="0" r="1" gradientUnits="userSpaceOnUse" gradientTransform="translate(26.7867 16.3382) scale(2.82891 1.38956)">
<stop offset="0.728" stop-color="#444140" stop-opacity="0"/>
<stop offset="1" stop-color="#444140"/>
</radialGradient>
<radialGradient id="paint3_radial_1021_1814" cx="0" cy="0" r="1" gradientUnits="userSpaceOnUse" gradientTransform="translate(29.5744 15.9165) rotate(154.924) scale(0.835893 0.620115)">
<stop offset="0.663" stop-color="#444140"/>
<stop offset="1" stop-color="#444140" stop-opacity="0"/>
</radialGradient>
<radialGradient id="paint4_radial_1021_1814" cx="0" cy="0" r="1" gradientUnits="userSpaceOnUse" gradientTransform="translate(27.4083 13.5532) rotate(-94.2783) scale(3.67221 3.06056)">
<stop offset="0.725" stop-color="#444140" stop-opacity="0"/>
<stop offset="1" stop-color="#444140"/>
</radialGradient>
<radialGradient id="paint5_radial_1021_1814" cx="0" cy="0" r="1" gradientUnits="userSpaceOnUse" gradientTransform="translate(22.6456 13.5525) rotate(-85.7217) scale(3.67221 3.06056)">
<stop offset="0.725" stop-color="#444140" stop-opacity="0"/>
<stop offset="1" stop-color="#444140"/>
</radialGradient>
<radialGradient id="paint6_radial_1021_1814" cx="0" cy="0" r="1" gradientUnits="userSpaceOnUse" gradientTransform="translate(23.2664 16.3382) rotate(180) scale(2.82891 1.38956)">
<stop offset="0.728" stop-color="#444140" stop-opacity="0"/>
<stop offset="1" stop-color="#444140"/>
</radialGradient>
<radialGradient id="paint7_radial_1021_1814" cx="0" cy="0" r="1" gradientUnits="userSpaceOnUse" gradientTransform="translate(20.4794 15.9166) rotate(25.0761) scale(0.835894 0.620115)">
<stop offset="0.663" stop-color="#444140"/>
<stop offset="1" stop-color="#444140" stop-opacity="0"/>
</radialGradient>
<linearGradient id="paint8_linear_1021_1814" x1="31.5121" y1="17.0531" x2="36.5266" y2="8.84101" gradientUnits="userSpaceOnUse">
<stop stop-color="#5C4037"/>
<stop offset="0.5" stop-color="#70534A"/>
</linearGradient>
<linearGradient id="paint9_linear_1021_1814" x1="18.4363" y1="16.9832" x2="13.3855" y2="8.88008" gradientUnits="userSpaceOnUse">
<stop stop-color="#5C4037"/>
<stop offset="0.5" stop-color="#70534A"/>
</linearGradient>
<linearGradient id="paint10_linear_1021_1814" x1="25" y1="18.0168" x2="25" y2="27.9766" gradientUnits="userSpaceOnUse">
<stop stop-color="#F78C1F"/>
<stop offset="0.494" stop-color="#F37F20"/>
<stop offset="1" stop-color="#ED6D23"/>
</linearGradient>
<radialGradient id="paint11_radial_1021_1814" cx="0" cy="0" r="1" gradientUnits="userSpaceOnUse" gradientTransform="translate(27.2015 11.6147) rotate(72.0851) scale(4.30423 3.19363)">
<stop offset="0.699" stop-color="#444140" stop-opacity="0"/>
<stop offset="1" stop-color="#444140"/>
</radialGradient>
<radialGradient id="paint12_radial_1021_1814" cx="0" cy="0" r="1" gradientUnits="userSpaceOnUse" gradientTransform="translate(23.0064 6.9232) rotate(28.2026) scale(1.12854 1.33812)">
<stop offset="0.58" stop-color="#444140"/>
<stop offset="1" stop-color="#444140" stop-opacity="0"/>
</radialGradient>
<radialGradient id="paint13_radial_1021_1814" cx="0" cy="0" r="1" gradientUnits="userSpaceOnUse" gradientTransform="translate(25.5292 8.97076) rotate(-157.19) scale(3.52976 1.98374)">
<stop offset="0.699" stop-color="#444140" stop-opacity="0"/>
<stop offset="1" stop-color="#444140"/>
</radialGradient>
<radialGradient id="paint14_radial_1021_1814" cx="0" cy="0" r="1" gradientUnits="userSpaceOnUse" gradientTransform="translate(22.5528 7.95164) scale(1.03594 1.26726)">
<stop offset="0.702" stop-color="#444140" stop-opacity="0"/>
<stop offset="1" stop-color="#444140"/>
</radialGradient>
<radialGradient id="paint15_radial_1021_1814" cx="0" cy="0" r="1" gradientUnits="userSpaceOnUse" gradientTransform="translate(22.4093 9.7807) rotate(-164.942) scale(1.94304 1.81833)">
<stop offset="0.66" stop-color="#444140" stop-opacity="0"/>
<stop offset="1" stop-color="#444140"/>
</radialGradient>
<radialGradient id="paint16_radial_1021_1814" cx="0" cy="0" r="1" gradientUnits="userSpaceOnUse" gradientTransform="translate(21.9508 11.6563) rotate(7.83355) scale(2.03991 2.86641)">
<stop offset="0.598" stop-color="#444140" stop-opacity="0"/>
<stop offset="1" stop-color="#444140"/>
</radialGradient>
<radialGradient id="paint17_radial_1021_1814" cx="0" cy="0" r="1" gradientUnits="userSpaceOnUse" gradientTransform="translate(13.8242 8.28047) scale(2.21758)">
<stop stop-color="#5C4037"/>
<stop offset="0.5" stop-color="#70534A"/>
</radialGradient>
<linearGradient id="paint18_linear_1021_1814" x1="25" y1="6.00742" x2="25" y2="8.37383" gradientUnits="userSpaceOnUse">
<stop stop-color="#BDBDBD"/>
<stop offset="1" stop-color="#757575"/>
</linearGradient>
<radialGradient id="paint19_radial_1021_1814" cx="0" cy="0" r="1" gradientUnits="userSpaceOnUse" gradientTransform="translate(8.15138 3.39109) rotate(90) scale(8.57506 4.82205)">
<stop offset="0.396" stop-color="#9E9E9E"/>
<stop offset="0.79" stop-color="#646464"/>
</radialGradient>
<radialGradient id="paint20_radial_1021_1814" cx="0" cy="0" r="1" gradientUnits="userSpaceOnUse" gradientTransform="translate(41.8495 3.4249) rotate(90) scale(8.57506 4.82205)">
<stop offset="0.396" stop-color="#9E9E9E"/>
<stop offset="0.79" stop-color="#646464"/>
</radialGradient>
<radialGradient id="paint21_radial_1021_1814" cx="0" cy="0" r="1" gradientUnits="userSpaceOnUse" gradientTransform="translate(3.993 5.02079) scale(1.84527 3.19174)">
<stop offset="0.441" stop-color="#9E9E9E"/>
<stop offset="0.985" stop-color="#646464"/>
</radialGradient>
<radialGradient id="paint22_radial_1021_1814" cx="0" cy="0" r="1" gradientUnits="userSpaceOnUse" gradientTransform="translate(45.9736 5.02079) rotate(180) scale(1.84527 3.19174)">
<stop offset="0.441" stop-color="#9E9E9E"/>
<stop offset="0.985" stop-color="#646464"/>
</radialGradient>
<linearGradient id="paint23_linear_1021_1814" x1="13.5926" y1="6.49495" x2="13.6337" y2="5.20042" gradientUnits="userSpaceOnUse">
<stop stop-color="#5C4037"/>
<stop offset="0.5" stop-color="#70534A"/>
</linearGradient>
<linearGradient id="paint24_linear_1021_1814" x1="13.6747" y1="7.94266" x2="15.7447" y2="6.90633" gradientUnits="userSpaceOnUse">
<stop stop-color="#5C4037"/>
<stop offset="0.469" stop-color="#70534A"/>
</linearGradient>
<radialGradient id="paint25_radial_1021_1814" cx="0" cy="0" r="1" gradientUnits="userSpaceOnUse" gradientTransform="translate(36.2225 8.28047) rotate(180) scale(2.21758)">
<stop stop-color="#5C4037"/>
<stop offset="0.5" stop-color="#70534A"/>
</radialGradient>
<linearGradient id="paint26_linear_1021_1814" x1="36.4538" y1="6.49495" x2="36.4127" y2="5.20042" gradientUnits="userSpaceOnUse">
<stop stop-color="#5C4037"/>
<stop offset="0.5" stop-color="#70534A"/>
</linearGradient>
<linearGradient id="paint27_linear_1021_1814" x1="36.3721" y1="7.94266" x2="34.3022" y2="6.90633" gradientUnits="userSpaceOnUse">
<stop stop-color="#5C4037"/>
<stop offset="0.469" stop-color="#70534A"/>
</linearGradient>
</defs>
</svg>
