<svg width="428" height="525" viewBox="0 0 428 525" fill="none" xmlns="http://www.w3.org/2000/svg">
<g clip-path="url(#clip0_816_463)">
<path d="M482 463.4H-18V463.65H482V463.4Z" fill="#EBEBEB"/>
<path d="M427.26 474.85H376.36V475.1H427.26V474.85Z" fill="#EBEBEB"/>
<path d="M81.67 471.89H34.46V472.14H81.67V471.89Z" fill="#EBEBEB"/>
<path d="M380 470.21H360.81V470.46H380V470.21Z" fill="#EBEBEB"/>
<path d="M313.22 476.84H299.14V477.09H313.22V476.84Z" fill="#EBEBEB"/>
<path d="M290.23 476.84H254.79V477.09H290.23V476.84Z" fill="#EBEBEB"/>
<path d="M234.21 472.62H177.22V472.87H234.21V472.62Z" fill="#EBEBEB"/>
<path d="M219 418.8H25.91C24.3973 418.797 22.9475 418.195 21.8788 417.124C20.8102 416.053 20.21 414.603 20.21 413.09V141.66C20.2231 140.156 20.8292 138.718 21.8964 137.658C22.9637 136.598 24.4059 136.003 25.91 136H219C220.514 136 221.967 136.602 223.038 137.672C224.108 138.743 224.71 140.196 224.71 141.71V413.09C224.71 414.604 224.108 416.057 223.038 417.128C221.967 418.198 220.514 418.8 219 418.8ZM25.91 136.2C24.4636 136.203 23.0774 136.779 22.0556 137.803C21.0338 138.826 20.46 140.214 20.46 141.66V413.09C20.46 414.536 21.0338 415.924 22.0556 416.947C23.0774 417.971 24.4636 418.547 25.91 418.55H219C220.447 418.547 221.834 417.971 222.858 416.948C223.881 415.924 224.457 414.537 224.46 413.09V141.66C224.457 140.213 223.881 138.825 222.858 137.802C221.834 136.779 220.447 136.203 219 136.2H25.91Z" fill="#EBEBEB"/>
<path d="M435.31 418.8H242.21C240.696 418.797 239.246 418.195 238.175 417.125C237.105 416.054 236.503 414.604 236.5 413.09V141.66C236.516 140.155 237.124 138.717 238.193 137.658C239.262 136.598 240.705 136.003 242.21 136H435.31C436.812 136.005 438.252 136.602 439.317 137.662C440.382 138.721 440.987 140.158 441 141.66V413.09C441 414.601 440.401 416.05 439.335 417.121C438.268 418.191 436.821 418.795 435.31 418.8ZM242.21 136.2C240.763 136.203 239.375 136.779 238.352 137.802C237.329 138.825 236.753 140.213 236.75 141.66V413.09C236.753 414.537 237.329 415.924 238.352 416.948C239.375 417.971 240.763 418.547 242.21 418.55H435.31C436.757 418.547 438.145 417.971 439.168 416.948C440.191 415.924 440.767 414.537 440.77 413.09V141.66C440.767 140.213 440.191 138.825 439.168 137.802C438.145 136.779 436.757 136.203 435.31 136.2H242.21Z" fill="#EBEBEB"/>
<path d="M372.37 166.67H270.57V463.4H372.37V166.67Z" fill="#EBEBEB"/>
<path d="M365.5 457.4V172.67H277.44V457.4H365.5Z" fill="#FAFAFA"/>
<path d="M267.52 166.67H165.72V463.4H267.52V166.67Z" fill="#EBEBEB"/>
<path d="M267.52 462.24H270.57L270.57 167.84H267.52L267.52 462.24Z" fill="#E0E0E0"/>
<path d="M260.65 457.39V172.66H172.59V457.39H260.65Z" fill="#FAFAFA"/>
<path d="M418.87 164.44H119.22C118.868 164.438 118.531 164.297 118.283 164.048C118.034 163.799 117.893 163.462 117.89 163.11C117.893 162.758 118.034 162.422 118.283 162.173C118.531 161.924 118.868 161.783 119.22 161.78H418.87C419.222 161.783 419.559 161.924 419.808 162.173C420.057 162.422 420.198 162.758 420.2 163.11C420.198 163.462 420.057 163.799 419.808 164.048C419.559 164.297 419.222 164.438 418.87 164.44Z" fill="#E0E0E0"/>
<path d="M365.5 178.34V172.67H277.44V178.34H365.5Z" fill="#E0E0E0"/>
<path d="M365.5 182.22V172.66H277.44V182.22H365.5Z" fill="#E0E0E0"/>
<path d="M260.65 193.55V172.66H172.59V193.55H260.65Z" fill="#E0E0E0"/>
<g opacity="0.8">
<path opacity="0.8" d="M385.44 155.561H357.24V459.751H385.44V155.561Z" fill="#F5F5F5"/>
<path opacity="0.8" d="M378 155.561H364.69V459.751H378V155.561Z" fill="#F0F0F0"/>
<path opacity="0.8" d="M400.57 155.561H372.37V459.751H400.57V155.561Z" fill="#F5F5F5"/>
<path opacity="0.8" d="M393.13 155.561H379.82V459.751H393.13V155.561Z" fill="#F0F0F0"/>
<path opacity="0.8" d="M414.67 155.561H386.47V459.751H414.67V155.561Z" fill="#F5F5F5"/>
</g>
<g opacity="0.8">
<path opacity="0.8" d="M163.46 155.561H122.53V459.751H163.46V155.561Z" fill="#F5F5F5"/>
<path opacity="0.8" d="M152.65 155.561H133.33V459.751H152.65V155.561Z" fill="#F0F0F0"/>
<path opacity="0.8" d="M185.41 155.561H144.48V459.751H185.41V155.561Z" fill="#F5F5F5"/>
<path opacity="0.8" d="M174.6 155.561H155.28V459.751H174.6V155.561Z" fill="#F0F0F0"/>
<path opacity="0.8" d="M205.87 155.561H164.94V459.751H205.87V155.561Z" fill="#F5F5F5"/>
</g>
<path d="M103.1 186.73H37.0698V335.4H103.1V186.73Z" fill="#F0F0F0"/>
<path d="M103.1 335.41H105.18L105.18 186.74H103.1L103.1 335.41Z" fill="#E6E6E6"/>
<path d="M97.1001 329.4L97.1001 192.73H43.0701L43.0701 329.4H97.1001Z" fill="#FAFAFA"/>
<path d="M107.26 409.07H39.4801C37.9895 409.067 36.5605 408.475 35.5055 407.422C34.4506 406.369 33.8554 404.941 33.8501 403.45C33.8554 401.959 34.4506 400.532 35.5055 399.478C36.5605 398.425 37.9895 397.833 39.4801 397.83H107.26C108.749 397.835 110.175 398.429 111.228 399.482C112.281 400.535 112.875 401.961 112.88 403.45C112.875 404.939 112.281 406.365 111.228 407.418C110.175 408.471 108.749 409.065 107.26 409.07Z" fill="#F5F5F5"/>
<path d="M55.78 409.07H44.65L32 463.4H43.12L55.78 409.07Z" fill="#E6E6E6"/>
<path d="M77.9799 409.07H66.8599L60.6299 463.4H71.7499L77.9799 409.07Z" fill="#E6E6E6"/>
<path d="M90.96 409.07H102.08L114.74 463.4H103.61L90.96 409.07Z" fill="#E6E6E6"/>
<path d="M232 508.56C339.082 508.56 425.89 503.492 425.89 497.24C425.89 490.988 339.082 485.92 232 485.92C124.917 485.92 38.1099 490.988 38.1099 497.24C38.1099 503.492 124.917 508.56 232 508.56Z" fill="#F5F5F5"/>
<path d="M293.195 345.422H185.285C183.239 345.422 181.58 347.081 181.58 349.127V353.376C181.58 355.423 183.239 357.082 185.285 357.082H293.195C295.241 357.082 296.9 355.423 296.9 353.376V349.127C296.9 347.081 295.241 345.422 293.195 345.422Z" fill="#263238"/>
<path d="M292.17 486.908H296.9L291.462 357.082H284.911L292.17 486.908Z" fill="#0E9E70"/>
<path opacity="0.6" d="M292.17 486.908H296.9L291.462 357.082H284.911L292.17 486.908Z" fill="white"/>
<path d="M248.629 486.908H243.899L249.337 357.082H255.888L248.629 486.908Z" fill="#0E9E70"/>
<path opacity="0.6" d="M248.629 486.908H243.899L249.337 357.082H255.888L248.629 486.908Z" fill="white"/>
<path d="M229.862 486.908H234.592L229.142 357.082H222.604L229.862 486.908Z" fill="#0E9E70"/>
<path opacity="0.6" d="M229.862 486.908H234.592L229.142 357.082H222.604L229.862 486.908Z" fill="white"/>
<path d="M186.309 486.908H181.58L187.03 357.082H193.568L186.309 486.908Z" fill="#0E9E70"/>
<path opacity="0.6" d="M186.309 486.908H181.58L187.03 357.082H193.568L186.309 486.908Z" fill="white"/>
<g opacity="0.3">
<path opacity="0.3" d="M291.462 357.069H284.912L285.215 362.596H291.69L291.462 357.069Z" fill="#0E9E70"/>
<path opacity="0.3" d="M249.11 362.596H255.573L255.889 357.069H249.338L249.11 362.596Z" fill="#0E9E70"/>
<path opacity="0.3" d="M222.604 357.069L222.907 362.596H229.382L229.142 357.069H222.604Z" fill="#0E9E70"/>
<path opacity="0.3" d="M186.79 362.596H193.278L193.581 357.069H187.03L186.79 362.596Z" fill="#0E9E70"/>
</g>
<path d="M226.815 467.825L216.117 473.515L199.247 450.74L209.958 445.049L226.815 467.825Z" fill="#FFB573"/>
<path d="M212.246 470L223.425 462.235C223.517 462.157 223.624 462.099 223.739 462.065C223.854 462.031 223.975 462.021 224.094 462.036C224.213 462.052 224.328 462.092 224.431 462.155C224.533 462.217 224.622 462.301 224.69 462.399L231.38 470.86C231.702 471.326 231.827 471.9 231.731 472.458C231.634 473.016 231.322 473.514 230.861 473.844C226.928 476.474 225.158 477.398 220.011 480.458C216.837 482.33 209.249 486.781 204.583 488.817C199.916 490.853 198.045 486.174 199.84 484.897C204.102 481.887 209.742 475.969 211.02 471.808C211.217 471.086 211.648 470.45 212.246 470Z" fill="#263238"/>
<path opacity="0.2" d="M209.971 445.062L199.247 450.74L207.378 461.717L217.849 455.697L209.971 445.062Z" fill="black"/>
<path d="M235.806 310.152C235.806 310.152 152.67 307.56 152.341 342.299C151.937 392.226 199.322 457.796 199.322 457.796L217.861 445.466C217.861 445.466 185.386 397.803 185.108 358.827C209.603 351.91 267.308 356.298 274.782 335.938C280.902 319.321 277.703 310.152 277.703 310.152H235.806Z" fill="#0E9E70"/>
<path opacity="0.2" d="M235.806 310.152C235.806 310.152 152.67 307.56 152.341 342.299C151.937 392.226 199.322 457.796 199.322 457.796L217.861 445.466C217.861 445.466 185.386 397.803 185.108 358.827C209.603 351.91 267.308 356.298 274.782 335.938C280.902 319.321 277.703 310.152 277.703 310.152H235.806Z" fill="black"/>
<path d="M222.894 448.641L200.839 462.147L193.922 455.128L218.152 439.864L222.894 448.641Z" fill="#263238"/>
<path d="M209.932 474.185C210.815 473.547 211.621 472.808 212.335 471.985C212.373 471.944 212.398 471.894 212.406 471.839C212.415 471.785 212.408 471.729 212.385 471.679C212.362 471.628 212.324 471.586 212.277 471.557C212.23 471.529 212.175 471.515 212.12 471.517C211.652 471.517 207.504 471.517 206.619 472.87C206.518 473.021 206.456 473.196 206.441 473.377C206.425 473.558 206.456 473.741 206.531 473.907C206.614 474.169 206.766 474.405 206.97 474.589C207.175 474.773 207.425 474.9 207.694 474.957C208.51 474.984 209.307 474.709 209.932 474.185ZM211.463 472.099C209.932 473.692 208.579 474.539 207.795 474.4C207.619 474.361 207.458 474.275 207.328 474.15C207.199 474.025 207.107 473.866 207.062 473.692C207.015 473.616 206.99 473.528 206.99 473.439C206.99 473.35 207.015 473.262 207.062 473.186C207.568 472.478 209.806 472.162 211.463 472.099Z" fill="#0E9E70"/>
<path d="M212.284 472.035C212.32 472.008 212.35 471.973 212.373 471.934C212.397 471.892 212.41 471.844 212.41 471.795C212.41 471.746 212.397 471.698 212.373 471.656C212.297 471.529 210.527 468.52 208.857 468.241C208.632 468.198 208.4 468.208 208.181 468.272C207.961 468.336 207.759 468.451 207.593 468.608C207.402 468.75 207.264 468.951 207.2 469.18C207.136 469.409 207.149 469.652 207.238 469.873C207.77 471.137 210.691 472.162 212.095 472.073L212.284 472.035ZM208.124 468.899C208.215 468.831 208.32 468.782 208.431 468.756C208.541 468.73 208.657 468.727 208.769 468.747C209.768 468.912 210.982 470.492 211.614 471.453C210.236 471.327 208.162 470.442 207.82 469.62C207.757 469.468 207.719 469.253 208.035 468.975C208.06 469 208.086 468.962 208.124 468.899Z" fill="#0E9E70"/>
<path d="M207.024 481.786L195.01 481.217L193.037 452.852L205.051 453.421L207.024 481.786Z" fill="#FFB573"/>
<path d="M194.731 479.168L208.326 478.738C208.555 478.72 208.783 478.794 208.958 478.944C209.133 479.093 209.242 479.305 209.262 479.535L210.261 490.271C210.281 490.839 210.076 491.393 209.69 491.81C209.303 492.227 208.768 492.474 208.199 492.497C203.47 492.497 201.193 492.358 195.212 492.497C191.532 492.611 184.298 493.155 179.252 492.497C174.207 491.839 174.978 486.895 177.166 486.705C182.363 486.288 189.331 482.696 192.67 479.901C193.258 479.437 193.982 479.179 194.731 479.168Z" fill="#263238"/>
<path d="M190.508 481.406C191.595 481.348 192.672 481.17 193.72 480.875C193.772 480.861 193.82 480.832 193.856 480.792C193.893 480.751 193.916 480.701 193.924 480.647C193.933 480.593 193.925 480.538 193.902 480.489C193.879 480.44 193.842 480.398 193.796 480.369C193.404 480.116 189.901 477.84 188.446 478.498C188.28 478.57 188.135 478.684 188.024 478.827C187.914 478.971 187.841 479.14 187.814 479.32C187.739 479.585 187.736 479.865 187.805 480.131C187.874 480.398 188.012 480.642 188.206 480.837C188.874 481.311 189.696 481.514 190.508 481.406ZM192.923 480.496C190.773 480.989 189.129 480.976 188.598 480.433C188.475 480.301 188.388 480.14 188.345 479.965C188.303 479.79 188.307 479.607 188.358 479.433C188.368 479.345 188.402 479.262 188.455 479.19C188.509 479.119 188.58 479.064 188.661 479.029C189.445 478.687 191.494 479.636 192.923 480.496Z" fill="#0E9E70"/>
<path d="M193.656 480.888C193.698 480.9 193.741 480.9 193.783 480.888C193.824 480.866 193.859 480.833 193.883 480.793C193.907 480.753 193.921 480.707 193.922 480.661C193.922 480.509 194.099 477.018 192.834 475.88C192.669 475.722 192.467 475.606 192.246 475.545C192.026 475.483 191.793 475.477 191.57 475.526C191.328 475.54 191.098 475.634 190.916 475.795C190.735 475.956 190.613 476.173 190.571 476.411C190.33 477.676 192.215 480.205 193.441 480.888C193.511 480.911 193.587 480.911 193.656 480.888ZM191.848 476.032C191.959 476.025 192.071 476.042 192.176 476.081C192.28 476.121 192.375 476.181 192.455 476.26C193.214 476.943 193.366 478.928 193.378 480.054C192.291 479.194 191.026 477.322 191.19 476.449C191.19 476.285 191.304 476.083 191.709 476.019L191.848 476.032Z" fill="#0E9E70"/>
<path opacity="0.2" d="M205.064 453.421L193.037 452.852L194.163 469.077L206.151 469.064L205.064 453.421Z" fill="black"/>
<path d="M265.373 310.152C265.373 310.152 178.393 318.372 181.554 344.563C186.132 382.324 188.383 463.715 188.383 463.715L210.552 464.587C210.552 464.587 219.948 391.24 215.092 352.504C237.602 352.504 292.714 354.123 297.735 340.566C302.174 328.578 300.593 310.216 300.593 310.216L265.373 310.152Z" fill="#0E9E70"/>
<path d="M213.005 465.953L186.397 464.638L185.436 453.054L214.623 455.064L213.005 465.953Z" fill="#263238"/>
<path d="M246.075 233.44C245.911 235.565 245.747 237.411 245.506 239.359C245.266 241.306 245.013 243.153 244.71 245.125C244.115 248.919 243.356 252.713 242.471 256.595C240.747 264.617 237.944 272.368 234.137 279.637C233.001 281.679 231.694 283.62 230.23 285.441C228.593 287.497 226.658 289.295 224.488 290.778C220.315 293.55 215.488 295.18 210.489 295.508C206.111 295.794 201.717 295.367 197.476 294.243C195.475 293.731 193.507 293.098 191.583 292.346C190.622 291.979 189.686 291.575 188.763 291.082C187.84 290.588 186.98 290.184 185.917 289.615L189.243 281.154L191.659 281.458L194.188 281.711C195.883 281.85 197.552 281.938 199.247 281.938C202.319 281.99 205.384 281.637 208.364 280.889C210.752 280.316 212.963 279.165 214.801 277.537C215.59 276.8 216.294 275.977 216.901 275.084C217.648 273.934 218.315 272.734 218.899 271.493C220.236 268.591 221.332 265.583 222.174 262.501C223.135 259.302 223.907 255.95 224.602 252.536C225.298 249.122 225.867 245.669 226.436 242.191L227.182 236.956C227.41 235.236 227.662 233.39 227.827 231.897L246.075 233.44Z" fill="#FFB573"/>
<path d="M246.151 223.134C237.299 214.548 226.296 219.619 221.921 235.781C219.444 244.408 217.751 253.241 216.862 262.173L245.025 267.99C250.147 252.575 255.256 231.936 246.151 223.134Z" fill="#263238"/>
<path opacity="0.3" d="M237.083 240.712C239.094 238.904 244.81 247.035 248.3 257.064C247.314 260.858 246.188 264.512 245.038 267.939L228.092 264.436C229.445 254.421 232.569 244.784 237.083 240.712Z" fill="black"/>
<path d="M187.334 277.361L181.011 274.945L180.732 288.363C180.732 288.363 191.355 292.953 193.518 287.68L192.759 284.329C192.393 282.852 191.721 281.469 190.786 280.269C189.852 279.068 188.676 278.078 187.334 277.361Z" fill="#FFB573"/>
<path d="M173.549 275.299L169.819 286.554L180.783 288.363L181.061 274.945L173.549 275.299Z" fill="#FFB573"/>
<path d="M183.11 284.265C182.976 284.267 182.845 284.232 182.731 284.162C182.617 284.093 182.525 283.993 182.465 283.873L171.172 262.134C171.082 261.963 171.064 261.763 171.121 261.579C171.178 261.394 171.305 261.239 171.475 261.148C171.649 261.063 171.848 261.048 172.032 261.107C172.216 261.166 172.37 261.294 172.462 261.464L183.717 283.165C183.806 283.336 183.825 283.536 183.768 283.72C183.711 283.905 183.584 284.06 183.413 284.151C183.321 284.209 183.218 284.247 183.11 284.265Z" fill="#263238"/>
<path d="M245.101 214.521L258.607 210.727L275.957 209.918C278.593 209.792 281.196 210.535 283.367 212.034C285.538 213.534 287.156 215.705 287.971 218.214C291.272 228.331 294.294 242.899 296.533 255.508C299.062 269.659 300.327 290.917 300.592 310.215H235.806C234.326 269.937 229.204 246.124 226.953 232.947C226.505 230.364 226.914 227.706 228.12 225.378C229.326 223.051 231.262 221.183 233.631 220.06L245.101 214.521Z" fill="#263238"/>
<path opacity="0.3" d="M296.533 255.457C294.788 245.53 292.537 234.351 290.033 225.106C278.487 223.159 272.897 248.476 276.324 261.034C279.751 273.592 298.025 265.979 298.025 265.979C297.595 262.197 297.089 258.644 296.533 255.457Z" fill="black"/>
<path d="M256.306 184.36C259.088 191.189 257.419 203.709 251.93 200.168C246.442 196.627 254.611 180.212 256.306 184.36Z" fill="#263238"/>
<path d="M253.271 188.736L248.022 196.754L240.89 207.668C241.812 208.601 242.557 209.694 243.09 210.892C244.355 213.523 245.481 215.483 239.954 219.252C239.36 219.632 238.889 220.176 238.595 220.817C238.301 221.458 238.198 222.17 238.298 222.868C238.626 224.576 240.321 226.232 246.277 225.183C252.018 224.084 257.256 221.177 261.225 216.887C263.211 214.901 262.755 213.409 260.846 211.348C255.382 205.53 253.764 196.236 253.271 188.736Z" fill="#FFB573"/>
<path opacity="0.2" d="M242.597 204.974L246.973 197.196C247.065 197.399 247.167 197.614 247.276 197.841C247.665 198.802 247.978 199.791 248.212 200.8C249.009 204.253 246.328 209.185 243.381 211.537L243.04 210.867C242.509 209.747 241.828 208.705 241.016 207.768C240.965 207.717 240.905 207.674 240.839 207.642L242.597 204.974Z" fill="black"/>
<path d="M216.331 179.302C214.699 182.982 220.479 193.403 227.092 189.191C233.706 184.98 219.214 172.789 216.331 179.302Z" fill="#263238"/>
<path d="M248.212 227.42C248.124 227.422 248.04 227.392 247.972 227.336C247.905 227.281 247.86 227.203 247.845 227.117C247.364 223.993 245.316 222.058 243.001 219.706C240.068 216.836 236.742 213.573 235.654 207.187C235.637 207.093 235.659 206.996 235.713 206.918C235.768 206.839 235.851 206.786 235.945 206.769C236.039 206.753 236.136 206.774 236.214 206.828C236.292 206.883 236.345 206.966 236.362 207.06C237.425 213.219 240.662 216.393 243.507 219.188C245.847 221.477 248.047 223.639 248.566 227.003C248.575 227.051 248.574 227.099 248.563 227.147C248.553 227.194 248.533 227.238 248.504 227.277C248.476 227.317 248.44 227.349 248.398 227.374C248.356 227.399 248.31 227.414 248.262 227.42H248.212Z" fill="white"/>
<path d="M250.906 175.597C253.435 187.055 255.408 193.643 251.323 200.889C245.152 211.854 229.723 210.361 223.856 199.815C218.57 190.33 215.421 173.182 225.247 165.784C227.445 164.149 230.021 163.096 232.735 162.722C235.448 162.348 238.213 162.665 240.772 163.643C243.33 164.622 245.601 166.23 247.372 168.32C249.144 170.41 250.359 172.913 250.906 175.597Z" fill="#FFB573"/>
<path d="M254.308 183.463C250.362 189.065 240.017 178.784 240.865 171.879C230.596 177.722 219.442 185.524 212.676 178.948C204.861 171.361 206.998 160.485 216.154 159.511C214.535 162.673 223.742 164.076 228.636 159.195C236.919 151 250.008 152.708 249.768 159.347C256.078 156.843 262.97 171.158 254.308 183.463Z" fill="#263238"/>
<path d="M248.553 161.205C250.994 159.384 249.375 152.897 243.71 151C249.097 151.696 254.674 155.704 248.553 161.205Z" fill="#263238"/>
<path d="M257.962 182.957C258.071 185.577 257.216 188.146 255.559 190.178C253.384 192.77 250.033 190.709 249.236 187.472C248.541 184.576 249.439 180.086 252.297 178.695C255.155 177.304 257.81 179.694 257.962 182.957Z" fill="#FFB573"/>
<path d="M234.465 184.892C234.769 185.815 234.541 186.751 233.934 186.966C233.327 187.181 232.67 186.612 232.303 185.701C231.936 184.791 232.227 183.842 232.834 183.615C233.441 183.387 234.162 183.956 234.465 184.892Z" fill="#263238"/>
<path d="M224.096 188.686C224.412 189.621 224.172 190.557 223.565 190.772C222.958 190.987 222.237 190.418 221.934 189.508C221.63 188.597 221.871 187.649 222.465 187.434C223.059 187.219 223.793 187.762 224.096 188.686Z" fill="#263238"/>
<path d="M227.65 188.154C227.691 190.92 227.368 193.68 226.688 196.362C228.547 197.045 230.596 195.438 230.596 195.438L227.65 188.154Z" fill="#ED893E"/>
<path d="M233.201 200.586C234.278 200.232 235.272 199.663 236.122 198.913C236.972 198.163 237.661 197.247 238.146 196.223C238.176 196.152 238.177 196.073 238.148 196.002C238.12 195.931 238.064 195.874 237.994 195.844C237.922 195.818 237.843 195.821 237.772 195.851C237.702 195.882 237.646 195.938 237.615 196.008C237.072 197.112 236.282 198.077 235.306 198.827C234.33 199.577 233.195 200.092 231.987 200.333C231.948 200.338 231.91 200.351 231.876 200.372C231.841 200.392 231.812 200.419 231.788 200.452C231.765 200.484 231.749 200.521 231.74 200.56C231.732 200.599 231.732 200.639 231.74 200.678C231.747 200.718 231.763 200.755 231.786 200.787C231.809 200.82 231.838 200.848 231.872 200.869C231.906 200.89 231.944 200.904 231.983 200.909C232.023 200.915 232.063 200.913 232.101 200.902C232.475 200.821 232.842 200.715 233.201 200.586Z" fill="#263238"/>
<path d="M235.414 180.87C235.502 180.828 235.577 180.762 235.629 180.68C235.71 180.551 235.737 180.395 235.704 180.246C235.671 180.097 235.58 179.967 235.452 179.884C234.704 179.379 233.843 179.066 232.945 178.973C232.047 178.881 231.141 179.011 230.305 179.352C230.235 179.384 230.172 179.429 230.12 179.485C230.068 179.541 230.028 179.607 230.002 179.679C229.976 179.751 229.965 179.827 229.969 179.904C229.973 179.98 229.993 180.055 230.027 180.124C230.095 180.26 230.214 180.365 230.358 180.414C230.503 180.464 230.661 180.455 230.798 180.389C231.458 180.135 232.169 180.043 232.871 180.122C233.574 180.202 234.247 180.449 234.833 180.845C234.917 180.904 235.017 180.937 235.12 180.942C235.223 180.946 235.325 180.921 235.414 180.87Z" fill="#263238"/>
<path d="M222.048 182.692C222.072 182.596 222.072 182.496 222.048 182.401C221.986 182.261 221.872 182.15 221.73 182.093C221.588 182.037 221.43 182.038 221.289 182.097C220.447 182.424 219.699 182.954 219.112 183.64C218.525 184.327 218.117 185.148 217.925 186.03C217.9 186.18 217.935 186.333 218.023 186.456C218.11 186.579 218.244 186.663 218.393 186.688C218.542 186.713 218.695 186.678 218.819 186.59C218.942 186.502 219.025 186.369 219.05 186.22C219.215 185.53 219.545 184.891 220.012 184.358C220.48 183.825 221.07 183.413 221.731 183.16C221.82 183.115 221.895 183.048 221.95 182.967C222.005 182.885 222.039 182.79 222.048 182.692Z" fill="#263238"/>
<path d="M285.733 218.505C286.998 220.554 288.009 222.4 289.059 224.373C290.109 226.346 291.12 228.268 292.107 230.241C294.105 234.173 295.901 238.22 297.646 242.343C299.391 246.466 300.921 250.715 302.236 255.141C303.675 259.787 304.641 264.566 305.12 269.406C305.375 272.231 305.277 275.077 304.829 277.879C304.54 279.726 303.977 281.521 303.16 283.203C302.212 285.103 300.897 286.797 299.29 288.185C297.843 289.443 296.192 290.443 294.408 291.145C292.912 291.733 291.355 292.157 289.767 292.409C287.086 292.828 284.361 292.901 281.661 292.624C279.25 292.419 276.857 292.035 274.503 291.473C272.256 290.962 270.036 290.337 267.851 289.602C263.559 288.18 259.389 286.412 255.382 284.316L258.582 275.805C266.448 277.297 274.895 278.675 281.99 278.245C283.541 278.164 285.078 277.901 286.568 277.461C287.832 277.082 288.477 276.513 288.427 276.336C288.376 276.159 288.351 276.336 288.326 276.209C288.3 276.083 288.326 276.07 288.326 275.425C288.404 274.004 288.319 272.578 288.073 271.176C287.468 267.567 286.523 264.023 285.253 260.591C283.988 256.924 282.458 253.219 280.801 249.551C279.144 245.884 277.361 242.204 275.553 238.536C274.642 236.699 273.702 234.882 272.733 233.086L269.875 227.787L285.733 218.505Z" fill="#FFB573"/>
<path d="M279.827 210.045C267.611 208.186 261.604 218.67 267.358 234.326C270.329 242.795 274.063 250.977 278.512 258.771L304.854 247.225C300.061 231.733 292.322 211.955 279.827 210.045Z" fill="#263238"/>
<path d="M251.803 274.642L246.163 276.336L254.168 287.718C254.168 287.718 266.03 283.469 263.602 278.309L260.618 276.615C258.063 275.135 254.826 273.605 251.803 274.642Z" fill="#FFB573"/>
<path d="M241.168 284.177L246.821 289.817L254.169 287.705L246.164 276.336L241.168 284.177Z" fill="#FFB573"/>
<path d="M253.498 186.574C254.504 186.574 255.319 185.589 255.319 184.373C255.319 183.158 254.504 182.173 253.498 182.173C252.493 182.173 251.677 183.158 251.677 184.373C251.677 185.589 252.493 186.574 253.498 186.574Z" fill="white"/>
<path d="M255.003 190.19L253.954 190.152L253.309 185.081L255.307 184.639L255.003 190.19Z" fill="white"/>
<path d="M262.262 285.783C258.468 285.783 255.104 285.214 253.068 283.368C252.309 282.637 251.717 281.749 251.335 280.766C250.953 279.784 250.789 278.73 250.855 277.677C250.971 272.462 251.783 267.286 253.27 262.287C255.028 255.395 256.419 249.957 252.196 243.242C245.468 232.581 247.478 217.671 252.196 208.326C255.8 201.181 254.535 193.213 254.08 190.28C254.017 189.9 253.966 189.597 253.941 189.394C253.935 189.347 253.94 189.299 253.954 189.253C253.968 189.207 253.991 189.165 254.021 189.128C254.052 189.091 254.09 189.061 254.133 189.04C254.175 189.018 254.222 189.005 254.27 189.002C254.365 188.992 254.461 189.019 254.536 189.078C254.612 189.137 254.662 189.223 254.674 189.318C254.674 189.508 254.737 189.799 254.788 190.166C255.269 193.213 256.521 201.294 252.803 208.654C248.187 217.823 246.214 232.429 252.803 242.799C257.191 249.767 255.698 255.622 253.966 262.401C252.509 267.332 251.714 272.435 251.601 277.576C251.533 278.527 251.673 279.481 252.011 280.372C252.35 281.264 252.879 282.07 253.561 282.736C256.976 285.809 264.513 285.025 271.797 284.266C275.06 283.937 278.436 283.583 281.408 283.583C281.505 283.583 281.599 283.622 281.667 283.69C281.736 283.759 281.775 283.853 281.775 283.95C281.775 284.047 281.736 284.14 281.667 284.209C281.599 284.278 281.505 284.317 281.408 284.317C278.474 284.317 275.085 284.658 271.873 284.999C268.684 285.422 265.477 285.684 262.262 285.783Z" fill="white"/>
<path d="M296.546 283.077H282.155C281.736 283.077 281.396 283.417 281.396 283.836V284.848C281.396 285.267 281.736 285.606 282.155 285.606H296.546C296.965 285.606 297.305 285.267 297.305 284.848V283.836C297.305 283.417 296.965 283.077 296.546 283.077Z" fill="white"/>
<path d="M404.549 301.061H36.421C35.2496 301.057 34.1271 300.59 33.2988 299.762C32.4704 298.934 32.0035 297.811 32 296.64C32.0035 295.468 32.4704 294.346 33.2988 293.518C34.1271 292.689 35.2496 292.222 36.421 292.219H404.549C405.72 292.222 406.843 292.689 407.671 293.518C408.5 294.346 408.967 295.468 408.97 296.64C408.967 297.811 408.5 298.934 407.671 299.762C406.843 300.59 405.72 301.057 404.549 301.061Z" fill="#AF6E22"/>
<path opacity="0.3" d="M404.549 301.061H318.372C317.201 301.057 316.078 300.59 315.25 299.762C314.422 298.934 313.955 297.811 313.951 296.64C313.955 295.468 314.422 294.346 315.25 293.518C316.078 292.689 317.201 292.222 318.372 292.219H404.549C405.721 292.222 406.843 292.689 407.672 293.518C408.5 294.346 408.967 295.468 408.97 296.64C408.967 297.811 408.5 298.934 407.672 299.762C406.843 300.59 405.721 301.057 404.549 301.061Z" fill="#263238"/>
<path d="M400.486 509.367H408.97L399.212 301.061H387.476L400.486 509.367Z" fill="#263238"/>
<path opacity="0.1" d="M400.486 509.367H408.97L399.212 301.061H387.476L400.486 509.367Z" fill="white"/>
<path d="M322.435 509.367H313.951L323.709 301.061H335.446L322.435 509.367Z" fill="#263238"/>
<path opacity="0.2" d="M322.435 509.367H313.951L323.709 301.061H335.446L322.435 509.367Z" fill="white"/>
<path d="M118.549 509.367H127.019L117.261 301.061H105.524L118.549 509.367Z" fill="#263238"/>
<path opacity="0.1" d="M118.549 509.367H127.019L117.261 301.061H105.524L118.549 509.367Z" fill="white"/>
<path d="M40.4836 509.367H32L41.7582 301.061H53.4945L40.4836 509.367Z" fill="#263238"/>
<path opacity="0.2" d="M40.4836 509.367H32L41.7582 301.061H53.4945L40.4836 509.367Z" fill="white"/>
<path d="M327.347 312.146H44.2275V329.605H327.347V312.146Z" fill="#263238"/>
<path opacity="0.2" d="M327.347 312.146H44.2275V329.605H327.347V312.146Z" fill="white"/>
<path d="M90.8143 280.482C90.3236 280.482 89.8528 280.676 89.5046 281.022C89.1565 281.368 88.9591 281.837 88.9556 282.328V290.294C88.9556 290.787 89.1514 291.259 89.5 291.608C89.8486 291.957 90.3213 292.152 90.8143 292.152H151.023C151.182 292.152 151.336 292.09 151.45 291.978C151.564 291.867 151.63 291.715 151.633 291.555V281.013C151.63 280.854 151.564 280.702 151.45 280.59C151.336 280.478 151.182 280.416 151.023 280.416L90.8143 280.482Z" fill="#0E9E70"/>
<path opacity="0.9" d="M126.448 281.598H151.674V291.104H126.448C126.163 291.104 125.89 290.99 125.688 290.789C125.486 290.587 125.373 290.313 125.373 290.028V282.66C125.377 282.377 125.491 282.107 125.693 281.908C125.894 281.709 126.166 281.598 126.448 281.598Z" fill="white"/>
<path d="M122.306 280.482H61.4871C60.4606 280.482 59.6284 281.315 59.6284 282.341V290.373C59.6284 291.4 60.4606 292.232 61.4871 292.232H122.306C123.333 292.232 124.165 291.4 124.165 290.373V282.341C124.165 281.315 123.333 280.482 122.306 280.482Z" fill="#0E9E70"/>
<path opacity="0.2" d="M122.306 280.482H61.4871C60.4606 280.482 59.6284 281.315 59.6284 282.341V290.373C59.6284 291.4 60.4606 292.232 61.4871 292.232H122.306C123.333 292.232 124.165 291.4 124.165 290.373V282.341C124.165 281.315 123.333 280.482 122.306 280.482Z" fill="black"/>
<path opacity="0.5" d="M92.3945 280.482H83.1674C82.7495 280.482 82.4106 280.821 82.4106 281.239V291.475C82.4106 291.893 82.7495 292.232 83.1674 292.232H92.3945C92.8124 292.232 93.1512 291.893 93.1512 291.475V281.239C93.1512 280.821 92.8124 280.482 92.3945 280.482Z" fill="black"/>
<path opacity="0.5" d="M105.71 280.482H96.4965C96.0786 280.482 95.7397 280.821 95.7397 281.239V291.475C95.7397 291.893 96.0786 292.232 96.4965 292.232H105.71C106.128 292.232 106.467 291.893 106.467 291.475V281.239C106.467 280.821 106.128 280.482 105.71 280.482Z" fill="black"/>
<path d="M79.9285 266.011C79.6844 266.011 79.4427 266.059 79.2172 266.152C78.9917 266.246 78.7868 266.383 78.6142 266.555C78.4416 266.728 78.3047 266.933 78.2113 267.158C78.1179 267.384 78.0698 267.626 78.0698 267.87V278.624C78.0698 278.868 78.1179 279.109 78.2113 279.335C78.3047 279.56 78.4416 279.765 78.6142 279.938C78.7868 280.11 78.9917 280.247 79.2172 280.341C79.4427 280.434 79.6844 280.482 79.9285 280.482H145.155C145.315 280.479 145.467 280.413 145.579 280.299C145.69 280.185 145.753 280.031 145.753 279.871V266.595C145.753 266.435 145.69 266.282 145.579 266.168C145.467 266.054 145.315 265.988 145.155 265.984L79.9285 266.011Z" fill="#0E9E70"/>
<path opacity="0.9" d="M115.601 267.14H145.792V279.367H115.601C115.316 279.367 115.042 279.254 114.841 279.052C114.639 278.851 114.526 278.577 114.526 278.292V268.242C114.522 268.098 114.547 267.955 114.6 267.822C114.652 267.688 114.731 267.567 114.831 267.464C114.931 267.361 115.051 267.28 115.183 267.224C115.316 267.168 115.458 267.14 115.601 267.14Z" fill="white"/>
<path d="M111.406 266.012H60.2654C59.2389 266.012 58.4067 266.844 58.4067 267.87V278.611C58.4067 279.638 59.2389 280.47 60.2654 280.47H111.406C112.433 280.47 113.265 279.638 113.265 278.611V267.87C113.265 266.844 112.433 266.012 111.406 266.012Z" fill="#0E9E70"/>
<path opacity="0.2" d="M111.406 266.012H60.2654C59.2389 266.012 58.4067 266.844 58.4067 267.87V278.611C58.4067 279.638 59.2389 280.47 60.2654 280.47H111.406C112.433 280.47 113.265 279.638 113.265 278.611V267.87C113.265 266.844 112.433 266.012 111.406 266.012Z" fill="white"/>
<path opacity="0.6" d="M106.613 268.879H69.1607C68.5375 268.879 68.0322 269.384 68.0322 270.007V276.473C68.0322 277.096 68.5375 277.602 69.1607 277.602H106.613C107.237 277.602 107.742 277.096 107.742 276.473V270.007C107.742 269.384 107.237 268.879 106.613 268.879Z" fill="#263238"/>
<path d="M99.0589 259.094C98.0366 259.094 97.2002 259.585 97.2002 260.182V264.922C97.2002 265.52 98.0366 266.011 99.0589 266.011H159.281C159.613 266.011 159.878 265.851 159.878 265.666V259.452C159.878 259.253 159.613 259.094 159.281 259.094H99.0589Z" fill="#0E9E70"/>
<path opacity="0.9" d="M134.454 259.745H159.878V265.348H134.454C134.236 265.348 134.026 265.261 133.872 265.107C133.718 264.952 133.631 264.743 133.631 264.525V260.542C133.638 260.328 133.728 260.125 133.881 259.977C134.035 259.828 134.24 259.745 134.454 259.745Z" fill="white"/>
<path d="M130.989 259.095H69.2936C68.509 259.095 67.873 259.731 67.873 260.515V264.604C67.873 265.389 68.509 266.025 69.2936 266.025H130.989C131.774 266.025 132.41 265.389 132.41 264.604V260.515C132.41 259.731 131.774 259.095 130.989 259.095Z" fill="#0E9E70"/>
<path opacity="0.2" d="M130.989 259.095H69.2936C68.509 259.095 67.873 259.731 67.873 260.515V264.604C67.873 265.389 68.509 266.025 69.2936 266.025H130.989C131.774 266.025 132.41 265.389 132.41 264.604V260.515C132.41 259.731 131.774 259.095 130.989 259.095Z" fill="black"/>
<path opacity="0.5" d="M77.0471 259.095H75.1221C74.9681 259.095 74.8433 259.22 74.8433 259.374V265.746C74.8433 265.9 74.9681 266.025 75.1221 266.025H77.0471C77.2011 266.025 77.3259 265.9 77.3259 265.746V259.374C77.3259 259.22 77.2011 259.095 77.0471 259.095Z" fill="#0E9E70"/>
<path opacity="0.5" d="M127.125 259.094H125.24C125.086 259.094 124.961 259.219 124.961 259.373V265.745C124.961 265.899 125.086 266.024 125.24 266.024H127.125C127.279 266.024 127.404 265.899 127.404 265.745V259.373C127.404 259.219 127.279 259.094 127.125 259.094Z" fill="#0E9E70"/>
<path d="M88.1722 249.084C87.1499 249.084 86.3135 249.575 86.3135 250.173V257.992C86.3135 258.603 87.1499 259.094 88.1722 259.094H153.399C153.731 259.094 154.01 258.935 154.01 258.736V249.442C154.01 249.243 153.731 249.084 153.399 249.084H88.1722Z" fill="#0E9E70"/>
<path opacity="0.9" d="M123.567 249.734H154.01V258.43H123.567C123.349 258.43 123.14 258.344 122.985 258.189C122.831 258.035 122.744 257.826 122.744 257.607V250.558C122.744 250.339 122.831 250.13 122.985 249.975C123.14 249.821 123.349 249.734 123.567 249.734Z" fill="white"/>
<path d="M120.089 249.084H68.0724C67.2879 249.084 66.6519 249.72 66.6519 250.505V257.674C66.6519 258.458 67.2879 259.094 68.0724 259.094H120.089C120.874 259.094 121.51 258.458 121.51 257.674V250.505C121.51 249.72 120.874 249.084 120.089 249.084Z" fill="#0E9E70"/>
<path opacity="0.1" d="M120.089 249.084H68.0724C67.2879 249.084 66.6519 249.72 66.6519 250.505V257.674C66.6519 258.458 67.2879 259.094 68.0724 259.094H120.089C120.874 259.094 121.51 258.458 121.51 257.674V250.505C121.51 249.72 120.874 249.084 120.089 249.084Z" fill="#0E26FF"/>
<path d="M233.654 290.015H178.863C178.569 290.015 178.288 290.13 178.079 290.337C177.87 290.543 177.751 290.823 177.748 291.117C177.751 291.41 177.87 291.69 178.079 291.897C178.288 292.103 178.569 292.219 178.863 292.219H233.654C233.947 292.219 234.227 292.102 234.434 291.896C234.64 291.689 234.756 291.409 234.756 291.117C234.756 290.824 234.64 290.544 234.434 290.337C234.227 290.131 233.947 290.015 233.654 290.015Z" fill="white"/>
<path d="M340.849 287.387H376.855L380.108 292.1H337.597L340.849 287.387Z" fill="#263238"/>
<path d="M396.45 206.945C396.45 207.903 396.166 208.84 395.633 209.637C395.101 210.434 394.344 211.055 393.459 211.422C392.573 211.788 391.599 211.884 390.659 211.697C389.719 211.51 388.855 211.049 388.178 210.371C387.5 209.693 387.038 208.83 386.851 207.89C386.664 206.95 386.76 205.976 387.127 205.09C387.494 204.205 388.115 203.448 388.912 202.915C389.709 202.383 390.646 202.099 391.604 202.099C392.241 202.097 392.872 202.221 393.461 202.464C394.049 202.707 394.584 203.064 395.035 203.514C395.485 203.964 395.842 204.499 396.085 205.088C396.328 205.677 396.452 206.308 396.45 206.945Z" fill="black"/>
<path d="M360.046 290.572C359.794 290.572 359.545 290.509 359.323 290.39C359.1 290.27 358.91 290.098 358.77 289.888C358.63 289.679 358.543 289.438 358.518 289.186C358.493 288.935 358.53 288.682 358.625 288.448L393.317 206.347C393.496 206.004 393.797 205.741 394.161 205.61C394.525 205.479 394.925 205.49 395.281 205.641C395.638 205.792 395.924 206.071 396.084 206.423C396.244 206.775 396.266 207.174 396.144 207.542L361.453 289.63C361.336 289.907 361.141 290.144 360.891 290.312C360.641 290.479 360.347 290.57 360.046 290.572Z" fill="#263238"/>
<path d="M394.724 208.498C394.394 208.494 394.074 208.387 393.808 208.192L330.811 160.942C330.487 160.699 330.273 160.337 330.216 159.936C330.159 159.535 330.263 159.128 330.506 158.804C330.749 158.48 331.111 158.266 331.512 158.209C331.912 158.151 332.32 158.256 332.644 158.499L395.653 205.723C395.908 205.918 396.095 206.189 396.189 206.496C396.282 206.803 396.277 207.131 396.175 207.436C396.073 207.74 395.878 208.004 395.618 208.192C395.357 208.38 395.045 208.483 394.724 208.484V208.498Z" fill="#263238"/>
<path d="M399.571 206.945C399.571 207.903 399.286 208.84 398.754 209.637C398.222 210.434 397.465 211.055 396.579 211.422C395.694 211.788 394.719 211.884 393.779 211.697C392.839 211.51 391.976 211.049 391.298 210.371C390.621 209.693 390.159 208.83 389.972 207.89C389.785 206.95 389.881 205.976 390.248 205.09C390.615 204.205 391.236 203.448 392.033 202.915C392.829 202.383 393.766 202.099 394.725 202.099C395.362 202.097 395.993 202.221 396.581 202.464C397.17 202.707 397.705 203.064 398.155 203.514C398.606 203.964 398.962 204.499 399.205 205.088C399.448 205.677 399.572 206.308 399.571 206.945Z" fill="#263238"/>
<path d="M331.728 164.553C334.397 164.553 336.561 162.389 336.561 159.72C336.561 157.051 334.397 154.888 331.728 154.888C329.059 154.888 326.896 157.051 326.896 159.72C326.896 162.389 329.059 164.553 331.728 164.553Z" fill="#263238"/>
<path d="M324.957 181.812C323.442 183.327 321.511 184.359 319.41 184.777C317.308 185.195 315.13 184.981 313.151 184.161C311.171 183.341 309.479 181.952 308.289 180.171C307.098 178.389 306.463 176.295 306.463 174.152C306.463 172.009 307.098 169.915 308.289 168.133C309.479 166.352 311.171 164.963 313.151 164.143C315.13 163.323 317.308 163.109 319.41 163.527C321.511 163.945 323.442 164.976 324.957 166.491C326.985 168.525 328.125 171.28 328.125 174.152C328.125 177.024 326.985 179.779 324.957 181.812Z" fill="#0E9E70"/>
<path opacity="0.7" d="M324.957 181.812C323.442 183.327 321.511 184.359 319.41 184.777C317.308 185.195 315.13 184.981 313.151 184.161C311.171 183.341 309.479 181.952 308.289 180.171C307.098 178.389 306.463 176.295 306.463 174.152C306.463 172.009 307.098 169.915 308.289 168.133C309.479 166.352 311.171 164.963 313.151 164.143C315.13 163.323 317.308 163.109 319.41 163.527C321.511 163.945 323.442 164.976 324.957 166.491C326.985 168.525 328.125 171.28 328.125 174.152C328.125 177.024 326.985 179.779 324.957 181.812Z" fill="white"/>
<path d="M331.728 159.72C329.574 157.564 327.016 155.853 324.201 154.686C321.385 153.519 318.367 152.918 315.319 152.918C312.271 152.918 309.253 153.519 306.437 154.686C303.621 155.853 301.063 157.564 298.909 159.72L331.728 192.566C333.887 190.411 335.6 187.851 336.769 185.033C337.937 182.215 338.539 179.194 338.539 176.143C338.539 173.093 337.937 170.072 336.769 167.254C335.6 164.436 333.887 161.876 331.728 159.72Z" fill="#263238"/>
<g opacity="0.2">
<path opacity="0.2" d="M298.896 159.721L161.06 292.219H302.467L331.728 192.553L298.896 159.721Z" fill="#0E9E70"/>
<path opacity="0.7" d="M298.896 159.721L161.06 292.219H302.467L331.728 192.553L298.896 159.721Z" fill="white"/>
</g>
</g>
<defs>
<clipPath id="clip0_816_463">
<rect width="428" height="525" fill="white"/>
</clipPath>
</defs>
</svg>
