<svg width="424" height="519" viewBox="0 0 424 519" fill="none" xmlns="http://www.w3.org/2000/svg">
<g clip-path="url(#clip0_816_644)">
<path d="M217.5 519.423C351.781 519.423 460.638 513.067 460.638 505.228C460.638 497.388 351.781 491.032 217.5 491.032C83.2184 491.032 -25.6382 497.388 -25.6382 505.228C-25.6382 513.067 83.2184 519.423 217.5 519.423Z" fill="#F5F5F5"/>
<path d="M394.452 411.93C381.912 421.599 378.288 442.779 377.648 457.701C377.648 459.068 375.479 459.068 375.529 457.701C376.194 441.901 379.793 420.57 393.386 410.049C394.465 409.209 395.531 411.053 394.452 411.88V411.93Z" fill="#263238"/>
<path d="M365.334 401.058C368.532 400.694 371.228 403.967 372.62 406.363C379.831 418.84 377.047 437.713 375.68 451.068C375.542 452.409 373.41 452.422 373.548 451.068C374.877 438.039 377.31 421.059 371.416 408.67C370.4 406.551 368.244 402.851 365.334 403.19C363.98 403.34 363.993 401.221 365.334 401.058Z" fill="#263238"/>
<path d="M357.559 418.239C370.977 414.928 372.607 444.685 373.046 451.106C373.134 452.473 371.015 452.46 370.927 451.106C370.388 442.416 369.961 429.976 363.679 423.016C362.425 421.612 360.205 419.768 358.124 420.295C356.794 420.621 356.23 418.565 357.559 418.239Z" fill="#263238"/>
<path d="M397.336 432.684C386.238 424.458 382.627 446.052 382.012 452.284C381.874 453.626 379.755 453.639 379.893 452.284C380.583 445.224 381.661 432.421 389.812 429.462C391.251 428.992 392.782 428.873 394.276 429.115C395.77 429.358 397.185 429.954 398.402 430.854C399.493 431.656 398.402 433.5 397.336 432.684Z" fill="#263238"/>
<path d="M353.195 436.584C354.034 435.697 355.068 435.018 356.215 434.6C357.362 434.182 358.591 434.037 359.804 434.176C366.575 435.305 368.444 445.462 369.472 450.817C369.735 452.159 367.691 452.723 367.428 451.381C366.538 446.817 362.274 430.414 354.7 438.076C354.496 438.242 354.238 438.326 353.975 438.313C353.713 438.3 353.465 438.19 353.278 438.005C353.092 437.82 352.98 437.573 352.965 437.31C352.949 437.048 353.031 436.789 353.195 436.584Z" fill="#263238"/>
<path d="M393.16 506.169H361.07C358.184 503.732 355.863 500.694 354.271 497.268C352.679 493.841 351.854 490.109 351.854 486.331C351.854 477.227 356.97 449.965 356.97 449.965H397.261C397.261 449.965 402.377 477.264 402.377 486.331C402.376 490.109 401.551 493.841 399.959 497.268C398.367 500.694 396.047 503.732 393.16 506.169Z" fill="#263238"/>
<path d="M398.277 443.155C388.596 443.155 379.115 439.23 377.122 434.377C375.128 429.524 381.335 425.599 391.016 425.599C394.133 425.607 397.238 426.003 400.258 426.778C402.939 425.959 405.731 425.561 408.534 425.599C418.215 425.599 427.683 429.524 429.689 434.377C431.696 439.23 425.476 443.155 415.795 443.155H398.277Z" fill="#0DA434"/>
<path opacity="0.1" d="M398.277 443.155C388.596 443.155 379.115 439.23 377.122 434.377C375.128 429.524 381.335 425.599 391.016 425.599C394.133 425.607 397.238 426.003 400.258 426.778C402.939 425.959 405.731 425.561 408.534 425.599C418.215 425.599 427.683 429.524 429.689 434.377C431.696 439.23 425.476 443.155 415.795 443.155H398.277Z" fill="black"/>
<path d="M335.113 424.395C327.2 424.395 323.99 421.185 327.952 417.222C331.915 413.26 341.533 410.062 349.459 410.062C351.566 409.992 353.667 410.319 355.653 411.028C358.323 410.41 361.052 410.086 363.792 410.062C371.704 410.062 374.915 413.272 370.952 417.222C366.989 421.173 357.371 424.395 349.459 424.395H335.113Z" fill="#0DA434"/>
<path d="M407.932 417.223C397.963 417.223 385.862 413.185 380.871 408.206C375.88 403.228 379.931 399.19 389.9 399.19C393.346 399.237 396.777 399.658 400.132 400.444C402.631 399.541 405.277 399.115 407.932 399.19C417.889 399.19 430.003 403.228 434.981 408.206C439.959 413.185 435.922 417.223 425.965 417.223H407.932Z" fill="#0DA434"/>
<path opacity="0.2" d="M407.932 417.223C397.963 417.223 385.862 413.185 380.871 408.206C375.88 403.228 379.931 399.19 389.9 399.19C393.346 399.237 396.777 399.658 400.132 400.444C402.631 399.541 405.277 399.115 407.932 399.19C417.889 399.19 430.003 403.228 434.981 408.206C439.959 413.185 435.922 417.223 425.965 417.223H407.932Z" fill="white"/>
<path d="M352.556 405.586C347.54 405.586 344.367 403.567 345.408 401.071C346.449 398.576 351.314 396.57 356.293 396.57C357.733 396.544 359.168 396.747 360.544 397.171C362.101 396.771 363.702 396.569 365.309 396.57C370.325 396.57 373.485 398.588 372.457 401.071C371.429 403.554 366.55 405.586 361.572 405.586H352.556Z" fill="#0DA434"/>
<path opacity="0.3" d="M352.556 405.586C347.54 405.586 344.367 403.567 345.408 401.071C346.449 398.576 351.314 396.57 356.293 396.57C357.733 396.544 359.168 396.747 360.544 397.171C362.101 396.771 363.702 396.569 365.309 396.57C370.325 396.57 373.485 398.588 372.457 401.071C371.429 403.554 366.55 405.586 361.572 405.586H352.556Z" fill="white"/>
<path d="M346.812 441.651C341.796 441.651 336.956 439.632 335.928 437.149C334.899 434.666 338.097 432.634 343.075 432.634C344.683 432.638 346.284 432.844 347.841 433.249C349.216 432.82 350.651 432.613 352.092 432.634C357.108 432.634 361.948 434.653 362.976 437.149C364.005 439.644 360.807 441.651 355.829 441.651H346.812Z" fill="#0DA434"/>
<path opacity="0.2" d="M346.812 441.651C341.796 441.651 336.956 439.632 335.928 437.149C334.899 434.666 338.097 432.634 343.075 432.634C344.683 432.638 346.284 432.844 347.841 433.249C349.216 432.82 350.651 432.613 352.092 432.634C357.108 432.634 361.948 434.653 362.976 437.149C364.005 439.644 360.807 441.651 355.829 441.651H346.812Z" fill="black"/>
<path d="M356.055 454.981C356.594 451.921 356.97 449.965 356.97 449.965H397.261C397.261 449.965 397.637 451.959 398.177 454.981H356.055Z" fill="#0DA434"/>
<path d="M354.299 412.771C354.299 412.771 343.251 416.457 339.752 422.527C339.752 422.527 340.304 413.686 354.299 412.771Z" fill="#FAFAFA"/>
<path d="M359.503 398.312C357.723 399.338 356.153 400.691 354.876 402.3C355.183 401.262 355.783 400.333 356.603 399.626C357.424 398.919 358.431 398.463 359.503 398.312Z" fill="#FAFAFA"/>
<path d="M402.377 402.312C402.377 402.312 414.353 406.701 421.727 414.99C419.769 411.468 416.986 408.474 413.615 406.266C410.245 404.057 406.388 402.701 402.377 402.312Z" fill="#FAFAFA"/>
<path d="M402.377 428.973C407.357 431.046 411.688 434.42 414.917 438.741C414.917 438.741 412.698 430.44 402.377 428.973Z" fill="#E6E6E6"/>
<path d="M348.029 435.055C348.915 435.521 349.668 436.206 350.217 437.044C350.766 437.882 351.091 438.846 351.164 439.845C349.698 438.567 348.613 436.909 348.029 435.055Z" fill="#FAFAFA"/>
<path d="M38.8677 268.134C39.2776 267.333 39.9334 266.684 40.739 266.282C41.5446 265.88 42.4577 265.747 43.3445 265.902C44.233 266.124 45.0309 266.615 45.6283 267.309C46.2257 268.003 46.5932 268.866 46.6802 269.777C47.2959 269.329 48.0331 269.078 48.7944 269.058C49.5557 269.038 50.3052 269.249 50.9438 269.664C51.5816 270.124 52.0789 270.752 52.3801 271.479C52.6813 272.205 52.7744 273.001 52.6492 273.777C53.0026 273.52 53.4056 273.34 53.8327 273.247C54.2597 273.154 54.7014 273.151 55.1297 273.239C55.5579 273.326 55.9632 273.501 56.3199 273.754C56.6765 274.006 56.9767 274.33 57.2012 274.705C57.6139 275.513 57.6995 276.448 57.4403 277.317C57.181 278.186 56.5969 278.921 55.8093 279.37C56.3634 279.441 56.8715 279.715 57.2353 280.139C57.5991 280.563 57.7926 281.107 57.7786 281.666C57.7646 282.224 57.5439 282.758 57.1593 283.163C56.7747 283.568 56.2534 283.816 55.6964 283.86C56.2576 283.902 56.7868 284.137 57.1938 284.526C57.6009 284.915 57.8605 285.433 57.9285 285.991C57.9906 286.558 57.858 287.128 57.5526 287.609C57.2472 288.09 56.7871 288.453 56.2482 288.637C56.515 288.79 56.744 289 56.9182 289.254C57.0923 289.507 57.2072 289.796 57.2542 290.1C57.3012 290.403 57.2791 290.714 57.1896 291.008C57.1001 291.302 56.9455 291.571 56.7372 291.797C56.5013 291.984 56.2234 292.11 55.9276 292.165C55.6317 292.219 55.3271 292.201 55.0402 292.11C54.7532 292.02 54.4928 291.861 54.2815 291.647C54.0702 291.433 53.9145 291.17 53.828 290.882C53.7843 290.965 53.7219 291.037 53.6457 291.091C53.5696 291.146 53.4817 291.182 53.3892 291.196C53.2966 291.211 53.2019 291.204 53.1127 291.175C53.0234 291.147 52.942 291.098 52.8749 291.032C52.815 290.957 52.772 290.869 52.7489 290.775C52.7258 290.681 52.723 290.583 52.7409 290.488C52.7587 290.393 52.7967 290.303 52.8522 290.224C52.9078 290.145 52.9797 290.078 53.063 290.029C52.9254 290.181 52.7492 290.292 52.5533 290.351C52.3573 290.41 52.149 290.415 51.9506 290.364C51.7523 290.314 51.5713 290.211 51.4271 290.066C51.2828 289.921 51.1808 289.739 51.1319 289.54C51.5081 291.547 49.1129 293.453 47.3699 292.487C47.46 292.709 47.5023 292.948 47.494 293.188C47.4857 293.427 47.4269 293.662 47.3216 293.878C47.2163 294.093 47.0668 294.284 46.8828 294.437C46.6988 294.591 46.4845 294.704 46.2538 294.769C45.3168 294.943 44.3487 294.755 43.5452 294.243C42.742 293.74 41.8309 293.434 40.8867 293.352C40.0682 293.449 39.2691 293.669 38.5166 294.004C37.2503 294.387 35.9027 294.412 34.6233 294.075C33.3438 293.739 32.1826 293.055 31.2685 292.098C30.9286 292.494 30.4936 292.797 30.0044 292.978C29.5152 293.159 28.9879 293.213 28.4723 293.134C27.9567 293.054 27.4697 292.845 27.0572 292.526C26.6447 292.207 26.3203 291.788 26.1145 291.308C26.0293 291.799 25.7881 292.25 25.4267 292.593C25.0653 292.937 24.603 293.154 24.1082 293.214C23.6058 293.223 23.1147 293.065 22.7111 292.766C22.3075 292.466 22.014 292.042 21.876 291.559C21.876 291.998 21.876 292.437 21.8133 292.888C20.0201 293.315 18.2394 290.982 19.0044 289.214C18.343 289.185 17.7131 288.924 17.2248 288.477C16.7365 288.03 16.421 287.425 16.3334 286.769C16.2633 286.106 16.4232 285.439 16.7861 284.88C17.1491 284.32 17.6931 283.903 18.3272 283.697C17.2405 283.348 16.2911 282.666 15.614 281.747C14.9369 280.829 14.5665 279.72 14.5554 278.579C14.5443 277.438 14.8931 276.322 15.5522 275.39C16.2112 274.459 17.1471 273.758 18.2269 273.389C18.6389 273.225 19.086 273.171 19.5252 273.23C19.9644 273.289 20.381 273.46 20.7349 273.727C20.9006 273.874 21.0333 274.055 21.1242 274.257C21.2151 274.459 21.262 274.678 21.262 274.9C21.262 275.121 21.2151 275.34 21.1242 275.543C21.0333 275.745 20.9006 275.925 20.7349 276.072C20.439 275.033 20.4867 273.926 20.8708 272.916C21.255 271.906 21.955 271.047 22.8667 270.467C23.7893 269.972 24.8574 269.82 25.8813 270.038C26.9052 270.256 27.8187 270.83 28.4595 271.658C28.1559 271.199 27.994 270.66 27.994 270.109C27.994 269.559 28.1559 269.02 28.4595 268.561C28.7665 268.129 29.2024 267.805 29.7048 267.636C30.2072 267.467 30.7503 267.461 31.256 267.62C31.3788 266.928 31.7581 266.307 32.3182 265.882C32.8783 265.457 33.5781 265.258 34.2781 265.325C34.9737 265.478 35.5895 265.88 36.0098 266.455C36.4301 267.03 36.6259 267.739 36.5604 268.448C36.6277 268.189 36.7667 267.955 36.9613 267.772C37.1559 267.589 37.3983 267.465 37.6605 267.414C37.9226 267.363 38.1939 267.387 38.443 267.483C38.6921 267.58 38.9089 267.745 39.0684 267.959C39.8584 267.746 38.8677 268.134 38.8677 268.134Z" fill="#0DA434"/>
<g opacity="0.4">
<path opacity="0.4" d="M38.3661 281.565C38.6379 281.362 38.9481 281.216 39.2778 281.136C39.6076 281.056 39.9502 281.044 40.2847 281.101C40.6132 281.156 40.9193 281.303 41.1678 281.525C41.4162 281.747 41.597 282.035 41.6892 282.355C41.757 282.688 41.6982 283.034 41.5243 283.327C41.3504 283.619 41.0739 283.836 40.7487 283.935C39.9461 284.135 39.1436 283.471 38.3285 283.584C38.0417 283.648 37.7607 283.737 37.4883 283.847C36.884 283.903 36.2747 283.826 35.703 283.623C35.1312 283.419 34.6107 283.093 34.1777 282.668C33.8251 282.43 33.5156 282.133 33.2623 281.79C33.1366 281.609 33.0612 281.397 33.0435 281.177C33.0259 280.957 33.0668 280.736 33.162 280.536C33.3542 280.308 33.6061 280.138 33.8897 280.045C34.1732 279.952 34.4771 279.94 34.7671 280.01C35.9601 280.153 37.0894 280.626 38.0275 281.377C38.0275 281.189 38.0275 281 37.9272 280.812L38.3661 281.565Z" fill="#FAFAFA"/>
<path opacity="0.4" d="M21.3245 280.549C21.6335 280.311 21.9814 280.128 22.3527 280.009C22.5729 279.939 22.8113 279.952 23.0224 280.047C23.2335 280.141 23.4025 280.31 23.4971 280.52C23.5917 280.731 23.6053 280.97 23.5353 281.19C23.4653 281.41 23.3167 281.597 23.1177 281.715C22.6733 282.013 22.159 282.19 21.6254 282.229C21.0862 282.304 20.3714 282.329 20.1332 281.853C20.0555 281.67 20.038 281.467 20.083 281.273C20.1281 281.079 20.2335 280.905 20.384 280.774C20.698 280.525 21.0613 280.346 21.4499 280.248L21.3245 280.549Z" fill="#FAFAFA"/>
<path opacity="0.4" d="M48.2103 271.696C48.7518 271.927 49.2313 272.283 49.6103 272.734C49.9893 273.185 50.2571 273.718 50.3922 274.291C50.4675 274.643 50.3922 275.082 50.154 275.27C49.9164 275.364 49.6517 275.364 49.4141 275.27L46.2916 274.53C46.8017 274.687 47.2779 274.938 47.6961 275.27C47.9034 275.44 48.0623 275.661 48.157 275.912C48.2516 276.163 48.2786 276.435 48.2353 276.699C48.1328 276.996 47.9369 277.252 47.677 277.428C47.417 277.604 47.107 277.692 46.7932 277.677C46.1642 277.626 45.5654 277.385 45.0753 276.988C44.7846 276.822 44.5354 276.593 44.3464 276.317C44.1574 276.041 44.0336 275.726 43.9843 275.395C43.9843 274.718 44.8245 274.141 45.3386 274.53C44.1488 274.206 43.0184 273.694 41.9904 273.012C41.6018 272.782 41.268 272.47 41.0123 272.097C40.8886 271.914 40.8153 271.702 40.7999 271.482C40.7845 271.262 40.8275 271.041 40.9245 270.843C41.9904 268.899 43.3322 271.746 43.9843 271.997C45.2508 272.473 46.6553 271.031 48.2103 271.696Z" fill="#FAFAFA"/>
<path opacity="0.4" d="M53.0882 279.959C53.146 280.147 53.1509 280.347 53.1022 280.537C53.0535 280.728 52.9532 280.901 52.8123 281.038C52.7364 281.099 52.6479 281.143 52.553 281.167C52.4582 281.19 52.3594 281.192 52.2636 281.173C52.1678 281.154 52.0774 281.114 51.9989 281.056C51.9203 280.998 51.8555 280.923 51.8091 280.837C52.532 280.98 53.1907 281.349 53.6901 281.89C54.1165 282.48 54.0162 283.495 53.3265 283.721C53.1088 283.759 52.8857 283.753 52.6703 283.704C52.4549 283.654 52.2516 283.562 52.0725 283.433C50.9449 282.818 49.871 282.109 48.8622 281.314C49.1632 282.028 48.4233 282.843 47.6082 282.906C46.8243 282.888 46.0658 282.624 45.4388 282.154C44.6237 281.652 43.6957 280.9 43.9089 279.959C44.0582 279.572 44.3527 279.258 44.7298 279.085C45.1069 278.912 45.5368 278.892 45.9278 279.031C46.699 279.343 47.3709 279.859 47.8716 280.524C47.4452 279.897 48.0596 278.944 48.8246 278.843C49.1995 278.823 49.5737 278.895 49.9146 279.052C50.2555 279.21 50.5528 279.448 50.7808 279.746C49.9156 279.27 49.7149 278.028 50.8811 277.878C51.621 277.79 52.9001 279.332 53.0882 279.959Z" fill="#FAFAFA"/>
<path opacity="0.4" d="M29.2876 277.176C29.4528 277.11 29.6303 277.079 29.8082 277.087C29.986 277.095 30.1602 277.14 30.3191 277.22C30.4781 277.301 30.6181 277.414 30.7299 277.552C30.8417 277.691 30.9228 277.852 30.9676 278.024C31.0125 278.196 31.0202 278.376 30.9901 278.552C30.9601 278.727 30.893 278.894 30.7934 279.042C30.6938 279.189 30.5639 279.314 30.4124 279.407C30.2608 279.501 30.0912 279.561 29.9146 279.584C30.4301 279.633 30.9064 279.88 31.2438 280.273C31.4352 280.486 31.5344 280.765 31.5197 281.051C31.4662 281.258 31.3442 281.442 31.1736 281.571C31.0029 281.701 30.7935 281.77 30.5792 281.766C30.1402 281.754 29.7103 281.638 29.3252 281.427C29.767 281.417 30.2023 281.535 30.5792 281.766C30.6646 281.825 30.737 281.902 30.7923 281.99C30.8476 282.079 30.8845 282.177 30.9009 282.28C30.9172 282.383 30.9127 282.488 30.8876 282.589C30.8625 282.691 30.8174 282.786 30.7548 282.869C30.6109 282.971 30.4433 283.036 30.2678 283.055C30.0923 283.075 29.9146 283.05 29.7516 282.982C28.9913 282.767 28.2944 282.371 27.7201 281.828C27.5133 282.079 27.2492 282.276 26.9501 282.402C26.6511 282.529 26.3259 282.581 26.0021 282.556C25.8437 282.532 25.6919 282.476 25.5559 282.391C25.4199 282.307 25.3025 282.195 25.211 282.064C25.1194 281.932 25.0556 281.784 25.0235 281.627C24.9914 281.47 24.9915 281.308 25.024 281.151C25.1127 280.939 25.2579 280.756 25.4436 280.621C25.6294 280.486 25.8486 280.405 26.0773 280.386C26.5387 280.363 26.9999 280.435 27.4317 280.599C26.9407 280.315 26.5606 279.873 26.3532 279.345C26.1902 278.819 26.5413 278.091 27.0931 278.167C27.6449 278.242 28.021 279.044 28.5101 279.345C29.0995 278.844 27.9709 277.665 29.2876 277.176Z" fill="#FAFAFA"/>
<path opacity="0.4" d="M40.3976 274.605C40.7249 274.875 40.9782 275.224 41.1339 275.619C41.2897 276.013 41.3427 276.441 41.288 276.862C41.2954 277.331 41.1758 277.793 40.9418 278.199C40.7077 278.605 40.368 278.941 39.9587 279.169C39.6695 279.262 39.3639 279.291 39.0624 279.256C38.7609 279.22 38.4704 279.121 38.2104 278.964C37.9504 278.808 37.7269 278.597 37.5548 278.347C37.3827 278.097 37.266 277.813 37.2125 277.514C37.1506 276.901 37.2786 276.283 37.5791 275.745C37.8796 275.207 38.3382 274.774 38.8928 274.505C39.1334 274.4 39.3956 274.354 39.6574 274.372C39.9192 274.389 40.173 274.469 40.3976 274.605Z" fill="#FAFAFA"/>
<path opacity="0.4" d="M32.5226 273.602L32.2342 273.852C32.4161 273.625 32.664 273.46 32.9437 273.38C33.2234 273.3 33.5212 273.309 33.7957 273.405C34.0703 273.501 34.3081 273.681 34.4764 273.918C34.6447 274.155 34.7351 274.439 34.7351 274.73C34.7351 275.021 34.6447 275.305 34.4764 275.542C34.3081 275.78 34.0703 275.959 33.7957 276.055C33.5212 276.152 33.2234 276.161 32.9437 276.08C32.664 276 32.4161 275.835 32.2342 275.608C31.8229 275.816 31.355 275.883 30.902 275.799C30.449 275.715 30.036 275.485 29.7262 275.144C29.5849 274.972 29.481 274.772 29.4212 274.557C29.3614 274.342 29.3469 274.118 29.3788 273.897C29.4106 273.676 29.4881 273.465 29.6062 273.276C29.7243 273.087 29.8805 272.924 30.0648 272.799C30.2576 272.688 30.4767 272.63 30.6994 272.631C30.9221 272.632 31.1405 272.693 31.332 272.806C31.5236 272.92 31.6814 273.083 31.7893 273.278C31.8971 273.472 31.9512 273.692 31.9458 273.915L32.2844 273.539L32.5226 273.602Z" fill="#FAFAFA"/>
<path opacity="0.4" d="M23.8451 275.007C24.4446 275.51 24.9064 276.157 25.1869 276.888C25.3078 277.261 25.2833 277.666 25.1182 278.022C24.9531 278.378 24.6596 278.658 24.2965 278.806C23.5441 278.995 22.8294 278.368 22.3905 277.728C22.1714 277.453 22.0171 277.132 21.939 276.789C21.8608 276.446 21.8608 276.09 21.939 275.747C22.1522 275.082 23.1178 274.693 23.5943 275.207L23.8451 275.007Z" fill="#FAFAFA"/>
<path opacity="0.4" d="M36.3599 270.442C36.4395 270.289 36.5495 270.155 36.6833 270.046C36.8171 269.938 36.9718 269.859 37.1376 269.813C37.3035 269.767 37.477 269.756 37.6474 269.78C37.8178 269.804 37.9814 269.863 38.128 269.953C38.4118 270.155 38.6201 270.446 38.7201 270.78C38.82 271.114 38.8058 271.471 38.6798 271.796C38.5377 272.113 38.3144 272.386 38.0325 272.589C37.7506 272.792 37.4202 272.916 37.0747 272.95C36.222 273.05 35.2062 272.36 35.4069 271.52C35.2042 271.749 34.9485 271.925 34.6621 272.032C34.3757 272.139 34.0673 272.175 33.7641 272.135C33.1618 272.04 32.5855 271.823 32.0712 271.495C31.3565 271.081 30.5915 270.442 30.6668 269.627C30.7121 269.295 30.8703 268.99 31.1147 268.761C31.3591 268.533 31.6748 268.396 32.0085 268.373C32.3393 268.361 32.6692 268.415 32.9791 268.531C33.289 268.647 33.5729 268.823 33.8143 269.05C34.1805 269.417 34.5656 269.764 34.968 270.091C35.169 270.253 35.4102 270.359 35.6661 270.397C35.922 270.434 36.1833 270.402 36.4226 270.304L36.3599 270.442Z" fill="#FAFAFA"/>
</g>
<path d="M25.6629 309.178H47.1941L49.3008 287.483H23.5562L25.6629 309.178Z" fill="#0DA434"/>
<path opacity="0.3" d="M25.6629 309.178H47.1941L49.3008 287.483H23.5562L25.6629 309.178Z" fill="black"/>
<path d="M21.8885 288.6H51.1819L51.7086 285.716H21.3618L21.8885 288.6Z" fill="#FAFAFA"/>
<path d="M58.6309 322.783H68.0609L68.3368 503.434C68.3368 504.344 67.9765 505.216 67.3349 505.86C66.6932 506.504 65.8225 506.867 64.9134 506.87C64.0119 506.87 63.1468 506.515 62.5059 505.881C61.8649 505.247 61.4999 504.386 61.49 503.485L58.6309 322.783Z" fill="#263238"/>
<path opacity="0.2" d="M58.6309 322.783H68.0609L68.3368 503.434C68.3368 504.344 67.9765 505.216 67.3349 505.86C66.6932 506.504 65.8225 506.867 64.9134 506.87C64.0119 506.87 63.1468 506.515 62.5059 505.881C61.8649 505.247 61.4999 504.386 61.49 503.485L58.6309 322.783Z" fill="white"/>
<path d="M7.05371 322.783H16.4963L16.7597 503.434C16.7613 503.885 16.674 504.332 16.5027 504.748C16.3314 505.165 16.0795 505.544 15.7614 505.863C15.4434 506.182 15.0654 506.436 14.6492 506.609C14.2331 506.781 13.7869 506.87 13.3363 506.87C12.4348 506.87 11.5697 506.515 10.9287 505.881C10.2878 505.247 9.92274 504.386 9.91283 503.485L7.05371 322.783Z" fill="#263238"/>
<path opacity="0.2" d="M7.05371 322.783H16.4963L16.7597 503.434C16.7613 503.885 16.674 504.332 16.5027 504.748C16.3314 505.165 16.0795 505.544 15.7614 505.863C15.4434 506.182 15.0654 506.436 14.6492 506.609C14.2331 506.781 13.7869 506.87 13.3363 506.87C12.4348 506.87 11.5697 506.515 10.9287 505.881C10.2878 505.247 9.92274 504.386 9.91283 503.485L7.05371 322.783Z" fill="white"/>
<path d="M282.946 322.783H292.389L292.652 503.434C292.654 503.885 292.567 504.332 292.395 504.748C292.224 505.165 291.972 505.544 291.654 505.863C291.336 506.182 290.958 506.436 290.542 506.609C290.126 506.781 289.679 506.87 289.229 506.87C288.327 506.87 287.462 506.515 286.821 505.881C286.18 505.247 285.815 504.386 285.805 503.485L282.946 322.783Z" fill="#263238"/>
<path opacity="0.2" d="M282.946 322.783H292.389L292.652 503.434C292.654 503.885 292.567 504.332 292.395 504.748C292.224 505.165 291.972 505.544 291.654 505.863C291.336 506.182 290.958 506.436 290.542 506.609C290.126 506.781 289.679 506.87 289.229 506.87C288.327 506.87 287.462 506.515 286.821 505.881C286.18 505.247 285.815 504.386 285.805 503.485L282.946 322.783Z" fill="white"/>
<path d="M231.382 322.783H240.812L241.088 503.434C241.088 504.344 240.728 505.216 240.086 505.86C239.444 506.504 238.573 506.867 237.664 506.87C236.762 506.87 235.895 506.515 235.252 505.882C234.609 505.248 234.242 504.387 234.228 503.485L231.382 322.783Z" fill="#263238"/>
<path opacity="0.2" d="M231.382 322.783H240.812L241.088 503.434C241.088 504.344 240.728 505.216 240.086 505.86C239.444 506.504 238.573 506.867 237.664 506.87C236.762 506.87 235.895 506.515 235.252 505.882C234.609 505.248 234.242 504.387 234.228 503.485L231.382 322.783Z" fill="white"/>
<path d="M7.42989 356.641L291.499 354.509V322.783H7.36719L7.42989 356.641Z" fill="#AF6E22"/>
<path opacity="0.3" d="M58.6307 323.021L59.1574 356.24L7.42989 356.641L7.36719 322.783L58.6307 323.021Z" fill="black"/>
<path d="M302.559 315.172C302.559 310.895 300.966 307.434 299.01 307.422H3.06591C1.10967 307.422 -0.48291 310.895 -0.48291 315.172C-0.48291 319.435 1.10967 322.896 3.06591 322.921H299.01C300.966 322.896 302.559 319.435 302.559 315.172Z" fill="#263238"/>
<path opacity="0.1" d="M302.559 315.172C302.559 310.895 300.966 307.434 299.01 307.422H3.06591C1.10967 307.422 -0.48291 310.895 -0.48291 315.172C-0.48291 319.435 1.10967 322.896 3.06591 322.921H299.01C300.966 322.896 302.559 319.435 302.559 315.172Z" fill="white"/>
<path opacity="0.3" d="M75.9108 315.172C75.9108 310.895 74.3182 307.434 72.3494 307.422H3.06591C1.10967 307.422 -0.48291 310.895 -0.48291 315.172C-0.48291 319.435 1.10967 322.896 3.06591 322.921H72.3369C74.3182 322.896 75.8982 319.435 75.9108 315.172Z" fill="black"/>
<path d="M193.774 161.005C192.866 161.005 191.995 160.645 191.353 160.003C190.711 159.361 190.351 158.49 190.351 157.582V149.142H188.658C187.491 149.142 186.371 148.679 185.546 147.853C184.72 147.028 184.256 145.908 184.256 144.741V104.776C184.263 103.615 184.728 102.504 185.55 101.684C186.372 100.864 187.484 100.403 188.645 100.399H251.019C252.183 100.399 253.3 100.862 254.123 101.685C254.946 102.508 255.408 103.624 255.408 104.788V144.741C255.408 145.908 254.945 147.028 254.119 147.853C253.294 148.679 252.174 149.142 251.007 149.142H210.252L195.831 160.29C195.243 160.749 194.52 161 193.774 161.005ZM188.658 101.653C187.83 101.657 187.036 101.986 186.449 102.571C185.862 103.155 185.529 103.948 185.523 104.776V144.741C185.526 145.575 185.859 146.373 186.448 146.963C187.038 147.552 187.837 147.885 188.67 147.888H191.58V157.582C191.58 158.157 191.808 158.709 192.215 159.116C192.622 159.523 193.174 159.751 193.749 159.751C194.201 159.74 194.638 159.591 195.003 159.325L209.788 147.888H250.969C251.803 147.885 252.602 147.552 253.191 146.963C253.781 146.373 254.113 145.575 254.117 144.741V104.788C254.117 103.957 253.786 103.16 253.198 102.572C252.611 101.984 251.813 101.653 250.982 101.653H188.658Z" fill="black"/>
<path d="M216.509 95.4082H208.697V96.3612H216.509V95.4082Z" fill="black"/>
<path d="M179.98 106.669H179.015V101.954C179.018 100.213 179.712 98.5452 180.944 97.3157C182.176 96.0861 183.845 95.3955 185.586 95.3955H203.004V96.336H185.586C184.099 96.336 182.673 96.9266 181.622 97.9778C180.571 99.029 179.98 100.455 179.98 101.941V106.669Z" fill="black"/>
<path d="M205.775 128.2C208.06 128.2 209.913 126.348 209.913 124.062C209.913 121.777 208.06 119.924 205.775 119.924C203.489 119.924 201.637 121.777 201.637 124.062C201.637 126.348 203.489 128.2 205.775 128.2Z" fill="black"/>
<path d="M223.87 124.062C223.873 124.884 223.631 125.687 223.177 126.371C222.722 127.056 222.075 127.59 221.317 127.906C220.558 128.222 219.723 128.306 218.918 128.147C218.112 127.988 217.371 127.594 216.789 127.014C216.207 126.434 215.811 125.694 215.65 124.889C215.488 124.083 215.57 123.248 215.884 122.489C216.197 121.73 216.729 121.081 217.412 120.624C218.095 120.168 218.898 119.924 219.72 119.924C220.818 119.924 221.872 120.359 222.65 121.135C223.428 121.911 223.867 122.963 223.87 124.062Z" fill="black"/>
<path d="M233.676 128.2C235.962 128.2 237.814 126.348 237.814 124.062C237.814 121.777 235.962 119.924 233.676 119.924C231.391 119.924 229.538 121.777 229.538 124.062C229.538 126.348 231.391 128.2 233.676 128.2Z" fill="black"/>
<path d="M82.0681 224.833L87.0841 224.595L94.0689 301.804H88.7895C86.1436 301.553 85.5291 298.593 84.7893 293.026L79.8987 239.104C78.6698 226.325 80.8141 224.833 82.0681 224.833Z" fill="#0DA434"/>
<path opacity="0.3" d="M82.0681 224.833L87.0841 224.595L94.0689 301.804H88.7895C86.1436 301.553 85.5291 298.593 84.7893 293.026L79.8987 239.104C78.6698 226.325 80.8141 224.833 82.0681 224.833Z" fill="black"/>
<path d="M89.9558 301.804H194.59C194.878 301.784 195.159 301.703 195.413 301.567C195.668 301.431 195.891 301.242 196.068 301.013C196.244 300.785 196.37 300.521 196.438 300.24C196.505 299.959 196.512 299.667 196.458 299.383L189.912 227.015C189.892 226.396 189.644 225.807 189.216 225.36C188.788 224.913 188.209 224.641 187.592 224.595H82.9585C82.6702 224.614 82.3894 224.695 82.1346 224.831C81.8798 224.968 81.6568 225.156 81.4803 225.385C81.3037 225.614 81.1776 225.877 81.1104 226.158C81.0431 226.439 81.0362 226.731 81.09 227.015L87.6359 299.383C87.6558 300.002 87.9038 300.591 88.332 301.038C88.7603 301.485 89.3386 301.757 89.9558 301.804Z" fill="white"/>
<path d="M93.9685 292.662H188.997L183.73 232.42H88.7017L93.9685 292.662Z" fill="#0DA434"/>
<path d="M95.2728 297.377H188.921C189.538 297.388 190.149 297.267 190.716 297.023C191.282 296.779 191.789 296.417 192.205 295.962C192.62 295.506 192.933 294.967 193.124 294.381C193.315 293.795 193.378 293.175 193.31 292.562L188.069 232.696C187.934 231.395 187.328 230.188 186.365 229.303C185.401 228.418 184.147 227.917 182.84 227.893H89.1908C88.5762 227.884 87.9667 228.006 87.4025 228.25C86.8383 228.494 86.3322 228.855 85.9175 229.309C85.5029 229.762 85.1891 230.299 84.9967 230.883C84.8044 231.466 84.738 232.084 84.8018 232.696L90.0436 292.562C90.1753 293.865 90.7802 295.075 91.7438 295.962C92.7075 296.85 93.963 297.353 95.2728 297.377Z" fill="#263238"/>
<path d="M93.9685 292.662H188.997L183.73 232.42H88.7017L93.9685 292.662Z" fill="#0DA434"/>
<path opacity="0.4" d="M93.9685 292.662H188.997L183.73 232.42H88.7017L93.9685 292.662Z" fill="white"/>
<path opacity="0.1" d="M121.306 227.918L102.747 297.352H108.991L127.35 227.918H121.306Z" fill="white"/>
<path opacity="0.1" d="M130.949 227.918L112.39 297.352H124.767L143.125 227.918H130.949Z" fill="white"/>
<path d="M102.396 250.39C102.489 250.993 102.449 251.61 102.279 252.197C102.108 252.784 101.811 253.326 101.408 253.785C101.005 254.244 100.506 254.609 99.9464 254.855C99.3869 255.1 98.7803 255.22 98.1695 255.205C96.8448 255.171 95.5751 254.668 94.5857 253.787C93.5962 252.905 92.9511 251.702 92.7648 250.39C92.669 249.785 92.7074 249.167 92.8771 248.579C93.0469 247.99 93.3439 247.447 93.7471 246.986C94.1503 246.525 94.6499 246.159 95.2104 245.913C95.771 245.667 96.3788 245.547 96.9908 245.562C98.3174 245.597 99.5886 246.101 100.578 246.985C101.568 247.869 102.212 249.075 102.396 250.39Z" fill="#0DA434"/>
<path opacity="0.3" d="M102.396 250.39C102.489 250.993 102.449 251.61 102.279 252.197C102.108 252.784 101.811 253.326 101.408 253.785C101.005 254.244 100.506 254.609 99.9464 254.855C99.3869 255.1 98.7803 255.22 98.1695 255.205C96.8448 255.171 95.5751 254.668 94.5857 253.787C93.5962 252.905 92.9511 251.702 92.7648 250.39C92.669 249.785 92.7074 249.167 92.8771 248.579C93.0469 247.99 93.3439 247.447 93.7471 246.986C94.1503 246.525 94.6499 246.159 95.2104 245.913C95.771 245.667 96.3788 245.547 96.9908 245.562C98.3174 245.597 99.5886 246.101 100.578 246.985C101.568 247.869 102.212 249.075 102.396 250.39Z" fill="black"/>
<path d="M98.1693 255.205C99.1437 255.229 100.098 254.924 100.878 254.339L100.427 252.834C100.346 252.56 100.182 252.317 99.9576 252.139C99.7329 251.962 99.4585 251.858 99.1725 251.844H98.5957L98.5204 251.217C98.8312 251.031 99.0781 250.756 99.2282 250.426C99.3783 250.097 99.4245 249.73 99.3606 249.373C99.3117 248.848 99.0783 248.357 98.7018 247.988C98.3253 247.618 97.8301 247.394 97.304 247.354C97.0616 247.365 96.8246 247.429 96.6093 247.541C96.3941 247.653 96.2059 247.811 96.0578 248.003C95.9098 248.195 95.8054 248.417 95.7521 248.654C95.6988 248.891 95.6978 249.136 95.7491 249.373C95.7898 249.76 95.9256 250.131 96.1444 250.453C96.3632 250.774 96.6582 251.037 97.0031 251.217L97.0783 251.844H96.5015C96.2308 251.837 95.9685 251.937 95.7713 252.123C95.5741 252.308 95.4579 252.564 95.4481 252.834L95.3604 254.339C96.1982 254.883 97.1708 255.182 98.1693 255.205Z" fill="white"/>
<path d="M105.894 249.474H124.83C125.707 249.474 125.532 248.12 124.667 248.12H105.656C104.791 248.12 104.954 249.474 105.832 249.474H105.894Z" fill="white"/>
<path d="M106.22 252.659H131.175C131.752 252.659 131.639 251.756 131.062 251.756H106.107C105.53 251.756 105.631 252.659 106.22 252.659Z" fill="white"/>
<path d="M135.865 252.208C135.887 252.341 135.88 252.477 135.843 252.606C135.806 252.735 135.741 252.855 135.652 252.956C135.563 253.057 135.453 253.137 135.329 253.19C135.205 253.242 135.071 253.267 134.937 253.261C134.647 253.25 134.37 253.14 134.153 252.948C133.936 252.755 133.792 252.494 133.745 252.208C133.723 252.075 133.731 251.938 133.767 251.808C133.804 251.678 133.869 251.558 133.958 251.456C134.047 251.354 134.157 251.273 134.28 251.219C134.404 251.164 134.538 251.138 134.673 251.142C134.965 251.153 135.243 251.266 135.461 251.46C135.678 251.655 135.821 251.919 135.865 252.208Z" fill="#263238"/>
<path opacity="0.5" d="M135.865 252.208C135.887 252.341 135.88 252.477 135.843 252.606C135.806 252.735 135.741 252.855 135.652 252.956C135.563 253.057 135.453 253.137 135.329 253.19C135.205 253.242 135.071 253.267 134.937 253.261C134.647 253.25 134.37 253.14 134.153 252.948C133.936 252.755 133.792 252.494 133.745 252.208C133.723 252.075 133.731 251.938 133.767 251.808C133.804 251.678 133.869 251.558 133.958 251.456C134.047 251.354 134.157 251.273 134.28 251.219C134.404 251.164 134.538 251.138 134.673 251.142C134.965 251.153 135.243 251.266 135.461 251.46C135.678 251.655 135.821 251.919 135.865 252.208Z" fill="white"/>
<path d="M88.7017 232.42L89.1657 237.812H184.194L183.73 232.42H88.7017Z" fill="#0DA434"/>
<path d="M93.0656 234.815C93.0798 234.954 93.0643 235.095 93.0201 235.228C92.9759 235.361 92.904 235.483 92.8092 235.586C92.7144 235.689 92.5988 235.771 92.4701 235.826C92.3413 235.881 92.2024 235.908 92.0624 235.906C91.7693 235.891 91.4908 235.773 91.2754 235.574C91.06 235.375 90.9214 235.106 90.8836 234.815C90.8694 234.677 90.8845 234.538 90.9281 234.407C90.9716 234.275 91.0426 234.155 91.1362 234.053C91.2298 233.951 91.3441 233.87 91.4713 233.815C91.5985 233.761 91.7359 233.734 91.8743 233.736C92.1677 233.748 92.4476 233.863 92.6653 234.06C92.883 234.257 93.0247 234.524 93.0656 234.815Z" fill="white"/>
<path d="M95.9246 234.815C95.9407 234.954 95.927 235.094 95.8843 235.227C95.8416 235.36 95.771 235.482 95.6771 235.586C95.5833 235.689 95.4684 235.771 95.3402 235.826C95.212 235.881 95.0735 235.909 94.9339 235.906C94.6408 235.891 94.3623 235.773 94.147 235.574C93.9316 235.375 93.7929 235.106 93.7552 234.815C93.741 234.677 93.7561 234.538 93.7997 234.407C93.8432 234.275 93.9142 234.155 94.0078 234.053C94.1014 233.951 94.2156 233.87 94.3429 233.815C94.4701 233.761 94.6074 233.734 94.7458 233.736C95.037 233.751 95.314 233.867 95.5292 234.064C95.7443 234.261 95.8841 234.526 95.9246 234.815Z" fill="white"/>
<path d="M98.7962 234.815C98.8103 234.953 98.7951 235.093 98.7517 235.225C98.7082 235.357 98.6375 235.478 98.5441 235.581C98.4506 235.684 98.3366 235.766 98.2094 235.822C98.0821 235.878 97.9446 235.907 97.8056 235.906C97.4994 235.908 97.2028 235.799 96.9718 235.598C96.7408 235.397 96.5914 235.118 96.5516 234.815C96.5373 234.677 96.5525 234.538 96.5961 234.407C96.6396 234.275 96.7105 234.155 96.8042 234.053C96.8978 233.951 97.012 233.87 97.1392 233.815C97.2665 233.761 97.4038 233.734 97.5422 233.736C97.8465 233.733 98.1415 233.841 98.3722 234.04C98.6029 234.238 98.7536 234.514 98.7962 234.815Z" fill="white"/>
<path d="M195.668 302.017H89.0026C87.7491 302.017 86.7329 303.033 86.7329 304.286V305.641C86.7329 306.894 87.7491 307.91 89.0026 307.91H195.668C196.921 307.91 197.938 306.894 197.938 305.641V304.286C197.938 303.033 196.921 302.017 195.668 302.017Z" fill="#0DA434"/>
<path opacity="0.3" d="M195.668 302.017H89.0026C87.7491 302.017 86.7329 303.033 86.7329 304.286V305.641C86.7329 306.894 87.7491 307.91 89.0026 307.91H195.668C196.921 307.91 197.938 306.894 197.938 305.641V304.286C197.938 303.033 196.921 302.017 195.668 302.017Z" fill="black"/>
<path d="M129.056 301.991H239.345V303.333C239.345 304.537 238.867 305.692 238.015 306.543C237.164 307.394 236.009 307.872 234.805 307.872H133.608C132.404 307.872 131.249 307.394 130.398 306.543C129.546 305.692 129.068 304.537 129.068 303.333V301.991H129.056Z" fill="#0DA434"/>
<path opacity="0.4" d="M129.056 301.991H239.345V303.333C239.345 304.537 238.867 305.692 238.015 306.543C237.164 307.394 236.009 307.872 234.805 307.872H133.608C132.404 307.872 131.249 307.394 130.398 306.543C129.546 305.692 129.068 304.537 129.068 303.333V301.991H129.056Z" fill="white"/>
<path opacity="0.3" d="M178.751 302.18C178.755 302.96 179.066 303.708 179.618 304.26C180.17 304.812 180.918 305.123 181.698 305.127H195.191C195.973 305.127 196.723 304.816 197.275 304.263C197.828 303.711 198.138 302.961 198.138 302.18H178.751Z" fill="black"/>
<path d="M188.997 292.799H94.0439L93.5298 286.931H188.483L188.997 292.799Z" fill="#0DA434"/>
<path d="M176.269 290.242H110.308L110.271 289.715H176.231L176.269 290.242Z" fill="white"/>
<path d="M178.137 290.267C178.137 290.517 177.999 290.718 177.623 290.718C177.431 290.72 177.242 290.663 177.083 290.555L177.184 290.354C177.302 290.446 177.448 290.495 177.598 290.492C177.786 290.492 177.886 290.417 177.873 290.279C177.861 290.141 177.773 290.066 177.485 290.066H177.146V289.313H177.961V289.527H177.372V289.853H177.51C177.936 289.853 178.112 290.028 178.137 290.267Z" fill="white"/>
<path d="M178.225 289.79C178.223 289.77 178.226 289.749 178.232 289.729C178.239 289.709 178.25 289.691 178.264 289.676C178.278 289.661 178.295 289.648 178.315 289.64C178.334 289.632 178.354 289.627 178.375 289.627C178.398 289.626 178.42 289.629 178.441 289.636C178.463 289.643 178.482 289.655 178.499 289.671C178.515 289.686 178.528 289.704 178.537 289.725C178.546 289.746 178.551 289.768 178.551 289.79C178.554 289.811 178.554 289.831 178.548 289.851C178.543 289.871 178.534 289.889 178.52 289.905C178.507 289.92 178.491 289.933 178.472 289.941C178.453 289.95 178.433 289.954 178.413 289.953C178.39 289.955 178.367 289.952 178.345 289.945C178.323 289.938 178.302 289.926 178.285 289.911C178.267 289.896 178.253 289.877 178.243 289.857C178.232 289.836 178.226 289.814 178.225 289.79ZM178.3 290.543C178.296 290.522 178.297 290.5 178.303 290.479C178.309 290.458 178.319 290.439 178.334 290.423C178.349 290.408 178.367 290.395 178.387 290.388C178.407 290.38 178.429 290.377 178.45 290.38C178.495 290.38 178.538 290.396 178.57 290.427C178.603 290.457 178.623 290.498 178.626 290.543C178.628 290.564 178.625 290.585 178.618 290.604C178.612 290.624 178.601 290.642 178.587 290.657C178.572 290.673 178.555 290.685 178.536 290.693C178.517 290.702 178.496 290.706 178.475 290.706C178.453 290.708 178.43 290.705 178.409 290.697C178.388 290.69 178.368 290.678 178.352 290.663C178.335 290.647 178.322 290.629 178.313 290.608C178.304 290.588 178.3 290.565 178.3 290.543Z" fill="white"/>
<path d="M178.739 290.004C178.739 289.552 178.927 289.289 179.253 289.289C179.579 289.289 179.855 289.552 179.905 290.004C179.955 290.455 179.717 290.719 179.378 290.719C179.2 290.706 179.033 290.624 178.914 290.491C178.795 290.357 178.732 290.183 178.739 290.004ZM179.642 290.004C179.642 289.665 179.466 289.515 179.278 289.515C179.09 289.515 178.965 289.665 179.002 290.004C179.04 290.342 179.178 290.493 179.366 290.493C179.554 290.493 179.667 290.342 179.642 290.004Z" fill="white"/>
<path d="M180.068 290.004C180.068 289.552 180.256 289.289 180.595 289.289C180.774 289.302 180.94 289.384 181.059 289.517C181.179 289.65 181.242 289.825 181.235 290.004C181.235 290.455 181.047 290.719 180.72 290.719C180.394 290.719 180.119 290.455 180.068 290.004ZM180.971 290.004C180.971 289.665 180.796 289.515 180.608 289.515C180.419 289.515 180.307 289.665 180.332 290.004C180.357 290.342 180.507 290.493 180.695 290.493C180.883 290.493 180.996 290.342 180.971 290.004Z" fill="white"/>
<path d="M96.9904 290.48V290.693H95.9622V290.53L96.4638 290.003C96.5065 289.968 96.5411 289.925 96.5649 289.875C96.5887 289.825 96.6013 289.77 96.6017 289.715C96.6017 289.59 96.5014 289.514 96.3258 289.514C96.2651 289.511 96.2047 289.523 96.1499 289.55C96.0951 289.576 96.0478 289.616 96.0123 289.665L95.8242 289.514C95.8824 289.438 95.9588 289.377 96.0464 289.338C96.134 289.299 96.23 289.282 96.3258 289.289C96.6268 289.289 96.84 289.439 96.8525 289.69C96.859 289.773 96.8453 289.856 96.8125 289.933C96.7797 290.009 96.7289 290.076 96.6644 290.129L96.3258 290.48H96.9904Z" fill="white"/>
<path d="M97.1161 289.79C97.1124 289.77 97.1131 289.75 97.1184 289.73C97.1236 289.71 97.1332 289.692 97.1464 289.676C97.1596 289.661 97.1761 289.648 97.1947 289.64C97.2133 289.631 97.2336 289.627 97.254 289.627C97.2771 289.626 97.3003 289.629 97.3222 289.636C97.3442 289.643 97.3645 289.655 97.382 289.67C97.3994 289.685 97.4137 289.703 97.4241 289.724C97.4344 289.745 97.4405 289.767 97.4421 289.79C97.4439 289.811 97.4413 289.832 97.4345 289.852C97.4277 289.872 97.4169 289.89 97.4027 289.905C97.3886 289.92 97.3714 289.933 97.3523 289.941C97.3331 289.949 97.3125 289.954 97.2916 289.953C97.2692 289.955 97.2466 289.952 97.2254 289.945C97.2041 289.937 97.1847 289.926 97.1682 289.91C97.1517 289.895 97.1385 289.877 97.1296 289.856C97.1206 289.835 97.116 289.813 97.1161 289.79ZM97.1788 290.543C97.1747 290.522 97.1757 290.5 97.1816 290.479C97.1876 290.458 97.1983 290.439 97.2129 290.423C97.2275 290.408 97.2457 290.395 97.2659 290.388C97.2861 290.38 97.3078 290.378 97.3293 290.38C97.3737 290.38 97.4166 290.396 97.4492 290.427C97.4818 290.457 97.5016 290.499 97.5048 290.543C97.5066 290.564 97.504 290.585 97.4972 290.604C97.4904 290.624 97.4796 290.642 97.4654 290.657C97.4513 290.673 97.4341 290.685 97.415 290.693C97.3959 290.702 97.3752 290.706 97.3543 290.706C97.3278 290.716 97.2993 290.72 97.2711 290.716C97.2429 290.713 97.2159 290.703 97.1925 290.687C97.1691 290.671 97.1499 290.649 97.1366 290.624C97.1233 290.599 97.1162 290.571 97.1161 290.543H97.1788Z" fill="white"/>
<path d="M98.6207 290.267C98.6207 290.517 98.4828 290.718 98.1066 290.718C97.9144 290.72 97.7262 290.663 97.5674 290.555L97.6677 290.354C97.7857 290.446 97.9318 290.495 98.0815 290.492C98.2696 290.492 98.37 290.417 98.3574 290.279C98.3449 290.141 98.2571 290.066 97.9687 290.066H97.6301V289.313H98.4452V289.527H97.8433V289.853H97.9812C98.3699 289.853 98.5957 290.028 98.6207 290.267Z" fill="white"/>
<path d="M98.7461 290.004C98.7461 289.552 98.9217 289.289 99.2602 289.289C99.4387 289.302 99.6052 289.384 99.7246 289.517C99.8439 289.65 99.9067 289.825 99.8998 290.004C99.8998 290.455 99.7117 290.719 99.3856 290.719C99.0596 290.719 98.7837 290.455 98.7461 290.004ZM99.6364 290.004C99.6364 289.665 99.4609 289.515 99.2728 289.515C99.0847 289.515 98.9718 289.665 98.9969 290.004C99.022 290.342 99.1724 290.493 99.3605 290.493C99.5486 290.493 99.6239 290.342 99.6239 290.004H99.6364Z" fill="white"/>
<path d="M187.128 292.072H182.952L182.576 287.884H186.765L187.128 292.072ZM183.579 291.37H186.376L186.15 288.573H183.354L183.579 291.37Z" fill="white"/>
<path d="M138.937 289.251H101.229L101.354 290.693H139.062L138.937 289.251Z" fill="#263238"/>
<path d="M140.316 289.928C140.327 290.099 140.302 290.27 140.244 290.431C140.185 290.592 140.094 290.739 139.977 290.864C139.859 290.988 139.718 291.087 139.56 291.155C139.403 291.223 139.234 291.257 139.063 291.257C138.702 291.247 138.358 291.107 138.092 290.863C137.827 290.618 137.66 290.286 137.62 289.928C137.61 289.757 137.635 289.586 137.693 289.425C137.752 289.264 137.843 289.117 137.96 288.992C138.077 288.868 138.219 288.768 138.376 288.701C138.534 288.633 138.703 288.598 138.874 288.599C139.236 288.606 139.582 288.745 139.847 288.99C140.113 289.235 140.28 289.568 140.316 289.928Z" fill="#263238"/>
<path d="M140.316 289.928C140.327 290.099 140.302 290.27 140.244 290.431C140.185 290.592 140.094 290.739 139.977 290.864C139.859 290.988 139.718 291.087 139.56 291.155C139.403 291.223 139.234 291.257 139.063 291.257C138.702 291.247 138.358 291.107 138.092 290.863C137.827 290.618 137.66 290.286 137.62 289.928C137.61 289.757 137.635 289.586 137.693 289.425C137.752 289.264 137.843 289.117 137.96 288.992C138.077 288.868 138.219 288.768 138.376 288.701C138.534 288.633 138.703 288.598 138.874 288.599C139.236 288.606 139.582 288.745 139.847 288.99C140.113 289.235 140.28 289.568 140.316 289.928Z" fill="white"/>
<path d="M176.57 196.467C179.957 197.059 183.147 198.474 185.859 200.588C188.571 202.703 190.721 205.452 192.119 208.594C197.261 219.604 201.361 235.592 205.211 237.273C209.061 238.953 225.915 222.363 225.915 222.363C225.915 222.363 222.479 211.39 227.62 209.672C232.762 207.954 231.733 200.28 236.536 201.897C241.339 203.515 244.06 210.362 243.734 214.136C243.408 217.911 234.48 226.476 234.48 226.476C234.48 226.476 218.366 255.142 201.875 252.521C185.385 249.9 176.532 211.465 176.532 211.465C176.532 211.465 171.943 195.878 176.57 196.467Z" fill="#EEC8C0"/>
<path opacity="0.1" d="M181.134 225.586C184.746 235.317 187.718 242.352 194.577 248.597C187.153 236.671 187.956 215.315 187.956 215.315L181.134 225.586Z" fill="black"/>
<path d="M120.202 199.866C126.083 198.18 132.047 196.803 138.072 195.74L138.272 195.903L138.586 196.204L141.232 198.235L148.43 202.562L154.336 203.49L160.054 202.098L163.716 197.007L164.393 194.072V193.984C170.813 194.245 177.134 195.659 183.053 198.16C184.094 198.644 184.984 199.401 185.629 200.35C186.273 201.3 186.649 202.406 186.714 203.552C187.188 210.322 188.025 217.062 189.222 223.742C191.605 237.812 184.307 269.3 181.473 280.648C181.162 281.891 180.486 283.012 179.531 283.866C178.577 284.721 177.388 285.268 176.118 285.439C159.961 287.651 143.584 287.756 127.4 285.752C125.872 285.553 124.468 284.809 123.445 283.657C122.422 282.505 121.85 281.023 121.832 279.482C121.632 261.462 117.23 221.209 115.562 206.75C115.395 205.239 115.77 203.718 116.62 202.457C117.469 201.196 118.739 200.278 120.202 199.866Z" fill="#0DA434"/>
<path d="M120.202 199.866C126.083 198.18 132.047 196.803 138.072 195.74L138.272 195.903L138.586 196.204L141.232 198.235L148.43 202.562L154.336 203.49L160.054 202.098L163.716 197.007L164.393 194.072V193.984C170.813 194.245 177.134 195.659 183.053 198.16C184.094 198.644 184.984 199.401 185.629 200.35C186.273 201.3 186.649 202.406 186.714 203.552C187.188 210.322 188.025 217.062 189.222 223.742C191.605 237.812 184.307 269.3 181.473 280.648C181.162 281.891 180.486 283.012 179.531 283.866C178.577 284.721 177.388 285.268 176.118 285.439C159.961 287.651 143.584 287.756 127.4 285.752C125.872 285.553 124.468 284.809 123.445 283.657C122.422 282.505 121.85 281.023 121.832 279.482C121.632 261.462 117.23 221.209 115.562 206.75C115.395 205.239 115.77 203.718 116.62 202.457C117.469 201.196 118.739 200.278 120.202 199.866Z" fill="#263238"/>
<path d="M138.598 149.004C136.253 155.826 132.328 163.249 134.034 170.259C135.739 177.269 143.301 183.777 150.148 186.047C158.085 188.693 167.327 191.552 173.209 185.583C176.118 182.636 174.463 176.692 171.754 173.545C170.376 171.992 168.559 170.894 166.544 170.397C164.529 169.9 162.41 170.027 160.468 170.761C160.938 167.173 160.708 163.527 159.791 160.027C158.933 155.44 156.29 151.381 152.442 148.741C148.53 146.233 140.116 144.627 138.598 149.004Z" fill="#263238"/>
<path d="M141.106 195.226C145.759 190.336 143.89 168.391 143.89 168.391L157.509 177.633C157.509 177.633 158.311 191.213 161.559 193.834C162.324 194.449 163.453 193.922 164.355 193.985L163.528 197.446L161.02 201.734L157.534 204.242H152.38L147.727 202.926L142.448 199.164L138.134 195.69C139.137 195.552 140.429 195.928 141.106 195.226Z" fill="#EEC8C0"/>
<path opacity="0.1" d="M158.7 186.724C149.746 185.708 145.633 181.056 143.765 177.381L144.153 173.72L157.759 182.962L158.7 186.724Z" fill="black"/>
<path d="M138.561 159.625C141.432 170.911 142.411 175.764 149.295 180.529C159.666 187.714 172.92 181.695 173.485 169.782C173.986 159.035 169.196 142.294 157.183 139.949C154.527 139.402 151.776 139.543 149.191 140.358C146.605 141.174 144.271 142.637 142.41 144.608C140.549 146.58 139.224 148.994 138.559 151.622C137.894 154.251 137.912 157.005 138.611 159.625H138.561Z" fill="#EEC8C0"/>
<path d="M157.308 159.161C157.496 160.089 158.123 160.754 158.725 160.641C159.327 160.528 159.691 159.675 159.528 158.747C159.365 157.819 158.7 157.155 158.098 157.255C157.496 157.355 157.233 158.271 157.308 159.161Z" fill="#263238"/>
<path d="M167.879 157.179C168.055 158.132 168.694 158.772 169.296 158.672C169.898 158.571 170.262 157.694 170.086 156.766C169.911 155.838 169.271 155.173 168.669 155.298C168.067 155.424 167.704 156.251 167.879 157.179Z" fill="#263238"/>
<path d="M168.406 155.399L170.512 154.333C170.512 154.333 169.71 156.302 168.406 155.399Z" fill="#263238"/>
<path d="M164.945 159.487C166.188 161.452 167.689 163.24 169.409 164.804C168.995 165.231 168.494 165.564 167.94 165.78C167.386 165.997 166.793 166.091 166.199 166.058L164.945 159.487Z" fill="#ED893E"/>
<path d="M152.731 157.845C152.849 157.843 152.963 157.803 153.055 157.73C153.148 157.658 153.215 157.557 153.245 157.443C153.606 156.613 154.136 155.866 154.801 155.251C155.466 154.636 156.251 154.165 157.107 153.869C157.248 153.821 157.365 153.718 157.43 153.584C157.496 153.45 157.506 153.296 157.458 153.155C157.437 153.086 157.402 153.022 157.356 152.966C157.309 152.911 157.252 152.866 157.188 152.833C157.123 152.8 157.053 152.781 156.981 152.776C156.909 152.771 156.837 152.78 156.769 152.803C155.737 153.152 154.794 153.721 154.004 154.47C153.213 155.219 152.595 156.131 152.192 157.142C152.153 157.282 152.17 157.431 152.241 157.558C152.311 157.685 152.429 157.779 152.568 157.819C152.62 157.839 152.675 157.848 152.731 157.845Z" fill="#263238"/>
<path d="M170.112 151.738C170.211 151.731 170.308 151.7 170.393 151.648C170.479 151.595 170.55 151.523 170.601 151.437C170.668 151.307 170.682 151.155 170.64 151.015C170.598 150.874 170.503 150.756 170.375 150.684C169.603 150.227 168.729 149.967 167.832 149.927C166.936 149.888 166.043 150.07 165.233 150.459C165.109 150.521 165.014 150.629 164.97 150.761C164.925 150.892 164.934 151.036 164.995 151.161C165.027 151.226 165.072 151.285 165.127 151.332C165.182 151.379 165.246 151.414 165.316 151.436C165.385 151.457 165.458 151.463 165.531 151.455C165.603 151.447 165.672 151.423 165.735 151.387C166.376 151.109 167.073 150.986 167.77 151.027C168.467 151.068 169.145 151.273 169.748 151.625C169.857 151.694 169.982 151.733 170.112 151.738Z" fill="#263238"/>
<path d="M157.885 157.456L160.004 156.39C160.004 156.39 159.189 158.283 157.885 157.456Z" fill="#263238"/>
<path d="M174.563 137.441C176.03 138.477 177.156 139.925 177.799 141.602C178.442 143.278 178.573 145.108 178.175 146.859C177.748 148.414 176.833 149.881 176.758 151.499C176.712 152.367 177.006 153.218 177.577 153.873C178.148 154.529 178.951 154.936 179.817 155.01C177.253 155.449 174.63 155.411 172.08 154.897C169.572 154.232 167.227 152.389 167.14 150.057C167.192 149.216 167.289 148.379 167.428 147.549C167.483 147.113 167.423 146.671 167.253 146.266C167.084 145.861 166.811 145.508 166.462 145.241C165.07 144.326 163.227 145.316 161.547 145.53C158.474 145.943 155.44 143.097 155.816 140.401C156.192 137.705 163.578 129.215 174.563 137.441Z" fill="#263238"/>
<path d="M163.177 133.554C167.29 135.824 178.313 147.198 148.568 145.329C148.568 145.329 148.63 163.926 139.288 166.447L114.81 162.409C114.81 162.409 124.541 112.211 163.177 133.554Z" fill="#263238"/>
<path d="M118.046 151.123C115.701 157.932 111.776 165.368 113.481 172.378C115.186 179.388 122.748 185.883 129.595 188.166C137.533 190.812 146.775 193.671 152.656 187.702C155.553 184.742 153.91 178.811 151.201 175.651C149.822 174.1 148.005 173.005 145.989 172.51C143.974 172.015 141.856 172.144 139.915 172.879C140.386 169.291 140.156 165.646 139.238 162.145C138.82 159.861 137.956 157.682 136.695 155.733C135.434 153.783 133.801 152.102 131.89 150.784C127.94 148.339 119.563 146.746 118.046 151.123Z" fill="#263238"/>
<path d="M137.119 169.067C138.222 170.965 140.021 172.36 142.135 172.955C144.981 173.682 146.36 171.124 145.52 168.453C144.743 166.058 142.348 162.785 139.514 163.186C139.026 163.271 138.56 163.451 138.142 163.716C137.723 163.982 137.362 164.327 137.078 164.733C136.793 165.138 136.592 165.596 136.485 166.079C136.378 166.563 136.367 167.062 136.454 167.55C136.565 168.097 136.792 168.614 137.119 169.067Z" fill="#EEC8C0"/>
<path d="M167.177 169.293C165.718 169.939 164.139 170.273 162.544 170.273C160.948 170.273 159.369 169.939 157.91 169.293C157.91 169.293 157.534 174.999 164.305 174.535C165.02 174.535 167.177 174.158 167.177 174.158C166.844 172.554 166.844 170.898 167.177 169.293Z" fill="#263238"/>
<path d="M158.211 171.262C158 170.627 157.898 169.962 157.91 169.293C160.345 170.322 163.049 170.524 165.61 169.87V171.738C165.61 171.738 161.133 172.528 158.211 171.262Z" fill="white"/>
<path d="M158.851 172.516C159.346 172.461 159.844 172.432 160.343 172.428C162.5 172.37 164.618 173.017 166.375 174.272C165.685 174.372 164.732 174.498 164.305 174.535C161.283 174.736 159.691 173.72 158.851 172.516Z" fill="#C13B37"/>
<path d="M166.964 193.984C166.964 193.984 163.779 192.906 162.5 193.984C162.5 193.984 162.738 202.248 156.067 203.289C149.395 204.33 139.15 195.288 139.15 195.288C137.627 194.948 136.031 195.199 134.686 195.991L160.907 224.569C171.428 213.509 166.964 193.984 166.964 193.984Z" fill="#F2FEF6"/>
<path d="M118.948 227.178C116.44 223.755 111.261 209.522 116.904 201.797C122.547 194.072 156.568 240.546 156.568 240.546C162.312 237.699 188.984 228.758 188.984 228.758C188.984 228.758 189.874 219.441 193.799 217.171C197.724 214.901 199.53 208.932 202.866 212.469C206.202 216.005 210.114 225.811 204.973 229.523C201.661 231.889 198.225 234.074 194.677 236.069C194.677 236.069 174.149 250.578 159.239 255.594C144.329 260.61 129.482 241.398 118.948 227.178Z" fill="#EEC8C0"/>
<path opacity="0.1" d="M118.948 227.178C116.44 223.755 111.261 209.522 116.904 201.797C122.547 194.072 156.568 240.546 156.568 240.546C162.312 237.699 188.984 228.758 188.984 228.758C188.984 228.758 189.874 219.441 193.799 217.171C197.724 214.901 199.53 208.932 202.866 212.469C206.202 216.005 210.114 225.811 204.973 229.523C201.661 231.889 198.225 234.074 194.677 236.069C194.677 236.069 174.149 250.578 159.239 255.594C144.329 260.61 129.482 241.398 118.948 227.178Z" fill="white"/>
<path opacity="0.1" d="M118.948 227.178C116.44 223.755 111.261 209.522 116.904 201.797C122.547 194.072 156.568 240.546 156.568 240.546C162.312 237.699 188.984 228.758 188.984 228.758C188.984 228.758 189.874 219.441 193.799 217.171C197.724 214.901 199.53 208.932 202.866 212.469C206.202 216.005 210.114 225.811 204.973 229.523C201.661 231.889 198.225 234.074 194.677 236.069C194.677 236.069 174.149 250.578 159.239 255.594C144.329 260.61 129.482 241.398 118.948 227.178Z" fill="white"/>
<path d="M183.128 288.286L181.523 280.674C181.523 280.674 139.828 285 122.033 281.037L119.713 288.311L183.128 288.286Z" fill="#263238"/>
<path d="M142.047 175.024C142.062 175.475 141.942 175.92 141.703 176.302C141.464 176.685 141.117 176.987 140.705 177.171C140.293 177.355 139.836 177.412 139.392 177.336C138.947 177.259 138.536 177.051 138.21 176.739C137.884 176.428 137.658 176.026 137.562 175.585C137.465 175.145 137.502 174.686 137.667 174.266C137.833 173.847 138.119 173.486 138.491 173.23C138.862 172.974 139.301 172.835 139.752 172.829C140.347 172.819 140.921 173.044 141.351 173.455C141.78 173.866 142.031 174.43 142.047 175.024Z" fill="white"/>
<path d="M282.984 194.499C281.702 197.211 280.066 199.742 278.118 202.023C279.61 203.565 282.382 202.989 282.382 202.989L282.984 194.499Z" fill="#A02724"/>
<path d="M314.484 208.694L306.145 214.964L294.759 223.429C295.359 224.732 295.712 226.135 295.799 227.567C296.163 230.727 296.527 233.072 289.467 234.915C288.719 235.081 288.034 235.459 287.496 236.004C286.957 236.549 286.588 237.238 286.432 237.988C286.131 239.856 287.235 242.126 293.705 243.33C299.976 244.362 306.412 243.365 312.076 240.483C314.848 239.141 314.873 237.486 313.757 234.69C310.409 226.639 312.227 216.544 314.484 208.694Z" fill="#B28B67"/>
<path d="M280.777 193.621C280.526 194.599 280.777 195.502 281.253 195.627C281.73 195.753 282.369 195.063 282.62 194.085C282.871 193.107 282.62 192.204 282.143 192.066C281.667 191.928 281.015 192.63 280.777 193.621Z" fill="#263238"/>
<path d="M288.175 192.142C288.065 192.141 287.958 192.112 287.864 192.057C287.769 192.002 287.69 191.923 287.636 191.828C287.119 190.946 286.389 190.208 285.512 189.682C284.636 189.156 283.641 188.859 282.62 188.818C282.453 188.818 282.294 188.752 282.176 188.635C282.059 188.517 281.993 188.358 281.993 188.191C281.993 188.025 282.059 187.866 282.176 187.748C282.294 187.631 282.453 187.564 282.62 187.564C283.863 187.609 285.074 187.966 286.144 188.601C287.213 189.237 288.106 190.131 288.739 191.201C288.818 191.348 288.837 191.52 288.793 191.681C288.748 191.842 288.644 191.98 288.501 192.066C288.4 192.118 288.288 192.144 288.175 192.142Z" fill="#263238"/>
<path d="M280.714 207.49C280.986 210.293 281.901 212.995 283.386 215.387C284.871 217.779 286.888 219.797 289.279 221.284C290.895 222.299 292.671 223.033 294.533 223.454C296.797 223.962 299.146 223.959 301.408 223.445C303.671 222.931 305.79 221.919 307.612 220.482C314.873 214.989 315.713 207.553 318.234 195.063C318.848 192.152 318.718 189.132 317.857 186.284C316.995 183.436 315.43 180.851 313.305 178.767C311.181 176.684 308.565 175.169 305.7 174.364C302.836 173.559 299.815 173.488 296.915 174.159C283.962 177.269 279.585 195.74 280.714 207.49Z" fill="#B28B67"/>
<path opacity="0.2" d="M289.279 221.247C290.895 222.262 292.672 222.995 294.533 223.416H294.759L293.969 220.908C293.969 220.908 292.89 222.701 289.279 221.247Z" fill="black"/>
<path d="M321.87 204.055C319.763 208.356 317.155 212.67 313.18 215.341C311.713 216.344 300.577 215.604 300.577 215.604C300.69 211.842 295.9 198.8 293.592 194.424C292.865 196.217 293.893 198.675 292.978 200.33C291.724 200.092 269.415 192.066 279.247 176.028C286.194 164.742 304.828 163.714 312.565 174.874C314.225 174.445 315.97 174.478 317.612 174.968C319.254 175.459 320.731 176.389 321.883 177.658C324.137 180.265 325.46 183.547 325.645 186.988C326.209 192.894 324.453 198.738 321.87 204.055Z" fill="#263238"/>
<path d="M301.23 197.634C301 200.5 299.718 203.18 297.631 205.158C294.947 207.666 291.586 205.008 291.173 201.396C290.796 198.173 292.364 193.458 295.637 192.33C298.91 191.201 301.518 194.148 301.23 197.634Z" fill="#FF8B7B"/>
<path d="M193.373 479.471L181.824 473.803L190.363 445.663L204.433 453.513L193.373 479.471Z" fill="#B28B67"/>
<path opacity="0.2" d="M207.468 445.789L192.658 437.249L186.79 457.526L200.157 463.821L207.468 445.789Z" fill="black"/>
<path d="M181.134 471.558L194.363 477.665C194.605 477.786 194.792 477.995 194.887 478.248C194.982 478.501 194.979 478.781 194.878 479.031L190.551 491.885C190.456 492.192 190.3 492.477 190.093 492.722C189.886 492.967 189.631 493.169 189.345 493.314C189.058 493.459 188.745 493.545 188.425 493.567C188.104 493.588 187.783 493.545 187.479 493.44C182.914 491.22 180.82 489.891 175.014 487.17C171.428 485.527 163.264 481.627 158.173 479.784C153.082 477.941 155.188 471.959 157.521 472.197C168.017 473.313 174.187 473.062 178.751 471.47C179.527 471.19 180.381 471.221 181.134 471.558Z" fill="#263238"/>
<path d="M174.325 472.436C175.381 472.849 176.478 473.152 177.598 473.339C177.653 473.352 177.711 473.346 177.763 473.324C177.814 473.301 177.858 473.263 177.886 473.213C177.927 473.174 177.956 473.123 177.969 473.068C177.982 473.012 177.98 472.954 177.961 472.9C177.698 472.474 175.29 468.762 173.61 468.699C173.419 468.688 173.228 468.729 173.058 468.817C172.888 468.906 172.745 469.038 172.644 469.201C172.447 469.428 172.315 469.704 172.262 469.999C172.209 470.295 172.237 470.6 172.343 470.881C172.789 471.626 173.495 472.18 174.325 472.436ZM177.083 472.637C174.789 472.085 173.234 471.383 172.92 470.63C172.865 470.448 172.86 470.255 172.904 470.07C172.948 469.885 173.04 469.715 173.171 469.577C173.22 469.494 173.29 469.425 173.373 469.377C173.457 469.328 173.551 469.302 173.647 469.301C174.525 469.326 176.118 471.169 177.083 472.637Z" fill="#699482"/>
<path d="M177.61 473.339H177.748C177.8 473.33 177.849 473.309 177.893 473.279C177.936 473.248 177.972 473.209 177.999 473.163C177.999 473.013 179.792 469.715 179.077 468.06C178.991 467.841 178.853 467.647 178.677 467.492C178.5 467.337 178.289 467.226 178.061 467.169C177.822 467.076 177.558 467.066 177.312 467.141C177.066 467.216 176.853 467.372 176.707 467.583C175.879 468.762 176.607 471.997 177.484 473.201C177.493 473.232 177.508 473.261 177.53 473.285C177.552 473.309 177.579 473.328 177.61 473.339ZM178.036 467.834C178.148 467.879 178.249 467.947 178.333 468.034C178.417 468.12 178.483 468.223 178.525 468.335C178.695 469.756 178.405 471.193 177.698 472.436C176.972 471.06 176.793 469.461 177.196 467.959C177.196 467.796 177.459 467.658 177.886 467.784L178.036 467.834Z" fill="#699482"/>
<path d="M281.354 334.019C281.354 334.019 213.286 322.307 204.722 359.538C198.113 385.609 194.915 396.218 186.501 454.027L204.471 458.078C204.471 458.078 233.438 398.864 235.131 373.683C255.446 377.119 301.668 386.75 311.512 369.558C316.444 360.814 319.738 351.244 321.231 341.318L281.354 334.019Z" fill="#699482"/>
<g opacity="0.3">
<path opacity="0.3" d="M281.354 334.019C281.354 334.019 213.286 322.307 204.722 359.538C198.113 385.609 194.915 396.218 186.501 454.027L204.471 458.078C204.471 458.078 233.438 398.864 235.131 373.683C255.446 377.119 301.668 386.75 311.512 369.558C316.444 360.814 319.738 351.244 321.231 341.318L281.354 334.019Z" fill="black"/>
</g>
<path d="M206.766 462.078L183.755 454.027L185.912 443.606L209.512 453.2L206.766 462.078Z" fill="#699482"/>
<path d="M145.733 475.308L133.595 468.574L145.658 445.262L160.618 451.344L145.733 475.308Z" fill="#B28B67"/>
<path opacity="0.2" d="M164.794 444.171L151.464 433.462L142.573 452.61L154.812 460.874L164.794 444.171Z" fill="black"/>
<path d="M134.836 465.627L146.987 473.677C147.192 473.832 147.334 474.056 147.387 474.307C147.44 474.558 147.4 474.82 147.276 475.044L141.006 487.095C140.866 487.385 140.67 487.643 140.427 487.855C140.185 488.067 139.903 488.227 139.597 488.327C139.291 488.426 138.968 488.463 138.648 488.434C138.328 488.406 138.016 488.313 137.733 488.161C133.557 485.277 131.701 483.646 126.359 480.098C123.074 477.928 115.6 472.837 110.847 470.229C106.094 467.62 109.091 462.053 111.361 462.642C121.569 465.338 127.663 466.04 132.454 465.15C133.279 464.988 134.136 465.159 134.836 465.627Z" fill="#263238"/>
<path d="M127.977 465.451C128.958 466.017 129.996 466.479 131.074 466.83C131.125 466.853 131.183 466.858 131.238 466.845C131.292 466.831 131.341 466.799 131.375 466.755C131.422 466.724 131.458 466.68 131.48 466.629C131.503 466.578 131.51 466.522 131.5 466.466C131.312 465.99 129.494 461.965 127.839 461.651C127.651 461.611 127.456 461.621 127.273 461.68C127.09 461.74 126.926 461.847 126.798 461.99C126.575 462.189 126.407 462.443 126.31 462.726C126.213 463.01 126.191 463.313 126.246 463.607C126.581 464.411 127.196 465.066 127.977 465.451ZM130.673 466.065C128.491 465.162 127.061 464.285 126.911 463.457C126.884 463.266 126.908 463.072 126.981 462.893C127.053 462.715 127.172 462.559 127.325 462.441C127.385 462.37 127.463 462.315 127.551 462.282C127.639 462.249 127.733 462.239 127.826 462.253C128.654 462.404 129.895 464.46 130.673 466.065Z" fill="#699482"/>
<path d="M131.087 466.843H131.212C131.265 466.846 131.317 466.836 131.365 466.814C131.414 466.792 131.456 466.759 131.488 466.717C131.551 466.579 133.783 463.582 133.331 461.839C133.28 461.61 133.175 461.395 133.025 461.214C132.874 461.033 132.683 460.891 132.466 460.799C132.244 460.669 131.984 460.618 131.729 460.654C131.474 460.69 131.239 460.812 131.062 460.999C130.071 462.04 130.284 465.338 130.974 466.667C130.977 466.703 130.989 466.738 131.009 466.769C131.028 466.799 131.055 466.825 131.087 466.843ZM132.341 461.463C132.446 461.526 132.536 461.609 132.608 461.709C132.679 461.808 132.729 461.921 132.755 462.04C132.709 463.468 132.198 464.841 131.3 465.952C130.794 464.485 130.865 462.88 131.501 461.463C131.563 461.313 131.814 461.212 132.215 461.388L132.341 461.463Z" fill="#699482"/>
<path d="M259.897 330.395C259.421 330.307 185.272 310.256 172.983 352.265C156.129 403.39 143.626 446.791 143.626 446.791L158.173 457.337C158.173 457.337 195.279 405.999 200.809 370.811C223.983 368.203 279.359 388.505 289.203 371.326C297.267 357.281 297.655 336.79 297.655 336.79L259.897 330.395Z" fill="#699482"/>
<path opacity="0.3" d="M259.897 330.395C259.421 330.307 185.272 310.256 172.983 352.265C156.129 403.39 143.626 446.791 143.626 446.791L158.173 457.337C158.173 457.337 195.279 405.999 200.809 370.811C223.983 368.203 279.359 388.505 289.203 371.326C297.267 357.281 297.655 336.79 297.655 336.79L259.897 330.395Z" fill="black"/>
<path d="M160.33 460.046L140.655 446.879L143.84 438.452L164.982 449.989L160.33 460.046Z" fill="#699482"/>
<path d="M328.855 244.609C327.601 249.625 326.084 254.578 324.441 259.532C322.798 264.485 320.917 269.388 318.71 274.404C316.468 279.563 313.69 284.472 310.421 289.051C308.5 291.736 306.198 294.127 303.587 296.148C301.981 297.387 300.208 298.392 298.32 299.133C297.237 299.545 296.115 299.847 294.972 300.036L294.057 300.186C293.58 300.186 293.053 300.261 292.589 300.261C291.801 300.25 291.016 300.161 290.244 299.998C289.102 299.763 287.988 299.405 286.921 298.932C286.057 298.574 285.218 298.155 284.413 297.678C283.08 296.85 281.799 295.941 280.576 294.957C278.444 293.214 270.494 280.674 264.838 271.896L271.572 266.278C278.871 272.887 286.282 279.683 293.705 285.489C295.612 286.844 287.573 281.414 289.367 282.567C290.171 283.072 291.009 283.52 291.875 283.909C292.589 284.235 293.292 284.398 293.129 284.273C292.975 284.223 292.814 284.197 292.652 284.198C292.473 284.185 292.292 284.185 292.113 284.198C292.204 284.163 292.292 284.121 292.376 284.072C292.793 283.828 293.184 283.543 293.542 283.22C294.806 282.042 295.922 280.716 296.866 279.269C299.231 275.538 301.23 271.586 302.835 267.469C304.665 263.105 306.158 258.691 307.6 254.064C309.042 249.437 310.384 244.822 311.6 240.082C312.816 235.342 330.159 239.568 328.855 244.609Z" fill="#699482"/>
<path opacity="0.6" d="M328.855 244.609C327.601 249.625 326.084 254.578 324.441 259.532C322.798 264.485 320.917 269.388 318.71 274.404C316.468 279.563 313.69 284.472 310.421 289.051C308.5 291.736 306.198 294.127 303.587 296.148C301.981 297.387 300.208 298.392 298.32 299.133C297.237 299.545 296.115 299.847 294.972 300.036L294.057 300.186C293.58 300.186 293.053 300.261 292.589 300.261C291.801 300.25 291.016 300.161 290.244 299.998C289.102 299.763 287.988 299.405 286.921 298.932C286.057 298.574 285.218 298.155 284.413 297.678C283.08 296.85 281.799 295.941 280.576 294.957C278.444 293.214 270.494 280.674 264.838 271.896L271.572 266.278C278.871 272.887 286.282 279.683 293.705 285.489C295.612 286.844 287.573 281.414 289.367 282.567C290.171 283.072 291.009 283.52 291.875 283.909C292.589 284.235 293.292 284.398 293.129 284.273C292.975 284.223 292.814 284.197 292.652 284.198C292.473 284.185 292.292 284.185 292.113 284.198C292.204 284.163 292.292 284.121 292.376 284.072C292.793 283.828 293.184 283.543 293.542 283.22C294.806 282.042 295.922 280.716 296.866 279.269C299.231 275.538 301.23 271.586 302.835 267.469C304.665 263.105 306.158 258.691 307.6 254.064C309.042 249.437 310.384 244.822 311.6 240.082C312.816 235.342 330.159 239.568 328.855 244.609Z" fill="white"/>
<path d="M272.074 267.031L265.641 253.375L253.415 260.36C253.415 260.36 261.327 273.038 265.779 271.784L272.074 267.031Z" fill="#FF8B7B"/>
<path d="M255.659 250.139L250.104 252.459C249.777 252.592 249.487 252.803 249.26 253.074C249.034 253.344 248.877 253.667 248.804 254.012C248.731 254.358 248.744 254.716 248.841 255.055C248.939 255.394 249.119 255.704 249.364 255.958L253.515 260.297L265.741 253.312L257.302 250.127C256.774 249.917 256.184 249.921 255.659 250.139Z" fill="#B28B67"/>
<path d="M209.449 292.161L196.282 290.556L191.906 304.35C191.906 304.35 206.954 304.726 209.462 300.663L209.449 292.161Z" fill="#B28B67"/>
<path d="M186.463 295.259L183.955 300.513C183.794 300.878 183.722 301.277 183.746 301.675C183.77 302.074 183.889 302.461 184.092 302.804C184.296 303.148 184.579 303.437 184.917 303.65C185.255 303.862 185.639 303.99 186.037 304.024L191.868 304.388L196.244 290.594L187.73 294.055C187.177 294.291 186.727 294.718 186.463 295.259Z" fill="#B28B67"/>
<path d="M333.043 243.882C332.454 240.822 327.902 237.097 324.817 236.583L322.773 236.232C318.644 235.586 314.483 235.167 310.308 234.978C301.955 234.51 293.582 234.51 285.228 234.978C281.354 235.342 277.554 235.969 274.532 236.558H274.419C272.702 236.928 271.158 237.863 270.035 239.213C268.912 240.563 268.275 242.251 268.224 244.007C267.936 253.475 267.208 272.711 265.503 291.659C264.186 306.469 261.264 320.902 259.948 330.934L321.293 341.292C325.432 329.655 326.861 319.134 330.686 297.515C332.931 284.511 335.489 256.472 333.043 243.882Z" fill="#699482"/>
<path opacity="0.6" d="M333.043 243.882C332.454 240.822 327.902 237.097 324.817 236.583L322.773 236.232C318.644 235.586 314.483 235.167 310.308 234.978C301.955 234.51 293.582 234.51 285.228 234.978C281.354 235.342 277.554 235.969 274.532 236.558H274.419C272.702 236.928 271.158 237.863 270.035 239.213C268.912 240.563 268.275 242.251 268.224 244.007C267.936 253.475 267.208 272.711 265.503 291.659C264.186 306.469 261.264 320.902 259.948 330.934L321.293 341.292C325.432 329.655 326.861 319.134 330.686 297.515C332.931 284.511 335.489 256.472 333.043 243.882Z" fill="white"/>
<path d="M274.218 238.038C275.402 238.555 276.471 239.301 277.365 240.233C278.258 241.165 278.959 242.265 279.425 243.47C279.891 244.674 280.114 245.959 280.082 247.25C280.049 248.541 279.761 249.813 279.234 250.992C274.218 262.278 265.816 280.072 262.205 286.317C260.838 288.524 259.458 290.731 257.916 292.938C257.151 294.054 256.286 295.145 255.408 296.286C254.906 296.85 254.505 297.377 253.916 297.979L253.076 298.857L252.599 299.346C251.26 300.587 249.662 301.516 247.922 302.067C247.003 302.368 246.064 302.607 245.113 302.782C243.566 303.031 242.002 303.161 240.435 303.171C237.727 303.171 219.117 304.838 209.612 301.515L209.11 291.27C218.591 292.023 235.131 286.894 237.263 286.668C238.11 286.558 238.948 286.386 239.771 286.154C240.041 286.075 240.302 285.965 240.548 285.828C240.636 285.828 240.548 285.727 240.159 285.991C240.019 286.077 239.889 286.178 239.771 286.292L239.909 286.116L240.297 285.652C240.561 285.376 240.862 284.925 241.15 284.561C241.714 283.784 242.291 282.944 242.868 282.053C244.009 280.273 245.113 278.291 246.204 276.297C248.373 272.297 250.379 268.059 252.336 263.757C253.715 260.723 257.803 251.493 261.277 243.229C261.778 242.033 262.513 240.948 263.437 240.038C264.362 239.128 265.458 238.411 266.662 237.928C267.866 237.445 269.154 237.206 270.451 237.225C271.748 237.244 273.029 237.52 274.218 238.038Z" fill="#699482"/>
<path opacity="0.2" d="M265.904 277.903C266.08 283.508 266.005 281.665 266.205 287.571C282.582 264.912 278.369 249.174 278.369 249.174L265.904 277.903Z" fill="black"/>
<path opacity="0.6" d="M274.218 238.038C275.402 238.555 276.471 239.301 277.365 240.233C278.258 241.165 278.959 242.265 279.425 243.47C279.891 244.674 280.114 245.959 280.082 247.25C280.049 248.541 279.761 249.813 279.234 250.992C274.218 262.278 265.816 280.072 262.205 286.317C260.838 288.524 259.458 290.731 257.916 292.938C257.151 294.054 256.286 295.145 255.408 296.286C254.906 296.85 254.505 297.377 253.916 297.979L253.076 298.857L252.599 299.346C251.26 300.587 249.662 301.516 247.922 302.067C247.003 302.368 246.064 302.607 245.113 302.782C243.566 303.031 242.002 303.161 240.435 303.171C237.727 303.171 219.117 304.838 209.612 301.515L209.11 291.27C218.591 292.023 235.131 286.894 237.263 286.668C238.11 286.558 238.948 286.386 239.771 286.154C240.041 286.075 240.302 285.965 240.548 285.828C240.636 285.828 240.548 285.727 240.159 285.991C240.019 286.077 239.889 286.178 239.771 286.292L239.909 286.116L240.297 285.652C240.561 285.376 240.862 284.925 241.15 284.561C241.714 283.784 242.291 282.944 242.868 282.053C244.009 280.273 245.113 278.291 246.204 276.297C248.373 272.297 250.379 268.059 252.336 263.757C253.715 260.723 257.803 251.493 261.277 243.229C261.778 242.033 262.513 240.948 263.437 240.038C264.362 239.128 265.458 238.411 266.662 237.928C267.866 237.445 269.154 237.206 270.451 237.225C271.748 237.244 273.029 237.52 274.218 238.038Z" fill="white"/>
<path d="M292.639 194.149C291.659 195.013 290.861 196.063 290.29 197.238C289.72 198.414 289.389 199.691 289.316 200.995C289.153 204.469 292.527 205.409 295.448 203.779C298.107 202.3 301.355 198.763 300.126 195.553C298.897 192.343 295.097 191.967 292.639 194.149Z" fill="#FAB27B"/>
<path d="M303.8 199.565C303.549 205.258 300.113 209.735 294.42 209.484C288.727 209.233 285.642 204.468 285.943 198.775C286.244 193.082 289.642 188.605 295.335 188.856C301.029 189.107 304.026 193.872 303.8 199.565Z" fill="#699482"/>
<path opacity="0.7" d="M303.8 199.565C303.549 205.258 300.113 209.735 294.42 209.484C288.727 209.233 285.642 204.468 285.943 198.775C286.244 193.082 289.642 188.605 295.335 188.856C301.029 189.107 304.026 193.872 303.8 199.565Z" fill="white"/>
<path d="M301.179 199.453C300.991 203.478 298.571 206.626 294.545 206.45C290.52 206.275 288.388 202.914 288.576 198.926C288.765 194.938 291.172 191.753 295.198 191.929C299.223 192.104 301.355 195.402 301.179 199.453Z" fill="#699482"/>
<path opacity="0.3" d="M301.179 199.453C300.991 203.478 298.571 206.626 294.545 206.45C290.52 206.275 288.388 202.914 288.576 198.926C288.765 194.938 291.172 191.753 295.198 191.929C299.223 192.104 301.355 195.402 301.179 199.453Z" fill="white"/>
<path d="M294.583 187.878C295.75 183.088 300.364 170.322 309.932 168.541C310.393 168.463 310.866 168.505 311.305 168.663C311.744 168.821 312.136 169.09 312.44 169.444L313.581 170.698C313.849 171.008 314.044 171.373 314.152 171.768C314.26 172.162 314.279 172.576 314.207 172.978C314.135 173.381 313.974 173.762 313.735 174.095C313.497 174.427 313.187 174.702 312.829 174.899C306.835 178.043 302.099 183.146 299.411 189.358C299.222 189.801 298.88 190.162 298.447 190.374C298.014 190.585 297.52 190.634 297.054 190.512L295.988 190.223C295.499 190.085 295.081 189.765 294.82 189.329C294.559 188.893 294.475 188.374 294.583 187.878Z" fill="#699482"/>
<path opacity="0.2" d="M294.583 187.878C295.75 183.088 300.364 170.322 309.932 168.541C310.393 168.463 310.866 168.505 311.305 168.663C311.744 168.821 312.136 169.09 312.44 169.444L313.581 170.698C313.849 171.008 314.044 171.373 314.152 171.768C314.26 172.162 314.279 172.576 314.207 172.978C314.135 173.381 313.974 173.762 313.735 174.095C313.497 174.427 313.187 174.702 312.829 174.899C306.835 178.043 302.099 183.146 299.411 189.358C299.222 189.801 298.88 190.162 298.447 190.374C298.014 190.585 297.52 190.634 297.054 190.512L295.988 190.223C295.499 190.085 295.081 189.765 294.82 189.329C294.559 188.893 294.475 188.374 294.583 187.878Z" fill="white"/>
<path d="M227.231 328.013H219.08V362.799H227.231V328.013Z" fill="#263238"/>
<path d="M227.231 328.013H219.08V362.799H227.231V328.013Z" fill="#263238"/>
<path d="M250.844 338.634C232.904 332.367 213.369 332.367 195.429 338.634C193.625 339.312 191.634 339.303 189.835 338.61C188.037 337.916 186.556 336.586 185.673 334.872C184.006 331.361 186.238 326.809 190.765 325.229C211.716 317.906 234.532 317.906 255.484 325.229C259.998 326.796 262.23 331.361 260.575 334.872C259.687 336.574 258.209 337.895 256.419 338.588C254.628 339.28 252.646 339.296 250.844 338.634Z" fill="#263238"/>
<path opacity="0.4" d="M250.844 338.634C232.904 332.367 213.369 332.367 195.429 338.634C193.625 339.312 191.634 339.303 189.835 338.61C188.037 337.916 186.556 336.586 185.673 334.872C184.006 331.361 186.238 326.809 190.765 325.229C211.716 317.906 234.532 317.906 255.484 325.229C259.998 326.796 262.23 331.361 260.575 334.872C259.687 336.574 258.209 337.895 256.419 338.588C254.628 339.28 252.646 339.296 250.844 338.634Z" fill="#263238"/>
<path d="M242.341 502.557C242.341 503.812 241.969 505.039 241.272 506.082C240.575 507.126 239.584 507.939 238.424 508.419C237.265 508.9 235.989 509.025 234.758 508.78C233.527 508.536 232.397 507.931 231.509 507.044C230.622 506.156 230.018 505.026 229.773 503.795C229.528 502.564 229.654 501.288 230.134 500.129C230.614 498.969 231.427 497.978 232.471 497.281C233.514 496.584 234.741 496.212 235.996 496.212C237.679 496.212 239.293 496.88 240.483 498.07C241.673 499.26 242.341 500.874 242.341 502.557Z" fill="#263238"/>
<path d="M335.514 502.556C335.514 503.812 335.886 505.039 336.584 506.083C337.282 507.127 338.273 507.94 339.434 508.42C340.594 508.9 341.87 509.025 343.101 508.779C344.333 508.533 345.463 507.927 346.35 507.039C347.237 506.15 347.84 505.018 348.084 503.787C348.327 502.555 348.2 501.279 347.718 500.12C347.235 498.96 346.42 497.97 345.375 497.275C344.33 496.579 343.102 496.209 341.846 496.211C341.011 496.203 340.183 496.361 339.41 496.677C338.637 496.993 337.935 497.461 337.345 498.052C336.755 498.643 336.29 499.346 335.975 500.119C335.66 500.893 335.504 501.721 335.514 502.556Z" fill="#263238"/>
<path d="M280.563 500.525C280.564 501.784 280.938 503.013 281.638 504.058C282.339 505.103 283.334 505.917 284.498 506.394C285.662 506.872 286.942 506.994 288.175 506.743C289.407 506.492 290.538 505.88 291.422 504.985C292.306 504.09 292.905 502.952 293.141 501.717C293.377 500.481 293.241 499.203 292.749 498.045C292.257 496.887 291.432 495.901 290.379 495.213C289.326 494.525 288.092 494.165 286.833 494.18C285.164 494.2 283.569 494.877 282.395 496.065C281.222 497.253 280.563 498.855 280.563 500.525Z" fill="#263238"/>
<path d="M355.678 494.03C355.538 494.752 355.146 495.401 354.572 495.861C353.997 496.32 353.278 496.56 352.543 496.538L286.394 495.635L224.434 497.04C223.665 497.055 222.917 496.782 222.338 496.274C221.76 495.766 221.392 495.061 221.307 494.295C221.222 493.53 221.426 492.761 221.88 492.139C222.333 491.517 223.003 491.086 223.757 490.933L257.615 484.362C261.126 483.707 264.69 483.375 268.262 483.371H304.628C308.195 483.374 311.755 483.706 315.262 484.362L353.283 490.456C354.07 490.62 354.762 491.086 355.21 491.754C355.658 492.422 355.826 493.239 355.678 494.03Z" fill="#263238"/>
<path d="M297.631 428.145H275.134V492.914H297.631V428.145Z" fill="#263238"/>
<path d="M294.408 387.113H278.369V428.47H294.408V387.113Z" fill="#263238"/>
<path opacity="0.2" d="M278.369 394.775L294.408 398.813V387.113H278.369V394.775Z" fill="black"/>
<path d="M279.937 357.683V386.926H194.539C192.685 386.93 190.862 386.442 189.258 385.512C187.653 384.582 186.324 383.243 185.406 381.631C184.488 380.02 184.014 378.194 184.033 376.339C184.051 374.485 184.561 372.668 185.51 371.075C187.922 366.999 191.354 363.62 195.468 361.272C199.582 358.923 204.236 357.686 208.973 357.683H279.937Z" fill="#699482"/>
<path opacity="0.2" d="M279.937 357.683V386.926H194.539C192.685 386.93 190.862 386.442 189.258 385.512C187.653 384.582 186.324 383.243 185.406 381.631C184.488 380.02 184.014 378.194 184.033 376.339C184.051 374.485 184.561 372.668 185.51 371.075C187.922 366.999 191.354 363.62 195.468 361.272C199.582 358.923 204.236 357.686 208.973 357.683H279.937Z" fill="white"/>
<path d="M297.129 249.387C296.916 250.327 296.777 251.283 296.715 252.246L287.322 386.424H274.369L283.749 252.246C283.742 252.141 283.742 252.037 283.749 251.932L297.129 249.387Z" fill="#699482"/>
<path opacity="0.2" d="M297.129 249.387C296.916 250.327 296.777 251.283 296.715 252.246L287.322 386.424H274.369L283.749 252.246C283.742 252.141 283.742 252.037 283.749 251.932L297.129 249.387Z" fill="white"/>
<path d="M356.694 386.951V387.102H354.512C355.242 387.102 355.971 387.052 356.694 386.951Z" fill="#263238"/>
<path d="M385.536 248.535L385.686 232.584C385.768 228.168 384.193 223.882 381.272 220.57L371.855 209.949L368.481 183.377C368.246 181.391 367.282 179.563 365.776 178.248C364.27 176.932 362.33 176.221 360.33 176.254H336.931C335.045 176.277 333.207 176.854 331.646 177.913C330.086 178.972 328.871 180.466 328.153 182.211L316.353 210.789L296.84 222.313C294.377 223.758 292.237 225.694 290.552 227.999C288.867 230.305 287.674 232.933 287.047 235.719L283.485 252.021H283.761L297.104 249.513C296.891 250.453 296.752 251.409 296.69 252.372L287.298 386.55H360.744C361.478 386.55 362.212 386.5 362.939 386.399C366.626 385.835 370.014 384.041 372.554 381.31C375.094 378.579 376.637 375.069 376.933 371.351L385.335 251.105C385.392 250.245 385.392 249.382 385.335 248.522L385.536 248.535ZM324.153 238.39L301.317 240.547L300.327 240.647L303.487 230.264L319.174 222.991L324.403 220.558L325.231 222.991L325.369 223.404L326.134 225.649L324.153 238.39ZM369.021 238.666L366.224 237.938C366.224 237.06 366.124 236.158 366.074 235.267C365.785 230.251 365.547 225.611 365.547 225.611L365.886 223.969L366.588 220.52L376.72 230.276V240.659L369.021 238.666Z" fill="#726D6A"/>
</g>
<defs>
<clipPath id="clip0_816_644">
<rect width="424" height="519" fill="white"/>
</clipPath>
</defs>
</svg>
