<svg width="428" height="519" viewBox="0 0 428 519" fill="none" xmlns="http://www.w3.org/2000/svg">
<path d="M212.512 500.749C311.367 500.749 391.505 455.01 391.505 398.589C391.505 342.167 311.367 296.429 212.512 296.429C113.656 296.429 33.5181 342.167 33.5181 398.589C33.5181 455.01 113.656 500.749 212.512 500.749Z" fill="#E68716" fill-opacity="0.5"/>
<path d="M345.32 518.67C372.254 518.67 394.088 503.634 394.088 485.085C394.088 466.537 372.254 451.5 345.32 451.5C318.386 451.5 296.552 466.537 296.552 485.085C296.552 503.634 318.386 518.67 345.32 518.67Z" fill="#C5DDC1"/>
<path d="M80.2547 475C102.309 475 120.187 462.688 120.187 447.5C120.187 432.312 102.309 420 80.2547 420C58.2009 420 40.3228 432.312 40.3228 447.5C40.3228 462.688 58.2009 475 80.2547 475Z" fill="#A5BDB2"/>
<path d="M218.805 364.62L193.567 347.387C193.148 347.133 192.684 347 192.213 347C191.742 347 191.278 347.133 190.859 347.387L107.211 404.533C107.047 404.598 106.905 404.722 106.804 404.888C106.703 405.053 106.648 405.253 106.648 405.457C106.648 405.662 106.703 405.861 106.804 406.027C106.905 406.193 107.047 406.317 107.211 406.382L132.443 423.622C132.864 423.871 133.327 424 133.797 424C134.267 424 134.73 423.871 135.151 423.622L142.606 418.527L211.343 371.7L218.811 366.505C218.98 366.44 219.127 366.314 219.231 366.144C219.335 365.974 219.391 365.769 219.39 365.56C219.389 365.35 219.332 365.146 219.227 364.977C219.122 364.808 218.974 364.683 218.805 364.62Z" fill="#8E8E8E" fill-opacity="0.68"/>
<path d="M352.658 500.761L346.147 501.103C346.147 501.103 329.45 475.681 320.869 453.112C312.088 430.003 311.087 398.718 329.968 398.194C348.849 397.671 336.868 430.205 340.951 451.249C345.034 472.293 352.658 500.761 352.658 500.761Z" fill="#135139"/>
<path opacity="0.15" d="M352.658 500.761L346.147 501.103C346.147 501.103 329.45 475.681 320.869 453.112C312.088 430.003 311.087 398.718 329.968 398.194C348.849 397.671 336.868 430.205 340.951 451.249C345.034 472.293 352.658 500.761 352.658 500.761Z" fill="black"/>
<path d="M347.975 495.206C347.912 495.245 347.841 495.27 347.765 495.279C347.69 495.288 347.612 495.282 347.536 495.26C347.46 495.238 347.387 495.201 347.322 495.152C347.256 495.103 347.2 495.041 347.155 494.972C321.534 455.329 320.669 421.343 327.719 404.288C327.778 404.146 327.891 404.04 328.036 403.994C328.18 403.948 328.342 403.964 328.487 404.041C328.632 404.117 328.748 404.246 328.809 404.401C328.87 404.555 328.872 404.721 328.813 404.863C321.873 421.649 322.77 455.16 348.109 494.375C348.155 494.445 348.188 494.522 348.207 494.601C348.225 494.681 348.228 494.762 348.215 494.839C348.203 494.916 348.175 494.989 348.134 495.052C348.092 495.115 348.038 495.167 347.975 495.206Z" fill="white"/>
<path d="M355.575 500.571L349.818 500.959C349.818 500.959 341.907 488.283 339.465 466.559C337.29 447.268 345.003 425.923 354.174 425.642C361.286 425.413 367.055 431.409 365.33 439.082C363.604 446.755 347.902 470.848 355.575 500.571Z" fill="#135139"/>
<path d="M351.219 497.734C352.05 497.416 350.955 495.276 350.755 494.677C350.386 493.553 350.042 492.435 349.726 491.298C349.117 489.084 348.617 486.852 348.228 484.609C347.483 480.296 347.101 475.964 347.087 471.664C347.072 467.641 347.326 463.651 347.847 459.723C348.323 456.187 348.983 452.699 349.824 449.274C350.522 446.399 351.351 443.565 352.297 440.793C352.998 438.751 353.731 436.758 354.573 434.785C355.01 433.754 355.453 432.73 355.952 431.727L356.095 431.446C356.177 431.291 356.191 431.102 356.135 430.92C356.078 430.739 355.957 430.58 355.796 430.479C355.635 430.377 355.448 430.342 355.277 430.38C355.106 430.419 354.964 430.527 354.883 430.683C354.563 431.289 354.287 431.912 354.04 432.516C353.316 434.156 352.621 435.776 352.013 437.477C351.088 439.969 350.258 442.506 349.522 445.088C348.609 448.291 347.854 451.548 347.259 454.858C346.569 458.616 346.117 462.441 345.904 466.311C345.662 470.491 345.749 474.72 346.161 478.959C346.589 483.452 347.442 487.938 348.709 492.354C348.959 493.201 349.217 494.04 349.483 494.869C349.652 495.761 349.979 496.63 350.448 497.432C350.54 497.548 350.659 497.639 350.791 497.695C350.923 497.75 351.064 497.769 351.198 497.748L351.219 497.734Z" fill="white"/>
<path d="M357.214 500.215L352.791 495.499C352.791 495.499 362.011 466.618 374.18 445.709C386.644 424.304 410.467 403.577 422.927 417.553C435.388 431.528 402.303 443.213 388.455 459.74C374.607 476.267 357.214 500.215 357.214 500.215Z" fill="#135139"/>
<path opacity="0.15" d="M357.214 500.215L352.791 495.499C352.791 495.499 362.011 466.618 374.18 445.709C386.644 424.304 410.467 403.577 422.927 417.553C435.388 431.528 402.303 443.213 388.455 459.74C374.607 476.267 357.214 500.215 357.214 500.215Z" fill="black"/>
<path d="M358.567 493.121C358.497 493.098 358.432 493.059 358.377 493.008C358.322 492.957 358.277 492.894 358.246 492.822C358.214 492.75 358.196 492.672 358.193 492.591C358.19 492.51 358.202 492.428 358.227 492.349C372.871 447.628 398.892 425.28 416.727 419.737C416.875 419.691 417.03 419.71 417.159 419.79C417.287 419.869 417.377 420.003 417.41 420.162C417.443 420.321 417.416 420.491 417.335 420.636C417.253 420.781 417.124 420.888 416.975 420.934C399.421 426.387 373.792 448.457 359.303 492.692C359.278 492.771 359.239 492.845 359.188 492.91C359.138 492.975 359.077 493.028 359.008 493.068C358.94 493.108 358.865 493.133 358.79 493.142C358.714 493.151 358.638 493.144 358.567 493.121Z" fill="white"/>
<path d="M359.224 502.305L355.247 498.189C355.247 498.189 360.108 484.103 375.535 468.386C389.231 454.425 410.843 446.646 416.916 453.418C421.634 458.662 420.629 466.862 413.528 470.452C406.427 474.041 377.567 477.518 359.224 502.305Z" fill="#135139"/>
<path d="M358.662 497.193C359.441 497.62 360.416 495.423 360.757 494.89C361.4 493.892 362.054 492.918 362.742 491.953C364.084 490.078 365.51 488.275 367.015 486.549C369.912 483.231 373.055 480.176 376.409 477.422C379.545 474.842 382.826 472.488 386.23 470.376C389.299 468.479 392.448 466.753 395.662 465.205C398.355 463.899 401.101 462.718 403.872 461.666C405.915 460.894 407.942 460.177 410.022 459.557C411.108 459.229 412.19 458.911 413.293 458.649L413.604 458.579C413.777 458.541 413.934 458.431 414.04 458.273C414.147 458.115 414.193 457.921 414.169 457.734C414.146 457.548 414.055 457.384 413.915 457.278C413.776 457.173 413.601 457.135 413.427 457.172C412.749 457.317 412.086 457.506 411.455 457.704C409.712 458.202 408.001 458.709 406.283 459.334C403.745 460.224 401.231 461.214 398.742 462.304C395.655 463.657 392.627 465.163 389.659 466.824C386.28 468.701 383.001 470.799 379.839 473.108C376.417 475.593 373.165 478.357 370.114 481.376C366.874 484.567 363.911 488.078 361.266 491.856C360.764 492.587 360.273 493.318 359.794 494.049C359.204 494.746 358.733 495.549 358.406 496.416C358.374 496.56 358.379 496.707 358.42 496.843C358.46 496.979 358.536 497.098 358.637 497.186L358.662 497.193Z" fill="white"/>
<path d="M91.4274 423.493C91.4274 423.493 91.5664 404.614 84.8652 388.988C78.164 373.362 67.6819 362.791 57.0521 360.374C46.4223 357.958 36.6182 367.682 47.2219 376.741C57.8257 385.801 77.3035 396.286 83.5267 425.631L91.4274 423.493Z" fill="#135139"/>
<path opacity="0.15" d="M91.4274 423.493C91.4274 423.493 91.5664 404.614 84.8652 388.988C78.164 373.362 67.6819 362.791 57.0521 360.374C46.4223 357.958 36.6182 367.682 47.2219 376.741C57.8257 385.801 77.3035 396.286 83.5267 425.631L91.4274 423.493Z" fill="black"/>
<path d="M86.9941 420.229C86.8832 420.229 86.7765 420.183 86.6957 420.098C86.6149 420.014 86.5662 419.899 86.5595 419.777C84.9255 389.555 62.449 369.905 51.3412 366.555C51.2309 366.521 51.1371 366.441 51.0801 366.331C51.0231 366.221 51.0076 366.09 51.037 365.968C51.0676 365.843 51.1413 365.737 51.2421 365.672C51.343 365.607 51.4629 365.589 51.5758 365.621C62.8749 369.039 85.7686 389.016 87.4287 419.719C87.4314 419.845 87.3908 419.968 87.315 420.063C87.2392 420.158 87.1339 420.217 87.0202 420.229H86.9941Z" fill="white"/>
<path d="M92.8007 449.411C94.9539 446.401 96.3987 442.846 97.0055 439.066C97.6123 435.285 97.3621 431.396 96.2773 427.749C95.6464 425.546 94.637 423.5 93.3048 421.722C92.2357 420.326 90.6973 419.604 89.4457 418.439C86.7513 415.964 83.6224 413.336 82.6489 409.408C81.8666 406.279 82.0318 403.314 80.4673 400.377C79.5455 398.538 78.0775 397.11 76.3127 396.334C74.0094 395.371 71.4715 396.006 69.0379 396.334C65.5612 396.767 62.9537 395.438 59.9465 393.667C56.635 391.741 52.7672 390.22 49.1776 391.404C48.0101 391.788 46.9284 392.438 46.0025 393.314C45.0765 394.19 44.3271 395.271 43.8026 396.489C43.2782 397.706 42.9905 399.031 42.9581 400.38C42.9258 401.728 43.1496 403.069 43.6149 404.315C44.4146 406.472 45.8921 408.224 46.9786 410.226C48.065 412.229 48.6387 414.52 47.8478 416.706C47.2393 418.323 46.1094 419.594 45.6575 421.24C44.3711 425.573 45.0925 429.424 48.9777 431.658C53.0366 433.959 59.4076 432.226 61.4414 437.877C62.2063 440.024 62.2323 442.402 62.6495 444.664C63.5059 449.218 65.8959 453.239 69.3334 455.91C74.0008 459.501 80.3369 458.625 85.1782 456.121C88.1524 454.566 90.7613 452.269 92.8007 449.411Z" fill="#135139"/>
<path d="M56.2085 422.069C56.3035 422.087 56.4012 422.07 56.4867 422.021C59.91 420.555 63.5838 419.947 67.2445 420.24C70.9051 420.533 74.4619 421.719 77.6594 423.715C77.7689 423.78 77.8972 423.794 78.0162 423.754C78.1351 423.715 78.235 423.624 78.2939 423.503C78.3244 423.444 78.3439 423.379 78.3512 423.311C78.3586 423.243 78.3536 423.175 78.3366 423.109C78.3195 423.044 78.2909 422.983 78.2522 422.93C78.2135 422.877 78.1656 422.833 78.1114 422.801C74.7893 420.734 71.0951 419.508 67.2944 419.212C63.4937 418.916 59.681 419.556 56.1303 421.087C56.0468 421.138 55.9793 421.215 55.9365 421.31C55.8938 421.404 55.878 421.51 55.8913 421.615C55.9045 421.719 55.946 421.817 56.0105 421.894C56.0749 421.972 56.1591 422.026 56.252 422.05L56.2085 422.069Z" fill="white"/>
<path d="M86.5603 449.575C86.4465 449.577 86.3363 449.53 86.2534 449.444C86.1706 449.357 86.1216 449.238 86.1171 449.112C85.3087 427.354 65.5875 404.344 52.3676 398.086C52.3142 398.062 52.2657 398.026 52.2249 397.981C52.1841 397.936 52.1519 397.882 52.13 397.823C52.1082 397.764 52.0972 397.7 52.0977 397.636C52.0982 397.572 52.1102 397.509 52.1329 397.451C52.1805 397.332 52.2684 397.239 52.3775 397.192C52.4866 397.146 52.608 397.148 52.7152 397.2C66.1438 403.574 86.1692 426.969 86.9949 449.093C86.9972 449.158 86.9881 449.222 86.9679 449.283C86.9478 449.343 86.917 449.399 86.8775 449.446C86.8379 449.494 86.7903 449.532 86.7374 449.559C86.6845 449.586 86.6272 449.601 86.569 449.603L86.5603 449.575Z" fill="white"/>
<path d="M81.3092 224.041L75.0548 228.037L75.0773 220.027L70.3977 217.018L59.4862 224.041V238.087L48.5747 245.11V259.156L53.2543 262.166L59.4862 258.152V266.187L64.1658 269.197L75.0773 262.166V248.12L85.9888 241.097V227.05L81.3092 224.041Z" fill="#135139"/>
<path d="M53.2549 248.119V262.166L64.1664 255.142V269.197L75.0779 262.166V248.119L85.9894 241.096V227.05L75.0404 234.098L75.0779 220.027L64.1664 227.05V241.096L53.2549 248.119Z" fill="#135139"/>
<g opacity="0.2">
<path opacity="0.2" d="M53.2543 262.165L48.5747 259.155V245.109L53.2543 248.119V262.165Z" fill="#C5DDC1"/>
<path opacity="0.2" d="M64.1654 227.05L59.4858 224.04V238.086L64.1654 241.096V227.05Z" fill="#C5DDC1"/>
<path opacity="0.2" d="M64.1654 269.196L59.4858 266.186V258.151L64.1654 255.142V269.196Z" fill="#C5DDC1"/>
</g>
<g opacity="0.5">
<path opacity="0.5" d="M64.1658 241.097L59.4862 238.087L48.5747 245.11L53.2543 248.12L64.1658 241.097Z" fill="white"/>
<path opacity="0.5" d="M75.0769 220.027L70.3973 217.018L59.4858 224.041L64.1654 227.05L75.0769 220.027Z" fill="white"/>
<path opacity="0.5" d="M85.9895 227.051L81.31 224.041L75.0555 228.037L75.0405 234.099L85.9895 227.051Z" fill="white"/>
</g>
<path d="M254.148 241.334C253.95 241.143 253.737 240.972 253.511 240.824C252.716 240.297 249.116 237.99 248.929 237.864C247.024 236.51 244.009 236.811 241.325 238.324C237.477 240.49 234.275 245.063 231.83 252.68C231.83 252.68 229.356 250.698 228.553 250.171C226.566 248.959 224.241 249.544 221.624 251.442C218.677 253.582 216.667 256.358 214.83 260.555V260.631C213.237 264.194 212.367 268.105 212.28 272.085C212.28 280.889 215.512 285.086 219.719 288.238C220.919 289.141 224.091 291.039 224.406 291.273C226.945 293.142 229.753 294.51 232.708 295.319L236.855 296.398L241.002 289.985C244.021 285.257 246.793 280.338 249.304 275.254C253.511 266.684 256.803 258.29 256.743 249.519C256.683 245.765 255.716 243.006 254.148 241.334Z" fill="#EA7C22" fill-opacity="0.53"/>
<path opacity="0.3" d="M254.148 241.334C253.95 241.143 253.737 240.972 253.511 240.824C252.716 240.297 249.116 237.99 248.929 237.864C247.024 236.51 244.009 236.811 241.325 238.324C237.477 240.49 234.275 245.063 231.83 252.68C231.83 252.68 229.356 250.698 228.553 250.171C226.566 248.959 224.241 249.544 221.624 251.442C218.677 253.582 216.667 256.358 214.83 260.555V260.631C213.237 264.194 212.367 268.105 212.28 272.085C212.28 280.889 215.512 285.086 219.719 288.238C220.919 289.141 224.091 291.039 224.406 291.273C226.945 293.142 229.753 294.51 232.708 295.319L236.855 296.398L241.002 289.985C244.021 285.257 246.793 280.338 249.304 275.254C253.511 266.684 256.803 258.29 256.743 249.519C256.683 245.765 255.716 243.006 254.148 241.334Z" fill="black"/>
<path d="M254.149 241.334C253.951 241.143 253.737 240.972 253.511 240.824C252.716 240.297 249.117 237.99 248.929 237.864C247.024 236.51 244.01 236.811 241.325 238.324C237.478 240.49 234.276 245.063 231.831 252.68C231.831 252.68 229.356 250.698 228.554 250.171C226.566 248.959 224.242 249.544 221.624 251.442C218.677 253.582 216.667 256.358 214.83 260.555V260.631C214.747 260.815 214.68 260.998 214.605 261.182L246.102 281.432C247.219 279.409 248.307 277.36 249.342 275.254C253.549 266.684 256.841 258.29 256.781 249.519C256.684 245.765 255.716 243.006 254.149 241.334Z" fill="#EA7C22" fill-opacity="0.53"/>
<path opacity="0.15" d="M254.149 241.334C253.951 241.143 253.737 240.972 253.511 240.824C252.716 240.297 249.117 237.99 248.929 237.864C247.024 236.51 244.01 236.811 241.325 238.324C237.478 240.49 234.276 245.063 231.831 252.68C231.831 252.68 229.356 250.698 228.554 250.171C226.566 248.959 224.242 249.544 221.624 251.442C218.677 253.582 216.667 256.358 214.83 260.555V260.631C214.747 260.815 214.68 260.998 214.605 261.182L246.102 281.432C247.219 279.409 248.307 277.36 249.342 275.254C253.549 266.684 256.841 258.29 256.781 249.519C256.684 245.765 255.716 243.006 254.149 241.334Z" fill="black"/>
<path d="M231.809 252.647L236.023 258.775L242.818 249.812L235.138 244.871C233.771 247.316 232.654 249.924 231.809 252.647Z" fill="#EA7C22" fill-opacity="0.53"/>
<path opacity="0.3" d="M231.809 252.647L236.023 258.775L242.818 249.812L235.138 244.871C233.771 247.316 232.654 249.924 231.809 252.647Z" fill="black"/>
<path d="M254.148 241.334C252.311 239.503 248.966 239.662 246.012 241.334C241.985 243.608 238.655 248.516 236.165 256.826C233.675 251.726 230.346 251.567 226.318 254.485C223.364 256.626 221.354 259.401 219.524 263.599L219.487 263.674C217.9 267.242 217.032 271.155 216.944 275.136C216.944 283.94 220.184 288.137 224.384 291.289C226.923 293.158 229.731 294.527 232.685 295.336L236.832 296.414L240.98 290.002C243.999 285.273 246.771 280.355 249.281 275.27C253.488 266.7 256.781 258.306 256.721 249.536C256.683 245.765 255.716 243.006 254.148 241.334Z" fill="#EA7C22" fill-opacity="0.53"/>
<g opacity="0.07">
<path opacity="0.07" d="M250.609 240.498C251.765 240.439 252.902 240.845 253.812 241.643C253.827 241.679 253.85 241.711 253.879 241.735C255.424 243.307 256.286 246.1 256.294 249.578C256.294 258.733 252.544 267.62 248.907 275.095C246.415 280.163 243.661 285.065 240.658 289.776L236.676 295.955L232.798 294.943C229.888 294.146 227.121 292.8 224.617 290.963C220.867 288.121 217.327 284.275 217.357 275.178C217.437 271.266 218.279 267.421 219.825 263.908V263.833C221.669 259.61 223.657 256.943 226.477 254.903C227.786 253.82 229.349 253.182 230.976 253.064C232.881 253.064 234.448 254.377 235.768 257.077C235.801 257.149 235.851 257.21 235.914 257.251C235.976 257.293 236.048 257.314 236.121 257.311H236.158C236.235 257.303 236.309 257.271 236.37 257.217C236.431 257.164 236.478 257.092 236.503 257.01C238.88 249.076 242.038 244.093 246.147 241.777C247.519 240.976 249.038 240.538 250.587 240.498H250.609ZM250.587 240.055C248.976 240.092 247.395 240.544 245.967 241.376C241.94 243.65 238.61 248.558 236.121 256.868C234.681 253.908 232.956 252.613 230.976 252.613C229.277 252.737 227.645 253.401 226.274 254.527C223.319 256.667 221.309 259.443 219.48 263.64L219.442 263.716C217.856 267.284 216.988 271.196 216.9 275.178C216.9 283.982 220.14 288.179 224.339 291.331C226.878 293.2 229.686 294.569 232.641 295.378L236.788 296.456L240.935 290.044C243.954 285.315 246.726 280.397 249.237 275.312C253.444 266.742 256.736 258.348 256.676 249.578C256.676 245.807 255.694 243.006 254.126 241.401C253.137 240.502 251.885 240.041 250.609 240.105L250.587 240.055Z" fill="black"/>
</g>
<path d="M253.692 265.037L245.622 270.238L242.623 258.073C242.58 257.889 242.483 257.726 242.346 257.613C242.21 257.499 242.043 257.44 241.873 257.446C241.697 257.442 241.526 257.507 241.389 257.629C241.252 257.751 241.158 257.923 241.123 258.115L236.451 281.909L232.521 269.92C232.513 269.698 232.427 269.489 232.28 269.339C232.134 269.188 231.94 269.108 231.741 269.117C231.542 269.126 231.355 269.223 231.22 269.386C231.085 269.549 231.013 269.765 231.021 269.987L228.366 280.496L219.487 286.215C219.779 286.688 220.095 287.143 220.432 287.578L229.431 281.801C229.605 281.688 229.734 281.506 229.791 281.291L231.884 272.997L235.911 285.254C235.964 285.425 236.066 285.572 236.202 285.674C236.337 285.775 236.498 285.824 236.661 285.814C236.827 285.804 236.986 285.734 237.112 285.613C237.239 285.491 237.325 285.327 237.358 285.145L241.933 261.885L244.348 271.759C244.376 271.886 244.431 272.004 244.508 272.103C244.585 272.202 244.682 272.279 244.791 272.329C244.899 272.379 245.017 272.399 245.134 272.389C245.251 272.378 245.365 272.337 245.465 272.269L252.634 267.663C253.047 266.785 253.377 265.915 253.692 265.037Z" fill="white"/>
<path d="M291.504 116.43C291.446 115.201 291.127 114.005 290.575 112.94C290.022 111.875 289.251 110.971 288.324 110.302L285.748 108.629C284.762 108.079 283.676 107.793 282.574 107.793C281.472 107.793 280.386 108.079 279.401 108.629L219.534 147.199C218.608 147.87 217.838 148.774 217.286 149.839C216.733 150.903 216.414 152.098 216.354 153.327V187.839C216.415 189.067 216.735 190.261 217.287 191.326C217.839 192.391 218.609 193.295 219.534 193.966L222.122 195.626C223.105 196.185 224.192 196.477 225.296 196.477C226.399 196.477 227.486 196.185 228.469 195.626L288.324 157.069C289.251 156.4 290.022 155.497 290.575 154.431C291.127 153.366 291.446 152.17 291.504 150.942V116.43Z" fill="#135139" fill-opacity="0.76"/>
<path opacity="0.5" d="M291.504 116.43C291.446 115.201 291.127 114.005 290.575 112.94C290.022 111.875 289.251 110.971 288.324 110.302L285.748 108.629C284.762 108.079 283.676 107.793 282.574 107.793C281.472 107.793 280.386 108.079 279.401 108.629L219.534 147.199C218.608 147.87 217.838 148.774 217.286 149.839C216.733 150.903 216.414 152.098 216.354 153.327V187.839C216.415 189.067 216.735 190.261 217.287 191.326C217.839 192.391 218.609 193.295 219.534 193.966L222.122 195.626C223.105 196.185 224.192 196.477 225.296 196.477C226.399 196.477 227.486 196.185 228.469 195.626L288.324 157.069C289.251 156.4 290.022 155.497 290.575 154.431C291.127 153.366 291.446 152.17 291.504 150.942V116.43Z" fill="white"/>
<path opacity="0.2" d="M216.354 187.839C216.415 189.067 216.735 190.262 217.287 191.326C217.839 192.391 218.609 193.295 219.534 193.966L222.122 195.627C223.016 196.129 223.996 196.415 224.996 196.465C225.996 196.514 226.995 196.328 227.926 195.917C226.424 196.549 225.29 195.613 225.29 193.584V159.072C225.328 157.838 225.65 156.636 226.223 155.58L217.288 149.835C216.712 150.89 216.391 152.093 216.354 153.327V187.839Z" fill="black"/>
<path opacity="0.3" d="M291.398 115.429C291.032 113.926 289.803 113.439 288.337 114.387L228.47 152.945C227.528 153.589 226.753 154.498 226.224 155.58L217.3 149.835C217.828 148.756 218.598 147.848 219.534 147.199L279.389 108.642C280.372 108.083 281.46 107.792 282.563 107.792C283.666 107.792 284.754 108.083 285.737 108.642L288.337 110.302C289.132 110.882 289.813 111.635 290.339 112.516C290.865 113.397 291.225 114.388 291.398 115.429Z" fill="white"/>
<path d="M225.302 170.234L216.378 164.488L205.622 176.032C205.46 176.213 205.337 176.434 205.263 176.676C205.189 176.918 205.165 177.176 205.194 177.43C205.222 177.684 205.302 177.927 205.428 178.141C205.553 178.356 205.72 178.536 205.917 178.667L214.699 184.36C215.063 184.572 215.472 184.668 215.881 184.637L225.337 182.62V170.234H225.302Z" fill="#135139" fill-opacity="0.76"/>
<path opacity="0.5" d="M225.302 170.234L216.378 164.488L205.622 176.032C205.46 176.213 205.337 176.434 205.263 176.676C205.189 176.918 205.165 177.176 205.194 177.43C205.222 177.684 205.302 177.927 205.428 178.141C205.553 178.356 205.72 178.536 205.917 178.667L214.699 184.36C215.063 184.572 215.472 184.668 215.881 184.637L225.337 182.62V170.234H225.302Z" fill="white"/>
<path opacity="0.3" d="M214.699 184.359L209.972 181.342L209.416 180.933L206.887 179.299L206.579 179.088L205.906 178.654C205.709 178.522 205.541 178.342 205.416 178.128C205.29 177.913 205.211 177.67 205.182 177.416C205.154 177.162 205.177 176.904 205.251 176.662C205.326 176.42 205.448 176.2 205.61 176.018L216.366 164.475L225.302 170.233L214.546 181.724C214.375 181.893 214.241 182.104 214.154 182.339C214.067 182.575 214.03 182.829 214.045 183.084C214.06 183.338 214.126 183.585 214.24 183.806C214.353 184.027 214.51 184.216 214.699 184.359Z" fill="white"/>
<path d="M242.784 159.625C241.549 160.521 240.521 161.729 239.784 163.15C239.046 164.572 238.62 166.168 238.541 167.808C238.541 170.813 240.444 172.038 242.784 170.536C244.017 169.64 245.043 168.432 245.779 167.01C246.514 165.587 246.938 163.992 247.015 162.353C247.015 159.322 245.124 158.123 242.784 159.625Z" fill="white"/>
<path d="M258.398 149.558C257.164 150.454 256.138 151.663 255.403 153.085C254.667 154.507 254.244 156.102 254.166 157.741C254.166 160.746 256.057 161.971 258.398 160.456C259.629 159.561 260.655 158.355 261.39 156.935C262.125 155.516 262.55 153.923 262.629 152.286C262.605 149.268 260.738 148.043 258.398 149.558Z" fill="white"/>
<path d="M274.011 139.477C272.78 140.376 271.755 141.585 271.02 143.006C270.285 144.428 269.86 146.022 269.78 147.66C269.78 150.678 271.671 151.89 274.011 150.388C275.248 149.491 276.277 148.281 277.014 146.857C277.751 145.433 278.177 143.834 278.255 142.192C278.255 139.2 276.352 137.975 274.011 139.477Z" fill="white"/>
<path d="M332.89 240.496L329.46 233.345L332.219 224.466V218.999L323.773 224.434V229.869L327.401 236.884C327.461 236.988 327.546 237.072 327.646 237.126L332.89 240.496Z" fill="#135139"/>
<path opacity="0.2" d="M332.89 240.496L329.46 233.345L332.219 224.466V218.999L323.773 224.434V229.869L327.401 236.884C327.461 236.988 327.546 237.072 327.646 237.126L332.89 240.496Z" fill="black"/>
<path d="M358.539 183.61C358.493 182.63 358.239 181.677 357.799 180.828C357.359 179.978 356.745 179.257 356.008 178.722L353.948 177.395C353.164 176.949 352.296 176.716 351.416 176.716C350.536 176.716 349.668 176.949 348.884 177.395L301.146 208.14C300.412 208.682 299.801 209.406 299.361 210.256C298.922 211.106 298.666 212.059 298.614 213.038V240.56C298.661 241.54 298.914 242.493 299.354 243.342C299.794 244.191 300.408 244.913 301.146 245.447L303.205 246.775C303.992 247.212 304.858 247.44 305.737 247.44C306.616 247.44 307.483 247.212 308.269 246.775L329.054 233.293L332.682 240.286C332.734 240.38 332.808 240.455 332.897 240.504C332.986 240.553 333.085 240.572 333.183 240.562C333.282 240.551 333.375 240.509 333.454 240.442C333.532 240.375 333.592 240.284 333.626 240.181L337.462 227.868L355.96 216.019C356.698 215.484 357.312 214.763 357.752 213.914C358.192 213.064 358.445 212.111 358.492 211.132L358.539 183.61Z" fill="#135139"/>
<path d="M312.917 218.368L351.085 193.795C352.219 193.068 353.135 193.584 353.135 194.954C353.084 195.719 352.872 196.46 352.515 197.117C352.159 197.774 351.669 198.328 351.085 198.735L312.917 223.308C311.793 224.035 310.876 223.518 310.876 222.149C310.928 221.385 311.139 220.645 311.493 219.988C311.848 219.331 312.335 218.776 312.917 218.368Z" fill="white"/>
<path d="M312.917 229.311L351.085 204.748C352.219 204.022 353.135 204.538 353.135 205.897C353.085 206.664 352.874 207.407 352.517 208.066C352.161 208.725 351.67 209.281 351.085 209.688L312.917 234.251C311.793 234.988 310.876 234.461 310.876 233.103C310.926 232.336 311.137 231.594 311.491 230.935C311.846 230.277 312.334 229.72 312.917 229.311Z" fill="white"/>
<path opacity="0.2" d="M298.614 240.56C298.661 241.54 298.914 242.493 299.354 243.342C299.794 244.192 300.408 244.913 301.146 245.448L303.205 246.775C303.919 247.175 304.7 247.402 305.498 247.442C306.295 247.482 307.092 247.334 307.835 247.006C306.644 247.501 305.737 246.754 305.737 245.142V217.62C305.767 216.638 306.021 215.682 306.474 214.839L299.351 210.247C298.898 211.093 298.644 212.053 298.614 213.038V240.56Z" fill="black"/>
<path opacity="0.2" d="M358.454 182.788C358.161 181.587 357.179 181.208 356.007 181.956L308.269 212.712C307.517 213.226 306.901 213.953 306.483 214.818L299.36 210.236C299.784 209.375 300.398 208.65 301.145 208.13L348.874 177.374C349.662 176.935 350.53 176.706 351.411 176.706C352.292 176.706 353.16 176.935 353.948 177.374L356.007 178.701C356.643 179.161 357.188 179.76 357.609 180.463C358.03 181.166 358.317 181.957 358.454 182.788Z" fill="white"/>
<path d="M187.886 148.632L112.756 196.972C112.012 197.513 111.394 198.244 110.952 199.103C110.51 199.962 110.257 200.926 110.214 201.916V399.162C110.214 400.968 111.356 401.701 112.756 400.79L187.886 352.435C188.625 351.895 189.24 351.169 189.681 350.315C190.123 349.462 190.378 348.505 190.428 347.521V150.245C190.428 148.439 189.286 147.699 187.886 148.632ZM186.77 332.905C186.77 334.452 185.795 335.436 184.593 336.206L115.796 380.505C114.602 381.245 113.619 380.653 113.619 379.099V215.066C113.619 214.218 113.82 213.385 114.201 212.651C114.582 211.917 115.13 211.308 115.79 210.885L184.586 166.578C184.807 166.435 185.058 166.359 185.313 166.359C185.568 166.358 185.819 166.432 186.041 166.574C186.262 166.716 186.446 166.92 186.574 167.166C186.702 167.413 186.77 167.692 186.77 167.977V332.905Z" fill="#455A64"/>
<path d="M186.77 332.906C186.77 334.452 185.794 335.437 184.593 336.206L115.796 380.506C114.601 381.246 113.619 380.654 113.619 379.1V215.067C113.619 214.219 113.82 213.386 114.201 212.652C114.582 211.918 115.13 211.308 115.789 210.886L184.586 166.579C184.807 166.436 185.057 166.36 185.313 166.359C185.568 166.359 185.819 166.433 186.04 166.575C186.262 166.717 186.446 166.921 186.574 167.167C186.702 167.413 186.769 167.693 186.77 167.977V332.906Z" fill="#263238"/>
<path d="M115.796 380.506L184.593 336.221C185.075 335.93 185.522 335.569 185.92 335.148L113.619 289.753V379.1C113.619 380.654 114.601 381.275 115.796 380.506Z" fill="#37474F"/>
<path d="M181.201 330.027V168.762L115.789 210.886C115.13 211.308 114.582 211.917 114.201 212.652C113.82 213.386 113.619 214.219 113.619 215.067V375.429L179.023 333.328C180.225 332.558 181.201 331.574 181.201 330.027Z" fill="#B4C7BF"/>
<path d="M112.437 400.991C111.679 401.347 110.86 401.516 110.037 401.486C109.214 401.455 108.407 401.226 107.671 400.813L104.764 398.941C104.022 398.405 103.404 397.681 102.961 396.829C102.518 395.976 102.262 395.018 102.215 394.034V196.736C102.232 196.005 102.381 195.285 102.653 194.619C102.746 194.39 102.845 194.168 102.958 193.938L110.924 199.119C110.757 199.452 110.61 199.799 110.486 200.155C110.292 200.715 110.187 201.309 110.174 201.909V399.163C110.214 400.828 111.183 401.583 112.437 400.991Z" fill="#263238"/>
<path d="M150.267 175.948C150.931 175.504 151.508 175.859 151.508 176.747C151.484 177.227 151.359 177.694 151.144 178.111C150.928 178.527 150.628 178.882 150.267 179.145C149.603 179.582 149.019 179.226 149.019 178.346C149.042 177.864 149.167 177.396 149.384 176.979C149.601 176.562 149.903 176.209 150.267 175.948Z" fill="#263238"/>
<path d="M142.249 187.633C142.86 187.241 143.351 187.559 143.351 188.373C143.331 188.799 143.22 189.213 143.029 189.583C142.837 189.952 142.57 190.265 142.249 190.497C141.638 190.889 141.147 190.571 141.147 189.757C141.168 189.331 141.279 188.917 141.471 188.548C141.662 188.179 141.929 187.866 142.249 187.633Z" fill="#263238"/>
<path d="M145.933 185.206L158.273 177.265C158.937 176.829 159.494 177.139 159.494 177.953C159.462 178.411 159.335 178.853 159.123 179.246C158.911 179.639 158.62 179.972 158.273 180.218L145.933 188.159C145.269 188.595 144.711 188.285 144.711 187.471C144.744 187.013 144.871 186.571 145.083 186.178C145.295 185.785 145.586 185.452 145.933 185.206Z" fill="#263238"/>
<path d="M190.401 149.794C190.216 148.314 189.16 147.789 187.892 148.61L112.75 196.973C111.998 197.493 111.38 198.222 110.957 199.089L102.992 193.909C103.421 193.049 104.04 192.325 104.791 191.807L179.887 143.452C180.675 143.006 181.546 142.774 182.429 142.774C183.313 142.774 184.184 143.006 184.971 143.452L187.892 145.317C188.573 145.82 189.149 146.48 189.582 147.252C190.015 148.025 190.294 148.891 190.401 149.794Z" fill="#37474F"/>
<path opacity="0.25" d="M170.693 155.781C170.304 156.013 169.87 156.139 169.428 156.148C168.986 156.157 168.548 156.049 168.151 155.833C168.018 155.769 167.903 155.667 167.817 155.537C167.732 155.407 167.68 155.253 167.667 155.093C167.667 154.885 167.667 154.116 167.667 153.901C167.688 153.717 167.752 153.541 167.852 153.392C167.952 153.243 168.085 153.125 168.237 153.05L176.289 147.87C176.681 147.639 177.116 147.514 177.558 147.505C178.001 147.496 178.439 147.603 178.838 147.818C178.969 147.884 179.082 147.987 179.166 148.117C179.249 148.247 179.301 148.399 179.316 148.558C179.316 148.773 179.316 149.572 179.316 149.779C179.295 149.965 179.232 150.141 179.132 150.292C179.032 150.442 178.899 150.561 178.745 150.638L170.693 155.781Z" fill="black"/>
<path opacity="0.3" d="M170.693 154.604L178.745 149.424C179.475 148.95 179.508 148.217 178.831 147.781C178.432 147.566 177.994 147.459 177.551 147.468C177.108 147.477 176.674 147.602 176.282 147.833L168.23 153.013C167.507 153.479 167.467 154.212 168.15 154.649C168.548 154.864 168.985 154.972 169.426 154.965C169.868 154.957 170.302 154.833 170.693 154.604Z" fill="black"/>
<path opacity="0.3" d="M107.247 226.463C107.231 225.971 107.111 225.489 106.896 225.059C106.682 224.628 106.379 224.26 106.012 223.984C105.892 223.885 105.75 223.825 105.601 223.811C105.452 223.797 105.303 223.828 105.169 223.903C105.016 224.006 104.406 224.384 104.246 224.495C104.113 224.607 104.008 224.757 103.942 224.928C103.875 225.099 103.85 225.286 103.868 225.472V247.466C103.884 247.958 104.003 248.438 104.217 248.869C104.43 249.3 104.731 249.668 105.096 249.945C105.216 250.035 105.355 250.089 105.499 250.102C105.643 250.115 105.788 250.087 105.919 250.019C106.092 249.923 106.709 249.523 106.875 249.412C107.008 249.3 107.113 249.151 107.179 248.98C107.246 248.808 107.271 248.621 107.253 248.436L107.247 226.463Z" fill="black"/>
<path opacity="0.4" d="M106.33 227.078V249.072C106.33 250.005 105.779 250.405 105.096 249.968C104.731 249.691 104.43 249.322 104.217 248.892C104.003 248.461 103.884 247.98 103.868 247.489V225.472C103.868 224.532 104.419 224.133 105.096 224.569C105.465 224.848 105.77 225.221 105.985 225.658C106.199 226.094 106.318 226.581 106.33 227.078Z" fill="black"/>
<path opacity="0.3" d="M107.247 255.94C107.231 255.447 107.111 254.966 106.896 254.535C106.682 254.104 106.379 253.736 106.012 253.461C105.892 253.362 105.75 253.302 105.601 253.288C105.452 253.273 105.303 253.305 105.169 253.379C105.016 253.483 104.406 253.86 104.246 253.971C104.113 254.084 104.008 254.233 103.942 254.404C103.875 254.575 103.85 254.763 103.868 254.948V265.309C103.885 265.799 104.005 266.278 104.218 266.708C104.431 267.137 104.732 267.505 105.096 267.781C105.212 267.877 105.349 267.936 105.492 267.953C105.636 267.97 105.781 267.944 105.912 267.877C106.085 267.781 106.702 267.381 106.868 267.27C107.001 267.159 107.106 267.011 107.172 266.841C107.238 266.671 107.264 266.485 107.247 266.301V255.94Z" fill="black"/>
<path opacity="0.4" d="M106.33 256.495V266.856C106.33 267.788 105.779 268.195 105.096 267.751C104.731 267.474 104.43 267.106 104.217 266.675C104.003 266.244 103.884 265.764 103.868 265.272V254.911C103.868 253.979 104.419 253.572 105.096 254.008C105.462 254.286 105.764 254.656 105.979 255.088C106.193 255.52 106.314 256.002 106.33 256.495Z" fill="black"/>
<path fill-rule="evenodd" clip-rule="evenodd" d="M152.626 239.899C150.07 236.625 148.341 232.612 148.63 228.115C149.462 215.159 165.986 218.009 169.201 224.548C172.415 231.087 172.033 247.675 167.879 248.843C166.222 249.309 162.693 248.168 159.101 245.805L161.356 263.214H148.043L152.626 239.899Z" fill="#B28B67"/>
<path fill-rule="evenodd" clip-rule="evenodd" d="M159.767 229.547C160.276 237.294 161.624 241.168 163.811 241.168C167.09 241.168 169.873 238.895 171.312 238.895C172.361 238.895 172.127 240.328 171.431 241.391C170.858 242.267 168.064 243.112 168.064 244.471C168.064 245.829 170.271 244.778 170.271 245.584C170.271 246.917 170.659 249.424 168.539 249.424C166.394 249.424 160.243 248.57 159.189 245.095C158.509 242.852 158.069 238.205 157.87 231.153C157.74 231.136 157.607 231.127 157.473 231.127C155.635 231.127 154.145 232.754 154.145 234.76C154.145 235.778 154.529 236.699 155.148 237.358C154.377 238.545 153.514 239.784 152.526 241.063C148.81 238.63 146.053 231.508 149.686 224.667C150.69 221.315 152.962 219.525 155.647 218.694C157.821 217.701 160.078 217.589 161.984 218.184C165.719 218.534 169.054 219.777 169.999 220.515C169.999 224.375 169.314 225.52 163.462 225.419C162.024 226.248 160.918 227.675 159.767 229.547Z" fill="#191847"/>
<path fill-rule="evenodd" clip-rule="evenodd" d="M190.397 303.54L207.141 319.034C211.838 320.809 215.725 322.868 218.802 325.212C219.512 326.024 220.331 327.623 217.202 327.118C214.072 326.614 210.76 326.237 210.251 327.376C209.742 328.514 211.556 330.06 210.577 331.573C209.924 332.582 207.33 329.729 202.792 323.014L185.821 313.77L190.397 303.54ZM114.578 296.836L124.402 298.393C113.857 323.366 108.203 336.573 107.442 338.015C105.728 341.258 107.743 346.906 108.531 349.896C104.55 351.151 105.821 344.437 100.787 346.112C96.1912 347.64 92.3991 351.105 87.8479 346.985C87.2883 346.478 86.817 344.822 88.5955 343.856C93.0264 341.452 99.532 337.051 100.543 335.43C101.922 333.218 106.601 320.354 114.578 296.836Z" fill="#B28B67"/>
<path fill-rule="evenodd" clip-rule="evenodd" d="M155.639 253.123L161.727 250.925C169.985 273.441 182.3 295.226 202.877 313.627L197.788 323.208C179.704 311.581 162.586 302.549 155.639 285.102C153.308 279.247 155.449 260.124 155.639 253.123Z" fill="#C5CFD6"/>
<path fill-rule="evenodd" clip-rule="evenodd" d="M134.474 336.437C151.974 339.081 165.748 339.081 175.797 336.437C177.042 336.11 177.238 333.14 176.661 331.125C167.67 299.739 161.505 272.354 161.505 250.555C159.855 251.74 156.968 251.917 152.843 251.087C141.758 273.552 136.663 299.328 134.474 336.437Z" fill="#323337"/>
<path fill-rule="evenodd" clip-rule="evenodd" d="M150.289 249.895H154.892C155.964 256.776 159.345 349.947 169.781 380.426H113.312C114.537 352.505 124.194 318.965 133.976 290.899C125.326 299.539 117.787 314.178 111.358 334.818L100.781 331.854C108.645 294.866 124.815 267.679 149.289 250.294C149.342 250.16 149.395 250.027 149.447 249.895H149.855C150.005 249.79 150.155 249.685 150.305 249.581L150.289 249.895Z" fill="#DDE3E9"/>
<path fill-rule="evenodd" clip-rule="evenodd" d="M286.192 279.508C280.725 279.508 278.737 272.211 275.631 268.207C273.408 265.342 269.616 266.196 268.493 262.185C265.67 252.099 273.226 245 283.083 245C292.94 245 299.586 251.226 301.021 260.585C302.456 269.944 296.049 279.508 286.192 279.508Z" fill="#191847"/>
<path fill-rule="evenodd" clip-rule="evenodd" d="M285.589 272.993C287.793 270.109 289.285 266.574 289.036 262.613C288.318 251.2 274.067 253.71 271.295 259.471C268.523 265.231 268.853 279.842 272.435 280.872C273.864 281.283 276.908 280.277 280.005 278.195L278.061 293.531H289.542L285.589 272.993Z" fill="#B28B67"/>
<path fill-rule="evenodd" clip-rule="evenodd" d="M280.748 265.651C281.166 265.405 281.644 265.266 282.152 265.266C283.778 265.266 285.097 266.698 285.097 268.465C285.097 269.187 284.877 269.852 284.506 270.387C285.204 271.67 285.68 273.017 285.836 274.402C288.255 274.402 297.082 264.199 288.289 254.6C279.495 245 266.787 258.704 270.606 259.503C272.801 259.962 277.223 262.299 280.748 265.651Z" fill="#191847"/>
<path fill-rule="evenodd" clip-rule="evenodd" d="M293.368 337.795L275.367 403.404L266.647 459.201H259.81L269.024 337.795H293.368Z" fill="#997659"/>
<path fill-rule="evenodd" clip-rule="evenodd" d="M299.807 337.795C298.585 373.818 300.024 392.399 300.297 395.672C300.571 398.945 304.318 420.166 313.189 460.299L305.903 457.51C291.884 420.702 287.107 401.572 285.499 396.739C283.891 391.905 279.62 372.257 272.687 337.795H299.807Z" fill="#B28B67"/>
<path fill-rule="evenodd" clip-rule="evenodd" d="M313.134 457.47C313.669 459.062 313.937 460.254 313.937 461.045C313.937 462.006 313.793 463.41 313.506 465.255C312.505 465.255 303.512 465.255 286.526 465.255C285.825 462.671 286.229 461.276 287.74 461.07C289.251 460.863 290.505 460.677 291.505 460.511L304.045 454.279C304.286 454.159 304.569 454.28 304.676 454.549C304.678 454.553 304.68 454.558 304.682 454.563L305.488 456.743C306.886 457.47 308.022 457.834 308.897 457.834C309.607 457.834 310.588 457.514 311.84 456.874L311.84 456.874C312.32 456.629 312.888 456.864 313.108 457.399C313.118 457.422 313.126 457.446 313.134 457.47Z" fill="#3B3333"/>
<path fill-rule="evenodd" clip-rule="evenodd" d="M268.169 457.47C268.705 459.062 268.972 460.254 268.972 461.045C268.972 462.006 268.828 463.41 268.541 465.255C267.54 465.255 258.547 465.255 241.561 465.255C240.86 462.671 241.265 461.276 242.775 461.07C244.286 460.863 245.541 460.677 246.54 460.511L259.08 454.279C259.321 454.159 259.604 454.28 259.711 454.549C259.713 454.553 259.715 454.558 259.717 454.563L260.523 456.743C261.921 457.47 263.058 457.834 263.932 457.834C264.642 457.834 265.623 457.514 266.875 456.874L266.875 456.874C267.355 456.629 267.923 456.864 268.143 457.399C268.153 457.422 268.161 457.446 268.169 457.47Z" fill="#3C3333"/>
<path fill-rule="evenodd" clip-rule="evenodd" d="M295.759 337.795L288.106 371.222H264.728L268.214 337.795H295.759Z" fill="#69A1AC"/>
<path fill-rule="evenodd" clip-rule="evenodd" d="M300.065 337.795C302.583 346.211 303.062 357.353 301.5 371.222H277.644L271.084 337.795H300.065Z" fill="#89C5CC"/>
<path fill-rule="evenodd" clip-rule="evenodd" d="M251.252 329.327L237.701 344.065C233.758 345.94 230.528 348.01 228.009 350.276C227.443 351.038 226.826 352.497 229.491 351.844C232.155 351.191 234.985 350.638 235.485 351.604C235.986 352.57 234.51 354.05 235.436 355.315C236.053 356.157 238.128 353.476 241.661 347.271L255.752 338.009L251.252 329.327ZM311.398 331.406L301.402 331.449C307.574 353.664 310.906 365.45 311.398 366.809C312.505 369.868 310.163 374.525 309.161 377.028C312.424 378.656 312.076 372.628 316.192 374.763C319.948 376.711 322.805 380.242 327.145 377.256C327.679 376.889 328.264 375.507 326.851 374.427C323.331 371.737 318.259 367.028 317.574 365.478C316.639 363.364 314.581 352.007 311.398 331.406Z" fill="#B28B67"/>
<path fill-rule="evenodd" clip-rule="evenodd" d="M282.99 284.641L278.854 283.85C271.732 303.684 259.299 321.706 241.553 337.915L254.963 356.077C272.706 332.997 283.643 309.186 282.99 284.641Z" fill="#191847"/>
<path fill-rule="evenodd" clip-rule="evenodd" d="M301.022 342.594H264.189C272.722 319.463 276.989 299.812 276.989 283.643L288.1 281.798C296.832 297.455 299.298 316.732 301.022 342.594Z" fill="#DDE3E9"/>
<path fill-rule="evenodd" clip-rule="evenodd" d="M288.335 281.807C288.333 281.804 288.332 281.801 288.33 281.798H287.605C286.737 281.831 285.415 281.891 283.639 281.978L280.955 290.532C280.671 300.961 279.012 321.978 275.979 353.584H300.124C300.061 355.767 299.957 357.97 299.811 360.193H317.764C315.079 326.416 305.272 300.284 288.343 281.798L288.335 281.807V281.807Z" fill="#2F3676"/>
<path fill-rule="evenodd" clip-rule="evenodd" d="M298.529 325.653C297.842 339.26 296.122 348.641 293.368 353.794H300.118C300.413 344.004 299.884 334.624 298.529 325.653V325.653Z" fill="black" fill-opacity="0.1"/>
<path fill-rule="evenodd" clip-rule="evenodd" d="M294.75 337.262L282.844 331.091V337.262H294.75Z" fill="white" fill-opacity="0.2"/>
</svg>
