<svg width="31" height="30" viewBox="0 0 31 30" fill="none" xmlns="http://www.w3.org/2000/svg">
<g clip-path="url(#clip0_1717_2068)">
<path d="M11.75 3.75C12.6771 3.75 13.5834 4.02492 14.3542 4.53999C15.1251 5.05506 15.7259 5.78714 16.0807 6.64367C16.4355 7.5002 16.5283 8.4427 16.3474 9.35199C16.1666 10.2613 15.7201 11.0965 15.0646 11.7521C14.409 12.4076 13.5738 12.8541 12.6645 13.0349C11.7552 13.2158 10.8127 13.123 9.95617 12.7682C9.09965 12.4134 8.36756 11.8126 7.85249 11.0417C7.33742 10.2709 7.0625 9.3646 7.0625 8.4375C7.0625 7.1943 7.55636 6.00201 8.43544 5.12294C9.31452 4.24386 10.5068 3.75 11.75 3.75ZM11.75 1.875C10.4521 1.875 9.18327 2.25988 8.10407 2.98098C7.02488 3.70208 6.18374 4.727 5.68704 5.92614C5.19034 7.12528 5.06038 8.44478 5.3136 9.71778C5.56682 10.9908 6.19183 12.1601 7.10961 13.0779C8.0274 13.9957 9.19672 14.6207 10.4697 14.8739C11.7427 15.1271 13.0622 14.9972 14.2614 14.5005C15.4605 14.0038 16.4854 13.1626 17.2065 12.0834C17.9276 11.0042 18.3125 9.73544 18.3125 8.4375C18.3125 6.69702 17.6211 5.02782 16.3904 3.79711C15.1597 2.5664 13.4905 1.875 11.75 1.875Z" fill="#999999"/>
<path d="M21.125 28.125H19.25V23.4375C19.25 22.1943 18.7561 21.002 17.8771 20.1229C16.998 19.2439 15.8057 18.75 14.5625 18.75H8.9375C7.6943 18.75 6.50201 19.2439 5.62294 20.1229C4.74386 21.002 4.25 22.1943 4.25 23.4375V28.125H2.375V23.4375C2.375 21.697 3.0664 20.0278 4.29711 18.7971C5.52782 17.5664 7.19702 16.875 8.9375 16.875H14.5625C16.303 16.875 17.9722 17.5664 19.2029 18.7971C20.4336 20.0278 21.125 21.697 21.125 23.4375V28.125Z" fill="#999999"/>
<path d="M21.125 3.75H30.5V5.625H21.125V3.75Z" fill="#999999"/>
<path d="M21.125 8.4375H30.5V10.3125H21.125V8.4375Z" fill="#999999"/>
<path d="M21.125 13.125H27.6875V15H21.125V13.125Z" fill="#999999"/>
</g>
<defs>
<clipPath id="clip0_1717_2068">
<rect width="30" height="30" fill="white" transform="translate(0.5)"/>
</clipPath>
</defs>
</svg>
