<svg width="50" height="50" viewBox="0 0 50 50" fill="none" xmlns="http://www.w3.org/2000/svg">
<path d="M50 43.9395H0V43.973H50V43.9395Z" fill="#EBEBEB"/>
<path d="M42.2562 44.8535H39.6592V44.8871H42.2562V44.8535Z" fill="#EBEBEB"/>
<path d="M31.5663 45.0947H30.6973V45.1283H31.5663V45.0947Z" fill="#EBEBEB"/>
<path d="M44.9903 46.0986H43.0713V46.1322H44.9903V46.0986Z" fill="#EBEBEB"/>
<path d="M6.87109 45.0791H5.24609V45.1127H6.87109V45.0791Z" fill="#EBEBEB"/>
<path d="M11.0892 45.0791H7.40625V45.1127H11.0892V45.0791Z" fill="#EBEBEB"/>
<path d="M29.534 45.6445H20.166V45.6781H29.534V45.6445Z" fill="#EBEBEB"/>
<path d="M23.7003 37.9536H4.39129C4.24002 37.9533 4.09504 37.8724 3.98818 37.7287C3.88131 37.585 3.82129 37.3903 3.82129 37.1873V0.759609C3.82261 0.557766 3.88321 0.364771 3.98993 0.222544C4.09666 0.080317 4.24089 0.000345768 4.39129 0H23.7003C23.8517 0 23.997 0.080737 24.104 0.22445C24.2111 0.368163 24.2713 0.563079 24.2713 0.766319V37.1873C24.2713 37.3905 24.2111 37.5855 24.104 37.7292C23.997 37.8729 23.8517 37.9536 23.7003 37.9536ZM4.39129 0.0268414C4.24665 0.0271969 4.10803 0.104556 4.00586 0.241938C3.90368 0.37932 3.84629 0.565499 3.84629 0.759609V37.1873C3.84629 37.3814 3.90368 37.5676 4.00586 37.705C4.10803 37.8424 4.24665 37.9197 4.39129 37.9201H23.7003C23.845 37.9197 23.9837 37.8424 24.0861 37.7051C24.1884 37.5677 24.246 37.3815 24.2463 37.1873V0.759609C24.246 0.565376 24.1884 0.3792 24.0861 0.241856C23.9837 0.104512 23.845 0.0271962 23.7003 0.0268414H4.39129Z" fill="#EBEBEB"/>
<path d="M45.3312 37.9536H26.0212C25.8698 37.9533 25.7248 37.8724 25.6177 37.7288C25.5107 37.5851 25.4505 37.3904 25.4502 37.1873V0.759609C25.4518 0.557644 25.5126 0.36465 25.6195 0.22246C25.7264 0.0802701 25.8707 0.000341997 26.0212 0H45.3312C45.4814 0.000698478 45.6254 0.0808258 45.7319 0.223015C45.8384 0.365204 45.8989 0.557998 45.9002 0.759609V37.1873C45.9002 37.3901 45.8403 37.5846 45.7337 37.7282C45.627 37.8719 45.4823 37.9529 45.3312 37.9536ZM26.0212 0.0268414C25.8765 0.0271962 25.7377 0.104512 25.6354 0.241856C25.5331 0.3792 25.4755 0.565376 25.4752 0.759609V37.1873C25.4755 37.3815 25.5331 37.5677 25.6354 37.7051C25.7377 37.8424 25.8765 37.9197 26.0212 37.9201H45.3312C45.4759 37.9197 45.6146 37.8424 45.717 37.7051C45.8193 37.5677 45.8769 37.3815 45.8772 37.1873V0.759609C45.8769 0.565376 45.8193 0.3792 45.717 0.241856C45.6146 0.104512 45.4759 0.0271962 45.3312 0.0268414H26.0212Z" fill="#EBEBEB"/>
<path d="M21.9186 9.58481C21.7626 9.12448 21.4506 8.76883 21.2186 8.79031C21.1796 8.79304 21.1418 8.8098 21.1093 8.83884C21.0767 8.86789 21.0506 8.90814 21.0336 8.95538C20.6116 8.38232 20.1266 8.02936 19.7256 8.06828C19.6338 8.0732 19.544 8.10537 19.4625 8.16245C19.3811 8.21954 19.3101 8.30012 19.2546 8.39842C18.8016 7.53279 18.2256 6.92215 17.8066 6.92215C17.5686 6.92215 17.4206 7.12078 17.3686 7.45898C16.9046 6.87652 16.4276 6.51953 16.0426 6.51953C15.4286 6.51953 15.2296 7.42677 15.4806 8.70173C15.3806 8.94196 14.8966 9.27748 14.9166 9.6801H21.9436C21.9366 9.64252 21.9276 9.61433 21.9186 9.58481Z" fill="#FAFAFA"/>
<path d="M33.2481 4.08907C33.1271 3.73074 32.8851 3.45428 32.7051 3.47172C32.6748 3.4738 32.6455 3.48672 32.6201 3.50914C32.5948 3.53155 32.5744 3.56266 32.5611 3.59922C32.2341 3.15365 31.8611 2.87987 31.5461 2.91074C31.4746 2.91441 31.4046 2.9393 31.3412 2.98363C31.2777 3.02795 31.2223 3.0906 31.1791 3.16707C30.8281 2.49604 30.3791 2.01692 30.0541 2.01692C29.8701 2.01692 29.7541 2.17126 29.7141 2.42894C29.3531 1.97666 28.9821 1.7002 28.6841 1.7002C28.2071 1.7002 28.0521 2.40478 28.2471 3.39522C28.1691 3.58177 27.7931 3.84213 27.8091 4.15483H33.2691L33.2481 4.08907Z" fill="#FAFAFA"/>
<path d="M12.1003 6.0526C12.0658 6.05747 12.0332 6.07623 12.0068 6.10641C11.9804 6.13658 11.9614 6.17677 11.9523 6.2217C11.5913 5.63522 11.1843 5.2742 10.8523 5.31447C10.773 5.32327 10.6966 5.35891 10.6303 5.41805C10.5641 5.47719 10.51 5.55791 10.4733 5.65267C10.0823 4.76825 9.59329 4.1415 9.24929 4.1415C9.04929 4.1415 8.93729 4.34415 8.90229 4.67833C8.50229 4.08379 8.10229 3.71875 7.79029 3.71875C7.39829 3.71875 7.22529 4.27973 7.27929 5.14268C7.09029 4.89172 6.90529 4.74006 6.75429 4.74006C6.54429 4.74006 6.44629 5.02324 6.46329 5.4688C6.44535 5.46609 6.42724 5.46609 6.40929 5.4688C6.08929 5.54262 5.96729 6.11702 6.12029 6.77329H12.6703C12.5263 6.35591 12.2793 6.03113 12.1003 6.0526Z" fill="#FAFAFA"/>
<path d="M39.1461 15.8002C39.1065 15.8059 39.0691 15.8274 39.0386 15.8618C39.0082 15.8962 38.9861 15.9421 38.9751 15.9935C38.5621 15.3225 38.0961 14.9078 37.7211 14.9534C37.6303 14.964 37.543 15.005 37.4672 15.0728C37.3913 15.1406 37.3294 15.2329 37.2871 15.3412C36.8391 14.328 36.2791 13.61 35.8871 13.61C35.6631 13.61 35.5291 13.8422 35.4871 14.23C35.0341 13.5482 34.5761 13.1309 34.2131 13.1309C33.7641 13.1309 33.5661 13.7737 33.6281 14.7615C33.4121 14.4743 33.1991 14.3052 33.0281 14.3052C32.7881 14.3052 32.6761 14.6299 32.6951 15.1399C32.6744 15.1401 32.6536 15.1424 32.6331 15.1466C32.2671 15.2325 32.1271 15.8901 32.3031 16.643H39.8031C39.6341 16.1465 39.3511 15.7761 39.1461 15.8002Z" fill="#FAFAFA"/>
<path d="M10.1003 10.7805C9.92034 10.7993 9.74334 10.8315 9.56634 10.8677C9.38934 10.9039 9.21534 10.9509 9.04334 11.0086C8.91234 11.0542 8.78334 11.1026 8.65534 11.1656C8.49277 11.0071 8.31813 10.8721 8.13434 10.763C8.01878 10.694 7.90062 10.6331 7.78034 10.5805C7.65662 10.5249 7.53036 10.4801 7.40234 10.4463L7.70234 10.6932C7.80234 10.7751 7.89534 10.8556 7.98734 10.9388C8.07934 11.022 8.16834 11.1066 8.25534 11.1911C8.34234 11.2757 8.42034 11.3643 8.49534 11.4528L8.58434 11.5589L8.71634 11.4891C8.85534 11.4166 9.01634 11.3549 9.17134 11.2945C9.32634 11.2341 9.49334 11.1764 9.65734 11.1187C9.98434 11.0006 10.3183 10.8905 10.6473 10.7469C10.4647 10.745 10.2821 10.7562 10.1003 10.7805Z" fill="#EBEBEB"/>
<path d="M15.3679 12.423C15.1879 12.4432 15.0109 12.4754 14.8339 12.5103C14.6569 12.5452 14.4829 12.5948 14.3109 12.6525C14.1796 12.6957 14.0501 12.7481 13.9229 12.8096C13.7603 12.651 13.5857 12.5161 13.4019 12.4069C13.2879 12.3398 13.1699 12.2727 13.0479 12.2231C12.9242 12.1675 12.7979 12.1227 12.6699 12.0889L12.9699 12.3345C13.0699 12.4177 13.1629 12.4982 13.2549 12.5801C13.3469 12.6619 13.4359 12.7478 13.5229 12.8324C13.6099 12.9169 13.6879 13.0055 13.7629 13.1008L13.8519 13.2068L13.9839 13.137C14.1229 13.0632 14.2839 13.0028 14.4389 12.9411C14.5939 12.8793 14.7609 12.823 14.9249 12.7666C15.2519 12.6472 15.5859 12.5371 15.9149 12.3949C15.7324 12.3919 15.5498 12.4013 15.3679 12.423Z" fill="#EBEBEB"/>
<path d="M41.1795 11.5122C40.9695 11.5351 40.7615 11.5726 40.5545 11.6142C40.3475 11.6558 40.1435 11.7122 39.9415 11.7807C39.7883 11.8315 39.6371 11.8929 39.4885 11.9645C39.298 11.7804 39.0936 11.6239 38.8785 11.4975C38.7435 11.4183 38.6065 11.3458 38.4635 11.2828C38.3182 11.2171 38.1699 11.1637 38.0195 11.123L38.3665 11.4116C38.4795 11.5082 38.5915 11.6022 38.6995 11.7001C38.8075 11.7981 38.9115 11.8961 39.0135 11.994C39.1155 12.092 39.2065 12.198 39.2945 12.3027L39.3945 12.4262L39.5495 12.3443C39.7115 12.2584 39.8965 12.186 40.0815 12.1148C40.2665 12.0437 40.4595 11.9806 40.6515 11.9108C41.0345 11.7766 41.4255 11.6424 41.8115 11.476C41.6005 11.4734 41.3896 11.4855 41.1795 11.5122Z" fill="#EBEBEB"/>
<path d="M33.1532 9.064C32.9432 9.08682 32.7352 9.1244 32.5282 9.166C32.3212 9.20761 32.1172 9.26397 31.9152 9.33242C31.7619 9.38263 31.6107 9.44355 31.4622 9.51494C31.271 9.3318 31.0663 9.17574 30.8512 9.04924C30.7158 8.96788 30.5772 8.8962 30.4362 8.83451C30.2912 8.76867 30.1432 8.71533 29.9932 8.6748L30.3402 8.96335C30.4532 9.05998 30.5652 9.15392 30.6732 9.25055C30.7812 9.34718 30.8852 9.44783 30.9872 9.54581C31.0892 9.64378 31.1802 9.7498 31.2682 9.85314L31.3682 9.97795L31.5232 9.89609C31.6852 9.81019 31.8702 9.73772 32.0552 9.66659C32.2402 9.59546 32.4322 9.53239 32.6252 9.4626C33.0082 9.32839 33.3982 9.19418 33.7842 9.02643C33.5742 9.0224 33.3632 9.03985 33.1532 9.064Z" fill="#EBEBEB"/>
<path d="M39.1407 8.32751C39.0127 8.34093 38.8867 8.36375 38.7607 8.38924C38.6347 8.41474 38.5107 8.4483 38.3877 8.4899C38.2947 8.52211 38.2027 8.557 38.1127 8.60129C37.9965 8.49043 37.8722 8.39556 37.7417 8.31812C37.6592 8.26736 37.5748 8.22256 37.4887 8.18391C37.4006 8.14385 37.3108 8.11113 37.2197 8.08594L37.4307 8.26175C37.4987 8.3208 37.5677 8.37851 37.6307 8.43756C37.6937 8.49661 37.7597 8.557 37.8217 8.61605C37.8837 8.6751 37.9387 8.73952 37.9927 8.80394L38.0557 8.8791L38.1507 8.82944C38.2507 8.7771 38.3607 8.73281 38.4737 8.69524C38.5867 8.65766 38.7027 8.61069 38.8197 8.57042C39.0527 8.48587 39.2907 8.40803 39.5197 8.30201C39.3932 8.30203 39.2667 8.31054 39.1407 8.32751Z" fill="#EBEBEB"/>
<path d="M28.2999 7.06054C28.1729 7.07531 28.0469 7.09812 27.9209 7.12362C27.7949 7.14912 27.6709 7.18267 27.5479 7.22427C27.4549 7.25648 27.3629 7.29138 27.2719 7.33567C27.1557 7.22452 27.0314 7.12964 26.9009 7.05249C26.8187 7.00174 26.7346 6.95694 26.6489 6.91828C26.5608 6.87839 26.4709 6.84567 26.3799 6.82031L26.5899 6.99612C26.6589 7.05517 26.7269 7.11154 26.7899 7.17059C26.8529 7.22964 26.9189 7.29004 26.9809 7.35043C27.0429 7.41082 27.0979 7.4739 27.1509 7.53698L27.2149 7.61347L27.3089 7.56382C27.4089 7.51148 27.5199 7.46719 27.6329 7.42961C27.7459 7.39203 27.8619 7.34506 27.9789 7.3048C28.2119 7.22025 28.4489 7.14241 28.6839 7.03639C28.5569 7.03639 28.4289 7.04712 28.2999 7.06054Z" fill="#EBEBEB"/>
<path d="M43.5706 7.70121C43.4806 7.71194 43.3926 7.72671 43.3046 7.74549C43.2166 7.76428 43.1296 7.7871 43.0436 7.81662C42.9779 7.83744 42.9131 7.86343 42.8496 7.89446C42.7684 7.81622 42.6812 7.74965 42.5896 7.69584C42.5326 7.66229 42.4746 7.63008 42.4136 7.60324C42.3517 7.57584 42.2885 7.55343 42.2246 7.53613L42.3726 7.65826C42.4206 7.69986 42.4726 7.74013 42.5146 7.78173C42.5566 7.82334 42.6046 7.86494 42.6476 7.90654C42.6906 7.94815 42.7296 7.99378 42.7676 8.04075L42.8116 8.09309L42.8776 8.0582C42.9466 8.02196 43.0256 7.99109 43.1046 7.96157C43.1836 7.93204 43.2656 7.90252 43.3476 7.87433C43.5106 7.81528 43.6766 7.76026 43.8416 7.68913C43.7512 7.68704 43.6607 7.69107 43.5706 7.70121Z" fill="#EBEBEB"/>
<path d="M36.4886 4.14652C36.3986 4.15726 36.3106 4.17336 36.2226 4.19081C36.1346 4.20826 36.0476 4.23241 35.9616 4.26194C35.896 4.28337 35.8312 4.30935 35.7676 4.33978C35.6866 4.26182 35.5998 4.19526 35.5086 4.14115C35.4506 4.1076 35.3926 4.07673 35.3316 4.04989C35.2697 4.02204 35.2065 3.99919 35.1426 3.98145L35.2906 4.10492C35.3386 4.14518 35.3906 4.18544 35.4326 4.22704C35.4746 4.26865 35.5226 4.31025 35.5656 4.3532C35.6086 4.39614 35.6476 4.43909 35.6856 4.4874L35.7296 4.54109L35.7956 4.50619C35.8646 4.46996 35.9436 4.43775 36.0226 4.40822C36.1016 4.3787 36.1836 4.34917 36.2656 4.32099C36.4286 4.26194 36.5946 4.20691 36.7596 4.13578C36.6692 4.13325 36.5787 4.13683 36.4886 4.14652Z" fill="#EBEBEB"/>
<path d="M24.4302 41.8711H22.4482V43.9392H24.4302V41.8711Z" fill="#E6E6E6"/>
<path d="M23.5397 27.2758L29.6997 42.6774C29.7103 42.704 29.7148 42.7342 29.7128 42.7643C29.7107 42.7943 29.7021 42.8229 29.6881 42.8464C29.674 42.87 29.6551 42.8875 29.6337 42.8968C29.6124 42.9062 29.5894 42.9068 29.5677 42.8988L28.2677 42.4036C28.2507 42.3969 28.2327 42.3957 28.2152 42.4C28.1978 42.4042 28.1813 42.4139 28.1671 42.4283C28.1529 42.4426 28.1415 42.4612 28.1336 42.4825C28.1257 42.5039 28.1216 42.5274 28.1217 42.5512V43.2223C28.1218 43.2514 28.1157 43.28 28.1042 43.3047C28.0926 43.3293 28.0762 43.3491 28.0566 43.3618C28.037 43.3744 28.0152 43.3794 27.9936 43.376C27.9721 43.3727 27.9516 43.3613 27.9347 43.3431L26.7077 42.0319C26.686 42.0084 26.6587 41.9964 26.6309 41.9981C26.6031 41.9999 26.5767 42.0152 26.5567 42.0413L25.9517 42.8129C25.9347 42.8347 25.9131 42.849 25.8899 42.8538C25.8666 42.8586 25.8428 42.8537 25.8217 42.8398L24.4637 41.9352C24.4404 41.9196 24.4137 41.9152 24.3882 41.9228C24.3628 41.9304 24.34 41.9494 24.3237 41.9768L23.6017 43.1914C23.5915 43.2086 23.5787 43.2227 23.5641 43.2327C23.5495 43.2428 23.5334 43.2485 23.517 43.2495C23.5007 43.2505 23.4843 43.2468 23.4691 43.2386C23.4538 43.2305 23.4401 43.218 23.4287 43.2021L22.5707 41.9943C22.549 41.9651 22.5195 41.9487 22.4887 41.9487C22.458 41.9487 22.4285 41.9651 22.4067 41.9943L21.5467 43.1485C21.5269 43.1749 21.5005 43.1909 21.4726 43.1933C21.4447 43.1958 21.417 43.1846 21.3947 43.1619L20.3087 42.0225C20.2891 42.0029 20.2652 41.9923 20.2407 41.9923C20.2162 41.9923 20.1924 42.0029 20.1727 42.0225L19.3477 42.8116C19.3311 42.8274 19.3116 42.8369 19.2912 42.8392C19.2709 42.8416 19.2505 42.8366 19.2321 42.8249C19.2137 42.8131 19.1979 42.795 19.1864 42.7724C19.1749 42.7498 19.1681 42.7235 19.1667 42.6962L19.1217 41.7916C19.1206 41.7661 19.1147 41.7413 19.1046 41.7196C19.0945 41.698 19.0805 41.68 19.0638 41.6675C19.0472 41.6549 19.0285 41.6482 19.0095 41.6478C18.9904 41.6475 18.9716 41.6535 18.9547 41.6655L17.3827 42.77C17.361 42.7851 17.3364 42.7905 17.3122 42.7855C17.2881 42.7804 17.2658 42.7652 17.2485 42.7421C17.2313 42.7189 17.2199 42.689 17.2162 42.6566C17.2125 42.6242 17.2165 42.5911 17.2277 42.562L23.3377 27.2758C23.3476 27.2515 23.3622 27.2311 23.38 27.217C23.3978 27.2028 23.418 27.1953 23.4387 27.1953C23.4594 27.1953 23.4797 27.2028 23.4975 27.217C23.5152 27.2311 23.5298 27.2515 23.5397 27.2758Z" fill="#F0F0F0"/>
<path d="M23.3289 27.7675L19.0379 37.1445C18.9829 37.2639 19.0749 37.4035 19.1849 37.3659L19.9399 37.1136C19.958 37.1063 19.9771 37.1046 19.9957 37.1085C20.0144 37.1123 20.0322 37.1217 20.0478 37.136C20.0634 37.1503 20.0765 37.1691 20.086 37.191C20.0955 37.2128 20.1013 37.2373 20.1029 37.2626V37.4921C20.1056 37.5227 20.1142 37.5518 20.1279 37.5765C20.1416 37.6012 20.1599 37.6206 20.181 37.6329C20.202 37.6451 20.2251 37.6497 20.2479 37.6462C20.2707 37.6427 20.2924 37.6312 20.3109 37.6129L21.0799 36.8962C21.1048 36.8735 21.1345 36.8621 21.1645 36.8638C21.1946 36.8655 21.2235 36.8801 21.2469 36.9056L21.6259 37.3284C21.6459 37.3497 21.6699 37.3634 21.6953 37.3679C21.7206 37.3724 21.7464 37.3675 21.7699 37.3538L22.6769 36.8264C22.7028 36.8109 22.7317 36.8065 22.7596 36.8137C22.7875 36.8209 22.8131 36.8394 22.8329 36.8667L23.2909 37.5377C23.3157 37.5723 23.3495 37.5928 23.3853 37.5948C23.421 37.5968 23.456 37.5802 23.4829 37.5484L24.0259 36.8774C24.0513 36.8486 24.0836 36.8327 24.1169 36.8327C24.1502 36.8327 24.1824 36.8486 24.2079 36.8774L24.7599 37.5243C24.7831 37.5505 24.8121 37.5658 24.8424 37.568C24.8727 37.5702 24.9027 37.5591 24.9279 37.5364L25.6429 36.8814C25.6654 36.8621 25.6916 36.8518 25.7184 36.8518C25.7451 36.8518 25.7714 36.8621 25.7939 36.8814L26.2939 37.2921C26.3119 37.3082 26.3326 37.3179 26.3541 37.3205C26.3756 37.3232 26.3973 37.3185 26.4172 37.3071C26.437 37.2956 26.4544 37.2777 26.4678 37.2549C26.4812 37.2322 26.4902 37.2053 26.4939 37.1767L26.5159 36.7996C26.5191 36.7725 26.5271 36.7468 26.5392 36.7247C26.5512 36.7026 26.5671 36.6846 26.5853 36.6723C26.6036 36.6599 26.6238 36.6536 26.6442 36.6538C26.6646 36.654 26.6848 36.6607 26.7029 36.6734L27.6229 37.2384C27.7359 37.3069 27.8559 37.1606 27.7949 37.0277L23.5579 27.7675C23.5454 27.742 23.5284 27.7211 23.5084 27.7066C23.4885 27.6921 23.4661 27.6846 23.4434 27.6846C23.4207 27.6846 23.3983 27.6921 23.3783 27.7066C23.3583 27.7211 23.3414 27.742 23.3289 27.7675Z" fill="#E6E6E6"/>
<path d="M23.3246 26.1593L20.5896 32.9058C20.5396 33.028 20.6376 33.1595 20.7456 33.1192L21.0846 32.9917C21.1029 32.983 21.1225 32.98 21.1418 32.9831C21.161 32.9861 21.1796 32.995 21.1959 33.0091C21.2122 33.0233 21.2259 33.0422 21.2359 33.0646C21.2459 33.0869 21.252 33.112 21.2536 33.138C21.2563 33.1698 21.2654 33.2 21.2799 33.2254C21.2944 33.2508 21.3138 33.2705 21.3359 33.2823C21.3581 33.2942 21.3822 33.2977 21.4057 33.2926C21.4293 33.2875 21.4513 33.274 21.4696 33.2534L21.8566 32.8508C21.8827 32.8239 21.915 32.8102 21.9479 32.8119C21.9807 32.8136 22.0121 32.8307 22.0366 32.8602L22.2246 33.0964C22.2457 33.1216 22.2718 33.1378 22.2998 33.143C22.3277 33.1483 22.3562 33.1423 22.3816 33.1259L22.8996 32.785C22.9274 32.7668 22.959 32.7614 22.9894 32.7697C23.0197 32.7779 23.0472 32.7993 23.0676 32.8307L23.3056 33.2266C23.3182 33.246 23.3337 33.2618 23.351 33.2729C23.3683 33.284 23.3872 33.2903 23.4064 33.2913C23.4256 33.2923 23.4447 33.288 23.4626 33.2788C23.4806 33.2695 23.4969 33.2554 23.5106 33.2373L23.7866 32.8535C23.8133 32.8184 23.8492 32.7988 23.8866 32.7988C23.924 32.7988 23.9599 32.8184 23.9866 32.8535L24.2756 33.2373C24.2999 33.2679 24.3315 33.2859 24.3648 33.2884C24.3981 33.2908 24.4309 33.2775 24.4576 33.2507L24.8576 32.8387C24.8818 32.8155 24.9108 32.8031 24.9406 32.8031C24.9704 32.8031 24.9994 32.8155 25.0236 32.8387L25.2416 33.0414C25.2597 33.0595 25.2809 33.0711 25.3032 33.075C25.3256 33.079 25.3483 33.0752 25.3693 33.0641C25.3903 33.0529 25.4087 33.0347 25.423 33.0112C25.4372 32.9878 25.4467 32.9598 25.4506 32.93L25.4566 32.8226C25.4601 32.7945 25.4685 32.768 25.4813 32.7453C25.4941 32.7226 25.5108 32.7044 25.53 32.6922C25.5491 32.6801 25.5702 32.6744 25.5914 32.6756C25.6126 32.6768 25.6333 32.6849 25.6516 32.6991L26.0646 32.985C26.1746 33.0615 26.3016 32.9219 26.2466 32.785L23.5646 26.1713C23.5534 26.1422 23.5366 26.1177 23.516 26.1001C23.4953 26.0825 23.4716 26.0726 23.4472 26.0714C23.4228 26.0702 23.3986 26.0777 23.3771 26.0931C23.3555 26.1085 23.3374 26.1314 23.3246 26.1593Z" fill="#F0F0F0"/>
<path d="M42.2127 43.8089C42.1307 43.107 41.7657 42.5635 41.3947 42.6011C41.3267 42.6086 41.2605 42.6348 41.2003 42.678C41.1401 42.7211 41.0872 42.7804 41.0447 42.852C40.5847 41.9784 39.9447 41.4402 39.3037 41.4992C38.9828 41.5295 38.6797 41.7078 38.4457 42.0039C38.0397 40.6833 37.3457 39.7465 36.6927 39.7465C36.3187 39.7465 36.0167 40.0498 35.8167 40.5517C35.2917 39.666 34.6687 39.1211 34.0637 39.1211C33.0997 39.1211 32.4637 40.5048 32.4127 42.4481C32.1697 42.8145 31.2917 43.3258 31.1807 43.9391H42.2247L42.2127 43.8089Z" fill="#F0F0F0"/>
<path d="M15.6251 42.758C15.5618 42.7687 15.5012 42.7984 15.4477 42.8449C15.3942 42.8914 15.3492 42.9534 15.3161 43.0264C14.9371 42.087 14.3981 41.5059 13.8421 41.569C13.5481 41.6124 13.2781 41.8073 13.0891 42.1125C12.7691 40.6926 12.1891 39.686 11.6241 39.686C11.3001 39.686 11.0321 40.0122 10.8491 40.5557C10.4151 39.6002 9.88806 39.0137 9.36506 39.0137C8.71606 39.0137 8.22206 39.9142 7.99106 41.2952C7.77106 40.8926 7.52006 40.6537 7.27006 40.6537C6.92306 40.6537 6.65606 41.11 6.51906 41.824C6.48789 41.8242 6.45679 41.8278 6.42606 41.8347C5.87006 41.9541 5.45406 42.8761 5.46506 43.931H16.2951C16.2171 43.2439 15.9291 42.7231 15.6251 42.758Z" fill="#E6E6E6"/>
<path d="M13.9784 38.2901L14.0044 36.1387L14.5524 33.2399H14.0394L14.0784 29.9854H12.4834L12.3274 35.8542L11.9414 35.9844L12.1394 39.0953L12.2404 39.106L12.1114 43.9388H13.9104L13.9384 41.6278L14.1614 38.2498L13.9784 38.2901Z" fill="#F0F0F0"/>
<path d="M8.3279 29.9163C7.3829 29.3459 6.9999 27.8079 8.0359 26.5732C9.0719 25.3385 7.4029 24.948 8.7359 22.5765C10.0689 20.2051 11.8779 21.884 12.3139 19.7703C12.7499 17.6565 14.4079 16.8378 15.2589 19.3556C16.1099 21.8733 16.0659 19.7072 17.1349 22.1739C18.2039 24.6406 15.4549 25.6861 16.8079 26.7987C18.1609 27.9112 19.7469 29.8492 18.3529 30.9591C16.2529 32.6286 18.0329 32.2622 16.8529 34.0337C15.4949 36.0616 14.9329 32.9507 12.5789 34.3854C10.2249 35.82 8.4589 34.9437 9.2789 32.4823C9.9169 30.5632 9.3339 30.5229 8.3279 29.9163Z" fill="#E6E6E6"/>
<path d="M38.6194 39.3095L38.5904 37.546L37.9824 35.1706H38.5514L38.5084 32.5039H40.2774L40.4504 37.3139L40.8774 37.4199L40.6584 39.9698L40.5464 39.9792L40.6894 43.9396H38.6944L38.6634 42.046L38.4154 39.2773L38.6194 39.3095Z" fill="#FAFAFA"/>
<path d="M44.1199 35.2284C45.0199 34.7291 45.3889 33.3844 44.3999 32.3094C43.4109 31.2344 45.0049 30.8881 43.7319 28.82C42.4589 26.7519 40.7319 28.2134 40.3109 26.3667C39.8899 24.52 38.3109 23.802 37.4949 26.0043C36.6789 28.2067 36.7229 26.305 35.6999 28.4523C34.6769 30.5996 37.3059 31.5243 36.0129 32.4973C34.7199 33.4703 33.1999 35.1626 34.5359 36.1369C36.5439 37.5958 34.8419 37.2764 35.9749 38.8211C37.2749 40.5939 37.8109 37.8736 40.0619 39.1284C42.3129 40.3832 44.0019 39.6169 43.2139 37.4642C42.5999 35.7934 43.1579 35.7585 44.1199 35.2284Z" fill="#F0F0F0"/>
<path d="M25.0003 50.0003C35.7086 50.0003 44.3893 49.3202 44.3893 48.4811C44.3893 47.6421 35.7086 46.9619 25.0003 46.9619C14.2921 46.9619 5.61133 47.6421 5.61133 48.4811C5.61133 49.3202 14.2921 50.0003 25.0003 50.0003Z" fill="#F5F5F5"/>
<path d="M23.5175 17.086C23.3735 17.8227 23.2175 18.5502 23.0445 19.2762C22.9605 19.6395 22.8718 20.0023 22.7785 20.3646C22.6865 20.727 22.5895 21.088 22.4785 21.4571L22.4515 21.547C22.4395 21.5872 22.4265 21.6221 22.4135 21.6584C22.3873 21.7252 22.3586 21.7901 22.3275 21.853C22.2721 21.9627 22.2095 22.0656 22.1405 22.1603C22.0206 22.3232 21.8905 22.4718 21.7515 22.6045C21.5005 22.8407 21.2353 23.0481 20.9585 23.2246C20.4308 23.5629 19.8812 23.8356 19.3165 24.0392L19.1055 23.3011C19.3425 23.1253 19.5885 22.9454 19.8235 22.7562C20.0585 22.567 20.2935 22.3791 20.5155 22.1778C20.7317 21.9892 20.9378 21.7807 21.1325 21.5537C21.2169 21.4555 21.2946 21.3473 21.3645 21.2303C21.3905 21.1853 21.4139 21.1377 21.4345 21.088C21.4413 21.0717 21.447 21.0547 21.4515 21.037C21.452 21.0308 21.452 21.0245 21.4515 21.0182V21.0075L21.4585 20.9753C21.6145 20.2828 21.7585 19.55 21.9075 18.828C22.0565 18.1059 22.2075 17.3785 22.3635 16.6592L23.5175 17.086Z" fill="#FFB573"/>
<path d="M23.7776 16.3032C24.1236 17.2426 23.0166 20.3119 23.0166 20.3119L21.5996 19.5577C21.6449 18.6263 21.7793 17.7066 21.9996 16.8212C22.3586 15.4845 23.3936 15.2631 23.7776 16.3032Z" fill="#407BFF"/>
<path opacity="0.2" d="M23.8127 16.423C23.4777 16.2726 23.1377 16.4994 22.8537 17.3624C22.5697 18.2253 22.3997 19.605 22.4117 19.9969L23.0117 20.3176C23.0117 20.3176 24.0517 17.4657 23.8127 16.423Z" fill="black"/>
<path d="M19.2449 23.2539L18.6949 23.2714C18.6268 23.2739 18.5597 23.2952 18.4979 23.3338C18.436 23.3725 18.3808 23.4277 18.3354 23.4961C18.2901 23.5645 18.2557 23.6446 18.2343 23.7315C18.2128 23.8184 18.2049 23.9103 18.2109 24.0014C18.2196 24.1182 18.2509 24.2299 18.3017 24.3254C18.3526 24.4208 18.4212 24.4967 18.5008 24.5455C18.5803 24.5943 18.668 24.6142 18.755 24.6032C18.8421 24.5923 18.9255 24.5509 18.9969 24.4832C19.1551 24.3367 19.2998 24.1655 19.4279 23.9733L19.2449 23.2539Z" fill="#FFB573"/>
<path d="M19.1416 23.253C19.2469 23.4931 19.3308 23.7489 19.3916 24.0153C19.3955 24.0312 19.4034 24.0448 19.414 24.0536C19.4246 24.0625 19.4372 24.066 19.4496 24.0636C19.6209 24.0334 19.786 23.9582 19.9356 23.8421C19.9423 23.8343 19.9472 23.8242 19.9499 23.8128C19.9525 23.8014 19.9528 23.7893 19.9506 23.7777C19.9016 23.4946 19.6956 22.8933 19.5796 22.8906C19.4846 22.8906 19.2536 23.0758 19.1566 23.159C19.1508 23.1637 19.1459 23.1698 19.142 23.1772C19.138 23.1845 19.1353 23.1928 19.1339 23.2016C19.1325 23.2104 19.1325 23.2196 19.1338 23.2284C19.1351 23.2372 19.1378 23.2456 19.1416 23.253Z" fill="#263238"/>
<path d="M22.7513 15.7188C22.7513 15.7188 22.0943 19.1491 23.5513 25.0998L27.8733 24.3952C27.8223 23.5001 27.0123 19.2242 27.2733 14.9256C26.7843 14.8797 26.2936 14.8766 25.8043 14.9162C25.1881 14.9682 24.5748 15.0681 23.9673 15.2155C23.5528 15.3406 23.1462 15.5089 22.7513 15.7188Z" fill="#407BFF"/>
<path d="M24.6862 18.1425C24.6846 18.142 24.6831 18.1411 24.6817 18.1398C24.6804 18.1386 24.6793 18.1369 24.6785 18.135C24.6776 18.1332 24.6771 18.1311 24.6768 18.1289C24.6766 18.1267 24.6768 18.1245 24.6772 18.1224C24.8042 17.5144 24.6022 17.2299 24.2952 16.7964C24.0036 16.4079 23.7545 15.966 23.5552 15.4839C23.0492 14.229 23.5422 13.7271 23.8682 13.3956C23.9315 13.3351 23.9914 13.2683 24.0472 13.1956C24.0483 13.1941 24.0497 13.1928 24.0511 13.1919C24.0526 13.191 24.0542 13.1905 24.0558 13.1904C24.0575 13.1904 24.0591 13.1907 24.0606 13.1915C24.0621 13.1923 24.0635 13.1935 24.0647 13.195C24.0659 13.1965 24.0668 13.1983 24.0675 13.2003C24.0682 13.2022 24.0685 13.2044 24.0686 13.2066C24.0686 13.2088 24.0683 13.2109 24.0678 13.213C24.0672 13.215 24.0663 13.2169 24.0652 13.2185C24.0088 13.2925 23.9483 13.3607 23.8842 13.4224C23.5642 13.7472 23.0842 14.2384 23.5772 15.4678C23.774 15.9485 24.0208 16.3891 24.3102 16.7763C24.6232 17.2165 24.8292 17.5077 24.6982 18.1331C24.6971 18.136 24.6953 18.1385 24.6932 18.1401C24.6911 18.1418 24.6887 18.1426 24.6862 18.1425Z" fill="white"/>
<path d="M25.3708 12.1689C25.3268 12.9809 25.3428 14.4505 25.8038 14.9162C25.2592 15.3444 24.7715 15.8914 24.3608 16.5347C24.1458 16.0744 23.9718 15.6248 23.9668 15.2154C24.6068 14.896 24.5308 14.2424 24.3598 13.6452L25.3708 12.1689Z" fill="#FFB573"/>
<path opacity="0.2" d="M24.9594 12.7715L24.3594 13.6438C24.4015 13.783 24.435 13.9267 24.4594 14.0733C24.7064 13.9834 25.0194 13.5553 25.0134 13.1969C25.0152 13.0518 24.9969 12.9076 24.9594 12.7715Z" fill="black"/>
<path d="M23.2281 9.72184C22.6521 10.1661 23.0651 11.9779 23.3531 12.1174C23.8931 12.3778 23.9431 9.17159 23.2281 9.72184Z" fill="#263238"/>
<path d="M25.3331 10.9633C25.3811 12.045 25.4501 12.6758 25.0961 13.2931C24.5631 14.2218 23.5301 13.8903 23.2421 12.8489C22.9831 11.9094 22.9481 10.299 23.6931 9.74469C23.8567 9.62056 24.0414 9.55482 24.2294 9.55372C24.4174 9.55263 24.6025 9.61623 24.767 9.73845C24.9315 9.86067 25.0699 10.0374 25.169 10.2519C25.2681 10.4663 25.3246 10.7112 25.3331 10.9633Z" fill="#FFB573"/>
<path d="M25.9056 10.0133C25.9826 10.6414 25.6056 12.4116 25.2636 12.4291C24.9216 12.4465 24.7366 11.4789 24.8256 10.5663C24.5026 10.4925 22.5316 10.8347 22.7816 9.7087C23.0126 8.66994 24.1656 9.15711 24.9526 8.47266C25.0126 8.88467 24.6706 9.25642 24.8406 9.18932C25.5406 8.91151 25.8306 9.50336 26.3196 9.20408C26.2985 9.37119 26.2505 9.53012 26.179 9.66986C26.1075 9.8096 26.0142 9.92681 25.9056 10.0133Z" fill="#263238"/>
<path d="M25.8 12.088C25.7575 12.2114 25.6973 12.3223 25.6229 12.4145C25.5484 12.5066 25.4611 12.5781 25.366 12.6248C25.112 12.7443 24.966 12.445 25.023 12.1108C25.074 11.8102 25.267 11.3848 25.529 11.4103C25.791 11.4358 25.906 11.7847 25.8 12.088Z" fill="#FFB573"/>
<path d="M23.5526 25.097C23.5526 25.097 22.0136 31.9536 21.8326 35.2779C21.6446 38.7364 21.0176 47.48 21.0176 47.48L21.6496 47.735C21.6496 47.735 23.7966 39.6826 23.8806 36.2818C23.9356 34.0553 26.9076 24.5508 26.9076 24.5508L23.5526 25.097Z" fill="#FFB573"/>
<path d="M20.9585 46.7653L21.7905 47.2753C21.8053 47.2841 21.8173 47.2994 21.8246 47.3188C21.8319 47.3381 21.834 47.3602 21.8305 47.3813L21.6765 48.3543C21.6726 48.378 21.6647 48.4001 21.6535 48.4191C21.6423 48.4381 21.6281 48.4535 21.6118 48.4641C21.5956 48.4746 21.5778 48.4802 21.5597 48.4802C21.5416 48.4803 21.5238 48.4749 21.5075 48.4644C21.2195 48.2805 21.0865 48.1705 20.7205 47.9463C20.4955 47.8121 19.6935 47.3558 19.3825 47.1653C19.0715 46.9747 19.1715 46.5385 19.3115 46.5788C19.9395 46.76 20.5595 46.862 20.8175 46.7532C20.8641 46.7341 20.9142 46.7384 20.9585 46.7653Z" fill="#263238"/>
<path d="M20.5246 46.5261C20.5268 46.5182 20.5295 46.5106 20.5326 46.5033C20.5375 46.4887 20.5454 46.4762 20.5553 46.4672C20.5651 46.4582 20.5767 46.453 20.5886 46.4523C20.6886 46.4455 20.8526 46.7663 20.8886 46.8307C20.891 46.8357 20.8923 46.8415 20.8923 46.8475C20.8923 46.8534 20.891 46.8593 20.8886 46.8643C20.8863 46.8695 20.8829 46.8737 20.8787 46.8761C20.8746 46.8785 20.87 46.8791 20.8656 46.8777C20.7656 46.8508 20.5786 46.7851 20.5316 46.6536C20.5238 46.6342 20.5191 46.6128 20.5179 46.5908C20.5167 46.5688 20.519 46.5468 20.5246 46.5261ZM20.8126 46.8012C20.7396 46.667 20.6386 46.5113 20.5906 46.514C20.5856 46.514 20.5796 46.514 20.5736 46.5314C20.5669 46.5457 20.5628 46.5619 20.5618 46.5788C20.5607 46.5956 20.5627 46.6125 20.5676 46.6281C20.6302 46.725 20.7176 46.7868 20.8126 46.8012Z" fill="#407BFF"/>
<path d="M20.7576 46.3698L20.7665 46.347C20.7758 46.3308 20.7887 46.3191 20.8033 46.3138C20.818 46.3084 20.8335 46.3097 20.8475 46.3175C20.8622 46.3237 20.8757 46.334 20.8872 46.3476C20.8988 46.3612 20.9081 46.3779 20.9145 46.3966C20.9685 46.5456 20.8886 46.8449 20.8856 46.857C20.8844 46.8623 20.882 46.8671 20.8788 46.8707C20.8756 46.8743 20.8717 46.8765 20.8675 46.8771C20.8634 46.878 20.8592 46.8773 20.8553 46.8752C20.8514 46.873 20.8481 46.8695 20.8456 46.865C20.7916 46.7684 20.7226 46.4906 20.7576 46.3698ZM20.8576 46.7724C20.8883 46.6603 20.8939 46.5385 20.8736 46.4221C20.8697 46.4112 20.8643 46.4014 20.8576 46.3933C20.8509 46.3852 20.8431 46.3791 20.8346 46.3752C20.8126 46.3658 20.8066 46.3752 20.8046 46.3819C20.7756 46.4356 20.8106 46.6489 20.8576 46.7738V46.7724Z" fill="#407BFF"/>
<path d="M23.5519 25.097C23.5519 25.097 22.9119 27.7811 22.7129 29.0266C23.1189 29.0736 25.0249 29.8546 25.4059 30.1673C25.6389 29.5996 26.7699 24.5723 26.7699 24.5723L23.5519 25.097Z" fill="#263238"/>
<path opacity="0.2" d="M25.5529 26.4156C25.4349 27.0155 25.2799 28.4945 25.6139 29.4567C25.7629 28.889 25.9579 28.0784 26.1469 27.2812C25.9529 26.7417 25.6389 25.9768 25.5529 26.4156Z" fill="black"/>
<path d="M22.6996 28.6143C22.6413 28.7954 22.6074 28.989 22.5996 29.186C22.9116 29.2665 24.9526 30.116 25.3276 30.3831C25.5096 30.2033 25.5366 29.8154 25.5466 29.8208C25.5566 29.8261 23.8516 28.8276 22.6996 28.6143Z" fill="#407BFF"/>
<path opacity="0.2" d="M22.6996 28.6143C22.6413 28.7954 22.6074 28.989 22.5996 29.186C22.9116 29.2665 24.9526 30.116 25.3276 30.3831C25.5096 30.2033 25.5366 29.8154 25.5466 29.8208C25.5566 29.8261 23.8516 28.8276 22.6996 28.6143Z" fill="white"/>
<path d="M24.7412 24.9062C24.7412 24.9062 27.1822 33.7129 28.4002 36.5741C29.6922 39.6206 35.0802 34.0014 35.0802 34.0014L34.5962 33.321C34.5962 33.321 31.4352 35.1623 30.1862 35.0281C28.9582 31.9413 27.8742 24.3936 27.8742 24.3936L24.7412 24.9062Z" fill="#FFB573"/>
<path d="M24.6621 24.9179C24.6621 24.9179 25.8091 28.8864 26.0921 30.0983C26.4631 29.8702 28.4551 29.2931 28.9011 29.3105C28.8951 28.661 27.8741 24.3945 27.8741 24.3945L24.6621 24.9179Z" fill="#263238"/>
<path d="M26.9554 24.9253C26.9528 24.9251 26.9502 24.9238 26.9481 24.9216C26.946 24.9195 26.9443 24.9166 26.9434 24.9133C26.6744 23.7457 26.0794 22.8586 25.5544 22.0761C24.9174 21.1259 24.3674 20.3059 24.4544 19.2068C24.5174 18.3774 24.7544 17.8889 24.9654 17.4621C25.2654 16.8474 25.5014 16.3616 25.0394 15.1712C24.3454 13.3863 25.0954 12.5179 25.3774 12.1918C25.4074 12.1584 25.4361 12.1231 25.4634 12.0858C25.4645 12.0843 25.4658 12.0831 25.4673 12.0823C25.4688 12.0815 25.4703 12.0811 25.4719 12.0811C25.4735 12.0811 25.4751 12.0815 25.4765 12.0823C25.478 12.0831 25.4793 12.0843 25.4804 12.0858C25.4827 12.089 25.484 12.0934 25.484 12.0979C25.484 12.1024 25.4827 12.1067 25.4804 12.1099C25.4624 12.1368 25.4314 12.173 25.3914 12.22C25.1134 12.5408 24.3754 13.397 25.0594 15.1591C25.5274 16.367 25.2874 16.8595 24.9844 17.4836C24.7754 17.9117 24.5394 18.3962 24.4764 19.2162C24.3934 20.3006 24.9404 21.1165 25.5764 22.06C26.1024 22.8451 26.6994 23.7349 26.9704 24.9106C26.9709 24.9126 26.971 24.9147 26.9709 24.9168C26.9707 24.9189 26.9703 24.921 26.9695 24.9229C26.9688 24.9247 26.9678 24.9264 26.9665 24.9277C26.9653 24.9291 26.9639 24.9301 26.9624 24.9307L26.9554 24.9253Z" fill="white"/>
<path d="M25.6238 12.0933C25.6187 12.1165 25.6099 12.138 25.5979 12.156C25.5859 12.1741 25.571 12.1884 25.5544 12.1979C25.5378 12.2073 25.5199 12.2117 25.5018 12.2108C25.4838 12.2098 25.4662 12.2034 25.4502 12.1922C25.4342 12.181 25.4203 12.1651 25.4094 12.1458C25.3985 12.1265 25.391 12.1042 25.3873 12.0804C25.3836 12.0567 25.3839 12.0322 25.3882 12.0087C25.3924 11.9852 25.4005 11.9632 25.4118 11.9443C25.4254 11.8998 25.4514 11.8642 25.4843 11.8451C25.5172 11.8261 25.5544 11.8251 25.5878 11.8423C25.6171 11.8695 25.6373 11.911 25.644 11.958C25.6507 12.0049 25.6435 12.0535 25.6238 12.0933Z" fill="white"/>
<path d="M26.7066 24.8931L27.5029 24.7021C27.5197 24.6981 27.5369 24.7032 27.5508 24.7162C27.5647 24.7292 27.5742 24.7492 27.5772 24.7716L27.6428 25.2644L26.7204 25.4855L26.6548 24.9928C26.6533 24.9817 26.6535 24.9703 26.6553 24.9592C26.6571 24.9482 26.6605 24.9378 26.6653 24.9285C26.6701 24.9193 26.6762 24.9114 26.6833 24.9053C26.6904 24.8992 26.6983 24.8951 26.7066 24.8931Z" fill="white"/>
<path d="M25.9678 29.7176C25.9835 29.9134 26.0251 30.1038 26.0908 30.2799C26.3908 30.1457 28.4808 29.5324 28.9048 29.5163C28.9978 29.2398 28.8788 28.8842 28.8888 28.8828C28.8988 28.8815 27.0438 29.1445 25.9678 29.7176Z" fill="#407BFF"/>
<path opacity="0.2" d="M25.9678 29.7176C25.9835 29.9134 26.0251 30.1038 26.0908 30.2799C26.3908 30.1457 28.4808 29.5324 28.9048 29.5163C28.9978 29.2398 28.8788 28.8842 28.8888 28.8828C28.8988 28.8815 27.0438 29.1445 25.9678 29.7176Z" fill="white"/>
<path d="M35.1321 34.2431L34.4321 33.4526C34.4199 33.4382 34.4116 33.4188 34.4086 33.3974C34.4055 33.376 34.4078 33.3539 34.4151 33.3345L34.7581 32.4527C34.7667 32.4314 34.7788 32.4129 34.7934 32.3987C34.8081 32.3845 34.8249 32.3749 34.8427 32.3707C34.8605 32.3664 34.8787 32.3676 34.8961 32.3741C34.9135 32.3807 34.9296 32.3924 34.9431 32.4084C35.1831 32.6889 35.2901 32.8433 35.5971 33.1909C35.7871 33.4043 36.4681 34.1303 36.7291 34.4256C36.9901 34.7208 36.8071 35.106 36.6801 35.0161C36.1121 34.6135 35.5351 34.294 35.2651 34.3061C35.2166 34.3075 35.1693 34.2851 35.1321 34.2431Z" fill="#263238"/>
<path d="M35.5001 34.6253L35.4881 34.6441C35.4803 34.6562 35.4703 34.6653 35.4591 34.6705C35.4478 34.6757 35.4357 34.6768 35.4241 34.6736C35.3241 34.6428 35.2331 34.271 35.2151 34.2026C35.2136 34.1967 35.2135 34.1903 35.2147 34.1843C35.216 34.1784 35.2185 34.173 35.2221 34.169C35.2258 34.1658 35.2301 34.1641 35.2346 34.1641C35.239 34.1641 35.2434 34.1658 35.2471 34.169C35.3471 34.2334 35.5051 34.3623 35.5241 34.5045C35.5266 34.5258 35.5257 34.5475 35.5216 34.5683C35.5175 34.5891 35.5101 34.6085 35.5001 34.6253ZM35.2781 34.2563C35.3211 34.4146 35.3881 34.5985 35.4341 34.6132C35.438 34.6142 35.442 34.6136 35.4457 34.6117C35.4494 34.6099 35.4526 34.6067 35.4551 34.6025C35.4643 34.591 35.4712 34.5767 35.4754 34.5608C35.4796 34.5449 35.4809 34.5279 35.4791 34.5112C35.4711 34.4428 35.4001 34.3569 35.2801 34.2616L35.2781 34.2563Z" fill="#407BFF"/>
<path d="M35.2453 34.6948C35.242 34.7023 35.2376 34.7087 35.2323 34.7136C35.2204 34.7267 35.2056 34.7338 35.1903 34.7338C35.1749 34.7338 35.1601 34.7267 35.1483 34.7136C35.1355 34.7024 35.1247 34.6878 35.1164 34.6707C35.1082 34.6536 35.1027 34.6344 35.1003 34.6143C35.0773 34.4505 35.2143 34.1915 35.2203 34.1794C35.2228 34.1749 35.2261 34.1714 35.23 34.1693C35.2339 34.1672 35.2381 34.1665 35.2423 34.1674C35.2462 34.1682 35.2499 34.1704 35.253 34.1737C35.2562 34.177 35.2587 34.1813 35.2603 34.1862C35.2933 34.3002 35.3003 34.5928 35.2453 34.6948ZM35.2303 34.2707C35.1783 34.3676 35.1488 34.4829 35.1453 34.6022C35.1466 34.6141 35.1498 34.6255 35.1547 34.6357C35.1595 34.6458 35.1658 34.6545 35.1733 34.6612C35.1923 34.6787 35.2003 34.6706 35.2033 34.6612C35.2423 34.625 35.2503 34.4076 35.2303 34.2707Z" fill="#407BFF"/>
<path d="M24.1456 11.4612C24.1536 11.5484 24.1256 11.6249 24.0836 11.6317C24.0416 11.6384 23.9996 11.5739 23.9916 11.4867C23.9836 11.3995 24.0116 11.3216 24.0546 11.3149C24.0976 11.3082 24.1376 11.374 24.1456 11.4612Z" fill="#263238"/>
<path d="M23.4102 11.581C23.4182 11.6695 23.3892 11.746 23.3472 11.7528C23.3052 11.7595 23.2632 11.6937 23.2552 11.6065C23.2472 11.5192 23.2762 11.4427 23.3182 11.436C23.3602 11.4293 23.4002 11.4937 23.4102 11.581Z" fill="#263238"/>
<path d="M23.6483 11.5859C23.5948 11.8681 23.5127 12.139 23.4043 12.3912C23.4528 12.4264 23.5065 12.447 23.5616 12.4517C23.6167 12.4563 23.6718 12.4448 23.7233 12.418L23.6483 11.5859Z" fill="#ED893E"/>
<path d="M23.9322 12.6232C23.9275 12.6233 23.9229 12.621 23.9194 12.6167C23.9159 12.6125 23.9137 12.6067 23.9132 12.6004C23.9129 12.5971 23.9131 12.5937 23.9139 12.5904C23.9146 12.5872 23.9157 12.5842 23.9173 12.5816C23.9189 12.5789 23.9209 12.5768 23.9231 12.5752C23.9253 12.5736 23.9277 12.5726 23.9302 12.5722C24.0122 12.5622 24.0912 12.5263 24.1607 12.4672C24.2303 12.4082 24.2884 12.3278 24.3302 12.2327C24.3313 12.2295 24.3328 12.2267 24.3347 12.2244C24.3366 12.2221 24.3388 12.2203 24.3413 12.2192C24.3437 12.218 24.3463 12.2176 24.3488 12.2178C24.3514 12.2181 24.3539 12.219 24.3562 12.2206C24.3606 12.224 24.3639 12.2294 24.3656 12.2358C24.3672 12.2422 24.3671 12.2492 24.3652 12.2555C24.3213 12.3583 24.2595 12.4454 24.1852 12.5094C24.1109 12.5734 24.0261 12.6124 23.9382 12.6232H23.9322Z" fill="#263238"/>
<path d="M24.3347 11.107C24.3294 11.107 24.3243 11.1055 24.3195 11.1028C24.3146 11.1 24.3103 11.0959 24.3067 11.0909C24.2742 11.0424 24.2336 11.0049 24.1882 10.9816C24.1428 10.9583 24.094 10.9497 24.0457 10.9567C24.0363 10.9573 24.027 10.9532 24.0196 10.9454C24.0122 10.9375 24.0072 10.9263 24.0055 10.9139C24.0038 10.9014 24.0055 10.8886 24.0103 10.8777C24.0151 10.8668 24.0227 10.8586 24.0317 10.8547C24.0924 10.8444 24.1541 10.8536 24.2117 10.8816C24.2692 10.9096 24.321 10.9556 24.3627 11.0157C24.3697 11.0257 24.3736 11.0389 24.3736 11.0526C24.3736 11.0664 24.3697 11.0796 24.3627 11.0895C24.3553 11.0998 24.3453 11.106 24.3347 11.107Z" fill="#263238"/>
<path d="M23.0517 11.2953H23.0387C23.0291 11.2907 23.0212 11.2813 23.0167 11.269C23.0122 11.2567 23.0115 11.2425 23.0147 11.2295C23.0333 11.1512 23.0656 11.08 23.1089 11.0219C23.1523 10.9637 23.2053 10.9204 23.2637 10.8954C23.2686 10.8935 23.2737 10.8931 23.2788 10.894C23.2839 10.8949 23.2887 10.8972 23.2931 10.9007C23.2975 10.9042 23.3013 10.9089 23.3043 10.9144C23.3073 10.92 23.3095 10.9263 23.3107 10.9329C23.3131 10.9463 23.3115 10.9604 23.3063 10.9722C23.3011 10.984 23.2926 10.9925 23.2827 10.996C23.2355 11.0152 23.1925 11.0498 23.1576 11.0966C23.1227 11.1434 23.097 11.2011 23.0827 11.2644C23.08 11.2728 23.0758 11.2801 23.0703 11.2855C23.0649 11.291 23.0584 11.2943 23.0517 11.2953Z" fill="#263238"/>
<path d="M27.9402 15.6836C28.1842 16.3278 28.3983 16.9653 28.5983 17.6309C28.6983 17.9638 28.7923 18.302 28.8763 18.6469C28.9674 19.0038 29.0425 19.3677 29.1013 19.7366C29.1153 19.8346 29.1283 19.9366 29.1393 20.0426C29.1508 20.1615 29.1575 20.2811 29.1593 20.401C29.16 20.6079 29.1222 20.8118 29.0492 20.9941C28.9838 21.1553 28.893 21.2954 28.7832 21.4048C28.6268 21.558 28.4495 21.6684 28.2612 21.7296C28.1116 21.78 27.9591 21.8137 27.8052 21.8303C27.2522 21.8787 26.6968 21.82 26.1562 21.6558L26.2092 20.8693L26.5823 20.8264C26.7073 20.8103 26.8313 20.7902 26.9543 20.7714C27.1922 20.734 27.4282 20.678 27.6612 20.6036C27.7637 20.5695 27.864 20.5246 27.9612 20.4694C28.0244 20.4424 28.0822 20.3965 28.1302 20.3352C28.1372 20.3204 28.1302 20.3218 28.1122 20.3486C28.099 20.3758 28.0901 20.4064 28.0862 20.4385C28.0862 20.4452 28.0862 20.4385 28.0862 20.4291V20.4103V20.3714L28.0733 20.2788C28.0613 20.2131 28.0492 20.1446 28.0342 20.0735C27.9732 19.7876 27.8923 19.4776 27.8013 19.1716C27.7103 18.8656 27.6142 18.5543 27.5122 18.2456C27.3122 17.6282 27.0952 17.0015 26.8832 16.3962L27.9402 15.6836Z" fill="#FFB573"/>
<path d="M26.4994 21.0613L26.1624 20.4788C26.1204 20.4068 26.0678 20.3471 26.0079 20.3033C25.948 20.2596 25.8821 20.2327 25.8142 20.2244C25.7463 20.2161 25.6778 20.2266 25.6131 20.2551C25.5483 20.2836 25.4885 20.3296 25.4374 20.3903C25.3727 20.4691 25.3245 20.5693 25.2977 20.6809C25.2708 20.7925 25.2662 20.9116 25.2843 21.0263C25.3024 21.141 25.3426 21.2474 25.4009 21.3348C25.4592 21.4221 25.5335 21.4875 25.6164 21.5243C25.7982 21.6072 25.9864 21.6617 26.1774 21.6867L26.4994 21.0613Z" fill="#FFB573"/>
<path d="M27.2723 14.9251C28.5163 15.1559 28.9053 18.0118 28.9053 18.0118L27.5213 18.9808C27.0809 18.3718 26.7054 17.6839 26.4053 16.9368C25.9143 15.6928 26.4453 14.7708 27.2723 14.9251Z" fill="#407BFF"/>
</svg>
