<svg width="201" height="149" viewBox="0 0 201 149" fill="none" xmlns="http://www.w3.org/2000/svg">
<path d="M180.86 138.083H167.546V138.184H180.86V138.083Z" fill="#EBEBEB"/>
<path d="M133.15 139.177H129.657V139.277H133.15V139.177Z" fill="#EBEBEB"/>
<path d="M167.144 134.353H159.429V134.453H167.144V134.353Z" fill="#EBEBEB"/>
<path d="M38.4514 135.027H21.089V135.128H38.4514V135.027Z" fill="#EBEBEB"/>
<path d="M44.5777 135.027H42.0331V135.128H44.5777V135.027Z" fill="#EBEBEB"/>
<path d="M90.5101 136.725H52.8507V136.825H90.5101V136.725Z" fill="#EBEBEB"/>
<path d="M95.2742 113.686H17.656C17.0472 113.686 16.4634 113.444 16.0329 113.013C15.6024 112.583 15.3606 111.999 15.3606 111.39V2.27532C15.3659 1.67003 15.6101 1.09133 16.04 0.665191C16.4699 0.239054 17.0507 -2.32058e-05 17.656 1.68942e-09H95.2742C95.883 1.68943e-09 96.4668 0.241838 96.8973 0.672313C97.3278 1.10279 97.5696 1.68664 97.5696 2.29542V111.39C97.5696 111.999 97.3278 112.583 96.8973 113.013C96.4668 113.444 95.883 113.686 95.2742 113.686ZM17.656 0.0804003C17.0742 0.081463 16.5165 0.313054 16.1051 0.724451C15.6938 1.13585 15.4622 1.69352 15.4611 2.27532V111.39C15.4622 111.972 15.6938 112.53 16.1051 112.941C16.5165 113.352 17.0742 113.584 17.656 113.585H95.2742C95.856 113.584 96.4137 113.352 96.8251 112.941C97.2364 112.53 97.468 111.972 97.4691 111.39V2.27532C97.468 1.69352 97.2364 1.13585 96.8251 0.724451C96.4137 0.313054 95.856 0.081463 95.2742 0.0804003H17.656Z" fill="#EBEBEB"/>
<path d="M182.23 113.686H104.604C103.996 113.685 103.413 113.442 102.982 113.012C102.552 112.582 102.31 111.999 102.309 111.39V2.27532C102.315 1.67036 102.56 1.09226 102.989 0.666352C103.419 0.24044 103.999 0.00102441 104.604 0H182.23C182.834 0.00209221 183.413 0.242104 183.841 0.668015C184.269 1.09392 184.513 1.67142 184.518 2.27532V111.39C184.518 111.998 184.277 112.58 183.848 113.01C183.42 113.441 182.838 113.683 182.23 113.686ZM104.604 0.0804003C104.022 0.081463 103.465 0.313054 103.053 0.724451C102.642 1.13585 102.41 1.69352 102.409 2.27532V111.39C102.41 111.972 102.642 112.53 103.053 112.941C103.465 113.352 104.022 113.584 104.604 113.585H182.23C182.812 113.584 183.37 113.352 183.781 112.941C184.193 112.53 184.424 111.972 184.425 111.39V2.27532C184.424 1.69352 184.193 1.13585 183.781 0.724451C183.37 0.313054 182.812 0.081463 182.23 0.0804003H104.604Z" fill="#EBEBEB"/>
<path d="M201 131.615H0V131.716H201V131.615Z" fill="#EBEBEB"/>
<path d="M79.2986 124.62H82.7236C82.8569 124.62 82.9847 124.673 83.0789 124.767C83.1732 124.861 83.2261 124.989 83.2261 125.122V126.328C83.2261 126.461 83.2791 126.589 83.3733 126.684C83.4675 126.778 83.5953 126.831 83.7286 126.831H88.7456C88.8119 126.831 88.8777 126.819 88.9391 126.794C89.0005 126.769 89.0564 126.732 89.1035 126.685C89.1506 126.638 89.188 126.583 89.2135 126.521C89.239 126.46 89.2521 126.395 89.2521 126.328V121.906C89.2532 121.774 89.3066 121.647 89.4007 121.553C89.4948 121.46 89.622 121.408 89.7546 121.408H90.8239C90.9572 121.408 91.085 121.355 91.1792 121.261C91.2735 121.166 91.3264 121.039 91.3264 120.905V118.493C91.3264 118.36 91.3794 118.232 91.4736 118.138C91.5678 118.044 91.6956 117.991 91.8289 117.991H93.5816C93.7149 117.991 93.8427 118.044 93.937 118.138C94.0312 118.232 94.0841 118.36 94.0841 118.493V119.205C94.0836 119.271 94.0963 119.338 94.1216 119.399C94.1469 119.461 94.1842 119.517 94.2313 119.564C94.2784 119.611 94.3345 119.649 94.3962 119.674C94.4579 119.699 94.524 119.712 94.5907 119.711H94.7515C94.8847 119.711 95.0125 119.658 95.1068 119.564C95.201 119.47 95.254 119.342 95.254 119.209V116.576C95.254 116.442 95.3069 116.315 95.4011 116.22C95.4954 116.126 95.6232 116.073 95.7565 116.073H97.4931C97.6264 116.073 97.7542 116.126 97.8484 116.22C97.9427 116.315 97.9956 116.442 97.9956 116.576V119.213C97.9956 119.346 98.0485 119.474 98.1428 119.568C98.237 119.662 98.3648 119.715 98.4981 119.715H99.0408C99.1741 119.715 99.3019 119.662 99.3961 119.568C99.4904 119.474 99.5433 119.346 99.5433 119.213V113.85V111.189H99.6478V112.829L99.68 112.785L103.672 110.493C103.756 110.401 103.805 110.493 103.805 110.369V107.088L104.078 106.892L109.063 103.314V101.891H109.171V103.237H109.191V119.177C109.191 119.31 109.244 119.438 109.338 119.532C109.433 119.626 109.561 119.679 109.694 119.679H110.349C110.482 119.679 110.61 119.626 110.704 119.532C110.799 119.438 110.852 119.31 110.852 119.177L111.008 113.227C111.012 113.17 111.025 113.114 111.049 113.062L112.025 111.028H112.098V108.725C112.098 108.618 112.14 108.516 112.215 108.44C112.291 108.365 112.393 108.323 112.5 108.323H112.697V106.691H112.805V108.323H112.906C113.012 108.323 113.115 108.365 113.19 108.44C113.265 108.516 113.308 108.618 113.308 108.725V108.829H113.766V108.725C113.766 108.618 113.808 108.516 113.884 108.44C113.959 108.365 114.061 108.323 114.168 108.323H114.341V106.691H114.449V108.323H114.57C114.677 108.323 114.779 108.365 114.854 108.44C114.93 108.516 114.972 108.618 114.972 108.725V111.028H115.044L116.021 113.062C116.046 113.114 116.06 113.17 116.061 113.227L116.222 119.173C116.222 119.306 116.275 119.434 116.369 119.528C116.464 119.622 116.592 119.675 116.725 119.675H117.645C117.779 119.675 117.906 119.728 118.001 119.822C118.095 119.917 118.148 120.044 118.148 120.178V120.869C118.148 121.002 118.201 121.13 118.295 121.224C118.389 121.319 118.517 121.372 118.65 121.372H119.31C119.426 121.371 119.539 121.411 119.629 121.484C119.719 121.557 119.781 121.66 119.804 121.774L121.557 130.975C121.559 131.006 121.559 131.037 121.557 131.068C121.557 131.134 121.545 131.2 121.52 131.261C121.495 131.322 121.458 131.378 121.411 131.424C121.364 131.471 121.308 131.508 121.247 131.533C121.186 131.558 121.12 131.571 121.054 131.57H79.3026C79.1941 131.574 79.2986 124.62 79.2986 124.62Z" fill="#E0E0E0"/>
<path d="M85.5816 131.884C85.5816 131.884 66.8041 122.373 63.9138 122.16C61.0234 121.947 51.2065 131.253 51.2065 131.253L85.5816 131.884Z" fill="#F0F0F0"/>
<path d="M117.444 131.965C117.444 131.965 131.575 119.527 136.901 119.318C142.228 119.109 180.779 131.334 180.779 131.334L117.444 131.965Z" fill="#F0F0F0"/>
<path d="M69.4254 132.045C69.4254 132.045 42.2904 122.534 38.1136 122.321C33.9368 122.108 19.7502 131.414 19.7502 131.414L69.4254 132.045Z" fill="#EBEBEB"/>
<path d="M153.901 100.97C155.689 98.5291 155.703 95.4971 153.93 94.1978C152.157 92.8984 149.27 93.8236 147.481 96.2643C145.692 98.705 145.679 101.737 147.451 103.036C149.224 104.336 152.112 103.41 153.901 100.97Z" fill="#E6E6E6"/>
<path d="M137.95 83.986C143.438 78.8002 150.766 78.1007 154.32 82.4302C157.873 86.7598 156.302 94.4701 150.814 99.6559C145.327 104.842 137.998 105.541 134.445 101.216C130.891 96.8902 132.463 89.1758 137.95 83.986Z" fill="#EBEBEB"/>
<path d="M162.267 84.5329C166.167 80.8506 171.373 80.3561 173.893 83.4274C176.414 86.4987 175.304 91.982 171.405 95.6643C167.505 99.3466 162.303 99.8451 159.779 96.7698C157.254 93.6945 158.388 88.2193 162.267 84.5329Z" fill="#E6E6E6"/>
<path d="M176.432 102.102C180.021 98.095 180.541 92.7067 177.594 90.0671C174.647 87.4274 169.349 88.5361 165.759 92.5432C162.17 96.5504 161.65 101.939 164.597 104.578C167.544 107.218 172.843 106.109 176.432 102.102Z" fill="#EBEBEB"/>
<path d="M153.709 80.444C159.084 75.3627 166.263 74.6793 169.745 78.9164C173.226 83.1535 171.686 90.7111 166.312 95.8004C160.937 100.89 153.757 101.565 150.276 97.328C146.795 93.0909 148.338 85.5253 153.709 80.444Z" fill="#F0F0F0"/>
<path d="M143.353 88.9059C146.28 85.9673 150.187 85.5734 152.077 88.0256C153.966 90.4778 153.138 94.8596 150.211 97.7781C147.285 100.697 143.377 101.111 141.488 98.6625C139.598 96.2143 140.431 91.8446 143.353 88.9059Z" fill="#F0F0F0"/>
<path d="M173.182 104.242C174.971 101.802 174.984 98.7696 173.211 97.4702C171.438 96.1708 168.551 97.0961 166.762 99.5368C164.973 101.977 164.96 105.009 166.733 106.309C168.506 107.608 171.393 106.683 173.182 104.242Z" fill="#F0F0F0"/>
<path d="M167.276 106.651L163.562 109.746C163.859 114.12 164.105 124.186 164.105 124.186L165.423 131.225L153.785 131.321C153.785 131.321 154.316 125.38 154.316 125.054C154.316 124.729 156.563 113.364 156.563 113.364L157.367 106.984L151.357 105.324L150.264 102.478L145.842 100.239L143.687 97.264L144.519 97.0831L146.899 99.8288L149.677 100.372L148.471 97.8389H149.793L153.126 103.716L157.387 104.5L156.828 96.2671C160.929 97.4248 161.327 95.3184 161.327 95.3184C161.327 95.3184 162.734 106.393 163.228 107.656L165.423 106.663L167.807 103.282H168.864L167.276 106.651Z" fill="#E6E6E6"/>
<path d="M51.5525 97.0946C49.5023 95.0364 46.7607 94.759 45.4341 96.4755C44.1075 98.1921 44.6904 101.259 46.7446 103.31C48.7988 105.36 51.5324 105.645 52.863 103.929C54.1936 102.212 53.6027 99.1569 51.5525 97.0946Z" fill="#E6E6E6"/>
<path d="M61.506 86.0281C56.1795 80.9951 49.0681 80.3197 45.6189 84.5166C42.1698 88.7135 43.6933 96.2028 49.0198 101.236C54.3463 106.269 61.4577 106.948 64.9069 102.747C68.356 98.5464 66.8405 91.0451 61.506 86.0281Z" fill="#EBEBEB"/>
<path d="M37.9126 86.5387C34.1298 82.9649 29.0686 82.4825 26.6285 85.4654C24.1883 88.4482 25.2617 93.7667 29.0405 97.3405C32.8193 100.914 37.8845 101.397 40.3246 98.4138C42.7648 95.431 41.6954 90.1165 37.9126 86.5387Z" fill="#E6E6E6"/>
<path d="M33.768 93.5329C29.9852 89.9591 24.924 89.4767 22.4839 92.4595C20.0437 95.4424 21.113 100.761 24.8959 104.335C28.6787 107.908 33.768 108.391 36.18 105.408C38.592 102.425 37.5669 97.1107 33.768 93.5329Z" fill="#EBEBEB"/>
<path d="M46.23 82.5709C41.004 77.6383 34.0454 76.975 30.6686 81.0875C27.2918 85.2 28.7832 92.5324 34.0012 97.465C39.2191 102.398 46.1858 103.061 49.5626 98.9484C52.9394 94.8359 51.456 87.5034 46.23 82.5709Z" fill="#F0F0F0"/>
<path d="M57.2897 101.027C59.6696 99.2826 59.6517 95.212 57.2498 91.9351C54.8479 88.6581 50.9716 87.4157 48.5918 89.16C46.2119 90.9043 46.2298 94.9749 48.6317 98.2518C51.0336 101.529 54.9099 102.771 57.2897 101.027Z" fill="#F0F0F0"/>
<path d="M32.8395 100.27C30.7893 98.2121 28.0517 97.9348 26.7211 99.6513C25.3905 101.368 25.9814 104.435 28.0316 106.485C30.0818 108.536 32.8234 108.821 34.15 107.104C35.4766 105.388 34.8937 102.333 32.8395 100.27Z" fill="#F0F0F0"/>
<path d="M33.0524 108.001L36.6704 111.012C36.3849 115.253 36.1478 125.026 36.1478 125.026L34.8654 131.86L46.1576 131.953C46.1576 131.953 45.647 126.184 45.647 125.87C45.647 125.557 43.4642 114.502 43.4642 114.502L42.6923 108.311L48.5173 106.703L49.5786 103.945L53.8599 101.766L55.9503 98.88L55.1463 98.7031L52.8388 101.372L50.1414 101.895L51.2951 99.4428H50.0127L46.7967 105.131L42.6642 105.891L43.2029 97.9031C39.2231 99.0247 38.8371 96.9785 38.8371 96.9785C38.8371 96.9785 37.4623 107.736 36.9839 108.966L34.8533 108.001L32.5418 104.725H31.5127L33.0524 108.001Z" fill="#F5F5F5"/>
<path d="M127.579 36.7106L141.034 35.9267C141.509 35.8992 141.983 36.0109 142.396 36.2483C146.842 40.0995 151.642 37.5307 153.749 36.0111C154.55 35.428 155.501 35.0863 156.49 35.0262L171.477 34.17C177.105 33.8443 177.997 25.8928 172.578 24.3531L172.369 24.2968C177.961 19.0708 164.47 9.49118 151.301 24.5943C152.105 19.7703 139.767 22.2145 136.338 28.9359C134.738 24.727 123.301 32.8313 127.579 36.7106Z" fill="#F0F0F0"/>
<path d="M56.7101 48.2041L48.449 48.0473L47.7656 48.3367C45.8984 49.1303 43.8769 49.4945 41.8501 49.4027C39.8234 49.3108 37.8431 48.7652 36.0553 47.8061L29.149 47.6734C29.149 47.6734 22.717 45.1167 23.6898 38.6847C24.6626 32.2527 34.3066 37.8124 34.3066 37.8124C34.3066 37.8124 31.5208 28.7634 40.9195 31.497C50.3183 34.2306 51.07 43.155 51.07 43.155C51.07 43.155 63.5159 41.2374 56.7101 48.2041Z" fill="#F0F0F0"/>
<path d="M100.42 34.1616C103.836 34.1616 106.606 31.3917 106.606 27.9749C106.606 24.558 103.836 21.7881 100.42 21.7881C97.0027 21.7881 94.2328 24.558 94.2328 27.9749C94.2328 31.3917 97.0027 34.1616 100.42 34.1616Z" fill="#F0F0F0"/>
<path d="M92.8337 89.2201C92.8337 89.2603 92.8337 89.2965 92.8337 89.3327C92.7848 90.3175 92.5018 91.2765 92.0083 92.1301C91.5147 92.9838 90.8247 93.7074 89.9956 94.2411C89.5765 95.0187 88.989 95.6928 88.2762 96.2144C87.5633 96.7361 86.743 97.0919 85.8751 97.2561C85.0444 97.4081 84.1898 97.3644 83.3789 97.1285C82.5681 96.8927 81.8234 96.4711 81.2038 95.8973C80.4427 96.423 79.5401 96.7054 78.6151 96.7072C77.6902 96.7091 76.7864 96.4302 76.0233 95.9075C75.2601 95.3848 74.6736 94.6429 74.341 93.7798C74.0085 92.9166 73.9456 91.9729 74.1608 91.0733C74.2135 90.8648 74.2779 90.6595 74.3537 90.4583C74.9567 88.9025 76.3637 87.5036 77.9717 87.3026C77.7331 86.8112 77.6199 86.2685 77.6421 85.7227C77.6567 85.2506 77.7646 84.7861 77.9597 84.3559C78.0714 84.1139 78.2133 83.887 78.3818 83.6805C78.7927 83.185 79.3331 82.8133 79.9428 82.6068C80.5524 82.4002 81.2075 82.367 81.835 82.5107C82.9083 82.0846 84.3676 81.8796 85.4168 82.366C85.9245 82.624 86.374 82.9833 86.7377 83.4216C87.1014 83.8599 87.3714 84.368 87.5313 84.9147C88.7373 84.179 90.4217 84.4926 91.4629 85.4614C91.9456 85.9543 92.3177 86.5446 92.5541 87.1928C92.7905 87.8409 92.8858 88.5321 92.8337 89.2201Z" fill="#F5F5F5"/>
<path d="M92.834 89.2199C92.4082 90.5835 91.5122 91.7517 90.3054 92.5163C89.8861 93.2933 89.2986 93.9668 88.5857 94.4878C87.8728 95.0087 87.0526 95.3638 86.1849 95.5273C85.3515 95.6821 84.4934 95.6402 83.679 95.405C82.8645 95.1698 82.1162 94.7478 81.4936 94.1725C80.811 94.645 80.0125 94.9224 79.184 94.9747C78.3554 95.0269 77.5284 94.8522 76.7918 94.4692C76.0552 94.0863 75.4371 93.5096 75.004 92.8014C74.5709 92.0931 74.3393 91.2802 74.334 90.45C74.937 88.8943 76.344 87.4953 77.952 87.2943C77.7134 86.803 77.6001 86.2602 77.6223 85.7144C77.8299 85.6446 78.0441 85.5961 78.2615 85.5697C78.0808 85.191 77.9718 84.7821 77.9399 84.3637C78.0517 84.1218 78.1935 83.8948 78.362 83.6884C78.7729 83.1928 79.3133 82.8211 79.923 82.6146C80.5327 82.408 81.1877 82.3748 81.8152 82.5185C82.8885 82.0924 84.3478 81.8874 85.397 82.3738C85.9048 82.6319 86.3543 82.9911 86.7179 83.4294C87.0816 83.8677 87.3517 84.3759 87.5115 84.9225C88.7175 84.1868 90.4019 84.5004 91.4431 85.4692C91.9284 85.9594 92.3036 86.5476 92.5434 87.1944C92.7833 87.8412 92.8824 88.5317 92.834 89.2199Z" fill="#E0E0E0"/>
<path d="M123.362 86.9088C119.953 90.8243 113.822 91.3308 108.005 88.7017C107.85 88.6321 107.677 88.6076 107.508 88.6311C107.339 88.6545 107.18 88.725 107.049 88.8344C105.915 89.8434 104.235 90.0685 102.554 89.554C102.352 89.483 102.131 89.4907 101.934 89.5757C101.737 89.6606 101.58 89.8165 101.493 90.0123C101.342 90.4292 101.122 90.8178 100.842 91.162C99.2338 93.1077 96.1103 92.9991 93.5174 91.0333C93.3582 90.9154 93.1647 90.8532 92.9666 90.8565C92.8367 90.854 92.7078 90.8801 92.589 90.9329C92.4702 90.9857 92.3645 91.0639 92.2792 91.162C90.7597 93.0152 87.8371 93.0031 85.3206 91.2946C85.1655 91.1885 84.9819 91.1317 84.794 91.1317C84.606 91.1317 84.4225 91.1885 84.2674 91.2946C80.77 93.7669 74.9892 92.8584 70.5391 88.8826C68.8748 87.427 67.5423 85.6312 66.6316 83.6164C65.1161 80.1552 65.2568 76.5372 67.3472 74.1373C68.0915 73.2876 69.0349 72.6357 70.0928 72.2398C70.3868 72.1407 70.6416 71.9505 70.8202 71.6968C70.9987 71.4431 71.0918 71.139 71.0858 70.8288C70.9296 68.8727 71.5458 66.9332 72.8023 65.4259C73.3186 64.8365 73.9334 64.3414 74.6194 63.9627C75.6138 63.4249 76.4329 62.6128 76.9791 61.623C77.2996 61.0356 77.6823 60.4843 78.1208 59.9788C82.1167 55.392 91.7486 55.9588 97.6861 60.8311C98.2779 61.2954 98.9783 61.6011 99.7211 61.7193C100.464 61.8374 101.225 61.7642 101.931 61.5064C106.84 59.7296 113.537 61.3617 118.876 66.1134C122.896 69.7314 125.308 74.3101 125.71 78.5754C126.055 81.7069 125.308 84.6777 123.362 86.9088Z" fill="#E6E6E6"/>
<path d="M123.362 86.9079C119.953 90.8234 113.822 91.3299 108.005 88.7008C107.85 88.6312 107.677 88.6067 107.508 88.6302C107.339 88.6536 107.18 88.7241 107.049 88.8335C105.915 89.8425 104.235 90.0676 102.554 89.5531C102.352 89.4821 102.131 89.4898 101.934 89.5748C101.737 89.6597 101.58 89.8156 101.493 90.0113C101.342 90.4283 101.122 90.8169 100.842 91.1611C99.2338 93.1067 96.1103 92.9982 93.5174 91.0324C93.3582 90.9145 93.1646 90.8523 92.9666 90.8556C92.8367 90.8531 92.7077 90.8792 92.589 90.932C92.4702 90.9847 92.3645 91.063 92.2792 91.1611C90.7596 93.0143 87.8371 93.0022 85.3206 91.2937C85.1655 91.1876 84.9819 91.1308 84.7939 91.1308C84.606 91.1308 84.4224 91.1876 84.2673 91.2937C80.7699 93.766 74.9892 92.8575 70.539 88.8817C68.8748 87.4261 67.5423 85.6303 66.6316 83.6155C66.4854 81.6779 67.098 79.7593 68.3401 78.2649C69.0823 77.4156 70.0246 76.7648 71.0817 76.3715C71.3764 76.2722 71.6317 76.0814 71.8103 75.8268C71.9889 75.5723 72.0815 75.2673 72.0747 74.9564C71.9204 72.9954 72.5426 71.0522 73.8073 69.5455C74.3214 68.9538 74.9366 68.4583 75.6243 68.0822C76.618 67.5434 77.4367 66.7316 77.9841 65.7426C78.3045 65.1529 78.6887 64.6002 79.1298 64.0944C83.1216 59.5116 92.7495 60.0744 98.6951 64.9466C99.2875 65.4083 99.9878 65.7114 100.73 65.8274C101.472 65.9435 102.231 65.8686 102.936 65.61C107.845 63.8371 114.542 65.4652 119.876 70.2209C122.462 72.4853 124.468 75.3359 125.726 78.5342C126.055 81.706 125.308 84.6768 123.362 86.9079Z" fill="#EBEBEB"/>
<path d="M121.605 84.143C121.245 84.4221 120.813 84.5924 120.359 84.6337C119.905 84.675 119.449 84.5857 119.044 84.3762C119.282 85.3249 119.004 86.4827 118.297 86.961C117.915 87.1894 117.47 87.2885 117.027 87.2436C116.585 87.1987 116.168 87.0122 115.84 86.7118C114.634 88.1349 110.727 89.7268 107.398 88.4525C105.775 87.8031 104.456 86.5638 103.708 84.9832C103.416 84.3604 103.292 83.6721 103.349 82.9867C103.405 82.3012 103.64 81.6425 104.03 81.0758C104.792 80.0748 105.837 79.3245 107.029 78.921C107.317 77.8301 107.918 76.8473 108.758 76.0937C109.598 75.3401 110.64 74.8487 111.756 74.6799L111.965 74.6558C114.176 74.4629 116.58 75.8256 117.862 77.9924C118.131 77.9122 118.414 77.8905 118.692 77.9289C118.97 77.9673 119.236 78.0649 119.473 78.215C119.71 78.3651 119.912 78.5643 120.066 78.7991C120.219 79.034 120.321 79.299 120.363 79.5763C120.844 79.6843 121.285 79.9244 121.636 80.2696C121.988 80.6148 122.236 81.0514 122.353 81.53C122.48 81.9922 122.478 82.4806 122.346 82.9416C122.214 83.4025 121.958 83.8182 121.605 84.143Z" fill="#F5F5F5"/>
<path d="M120.234 83.5639C119.922 83.8395 119.532 84.01 119.118 84.0511C118.703 84.0923 118.287 84.002 117.927 83.793C118.136 84.7417 118.007 86.004 117.368 86.4784C117.029 86.7075 116.619 86.8083 116.213 86.7626C115.806 86.717 115.429 86.5278 115.149 86.2291C114.116 87.608 110.502 89.3567 107.39 88.4522C105.767 87.8028 104.448 86.5635 103.7 84.9829C103.408 84.3601 103.284 83.6719 103.341 82.9864C103.397 82.301 103.632 81.6422 104.022 81.0755C104.784 80.0745 105.829 79.3242 107.021 78.9208C107.31 77.8287 107.912 76.8451 108.754 76.0914C109.595 75.3378 110.639 74.847 111.756 74.6797C113.553 74.949 115.394 76.8505 116.419 78.7761C118.236 78.2896 118.679 80.2072 118.674 80.3559C121.46 80.4001 120.857 82.993 120.234 83.5639Z" fill="#F5F5F5"/>
<path d="M88.1061 98.8643L92.2668 102.732C91.9332 108.183 91.6156 122.807 91.6156 122.807L90.1362 131.587L103.181 131.708C103.181 131.708 102.586 124.291 102.586 123.889C102.586 123.487 100.066 109.28 100.066 109.28L98.6345 95.4875L105.356 93.4373L106.586 89.8916L111.531 87.0776L113.943 83.3672L113.006 83.1421L110.341 86.5671L107.229 87.2424L108.56 84.0868H107.077L103.374 91.3991L98.5983 92.38L99.0566 82.0687C95.2376 83.8536 94.0155 80.8828 94.0155 80.8828C94.0155 80.8828 93.2115 98.5145 92.6407 100.09C91.0287 99.2788 89.6671 98.0451 88.7011 96.5206L87.4951 94.6352H86.3092L88.1061 98.8643Z" fill="#EBEBEB"/>
<path d="M99.8086 92.1463L98.7835 92.3995C98.4625 92.4782 98.1276 92.4803 97.8056 92.4058C97.4837 92.3314 97.1837 92.1824 96.9299 91.9708C96.6761 91.7592 96.4755 91.491 96.3443 91.1877C96.2131 90.8844 96.1549 90.5546 96.1745 90.2247L96.6287 82.6269C97.4656 82.6429 98.2937 82.4538 99.0407 82.0762L98.6186 91.9453V92.3714V92.3915L99.8086 92.1463Z" fill="#F5F5F5"/>
<path d="M106.088 89.324L104.295 92.7933L97.2316 94.6988C96.88 94.7938 96.5702 95.0037 96.3517 95.2951C96.1332 95.5865 96.0184 95.9426 96.0256 96.3068L96.2105 106.301C96.2105 106.301 97.7341 100.194 97.7341 100.467C97.7341 100.741 98.313 110.393 98.313 110.393L96.705 125.122L99.5873 115.052L98.2808 131.663L103.173 131.707C103.173 131.707 102.578 124.29 102.578 123.888C102.578 123.486 100.058 109.279 100.058 109.279L98.7632 96.8173C98.7251 96.4401 98.8188 96.0614 99.0284 95.7455C99.238 95.4297 99.5506 95.1961 99.9129 95.0847L105.348 93.4285L106.578 89.8828L111.523 87.0688L113.935 83.3584L113.36 83.2217C112.351 84.7372 110.948 87.0206 110.948 87.0206L106.088 89.324Z" fill="#F5F5F5"/>
<path d="M100.5 148.221C143.547 148.221 178.444 146.184 178.444 143.671C178.444 141.158 143.547 139.12 100.5 139.12C57.453 139.12 22.5564 141.158 22.5564 143.671C22.5564 146.184 57.453 148.221 100.5 148.221Z" fill="#F5F5F5"/>
<path d="M98.04 97.9309C90.4462 96.4234 82.4544 97.7339 75.331 100.769C68.2075 103.804 61.9082 108.495 56.232 113.786C52.421 117.352 48.6864 121.609 48.192 126.799C48.0148 128.801 48.3294 130.816 49.1085 132.669C49.8875 134.522 51.1075 136.157 52.6622 137.431C55.7978 139.932 67.1342 141.552 70.9411 140.29C88.4121 134.501 100.975 140.869 119.37 140.253C123.483 140.117 127.627 139.976 131.631 139.047C135.635 138.119 139.542 136.294 142.332 133.271C146.513 128.744 147.643 121.862 145.866 115.965C144.089 110.067 139.683 105.167 134.381 102.023C129.078 98.8796 122.94 97.3762 116.801 96.8335C110.663 96.2908 104.086 99.1289 98.04 97.9309Z" fill="#263238"/>
<path opacity="0.3" d="M98.1206 99.9407C90.5268 98.4332 82.5351 99.7437 75.4116 102.779C68.2882 105.814 61.9688 110.505 56.3126 115.796C52.5017 119.361 48.7671 123.618 48.2726 128.808C48.0983 130.813 48.4166 132.829 49.2 134.683C49.9833 136.536 51.2079 138.169 52.767 139.441C55.9026 141.942 67.239 143.562 71.0459 142.299C88.5168 136.511 101.079 142.878 119.475 142.263C123.587 142.127 127.732 141.986 131.736 141.057C135.74 140.129 139.647 138.304 142.437 135.281C146.618 130.754 147.748 123.872 145.971 117.974C144.194 112.077 139.788 107.177 134.486 104.033C129.183 100.889 123.045 99.3859 116.906 98.8432C110.768 98.3005 104.167 101.139 98.1206 99.9407Z" fill="white"/>
<path opacity="0.3" d="M133.621 101.565C128.045 106.095 115.704 109.605 98.5305 110.682C88.2675 111.334 69.1202 110.357 64.449 106.992C67.8367 104.525 71.4862 102.44 75.3311 100.773C82.4546 97.7339 90.4423 96.4233 98.0401 97.9308C104.07 99.1368 110.679 96.2746 116.818 96.8173C122.659 97.3319 128.504 98.7188 133.621 101.565Z" fill="white"/>
<path opacity="0.2" d="M143.076 132.403C142.847 132.696 142.602 132.981 142.349 133.255C139.559 136.278 135.651 138.079 131.647 139.036C127.643 139.992 123.499 140.117 119.386 140.242C100.991 140.857 88.4323 134.489 70.9574 140.282C67.1505 141.544 55.8141 139.924 52.6785 137.419C51.9238 136.809 51.2486 136.107 50.6685 135.329C54.15 136.229 57.7585 136.533 61.3416 136.23C68.063 135.719 74.5352 133.584 81.0396 131.763C87.5439 129.942 94.2613 128.407 100.959 129.142C106.301 129.729 111.374 131.727 116.604 132.945C125.339 134.942 134.431 134.755 143.076 132.403Z" fill="black"/>
<path opacity="0.2" d="M95.4231 117.312C95.0211 117.581 94.587 117.979 94.591 118.477C94.6144 118.715 94.7102 118.94 94.8655 119.122C95.0207 119.304 95.228 119.434 95.4593 119.494C95.9233 119.608 96.4067 119.616 96.8743 119.519C97.7814 119.447 98.6607 119.172 99.4471 118.715C100.766 117.838 101.111 116.363 99.2783 116.347C97.9267 116.286 96.5868 116.621 95.4231 117.312Z" fill="black"/>
<path opacity="0.2" d="M102.844 134.569C102.767 134.822 102.767 135.092 102.844 135.345C102.865 135.45 102.913 135.548 102.984 135.629C103.054 135.71 103.144 135.772 103.246 135.807C103.316 135.807 103.385 135.791 103.448 135.761C103.511 135.732 103.567 135.688 103.612 135.634C103.865 135.426 104.049 135.146 104.138 134.83C104.323 134.159 104.138 133.275 103.68 133.508C103.472 133.614 103.289 133.763 103.145 133.946C103.001 134.13 102.898 134.342 102.844 134.569Z" fill="black"/>
<path opacity="0.2" d="M69.1803 135.94C69.1053 136.192 69.1053 136.46 69.1803 136.712C69.2018 136.817 69.2502 136.915 69.3206 136.996C69.391 137.077 69.4812 137.139 69.5823 137.175C69.6529 137.174 69.7225 137.159 69.7864 137.129C69.8503 137.099 69.9069 137.056 69.9522 137.002C70.2056 136.794 70.3893 136.513 70.4788 136.198C70.6637 135.526 70.4788 134.642 70.0205 134.875C69.8113 134.981 69.6277 135.131 69.4826 135.315C69.3374 135.499 69.2343 135.712 69.1803 135.94Z" fill="black"/>
<path opacity="0.2" d="M130.031 112.058C129.956 112.309 129.956 112.578 130.031 112.829C130.053 112.935 130.101 113.032 130.171 113.113C130.242 113.194 130.332 113.256 130.433 113.292C130.504 113.292 130.573 113.276 130.637 113.246C130.701 113.216 130.758 113.173 130.803 113.119C131.056 112.911 131.24 112.63 131.33 112.315C131.514 111.644 131.329 110.759 130.871 110.992C130.662 111.098 130.478 111.248 130.333 111.432C130.188 111.616 130.085 111.829 130.031 112.058Z" fill="black"/>
<path opacity="0.2" d="M121.022 117.898C120.947 118.15 120.947 118.419 121.022 118.67C121.044 118.775 121.092 118.873 121.163 118.954C121.233 119.035 121.323 119.097 121.424 119.133C121.495 119.134 121.565 119.12 121.63 119.09C121.694 119.06 121.75 119.015 121.794 118.96C122.048 118.752 122.231 118.471 122.321 118.156C122.506 117.48 122.321 116.596 121.863 116.829C121.653 116.935 121.469 117.086 121.324 117.271C121.179 117.455 121.076 117.67 121.022 117.898Z" fill="black"/>
<path opacity="0.2" d="M89.2441 135.582C89.0107 135.182 88.6315 134.889 88.1863 134.763C87.741 134.637 87.2643 134.688 86.8562 134.907C86.8831 135.433 87.0676 135.94 87.3859 136.361C87.7041 136.782 88.1414 137.097 88.6411 137.266C89.1375 137.382 89.6584 137.332 90.1233 137.123C90.5882 136.913 90.9715 136.557 91.2139 136.108C91.246 135.747 90.7556 135.501 90.5305 135.767L89.2441 135.582Z" fill="black"/>
<g opacity="0.2">
<path opacity="0.2" d="M123.169 114.888C123.129 115.487 123.085 116.094 123.044 116.685C123.186 116.756 123.342 116.796 123.5 116.8C123.659 116.805 123.817 116.774 123.962 116.711C124.108 116.647 124.237 116.553 124.342 116.433C124.446 116.314 124.523 116.173 124.567 116.02C124.611 115.868 124.62 115.707 124.595 115.551C124.569 115.394 124.51 115.245 124.42 115.114C124.33 114.983 124.212 114.874 124.075 114.794C123.938 114.713 123.785 114.665 123.627 114.65L123.169 114.888Z" fill="black"/>
</g>
<g opacity="0.2">
<path opacity="0.2" d="M71.6044 105.428C71.5642 106.027 71.5199 106.634 71.4797 107.229C71.6213 107.301 71.777 107.341 71.9356 107.345C72.0943 107.35 72.252 107.319 72.3975 107.256C72.5429 107.192 72.6726 107.098 72.7772 106.978C72.8817 106.859 72.9586 106.718 73.0023 106.565C73.0461 106.413 73.0555 106.252 73.0301 106.096C73.0046 105.939 72.9449 105.79 72.8551 105.659C72.7653 105.528 72.6477 105.419 72.5107 105.338C72.3737 105.258 72.2207 105.209 72.0626 105.195L71.6044 105.428Z" fill="black"/>
</g>
<g opacity="0.2">
<path opacity="0.2" d="M122.871 104.6C123.096 105.159 123.318 105.718 123.539 106.277C123.697 106.28 123.855 106.248 124 106.184C124.145 106.119 124.274 106.024 124.377 105.903C124.481 105.783 124.557 105.642 124.6 105.489C124.642 105.336 124.651 105.176 124.624 105.019C124.598 104.863 124.537 104.714 124.446 104.584C124.355 104.454 124.237 104.345 124.1 104.266C123.962 104.187 123.809 104.139 123.651 104.126C123.493 104.113 123.334 104.135 123.185 104.19L122.871 104.6Z" fill="black"/>
</g>
<g opacity="0.2">
<path opacity="0.2" d="M86.8886 130.79C86.4866 130.601 86.0846 131.192 86.2936 131.558C86.423 131.73 86.611 131.849 86.8222 131.892C87.0333 131.935 87.2529 131.899 87.4393 131.791C87.8072 131.561 88.1091 131.24 88.3157 130.859L87.4112 130.971L86.8886 130.79Z" fill="black"/>
</g>
<g opacity="0.2">
<path opacity="0.2" d="M88.7415 123.233C88.4561 123.092 88.1506 123.518 88.3033 123.792C88.3976 123.919 88.5354 124.007 88.6904 124.039C88.8454 124.07 89.0067 124.044 89.1435 123.964C89.4123 123.795 89.6336 123.56 89.7867 123.281L89.1234 123.366L88.7415 123.233Z" fill="black"/>
</g>
<g opacity="0.2">
<path opacity="0.2" d="M121.404 107.249C121.119 107.109 120.813 107.535 120.966 107.812C121.062 107.938 121.2 108.025 121.354 108.056C121.509 108.087 121.67 108.06 121.806 107.981C122.075 107.811 122.296 107.576 122.45 107.298L121.786 107.382L121.404 107.249Z" fill="black"/>
</g>
<g opacity="0.2">
<path opacity="0.2" d="M82.4622 110.57C82.1768 110.429 81.8713 110.855 82.0281 111.133C82.1222 111.259 82.2596 111.346 82.4139 111.377C82.5682 111.408 82.7285 111.381 82.8642 111.301C83.133 111.132 83.3544 110.897 83.5074 110.618L82.8441 110.702L82.4622 110.57Z" fill="black"/>
</g>
<g opacity="0.2">
<path opacity="0.2" d="M70.6715 131.739C70.3901 131.599 70.0806 132.029 70.2373 132.302C70.3322 132.429 70.4702 132.516 70.6252 132.547C70.7802 132.578 70.9412 132.551 71.0775 132.471C71.345 132.303 71.565 132.069 71.7167 131.792L71.0534 131.872L70.6715 131.739Z" fill="black"/>
</g>
<g opacity="0.2">
<path opacity="0.2" d="M108.138 111.498C107.853 111.358 107.547 111.784 107.704 112.057C107.798 112.183 107.935 112.27 108.09 112.302C108.244 112.333 108.404 112.306 108.54 112.226C108.809 112.058 109.03 111.824 109.183 111.547L108.52 111.627L108.138 111.498Z" fill="black"/>
</g>
<g opacity="0.2">
<path opacity="0.2" d="M123.539 126.558C123.257 126.421 122.948 126.847 123.105 127.12C123.199 127.247 123.337 127.334 123.492 127.365C123.647 127.396 123.808 127.369 123.945 127.289C124.212 127.121 124.432 126.887 124.584 126.61L123.921 126.69L123.539 126.558Z" fill="black"/>
</g>
<g opacity="0.2">
<path opacity="0.2" d="M105.023 111.076C104.741 110.936 104.432 111.366 104.588 111.639C104.683 111.766 104.821 111.853 104.976 111.884C105.131 111.915 105.292 111.888 105.429 111.808C105.697 111.639 105.917 111.404 106.068 111.125L105.404 111.209L105.023 111.076Z" fill="black"/>
</g>
<g opacity="0.2">
<path opacity="0.2" d="M102.128 107.249C101.843 107.109 101.537 107.535 101.694 107.812C101.788 107.938 101.926 108.025 102.08 108.057C102.234 108.088 102.395 108.061 102.53 107.981C102.8 107.813 103.022 107.577 103.173 107.298L102.51 107.382L102.128 107.249Z" fill="black"/>
</g>
<g opacity="0.2">
<path opacity="0.2" d="M99.813 105.882C99.5276 105.742 99.2221 106.168 99.3749 106.445C99.4702 106.571 99.6083 106.657 99.763 106.688C99.9177 106.72 100.078 106.693 100.215 106.614C100.484 106.444 100.705 106.209 100.858 105.93L100.195 106.015L99.813 105.882Z" fill="black"/>
</g>
<path opacity="0.2" d="M85.4976 127.293C85.3689 127.176 85.2322 127.526 85.3006 127.747C85.3689 127.968 85.5498 128.004 85.6744 127.888C85.8066 127.724 85.9038 127.535 85.9599 127.333L85.6664 127.397L85.4976 127.293Z" fill="black"/>
<g opacity="0.2">
<path opacity="0.2" d="M72.3887 121.701C72.2882 121.279 71.5847 121.328 71.4198 121.734C71.3692 121.943 71.3974 122.163 71.499 122.353C71.6005 122.543 71.7684 122.689 71.9706 122.763C72.3832 122.896 72.8228 122.924 73.2489 122.843L72.5816 122.208L72.3887 121.701Z" fill="black"/>
</g>
<g opacity="0.2">
<path opacity="0.2" d="M79.3873 118.296C79.3149 117.987 78.7883 118.023 78.6758 118.32C78.6394 118.473 78.6603 118.634 78.7343 118.772C78.8084 118.911 78.9305 119.017 79.0778 119.072C79.3799 119.171 79.7021 119.192 80.0144 119.132L79.524 118.674L79.3873 118.296Z" fill="black"/>
</g>
<g opacity="0.2">
<path opacity="0.2" d="M79.3872 124.741C79.3148 124.431 78.7882 124.467 78.6757 124.765C78.6402 124.917 78.6615 125.078 78.7354 125.216C78.8094 125.354 78.931 125.461 79.0777 125.516C79.3798 125.615 79.702 125.636 80.0143 125.577L79.5239 125.118L79.3872 124.741Z" fill="black"/>
</g>
<path opacity="0.2" d="M74.1892 118.393C74.1892 118.224 73.8435 118.341 73.7149 118.534C73.5862 118.727 73.6787 118.891 73.8475 118.912C74.0583 118.908 74.2662 118.861 74.4586 118.775L74.2174 118.59L74.1892 118.393Z" fill="black"/>
<path d="M164.607 139.397H112.725L102.309 143.932H175.019L164.607 139.397Z" fill="#FF8458"/>
<path opacity="0.7" d="M164.607 139.397H112.725L102.309 143.932H175.019L164.607 139.397Z" fill="white"/>
<path d="M146.272 122.711L145.814 129.368H133.738V122.711H146.272Z" fill="#FFB573"/>
<path d="M146.533 107.406C146.827 107.46 147.093 107.611 147.291 107.835C147.488 108.059 147.605 108.342 147.623 108.64C147.711 110.449 147.731 114.622 146.622 121.038C146.373 122.489 146.449 126.324 146.449 126.324L133.151 126.388C133.151 126.388 132.648 117.343 130.506 108.873C130.462 108.702 130.454 108.523 130.481 108.349C130.508 108.174 130.571 108.007 130.664 107.856C130.757 107.706 130.88 107.577 131.025 107.475C131.17 107.373 131.334 107.302 131.507 107.265C133.866 106.747 139.177 105.999 146.533 107.406Z" fill="#FF8458"/>
<path d="M146.565 107.43C148.242 107.366 154.529 115.47 154.891 117.315C155.172 118.73 151.655 119.04 148.009 119.032C144.198 119.032 142.252 118.967 142.035 118.184C141.613 116.652 141.195 113.524 142.035 113.251C142.501 113.102 144.025 113.48 144.141 114.541C144.216 115.244 144.198 115.954 144.089 116.652L150.119 115.583C150.119 115.583 147.864 112.696 146.787 111.719C145.564 110.614 145.351 107.478 146.565 107.43Z" fill="#FFB573"/>
<path d="M140.885 110.377C136.68 110.642 134.678 107.885 134.272 106.815C137.541 106.473 140.84 106.538 144.093 107.008C144.355 108.066 143.623 110.204 140.885 110.377Z" fill="#FFB573"/>
<path opacity="0.1" d="M131.233 109.393L132.017 109.618C132.017 109.618 133.352 112.617 132.061 117.963C131.811 115.396 131.408 112.845 130.855 110.325L131.233 109.393Z" fill="black"/>
<path d="M137.295 100.139C137.649 102.012 137.999 105.433 136.68 106.675C137.586 107.738 138.639 108.665 139.808 109.429C140.119 109.632 140.483 109.739 140.854 109.737C141.225 109.735 141.588 109.624 141.896 109.419C142.205 109.213 142.447 108.921 142.592 108.579C142.737 108.237 142.778 107.86 142.71 107.495C142.672 107.25 142.599 107.012 142.493 106.788C140.415 106.281 140.483 104.653 140.845 103.194L137.295 100.139Z" fill="#FFB573"/>
<path opacity="0.2" d="M140.648 104.753C140.633 104.227 140.698 103.701 140.841 103.194L137.991 100.737C137.915 101.159 137.903 101.59 137.955 102.016C138.071 103.185 139.494 104.412 140.648 104.753Z" fill="black"/>
<path d="M136.049 97.5008C136.576 100.395 136.741 101.633 138.393 102.952C140.877 104.934 144.323 103.651 144.664 100.656C144.978 97.9631 144.061 93.6938 141.046 92.8617C140.387 92.6804 139.692 92.6702 139.028 92.8322C138.364 92.9942 137.752 93.3229 137.25 93.7873C136.748 94.2517 136.373 94.8365 136.16 95.4863C135.947 96.1361 135.903 96.8294 136.033 97.5008H136.049Z" fill="#FFB573"/>
<path d="M142.389 98.3135C142.778 98.8421 143.239 99.3131 143.76 99.7124C143.654 99.8431 143.52 99.949 143.369 100.023C143.217 100.096 143.052 100.136 142.883 100.139L142.389 98.3135Z" fill="#ED893E"/>
<path d="M142.188 101.517C142.321 101.529 142.456 101.529 142.59 101.517C142.608 101.514 142.624 101.505 142.636 101.491C142.648 101.477 142.654 101.459 142.654 101.441C142.651 101.423 142.642 101.407 142.628 101.396C142.613 101.385 142.596 101.379 142.578 101.381C142.248 101.418 141.913 101.387 141.596 101.29C141.278 101.192 140.984 101.03 140.733 100.814C140.72 100.801 140.702 100.794 140.684 100.794C140.666 100.794 140.649 100.801 140.636 100.814C140.629 100.82 140.624 100.828 140.62 100.837C140.616 100.845 140.614 100.855 140.614 100.864C140.614 100.874 140.616 100.883 140.62 100.892C140.624 100.9 140.629 100.908 140.636 100.914C141.071 101.284 141.617 101.497 142.188 101.517Z" fill="#FF8458"/>
<path d="M139.655 97.9832C139.674 97.9802 139.693 97.9733 139.71 97.963C139.726 97.9526 139.74 97.939 139.752 97.9229C140.024 97.5648 140.419 97.32 140.861 97.2355C140.898 97.2355 140.934 97.2207 140.961 97.1943C140.987 97.1679 141.002 97.1321 141.002 97.0948C141.002 97.0575 140.987 97.0217 140.961 96.9953C140.934 96.9689 140.898 96.9541 140.861 96.9541C140.595 96.9927 140.339 97.0837 140.107 97.2217C139.876 97.3596 139.675 97.5419 139.514 97.7581C139.501 97.7817 139.494 97.8082 139.495 97.8352C139.495 97.8621 139.502 97.8886 139.515 97.9121C139.528 97.9355 139.548 97.9551 139.571 97.969C139.594 97.9829 139.62 97.9905 139.647 97.9913L139.655 97.9832Z" fill="#263238"/>
<path d="M141.545 98.3731C141.552 98.3589 141.556 98.343 141.556 98.3268C141.556 98.3107 141.552 98.2948 141.545 98.2806C141.538 98.2728 141.529 98.2666 141.519 98.2623C141.509 98.2581 141.499 98.2559 141.488 98.2559C141.478 98.2559 141.467 98.2581 141.458 98.2623C141.448 98.2666 141.439 98.2728 141.432 98.2806C140.942 98.771 140.451 98.8233 139.768 98.7148C139.758 98.7124 139.747 98.712 139.736 98.7138C139.726 98.7155 139.716 98.7193 139.707 98.7249C139.698 98.7305 139.69 98.7378 139.684 98.7464C139.678 98.755 139.674 98.7648 139.671 98.7751C139.668 98.7854 139.668 98.7962 139.669 98.8068C139.671 98.8175 139.674 98.8277 139.68 98.8368C139.686 98.8459 139.693 98.8537 139.702 98.8597C139.711 98.8657 139.721 98.8697 139.732 98.8715C140.049 98.9646 140.385 98.9692 140.705 98.8849C141.024 98.8006 141.315 98.6306 141.545 98.3932V98.3731Z" fill="#263238"/>
<path d="M144.721 97.6179C144.729 97.6039 144.734 97.5879 144.734 97.5716C144.734 97.5553 144.729 97.5393 144.721 97.5254C144.705 97.5116 144.685 97.5039 144.664 97.5039C144.644 97.5039 144.624 97.5116 144.608 97.5254C144.114 98.0158 143.627 98.0681 142.94 97.9596C142.919 97.9566 142.898 97.9611 142.881 97.9721C142.863 97.9832 142.85 98.0001 142.843 98.0199C142.841 98.0301 142.841 98.0408 142.842 98.0512C142.844 98.0617 142.848 98.0716 142.853 98.0806C142.859 98.0896 142.866 98.0973 142.875 98.1035C142.884 98.1096 142.893 98.114 142.904 98.1163C143.221 98.2093 143.558 98.2139 143.879 98.1296C144.199 98.0453 144.49 97.8753 144.721 97.638V97.6179Z" fill="#263238"/>
<path d="M144.129 96.9629C144.156 96.9568 144.18 96.9431 144.199 96.9234C144.218 96.9037 144.231 96.8789 144.236 96.852C144.241 96.8251 144.239 96.7974 144.228 96.7721C144.218 96.7468 144.2 96.7251 144.178 96.7096C143.995 96.5823 143.784 96.5005 143.563 96.4712C143.342 96.4418 143.117 96.4657 142.907 96.5408C142.873 96.5566 142.846 96.585 142.832 96.6201C142.817 96.6552 142.817 96.6944 142.831 96.7297C142.846 96.7638 142.874 96.7905 142.908 96.8041C142.943 96.8176 142.982 96.8169 143.016 96.8021C143.183 96.7435 143.362 96.7258 143.537 96.7503C143.713 96.7747 143.88 96.8407 144.025 96.9428C144.04 96.9539 144.057 96.9615 144.075 96.965C144.093 96.9685 144.112 96.9677 144.129 96.9629Z" fill="#263238"/>
<path d="M146.53 125.469C146.67 128.263 149.167 130.269 151.856 131.097C147.868 133.034 143.145 136.427 138.992 137.931C134.944 136.488 130.297 132.761 126.791 130.293C129.605 129.814 131.414 129.404 133.151 125.493L146.53 125.469Z" fill="#263238"/>
<path d="M115.483 136.748C115.201 134.027 114.277 131.985 123.776 130.027C126.104 129.545 131.374 129.625 133.73 129.625C138.336 129.585 143.064 129.524 147.185 129.468C150.822 129.381 154.462 129.493 158.087 129.806C162.963 130.369 166.07 132.62 165.033 136.752C163.53 142.71 146.304 140.821 139.333 140.821C132.363 140.821 116.178 143.667 115.483 136.748Z" fill="#263238"/>
<path opacity="0.4" d="M117.36 133.388C117.36 133.388 119.423 131.072 124.154 132.913C128.886 134.754 129.999 137.199 136.303 139.197L134.453 140.712L123.238 138.565L117.714 135.671L117.36 133.388Z" fill="black"/>
<path opacity="0.4" d="M162.227 133.034C162.227 133.034 159.389 131.446 155.707 133.034C152.025 134.622 149.584 137.432 145.042 138.919L145.363 140.23L162.063 135.365L162.227 133.034Z" fill="black"/>
<path d="M141.533 142.649C141.533 142.649 137.915 144.852 136.741 147.192C136.484 147.698 135.133 146.963 135.595 145.708C136.363 143.626 136.399 144.153 137.046 142.372C137.581 140.864 137.895 139.763 138.305 138.545C138.315 138.514 138.33 138.484 138.349 138.456C138.382 138.403 138.426 138.357 138.477 138.32C138.528 138.284 138.586 138.258 138.647 138.244C138.709 138.23 138.772 138.229 138.834 138.24C138.896 138.251 138.955 138.274 139.008 138.308L141.529 139.884L145.026 139.244L145.472 142.48L141.533 142.649Z" fill="#FFB573"/>
<path opacity="0.2" d="M141.533 142.649C141.533 142.649 137.915 144.852 136.741 147.192C136.484 147.698 135.133 146.963 135.595 145.708C136.363 143.626 136.399 144.153 137.046 142.372C137.581 140.864 137.895 139.763 138.305 138.545C138.315 138.514 138.33 138.484 138.349 138.456C138.382 138.403 138.426 138.357 138.477 138.32C138.528 138.284 138.586 138.258 138.647 138.244C138.709 138.23 138.772 138.229 138.834 138.24C138.896 138.251 138.955 138.274 139.008 138.308L141.529 139.884L145.026 139.244L145.472 142.48L141.533 142.649Z" fill="black"/>
<path d="M163.554 133.789C162.449 132.732 160.74 132.475 157.44 133.789C154.139 135.104 147.908 138.388 142.847 139.506L143.538 142.794C143.538 142.794 159.377 141.721 162.714 139.892C166.05 138.063 164.76 134.943 163.554 133.789Z" fill="#263238"/>
<path d="M138.691 142.65C138.691 142.65 142.309 144.853 143.478 147.193C143.736 147.699 145.086 146.963 144.628 145.709C143.856 143.627 143.804 144.153 143.173 142.373C142.638 140.865 142.325 139.764 141.915 138.546C141.906 138.514 141.891 138.484 141.87 138.457C141.838 138.404 141.794 138.358 141.744 138.321C141.693 138.285 141.635 138.259 141.574 138.245C141.513 138.231 141.45 138.23 141.388 138.241C141.327 138.251 141.268 138.274 141.215 138.308L138.691 139.896L135.189 139.257L134.747 142.493L138.691 142.65Z" fill="#FFB573"/>
<path d="M116.838 133.789C117.943 132.732 119.652 132.475 122.952 133.789C126.253 135.104 132.484 138.388 137.545 139.506L136.853 142.794C136.853 142.794 121.014 141.721 117.678 139.892C114.341 138.063 115.632 134.943 116.838 133.789Z" fill="#263238"/>
<path d="M130.795 107.736C128.383 109.167 123.479 115.551 125.023 117.867C125.787 119.012 127.354 119.571 130.832 119.563C134.45 119.563 141.087 118.868 141.284 118.124C141.686 116.661 143 113.3 141.159 113.3C140.681 113.3 139.881 112.866 139.551 113.3C138.856 114.176 139.121 116.89 139.121 116.89L128.966 116.114C128.966 116.114 130.996 112.524 132.026 111.591C133.187 110.55 133.304 106.261 130.795 107.736Z" fill="#FFB573"/>
<path d="M140.202 93.533C139.445 93.6967 138.775 94.132 138.318 94.7565C137.861 95.381 137.649 96.1514 137.721 96.9218V96.95C137.73 97.227 137.826 97.4942 137.995 97.7138C138.082 97.8187 138.205 97.8877 138.34 97.9078C138.475 97.9278 138.613 97.8974 138.726 97.8223C138.863 97.4203 138.948 97.1148 139.08 96.7047C139.052 96.824 139.056 96.9483 139.09 97.0659C139.124 97.1835 139.187 97.2904 139.274 97.3764C139.362 97.4625 139.469 97.5247 139.587 97.5571C139.705 97.5896 139.83 97.5913 139.949 97.562C140.067 97.5326 140.177 97.4733 140.266 97.3897C140.355 97.306 140.422 97.2008 140.459 97.0842C140.496 96.9675 140.503 96.8433 140.478 96.7233C140.453 96.6034 140.398 96.4918 140.318 96.3992C140.527 96.4917 140.487 96.6565 140.564 96.8615C140.597 96.9507 140.649 97.0316 140.716 97.099C140.784 97.1663 140.865 97.2185 140.954 97.252C141.043 97.2855 141.138 97.2996 141.233 97.2932C141.328 97.2869 141.42 97.2603 141.504 97.2153C141.607 97.1555 141.692 97.0698 141.751 96.9668C141.81 96.8638 141.842 96.7471 141.842 96.6284C141.842 96.5096 141.81 96.3929 141.751 96.2899C141.692 96.1869 141.607 96.1013 141.504 96.0415C141.504 96.0415 141.906 96.0415 142.28 96.7329C142.433 97.0022 142.915 96.9138 143.084 96.6645C143.127 96.6005 143.157 96.5284 143.171 96.4526C143.185 96.3768 143.184 96.2988 143.167 96.2236C143.15 96.1483 143.118 96.0773 143.073 96.0149C143.027 95.9524 142.97 95.8999 142.903 95.8605C143.151 96.0991 143.436 96.2959 143.747 96.4435C143.834 96.4887 143.931 96.5084 144.028 96.5001C144.125 96.4919 144.218 96.456 144.295 96.3969C144.372 96.3377 144.431 96.2577 144.464 96.1662C144.498 96.0748 144.504 95.9757 144.483 95.8807C144.36 95.2967 144.058 94.7656 143.619 94.3611C142.952 93.7706 142.097 93.4371 141.207 93.4204C140.868 93.4151 140.531 93.4529 140.202 93.533Z" fill="#263238"/>
<path d="M139.897 92.6896C139.769 92.7907 139.618 92.8601 139.459 92.8922C139.299 92.9244 139.133 92.9183 138.976 92.8746C138.689 92.5637 138.328 92.3301 137.927 92.1952C138.622 92.1091 139.325 92.2854 139.897 92.6896Z" fill="#FFB573"/>
<path d="M135.925 92.315C135.446 92.7734 135.071 93.3284 134.823 93.9431C134.254 95.2749 133.831 96.6646 133.561 98.0877C133.347 98.9819 133.314 99.9101 133.465 100.817C133.543 101.27 133.727 101.697 134 102.066C134.274 102.434 134.63 102.734 135.04 102.94C135.881 103.306 137.01 103.036 137.452 102.228C138.256 102.228 138.602 101.151 138.534 100.335C138.465 99.5188 138.035 98.7791 137.854 97.9792C137.676 97.0663 137.814 96.1201 138.244 95.2955C138.674 94.4709 139.372 93.8169 140.222 93.4406C139.515 92.7411 136.918 91.4185 135.925 92.315Z" fill="#263238"/>
<path d="M145.15 100.97C144.966 101.204 144.56 101.083 144.407 100.83C144.282 100.558 144.247 100.254 144.306 99.9614C144.427 98.9967 144.435 98.0214 144.33 97.0549C144.223 96.0831 143.814 95.1693 143.161 94.4419C142.489 93.7424 141.436 93.1957 140.491 93.4007C139.647 92.7816 139.209 92.5967 137.709 92.1344C138.2 91.3103 139.137 91.0571 141.094 91.7324C142.45 92.1644 143.648 92.9867 144.539 94.0962C145.745 95.6519 146.147 97.7142 146.067 99.6759C146.075 100.222 145.949 100.761 145.701 101.248C145.549 101.49 145.332 101.685 145.074 101.811C145.002 101.847 144.921 101.86 144.842 101.85C144.762 101.839 144.688 101.805 144.628 101.752C144.567 101.699 144.525 101.629 144.505 101.551C144.485 101.474 144.488 101.392 144.515 101.316C144.515 101.268 144.547 101.22 144.56 101.171C144.668 101.268 145.159 101.123 145.15 100.97Z" fill="#263238"/>
<path d="M139.092 100.725C139.092 100.725 141.388 99.2696 142.891 99.1732C144.395 99.0767 144.318 99.2938 144.318 99.2938C144.502 99.7233 144.598 100.185 144.6 100.653C144.601 101.12 144.509 101.583 144.328 102.014C144.148 102.445 143.882 102.835 143.547 103.161C143.213 103.487 142.816 103.743 142.381 103.913C142.381 103.913 139.969 103.844 139.088 103.004C139.092 102.992 139.494 102.212 139.092 100.725Z" fill="#FF8458"/>
<path opacity="0.5" d="M139.092 100.725C139.092 100.725 141.388 99.2696 142.891 99.1732C144.395 99.0767 144.318 99.2938 144.318 99.2938C144.502 99.7233 144.598 100.185 144.6 100.653C144.601 101.12 144.509 101.583 144.328 102.014C144.148 102.445 143.882 102.835 143.547 103.161C143.213 103.487 142.816 103.743 142.381 103.913C142.381 103.913 139.969 103.844 139.088 103.004C139.092 102.992 139.494 102.212 139.092 100.725Z" fill="white"/>
<path opacity="0.2" d="M139.519 101.071C139.519 101.071 141.971 99.7084 143.004 99.6964C143.503 99.6522 144.004 99.7439 144.455 99.9617C144.507 100.226 144.531 100.496 144.527 100.766C144.527 100.766 143.683 100.078 139.563 101.57L139.519 101.071Z" fill="white"/>
<path opacity="0.2" d="M139.563 101.835C139.563 101.835 143.129 100.572 144.427 101.292C144.308 101.804 144.091 102.289 143.788 102.719C143.788 102.719 142.562 102.048 139.519 102.402L139.563 101.835Z" fill="white"/>
<path opacity="0.2" d="M139.438 102.583C139.438 102.583 142.815 102.366 143.297 103.101L142.73 103.503C142.73 103.503 141.376 103.664 139.366 102.792L139.438 102.583Z" fill="white"/>
<path d="M139.257 103.117C137.408 102.783 137.195 101.268 137.247 100.396C137.246 100.335 137.261 100.275 137.291 100.222C137.322 100.17 137.367 100.127 137.42 100.098C137.883 99.8568 139.177 100.653 139.322 100.745L139.241 100.874C138.864 100.637 137.814 100.07 137.489 100.235C137.46 100.253 137.437 100.278 137.422 100.307C137.406 100.337 137.399 100.37 137.4 100.404C137.364 101.208 137.561 102.655 139.298 102.964L139.257 103.117Z" fill="#263238"/>
<path d="M111.551 83.2143C111.551 83.2143 110.703 83.355 119.169 90.0804L121.545 89.0674C121.749 88.9805 121.975 88.9539 122.194 88.991C122.414 89.028 122.618 89.1271 122.783 89.2764C122.967 89.4445 123.092 89.6673 123.14 89.912C123.188 90.1567 123.155 90.4102 123.048 90.6352L122.292 92.2111C122.185 92.4372 122.007 92.6223 121.785 92.7383C121.563 92.8544 121.309 92.8951 121.062 92.8543L118.28 91.7005C118.28 91.7005 110.204 87.375 109.078 84.9188C109.078 84.9107 110.863 82.7118 111.551 83.2143Z" fill="#FFC3BD"/>
<path d="M108.19 68.123C109.549 68.525 110.264 69.8355 111.004 75.6967C111.744 81.5578 111.559 82.9527 113.332 83.9899C113.332 83.9899 111.322 86.6431 110.116 87.4994C110.116 87.4994 109.312 86.4341 108.214 83.5638C107.117 80.6935 106.204 78.7036 105.678 76.1067C105.263 74.0967 102.594 66.4426 108.19 68.123Z" fill="#FF8458"/>
<path opacity="0.1" d="M108.19 68.123C109.549 68.525 110.264 69.8355 111.004 75.6967C111.744 81.5578 111.559 82.9527 113.332 83.9899C113.332 83.9899 111.322 86.6431 110.116 87.4994C110.116 87.4994 109.312 86.4341 108.214 83.5638C107.117 80.6935 106.204 78.7036 105.678 76.1067C105.264 74.0967 102.51 66.4426 108.19 68.123Z" fill="black"/>
<path d="M108.741 77.7067C108.435 79.6645 107.76 83.0976 107.535 84.8181C107.471 85.3488 107.406 87.6562 107.937 91.3265C108.291 94.3428 108.492 97.3751 108.54 100.412L90.5825 99.2057C91.2137 90.9888 95.2136 85.4734 95.2095 84.3317C95.2095 82.776 94.5945 82.1046 93.083 77.0957L108.741 77.7067Z" fill="#FFC3BD"/>
<path d="M88.8099 83.2143C88.8099 83.2143 89.6581 83.355 81.192 90.0804L78.8162 89.0674C78.6114 88.9805 78.386 88.9539 78.1666 88.991C77.9472 89.028 77.7429 89.1271 77.578 89.2764C77.3939 89.4445 77.2687 89.6673 77.2209 89.912C77.1731 90.1567 77.2053 90.4102 77.3127 90.6352L78.0685 92.2111C78.1759 92.4372 78.3541 92.6223 78.576 92.7383C78.7979 92.8544 79.0515 92.8951 79.2986 92.8543L82.0804 91.7005C82.0804 91.7005 90.1566 87.375 91.2822 84.9188C91.2822 84.9107 89.4973 82.7118 88.8099 83.2143Z" fill="#FFC3BD"/>
<path d="M92.1705 68.123C90.8117 68.525 90.0962 69.8355 89.3565 75.6967C88.6168 81.5578 88.8018 82.9527 87.0289 83.9899C87.0289 83.9899 89.0389 86.6431 90.2449 87.4994C90.2449 87.4994 91.0489 86.4341 92.1464 83.5638C93.2438 80.6935 94.1564 78.7036 94.683 76.1067C95.0971 74.0967 97.7663 66.4426 92.1705 68.123Z" fill="#FF8458"/>
<path opacity="0.1" d="M92.1705 68.123C90.8117 68.525 90.0962 69.8355 89.3565 75.6967C88.6168 81.5578 88.8018 82.9527 87.0289 83.9899C87.0289 83.9899 89.0389 86.6431 90.2449 87.4994C90.2449 87.4994 91.0489 86.4341 92.1464 83.5638C93.2438 80.6935 94.1564 78.7036 94.683 76.1067C95.0971 74.0967 97.8347 66.4426 92.1705 68.123Z" fill="black"/>
<path d="M93.9674 79.877C93.9674 79.877 93.1634 75.3867 92.3594 71.7526C92.0177 70.213 92.8258 68.2512 94.3694 67.9095C94.454 67.8886 94.54 67.8738 94.6267 67.8653C95.4307 67.7608 96.3191 67.6643 97.2236 67.616C99.2493 67.4633 101.283 67.4552 103.31 67.5919C104.302 67.6623 105.289 67.7831 106.269 67.9537C107.338 68.1306 109.083 71.9215 109.083 73.6863C109.111 77.3042 108.886 77.051 108.447 79.877H93.9674Z" fill="#FF8458"/>
<path d="M97.7742 60.7705C98.1762 62.7242 98.5782 66.3101 97.1993 67.6045C98.3812 69.0396 99.8445 69.7833 101.513 71.327C103.04 68.6256 103.286 67.5804 103.286 67.5804C101.103 67.0698 101.151 65.4498 101.525 63.9302L97.7742 60.7705Z" fill="#FFC3BD"/>
<path opacity="0.2" d="M98.1802 61.1035C98.216 62.2671 98.4982 63.4098 99.0083 64.4562C99.3621 65.1758 100.343 65.4934 101.332 65.5697C101.308 65.0167 101.371 64.4635 101.517 63.9296L98.1802 61.1035Z" fill="black"/>
<path d="M94.6468 58.3302C95.6076 61.4658 95.9251 62.8125 97.9311 64.0627C100.926 65.944 104.568 64.0948 104.576 60.7422C104.576 57.7272 103.016 53.1042 99.6195 52.5816C98.8675 52.4601 98.097 52.533 97.3812 52.7933C96.6653 53.0536 96.0279 53.4926 95.5296 54.0687C95.0313 54.6448 94.6885 55.3388 94.534 56.0846C94.3795 56.8305 94.4183 57.6035 94.6468 58.3302Z" fill="#FFC3BD"/>
<path d="M96.7051 51.9383C98.8035 50.0087 101.127 50.7846 102.333 51.4197C102.941 51.7415 103.474 52.1872 103.898 52.728C104.323 53.2688 104.629 53.8927 104.797 54.5593C104.926 55.0819 104.797 56.296 103.776 56.6337C103.492 56.0282 103.095 55.4824 102.606 55.0257C101.847 54.4227 100.416 53.687 99.8487 53.8518C99.314 55.0578 98.4819 57.3492 96.7774 57.8718C95.4991 58.2738 97.2799 64.8224 94.4418 62.2335C90.9725 58.105 92.4881 55.89 93.3122 54.093C94.1363 52.2961 96.7051 51.9383 96.7051 51.9383Z" fill="#263238"/>
<path d="M102.534 61.044C102.546 61.034 102.555 61.0208 102.56 61.0058C102.565 60.9909 102.566 60.9749 102.562 60.9596C102.556 60.9403 102.542 60.9242 102.524 60.9145C102.506 60.9048 102.485 60.9022 102.466 60.9074C102.147 61.0006 101.812 61.018 101.486 60.9579C101.16 60.8979 100.852 60.7621 100.588 60.5616C100.573 60.5483 100.553 60.5417 100.532 60.5432C100.512 60.5447 100.493 60.5542 100.48 60.5697C100.466 60.5851 100.46 60.6053 100.461 60.6256C100.463 60.646 100.472 60.6649 100.488 60.6782C100.768 60.8974 101.097 61.0458 101.447 61.1109C101.797 61.176 102.157 61.1558 102.498 61.0521L102.534 61.044Z" fill="#263238"/>
<path d="M100.367 58.0445C100.379 58.0279 100.383 58.0074 100.38 57.9874C100.377 57.9675 100.365 57.9497 100.349 57.9379C100.332 57.9262 100.312 57.9215 100.292 57.9249C100.272 57.9283 100.254 57.9395 100.242 57.956C100.036 58.1633 99.7786 58.3117 99.4959 58.3859C99.2132 58.4601 98.9158 58.4574 98.6344 58.3781C98.6247 58.3757 98.6145 58.3753 98.6046 58.3768C98.5946 58.3783 98.5851 58.3818 98.5765 58.387C98.5679 58.3923 98.5604 58.3992 98.5545 58.4073C98.5486 58.4154 98.5443 58.4246 98.542 58.4344C98.537 58.4546 98.5401 58.476 98.5506 58.494C98.5611 58.512 98.5782 58.5252 98.5983 58.5309C98.9059 58.6194 99.2317 58.6227 99.5411 58.5406C99.8505 58.4585 100.132 58.294 100.355 58.0646L100.367 58.0445Z" fill="#263238"/>
<path d="M102.176 57.8238C102.165 57.8133 102.156 57.7999 102.152 57.785C102.148 57.7701 102.148 57.7543 102.152 57.7394C102.155 57.7296 102.159 57.7204 102.166 57.7126C102.172 57.7047 102.18 57.6983 102.189 57.6937C102.199 57.6892 102.208 57.6866 102.219 57.6861C102.229 57.6857 102.239 57.6874 102.248 57.6912C102.526 57.7861 102.823 57.806 103.11 57.7488C103.398 57.6916 103.665 57.5594 103.885 57.3656C103.892 57.3592 103.902 57.3545 103.911 57.3517C103.921 57.3489 103.931 57.348 103.941 57.3491C103.951 57.3502 103.961 57.3533 103.97 57.3582C103.979 57.3631 103.987 57.3697 103.993 57.3776C103.999 57.3855 104.004 57.3946 104.007 57.4044C104.01 57.4141 104.011 57.4243 104.01 57.4344C104.008 57.4445 104.005 57.4542 104 57.4631C103.996 57.472 103.989 57.4798 103.981 57.4862C103.744 57.7004 103.453 57.8457 103.139 57.9067C102.825 57.9676 102.5 57.9417 102.2 57.8319L102.176 57.8238Z" fill="#263238"/>
<path d="M98.6266 57.3216C98.6485 57.3041 98.6663 57.2822 98.6789 57.2572C98.7516 57.0749 98.8669 56.9126 99.0152 56.7839C99.1634 56.6552 99.3403 56.5639 99.5311 56.5176C99.5707 56.5096 99.6058 56.4867 99.6289 56.4536C99.6521 56.4204 99.6615 56.3796 99.6553 56.3397C99.6491 56.2997 99.6277 56.2637 99.5955 56.2392C99.5634 56.2147 99.523 56.2035 99.4829 56.208C99.2409 56.2644 99.0158 56.3772 98.8258 56.5372C98.6357 56.6972 98.4862 56.8998 98.3894 57.1286C98.3816 57.1484 98.3779 57.1695 98.3783 57.1908C98.3788 57.212 98.3834 57.233 98.392 57.2524C98.4006 57.2718 98.413 57.2894 98.4284 57.304C98.4438 57.3186 98.462 57.3301 98.4819 57.3376C98.5056 57.3462 98.531 57.3492 98.5561 57.3464C98.5812 57.3437 98.6053 57.3351 98.6266 57.3216Z" fill="#263238"/>
<path d="M103.282 56.1992L103.302 56.1791C103.33 56.1492 103.346 56.1097 103.346 56.0685C103.346 56.0274 103.33 55.9879 103.302 55.958C103.125 55.79 102.91 55.6661 102.676 55.5963C102.442 55.5264 102.195 55.5126 101.955 55.556C101.935 55.5603 101.916 55.5685 101.9 55.5801C101.883 55.5918 101.869 55.6067 101.858 55.6239C101.847 55.6411 101.84 55.6604 101.836 55.6804C101.833 55.7005 101.834 55.7211 101.838 55.7409C101.843 55.761 101.852 55.7799 101.864 55.7967C101.876 55.8134 101.891 55.8276 101.909 55.8384C101.926 55.8492 101.946 55.8565 101.966 55.8598C101.986 55.863 102.007 55.8623 102.027 55.8575C102.221 55.8247 102.419 55.8382 102.607 55.8969C102.794 55.9556 102.965 56.0578 103.105 56.1952C103.131 56.2131 103.161 56.223 103.193 56.2237C103.224 56.2244 103.255 56.2159 103.282 56.1992Z" fill="#263238"/>
<path d="M102.321 59.8452C102.487 59.8514 102.653 59.8212 102.807 59.7566C102.96 59.692 103.097 59.5947 103.209 59.4713C102.69 59.045 102.232 58.55 101.847 58L102.321 59.8452Z" fill="#ED893E"/>
<path d="M107.523 86.9121C107.663 89.7261 110.16 91.712 112.849 92.5401C108.861 94.4737 104.138 97.8666 99.9852 99.3741C95.9371 97.9349 91.29 94.2084 87.7845 91.7361C90.5985 91.2577 92.4035 90.8477 94.1442 86.9362L107.523 86.9121Z" fill="#263238"/>
<path d="M76.4763 98.1922C76.1949 95.4747 75.2703 93.4285 84.7696 91.4708C87.0971 90.9924 92.3674 91.0688 94.7231 91.0688C99.33 91.0326 104.058 90.9683 108.178 90.912C111.816 90.8232 115.455 90.9372 119.08 91.2537C123.957 91.8165 127.064 94.0677 126.023 98.1962C124.519 104.178 107.298 102.273 100.327 102.273C93.3563 102.273 77.1838 105.111 76.4763 98.1922Z" fill="#263238"/>
<path opacity="0.4" d="M78.3535 94.832C78.3535 94.832 80.4158 92.5165 85.1473 94.3576C89.8789 96.1988 90.9924 98.647 97.2958 100.641L95.4466 102.156L84.2267 100.01L78.7073 97.1194L78.3535 94.832Z" fill="black"/>
<path opacity="0.4" d="M123.221 94.4696C123.221 94.4696 120.383 92.8857 116.7 94.4696C113.018 96.0535 110.578 98.8916 106.035 100.363L106.357 101.673L123.052 96.8092L123.221 94.4696Z" fill="black"/>
<path d="M102.51 104.094C102.51 104.094 98.8917 106.297 97.7179 108.636C97.4606 109.147 96.1099 108.407 96.5722 107.153C97.34 105.07 97.3762 105.597 98.0234 103.816C98.5581 102.309 98.8716 101.211 99.2817 99.9892C99.2923 99.9578 99.3072 99.9281 99.3259 99.9008C99.3591 99.8473 99.4026 99.801 99.4538 99.7646C99.505 99.7281 99.563 99.7022 99.6244 99.6884C99.6857 99.6746 99.7492 99.673 99.8112 99.684C99.8731 99.6949 99.9322 99.718 99.9852 99.752L102.502 101.328L106.003 100.689L106.449 103.905L102.51 104.094Z" fill="#FFC3BD"/>
<path opacity="0.2" d="M102.51 104.094C102.51 104.094 98.8917 106.297 97.7179 108.636C97.4606 109.147 96.1099 108.407 96.5722 107.153C97.34 105.07 97.3762 105.597 98.0234 103.816C98.5581 102.309 98.8716 101.211 99.2817 99.9892C99.2923 99.9578 99.3072 99.9281 99.3259 99.9008C99.3591 99.8473 99.4026 99.801 99.4538 99.7646C99.505 99.7281 99.563 99.7022 99.6244 99.6884C99.6857 99.6746 99.7492 99.673 99.8112 99.684C99.8731 99.6949 99.9322 99.718 99.9852 99.752L102.502 101.328L106.003 100.689L106.449 103.905L102.51 104.094Z" fill="black"/>
<path d="M124.548 95.2338C123.442 94.1766 121.734 93.9193 118.433 95.2338C115.133 96.5484 108.902 99.8367 103.841 100.954L104.52 104.239C104.52 104.239 120.359 103.165 123.695 101.336C127.032 99.5071 125.754 96.3876 124.548 95.2338Z" fill="#263238"/>
<path d="M99.6635 104.094C99.6635 104.094 103.281 106.297 104.455 108.636C104.713 109.147 106.063 108.407 105.605 107.153C104.833 105.07 104.781 105.597 104.15 103.816C103.615 102.309 103.302 101.211 102.892 99.9892C102.883 99.9572 102.868 99.9271 102.847 99.9008C102.814 99.8473 102.771 99.801 102.719 99.7646C102.668 99.7281 102.61 99.7022 102.549 99.6884C102.487 99.6746 102.424 99.673 102.362 99.684C102.3 99.6949 102.241 99.718 102.188 99.752L99.6715 101.328L96.1701 100.689L95.7239 103.905L99.6635 104.094Z" fill="#FFC3BD"/>
<path d="M77.8312 95.2338C78.9367 94.1766 80.6452 93.9193 83.9456 95.2338C87.246 96.5484 93.477 99.8367 98.5382 100.954L97.8468 104.239C97.8468 104.239 82.008 103.165 78.6714 101.336C75.3348 99.5071 76.6252 96.3876 77.8312 95.2338Z" fill="#263238"/>
<path d="M94.2288 59.5722C94.8388 59.3197 95.5006 59.2177 96.1584 59.2747C97.0827 59.3646 97.9837 59.6177 98.8196 60.0224C99.8958 59.5689 101.034 59.2802 102.196 59.1661C103.052 59.1595 103.887 59.4225 104.584 59.9179C104.584 59.9179 105.545 63.5359 101.34 64.9951C101.34 64.9951 96.9423 65.7027 94.6227 60.4525L94.9483 60.6455C95.7885 61.3168 95.5353 62.4022 97.5412 63.7208C98.4096 62.5148 98.4538 61.8394 98.4658 60.352C97.8343 59.9583 97.135 59.6856 96.4036 59.548C95.6842 59.4114 94.9449 59.4196 94.2288 59.5722Z" fill="#FF8458"/>
<path opacity="0.6" d="M94.2288 59.5722C94.8388 59.3197 95.5006 59.2177 96.1584 59.2747C97.0827 59.3646 97.9837 59.6177 98.8196 60.0224C99.8958 59.5689 101.034 59.2802 102.196 59.1661C103.052 59.1595 103.887 59.4225 104.584 59.9179C104.584 59.9179 105.545 63.5359 101.34 64.9951C101.34 64.9951 96.9423 65.7027 94.6227 60.4525L94.9483 60.6455C95.7885 61.3168 95.5353 62.4022 97.5412 63.7208C98.4096 62.5148 98.4538 61.8394 98.4658 60.352C97.8343 59.9583 97.135 59.6856 96.4036 59.548C95.6842 59.4114 94.9449 59.4196 94.2288 59.5722Z" fill="white"/>
<path d="M93.9394 60.0985C94.0288 60.401 94.178 60.6825 94.3783 60.9263C94.5785 61.1701 94.8257 61.3711 95.1052 61.5175C95.8489 61.8994 96.3916 61.2804 96.3112 60.4844C96.2509 59.7769 95.7926 58.7156 94.9765 58.6593C94.8354 58.6529 94.6944 58.6744 94.5617 58.7227C94.429 58.7711 94.3071 58.8452 94.2032 58.9409C94.0993 59.0366 94.0154 59.1519 93.9563 59.2802C93.8972 59.4085 93.8641 59.5473 93.859 59.6884C93.8572 59.8292 93.8846 59.9688 93.9394 60.0985Z" fill="#FFC3BD"/>
<path d="M85.9637 139.932H36.6061L26.1943 144.466H96.3755L85.9637 139.932Z" fill="#FF8458"/>
<path opacity="0.7" d="M85.9637 139.932H36.6061L26.1943 144.466H96.3755L85.9637 139.932Z" fill="white"/>
<path d="M62.7804 100.941C62.7851 100.763 62.8363 100.588 62.9291 100.435C63.2226 99.8681 63.701 99.4138 64.0346 98.8711C64.3683 98.3284 64.2638 97.7536 64.1914 97.1184C64.0507 95.8642 64.5733 94.6461 65.0436 93.5004C65.514 92.3547 65.9562 91.0603 65.6507 89.8382C65.5517 89.4327 65.3655 89.0536 65.1052 88.7273C64.8448 88.401 64.5166 88.1354 64.1432 87.9488C63.7656 87.7704 63.3476 87.6954 62.9316 87.7315C62.5156 87.7675 62.1166 87.9132 61.7754 88.1538C61.4409 88.4047 61.1929 88.7537 61.0661 89.1522C60.9393 89.5507 60.9399 89.9788 61.0679 90.3769C61.2648 90.9156 61.5945 91.3698 61.6869 91.9366C61.8173 92.6629 61.7898 93.4088 61.6065 94.1235C61.3764 94.8279 61.2109 95.5518 61.1121 96.2863C61.0655 96.6539 61.0984 97.0272 61.2087 97.3809C61.319 97.7346 61.504 98.0605 61.7513 98.3365C61.7052 98.8146 61.6026 99.2855 61.4457 99.7395C61.3073 100.214 61.2758 100.714 61.3533 101.203C61.3956 101.447 61.5043 101.675 61.6674 101.861C61.8304 102.047 62.0416 102.185 62.2779 102.26C62.1655 102.368 62.0871 102.507 62.0521 102.659C62.0171 102.811 62.0271 102.97 62.0809 103.116C62.1374 103.268 62.235 103.401 62.3628 103.5C62.4906 103.6 62.6435 103.662 62.8045 103.679C62.7332 103.562 62.6918 103.429 62.6841 103.293C62.6764 103.156 62.7026 103.019 62.7603 102.895C62.8914 102.686 63.0096 102.468 63.114 102.244C63.1622 102.13 63.1697 102.002 63.1354 101.883C63.101 101.764 63.0268 101.66 62.9251 101.589C62.8597 101.377 62.8113 101.161 62.7804 100.941Z" fill="#263238"/>
<path d="M62.2054 91.3901C62.2054 91.3901 63.331 90.8635 62.728 89.9348C62.125 89.0062 61.0839 89.8303 61.0839 89.8303L61.1723 89.8906C61.6994 90.2363 62.0702 90.7745 62.2054 91.3901Z" fill="#FF8458"/>
<path d="M64.1915 121.998L64.7422 128.076H51.0099V121.998H64.1915Z" fill="#CE7A63"/>
<path d="M65.687 105.26C63.1946 104.363 58.0007 103.161 50.813 104.954C49.9487 105.171 49.3497 107.133 49.3577 108.021C49.4686 113.849 49.9682 119.663 50.8532 125.424H64.7423C64.7423 125.424 65.0719 115.832 66.905 108.753C67.1583 107.764 66.6277 105.597 65.687 105.26Z" fill="#FF8458"/>
<path d="M59.7613 98.8076C59.5121 100.673 59.2829 103.193 60.4487 104.524C60.595 104.684 60.698 104.879 60.7479 105.09C60.7979 105.301 60.7931 105.521 60.7342 105.73C60.4809 106.534 59.5281 107.768 56.3966 109.199C55.908 109.044 55.469 108.763 55.1239 108.384C54.7787 108.005 54.5397 107.541 54.4308 107.041C54.335 106.563 54.3776 106.069 54.5535 105.615C54.7294 105.162 55.0314 104.768 55.4237 104.48C56.4247 103.74 56.6297 102.47 56.2277 101.264L59.7613 98.8076Z" fill="#CE7A63"/>
<path opacity="0.1" d="M56.4006 102.582C56.4294 102.107 56.3708 101.632 56.2278 101.179L59.4679 98.9316L59.6086 99.812C59.6086 99.812 59.496 101.705 56.4006 102.582Z" fill="black"/>
<path d="M61.9082 93.9189C61.5544 97.2033 61.47 98.5982 59.7253 100.206C57.1043 102.618 53.1526 101.468 52.5175 98.148C51.9547 95.1571 52.634 90.2728 55.9224 89.1351C56.6454 88.8765 57.4226 88.8071 58.18 88.9335C58.9374 89.0599 59.6499 89.3779 60.2497 89.8573C60.8496 90.3367 61.3169 90.9615 61.6071 91.6724C61.8974 92.3833 62.001 93.1567 61.9082 93.9189Z" fill="#CE7A63"/>
<path d="M56.083 97.5526C56.0912 97.5359 56.0934 97.517 56.0893 97.4989C56.0851 97.4808 56.0748 97.4647 56.0601 97.4534C56.0455 97.442 56.0273 97.4361 56.0088 97.4366C55.9902 97.437 55.9724 97.4439 55.9584 97.4561C55.7064 97.6879 55.4031 97.8568 55.0733 97.9491C54.7436 98.0413 54.3966 98.0542 54.0609 97.9867C54.0506 97.9837 54.0398 97.9827 54.0292 97.9839C54.0185 97.9851 54.0082 97.9884 53.9988 97.9937C53.9894 97.9989 53.9812 98.006 53.9746 98.0144C53.968 98.0229 53.9632 98.0326 53.9604 98.043C53.9553 98.0638 53.9583 98.0857 53.9688 98.1043C53.9792 98.123 53.9964 98.137 54.0167 98.1435C54.3791 98.2209 54.7549 98.2094 55.112 98.11C55.469 98.0106 55.7966 97.8262 56.0669 97.5727L56.083 97.5526Z" fill="#263238"/>
<path d="M54.2702 94.9961C53.9395 95.5626 53.5338 96.0818 53.0642 96.5398C53.1847 96.6566 53.3289 96.7462 53.487 96.8024C53.6452 96.8585 53.8136 96.88 53.9808 96.8654L54.2702 94.9961Z" fill="#BA4D3C"/>
<path d="M57.5141 94.1881C57.4814 94.1928 57.448 94.1867 57.419 94.1707C57.39 94.1548 57.3669 94.1298 57.3533 94.0997C57.2209 93.883 57.0456 93.6957 56.8383 93.5491C56.6309 93.4026 56.3958 93.2999 56.1473 93.2474C56.1064 93.2387 56.0704 93.2147 56.0465 93.1804C56.0226 93.146 56.0127 93.1039 56.0187 93.0625C56.0265 93.0222 56.0498 92.9865 56.0837 92.9632C56.1175 92.9399 56.1591 92.9308 56.1996 92.9379C56.5019 92.9961 56.7882 93.1185 57.0392 93.2967C57.2902 93.4749 57.5001 93.7049 57.6548 93.971C57.6711 94.0089 57.6717 94.0517 57.6567 94.09C57.6416 94.1284 57.6121 94.1593 57.5744 94.176C57.5659 94.1824 57.556 94.1867 57.5456 94.1888C57.5352 94.1909 57.5244 94.1906 57.5141 94.1881Z" fill="#263238"/>
<path d="M52.7384 93.1351C52.7102 93.1377 52.6818 93.1332 52.6558 93.1219C52.6299 93.1107 52.6071 93.0931 52.5897 93.0708C52.5651 93.0363 52.5548 92.9937 52.5607 92.9518C52.5667 92.9099 52.5886 92.8719 52.6219 92.8457C52.8205 92.6878 53.0549 92.581 53.3044 92.5348C53.5539 92.4885 53.8109 92.5042 54.053 92.5803C54.0898 92.594 54.1202 92.621 54.138 92.656C54.1559 92.691 54.16 92.7314 54.1495 92.7693C54.1432 92.7887 54.133 92.8066 54.1195 92.822C54.106 92.8373 54.0896 92.8497 54.0711 92.8583C54.0526 92.867 54.0325 92.8718 54.0121 92.8724C53.9917 92.873 53.9714 92.8693 53.9525 92.8617C53.7616 92.8086 53.5609 92.8014 53.3667 92.8405C53.1725 92.8796 52.9903 92.964 52.8349 93.0869C52.8093 93.1136 52.7752 93.1306 52.7384 93.1351Z" fill="#263238"/>
<path d="M52.7183 94.0674C52.7481 94.0678 52.7768 94.0792 52.7987 94.0995C52.9013 94.1984 53.0257 94.2717 53.1619 94.3136C53.298 94.3555 53.4421 94.3648 53.5826 94.3407C53.6114 94.3327 53.6421 94.3365 53.6682 94.3512C53.6942 94.3659 53.7133 94.3903 53.7213 94.4191C53.7293 94.4479 53.7255 94.4787 53.7108 94.5047C53.6961 94.5307 53.6717 94.5498 53.6429 94.5578C53.4666 94.592 53.2847 94.5831 53.1125 94.532C52.9404 94.4809 52.7831 94.3891 52.654 94.2644C52.6434 94.2542 52.635 94.2421 52.6292 94.2286C52.6234 94.2151 52.6205 94.2006 52.6205 94.186C52.6205 94.1713 52.6234 94.1568 52.6292 94.1434C52.635 94.1299 52.6434 94.1177 52.654 94.1076C52.6709 94.088 52.6933 94.074 52.7183 94.0674Z" fill="#263238"/>
<path d="M55.6973 94.542C55.7271 94.5424 55.7558 94.5539 55.7777 94.5742C56.1419 94.7871 56.5634 94.8812 56.9837 94.8435C57.0124 94.8361 57.043 94.8405 57.0686 94.8555C57.0942 94.8706 57.1128 94.8952 57.1203 94.9239C57.1246 94.9379 57.126 94.9526 57.1244 94.9671C57.1229 94.9817 57.1184 94.9957 57.1113 95.0085C57.1041 95.0213 57.0945 95.0325 57.0829 95.0414C57.0714 95.0504 57.0581 95.0569 57.044 95.0606C56.548 95.1198 56.0468 95.0062 55.6249 94.739C55.6143 94.7288 55.6059 94.7167 55.6001 94.7032C55.5944 94.6897 55.5914 94.6752 55.5914 94.6606C55.5914 94.6459 55.5944 94.6314 55.6001 94.618C55.6059 94.6045 55.6143 94.5923 55.6249 94.5822C55.6439 94.5612 55.6694 94.5471 55.6973 94.542Z" fill="#263238"/>
<path opacity="0.2" d="M49.3495 108.021L50.5555 109.122C50.3895 110.55 50.0535 111.954 49.5545 113.303C49.446 111.409 49.3495 108.021 49.3495 108.021Z" fill="black"/>
<path d="M62.1492 84.0734L60.702 80.2383L57.5422 82.2483C57.5422 82.2483 58.6236 84.2904 60.3562 84.5759L62.1492 84.0734Z" fill="#CE7A63"/>
<path d="M58.9051 78.6989L57.5543 79.1934C57.2961 79.292 57.0864 79.4874 56.9701 79.7382C56.8537 79.9889 56.8398 80.2752 56.9312 80.5361L57.5262 82.2325L60.6859 80.2225L60.2357 79.2336C60.1224 78.9929 59.9222 78.804 59.6754 78.7048C59.4286 78.6057 59.1534 78.6036 58.9051 78.6989Z" fill="#CE7A63"/>
<path d="M62.5151 104.737L66.8446 108.306C67.9662 106.526 71.536 98.9519 71.4033 92.4877C71.3591 90.3732 70.2938 90.0757 70.2938 90.0757L61.6749 83.093C59.8378 82.7915 60.1393 84.4156 60.1393 84.4156C60.1393 84.4156 67.2024 92.7651 67.0738 93.3078C66.9974 93.6053 62.5151 104.737 62.5151 104.737Z" fill="#FF8458"/>
<path d="M53.6669 84.0177L55.1301 80.1826L58.2899 82.1926C58.2899 82.1926 57.2085 84.2348 55.4759 84.5202L53.6669 84.0177Z" fill="#CE7A63"/>
<path d="M56.9153 78.6589L58.2619 79.1614C58.5209 79.2591 58.7312 79.4545 58.8477 79.7055C58.9642 79.9565 58.9776 80.2433 58.885 80.5041L58.2901 82.2005L55.1304 80.1905L55.5806 79.2016C55.6933 78.9592 55.8935 78.7684 56.1412 78.6677C56.3888 78.567 56.6654 78.5639 56.9153 78.6589Z" fill="#CE7A63"/>
<path d="M53.5142 104.391L53.2449 104.793C52.8429 106.316 51.0861 108.547 49.5907 108.045L49.3535 107.965C48.24 106.172 44.2803 98.8914 44.4129 92.4594C44.4571 90.3449 45.5224 90.0474 45.5224 90.0474L54.1453 83.0647C55.9825 82.7632 55.681 84.3873 55.681 84.3873C55.681 84.3873 48.6138 92.7167 48.7465 93.2634C48.8229 93.5609 53.5142 104.391 53.5142 104.391Z" fill="#FF8458"/>
<path d="M64.5452 125.307C64.6859 128.121 67.1783 130.107 69.8717 130.935C65.8839 132.872 61.1604 136.265 57.0077 137.769C52.9596 136.325 48.3124 132.599 44.807 130.131C47.621 129.652 49.426 129.242 51.1666 125.331L64.5452 125.307Z" fill="#263238"/>
<path d="M33.4988 136.587C33.2174 133.866 32.2928 131.824 41.792 129.866C44.1196 129.383 49.3898 129.464 51.7456 129.464C56.3525 129.424 61.08 129.363 65.2005 129.307C68.838 129.219 72.4776 129.332 76.1027 129.645C80.975 130.207 84.0865 132.459 83.0453 136.591C81.5418 142.569 64.3201 140.664 57.3494 140.664C50.3788 140.664 34.2103 143.514 33.4988 136.587Z" fill="#263238"/>
<path opacity="0.4" d="M35.376 133.227C35.376 133.227 37.4423 130.911 42.1738 132.752C46.9053 134.593 48.0189 137.037 54.3182 139.035L52.473 140.551L41.2532 138.404L35.7338 135.51L35.376 133.227Z" fill="black"/>
<path opacity="0.4" d="M80.2432 132.873C80.2432 132.873 77.4011 131.285 73.7228 132.873C70.0445 134.461 67.6003 137.271 63.0577 138.758L63.3793 140.069L80.0744 135.204L80.2432 132.873Z" fill="black"/>
<path d="M59.5441 142.488C59.5441 142.488 55.9261 144.691 54.7563 147.031C54.499 147.537 53.1483 146.802 53.6066 145.547C54.3784 143.465 54.4307 143.992 55.0618 142.211C55.5965 140.703 55.91 139.602 56.3201 138.384C56.329 138.352 56.344 138.322 56.3643 138.295C56.3975 138.242 56.441 138.196 56.4922 138.159C56.5435 138.123 56.6014 138.097 56.6628 138.083C56.7241 138.069 56.7876 138.068 56.8496 138.078C56.9115 138.089 56.9706 138.113 57.0236 138.147L59.5401 139.722L63.0415 139.083L63.4877 142.299L59.5441 142.488Z" fill="#CE7A63"/>
<path opacity="0.2" d="M59.5441 142.488C59.5441 142.488 55.9261 144.691 54.7563 147.031C54.499 147.537 53.1483 146.802 53.6066 145.547C54.3784 143.465 54.4307 143.992 55.0618 142.211C55.5965 140.703 55.91 139.602 56.3201 138.384C56.329 138.352 56.344 138.322 56.3643 138.295C56.3975 138.242 56.441 138.196 56.4922 138.159C56.5435 138.123 56.6014 138.097 56.6628 138.083C56.7241 138.069 56.7876 138.068 56.8496 138.078C56.9115 138.089 56.9706 138.113 57.0236 138.147L59.5401 139.722L63.0415 139.083L63.4877 142.299L59.5441 142.488Z" fill="black"/>
<path d="M81.566 133.628C80.4646 132.571 78.752 132.314 75.4556 133.628C72.1592 134.943 65.9282 138.227 60.863 139.345L61.5545 142.633C61.5545 142.633 77.3933 141.56 80.7299 139.731C84.0665 137.902 82.7761 134.782 81.566 133.628Z" fill="#263238"/>
<path d="M56.6819 142.488C56.6819 142.488 60.2999 144.691 61.4738 147.031C61.731 147.537 63.0818 146.802 62.6195 145.547C61.8516 143.465 61.8155 143.992 61.1682 142.211C60.6336 140.703 60.32 139.602 59.91 138.384C59.8993 138.352 59.8844 138.323 59.8658 138.295C59.8326 138.242 59.7891 138.196 59.7378 138.159C59.6866 138.123 59.6286 138.097 59.5672 138.083C59.5059 138.069 59.4424 138.068 59.3805 138.078C59.3185 138.089 59.2594 138.113 59.2065 138.147L56.6819 139.722L53.1926 139.091L52.7463 142.307L56.6819 142.488Z" fill="#CE7A63"/>
<path d="M34.8532 133.628C35.9587 132.571 37.6672 132.314 40.9636 133.628C44.26 134.943 50.495 138.227 55.5562 139.345L54.8688 142.633C54.8688 142.633 39.03 141.56 35.6934 139.731C32.3568 137.902 33.6472 134.782 34.8532 133.628Z" fill="#263238"/>
<path opacity="0.2" d="M65.8997 113.496C63.8897 111.084 63.9138 107.442 63.9138 107.442L68.2715 105.5L66.965 108.105C66.571 109.641 66.1731 111.9 65.8997 113.496Z" fill="black"/>
<path d="M57.3934 88.7168C56.5942 88.7813 55.8043 88.9322 55.0377 89.167C54.2819 89.4323 53.6668 89.766 53.4538 90.2765C53.2907 90.6846 53.1943 91.1162 53.1684 91.5549C53.1322 91.8725 53.1201 92.0534 53.1201 92.0534C55.5643 90.9358 57.5421 91.4142 58.9451 92.8333C59.6365 93.5207 59.5642 94.4855 59.2908 95.4221C59.8092 95.8579 60.1426 96.4744 60.2235 97.1467C60.2677 96.198 61.0757 95.8965 61.9521 95.5387C62.3458 94.8096 62.5473 93.9922 62.5374 93.1636C62.5276 92.3351 62.3067 91.5227 61.8958 90.8032C61.0636 89.3278 59.0697 88.5198 57.3934 88.7168Z" fill="#263238"/>
<path d="M60.2599 96.91C60.19 96.947 60.1362 97.0084 60.1088 97.0826C60.0814 97.1567 60.0822 97.2384 60.1112 97.312C60.1752 97.3349 60.2283 97.3812 60.2596 97.4416C60.2909 97.502 60.2982 97.572 60.28 97.6376C60.28 97.8064 60.0428 97.8547 60.075 98.1722C60.075 98.3371 60.1313 98.3411 60.075 98.4979C60.0187 98.6546 59.8901 98.7752 59.7253 98.7069C59.8137 98.7069 59.8579 98.5863 59.8499 98.4938C59.8283 98.403 59.7987 98.3142 59.7614 98.2285C59.8634 98.0234 59.9096 97.7951 59.8955 97.5665C59.8814 97.3379 59.8074 97.117 59.681 96.926C59.7895 96.6588 59.9572 96.4196 60.1715 96.2266C60.2622 96.4422 60.2927 96.6784 60.2599 96.91Z" fill="#263238"/>
<path d="M52.1919 96.6284C52.1919 96.6284 53.8924 94.8315 54.9376 95.0767C55.9828 95.3219 59.4118 96.8817 59.4118 96.8817C59.4118 96.8817 58.9857 98.8917 59.4118 99.8886C58.8457 100.475 58.153 100.925 57.3867 101.204C56.6204 101.483 55.8007 101.583 54.9898 101.497C52.3205 101.135 52.1919 96.6284 52.1919 96.6284Z" fill="#FF8458"/>
<path d="M59.295 99.9204H59.1422V99.7355C59.4338 99.7595 59.7268 99.712 59.9958 99.5971C60.2648 99.4822 60.5017 99.3034 60.6859 99.0762C60.9306 98.7738 61.1043 98.4203 61.194 98.0417C61.2838 97.6632 61.2874 97.2694 61.2045 96.8893C61.1906 96.7954 61.1526 96.7068 61.0941 96.6321C61.0356 96.5573 60.9586 96.4991 60.8708 96.4632C60.2839 96.2421 59.2025 96.9978 59.1905 97.0059L59.0859 96.8571C59.1302 96.825 60.2558 96.0531 60.9351 96.2903C61.051 96.3365 61.153 96.4118 61.2312 96.509C61.3094 96.6062 61.3611 96.722 61.3814 96.8451C61.4707 97.253 61.4673 97.6757 61.3713 98.0821C61.2752 98.4885 61.0891 98.868 60.8266 99.1928C60.642 99.4209 60.4085 99.6047 60.1435 99.7306C59.8784 99.8565 59.5884 99.9214 59.295 99.9204Z" fill="#FF8458"/>
<g opacity="0.2">
<path opacity="0.2" d="M52.192 96.6284C52.192 96.6284 53.8925 94.8315 54.9377 95.0767C55.9829 95.3219 59.4119 96.8817 59.4119 96.8817C59.4119 96.8817 58.9858 98.8917 59.4119 99.8886C58.8458 100.475 58.1532 100.925 57.3869 101.204C56.6206 101.483 55.8008 101.583 54.9899 101.497C52.3207 101.135 52.192 96.6284 52.192 96.6284Z" fill="white"/>
</g>
<path opacity="0.2" d="M54.6481 95.0605C53.6069 95.1369 52.1919 96.6283 52.1919 96.6283C52.1919 96.6283 52.3205 101.135 55.0059 101.497C55.206 101.522 55.4073 101.535 55.6089 101.537C53.4944 98.4896 54.1175 96.15 54.6481 95.0605Z" fill="white"/>
<path d="M62.7119 96.5194C62.5969 96.807 62.4262 97.0691 62.2095 97.2905C61.9929 97.512 61.7347 97.6885 61.4496 97.8098C60.6818 98.1274 60.1954 97.4641 60.324 96.6842C60.4446 95.9807 60.9873 94.9677 61.7994 94.9717C61.9391 94.9758 62.0767 95.0076 62.2041 95.065C62.3316 95.1225 62.4464 95.2046 62.542 95.3066C62.6376 95.4085 62.7122 95.5284 62.7613 95.6593C62.8105 95.7901 62.8333 95.9294 62.8285 96.0692C62.8247 96.2262 62.7848 96.3802 62.7119 96.5194Z" fill="#CE7A63"/>
</svg>
