<svg width="24" height="23" viewBox="0 0 24 23" fill="none" xmlns="http://www.w3.org/2000/svg">
<path d="M11.7979 16.3679C11.8219 16.3991 11.8525 16.4244 11.8876 16.4418C11.9226 16.4591 11.961 16.4682 12 16.4682C12.039 16.4682 12.0774 16.4591 12.1124 16.4418C12.1474 16.4244 12.1781 16.3991 12.2021 16.3679L15.7957 11.7385C15.9273 11.5686 15.8086 11.317 15.5936 11.317H13.216V0.261364C13.216 0.117614 13.1005 0 12.9594 0H11.0342C10.893 0 10.7775 0.117614 10.7775 0.261364V11.3138H8.40642C8.19144 11.3138 8.07273 11.5653 8.20428 11.7352L11.7979 16.3679ZM23.7433 15.2244H21.8182C21.677 15.2244 21.5615 15.342 21.5615 15.4858V20.517H2.4385V15.4858C2.4385 15.342 2.32299 15.2244 2.18182 15.2244H0.256684C0.115508 15.2244 0 15.342 0 15.4858V21.9545C0 22.5328 0.458824 23 1.02674 23H22.9733C23.5412 23 24 22.5328 24 21.9545V15.4858C24 15.342 23.8845 15.2244 23.7433 15.2244Z" fill="white" fill-opacity="0.5"/>
</svg>
