<svg width="27" height="27" viewBox="0 0 27 27" fill="none" xmlns="http://www.w3.org/2000/svg">
<path d="M24.1718 20.407H22.0099C21.8623 20.407 21.7239 20.4729 21.6316 20.5891C21.4164 20.8559 21.1857 21.1134 20.9428 21.3583C19.9492 22.3737 18.7722 23.1829 17.477 23.7412C16.1352 24.3198 14.693 24.6166 13.2363 24.614C11.7633 24.614 10.3364 24.3188 8.99564 23.7412C7.70046 23.1829 6.52351 22.3737 5.52989 21.3583C4.5345 20.3463 3.74079 19.1468 3.19274 17.8263C2.62383 16.4575 2.33784 15.0039 2.33784 13.5C2.33784 11.9962 2.62691 10.5426 3.19274 9.17375C3.74013 7.85201 4.52738 6.66213 5.52989 5.64178C6.53241 4.62144 7.69791 3.81772 8.99564 3.25888C10.3364 2.68121 11.7633 2.38609 13.2363 2.38609C14.7094 2.38609 16.1363 2.67807 17.477 3.25888C18.7748 3.81772 19.9403 4.62144 20.9428 5.64178C21.1857 5.88981 21.4133 6.14725 21.6316 6.41097C21.7239 6.52713 21.8654 6.59306 22.0099 6.59306H24.1718C24.3655 6.59306 24.4854 6.37329 24.3778 6.2069C22.0191 2.46458 17.8922 -0.0125106 13.2025 4.75283e-05C5.83434 0.0188847 -0.0731207 6.12527 0.000684092 13.6382C0.0744889 21.0318 5.97272 27 13.2363 27C17.9137 27 22.0222 24.5261 24.3778 20.7931C24.4824 20.6268 24.3655 20.407 24.1718 20.407ZM26.9056 13.3022L22.5419 9.78596C22.3789 9.6541 22.1421 9.7734 22.1421 9.98375V12.3698H12.486C12.3507 12.3698 12.24 12.4828 12.24 12.621V14.3791C12.24 14.5172 12.3507 14.6303 12.486 14.6303H22.1421V17.0163C22.1421 17.2266 22.382 17.3459 22.5419 17.2141L26.9056 13.6978C26.935 13.6743 26.9588 13.6443 26.9751 13.61C26.9915 13.5758 27 13.5381 27 13.5C27 13.4619 26.9915 13.4243 26.9751 13.39C26.9588 13.3557 26.935 13.3257 26.9056 13.3022Z" fill="white" fill-opacity="0.5"/>
</svg>
