<svg width="22" height="24" viewBox="0 0 22 24" fill="none" xmlns="http://www.w3.org/2000/svg">
<path d="M22 18.3274L20.3077 17.4703V15.4286C20.3056 14.2143 19.8799 13.0399 19.1057 12.1129C18.3315 11.186 17.2587 10.5661 16.0769 10.3629V8.57143H14.3846V10.3629C13.2029 10.5661 12.1301 11.186 11.3559 12.1129C10.5817 13.0399 10.1559 14.2143 10.1538 15.4286V17.4703L8.46154 18.3274V22.2857H13.5385V24H16.9231V22.2857H22V18.3274ZM20.3077 20.5714H10.1538V19.3869L11.8462 18.5297V15.4286C11.8462 14.5193 12.2027 13.6472 12.8375 13.0042C13.4722 12.3612 14.3331 12 15.2308 12C16.1284 12 16.9893 12.3612 17.6241 13.0042C18.2588 13.6472 18.6154 14.5193 18.6154 15.4286V18.5297L20.3077 19.3869V20.5714Z" fill="white" fill-opacity="0.5"/>
<path d="M20.3077 3.42857C20.3077 2.97391 20.1294 2.53788 19.812 2.21639C19.4947 1.8949 19.0642 1.71429 18.6154 1.71429H15.2308V0H13.5385V1.71429H6.76923V0H5.07692V1.71429H1.69231C1.24348 1.71429 0.813035 1.8949 0.495665 2.21639C0.178296 2.53788 0 2.97391 0 3.42857V20.5714C0 21.0261 0.178296 21.4621 0.495665 21.7836C0.813035 22.1051 1.24348 22.2857 1.69231 22.2857H5.07692V20.5714H1.69231V3.42857H5.07692V5.14286H6.76923V3.42857H13.5385V5.14286H15.2308V3.42857H18.6154V8.57143H20.3077V3.42857Z" fill="white" fill-opacity="0.5"/>
</svg>
