<svg width="26" height="26" viewBox="0 0 26 26" fill="none" xmlns="http://www.w3.org/2000/svg">
<path d="M12.3158 26V21.8566C5.46 21.5573 0 16.7694 0 10.934C0 4.90305 5.82947 0 13 0C20.1705 0 26 4.90305 26 10.934C26 16.6313 21.2926 22.363 14.2726 25.2058L12.3158 26ZM13 2.3019C7.33474 2.3019 2.73684 6.1691 2.73684 10.934C2.73684 15.699 7.33474 19.5662 13 19.5662H15.0526V22.2134C20.0337 19.5662 23.2632 15.2156 23.2632 10.934C23.2632 6.1691 18.6653 2.3019 13 2.3019ZM11.6316 15.5378H14.3684V17.8398H11.6316V15.5378ZM14.3684 13.8114H11.6316C11.6316 10.0708 15.7368 10.3586 15.7368 8.05666C15.7368 6.79062 14.5053 5.75476 13 5.75476C11.4947 5.75476 10.2632 6.79062 10.2632 8.05666H7.52632C7.52632 5.51306 9.97579 3.45286 13 3.45286C16.0242 3.45286 18.4737 5.51306 18.4737 8.05666C18.4737 10.934 14.3684 11.2218 14.3684 13.8114Z" fill="white" fill-opacity="0.5"/>
</svg>
