<svg width="26" height="26" viewBox="0 0 26 26" fill="none" xmlns="http://www.w3.org/2000/svg">
<path d="M11.3858 10.8474V7.90725C11.3858 7.57575 11.6545 7.30708 11.986 7.30708H14.0563C14.3878 7.30708 14.6564 7.57575 14.6564 7.90725V13.2893C14.6564 13.3716 14.6153 13.4344 14.5741 13.4962L14.0563 14.014C13.9317 14.1386 13.9317 14.3249 14.0563 14.4278L14.5741 14.9457C14.6019 14.9722 14.6237 15.0044 14.6379 15.0401C14.6521 15.0758 14.6584 15.1142 14.6564 15.1526V18.0917C14.6564 18.2508 14.5932 18.4035 14.4806 18.5161C14.3681 18.6286 14.2154 18.6918 14.0563 18.6918H11.986C11.8268 18.6918 11.6742 18.6286 11.5616 18.5161C11.4491 18.4035 11.3858 18.2508 11.3858 18.0917V12.7097C11.3858 12.6273 11.427 12.5645 11.4682 12.5028L11.986 11.9849C12.1106 11.8603 12.1106 11.674 11.986 11.5711L11.4682 11.0533C11.4404 11.0269 11.4186 10.9949 11.4044 10.9594C11.3902 10.9238 11.3838 10.8856 11.3858 10.8474ZM20.7209 13C20.7209 11.9861 20.5212 10.9821 20.1332 10.0453C19.7452 9.10859 19.1765 8.25744 18.4595 7.54049C17.7426 6.82353 16.8914 6.25482 15.9547 5.8668C15.0179 5.47879 14.0139 5.27908 13 5.27908C11.9861 5.27908 10.9821 5.47879 10.0453 5.8668C9.10859 6.25482 8.25744 6.82353 7.54049 7.54049C6.82353 8.25744 6.25482 9.10859 5.8668 10.0453C5.47879 10.9821 5.27908 11.9861 5.27908 13C5.27908 15.0477 6.09254 17.0116 7.54049 18.4595C8.98844 19.9075 10.9523 20.7209 13 20.7209C15.0477 20.7209 17.0116 19.9075 18.4595 18.4595C19.9075 17.0116 20.7209 15.0477 20.7209 13ZM23.1638 13C23.1638 18.6095 18.6095 23.1433 13.0206 23.1433C7.41108 23.1433 2.87733 18.5889 2.87733 13C2.87733 7.3905 7.43167 2.85675 13.0206 2.85675C18.6095 2.85675 23.1638 7.3905 23.1638 13ZM0.827667 13C0.827667 19.7275 6.27142 25.1723 13 25.1723C19.7286 25.1723 25.1723 19.7275 25.1723 13C25.1723 6.2725 19.7275 0.827667 13 0.827667C6.2725 0.827667 0.827667 6.2725 0.827667 13ZM0 13C0 5.81642 5.81642 0 13 0C20.1836 0 26 5.81642 26 13C26 20.1836 20.1836 26 13 26C5.81642 26 0 20.1836 0 13Z" fill="white" fill-opacity="0.5"/>
</svg>
