<svg width="155" height="172" viewBox="0 0 155 172" fill="none" xmlns="http://www.w3.org/2000/svg">
<g clip-path="url(#clip0_1021_2239)">
<path d="M34.4987 16.3926C34.4987 15.247 35.7509 14.4492 37.1668 14.3137C38.8376 14.1564 40.0206 14.903 40.0606 16.2243C41.1526 15.7741 42.2992 16.0632 42.2155 17.271C42.4994 16.9416 43.5587 16.9489 43.9409 17.0404C44.1483 17.0998 44.3405 17.2034 44.5044 17.3443C44.6684 17.4851 44.8002 17.6599 44.8909 17.8566C44.9827 18.0488 45.0168 18.2638 44.9892 18.4752C45.6262 18.2629 47.0749 18.1348 47.4353 18.724C48.0795 19.7671 45.5061 19.8001 44.9892 19.4853C44.8763 20.2978 42.1136 20.4296 41.4438 19.6793C40.9197 20.21 40.1698 20.3271 39.3581 20.3747C37.9895 20.4589 37.1523 19.9904 36.0821 19.4451C34.9209 20.4333 32.9117 20.4516 31.867 19.3206C31.6013 19.5732 30.866 19.65 30.2763 19.5109C29.8905 19.4158 29.8031 19.2511 29.8031 19.2511C29.5747 19.3479 29.3368 19.4203 29.0933 19.467C28.3325 19.6244 26.9093 19.467 27.5135 18.768C27.8788 18.5134 28.3249 18.4039 28.7657 18.4605C29.0969 17.8054 30.4255 17.1868 31.1899 17.7285C31.2191 16.9343 31.9398 16.3158 32.9517 16.1584C33.2975 16.1035 34.1129 16.0705 34.4987 16.3926Z" fill="#F5F5F5"/>
<path d="M0.682785 27.0289C1.01802 26.9068 1.37099 26.8413 1.72746 26.8349C2.06598 26.8093 2.17518 26.7434 2.2407 26.6665C2.56523 26.1971 3.03939 25.853 3.58478 25.6913C4.13016 25.5296 4.71411 25.5599 5.24006 25.7771C5.38815 25.3161 5.70304 24.9279 6.12237 24.6893C6.54169 24.4507 7.03484 24.3791 7.50414 24.4888C7.46774 23.4311 8.81454 22.2928 10.023 22.0293C11.2315 21.7658 12.207 21.8866 12.8586 22.6552C13.5684 21.2607 16.3457 20.8691 17.849 21.6047C18.7153 22.0293 19.447 22.4648 19.8073 23.2627C20.0441 23.7546 20.1554 24.2979 20.1313 24.8438C20.7173 24.3241 21.8894 24.185 22.6793 24.4778C23.5238 24.8072 23.5893 25.4477 23.6293 26.0956C24.1299 25.9489 24.6603 25.9401 25.1654 26.0699C25.6969 26.2273 26.0063 26.6482 25.9298 26.9849C26.3521 26.963 27.3531 27.3034 27.2402 27.7499C27.1092 28.2513 25.9662 28.2001 25.5367 28.1854C25.1341 28.1556 24.7348 28.0919 24.3428 27.9951C24.1436 28.0707 23.9331 28.1115 23.7203 28.1159C22.9923 28.1159 22.6829 27.7975 22.5665 27.523C22.2025 28.2769 20.943 28.8515 20.0476 29.0821C18.3659 29.514 15.9817 29.2505 14.9516 27.9841C14.8289 28.2223 14.6578 28.4318 14.4493 28.599C14.0021 28.9601 13.4589 29.1803 12.8877 29.2322C12.1961 29.2981 10.3397 29.3896 9.81919 28.2806C9.45518 29.0126 7.79535 29.353 6.54318 29.1736C6.05694 29.0989 5.5838 28.9547 5.13814 28.7454C4.85853 28.5989 4.58751 28.4364 4.32642 28.2586C4.22714 28.188 4.11044 28.1461 3.98909 28.1377C3.86774 28.1293 3.74643 28.1547 3.63846 28.211C2.75039 28.5258 1.78197 28.5258 0.8939 28.211C0.16954 27.9219 0.0239449 27.329 0.682785 27.0289Z" fill="#F5F5F5"/>
<path d="M77.7347 159.06C47.2281 159.06 22.4976 144.704 22.4976 126.995C22.4976 109.286 47.2281 94.9297 77.7347 94.9297C108.241 94.9297 132.972 109.286 132.972 126.995C132.972 144.704 108.241 159.06 77.7347 159.06Z" fill="#E0E0E0"/>
<path d="M40.7413 77.2266L52.8916 111.55C52.8916 111.55 47.0348 112.125 39.824 108.219C30.5893 103.224 28.0886 97.9714 28.0886 97.9714L40.7413 77.2266Z" fill="#FF6969"/>
<path d="M40.7413 77.2257L45.4988 74.4551L59.207 107.871L52.8916 111.549C52.8916 111.549 47.0349 112.124 39.824 108.219C30.5893 103.223 28.0887 97.9706 28.0887 97.9706L40.7413 77.2257Z" fill="#FF6969"/>
<path d="M52.8916 111.542C52.8916 111.542 47.0348 112.117 39.824 108.212C30.5893 103.216 28.0886 97.9639 28.0886 97.9639" fill="#FF6969"/>
<path d="M28.0883 97.9824L29.1584 96.2256C30.4215 98.0373 33.5556 101.716 40.1658 105.288C45.2218 108.022 49.608 108.56 51.781 108.633L52.873 111.543C52.873 111.543 47.0163 112.117 39.8054 108.212C30.589 103.213 28.0883 97.9824 28.0883 97.9824Z" fill="#EBEBEB"/>
<path d="M28.089 97.9818L28.453 97.3633C28.9153 98.2124 31.7472 102.923 40.101 107.447C45.9687 110.623 50.9409 110.836 52.5862 110.803L52.8701 111.535C52.8701 111.535 47.0134 112.109 39.8025 108.204C30.5897 103.212 28.089 97.9818 28.089 97.9818Z" fill="#37474F"/>
<path opacity="0.2" d="M40.7413 77.2189L52.8916 111.542L59.207 107.864L45.4988 74.4482L40.7413 77.2189Z" fill="white"/>
<path d="M52.6077 110.803L52.8916 111.543L59.207 107.864L58.9158 107.11L52.6077 110.803Z" fill="#455A64"/>
<path d="M51.7816 108.633L58.1735 105.159L58.916 107.11L52.6079 110.803L51.7816 108.633Z" fill="#FAFAFA"/>
<path d="M38.2517 94.6482C38.2517 94.3957 38.208 94.2822 38.0624 94.209C37.9168 94.1358 37.8149 94.2712 37.7202 94.4103C37.6219 94.5606 37.5493 94.7264 37.5055 94.9008C37.4742 95.0119 37.4808 95.1303 37.5244 95.2371C37.5679 95.3439 37.6459 95.433 37.7457 95.49C37.7942 95.5081 37.8462 95.5149 37.8977 95.5099C37.9492 95.5048 37.9989 95.4881 38.043 95.461C38.0872 95.4339 38.1246 95.397 38.1526 95.3532C38.1805 95.3095 38.1982 95.2599 38.2043 95.2082C38.2443 95.0244 38.2602 94.8362 38.2517 94.6482Z" fill="#263238"/>
<path d="M43.2452 94.4278C43.1323 94.2155 43.0595 94.124 42.9139 94.1569C42.7683 94.1899 42.7283 94.3692 42.7028 94.5559C42.6738 94.7451 42.6738 94.9376 42.7028 95.1268C42.7069 95.18 42.7215 95.2317 42.7458 95.2791C42.7702 95.3265 42.8037 95.3684 42.8444 95.4025C42.8851 95.4367 42.9322 95.4622 42.9829 95.4777C43.0336 95.4932 43.0869 95.4984 43.1396 95.4929C43.2435 95.4532 43.3292 95.3763 43.3802 95.277C43.4313 95.1777 43.4441 95.063 43.4163 94.9548C43.3821 94.7724 43.3246 94.5953 43.2452 94.4278Z" fill="#263238"/>
<path d="M34.9794 90.4755C35.0304 90.2449 35.0304 90.1095 34.9103 89.9923C34.7902 89.8752 34.6518 89.9265 34.5208 90.0106C34.3873 90.0973 34.2743 90.2122 34.1896 90.3474C34.1324 90.4494 34.1096 90.5673 34.1247 90.6835C34.1398 90.7996 34.192 90.9077 34.2733 90.9915C34.3046 91.0321 34.3453 91.0644 34.3919 91.0855C34.4384 91.1066 34.4894 91.1159 34.5404 91.1127C34.5914 91.1094 34.6408 91.0937 34.6843 91.0668C34.7279 91.04 34.7642 91.0028 34.7902 90.9586C34.8793 90.8091 34.9433 90.6459 34.9794 90.4755Z" fill="#263238"/>
<path d="M34.3714 94.8966C34.4188 94.5635 34.4151 94.3915 34.244 94.2451C34.073 94.0987 33.88 94.2121 33.7308 94.3549C33.5582 94.5055 33.4161 94.6882 33.3122 94.8929C33.2423 95.0362 33.2195 95.1981 33.2469 95.3553C33.2744 95.5125 33.3508 95.6569 33.4651 95.7677C33.5165 95.8138 33.5782 95.8468 33.645 95.8639C33.7118 95.881 33.7817 95.8816 33.8488 95.8658C33.9159 95.85 33.9783 95.8182 34.0306 95.7731C34.0829 95.728 34.1237 95.6709 34.1494 95.6066C34.2552 95.3812 34.3299 95.1423 34.3714 94.8966Z" fill="#263238"/>
<path d="M39.6788 99.428C39.5914 99.1023 39.5186 98.9522 39.3148 98.9303C39.1109 98.9083 39.009 99.1242 38.9253 99.3512C38.8416 99.5866 38.7937 99.8334 38.7833 100.083C38.7677 100.235 38.8074 100.387 38.8951 100.512C38.9828 100.636 39.1126 100.725 39.2602 100.76C39.5332 100.786 39.7625 100.53 39.7734 100.182C39.7746 99.9276 39.7428 99.6741 39.6788 99.428Z" fill="#263238"/>
<path d="M45.8004 100.39C45.6148 100.024 45.4947 99.8559 45.2435 99.8779C44.9923 99.8998 44.9232 100.182 44.8795 100.478C44.8322 100.786 44.8322 101.1 44.8795 101.408C44.8954 101.593 44.9782 101.766 45.1123 101.894C45.2465 102.022 45.4226 102.097 45.6075 102.103C45.6938 102.085 45.7754 102.048 45.8471 101.997C45.9188 101.945 45.9792 101.879 46.0243 101.802C46.0694 101.726 46.0983 101.641 46.1093 101.553C46.1203 101.465 46.113 101.376 46.088 101.291C46.0324 100.979 45.9357 100.676 45.8004 100.39Z" fill="#263238"/>
<path d="M38.0117 88.1072C38.0117 87.8839 38.0117 87.7741 37.8698 87.6936C37.7278 87.6131 37.6404 87.6936 37.5458 87.8107C37.4464 87.927 37.3698 88.0611 37.3201 88.206C37.2881 88.3062 37.2884 88.414 37.3211 88.5139C37.3538 88.6139 37.4172 88.7009 37.5021 88.7624C37.5399 88.787 37.583 88.8023 37.6278 88.8069C37.6726 88.8115 37.7178 88.8053 37.7598 88.7889C37.8018 88.7724 37.8392 88.7462 37.8691 88.7123C37.899 88.6784 37.9204 88.6378 37.9316 88.594C37.9822 88.4366 38.0092 88.2726 38.0117 88.1072Z" fill="#263238"/>
<path d="M41.5163 89.5016C41.4326 89.2967 41.3744 89.2015 41.2397 89.2052C41.105 89.2088 41.054 89.3516 41.0176 89.509C40.9797 89.6719 40.9674 89.8399 40.9812 90.0067C40.9807 90.1078 41.0178 90.2055 41.0851 90.2806C41.1524 90.3558 41.2452 90.403 41.3452 90.413C41.4389 90.396 41.5222 90.3428 41.5773 90.2648C41.6324 90.1868 41.6549 90.0902 41.6401 89.9957C41.6209 89.8262 41.5792 89.6601 41.5163 89.5016Z" fill="#263238"/>
<path opacity="0.07" d="M40.7412 77.2257L45.4987 74.4551L51.916 90.0943C51.6332 90.1891 51.3252 90.1734 51.0533 90.0503C50.6893 89.9186 50.2744 89.7539 49.9613 89.9625C49.6483 90.1711 49.5973 90.6469 49.6155 91.0605C49.6738 92.7148 49.7296 94.3704 49.783 96.0271C49.8286 96.3503 49.7673 96.6795 49.6083 96.9641C49.489 97.1095 49.3298 97.2165 49.1506 97.2718C48.9713 97.3271 48.7799 97.3283 48.6 97.2752C48.2402 97.1627 47.9163 96.957 47.6609 96.6786C47.2568 96.2906 46.8055 95.8002 46.2522 95.8917C45.6989 95.9832 45.455 96.5066 45.3276 96.9897C45.2002 97.4728 45.142 98.0291 44.8107 98.4208C44.2283 99.1088 43.0526 98.9258 42.412 98.2927C41.7713 97.6595 41.5238 96.7408 41.2836 95.8697C41.0433 94.9987 40.7594 94.08 40.0787 93.4907C40.0375 93.4441 39.985 93.4089 39.9264 93.3884C39.8678 93.3679 39.805 93.3628 39.7438 93.3736C39.6055 93.4212 39.5691 93.6005 39.5 93.7396C39.2743 94.1825 38.5608 94.1276 38.2405 93.7396C37.9544 93.3238 37.8253 92.8189 37.8765 92.3159C37.9323 91.8171 37.857 91.3123 37.6581 90.8519C37.6041 90.741 37.5236 90.6452 37.4239 90.5731C37.3243 90.5009 37.2084 90.4546 37.0866 90.4383C36.7226 90.4383 36.4533 90.8043 36.224 91.0861C35.8334 91.575 35.3324 91.9629 34.7625 92.2175C34.1927 92.4722 33.5705 92.5862 32.948 92.5501C32.6922 92.5434 32.442 92.473 32.22 92.3452C32.0422 92.2298 31.9037 92.0625 31.8232 91.8657L40.7412 77.2257Z" fill="white"/>
<path opacity="0.07" d="M40.7417 77.2257L45.4992 74.4551L48.9463 82.8731C48.6462 82.9344 48.3719 83.0863 48.16 83.3086C47.6978 83.843 47.8434 84.6701 48.1236 85.3253C48.4039 85.9804 48.7898 86.6319 48.7315 87.3383C48.7233 87.467 48.6859 87.5922 48.6223 87.7043C48.5065 87.847 48.3521 87.953 48.1777 88.0095C48.0033 88.066 47.8164 88.0706 47.6395 88.0227C47.2834 87.9231 46.9169 87.8654 46.5475 87.8507C45.7686 87.9129 45.2626 88.7181 45.0915 89.483C45.0447 89.8424 44.9415 90.192 44.7858 90.5188C44.7038 90.6808 44.5675 90.8086 44.4011 90.8795C44.2346 90.9505 44.0486 90.9602 43.8758 90.9068C43.6807 90.7884 43.5288 90.61 43.4426 90.398C43.1286 89.7851 42.875 89.1428 42.6855 88.4802C42.5435 87.9751 42.4088 87.4151 41.9939 87.1004C41.7521 86.9423 41.469 86.86 41.1807 86.8639C40.8923 86.8678 40.6116 86.9578 40.3741 87.1223C40.0647 87.3127 39.6934 87.5981 39.384 87.4078C39.3044 87.344 39.2389 87.2642 39.1919 87.1734C39.1449 87.0826 39.1173 86.9829 39.111 86.8808C39.0318 86.4067 39.0554 85.9211 39.1802 85.457C39.2384 85.2301 39.3185 84.9593 39.1802 84.7799C39.0959 84.6906 38.9818 84.6359 38.8598 84.6262C38.2301 84.542 37.6914 85.0435 37.24 85.4936C36.7887 85.9438 36.2099 86.416 35.5948 86.2586C35.495 86.2347 35.404 86.1826 35.3327 86.1085L40.7417 77.2257Z" fill="white"/>
<path opacity="0.07" d="M40.741 77.2257L45.4984 74.4551L47.5332 79.4217C47.4546 79.587 47.3349 79.729 47.1856 79.8342C47.0364 79.9393 46.8628 80.004 46.6814 80.0219C46.1937 80.0439 45.6768 79.6559 45.2582 79.8975C44.9379 80.0915 44.8942 80.5343 44.8942 80.9077C44.8767 81.5854 44.8171 82.2614 44.7158 82.9316C44.6924 83.1869 44.6207 83.4354 44.5047 83.6636C44.4478 83.778 44.362 83.8753 44.256 83.9459C44.15 84.0166 44.0274 84.0581 43.9005 84.0662C43.4382 84.0662 43.1725 83.5575 42.9177 83.1732C42.8608 83.0812 42.7836 83.0035 42.692 82.9463C42.5636 82.9044 42.4244 82.9115 42.3009 82.9662C42.1774 83.0208 42.0782 83.1193 42.0223 83.2427C41.9188 83.4928 41.8408 83.7528 41.7893 84.0187C41.6594 84.4285 41.3815 84.7746 41.0103 84.9886C40.9273 85.0466 40.8273 85.075 40.7264 85.0691C40.5262 85.0435 40.4316 84.8092 40.3952 84.6079C40.2095 83.6087 40.4934 82.5583 40.2314 81.5811C40.1804 81.3871 40.0639 81.1675 39.8674 81.1639C39.7871 81.1683 39.7099 81.1963 39.6453 81.2444C39.3292 81.5042 39.0357 81.7907 38.7681 82.1008C38.466 82.3717 37.9891 82.5473 37.6761 82.3094L40.741 77.2257Z" fill="white"/>
<path opacity="0.35" d="M45.4986 74.4482L41.7858 77.4641L51.7812 108.633L40.7411 77.2189L45.4986 74.4482Z" fill="white"/>
<path d="M28.2957 84.0596L40.4424 118.383C40.4424 118.383 34.5893 118.958 27.3748 115.052C18.1437 110.057 15.6431 104.804 15.6431 104.804L28.2957 84.0596Z" fill="#FF6969"/>
<path d="M28.2957 84.0594L33.0496 81.2852L46.7578 114.705L40.4424 118.383C40.4424 118.383 34.5893 118.958 27.3748 115.052C18.1438 110.056 15.6431 104.804 15.6431 104.804L28.2957 84.0594Z" fill="#FF6969"/>
<path d="M40.4424 118.383C40.4424 118.383 34.5893 118.958 27.3748 115.053C18.1437 110.057 15.6431 104.805 15.6431 104.805" fill="#FF6969"/>
<path d="M15.644 104.822L16.7142 103.065C17.9736 104.877 21.1077 108.555 27.7179 112.124C31.2869 114.112 35.2589 115.257 39.3332 115.473L40.4434 118.383C40.4434 118.383 34.5902 118.957 27.3758 115.052C18.1447 110.056 15.644 104.822 15.644 104.822Z" fill="#EBEBEB"/>
<path d="M15.6437 104.823L16.0077 104.204C16.47 105.053 19.2837 109.764 27.6557 114.287C33.527 117.464 38.4956 117.677 40.1445 117.644L40.4248 118.376C40.4248 118.376 34.5717 118.95 27.3572 115.045C18.1444 110.056 15.6437 104.823 15.6437 104.823Z" fill="#37474F"/>
<path opacity="0.2" d="M28.2957 84.0594L40.4424 118.383L46.7578 114.705L33.0496 81.2852L28.2957 84.0594Z" fill="white"/>
<path d="M40.1621 117.644L40.4424 118.383L46.7578 114.705L46.4703 113.947L40.1621 117.644Z" fill="#455A64"/>
<path d="M39.3327 115.473L45.7281 112L46.4707 113.947L40.1626 117.644L39.3327 115.473Z" fill="#FAFAFA"/>
<path d="M25.8031 101.484C25.8031 101.235 25.7594 101.118 25.6175 101.049C25.4755 100.979 25.3663 101.107 25.2535 101.25C25.156 101.401 25.0834 101.566 25.0387 101.741C25.0084 101.852 25.0159 101.971 25.0601 102.077C25.1043 102.184 25.1825 102.273 25.2826 102.33C25.3309 102.348 25.3826 102.355 25.434 102.35C25.4853 102.345 25.5347 102.328 25.5786 102.301C25.6225 102.274 25.6597 102.237 25.6872 102.193C25.7148 102.149 25.732 102.099 25.7376 102.048C25.7857 101.864 25.8077 101.674 25.8031 101.484Z" fill="#263238"/>
<path d="M30.7963 101.28C30.6835 101.064 30.6107 100.976 30.4651 101.009C30.3195 101.042 30.2795 101.221 30.254 101.408C30.2268 101.596 30.2268 101.787 30.254 101.975C30.2581 102.028 30.2727 102.08 30.297 102.127C30.3213 102.175 30.3548 102.216 30.3956 102.251C30.4363 102.285 30.4834 102.31 30.5341 102.326C30.5848 102.341 30.6381 102.346 30.6908 102.341C30.794 102.301 30.8789 102.223 30.9292 102.124C30.9795 102.025 30.9919 101.911 30.9638 101.803C30.9327 101.621 30.8763 101.445 30.7963 101.28Z" fill="#263238"/>
<path d="M22.534 97.3157C22.5813 97.0852 22.5849 96.9497 22.4612 96.8326C22.3374 96.7155 22.2027 96.7667 22.0717 96.8326C21.9396 96.9209 21.8268 97.0355 21.7405 97.1693C21.6841 97.2722 21.6619 97.3905 21.6769 97.507C21.692 97.6235 21.7436 97.7321 21.8242 97.8172C21.856 97.857 21.8968 97.8885 21.9433 97.9091C21.9897 97.9297 22.0405 97.9388 22.0911 97.9356C22.1418 97.9323 22.191 97.9169 22.2345 97.8906C22.278 97.8642 22.3145 97.8277 22.3411 97.7842C22.4284 97.6387 22.4935 97.4808 22.534 97.3157Z" fill="#263238"/>
<path d="M21.9226 101.748C21.9735 101.415 21.9662 101.243 21.7952 101.097C21.6241 100.95 21.4311 101.064 21.2819 101.206C21.1093 101.357 20.9672 101.54 20.8633 101.744C20.7903 101.887 20.7661 102.05 20.7944 102.208C20.8227 102.367 20.9019 102.511 21.0198 102.619C21.0709 102.665 21.1324 102.698 21.1989 102.716C21.2655 102.733 21.3351 102.733 21.402 102.718C21.4689 102.702 21.5309 102.67 21.5829 102.625C21.6349 102.58 21.6752 102.522 21.7005 102.458C21.8096 102.234 21.8844 101.995 21.9226 101.748Z" fill="#263238"/>
<path d="M27.2295 106.268C27.1422 105.942 27.0694 105.792 26.8656 105.77C26.6617 105.748 26.5598 105.964 26.4761 106.191C26.3923 106.426 26.3445 106.673 26.3341 106.923C26.3178 107.074 26.3573 107.227 26.4452 107.351C26.5331 107.475 26.6633 107.562 26.811 107.596C27.0839 107.626 27.3133 107.366 27.3242 107.022C27.3253 106.767 27.2935 106.514 27.2295 106.268Z" fill="#263238"/>
<path d="M32.5114 107.604C32.3257 107.238 32.2056 107.07 31.9545 107.092C31.7033 107.114 31.6341 107.396 31.5905 107.692C31.5432 107.999 31.5432 108.311 31.5905 108.618C31.6055 108.804 31.688 108.978 31.8222 109.107C31.9564 109.236 32.133 109.31 32.3185 109.317C32.4048 109.298 32.4864 109.262 32.5581 109.21C32.6298 109.159 32.6901 109.093 32.7352 109.016C32.7803 108.94 32.8093 108.855 32.8202 108.767C32.8312 108.679 32.8239 108.59 32.7989 108.504C32.7422 108.193 32.6455 107.89 32.5114 107.604Z" fill="#263238"/>
<path d="M25.6714 94.1935C25.7041 93.9739 25.7005 93.8605 25.5913 93.7653C25.4821 93.6701 25.362 93.7433 25.2528 93.8348C25.1372 93.9379 25.0421 94.0621 24.9725 94.2008C24.9263 94.2956 24.9113 94.4028 24.9296 94.5067C24.9479 94.6107 24.9986 94.706 25.0744 94.7791C25.108 94.8094 25.1485 94.8311 25.1923 94.8424C25.236 94.8536 25.2819 94.854 25.3258 94.8436C25.3698 94.8332 25.4106 94.8122 25.4448 94.7825C25.479 94.7528 25.5055 94.7152 25.5221 94.673C25.5956 94.5216 25.6459 94.36 25.6714 94.1935Z" fill="#263238"/>
<path d="M28.1181 96.7087C28.0635 96.4927 28.0162 96.3939 27.8851 96.3756C27.7541 96.3573 27.6813 96.5001 27.6231 96.6501C27.5632 96.806 27.5276 96.9701 27.5175 97.1369C27.5055 97.2364 27.5299 97.337 27.5862 97.4198C27.6424 97.5026 27.7267 97.5621 27.8233 97.5871C28.0016 97.609 28.1581 97.4443 28.1691 97.2211C28.1741 97.0488 28.157 96.8766 28.1181 96.7087Z" fill="#263238"/>
<path opacity="0.07" d="M28.2966 84.0594L33.0505 81.2852L39.4678 96.9353C39.1861 97.0299 38.8794 97.0143 38.6087 96.8914C38.2447 96.7596 37.8261 96.5949 37.5167 96.7999C37.2073 97.0049 37.1527 97.488 37.1709 97.8979L37.3202 102.846C37.3653 103.169 37.3053 103.498 37.1491 103.783C37.0283 103.928 36.8685 104.034 36.6889 104.089C36.5093 104.145 36.3177 104.146 36.1372 104.094C35.7774 103.982 35.4535 103.776 35.1981 103.498C34.7977 103.11 34.3427 102.619 33.7894 102.707C33.2361 102.795 32.9922 103.326 32.8648 103.823C32.7374 104.321 32.6792 104.863 32.3479 105.254C31.7655 105.943 30.5935 105.76 29.9528 105.126C29.3122 104.493 29.061 103.575 28.8208 102.703C28.5805 101.832 28.2966 100.914 27.6159 100.324C27.575 100.278 27.5232 100.244 27.4653 100.223C27.4074 100.203 27.3452 100.197 27.2847 100.207C27.1427 100.255 27.1063 100.434 27.0408 100.573C26.8115 101.016 26.1017 100.939 25.7777 100.573C25.4919 100.157 25.3629 99.6526 25.4137 99.1496C25.4716 98.6508 25.3962 98.1454 25.1953 97.6856C25.1426 97.5737 25.0626 97.4771 24.9626 97.4047C24.8627 97.3324 24.7461 97.2867 24.6239 97.272C24.2599 97.2537 23.9905 97.6197 23.7612 97.9162C23.3712 98.4057 22.8703 98.7942 22.3003 99.0489C21.7303 99.3036 21.1079 99.4172 20.4852 99.3802C20.2288 99.3739 19.9783 99.3021 19.7572 99.1716C19.581 99.0508 19.4462 98.8782 19.3713 98.6775L28.2966 84.0594Z" fill="white"/>
<path opacity="0.07" d="M28.2961 84.0594L33.05 81.2852L36.4971 89.7032C36.198 89.7666 35.9251 89.9197 35.7145 90.1424C35.2486 90.6767 35.3942 91.5039 35.6744 92.159C35.9547 92.8142 36.3442 93.462 36.2823 94.172C36.274 94.3008 36.2367 94.4259 36.1731 94.538C36.0573 94.6807 35.9029 94.7867 35.7285 94.8432C35.5541 94.8997 35.3672 94.9043 35.1903 94.8564C34.8345 94.755 34.4679 94.6973 34.0983 94.6844C33.323 94.7466 32.8134 95.5518 32.6423 96.3168C32.5963 96.6758 32.4943 97.0254 32.3402 97.3526C32.2541 97.5101 32.1164 97.6327 31.9504 97.6995C31.7844 97.7662 31.6006 97.773 31.4302 97.7186C31.2327 97.6048 31.0799 97.4266 30.997 97.2135C30.6815 96.6012 30.4279 95.9588 30.2399 95.2956C30.0943 94.7906 29.9633 94.2306 29.5447 93.9122C29.3029 93.7554 29.0204 93.6742 28.7327 93.6788C28.4451 93.6833 28.1653 93.7735 27.9285 93.9378C27.6155 94.1281 27.2442 94.4136 26.9348 94.2196C26.8556 94.1562 26.7904 94.077 26.7434 93.9868C26.6964 93.8967 26.6686 93.7977 26.6618 93.6962C26.5826 93.2222 26.6062 92.7365 26.731 92.2725C26.7928 92.0419 26.8693 91.7747 26.731 91.5954C26.6467 91.5061 26.5326 91.4513 26.4106 91.4417C25.7809 91.3575 25.2422 91.8589 24.7945 92.3091C24.3467 92.7593 23.7607 93.2314 23.1455 93.074C23.0461 93.0492 22.9554 92.9973 22.8835 92.924L28.2961 84.0594Z" fill="white"/>
<path opacity="0.07" d="M28.2964 84.0594L33.0502 81.2852L35.085 86.2481C35.0069 86.4138 34.8873 86.5563 34.738 86.6615C34.5887 86.7667 34.4147 86.8311 34.2332 86.8484C33.7491 86.8703 33.2322 86.4824 32.81 86.7239C32.4896 86.9142 32.446 87.3608 32.446 87.7341C32.4256 88.4106 32.3648 89.0852 32.264 89.7544C32.2414 90.0094 32.171 90.2578 32.0565 90.4864C31.9972 90.5997 31.9104 90.696 31.8041 90.7664C31.6978 90.8368 31.5755 90.879 31.4486 90.889C30.9863 90.889 30.7206 90.3803 30.4658 89.996C30.411 89.9023 30.3333 89.8242 30.2401 89.769C30.1118 89.7272 29.9726 89.7342 29.8491 89.7889C29.7255 89.8436 29.6263 89.942 29.5704 90.0655C29.4703 90.3168 29.3924 90.5764 29.3374 90.8414C29.2075 91.2513 28.9296 91.5973 28.5584 91.8113C28.4769 91.8696 28.378 91.8981 28.2782 91.8918C28.0743 91.8626 27.9797 91.6283 27.9433 91.4307C27.7613 90.4315 28.0416 89.3811 27.7795 88.4039C27.7285 88.2099 27.612 87.9903 27.4155 87.9866C27.3342 87.9916 27.256 88.0195 27.1898 88.0671C26.874 88.3261 26.5816 88.6127 26.3162 88.9236C26.0104 89.1944 25.5372 89.3701 25.2024 89.1322L28.2964 84.0594Z" fill="white"/>
<path opacity="0.35" d="M33.0504 81.2852L29.3376 84.3047L39.333 115.473L28.2965 84.0594L33.0504 81.2852Z" fill="white"/>
<path d="M15.8436 90.9004L27.9902 125.224C27.9902 125.224 22.1371 125.799 14.9226 121.893C5.6916 116.897 3.19092 111.645 3.19092 111.645L15.8436 90.9004Z" fill="#FF6969"/>
<path d="M15.8436 90.9003L20.5974 88.126L34.3057 121.545L27.9903 125.224C27.9903 125.224 22.1371 125.798 14.9227 121.893C5.69162 116.897 3.19093 111.645 3.19093 111.645L15.8436 90.9003Z" fill="#FF6969"/>
<path d="M27.9941 125.223C27.9941 125.223 22.141 125.798 14.9265 121.893C5.69551 116.897 3.19482 111.645 3.19482 111.645" fill="#FF6969"/>
<path d="M3.19475 111.663L4.26491 109.906C5.52435 111.718 8.65839 115.396 15.2686 118.965C18.8387 120.953 22.812 122.098 26.8875 122.314L27.9795 125.223C27.9795 125.223 22.1264 125.798 14.9119 121.893C5.69543 116.897 3.19475 111.663 3.19475 111.663Z" fill="#EBEBEB"/>
<path d="M3.19449 111.663L3.55849 111.045C4.01713 111.894 6.83449 116.601 15.2065 121.128C21.0778 124.305 26.05 124.517 27.6953 124.484L27.9756 125.216C27.9756 125.216 22.1225 125.791 14.908 121.886C5.69516 116.897 3.19449 111.663 3.19449 111.663Z" fill="#37474F"/>
<path opacity="0.2" d="M15.8475 90.9003L27.9942 125.224L34.3096 121.545L20.6013 88.126L15.8475 90.9003Z" fill="white"/>
<path d="M27.7139 124.484L27.9942 125.223L34.3096 121.545L34.022 120.787L27.7139 124.484Z" fill="#455A64"/>
<path d="M26.8871 122.314L33.2789 118.841L34.0215 120.788L27.7133 124.485L26.8871 122.314Z" fill="#FAFAFA"/>
<path d="M13.3578 108.336C13.3396 108.083 13.3104 107.97 13.1685 107.9C13.0265 107.831 12.9209 107.959 12.8263 108.102C12.7274 108.252 12.6547 108.417 12.6115 108.592C12.5796 108.703 12.5859 108.822 12.6296 108.929C12.6732 109.036 12.7515 109.125 12.8518 109.181C12.9001 109.199 12.9518 109.206 13.0031 109.201C13.0545 109.196 13.1039 109.179 13.1478 109.152C13.1917 109.125 13.2288 109.088 13.2564 109.044C13.2839 109.001 13.3012 108.951 13.3068 108.9C13.3479 108.715 13.365 108.525 13.3578 108.336Z" fill="#263238"/>
<path d="M18.3484 108.12C18.2392 107.904 18.1628 107.817 18.0172 107.849C17.8716 107.882 17.8315 108.062 17.8061 108.248C17.7789 108.437 17.7789 108.628 17.8061 108.816C17.8102 108.869 17.8248 108.921 17.8491 108.968C17.8734 109.015 17.9069 109.057 17.9476 109.091C17.9884 109.126 18.0355 109.151 18.0862 109.167C18.1369 109.182 18.1901 109.187 18.2429 109.182C18.3474 109.142 18.4334 109.064 18.4839 108.964C18.5344 108.864 18.5458 108.748 18.5159 108.64C18.4842 108.46 18.4279 108.285 18.3484 108.12Z" fill="#263238"/>
<path d="M10.0848 104.157C10.1321 103.922 10.1357 103.791 10.012 103.673C9.88821 103.556 9.75353 103.608 9.62613 103.673C9.49207 103.761 9.37793 103.875 9.29124 104.01C9.23423 104.113 9.21193 104.232 9.22768 104.349C9.24343 104.465 9.29638 104.574 9.3786 104.658C9.4104 104.698 9.45125 104.729 9.49771 104.75C9.54416 104.771 9.59487 104.78 9.64555 104.776C9.69622 104.773 9.74538 104.758 9.78888 104.731C9.83238 104.705 9.86894 104.669 9.89549 104.625C9.98261 104.48 10.0465 104.322 10.0848 104.157Z" fill="#263238"/>
<path d="M9.47334 108.578C9.5243 108.245 9.51702 108.073 9.34594 107.927C9.17486 107.78 9.00014 107.894 8.83634 108.037C8.66155 108.186 8.51803 108.369 8.4141 108.575C8.3438 108.715 8.32035 108.875 8.34723 109.029C8.37411 109.184 8.44989 109.326 8.56334 109.435C8.61478 109.481 8.6765 109.514 8.7433 109.531C8.81009 109.548 8.87999 109.549 8.9471 109.533C9.01421 109.517 9.07654 109.485 9.12886 109.44C9.18117 109.395 9.22192 109.338 9.24766 109.274C9.35467 109.053 9.43063 108.819 9.47334 108.578Z" fill="#263238"/>
<path d="M14.7843 113.094C14.6933 112.765 14.6205 112.618 14.4203 112.596C14.2201 112.574 14.1145 112.787 14.0271 113.017C13.9467 113.254 13.899 113.5 13.8852 113.749C13.8697 113.901 13.9095 114.052 13.9973 114.176C14.085 114.3 14.2147 114.388 14.362 114.423C14.635 114.452 14.868 114.192 14.8789 113.848C14.8786 113.594 14.8468 113.34 14.7843 113.094Z" fill="#263238"/>
<path d="M20.9032 114.071C20.7212 113.705 20.5975 113.537 20.35 113.559C20.1024 113.58 20.026 113.862 19.986 114.159C19.9387 114.466 19.9387 114.778 19.986 115.085C20.0018 115.27 20.0845 115.444 20.2185 115.573C20.3526 115.701 20.5287 115.776 20.714 115.784C20.8003 115.765 20.8819 115.729 20.9536 115.677C21.0253 115.625 21.0856 115.559 21.1307 115.483C21.1758 115.407 21.2048 115.322 21.2157 115.234C21.2267 115.146 21.2195 115.056 21.1944 114.971C21.1388 114.659 21.0408 114.356 20.9032 114.071Z" fill="#263238"/>
<path d="M13.1172 101.788C13.1172 101.565 13.099 101.452 12.9752 101.375C12.8515 101.298 12.7459 101.375 12.6513 101.492C12.5523 101.607 12.4757 101.74 12.4256 101.883C12.3926 101.983 12.3926 102.09 12.4254 102.19C12.4582 102.29 12.5221 102.376 12.6076 102.436C12.6452 102.462 12.6883 102.478 12.7334 102.483C12.7784 102.488 12.824 102.482 12.8662 102.465C12.9085 102.448 12.9461 102.422 12.9758 102.388C13.0056 102.353 13.0266 102.312 13.0371 102.268C13.0858 102.112 13.1128 101.951 13.1172 101.788Z" fill="#263238"/>
<path d="M16.6195 103.183C16.5394 102.975 16.4811 102.883 16.3465 102.887C16.2118 102.89 16.1608 103.033 16.1208 103.191C16.0827 103.354 16.0704 103.522 16.0844 103.688C16.0863 103.789 16.1241 103.885 16.191 103.96C16.2578 104.034 16.3492 104.082 16.4484 104.095C16.5413 104.077 16.6237 104.023 16.6781 103.945C16.7325 103.867 16.7545 103.771 16.7396 103.677C16.7215 103.508 16.6811 103.342 16.6195 103.183Z" fill="#263238"/>
<path opacity="0.07" d="M15.8438 90.9003L20.5976 88.126L27.0186 103.776C26.7352 103.867 26.4286 103.852 26.1559 103.732C25.7919 103.6 25.3733 103.436 25.0639 103.641C24.7545 103.846 24.6999 104.329 24.7181 104.739C24.7715 106.398 24.8273 108.055 24.8855 109.709C24.9312 110.032 24.8698 110.361 24.7108 110.646C24.59 110.791 24.4302 110.897 24.2506 110.952C24.071 111.007 23.8794 111.009 23.6989 110.957C23.3391 110.845 23.0152 110.639 22.7598 110.36C22.3594 109.969 21.9044 109.482 21.3547 109.57C20.8051 109.658 20.5575 110.188 20.4265 110.668C20.2955 111.147 20.2409 111.711 19.9133 112.103C19.3309 112.791 18.1552 112.608 17.5145 111.975C16.8739 111.341 16.6227 110.419 16.3861 109.552C16.1495 108.684 15.862 107.762 15.1776 107.173C15.1367 107.127 15.0849 107.092 15.027 107.071C14.9691 107.051 14.907 107.045 14.8464 107.056C14.7044 107.103 14.6717 107.279 14.6025 107.421C14.3768 107.864 13.6634 107.788 13.3394 107.421C13.0533 107.007 12.9242 106.503 12.9754 106.001C13.0297 105.503 12.9545 104.998 12.757 104.537C12.7023 104.426 12.6213 104.33 12.5211 104.257C12.4208 104.184 12.3044 104.137 12.1819 104.12C11.8179 104.12 11.5522 104.486 11.3192 104.768C10.9289 105.257 10.4279 105.645 9.85797 105.9C9.28807 106.155 8.66584 106.268 8.04324 106.232C7.78706 106.225 7.53679 106.153 7.31524 106.023C7.13801 105.904 7.00296 105.731 6.9294 105.529L15.8438 90.9003Z" fill="white"/>
<path opacity="0.07" d="M15.844 90.9003L20.5978 88.126L24.0449 96.544C23.7453 96.6058 23.472 96.7592 23.2623 96.9832C22.7964 97.5175 22.9456 98.3447 23.2223 98.9962C23.4989 99.6477 23.892 100.303 23.8302 101.013C23.8215 101.141 23.7855 101.266 23.7246 101.379C23.6085 101.521 23.454 101.627 23.2798 101.683C23.1055 101.74 22.9187 101.745 22.7418 101.697C22.3859 101.596 22.0193 101.539 21.6498 101.525C20.8745 101.584 20.3685 102.393 20.1938 103.158C20.1495 103.517 20.0474 103.867 19.8917 104.193C19.8091 104.355 19.6726 104.482 19.5062 104.552C19.3398 104.622 19.1541 104.631 18.9817 104.578C18.7842 104.464 18.6314 104.286 18.5485 104.073C18.2345 103.46 17.981 102.817 17.7914 102.155C17.6458 101.65 17.5148 101.09 17.0962 100.771C16.8544 100.615 16.5719 100.533 16.2842 100.538C15.9966 100.542 15.7167 100.633 15.48 100.797C15.1706 100.987 14.7993 101.273 14.4863 101.079C14.4067 101.015 14.3412 100.935 14.2942 100.844C14.2472 100.754 14.2196 100.654 14.2133 100.552C14.136 100.078 14.1596 99.5923 14.2824 99.1279C14.3443 98.901 14.4208 98.6338 14.2824 98.4545C14.1973 98.3644 14.0818 98.3096 13.9585 98.3008C13.3288 98.2166 12.79 98.718 12.3423 99.1682C11.8946 99.6184 11.3086 100.091 10.6934 99.9331C10.5951 99.9082 10.5056 99.8563 10.435 99.7831L15.844 90.9003Z" fill="white"/>
<path opacity="0.07" d="M15.8432 90.9003L20.5971 88.126L22.6318 93.0889C22.5541 93.2541 22.4351 93.3963 22.2865 93.5015C22.1378 93.6066 21.9646 93.6713 21.7837 93.6892C21.296 93.7111 20.7791 93.3232 20.3605 93.5647C20.0365 93.7551 19.9965 94.2016 19.9965 94.5749C19.9771 95.2513 19.9176 95.926 19.8181 96.5952C19.7925 96.8501 19.7209 97.0981 19.607 97.3272C19.5481 97.44 19.4618 97.536 19.3562 97.6064C19.2506 97.6767 19.129 97.7192 19.0028 97.7298C18.5405 97.7298 18.2748 97.2211 18.02 96.8368C17.9637 96.7429 17.8848 96.6649 17.7906 96.6099C17.6628 96.5673 17.5238 96.5741 17.4007 96.6289C17.2776 96.6837 17.1791 96.7826 17.1245 96.9063C17.0216 97.1569 16.9424 97.4167 16.8879 97.6822C16.7573 98.0907 16.4812 98.4361 16.1126 98.6521C16.0296 98.7102 15.9296 98.7386 15.8287 98.7327C15.6285 98.7034 15.5338 98.4691 15.4938 98.2715C15.3118 97.2723 15.5957 96.2219 15.33 95.241C15.279 95.0507 15.1626 94.8311 14.966 94.8274C14.8847 94.8324 14.8065 94.8603 14.7403 94.908C14.4254 95.1666 14.1331 95.4519 13.8667 95.7607C13.5646 96.0352 13.0878 96.2109 12.7565 95.973L15.8432 90.9003Z" fill="white"/>
<path opacity="0.35" d="M20.6014 88.126L16.8886 91.1455L26.8877 122.314L15.8476 90.9003L20.6014 88.126Z" fill="white"/>
<path d="M107.765 19.9917C110.167 20.2955 111.951 21.0897 113.462 23.875C114.19 25.2548 114.19 26.8798 115.096 28.1572C115.678 28.9697 117.243 29.6761 118.132 30.1336C120.651 31.4402 121.473 34.123 120.68 36.6594C120.439 37.4206 119.984 38.1014 119.817 38.881C119.22 42.1128 122.729 44.005 124.185 46.4389C124.96 47.7345 125.219 49.5206 124.261 50.6881C123.573 51.5263 122.42 51.8593 121.713 52.6792C120.028 54.6446 121.793 57.9642 120.458 60.1822C117.993 63.8422 112.566 60.442 109.297 62.3489C108.416 62.8576 107.754 63.6885 106.869 64.1789C103.535 65.8479 99.3638 63.4908 97.7258 60.4164C97.4419 59.8857 97.1944 59.3001 96.7175 58.9524C95.9677 58.3815 94.8975 58.5205 94.0603 58.0521C91.2029 55.9842 94.468 52.4303 94.7264 49.872C94.9012 47.7016 93.376 45.7837 92.9319 43.65C91.9746 39.0054 95.6728 37.794 97.1762 34.3938C98.1189 31.4878 95.2251 26.7957 98.6722 24.951C99.7642 24.585 100.365 23.3004 101.184 22.3671C102.476 20.2186 105.024 19.4976 107.765 19.9917Z" fill="#263238"/>
<g opacity="0.99">
<g opacity="0.99">
<path opacity="0.99" d="M49.6958 53.8019C49.5393 51.9536 49.7868 51.9316 50.1544 51.5107C50.5221 51.0898 51.5922 51.1447 51.5922 51.1447C51.5922 51.1447 51.6286 50.4127 51.6541 50.1748C51.6904 49.83 51.7636 49.4901 51.8725 49.161C51.9052 49.0738 51.9627 48.9982 52.0377 48.9435C52.1128 48.8889 52.2022 48.8576 52.2947 48.8536C52.425 48.8529 52.5552 48.8614 52.6842 48.8792C53.9364 49.1244 54.3586 50.3432 54.6316 51.4412C55.3596 54.2923 54.4715 55.5477 55.5016 58.3183C56.0585 59.8262 56.5608 60.4192 57.0158 60.7632C57.8275 61.1036 57.2779 57.3265 58.9487 55.8698C59.7786 55.1378 60.674 55.5733 60.5539 57.0995C60.3355 59.8885 61.1618 62.1394 60.7286 64.1267C60.2955 66.1141 59.5383 67.6037 61.0526 70.9636C62.4867 74.1405 65.2895 77.9542 66.1486 79.0412C66.1486 79.0412 68.591 74.9164 74.1566 64.9905C77.1195 59.6981 81.0325 55.5916 86.1213 55.7307L86.3906 72.9913C82.4688 79.2853 78.2161 85.3646 73.6506 91.2034C69.9924 95.8882 64.041 99.4421 59.9642 91.6426C59.451 90.6947 58.9159 89.6443 58.3772 88.5463C54.9592 81.7643 53.7253 76.2779 52.5969 73.1743C51.1409 69.1483 50.2054 68.1674 48.5455 65.0234C47.6719 63.3728 47.894 62.0954 47.7302 60.1007C47.5227 57.5387 48.1451 56.7226 48.6111 56.6384C48.2398 54.7169 49.168 54.0361 49.6958 53.8019Z" fill="#FCBF87"/>
<path opacity="0.99" d="M49.5612 56.917C49.8252 57.1461 50.0195 57.4455 50.1218 57.7808C50.2292 58.1025 50.2928 58.4374 50.3111 58.7763L50.3802 59.7572L50.4348 60.7344C50.4402 61.0514 50.4731 61.3674 50.5331 61.6787C50.7296 62.3011 50.9605 62.9121 51.2247 63.5087C50.8296 62.9763 50.5053 62.3943 50.2601 61.7775C50.1691 61.4514 50.113 61.1164 50.0927 60.7783C50.0599 60.4489 50.0417 60.1232 50.0162 59.7938L49.9689 58.8129C49.9634 58.4973 49.9243 58.1832 49.8524 57.8759C49.7857 57.5745 49.6442 57.295 49.4411 57.0634C49.22 56.8335 48.9214 56.6951 48.6039 56.6754C48.7714 56.649 48.9425 56.6568 49.107 56.6983C49.2715 56.7398 49.426 56.8142 49.5612 56.917ZM50.4239 53.8023C50.2082 53.7322 49.977 53.7258 49.7578 53.784C49.9742 53.6845 50.2171 53.6588 50.4494 53.7108C50.6873 53.777 50.8978 53.9181 51.05 54.1134C51.3296 54.502 51.5266 54.9443 51.6288 55.4127C51.8248 56.3257 51.9658 57.2497 52.051 58.1797C52.0947 58.6409 52.1347 59.1057 52.1638 59.5705V59.9182L52.1857 60.0646L52.2257 60.2183C52.2927 60.4332 52.3705 60.6445 52.4587 60.8515C52.637 61.2724 52.8445 61.6823 53.0557 62.0922C53.2668 62.5021 53.4852 62.9121 53.6963 63.3257C53.1338 62.5836 52.6345 61.7951 52.2039 60.9686C52.091 60.7587 51.996 60.5395 51.92 60.3135L51.8654 60.1341L51.8326 59.9365L51.8035 59.5961C51.7634 59.135 51.7234 58.6738 51.6724 58.2163C51.5778 57.3013 51.4868 56.3863 51.3448 55.475C51.2789 55.0305 51.1255 54.6037 50.8935 54.2196C50.7846 54.0342 50.6203 53.8882 50.4239 53.8023Z" fill="#F28F8F"/>
<path opacity="0.99" d="M56.1748 61.4883C55.2102 62.9742 54.3111 65.9791 55.3958 69.3683C52.9279 66.4 53.9908 62.4289 56.1748 61.4883Z" fill="#F28F8F"/>
<path opacity="0.99" d="M66.1562 79.0558C69.0355 82.5804 71.1175 85.4023 71.0775 87.9386C72.0894 84.6227 70.1384 81.2701 66.7313 78.0566L66.1562 79.0558Z" fill="#F28F8F"/>
</g>
</g>
<path d="M77.9682 94.6154C77.4668 95.7833 77.0685 96.9934 76.7779 98.2314C76.7779 98.2314 74.5102 106.221 87.8908 108.845C98.7052 110.957 109.916 108.82 113.971 105.057C112.901 101.328 111.886 98.3486 110.819 94.6044C110.819 94.6044 112.119 87.0062 113.502 80.8647C114.83 74.9575 114.729 64.5668 114.496 62.81C114.496 62.81 111.387 59.2488 107.128 58.2716L86.2601 55.8633C84.3272 55.8926 79.85 61.8108 75.3401 68.9295C72.8321 72.8896 71.9367 78.4125 77.7789 84.1478C78.0264 88.6313 77.9682 94.6154 77.9682 94.6154Z" fill="#FCBF87"/>
<path d="M81.7937 101.577C81.7937 101.519 81.8229 101.464 81.8374 101.409C81.8817 101.277 81.9352 101.149 81.9976 101.025C82.074 100.875 82.1655 100.734 82.2706 100.604C82.391 100.463 82.5307 100.339 82.6855 100.238C82.7924 100.163 82.9043 100.096 83.0204 100.036C82.9549 99.9632 82.893 99.89 82.8202 99.8204C82.6127 99.6301 82.2924 99.524 82.3543 99.1836C82.3648 99.0961 82.4019 99.014 82.4606 98.9485C82.5192 98.883 82.5965 98.8373 82.6819 98.8176C83.0896 98.7627 83.4863 99.0921 83.7521 99.3739C83.9579 99.5754 84.1073 99.8279 84.1852 100.106C84.287 100.528 84.3018 100.966 84.2289 101.394C84.1954 101.594 84.1392 101.789 84.0615 101.976C84.0072 102.158 83.9008 102.32 83.7557 102.441C83.6902 102.485 83.6429 102.36 83.6429 102.317C83.6429 102.13 83.6938 101.951 83.7084 101.771C83.7229 101.629 83.7229 101.485 83.7084 101.343C83.6853 101.145 83.6261 100.952 83.5337 100.776L83.4754 100.681H83.4536C83.283 100.746 83.1185 100.827 82.9622 100.922C82.8172 101.02 82.6819 101.131 82.5581 101.255C82.441 101.382 82.3385 101.522 82.2524 101.672C82.2051 101.757 82.165 101.844 82.1141 101.929C82.0631 102.013 82.0485 102.068 81.9794 102.104C81.852 102.17 81.7792 102.024 81.7828 101.918C81.7865 101.811 81.7828 101.782 81.7828 101.713C81.7828 101.643 81.7865 101.621 81.7937 101.577Z" fill="#FFA552"/>
<path d="M110.91 58.107L101.344 55.4718C94.7228 55.4242 86.2561 55.7317 86.2561 55.7317C84.3306 55.7536 79.6241 61.1851 75.1105 68.3111C72.6025 72.2675 71.7908 78.5335 77.6293 84.2723C77.6621 85.3703 77.9715 88.8656 77.9715 88.8656C79.2309 92.3939 95.5782 99.2674 111.758 89.4C111.758 89.4 113.247 83.4013 113.771 80.616C115.766 70.024 116.432 65.0281 115.642 62.4441C115.03 60.4311 114.073 59.4173 110.91 58.107Z" fill="#EBEBEB"/>
<path d="M88.6662 84.3092C88.6662 84.3092 90.9085 87.9692 96.4777 87.9362C102.047 87.9033 105.25 83.9761 106.306 80.6162C106.306 80.6162 105.792 88.6316 97.2821 89.6381C90.2787 90.4543 88.6662 84.3092 88.6662 84.3092Z" fill="#E0E0E0"/>
<path d="M104.66 49.7763C105.57 47.2619 108.785 44.3998 110.976 40.9704C114.205 35.9196 112.483 26.5427 107.496 25.3312C107.496 25.3312 107.168 21.0637 99.5608 19.0397C91.7785 16.9754 84.7351 19.2922 81.9032 24.4089C78.8383 29.9501 81.6775 34.2909 81.6775 34.2909L104.66 49.7763Z" fill="#37474F"/>
<path d="M85.7574 51.4229C87.4572 52.1649 89.3049 52.5006 91.1555 52.4038L90.948 56.0016C89.0244 57.6421 87.5036 59.7072 86.5041 62.0358C85.5046 64.3644 85.0535 66.8937 85.1859 69.4264C96.7829 67.4427 104.023 55.9467 104.023 55.9467L104.634 44.2859C105.152 44.556 105.727 44.6971 106.311 44.6971C106.894 44.6971 107.469 44.556 107.987 44.2859C111.263 42.6499 111.532 37.7748 109.763 35.9521C107.994 34.1294 105.792 34.5649 103.888 37.1379C103.193 38.0822 102.767 38.6605 101.963 38.3238C100.143 37.5698 101.759 34.327 101.02 33.4084C96.3279 31.6223 99.1416 27.051 96.0659 26.0335C93.2085 25.0892 91.1373 27.3035 89.7104 27.0912C88.4291 26.8972 88.0542 25.2612 86.4854 25.3857C85.775 25.4442 85.1047 25.7406 84.5816 26.2275C83.5065 27.2692 82.7177 28.5729 82.2921 30.0119C81.848 31.3844 81.5932 32.9399 81.717 35.6849C81.6223 36.7829 81.1746 38.3164 81.0873 39.7878C80.7196 45.7499 82.3831 50.0431 85.7574 51.4229Z" fill="#FCBF87"/>
<path d="M91.1555 52.4046C93.6743 52.1008 100.124 51.4237 102.629 45.7324C102.629 45.7324 102.694 48.3164 100.248 50.8345C97.8021 53.3525 91.0535 54.209 91.0535 54.209L91.1555 52.4046Z" fill="#FFA552"/>
<path d="M83.5484 33.537L86.373 32.472C86.3123 32.2838 86.2143 32.11 86.0849 31.961C85.9555 31.812 85.7974 31.6909 85.6201 31.605C85.4429 31.5192 85.2502 31.4703 85.0536 31.4614C84.8571 31.4525 84.6608 31.4838 84.4766 31.5533C84.0992 31.7022 83.7927 31.9906 83.6201 32.3595C83.4475 32.7284 83.4218 33.1497 83.5484 33.537Z" fill="#263238"/>
<path d="M96.2076 34.895L93.616 33.2663C93.7117 33.0899 93.8426 32.9353 94.0004 32.812C94.1582 32.6887 94.3395 32.5993 94.5331 32.5496C94.7267 32.4998 94.9284 32.4906 95.1257 32.5226C95.323 32.5546 95.5116 32.6271 95.6798 32.7356C96.0263 32.9588 96.2743 33.3074 96.3726 33.7093C96.4708 34.1112 96.4117 34.5356 96.2076 34.895Z" fill="#263238"/>
<path d="M89.8047 35.0159L88.3196 42.3359L84.5158 40.5059C86.4923 37.4864 88.6435 34.5876 89.8047 35.0159Z" fill="#FFA552"/>
<path d="M95.1963 36.8202C95.1963 37.5119 94.643 36.6115 93.9478 36.6445C93.2525 36.6774 92.692 37.629 92.6774 36.9409C92.6742 36.604 92.8009 36.2789 93.031 36.0339C93.2611 35.7889 93.5766 35.6431 93.9114 35.627C94.0743 35.6176 94.2375 35.6413 94.3911 35.6967C94.5448 35.7521 94.6858 35.838 94.8057 35.9494C94.9256 36.0607 95.022 36.1952 95.0891 36.3448C95.1562 36.4944 95.1926 36.6561 95.1963 36.8202Z" fill="#263238"/>
<path d="M86.0709 36.4212C85.8925 37.0873 85.594 36.0552 84.917 35.9015C84.24 35.7478 83.4392 36.4908 83.6175 35.8246C83.7088 35.5007 83.9213 35.2249 84.2103 35.055C84.4994 34.8851 84.8427 34.8343 85.1682 34.9133C85.3274 34.95 85.4777 35.0186 85.61 35.115C85.7423 35.2114 85.8539 35.3336 85.9382 35.4744C86.0224 35.6152 86.0776 35.7715 86.1004 35.9342C86.1232 36.0969 86.1132 36.2625 86.0709 36.4212Z" fill="#263238"/>
<path d="M88.8111 45.1686C89.3571 45.0954 90.5765 44.7769 90.4855 44.2719C90.3617 43.7248 90.3729 43.1556 90.5183 42.6139C90.5656 42.4968 90.6457 42.6505 90.6457 42.7237C90.6166 44.4073 92.0762 46.1531 93.8926 46.1897C93.9181 46.1897 93.9363 46.2483 93.8926 46.2556C93.5017 46.3207 93.1018 46.3069 92.7163 46.2152C92.3307 46.1235 91.9671 45.9555 91.6467 45.7212C91.3118 45.4614 91.0971 45.1832 90.6166 45.2418C89.6338 45.3991 88.1414 45.8127 87.4243 44.9636C87.8644 45.1395 88.3393 45.2097 88.8111 45.1686Z" fill="#B16668"/>
<path d="M93.4124 42.9106C93.1904 42.9765 93.0739 42.9838 92.9647 42.8448C92.8555 42.7057 92.9246 42.5483 93.012 42.3982C93.0994 42.2443 93.2156 42.1089 93.3542 41.9993C93.3979 41.9649 93.4479 41.9396 93.5014 41.9246C93.5549 41.9097 93.6108 41.9055 93.6659 41.9123C93.721 41.9191 93.7742 41.9368 93.8225 41.9643C93.8708 41.9917 93.9133 42.0285 93.9475 42.0725C93.9817 42.1165 94.0069 42.1668 94.0217 42.2206C94.0366 42.2744 94.0407 42.3305 94.034 42.3859C94.0272 42.4413 94.0097 42.4949 93.9823 42.5434C93.955 42.592 93.9184 42.6347 93.8747 42.6691C93.7347 42.7743 93.5785 42.8559 93.4124 42.9106Z" fill="#263238"/>
<path d="M93.74 44.9345C93.5944 44.7552 93.5435 44.6491 93.6272 44.499C93.7109 44.3489 93.882 44.3453 94.0567 44.3672C94.2303 44.3917 94.398 44.4475 94.5518 44.5319C94.6007 44.5587 94.6438 44.595 94.6786 44.6387C94.7135 44.6824 94.7392 44.7326 94.7545 44.7865C94.7698 44.8403 94.7742 44.8967 94.7675 44.9523C94.7608 45.0079 94.7431 45.0616 94.7156 45.1102C94.6886 45.1591 94.6523 45.2021 94.6088 45.2368C94.5653 45.2715 94.5154 45.2973 94.462 45.3126C94.4086 45.3279 94.3527 45.3324 94.2975 45.326C94.2423 45.3195 94.1889 45.3022 94.1405 45.2749C93.9881 45.1861 93.8525 45.0709 93.74 44.9345Z" fill="#263238"/>
<path d="M85.7322 44.6122C85.8924 44.7769 85.9542 44.8794 85.8851 45.0367C85.8159 45.1941 85.6412 45.2124 85.4665 45.2051C85.2911 45.1967 85.1185 45.1571 84.9569 45.088C84.906 45.0639 84.8603 45.0301 84.8224 44.9883C84.7845 44.9465 84.7552 44.8976 84.7361 44.8444C84.717 44.7912 84.7085 44.7348 84.7111 44.6783C84.7137 44.6218 84.7273 44.5664 84.7512 44.5152C84.7751 44.464 84.8088 44.418 84.8504 44.38C84.8919 44.3419 84.9406 44.3124 84.9935 44.2932C85.0464 44.274 85.1025 44.2654 85.1587 44.268C85.2149 44.2707 85.27 44.2844 85.3209 44.3084C85.4739 44.3858 85.6129 44.4885 85.7322 44.6122Z" fill="#263238"/>
<path d="M85.4631 46.3471C85.6815 46.2629 85.7943 46.2446 85.9145 46.3727C86.0346 46.5008 85.9763 46.6655 85.9145 46.8229C85.8391 46.9831 85.7355 47.1282 85.6087 47.2511C85.5668 47.2889 85.5178 47.3179 85.4646 47.3365C85.4115 47.3551 85.3552 47.363 85.299 47.3596C85.2428 47.3562 85.1878 47.3416 85.1373 47.3167C85.0867 47.2918 85.0416 47.2571 85.0045 47.2145C84.9667 47.1737 84.9373 47.1257 84.9179 47.0735C84.8986 47.0212 84.8896 46.9656 84.8917 46.9098C84.8937 46.8541 84.9066 46.7993 84.9297 46.7486C84.9528 46.6979 84.9856 46.6522 85.0263 46.6143C85.1572 46.5029 85.3046 46.4128 85.4631 46.3471Z" fill="#263238"/>
<path d="M72.5917 140.889C75.1797 141.017 76.5374 141.485 77.3892 143.747C78.241 146.009 77.4474 147.773 79.424 150.749C81.9319 154.497 82.5653 157.194 81.8882 161.077C81.2112 164.96 80.1046 167.779 77.5566 169.912C75.0086 172.046 72.1221 172.218 70.8918 170.853C69.6615 169.488 69.8326 167.35 69.7998 165.601C69.767 163.852 72.5917 140.889 72.5917 140.889Z" fill="#263238"/>
<path d="M60.8057 100.745C47.8619 100.778 36.9929 101.949 33.5057 104.167C30.6229 106.016 29.4435 108.559 30.055 112.644C30.6665 116.728 32.9525 120.828 39.1405 126.936C45.6488 133.348 61.3444 146.788 64.4676 149.785C67.5907 152.783 68.8356 160.399 69.0613 164.557C69.2869 168.715 69.5963 170.175 71.9733 170.329C74.3502 170.483 77.2513 168.638 79.1659 165.253C81.0805 161.867 81.3826 157.248 80.1596 154.558C78.9366 151.868 76.7926 149.8 76.7926 147.48C76.8073 146.314 76.5345 145.162 75.9983 144.128C75.4622 143.094 74.6796 142.21 73.7204 141.554C71.7294 140.247 68.7482 140.171 66.9865 137.938C65.2247 135.705 59.6191 125.37 59.6191 125.37L72.7231 127.167C72.7231 127.167 74.3574 101.331 60.8057 100.745Z" fill="#FCBF87"/>
<path d="M59.6228 125.37C58.1231 122.782 56.2558 118.968 54.6142 116.586C52.9725 114.203 49.5473 111.293 47.1158 110.298C53.0308 112.003 55.6625 114.906 58.236 118.434C59.9331 120.802 61.4831 123.274 62.877 125.835L59.6228 125.37Z" fill="#FFA552"/>
<path d="M76.5484 168.515C75.42 169.195 73.9531 168.91 73.5017 168.229C73.0503 167.548 73.276 166.19 73.6691 164.997C74.0623 163.804 73.5017 161.652 74.1787 159.214C74.8558 156.777 78.2374 153.428 78.0117 150.818C77.786 148.209 76.825 147.931 76.825 147.931C77.3128 150.354 75.6457 153.033 74.5173 154.79C73.3889 156.546 72.4861 159.95 72.2605 161.253C72.0348 162.556 69.0463 160.521 68.3693 158.816L67.8597 156.832C67.8597 156.832 67.5212 159.028 68.3111 160.631C69.1009 162.234 71.4706 163.295 72.2022 163.925C72.9339 164.554 73.1049 165.967 73.1049 165.967C73.1049 165.967 72.7664 167.665 73.3306 168.46C73.8948 169.254 75.3617 169.364 76.5484 168.515Z" fill="#263238"/>
<path d="M68.9876 112.626C70.9642 121.223 68.2269 127.229 68.2269 127.229L72.7077 127.668L73.3957 126.658L74.5932 124.905C75.8709 123.046 77.8874 119.561 83.9371 119.177C85.1056 119.104 86.4851 119.038 87.9411 118.979H88.003C88.3988 118.945 88.7961 118.932 89.1933 118.939H89.2442C93.5795 119.027 100.059 121.391 101.66 128.36C103.116 134.75 101.056 139.461 101.056 139.461C101.056 139.461 109.366 138.689 114.382 129.528C119.398 120.367 115.591 108.417 113.636 103.97C110.556 107.066 97.1321 110.335 88.3379 108.603C78.8302 106.733 76.4496 102.206 76.7481 98.209C75.7107 99.7498 72.482 100.13 60.7831 100.749C60.8049 100.745 67.0148 104.032 68.9876 112.626Z" fill="#455A64"/>
<path d="M70.3634 127.438L72.7149 127.669L73.3955 126.662L74.5931 124.909C75.8708 123.05 77.8873 119.566 83.937 119.181C85.1054 119.108 86.485 119.042 87.941 118.984L89.1932 118.94H89.2441C95.0681 118.735 101.66 118.658 101.66 118.658C101.66 118.658 89.3679 117.827 85.1236 117.56C82.703 117.403 80.7738 117.593 79.1613 118.219C77.4629 116.168 76.4627 113.625 76.3075 110.961C76.3075 110.961 75.605 115.507 77.3995 119.17C76.8865 119.537 76.4132 119.956 75.9872 120.422C74.2837 122.289 71.8813 125.425 70.9422 126.67C70.7092 127.003 70.3634 127.438 70.3634 127.438Z" fill="#37474F"/>
<path d="M111.966 105.174C111.966 105.174 112.097 105.679 112.166 105.939C113.312 110.331 114.885 116.384 114.088 121.779C113.029 128.957 108.559 134.479 101.792 137.03C101.846 136.767 101.901 136.481 101.948 136.178C108.311 133.641 112.355 128.528 113.367 121.673C114.142 116.425 112.592 110.47 111.46 106.125L111.3 105.514L111.966 105.174Z" fill="#37474F"/>
<path d="M58.4317 145.881C55.9638 145.947 52.9499 148.443 51.0425 149.826C49.1352 151.21 44.6616 152.754 39.8932 154.921C35.1248 157.088 33.6142 158.105 32.0709 161.348C30.2509 165.143 33.8654 169.557 40.6431 170.088C46.4234 170.542 49.3791 167.932 51.9271 165.414C54.4751 162.896 57.2305 159.599 60.5721 157.439C63.9136 155.28 67.0039 146.181 58.4317 145.881Z" fill="#263238"/>
<path d="M101.147 139.282C102.369 135.768 102.555 131.974 101.682 128.356C100.081 121.402 93.6017 119.023 89.2665 118.936H89.2155C88.8183 118.928 88.421 118.942 88.0252 118.976H87.9633C86.5073 119.034 85.1132 119.1 83.9593 119.174C77.9097 119.558 75.8931 123.042 74.6155 124.901L73.4179 126.655L72.7299 127.665C70.5459 130.571 60.5323 143.919 59.0727 145.438C57.613 146.957 56.3863 146.96 53.8092 149.043C51.2321 151.125 46.784 153.047 43.0384 154.452C39.2929 155.858 36.2389 157.234 34.1896 159.463C32.497 161.293 33.4616 163.749 35.4017 163.489C35.1215 163.884 35.0377 165.842 35.9805 166.57C39.2856 169.162 43.508 170.329 47.6503 167.738C51.7927 165.147 52.7864 162.962 54.9303 161.443C57.0743 159.924 60.4195 157.161 63.6663 155.192C66.9132 153.222 77.269 148.066 81.9755 145.533C86.6821 143 88.8915 140.595 88.8915 140.595C88.8915 140.595 97.744 140.215 101.147 139.282Z" fill="#FCBF87"/>
<path d="M65.974 152.256C68.7914 150.792 78.2663 146.294 84.538 142.191C90.8097 138.088 91.9199 134.289 91.9199 134.289C91.9199 134.289 91.1919 137.949 88.8587 140.592C88.8587 140.592 86.6747 142.993 81.9427 145.529C77.2107 148.065 66.884 153.215 63.6335 155.188L55.2615 161.212C58.0024 158.621 63.1639 153.72 65.974 152.256Z" fill="#FFA552"/>
<path d="M34.7723 163.621C34.8798 162.954 35.2415 162.355 35.7806 161.952C36.7559 161.112 37.5278 160.059 38.0374 158.874C38.8054 157.172 40.3197 155.701 42.1943 154.46C44.411 152.868 45.6814 152.868 46.049 153.237C43.89 154.286 41.9674 155.769 40.3997 157.593C39.0274 159.185 38.8418 160.7 39.1075 161.443C39.3733 162.186 42.5655 163.753 47.738 163.01C52.9104 162.267 55.6622 160.832 57.7734 159.452C57.5623 160.459 55.3456 161.787 54.3409 162.53C53.3363 163.273 50.9776 163.972 47.4904 164.503C44.6441 164.894 41.7455 164.506 39.1003 163.379C37.5205 162.673 36.0317 162.856 35.311 164.291C35.271 164.368 35.2346 164.452 35.1982 164.532C35.0633 164.423 34.9548 164.284 34.8811 164.126C34.8073 163.968 34.7701 163.795 34.7723 163.621Z" fill="#263238"/>
<path d="M67.3791 57.126C67.3791 60.248 69.9635 60.215 69.9635 60.215C69.9635 60.215 68.3764 62.5391 69.665 63.7689C70.9535 64.9986 71.849 64.6326 71.849 64.6326C71.849 64.6326 70.4694 66.2284 71.8162 67.7583C72.8391 68.9221 74.3642 68.4903 74.3642 68.4903C74.3642 68.4903 73.8 70.4154 75.4562 71.1474C77.1124 71.8794 78.674 69.6834 78.674 69.6834C78.674 69.6834 79.4894 72.2088 82.7617 71.1474C82.7617 71.1474 78.725 75.9713 72.8427 73.8119C66.9605 71.6525 64.9839 60.3175 67.3791 57.126Z" fill="#FF6969"/>
<path opacity="0.15" d="M67.3791 57.126C67.3791 60.248 69.9635 60.215 69.9635 60.215C69.9635 60.215 68.3764 62.5391 69.665 63.7689C70.9535 64.9986 71.849 64.6326 71.849 64.6326C71.849 64.6326 70.4694 66.2284 71.8162 67.7583C72.8391 68.9221 74.3642 68.4903 74.3642 68.4903C74.3642 68.4903 73.8 70.4154 75.4562 71.1474C77.1124 71.8794 78.674 69.6834 78.674 69.6834C78.674 69.6834 79.4894 72.2088 82.7617 71.1474C82.7617 71.1474 78.725 75.9713 72.8427 73.8119C66.9605 71.6525 64.9839 60.3175 67.3791 57.126Z" fill="black"/>
<path d="M99.9568 76.3594C101.413 78.6396 101.413 83.1816 101.169 84.2174C97.5654 88.6716 89.9905 94.319 79.4782 95.4573C68.9659 96.5955 99.9568 76.3594 99.9568 76.3594Z" fill="#37474F"/>
<path d="M91.9203 91.6252C94.3278 90.3468 96.5668 88.7705 98.5851 86.9331C99.5898 84.9348 100.733 81.3882 99.9465 76.3594C99.7536 79.024 99.0724 81.6298 97.9372 84.0454C96.6523 86.9002 93.6857 89.9599 91.9203 91.6252Z" fill="#263238"/>
<path d="M66.7389 91.6356C84.4585 103.274 97.9665 83.8874 99.7246 76.2233L86.4131 68.3617C86.0445 68.8048 85.5684 69.1448 85.0308 69.3487C84.4933 69.5526 83.9125 69.6135 83.3446 69.5255C83.3774 71.824 80.1014 73.2587 78.4415 71.48C78.1898 71.9832 77.7955 72.4002 77.3084 72.6784C76.8212 72.9565 76.263 73.0833 75.7043 73.0428C73.5749 72.9001 72.7559 71.7069 72.7304 70.371C71.7439 70.8944 70.0732 70.4332 69.3852 69.5475C68.6973 68.6618 68.7009 66.9562 69.4398 66.1071C68.7337 66.1071 67.7545 65.4007 67.3577 64.8115C66.3604 63.3292 66.8736 62.0994 67.7217 61.0526C66.4223 60.295 66.7244 58.5089 67.3577 57.1255L54.3593 49.4395C54.3593 49.4395 46.2967 78.2071 66.7389 91.6356Z" fill="#FF6969"/>
<path opacity="0.07" d="M63.8735 72.5305C63.1091 71.7985 62.1518 71.2751 61.5075 70.437C60.8633 69.5989 60.6813 68.241 61.5075 67.5712C61.7736 67.4132 62.0183 67.2213 62.2355 67.0003C62.625 66.4622 62.2355 65.7193 61.8351 65.1703L59.8149 62.4033C59.4353 61.9633 59.1679 61.4369 59.036 60.8698C58.9523 60.2951 59.2325 59.618 59.7895 59.468C59.9942 59.4332 60.2008 59.4112 60.4083 59.4021C61.2163 59.274 61.7223 58.4029 61.7696 57.5721C61.8169 56.7413 61.5221 55.9617 61.3292 55.1638C61.1725 54.611 61.1304 54.0318 61.2054 53.4619L67.3752 57.1219C66.7273 58.5054 66.4252 60.2915 67.7392 61.0491C66.8802 62.0959 66.3706 63.3256 67.3752 64.8079C67.772 65.3972 68.7511 66.1109 69.4573 66.1036C68.7293 66.9527 68.7293 68.6656 69.4027 69.544C70.0761 70.4224 71.7614 70.8908 72.7479 70.3675C72.7733 71.7034 73.5923 72.8965 75.7217 73.0393C76.2789 73.0786 76.8353 72.9516 77.3209 72.6743C77.8066 72.3969 78.2 71.9814 78.4517 71.4801C80.1116 73.2589 83.3876 71.8241 83.3548 69.5257C83.9227 69.6136 84.5035 69.5527 85.041 69.3488C85.5786 69.1449 86.0547 68.8049 86.4233 68.3618L92.2109 71.7802C91.938 72.1487 91.5556 72.4205 91.1189 72.5561C90.0015 72.9587 88.7857 72.9221 87.6063 73.0649C86.427 73.2076 85.1785 73.5517 84.4395 74.485C83.8098 75.2828 83.6642 76.3516 83.5841 77.3654C83.5041 78.3792 83.4567 79.4406 82.969 80.33C82.4812 81.2194 81.3819 81.8708 80.4428 81.4902C79.7731 81.2157 79.2271 80.4654 78.5136 80.6045C78.2956 80.6763 78.0975 80.799 77.9356 80.9625C77.7736 81.1259 77.6524 81.3256 77.5818 81.5451C76.963 82.9469 77.0285 84.6122 76.2241 85.9115C76.0748 86.153 75.8601 86.4019 75.5616 86.3763C75.2631 86.3507 75.0847 86.0323 74.9755 85.7468C74.727 85.0894 74.5762 84.3988 74.5278 83.6972C74.4659 82.8005 74.364 81.611 73.4868 81.4463C72.1181 81.1864 71.5467 83.9461 70.2108 83.5874C69.7228 82.032 69.5775 80.3884 69.7849 78.7708C69.8866 78.2966 69.8977 77.8072 69.8177 77.3288C69.7716 77.0903 69.6464 76.8747 69.4626 76.7171C69.2788 76.5595 69.0472 76.4693 68.8057 76.4614C68.5063 76.522 68.2285 76.6623 68.0013 76.8676C67.2606 77.3987 66.4252 77.7814 65.5407 77.9949C64.7471 78.1852 63.808 78.1999 63.2256 77.6289C63.0145 77.3914 62.8659 77.1045 62.7934 76.7945C62.721 76.4844 62.7269 76.161 62.8107 75.8538C62.9887 75.2406 63.3051 74.6769 63.7352 74.2068C64.0228 73.8664 64.3504 73.4748 64.2303 73.0319C64.1574 72.8361 64.0343 72.6631 63.8735 72.5305Z" fill="white"/>
<path opacity="0.07" d="M67.7281 61.0526C66.8691 62.0994 66.3595 63.3291 67.3641 64.8114C67.7609 65.4007 68.7401 66.1144 69.4462 66.1071C68.7182 66.9562 68.7182 68.6691 69.3916 69.5475C70.065 70.4259 71.7503 70.8944 72.7368 70.371C72.7623 71.7069 73.5813 72.9 75.7107 73.0428C76.27 73.084 76.829 72.9576 77.3169 72.6794C77.8048 72.4012 78.1996 71.9838 78.4516 71.48C80.1114 73.2587 83.3874 71.824 83.3546 69.5255C83.9225 69.6135 84.5033 69.5525 85.0409 69.3486C85.5784 69.1447 86.0546 68.8048 86.4232 68.3616L88.589 69.639C88.614 69.6967 88.627 69.759 88.627 69.822C88.627 69.885 88.614 69.9473 88.589 70.005C88.5181 70.1136 88.4149 70.1969 88.2941 70.2429C87.0747 70.7809 85.5204 69.833 84.3739 70.5137C83.8461 70.8285 83.5512 71.4068 83.2819 71.9484C82.8438 72.9108 82.1941 73.7605 81.3818 74.4336C80.5337 75.0521 79.3361 75.29 78.4297 74.7593C78.1058 74.569 77.8073 74.2835 77.4287 74.2652C76.7007 74.2323 76.3731 75.1217 76.1293 75.8024C75.8127 76.7252 75.2406 77.5379 74.4803 78.1448C74.0181 78.5108 73.3228 78.7451 72.8824 78.3608C72.7468 78.2289 72.6413 78.0691 72.573 77.8923C72.1294 76.7849 71.9355 75.5924 72.0051 74.4006C72.0051 73.8882 72.0051 73.3209 71.6775 72.9366C71.3499 72.5523 70.611 72.5084 70.0468 72.6548C69.4826 72.8012 68.9293 73.0464 68.3506 72.9879C67.9281 72.9127 67.5384 72.71 67.2335 72.4066C66.9285 72.1032 66.7227 71.7136 66.6434 71.2896C66.4998 70.436 66.6192 69.5587 66.9856 68.7752C67.2149 68.2043 67.4952 67.5381 67.1712 67.0184C66.6871 66.2425 65.4422 66.6524 64.6523 66.1803C64.0699 65.8399 63.8552 65.1116 63.7059 64.4491C63.6367 64.2116 63.6193 63.9619 63.655 63.7171C63.746 63.2706 64.15 62.9851 64.4958 62.6813C65.3694 61.9493 66.0428 60.7159 65.6206 59.6435C65.2566 58.7285 64.2301 58.2015 63.928 57.2718C63.838 56.9372 63.8308 56.5855 63.9069 56.2474C63.9831 55.9093 64.1402 55.5951 64.3648 55.332L67.4151 57.1328C66.7308 58.5089 66.4396 60.295 67.7281 61.0526Z" fill="white"/>
<path opacity="0.15" d="M79.5444 95.1601C82.0633 94.1829 85.2629 91.1524 86.253 90.1935C87.1567 89.3746 87.9475 88.4379 88.6044 87.4082C89.3243 86.1834 89.6946 84.7828 89.6746 83.3603C89.6527 81.9622 89.2523 80.5933 89.1795 79.1989C89.1214 78.1157 89.2634 77.0312 89.5981 76C89.8311 75.268 90.166 74.536 90.1842 73.7821C90.1842 73.3282 90.1004 72.878 90.0859 72.4279C90.0652 72.2012 90.09 71.9726 90.1588 71.7557C90.2276 71.5388 90.3389 71.338 90.4863 71.1652C90.5845 71.074 90.7012 71.0053 90.8284 70.9639L92.0842 71.6959L93.34 73.3941C93.4019 76.7576 95.5532 79.6564 96.7471 82.8076C93.3036 88.3415 87.2358 94.3586 79.5444 95.1601Z" fill="black"/>
<path opacity="0.35" d="M67.3792 57.1252C66.7312 58.5087 66.4291 60.2948 67.7432 61.0524C66.8841 62.0992 66.3745 63.3289 67.3792 64.8112C67.7759 65.4005 68.7551 66.1142 69.4612 66.1069C68.7332 66.956 68.7332 68.6689 69.4066 69.5473C69.7 69.8724 70.0572 70.1329 70.4556 70.3124C70.854 70.4919 71.2851 70.5865 71.7217 70.5904C67.765 71.1943 67.9725 67.4171 68.4166 66.4655C65.6429 66.0227 65.5045 62.2199 66.6512 60.9536C64.8311 59.5591 66.087 57.2936 66.087 57.2936L57.2636 52.477C55.6256 59.2553 55.1196 66.2276 56.0005 71.1686L53.2778 69.141C51.8218 58.6954 54.4025 49.4648 54.4025 49.4648L67.3792 57.1252Z" fill="white"/>
<path d="M97.8462 75.1148L97.0527 77.2596C95.6777 80.6583 93.6729 83.7634 91.1449 86.4096C88.3021 89.4145 83.6829 92.9976 77.8116 92.9976C74.583 92.9976 71.2596 91.8996 67.9836 89.7365C63.732 86.972 60.352 83.0465 58.2394 78.4198C56.4849 74.6244 55.4475 70.2324 55.1526 65.3646C54.9265 61.2212 55.1855 57.0654 55.9243 52.9828C56.0736 52.2325 56.2883 51.4273 56.4812 50.6843L54.3919 49.4473C54.3919 49.4473 46.3074 78.2002 66.7497 91.6324C84.4656 103.271 97.9772 83.8842 99.7354 76.2165L97.8462 75.1148Z" fill="#F5F5F5"/>
<path d="M77.7858 95.5268C74.0766 95.5268 70.3347 94.2934 66.5964 91.8412C61.9521 88.8183 58.2593 84.5288 55.9494 79.4741C54.0603 75.3895 52.9464 70.6901 52.6334 65.5075C52.3292 60.0604 52.8421 54.5983 54.1549 49.3047L54.6099 49.5755C53.3368 54.7784 52.8461 60.1437 53.1539 65.4929C53.638 73.5156 56.4299 84.5249 66.8803 91.402C72.7043 95.234 78.5466 96.0063 84.225 93.7115C92.961 90.1722 98.4865 80.4476 99.4875 76.0703L99.957 76.3448C98.9342 80.8136 93.3359 90.5858 84.4215 94.1946C82.3159 95.0654 80.0625 95.5179 77.7858 95.5268Z" fill="#455A64"/>
<path d="M70.8076 81.4573C70.8076 81.1937 70.8076 81.062 70.662 80.9815C70.5164 80.9009 70.3999 81.0181 70.298 81.1535C70.1791 81.2975 70.0855 81.4609 70.0214 81.6366C69.9768 81.7489 69.9708 81.8729 70.0045 81.989C70.0381 82.1051 70.1094 82.2065 70.207 82.2771C70.2553 82.2991 70.3079 82.3102 70.3609 82.3096C70.4139 82.309 70.4662 82.2968 70.5141 82.2738C70.5619 82.2508 70.6042 82.2175 70.6379 82.1764C70.6716 82.1352 70.696 82.0872 70.7093 82.0355C70.7682 81.8482 70.8013 81.6536 70.8076 81.4573Z" fill="#263238"/>
<path d="M77.8952 82.603C77.8006 82.3688 77.7351 82.27 77.5822 82.2883C77.4293 82.3066 77.3638 82.4859 77.3165 82.6762C77.2718 82.8705 77.2547 83.0701 77.2655 83.2692C77.2837 83.5327 77.4694 83.7303 77.6768 83.701C77.7894 83.6723 77.8873 83.6024 77.9513 83.5049C78.0153 83.4074 78.0407 83.2894 78.0226 83.174C78.0067 82.9787 77.9638 82.7865 77.8952 82.603Z" fill="#263238"/>
<path d="M84.5057 79.0927C84.3346 78.95 84.2363 78.906 84.1089 79.0195C83.9815 79.1329 83.9997 79.3306 84.0325 79.5246C84.0681 79.7137 84.1319 79.8963 84.2218 80.0662C84.2425 80.1153 84.2747 80.1586 84.3156 80.1924C84.3566 80.2262 84.4051 80.2495 84.457 80.2603C84.5089 80.2711 84.5627 80.2691 84.6136 80.2544C84.6646 80.2397 84.7112 80.2128 84.7496 80.176C84.8351 80.0888 84.8905 79.9763 84.9075 79.855C84.9245 79.7338 84.9024 79.6102 84.8442 79.5026C84.7546 79.3481 84.6402 79.2096 84.5057 79.0927Z" fill="#263238"/>
<path d="M90.1473 72.4688C89.9398 72.4688 89.8379 72.4688 89.7833 72.6591C89.7618 72.7435 89.7625 72.8322 89.7855 72.9163C89.8085 73.0004 89.8529 73.077 89.9143 73.1385C90.0123 73.2769 90.1359 73.3949 90.2783 73.4862C90.3266 73.5082 90.3791 73.5193 90.4322 73.5187C90.4852 73.5181 90.5375 73.5059 90.5853 73.4829C90.6332 73.4599 90.6755 73.4267 90.7092 73.3855C90.7429 73.3444 90.7673 73.2963 90.7806 73.2447C90.826 73.1334 90.8327 73.01 90.7996 72.8945C90.7666 72.7789 90.6958 72.6779 90.5986 72.6078C90.4592 72.5309 90.3056 72.4835 90.1473 72.4688Z" fill="#263238"/>
<path d="M62.6394 57.924C62.8469 57.924 62.9488 57.924 63.0034 57.7336C63.0261 57.6489 63.0262 57.5597 63.0039 57.475C62.9815 57.3902 62.9374 57.3128 62.876 57.2505C62.777 57.1141 62.6536 56.9974 62.512 56.9065C62.4638 56.8838 62.4111 56.8721 62.3579 56.8721C62.3046 56.8721 62.252 56.8838 62.2037 56.9065C62.1555 56.9292 62.1128 56.9623 62.0786 57.0034C62.0445 57.0445 62.0197 57.0926 62.0061 57.1444C61.9608 57.2566 61.9545 57.3808 61.9882 57.4971C62.0219 57.6133 62.0936 57.7147 62.1917 57.7849C62.3305 57.8602 62.4826 57.9074 62.6394 57.924Z" fill="#263238"/>
<path d="M62.4835 67.5857C62.6691 67.465 62.7492 67.3808 62.7383 67.1831C62.7274 66.9855 62.5818 66.9086 62.4325 66.8537C62.2843 66.7964 62.1246 66.7751 61.9666 66.7915C61.8544 66.8218 61.7573 66.8927 61.6941 66.9908C61.6309 67.0888 61.6061 67.2069 61.6244 67.3222C61.6426 67.5857 61.8246 67.7797 62.0358 67.7541C62.1946 67.7282 62.3467 67.671 62.4835 67.5857Z" fill="#263238"/>
<path d="M65.1806 75.9596C65.2934 75.74 65.3298 75.6119 65.2424 75.4509C65.1551 75.2898 64.9986 75.3154 64.8493 75.3594C64.6903 75.4091 64.5438 75.4927 64.4198 75.6046C64.3348 75.6921 64.2798 75.8046 64.2628 75.9257C64.2457 76.0468 64.2676 76.1703 64.3252 76.278C64.3459 76.3274 64.3783 76.371 64.4194 76.4052C64.4606 76.4393 64.5093 76.463 64.5615 76.4741C64.6136 76.4853 64.6677 76.4836 64.7191 76.4692C64.7705 76.4548 64.8177 76.4281 64.8566 76.3915C64.9858 76.2649 65.095 76.1193 65.1806 75.9596Z" fill="#263238"/>
<path d="M82.8633 84.5793C82.6959 84.3377 82.5903 84.2462 82.412 84.3304C82.2336 84.4146 82.2008 84.6525 82.1936 84.8977C82.1857 85.1448 82.2152 85.3916 82.2809 85.6297C82.2911 85.6958 82.3159 85.7588 82.3535 85.814C82.3911 85.8692 82.4406 85.9151 82.4982 85.9485C82.5559 85.9819 82.6203 86.0018 82.6866 86.0068C82.753 86.0118 82.8196 86.0018 82.8815 85.9774C83.0078 85.901 83.1044 85.7835 83.1554 85.6445C83.2063 85.5054 83.2086 85.353 83.1618 85.2125C83.0948 84.9874 82.9942 84.7739 82.8633 84.5793Z" fill="#263238"/>
<path d="M89.8747 77.7314C89.6309 77.6326 89.5107 77.618 89.3797 77.8083C89.3329 77.9073 89.3117 78.0165 89.3181 78.1259C89.3245 78.2353 89.3582 78.3413 89.4161 78.4341C89.5037 78.6431 89.6269 78.835 89.7801 79.0014C89.8235 79.0504 89.878 79.088 89.939 79.1112C90 79.1343 90.0657 79.1423 90.1305 79.1344C90.1952 79.1265 90.2571 79.1029 90.3108 79.0658C90.3645 79.0286 90.4085 78.9789 90.4389 78.9209C90.5203 78.7935 90.5586 78.6432 90.5481 78.4921C90.5376 78.3411 90.4789 78.1975 90.3807 78.0828C90.2357 77.9345 90.064 77.8153 89.8747 77.7314Z" fill="#263238"/>
<path d="M59.6115 61.9169C59.8626 61.851 59.9755 61.7815 60.0119 61.5509C60.0203 61.4472 59.9987 61.3433 59.9496 61.2517C59.9005 61.1601 59.826 61.0848 59.7352 61.0349C59.5787 60.9087 59.3957 60.8199 59.2002 60.775C58.9454 60.7201 58.7015 60.9397 58.6578 61.2655C58.6257 61.4045 58.645 61.5505 58.7119 61.6764C58.7789 61.8023 58.889 61.8995 59.0218 61.9499C59.2184 61.9822 59.4196 61.9709 59.6115 61.9169Z" fill="#263238"/>
<path d="M60.7103 73.003C60.9032 72.7834 60.9797 72.637 60.9105 72.421C60.8413 72.2051 60.6593 72.1612 60.4664 72.1539C60.2707 72.1481 60.0763 72.1882 59.8986 72.271C59.7725 72.3485 59.6762 72.4667 59.6253 72.6062C59.5744 72.7457 59.572 72.8985 59.6183 73.0396C59.6285 73.1057 59.6533 73.1687 59.6909 73.2239C59.7285 73.279 59.7779 73.325 59.8356 73.3584C59.8933 73.3918 59.9576 73.4117 60.024 73.4167C60.0903 73.4217 60.1569 73.4117 60.2189 73.3873C60.4037 73.289 60.57 73.1589 60.7103 73.003Z" fill="#263238"/>
<path d="M66.0285 81.8489C66.1086 81.5415 66.1232 81.3768 65.9739 81.2231C65.8247 81.0694 65.65 81.1572 65.4825 81.2707C65.3057 81.3973 65.1529 81.5547 65.0312 81.7355C64.9504 81.863 64.9124 82.0133 64.9229 82.1642C64.9334 82.3151 64.9918 82.4586 65.0894 82.5736C65.1328 82.6226 65.1873 82.6602 65.2483 82.6834C65.3094 82.7065 65.375 82.7145 65.4398 82.7066C65.5045 82.6987 65.5664 82.6751 65.6201 82.6379C65.6738 82.6008 65.7178 82.5511 65.7483 82.4931C65.8726 82.2934 65.967 82.0763 66.0285 81.8489Z" fill="#263238"/>
<path d="M74.1385 86.0869C74.0876 85.7685 74.033 85.6184 73.8437 85.5818C73.6544 85.5452 73.5379 85.7282 73.4324 85.9478C73.3297 86.1656 73.2597 86.3975 73.2249 86.6359C73.1936 86.7749 73.2132 86.9206 73.28 87.0463C73.3469 87.172 73.4565 87.2693 73.5889 87.3203C73.6571 87.3264 73.7257 87.3182 73.7906 87.2964C73.8555 87.2746 73.9153 87.2397 73.9661 87.1937C74.017 87.1477 74.0579 87.0916 74.0863 87.029C74.1147 86.9665 74.13 86.8987 74.1313 86.8299C74.1659 86.5836 74.1683 86.3338 74.1385 86.0869Z" fill="#263238"/>
<path d="M81.3388 78.4671C81.2187 78.2914 81.1422 78.2219 81.0112 78.2841C80.8801 78.3463 80.8583 78.522 80.8547 78.6977C80.8478 78.8743 80.8687 79.0509 80.9165 79.2211C80.9237 79.2693 80.9415 79.3154 80.9687 79.3558C80.9959 79.3963 81.0318 79.43 81.0738 79.4546C81.1157 79.4792 81.1626 79.494 81.211 79.4979C81.2594 79.5019 81.308 79.4948 81.3533 79.4773C81.4443 79.4209 81.5135 79.3352 81.5499 79.2342C81.5862 79.1332 81.5875 79.0228 81.5535 78.9209C81.5064 78.7592 81.4339 78.606 81.3388 78.4671Z" fill="#263238"/>
<path d="M86.4232 73.4966C86.2485 73.4271 86.1575 73.4161 86.0592 73.5515C86.0248 73.6231 86.0091 73.7023 86.0135 73.7817C86.018 73.8611 86.0425 73.9381 86.0847 74.0053C86.1467 74.1579 86.2355 74.2979 86.3468 74.4189C86.3785 74.4538 86.418 74.4806 86.4621 74.497C86.5062 74.5134 86.5535 74.519 86.6002 74.5132C86.6469 74.5075 86.6915 74.4906 86.7303 74.464C86.7692 74.4375 86.8012 74.4019 86.8236 74.3604C86.8819 74.2679 86.9094 74.1592 86.9022 74.05C86.895 73.9408 86.8535 73.8367 86.7836 73.7528C86.6805 73.6454 86.5583 73.5584 86.4232 73.4966Z" fill="#263238"/>
<path d="M64.467 62.0226C64.649 61.975 64.7327 61.9238 64.7582 61.7481C64.7622 61.6744 64.7455 61.601 64.7101 61.5364C64.6747 61.4717 64.622 61.4182 64.558 61.3821C64.4432 61.2914 64.3104 61.2265 64.1685 61.1918C63.9829 61.1552 63.8045 61.3126 63.7754 61.5578C63.7525 61.66 63.7676 61.7671 63.8179 61.8588C63.8682 61.9505 63.9502 62.0205 64.0484 62.0556C64.1887 62.0746 64.3314 62.0633 64.467 62.0226Z" fill="#263238"/>
<path d="M65.2644 70.067C65.4028 69.9096 65.4574 69.8108 65.41 69.6461C65.3627 69.4814 65.228 69.4558 65.0897 69.4485C64.9465 69.4454 64.8046 69.4755 64.6748 69.5363C64.5841 69.5931 64.5149 69.6786 64.478 69.7793C64.4411 69.8801 64.4386 69.9903 64.4709 70.0926C64.4785 70.1406 64.4967 70.1862 64.5241 70.2262C64.5515 70.2662 64.5875 70.2995 64.6294 70.3237C64.6712 70.3479 64.718 70.3624 64.7661 70.3661C64.8143 70.3698 64.8627 70.3627 64.9077 70.3452C65.0417 70.2738 65.1624 70.1797 65.2644 70.067Z" fill="#263238"/>
<path d="M69.1228 76.4948C69.181 76.2715 69.1919 76.1544 69.0827 76.041C68.9735 75.9275 68.8498 75.9934 68.7187 76.0776C68.5903 76.169 68.4793 76.2831 68.3911 76.4143C68.3322 76.5067 68.3047 76.6159 68.3125 76.7254C68.3204 76.8349 68.3633 76.9389 68.4348 77.0218C68.4661 77.0575 68.5055 77.085 68.5498 77.1019C68.594 77.1188 68.6416 77.1247 68.6886 77.1189C68.7355 77.1131 68.7804 77.0959 68.8192 77.0688C68.8581 77.0417 68.8898 77.0055 68.9116 76.9633C69.0047 76.8185 69.0758 76.6606 69.1228 76.4948Z" fill="#263238"/>
<path d="M75.0053 79.5574C74.9689 79.3305 74.9325 79.2207 74.7942 79.1914C74.6559 79.1621 74.5722 79.3012 74.4957 79.4513C74.4205 79.6084 74.3702 79.7763 74.3465 79.9491C74.3244 80.0512 74.3399 80.1579 74.3901 80.2495C74.4403 80.341 74.5218 80.4111 74.6195 80.4468C74.6697 80.4509 74.7202 80.4444 74.7677 80.4278C74.8153 80.4113 74.859 80.3849 74.8959 80.3505C74.9329 80.3161 74.9623 80.2744 74.9824 80.228C75.0025 80.1816 75.0128 80.1314 75.0126 80.0808C75.0331 79.9068 75.0307 79.7308 75.0053 79.5574Z" fill="#263238"/>
<path d="M90.4353 75.3375C90.5227 73.405 91.116 72.5778 91.116 72.5778C90.9703 72.1322 90.8488 71.6789 90.752 71.22C90.752 70.832 91.4545 70.5246 92.1607 70.682C94.0499 71.1065 95.6442 75.1947 96.3431 76.7612C97.0419 78.3277 98.7018 80.348 100.205 80.8568C100.7 81.0251 101.213 80.8568 100.951 79.0743C100.775 78.127 100.449 77.2139 99.9867 76.3696C100.431 75.1947 101.523 75.0447 101.941 76.3916C102.267 77.3408 102.658 78.2665 103.11 79.1622C103.674 80.3722 104.032 81.6688 104.169 82.9979C104.635 86.2919 104.897 86.2919 106.997 87.7559C108.854 89.0405 109.64 89.52 109.64 89.52L107.547 75.4729C105.763 68.0358 107.587 60.024 111.092 58.1025C116.523 59.5263 120.334 60.6645 121.579 69.7523C122.58 77.0321 125.561 94.3109 124.073 103.651C123.29 108.548 116.913 109.994 112.679 106.989C106.371 102.517 102.269 96.7814 99.0731 93.352C95.8771 89.9226 93.6531 89.0332 91.8149 85.1902C91.2373 84.0501 90.7856 82.8498 90.4681 81.6107C90.3242 79.5225 90.3133 77.4271 90.4353 75.3375Z" fill="#FCBF87"/>
<path d="M124.072 103.637C123.891 104.543 123.489 105.39 122.904 106.103C122.31 106.799 121.562 107.343 120.72 107.692C119.044 108.378 117.187 108.476 115.449 107.97C114.59 107.726 113.775 107.345 113.036 106.843C112.308 106.319 111.58 105.745 110.852 105.17C109.43 104.006 108.073 102.765 106.786 101.452C104.176 98.8493 101.879 95.9616 99.3312 93.2275C98.6833 92.5541 98.0135 91.9026 97.3183 91.2877L95.2253 89.4577C94.5287 88.8592 93.8845 88.2016 93.2997 87.4923C92.7263 86.7672 92.2206 85.9904 91.7891 85.1719C92.1531 86.0312 92.6083 86.8484 93.1468 87.6094C93.6933 88.3636 94.3021 89.0701 94.9668 89.7213C96.31 91.0132 97.6786 92.2393 98.9017 93.6118C100.125 94.9843 101.297 96.4227 102.498 97.8355C103.699 99.2482 104.948 100.635 106.254 101.96C107.567 103.287 108.952 104.538 110.404 105.708C111.132 106.286 111.882 106.839 112.665 107.373C113.466 107.901 114.351 108.287 115.282 108.515C117.139 109.003 119.107 108.824 120.847 108.01C121.707 107.595 122.455 106.981 123.031 106.217C123.311 105.839 123.54 105.425 123.712 104.987C123.882 104.552 124.003 104.099 124.072 103.637Z" fill="#FFA552"/>
<path d="M109.639 89.506C113.669 91.8923 118.401 94.3921 119.624 98.4291C119.165 94.2896 118.212 92.262 109.316 87.2002L109.639 89.506Z" fill="#FFA552"/>
<path d="M52.5207 24.7596C54.4007 22.6225 57.0123 21.2761 59.8354 20.9885C62.6585 20.7009 65.4857 21.4933 67.7537 23.2078C70.0217 24.9224 71.5641 27.4331 72.0735 30.2399C72.5829 33.0467 72.0219 35.9434 70.5023 38.3529L72.0966 41.4895C72.1571 41.6077 72.1806 41.7415 72.1641 41.8734C72.1475 42.0053 72.0917 42.1291 72.0039 42.2285C71.916 42.3279 71.8004 42.3982 71.672 42.4303C71.5437 42.4624 71.4088 42.4546 71.2849 42.4081L68.0089 41.1711C65.8014 42.9621 63.004 43.8514 60.1737 43.662C57.3435 43.4726 54.688 42.2184 52.7359 40.149C50.7839 38.0797 49.6786 35.347 49.6401 32.4952C49.6015 29.6434 50.6326 26.8815 52.528 24.7596H52.5207ZM54.0204 40.1316C55.9893 41.9001 58.5557 42.8454 61.1948 42.7741L62.3815 42.679C64.9693 42.3173 67.3269 40.9894 68.9854 38.9594C70.6439 36.9295 71.4817 34.3462 71.3321 31.7234C71.1826 29.1006 70.0566 26.6305 68.1783 24.8045C66.3 22.9784 63.8068 21.9301 61.1948 21.8682L60.0045 21.9085C57.9833 22.0898 56.0591 22.8619 54.4691 24.1296C52.8791 25.3973 51.6928 27.1052 51.0566 29.0427C50.4204 30.9802 50.362 33.0625 50.8886 35.033C51.4153 37.0034 52.5039 38.7758 54.0204 40.1316Z" fill="#455A64"/>
<path d="M60.9255 38.7953C68.2601 34.8644 68.8607 30.6445 66.7277 28.5802C64.8131 26.7502 61.315 27.9507 60.9255 30.5932C60.5361 27.9507 57.038 26.7319 55.127 28.5802C52.9721 30.6445 53.5837 34.8644 60.9255 38.7953Z" fill="#FF6969"/>
<path d="M125.799 122.918C126.046 126.612 130.199 132.462 137.242 132.935C142.055 133.259 146.705 130.994 147.712 125.658C148.638 120.753 146.759 116.135 145.265 114.066C142.932 110.84 137.463 109.004 131.619 112.445C126.363 115.544 125.607 120.055 125.799 122.918Z" fill="#95683D"/>
<path d="M127.243 124.914C129.791 129.601 137.261 129.916 141.316 126.701C145.77 123.17 146.806 118.018 144.388 114.418C141.579 110.238 135.108 110.834 131.154 113.589C127.275 116.293 125.319 121.376 127.243 124.914Z" fill="#B7D118"/>
<path d="M132.35 119.288C132.202 119.735 132.791 120.106 132.701 120.972C132.57 122.219 131.713 122.937 131.956 123.181C132.262 123.486 133.173 122.913 134.341 122.699C135.654 122.459 135.873 123.057 136.222 122.873C136.638 122.654 136.425 121.685 137.272 120.927C138.103 120.183 138.913 120.162 139.066 119.92C139.22 119.68 138.935 118.979 139.132 118.126C139.329 117.273 140.036 116.498 139.796 116.17C139.556 115.842 138.571 116.783 137.448 116.725C136.706 116.688 136.31 116.331 136.005 116.485C135.699 116.639 135.562 117.591 134.692 118.345C133.552 119.333 132.459 118.96 132.35 119.288Z" fill="#E5DDA0"/>
<path d="M139.953 112.657C139.325 112.376 138.886 113.741 138.642 114.23C138.398 114.719 137.898 115.679 138.415 115.942C138.856 116.167 139.516 114.684 139.743 114.23C139.972 113.776 140.489 112.897 139.953 112.657Z" fill="#7FB240"/>
<path d="M140.636 115.14C140.853 115.393 141.301 115.1 141.66 114.795C142.008 114.498 142.123 114.121 141.963 113.915C141.72 113.6 141.405 113.671 140.968 114.09C140.647 114.399 140.321 114.772 140.636 115.14Z" fill="#7FB240"/>
<path d="M140.304 116.746C140.424 117.256 141.732 116.937 142.687 116.746C143.823 116.519 144.633 116.41 144.515 115.767C144.384 115.059 143.253 115.447 142.402 115.66C140.951 116.022 140.156 116.114 140.304 116.746Z" fill="#7FB240"/>
<path d="M139.803 118.575C139.895 119.233 141.568 118.923 142.983 118.906C144.225 118.891 145.057 118.788 144.993 118.243C144.926 117.673 143.868 117.783 142.682 117.871C141.491 117.958 139.697 117.825 139.803 118.575Z" fill="#7FB240"/>
<path d="M140.279 120.116C140.082 120.66 140.564 120.799 141.695 121.303C142.531 121.674 143.223 122.109 143.448 121.535C143.65 121.02 142.906 120.727 142.261 120.427C141.213 119.936 140.48 119.565 140.279 120.116Z" fill="#7FB240"/>
<path d="M138.856 120.736C138.292 121.461 139.691 122.181 140.705 122.967C141.725 123.758 142.52 124.328 142.846 123.831C143.182 123.318 142.19 122.723 141.316 122.093C140.443 121.465 139.166 120.336 138.856 120.736Z" fill="#7FB240"/>
<path d="M137.457 122.325C137.099 122.597 137.238 122.913 137.772 123.598C138.331 124.314 138.757 124.856 138.931 125.066C139.106 125.276 139.698 126.095 140.15 125.769C140.637 125.417 140.026 124.683 139.852 124.438C139.677 124.194 138.539 122.78 138.241 122.465C137.943 122.15 137.703 122.137 137.457 122.325Z" fill="#7FB240"/>
<path d="M135.847 123.683C135.508 123.805 135.437 124.19 135.663 125.29C135.866 126.271 136.005 126.531 136.145 126.985C136.198 127.156 136.406 127.923 136.948 127.767C137.394 127.638 137.072 126.663 136.985 126.235C136.858 125.609 136.284 123.526 135.847 123.683Z" fill="#7FB240"/>
<path d="M134.415 123.3C133.909 123.178 133.757 124.095 133.665 125.177C133.595 125.998 133.494 126.904 134.045 126.919C134.7 126.936 134.672 125.938 134.726 125.184C134.795 124.241 134.84 123.403 134.415 123.3Z" fill="#7FB240"/>
<path d="M131.188 127.609C131.825 127.865 132.176 126.81 132.444 126.14C132.793 125.267 133.074 124.669 133.179 124.406C133.273 124.174 133.218 123.733 132.817 123.592C132.416 123.452 132.168 124.159 131.87 124.804C131.572 125.449 130.546 127.352 131.188 127.609Z" fill="#7FB240"/>
<path d="M129.312 126.38C129.79 126.725 130.072 126.213 130.613 125.531C131.155 124.85 131.922 124.027 131.453 123.708C131.037 123.425 130.484 124.226 130.028 124.786C129.573 125.345 128.789 126.001 129.312 126.38Z" fill="#7FB240"/>
<path d="M127.621 124.054C127.792 124.554 128.525 124.262 129.363 123.966C130.201 123.669 131.722 123.279 131.495 122.692C131.356 122.334 130.226 122.713 129.177 123.011C128.656 123.157 127.392 123.381 127.621 124.054Z" fill="#7FB240"/>
<path d="M127.614 121.151C127.663 121.779 128.645 121.648 129.763 121.7C131.705 121.79 132.157 121.713 132.168 121.277C132.185 120.613 130.981 120.746 129.701 120.648C128.677 120.57 127.552 120.363 127.614 121.151Z" fill="#7FB240"/>
<path d="M128.705 118.25C128.517 118.693 128.84 119.01 129.914 119.385C131.091 119.795 131.579 120.003 131.8 119.536C132.021 119.07 131.161 118.79 130.278 118.425C129.873 118.258 128.928 117.725 128.705 118.25Z" fill="#7FB240"/>
<path d="M129.524 116.189C129.147 116.705 129.753 117.123 130.73 117.725C131.699 118.321 132.597 118.994 132.974 118.428C133.31 117.924 131.906 117.123 131.294 116.748C130.683 116.373 129.832 115.766 129.524 116.189Z" fill="#7FB240"/>
<path d="M132.125 113.924C131.806 114.13 131.9 114.674 132.596 115.718C133.291 116.763 133.713 117.561 134.238 117.331C134.713 117.123 133.993 115.874 133.591 115.199C133.2 114.535 132.646 113.586 132.125 113.924Z" fill="#7FB240"/>
<path d="M134.849 112.747C134.435 112.813 134.358 113.446 134.561 114.408C134.778 115.445 135.005 116.394 135.477 116.268C135.952 116.143 135.806 115.154 135.646 114.084C135.556 113.488 135.378 112.664 134.849 112.747Z" fill="#7FB240"/>
<path d="M137.734 112.155C137.239 112.085 137.047 112.522 136.867 113.623C136.685 114.723 136.408 115.689 136.92 115.914C137.462 116.152 137.769 114.397 137.929 113.649C138.049 113.081 138.3 112.235 137.734 112.155Z" fill="#7FB240"/>
<path d="M137.306 114.731C136.805 114.605 136.554 114.99 136.483 115.489C136.411 115.987 136.588 116.242 136.867 116.295C137.203 116.357 137.441 116.162 137.566 115.715C137.694 115.269 137.636 114.815 137.306 114.731Z" fill="#303030"/>
<path d="M138.264 116.118C138.542 116.263 138.857 116.102 138.999 115.764C139.082 115.567 139.136 115.104 138.823 114.967C138.478 114.817 138.221 114.984 138.088 115.338C137.981 115.623 137.99 115.976 138.264 116.118Z" fill="#303030"/>
<path d="M140.441 115.321C140.685 115.526 141.007 115.409 141.176 115.243C141.309 115.109 141.414 114.8 141.202 114.569C140.99 114.339 140.645 114.429 140.495 114.586C140.343 114.748 140.165 115.093 140.441 115.321Z" fill="#303030"/>
<path d="M141.538 116.418C141.611 116.765 141.334 117.02 140.893 117.098C140.45 117.177 140.229 117.027 140.167 116.753C140.105 116.48 140.308 116.197 140.627 116.099C140.945 116.002 141.45 116.002 141.538 116.418Z" fill="#303030"/>
<path d="M139.755 118.574C139.772 118.981 140.197 119.081 140.516 119.053C140.923 119.017 141.242 118.831 141.232 118.513C141.223 118.194 140.927 117.999 140.471 118.008C140.081 118.018 139.734 118.132 139.755 118.574Z" fill="#303030"/>
<path d="M140.122 120.028C139.985 120.313 140.139 120.584 140.467 120.727C140.795 120.868 141.236 120.772 141.298 120.496C141.36 120.223 141.21 119.913 140.839 119.816C140.467 119.718 140.237 119.789 140.122 120.028Z" fill="#303030"/>
<path d="M138.599 120.656C138.367 120.935 138.485 121.267 138.847 121.593C139.209 121.919 139.638 121.951 139.856 121.7C140.129 121.381 139.82 120.939 139.511 120.691C139.201 120.444 138.777 120.444 138.599 120.656Z" fill="#303030"/>
<path d="M137.07 121.912C136.721 122.212 136.936 122.647 137.193 122.964C137.45 123.283 137.874 123.406 138.14 123.176C138.406 122.945 138.371 122.495 137.964 122.096C137.636 121.777 137.317 121.7 137.07 121.912Z" fill="#303030"/>
<path d="M135.654 123.221C135.264 123.333 135.299 123.742 135.38 124.07C135.459 124.398 135.772 124.668 136.061 124.565C136.361 124.458 136.441 124.211 136.353 123.787C136.265 123.363 135.929 123.142 135.654 123.221Z" fill="#303030"/>
<path d="M134.504 122.937C134.184 122.907 133.983 123.142 133.886 123.539C133.788 123.937 133.983 124.291 134.309 124.327C134.636 124.362 134.885 124.053 134.911 123.627C134.937 123.202 134.787 122.963 134.504 122.937Z" fill="#303030"/>
<path d="M133.107 123.398C132.657 123.179 132.365 123.62 132.258 123.85C132.151 124.081 132.053 124.619 132.417 124.778C132.779 124.938 133.101 124.574 133.231 124.283C133.371 123.965 133.416 123.548 133.107 123.398Z" fill="#303030"/>
<path d="M130.904 124.344C131.188 124.627 131.557 124.295 131.639 124.194C131.773 124.025 131.774 123.749 131.639 123.601C131.463 123.406 131.18 123.487 131.002 123.627C130.824 123.77 130.683 124.122 130.904 124.344Z" fill="#303030"/>
<path d="M131.045 122.495C130.808 122.536 130.531 122.716 130.593 123.016C130.655 123.316 130.912 123.406 131.221 123.344C131.53 123.282 131.699 122.999 131.663 122.778C131.63 122.557 131.292 122.452 131.045 122.495Z" fill="#303030"/>
<path d="M130.673 121.267C130.658 121.612 130.975 121.768 131.451 121.807C132.096 121.86 132.365 121.61 132.372 121.215C132.38 120.851 132.044 120.675 131.523 120.684C131.001 120.693 130.692 120.86 130.673 121.267Z" fill="#303030"/>
<path d="M131 119.161C130.835 119.418 131.009 119.86 131.382 119.904C131.757 119.947 132.031 119.605 131.907 119.24C131.784 118.872 131.238 118.792 131 119.161Z" fill="#303030"/>
<path d="M131.709 117.638C131.471 118.028 131.745 118.39 132.24 118.621C132.671 118.822 133.001 118.78 133.168 118.523C133.337 118.267 133.204 117.869 132.814 117.622C132.365 117.335 131.938 117.267 131.709 117.638Z" fill="#303030"/>
<path d="M133.717 116.383C133.493 116.506 133.291 116.861 133.664 117.373C133.921 117.727 134.318 117.789 134.523 117.673C134.699 117.573 134.797 117.106 134.568 116.752C134.373 116.458 134.018 116.216 133.717 116.383Z" fill="#303030"/>
<path d="M135.283 115.188C134.981 115.229 134.85 115.657 134.955 115.966C135.052 116.249 135.264 116.444 135.566 116.382C135.866 116.32 135.894 115.897 135.866 115.737C135.84 115.578 135.68 115.135 135.283 115.188Z" fill="#303030"/>
<path d="M1.4997 129.074C1.65438 131.383 4.25009 135.039 8.65165 135.334C11.6599 135.537 14.5661 134.122 15.1954 130.786C15.7743 127.721 14.6001 124.834 13.6661 123.542C12.2083 121.525 8.78993 120.378 5.1372 122.528C1.85243 124.465 1.38016 127.285 1.4997 129.074Z" fill="#95683D"/>
<path d="M2.4014 130.322C3.99398 133.251 8.66273 133.448 11.1975 131.438C13.9807 129.232 14.6287 126.011 13.117 123.761C11.3616 121.149 7.31742 121.522 4.84593 123.244C2.42132 124.933 1.19906 128.11 2.4014 130.322Z" fill="#B7D118"/>
<path d="M5.59352 126.806C5.50095 127.085 5.86891 127.317 5.81266 127.858C5.73063 128.637 5.19509 129.086 5.34743 129.239C5.53845 129.43 6.10798 129.071 6.83806 128.937C7.65837 128.787 7.79548 129.161 8.01345 129.046C8.2736 128.909 8.14001 128.303 8.6697 127.83C9.18884 127.365 9.69509 127.352 9.79118 127.201C9.88727 127.051 9.70915 126.612 9.8322 126.079C9.95524 125.546 10.397 125.062 10.247 124.857C10.097 124.652 9.48181 125.24 8.77985 125.204C8.31579 125.18 8.06852 124.958 7.87751 125.054C7.68649 125.15 7.60095 125.745 7.0572 126.216C6.3447 126.834 5.66149 126.601 5.59352 126.806Z" fill="#E5DDA0"/>
<path d="M10.3452 122.66C9.95266 122.485 9.67845 123.338 9.5261 123.644C9.37376 123.949 9.06087 124.549 9.38431 124.713C9.6597 124.854 10.0722 123.927 10.214 123.644C10.357 123.36 10.6804 122.81 10.3452 122.66Z" fill="#7FB240"/>
<path d="M10.7724 124.213C10.9084 124.371 11.1884 124.188 11.4123 123.997C11.6302 123.812 11.7017 123.576 11.6021 123.447C11.4498 123.25 11.2529 123.295 10.9798 123.556C10.7794 123.75 10.5755 123.983 10.7724 124.213Z" fill="#7FB240"/>
<path d="M10.5647 125.217C10.6397 125.535 11.4577 125.336 12.0542 125.217C12.7643 125.075 13.2706 125.007 13.1967 124.605C13.1147 124.162 12.4081 124.405 11.876 124.538C10.969 124.764 10.4721 124.822 10.5647 125.217Z" fill="#7FB240"/>
<path d="M10.2519 126.359C10.3093 126.771 11.3546 126.577 12.2394 126.567C13.0152 126.557 13.5355 126.493 13.4956 126.152C13.4534 125.796 12.7925 125.865 12.0507 125.92C11.3066 125.974 10.1851 125.89 10.2519 126.359Z" fill="#7FB240"/>
<path d="M10.5493 127.323C10.4262 127.663 10.7274 127.749 11.4341 128.065C11.9567 128.297 12.3891 128.568 12.5298 128.21C12.6563 127.888 12.1911 127.705 11.788 127.517C11.1329 127.21 10.6747 126.978 10.5493 127.323Z" fill="#7FB240"/>
<path d="M9.6602 127.71C9.30746 128.164 10.1817 128.614 10.8157 129.105C11.4532 129.599 11.95 129.956 12.1539 129.645C12.3637 129.324 11.7438 128.953 11.1977 128.559C10.6516 128.166 9.85356 127.461 9.6602 127.71Z" fill="#7FB240"/>
<path d="M8.78624 128.703C8.56241 128.873 8.64913 129.071 8.98312 129.498C9.33233 129.946 9.59835 130.285 9.70733 130.416C9.81632 130.547 10.1866 131.059 10.4691 130.855C10.7737 130.635 10.3917 130.177 10.2827 130.023C10.1737 129.871 9.46241 128.987 9.27608 128.79C9.08976 128.594 8.93976 128.585 8.78624 128.703Z" fill="#7FB240"/>
<path d="M7.77887 129.552C7.56676 129.628 7.52223 129.869 7.66403 130.556C7.79059 131.169 7.87731 131.332 7.9652 131.616C7.99801 131.722 8.12809 132.202 8.46676 132.105C8.74567 132.024 8.5441 131.414 8.4902 131.147C8.41051 130.756 8.05192 129.454 7.77887 129.552Z" fill="#7FB240"/>
<path d="M6.88426 129.312C6.56785 129.236 6.47293 129.809 6.41551 130.486C6.37215 130.999 6.30886 131.565 6.6534 131.574C7.06238 131.585 7.0448 130.961 7.07879 130.49C7.12215 129.901 7.15027 129.377 6.88426 129.312Z" fill="#7FB240"/>
<path d="M4.86672 132.005C5.26516 132.165 5.4843 131.506 5.65188 131.087C5.86984 130.541 6.04563 130.167 6.11125 130.003C6.16984 129.858 6.13586 129.583 5.88508 129.495C5.6343 129.407 5.47961 129.849 5.29328 130.252C5.10695 130.655 4.46594 131.844 4.86672 132.005Z" fill="#7FB240"/>
<path d="M3.69536 131.237C3.99418 131.453 4.16996 131.133 4.50864 130.706C4.84731 130.281 5.32661 129.766 5.03364 129.567C4.77348 129.39 4.42778 129.89 4.14301 130.241C3.85825 130.59 3.3684 131 3.69536 131.237Z" fill="#7FB240"/>
<path d="M2.63822 129.784C2.74486 130.096 3.20306 129.914 3.72689 129.728C4.25072 129.543 5.20111 129.3 5.05931 128.933C4.97259 128.709 4.26595 128.946 3.61087 129.132C3.28509 129.223 2.49525 129.363 2.63822 129.784Z" fill="#7FB240"/>
<path d="M2.63336 127.969C2.66383 128.362 3.27789 128.28 3.97633 128.312C5.19039 128.369 5.47282 128.321 5.47985 128.048C5.49039 127.633 4.73805 127.716 3.93766 127.655C3.29782 127.606 2.59469 127.477 2.63336 127.969Z" fill="#7FB240"/>
<path d="M3.31561 126.156C3.19842 126.432 3.39998 126.63 4.07147 126.865C4.80741 127.121 5.11209 127.251 5.25038 126.96C5.38866 126.668 4.85077 126.493 4.29881 126.265C4.04569 126.16 3.45506 125.828 3.31561 126.156Z" fill="#7FB240"/>
<path d="M3.82757 124.869C3.59202 125.191 3.97054 125.452 4.58109 125.828C5.18695 126.201 5.74827 126.622 5.98382 126.268C6.19359 125.953 5.31585 125.452 4.93382 125.218C4.55179 124.983 4.01976 124.604 3.82757 124.869Z" fill="#7FB240"/>
<path d="M5.45315 123.453C5.25394 123.582 5.31253 123.922 5.74729 124.575C6.18206 125.227 6.44573 125.727 6.77386 125.583C7.07034 125.452 6.62034 124.672 6.36956 124.25C6.12464 123.835 5.77894 123.242 5.45315 123.453Z" fill="#7FB240"/>
<path d="M7.15584 122.716C6.89685 122.757 6.8488 123.154 6.97537 123.755C7.1113 124.403 7.2531 124.996 7.54841 124.917C7.8449 124.839 7.75349 124.221 7.65388 123.552C7.59763 123.179 7.4863 122.665 7.15584 122.716Z" fill="#7FB240"/>
<path d="M8.95822 122.346C8.64884 122.303 8.52931 122.576 8.41681 123.264C8.30314 123.952 8.1297 124.555 8.44962 124.696C8.7883 124.845 8.98048 123.748 9.08009 123.28C9.15509 122.925 9.31212 122.397 8.95822 122.346Z" fill="#7FB240"/>
<path d="M8.69135 123.956C8.37846 123.878 8.22143 124.118 8.17689 124.43C8.13236 124.742 8.24252 124.901 8.41713 124.934C8.62689 124.972 8.77572 124.851 8.85424 124.572C8.93393 124.293 8.8976 124.009 8.69135 123.956Z" fill="#303030"/>
<path d="M9.28942 124.824C9.46286 124.915 9.65973 124.814 9.7488 124.603C9.80036 124.48 9.83434 124.19 9.63864 124.105C9.42301 124.011 9.26247 124.115 9.17926 124.337C9.11247 124.515 9.11833 124.735 9.28942 124.824Z" fill="#303030"/>
<path d="M10.6505 124.326C10.8029 124.454 11.0044 124.381 11.1099 124.277C11.1931 124.193 11.2587 124 11.1263 123.856C10.9939 123.712 10.7783 123.768 10.6845 123.866C10.5896 123.967 10.4783 124.183 10.6505 124.326Z" fill="#303030"/>
<path d="M11.3362 125.012C11.3819 125.229 11.2085 125.388 10.9331 125.437C10.6566 125.486 10.5183 125.393 10.4796 125.222C10.4409 125.05 10.5675 124.874 10.7667 124.813C10.9659 124.752 11.2812 124.752 11.3362 125.012Z" fill="#303030"/>
<path d="M10.2213 126.359C10.2318 126.613 10.4978 126.675 10.697 126.658C10.9513 126.636 11.1505 126.52 11.1447 126.32C11.1388 126.121 10.9537 125.999 10.6689 126.005C10.4252 126.011 10.2084 126.082 10.2213 126.359Z" fill="#303030"/>
<path d="M10.4512 127.267C10.3656 127.445 10.4617 127.615 10.6668 127.704C10.8719 127.792 11.1473 127.732 11.1859 127.56C11.2246 127.389 11.1308 127.196 10.8988 127.135C10.6668 127.074 10.5226 127.118 10.4512 127.267Z" fill="#303030"/>
<path d="M9.49971 127.66C9.3544 127.835 9.42823 128.042 9.6544 128.246C9.88057 128.45 10.1489 128.47 10.2849 128.313C10.456 128.114 10.2626 127.837 10.0692 127.682C9.87588 127.528 9.61104 127.528 9.49971 127.66Z" fill="#303030"/>
<path d="M8.54334 128.445C8.32537 128.633 8.46013 128.905 8.62068 129.103C8.78123 129.302 9.04607 129.379 9.21248 129.235C9.37888 129.091 9.35662 128.81 9.10232 128.56C8.89724 128.361 8.69802 128.313 8.54334 128.445Z" fill="#303030"/>
<path d="M7.65856 129.263C7.41481 129.333 7.43708 129.589 7.48747 129.794C7.53669 129.999 7.73239 130.167 7.91286 130.103C8.10036 130.036 8.15075 129.882 8.09567 129.617C8.04059 129.352 7.83083 129.214 7.65856 129.263Z" fill="#303030"/>
<path d="M6.94054 129.086C6.74015 129.067 6.61476 129.213 6.55382 129.462C6.49288 129.71 6.61476 129.932 6.81867 129.954C7.02257 129.976 7.17843 129.783 7.19484 129.517C7.21125 129.251 7.11749 129.102 6.94054 129.086Z" fill="#303030"/>
<path d="M6.06743 129.374C5.78618 129.237 5.60337 129.512 5.53657 129.657C5.46977 129.801 5.40884 130.137 5.63618 130.237C5.86235 130.336 6.06391 130.109 6.14477 129.927C6.23266 129.728 6.26079 129.468 6.06743 129.374Z" fill="#303030"/>
<path d="M4.69002 129.965C4.86698 130.142 5.09783 129.935 5.1494 129.871C5.2326 129.766 5.23377 129.594 5.1494 129.501C5.03924 129.379 4.86229 129.43 4.75096 129.518C4.63963 129.607 4.55174 129.827 4.69002 129.965Z" fill="#303030"/>
<path d="M4.77814 128.81C4.63048 128.835 4.45705 128.948 4.49572 129.135C4.53439 129.323 4.69494 129.379 4.8883 129.341C5.08166 129.302 5.18712 129.125 5.16486 128.987C5.14376 128.848 4.93283 128.783 4.77814 128.81Z" fill="#303030"/>
<path d="M4.54622 128.041C4.53684 128.257 4.73489 128.354 5.03255 128.379C5.43567 128.412 5.60325 128.256 5.60794 128.009C5.61262 127.781 5.40286 127.671 5.07708 127.677C4.7513 127.683 4.55794 127.787 4.54622 128.041Z" fill="#303030"/>
<path d="M4.74991 126.725C4.64678 126.886 4.75577 127.162 4.98897 127.189C5.22335 127.216 5.39444 127.003 5.3171 126.775C5.23975 126.545 4.89874 126.494 4.74991 126.725Z" fill="#303030"/>
<path d="M5.19315 125.774C5.04432 126.018 5.21541 126.244 5.52479 126.388C5.79432 126.513 6.00057 126.488 6.10487 126.327C6.21033 126.167 6.12713 125.918 5.88338 125.763C5.6033 125.584 5.33611 125.542 5.19315 125.774Z" fill="#303030"/>
<path d="M6.4483 124.989C6.30885 125.067 6.18229 125.288 6.41549 125.608C6.57604 125.829 6.82448 125.868 6.95221 125.795C7.06237 125.733 7.1233 125.442 6.98034 125.22C6.85846 125.036 6.63698 124.885 6.4483 124.989Z" fill="#303030"/>
<path d="M7.42664 124.243C7.23797 124.269 7.15594 124.536 7.22157 124.729C7.2825 124.906 7.41492 125.028 7.6036 124.989C7.7911 124.951 7.80867 124.686 7.7911 124.586C7.77469 124.487 7.67508 124.21 7.42664 124.243Z" fill="#303030"/>
<path d="M127 141H126.5C125.8 139.7 125.3 138 124.8 136.3L125.7 137.2C128.4 139.3 130.8 138.9 130.8 138.9C130.8 138.9 131.5 135.1 128.8 133.1C126.5 131.3 124.4 131.3 123.8 131.4C123.7 130.8 123.7 130.3 123.6 129.9L122.2 130C122.2 133.2 119.5 139.1 118.6 141C116.6 141.2 115 142.9 115 145C115 147.2 116.8 149 119 149C120.1 149 121 148.6 121.7 147.9C121.3 147 121 146 121 145C121 144 121.3 143 121.7 142.1C121.3 141.7 120.7 141.4 120.2 141.2C120.9 139.7 122.1 137 122.9 134.4C123.3 136.7 124.1 139.4 125.1 141.5C123.9 142.2 123 143.5 123 145C123 147.2 124.8 149 127 149C129.2 149 131 147.2 131 145C131 142.8 129.2 141 127 141ZM119 143.5C118.2 143.5 117.5 144.2 117.5 145H116.5C116.5 143.6 117.6 142.5 119 142.5V143.5ZM127 143.5C126.2 143.5 125.5 144.2 125.5 145H124.5C124.5 143.6 125.6 142.5 127 142.5V143.5Z" fill="#B11D07"/>
<g clip-path="url(#clip1_1021_2239)">
<path d="M28.4895 141.324C29.7764 140.799 30.4727 139.488 30.3167 138.18C30.8076 138.179 31.2906 138.057 31.7232 137.825C32.1558 137.593 32.5249 137.258 32.7978 136.85C33.0707 136.442 33.2393 135.973 33.2885 135.485C33.3378 134.997 33.2663 134.504 33.0803 134.049C32.9178 133.651 32.674 133.319 32.3898 133.046C33.4523 132.817 35.081 132.574 35.8238 133.361L36.6324 132.167C35.277 130.884 32.9401 131.298 31.7762 131.622C31.7954 131.193 31.7385 130.763 31.5684 130.346C31.3833 129.891 31.0893 129.489 30.7123 129.175C30.3353 128.86 29.8869 128.644 29.4064 128.543C28.9259 128.443 28.4281 128.462 27.9567 128.599C27.4854 128.736 27.055 128.987 26.7033 129.33C25.9047 128.273 24.4755 127.841 23.1979 128.363C21.911 128.888 21.2054 130.202 21.3744 131.516C21.0067 131.515 20.6209 131.575 20.2505 131.726C18.9636 132.252 18.2543 133.557 18.4233 134.87C17.9324 134.872 17.4494 134.994 17.0168 135.226C16.5842 135.458 16.2151 135.792 15.9422 136.2C15.6693 136.608 15.5007 137.077 15.4515 137.565C15.4022 138.054 15.4737 138.547 15.6597 139.001C15.8448 139.456 16.1388 139.858 16.5158 140.172C16.8928 140.487 17.3412 140.704 17.8217 140.804C18.3022 140.904 18.8 140.885 19.2714 140.748C19.7427 140.611 20.1731 140.36 20.5248 140.018C20.9198 140.544 21.4782 140.924 22.1126 141.099C22.7469 141.274 23.4213 141.234 24.0303 140.984C24.4006 140.833 24.7129 140.619 24.9802 140.348C25.3751 140.876 25.9336 141.258 26.5685 141.434C27.2034 141.611 27.8789 141.572 28.4895 141.324ZM29.4355 138.032L29.4169 138.04L29.4132 138.031L29.4355 138.032ZM31.6916 134.616C32.0053 135.385 31.6383 136.258 30.8698 136.572C30.1014 136.886 29.2279 136.519 28.9141 135.75C28.6004 134.982 28.9675 134.108 29.7359 133.795C30.5043 133.481 31.3779 133.848 31.6916 134.616ZM26.4106 136.232C25.6422 136.546 24.7687 136.179 24.4549 135.41C24.1412 134.642 24.5083 133.768 25.2767 133.455C26.0451 133.141 26.9187 133.508 27.2324 134.277C27.5461 135.045 27.179 135.919 26.4106 136.232ZM30.1797 130.913C30.4934 131.681 30.1264 132.555 29.3579 132.869C28.5895 133.182 27.716 132.815 27.4023 132.047C27.0885 131.279 27.4556 130.405 28.224 130.091C28.9925 129.778 29.866 130.145 30.1797 130.913ZM23.7648 129.752C24.5332 129.438 25.4068 129.805 25.7205 130.573C26.0342 131.342 25.6672 132.215 24.8987 132.529C24.1303 132.843 23.2568 132.476 22.943 131.707C22.6293 130.939 22.9964 130.065 23.7648 129.752ZM20.8175 133.115C21.5859 132.801 22.4595 133.168 22.7732 133.937C23.0869 134.705 22.7198 135.579 21.9514 135.892C21.183 136.206 20.3094 135.839 19.9957 135.071C19.682 134.302 20.0491 133.429 20.8175 133.115ZM17.0484 138.434C16.7347 137.666 17.1017 136.792 17.8702 136.479C18.6386 136.165 19.5121 136.532 19.8259 137.3C20.1396 138.069 19.7725 138.942 19.0041 139.256C18.2357 139.57 17.3621 139.203 17.0484 138.434ZM21.5076 138.774C21.1939 138.006 21.561 137.132 22.3294 136.818C23.0978 136.505 23.9713 136.872 24.2851 137.64C24.5988 138.408 24.2317 139.282 23.4633 139.596C22.6949 139.909 21.8213 139.542 21.5076 138.774ZM25.9668 139.114C25.6531 138.345 26.0202 137.472 26.7886 137.158C27.557 136.844 28.4306 137.211 28.7443 137.98C29.058 138.748 28.6909 139.622 27.9225 139.935C27.1541 140.249 26.2805 139.882 25.9668 139.114Z" fill="#0CB977"/>
</g>
<g clip-path="url(#clip2_1021_2239)">
<path d="M142.807 152.106C145.192 152.047 147.092 153.921 147.092 153.921C146.817 150.934 144.976 149.918 143.437 149.557L143.541 149.387C145.317 148.601 147.138 149.84 147.138 149.84C146.509 147.809 145.107 147.415 144.079 147.369C144.282 146.085 144.276 145.142 144.276 145.142C143.568 145.528 142.946 145.967 142.323 146.406C141.871 145.423 140.804 144.297 138.707 144.65C138.707 144.65 140.666 145.856 140.711 147.88C139.696 146.668 137.96 145.482 135.169 146.582C135.169 146.582 137.698 147.434 138.72 149.59C136.302 149.511 133.557 151.109 131.827 153.919C129.521 157.666 129.933 162.147 132.743 163.877C135.553 165.607 139.74 163.957 142.046 160.21C143.776 157.399 143.967 154.229 142.807 152.106ZM139.229 160.589C138.934 160.877 138.64 161.166 138.26 161.401L138.116 158.964L135.79 159.881L136.052 162.508C135.691 162.521 135.416 162.587 135.056 162.6L134.84 160.471L132.842 161.237C132.639 160.995 132.488 160.667 132.475 160.307L134.938 159.357L134.709 156.868L132.436 157.699C132.561 157.306 132.6 156.861 132.724 156.468L134.808 155.754L134.644 153.54C134.939 153.251 135.234 152.963 135.614 152.727L135.758 155.164L138.084 154.248L137.822 151.62C138.182 151.607 138.457 151.542 138.818 151.529L139.034 153.658L141.032 152.892C141.235 153.134 141.386 153.462 141.399 153.822L138.935 154.772L139.164 157.261L141.438 156.429C141.313 156.823 141.274 157.268 141.149 157.661L139.066 158.375L139.229 160.589ZM137.985 155.361L138.214 157.851L135.888 158.768L135.659 156.278L137.985 155.361Z" fill="#EA7C22"/>
</g>
</g>
<defs>
<clipPath id="clip0_1021_2239">
<rect width="155" height="172" fill="white" transform="matrix(-1 0 0 1 155 0)"/>
</clipPath>
<clipPath id="clip1_1021_2239">
<rect width="24" height="24" fill="white" transform="translate(32.418 119.198) rotate(67.7918)"/>
</clipPath>
<clipPath id="clip2_1021_2239">
<rect width="24" height="24" fill="white" transform="translate(134.581 138) rotate(31.6144)"/>
</clipPath>
</defs>
</svg>
